ISO-10303-21;
HEADER;
FILE_DESCRIPTION(('FreeCAD Model'),'2;1');
FILE_NAME('Open CASCADE Shape Model','2026-09-21T17:34:02',('FreeCAD'),(
    'FreeCAD'),'Open CASCADE STEP processor 7.8','FreeCAD','Unknown');
FILE_SCHEMA(('AUTOMOTIVE_DESIGN { 1 0 10303 214 1 1 1 1 }'));
ENDSEC;
DATA;
#1 = APPLICATION_PROTOCOL_DEFINITION('international standard',
  'automotive_design',2000,#2);
#2 = APPLICATION_CONTEXT(
  'core data for automotive mechanical design processes');
#3 = SHAPE_DEFINITION_REPRESENTATION(#4,#10);
#4 = PRODUCT_DEFINITION_SHAPE('','',#5);
#5 = PRODUCT_DEFINITION('design','',#6,#9);
#6 = PRODUCT_DEFINITION_FORMATION('','',#7);
#7 = PRODUCT('Open CASCADE STEP translator 7.8 12',
  'Open CASCADE STEP translator 7.8 12','',(#8));
#8 = PRODUCT_CONTEXT('',#2,'mechanical');
#9 = PRODUCT_DEFINITION_CONTEXT('part definition',#2,'design');
#10 = ADVANCED_BREP_SHAPE_REPRESENTATION('',(#11,#15),#1355);
#11 = AXIS2_PLACEMENT_3D('',#12,#13,#14);
#12 = CARTESIAN_POINT('',(0.,0.,0.));
#13 = DIRECTION('',(0.,0.,1.));
#14 = DIRECTION('',(1.,0.,-0.));
#15 = MANIFOLD_SOLID_BREP('',#16);
#16 = CLOSED_SHELL('',(#17,#59,#90,#219,#259,#413,#430,#461,#492,#571,
    #588,#605,#622,#639,#656,#753,#779,#796,#813,#829,#841,#921,#938,
    #962,#1020,#1037,#1068,#1092,#1123,#1140,#1152,#1169,#1199,#1215,
    #1233,#1250,#1267,#1279,#1296,#1313,#1325,#1343));
#17 = ADVANCED_FACE('',(#18),#54,.T.);
#18 = FACE_BOUND('',#19,.F.);
#19 = EDGE_LOOP('',(#20,#30,#39,#47));
#20 = ORIENTED_EDGE('',*,*,#21,.T.);
#21 = EDGE_CURVE('',#22,#24,#26,.T.);
#22 = VERTEX_POINT('',#23);
#23 = CARTESIAN_POINT('',(115.14031242374,-66.,9.));
#24 = VERTEX_POINT('',#25);
#25 = CARTESIAN_POINT('',(115.14031242374,-66.,6.3));
#26 = LINE('',#27,#28);
#27 = CARTESIAN_POINT('',(115.14031242374,-66.,6.3));
#28 = VECTOR('',#29,1.);
#29 = DIRECTION('',(-0.,-0.,-1.));
#30 = ORIENTED_EDGE('',*,*,#31,.F.);
#31 = EDGE_CURVE('',#32,#24,#34,.T.);
#32 = VERTEX_POINT('',#33);
#33 = CARTESIAN_POINT('',(113.85968757625,-66.,6.3));
#34 = CIRCLE('',#35,2.1);
#35 = AXIS2_PLACEMENT_3D('',#36,#37,#38);
#36 = CARTESIAN_POINT('',(114.5,-64.,6.3));
#37 = DIRECTION('',(0.,0.,1.));
#38 = DIRECTION('',(1.,0.,0.));
#39 = ORIENTED_EDGE('',*,*,#40,.F.);
#40 = EDGE_CURVE('',#41,#32,#43,.T.);
#41 = VERTEX_POINT('',#42);
#42 = CARTESIAN_POINT('',(113.85968757625,-66.,9.));
#43 = LINE('',#44,#45);
#44 = CARTESIAN_POINT('',(113.85968757625,-66.,6.3));
#45 = VECTOR('',#46,1.);
#46 = DIRECTION('',(-0.,-0.,-1.));
#47 = ORIENTED_EDGE('',*,*,#48,.T.);
#48 = EDGE_CURVE('',#41,#22,#49,.T.);
#49 = CIRCLE('',#50,2.1);
#50 = AXIS2_PLACEMENT_3D('',#51,#52,#53);
#51 = CARTESIAN_POINT('',(114.5,-64.,9.));
#52 = DIRECTION('',(0.,0.,1.));
#53 = DIRECTION('',(1.,0.,0.));
#54 = CYLINDRICAL_SURFACE('',#55,2.1);
#55 = AXIS2_PLACEMENT_3D('',#56,#57,#58);
#56 = CARTESIAN_POINT('',(114.5,-64.,6.3));
#57 = DIRECTION('',(-0.,-0.,-1.));
#58 = DIRECTION('',(1.,0.,0.));
#59 = ADVANCED_FACE('',(#60),#85,.F.);
#60 = FACE_BOUND('',#61,.F.);
#61 = EDGE_LOOP('',(#62,#70,#71,#79));
#62 = ORIENTED_EDGE('',*,*,#63,.F.);
#63 = EDGE_CURVE('',#24,#64,#66,.T.);
#64 = VERTEX_POINT('',#65);
#65 = CARTESIAN_POINT('',(129.95968757625,-66.,6.3));
#66 = LINE('',#67,#68);
#67 = CARTESIAN_POINT('',(111.,-66.,6.3));
#68 = VECTOR('',#69,1.);
#69 = DIRECTION('',(1.,0.,0.));
#70 = ORIENTED_EDGE('',*,*,#21,.F.);
#71 = ORIENTED_EDGE('',*,*,#72,.T.);
#72 = EDGE_CURVE('',#22,#73,#75,.T.);
#73 = VERTEX_POINT('',#74);
#74 = CARTESIAN_POINT('',(129.95968757625,-66.,9.));
#75 = LINE('',#76,#77);
#76 = CARTESIAN_POINT('',(111.,-66.,9.));
#77 = VECTOR('',#78,1.);
#78 = DIRECTION('',(1.,0.,0.));
#79 = ORIENTED_EDGE('',*,*,#80,.T.);
#80 = EDGE_CURVE('',#73,#64,#81,.T.);
#81 = LINE('',#82,#83);
#82 = CARTESIAN_POINT('',(129.95968757625,-66.,6.3));
#83 = VECTOR('',#84,1.);
#84 = DIRECTION('',(-0.,-0.,-1.));
#85 = PLANE('',#86);
#86 = AXIS2_PLACEMENT_3D('',#87,#88,#89);
#87 = CARTESIAN_POINT('',(111.,-66.,6.3));
#88 = DIRECTION('',(0.,1.,0.));
#89 = DIRECTION('',(0.,0.,1.));
#90 = ADVANCED_FACE('',(#91,#192,#203),#214,.T.);
#91 = FACE_BOUND('',#92,.T.);
#92 = EDGE_LOOP('',(#93,#101,#102,#103,#112,#120,#128,#136,#145,#153,
    #162,#170,#178,#186));
#93 = ORIENTED_EDGE('',*,*,#94,.T.);
#94 = EDGE_CURVE('',#95,#41,#97,.T.);
#95 = VERTEX_POINT('',#96);
#96 = CARTESIAN_POINT('',(111.5,-66.,9.));
#97 = LINE('',#98,#99);
#98 = CARTESIAN_POINT('',(111.,-66.,9.));
#99 = VECTOR('',#100,1.);
#100 = DIRECTION('',(1.,0.,0.));
#101 = ORIENTED_EDGE('',*,*,#48,.T.);
#102 = ORIENTED_EDGE('',*,*,#72,.T.);
#103 = ORIENTED_EDGE('',*,*,#104,.T.);
#104 = EDGE_CURVE('',#73,#105,#107,.T.);
#105 = VERTEX_POINT('',#106);
#106 = CARTESIAN_POINT('',(130.92535721577,-66.07464278422,9.));
#107 = CIRCLE('',#108,2.1);
#108 = AXIS2_PLACEMENT_3D('',#109,#110,#111);
#109 = CARTESIAN_POINT('',(130.6,-64.,9.));
#110 = DIRECTION('',(0.,0.,1.));
#111 = DIRECTION('',(1.,0.,0.));
#112 = ORIENTED_EDGE('',*,*,#113,.T.);
#113 = EDGE_CURVE('',#105,#114,#116,.T.);
#114 = VERTEX_POINT('',#115);
#115 = CARTESIAN_POINT('',(133.8,-63.2,9.));
#116 = LINE('',#117,#118);
#117 = CARTESIAN_POINT('',(131.39415833525,-65.60584166474,9.));
#118 = VECTOR('',#119,1.);
#119 = DIRECTION('',(0.707106781187,0.707106781187,0.));
#120 = ORIENTED_EDGE('',*,*,#121,.F.);
#121 = EDGE_CURVE('',#122,#114,#124,.T.);
#122 = VERTEX_POINT('',#123);
#123 = CARTESIAN_POINT('',(133.8,-62.8,9.));
#124 = LINE('',#125,#126);
#125 = CARTESIAN_POINT('',(133.8,-52.70190967853,9.));
#126 = VECTOR('',#127,1.);
#127 = DIRECTION('',(0.,-1.,0.));
#128 = ORIENTED_EDGE('',*,*,#129,.F.);
#129 = EDGE_CURVE('',#130,#122,#132,.T.);
#130 = VERTEX_POINT('',#131);
#131 = CARTESIAN_POINT('',(132.32336879396,-62.8,9.));
#132 = LINE('',#133,#134);
#133 = CARTESIAN_POINT('',(111.,-62.8,9.));
#134 = VECTOR('',#135,1.);
#135 = DIRECTION('',(1.,0.,0.));
#136 = ORIENTED_EDGE('',*,*,#137,.T.);
#137 = EDGE_CURVE('',#130,#138,#140,.T.);
#138 = VERTEX_POINT('',#139);
#139 = CARTESIAN_POINT('',(128.87663120603,-62.8,9.));
#140 = CIRCLE('',#141,2.1);
#141 = AXIS2_PLACEMENT_3D('',#142,#143,#144);
#142 = CARTESIAN_POINT('',(130.6,-64.,9.));
#143 = DIRECTION('',(0.,0.,1.));
#144 = DIRECTION('',(1.,0.,0.));
#145 = ORIENTED_EDGE('',*,*,#146,.F.);
#146 = EDGE_CURVE('',#147,#138,#149,.T.);
#147 = VERTEX_POINT('',#148);
#148 = CARTESIAN_POINT('',(116.22336879396,-62.8,9.));
#149 = LINE('',#150,#151);
#150 = CARTESIAN_POINT('',(111.,-62.8,9.));
#151 = VECTOR('',#152,1.);
#152 = DIRECTION('',(1.,0.,0.));
#153 = ORIENTED_EDGE('',*,*,#154,.T.);
#154 = EDGE_CURVE('',#147,#155,#157,.T.);
#155 = VERTEX_POINT('',#156);
#156 = CARTESIAN_POINT('',(112.77663120603,-62.8,9.));
#157 = CIRCLE('',#158,2.1);
#158 = AXIS2_PLACEMENT_3D('',#159,#160,#161);
#159 = CARTESIAN_POINT('',(114.5,-64.,9.));
#160 = DIRECTION('',(0.,0.,1.));
#161 = DIRECTION('',(1.,0.,0.));
#162 = ORIENTED_EDGE('',*,*,#163,.F.);
#163 = EDGE_CURVE('',#164,#155,#166,.T.);
#164 = VERTEX_POINT('',#165);
#165 = CARTESIAN_POINT('',(112.2,-62.8,9.));
#166 = LINE('',#167,#168);
#167 = CARTESIAN_POINT('',(111.,-62.8,9.));
#168 = VECTOR('',#169,1.);
#169 = DIRECTION('',(1.,0.,0.));
#170 = ORIENTED_EDGE('',*,*,#171,.T.);
#171 = EDGE_CURVE('',#164,#172,#174,.T.);
#172 = VERTEX_POINT('',#173);
#173 = CARTESIAN_POINT('',(112.2,-65.5,9.));
#174 = LINE('',#175,#176);
#175 = CARTESIAN_POINT('',(112.2,-52.70190967853,9.));
#176 = VECTOR('',#177,1.);
#177 = DIRECTION('',(0.,-1.,0.));
#178 = ORIENTED_EDGE('',*,*,#179,.F.);
#179 = EDGE_CURVE('',#180,#172,#182,.T.);
#180 = VERTEX_POINT('',#181);
#181 = CARTESIAN_POINT('',(111.,-65.5,9.));
#182 = LINE('',#183,#184);
#183 = CARTESIAN_POINT('',(111.,-65.5,9.));
#184 = VECTOR('',#185,1.);
#185 = DIRECTION('',(1.,0.,0.));
#186 = ORIENTED_EDGE('',*,*,#187,.T.);
#187 = EDGE_CURVE('',#180,#95,#188,.T.);
#188 = LINE('',#189,#190);
#189 = CARTESIAN_POINT('',(115.22641893467,-69.72641893467,9.));
#190 = VECTOR('',#191,1.);
#191 = DIRECTION('',(0.707106781187,-0.707106781187,0.));
#192 = FACE_BOUND('',#193,.T.);
#193 = EDGE_LOOP('',(#194));
#194 = ORIENTED_EDGE('',*,*,#195,.T.);
#195 = EDGE_CURVE('',#196,#196,#198,.T.);
#196 = VERTEX_POINT('',#197);
#197 = CARTESIAN_POINT('',(115.65,-64.,9.));
#198 = CIRCLE('',#199,1.15);
#199 = AXIS2_PLACEMENT_3D('',#200,#201,#202);
#200 = CARTESIAN_POINT('',(114.5,-64.,9.));
#201 = DIRECTION('',(0.,0.,-1.));
#202 = DIRECTION('',(1.,0.,0.));
#203 = FACE_BOUND('',#204,.T.);
#204 = EDGE_LOOP('',(#205));
#205 = ORIENTED_EDGE('',*,*,#206,.T.);
#206 = EDGE_CURVE('',#207,#207,#209,.T.);
#207 = VERTEX_POINT('',#208);
#208 = CARTESIAN_POINT('',(131.75,-64.,9.));
#209 = CIRCLE('',#210,1.15);
#210 = AXIS2_PLACEMENT_3D('',#211,#212,#213);
#211 = CARTESIAN_POINT('',(130.6,-64.,9.));
#212 = DIRECTION('',(0.,0.,-1.));
#213 = DIRECTION('',(1.,0.,0.));
#214 = PLANE('',#215);
#215 = AXIS2_PLACEMENT_3D('',#216,#217,#218);
#216 = CARTESIAN_POINT('',(122.99115453987,-64.41452119883,9.));
#217 = DIRECTION('',(0.,0.,1.));
#218 = DIRECTION('',(1.,0.,0.));
#219 = ADVANCED_FACE('',(#220),#254,.F.);
#220 = FACE_BOUND('',#221,.F.);
#221 = EDGE_LOOP('',(#222,#230,#238,#246,#252,#253));
#222 = ORIENTED_EDGE('',*,*,#223,.F.);
#223 = EDGE_CURVE('',#224,#32,#226,.T.);
#224 = VERTEX_POINT('',#225);
#225 = CARTESIAN_POINT('',(112.2,-66.,6.3));
#226 = LINE('',#227,#228);
#227 = CARTESIAN_POINT('',(111.,-66.,6.3));
#228 = VECTOR('',#229,1.);
#229 = DIRECTION('',(1.,0.,0.));
#230 = ORIENTED_EDGE('',*,*,#231,.T.);
#231 = EDGE_CURVE('',#224,#232,#234,.T.);
#232 = VERTEX_POINT('',#233);
#233 = CARTESIAN_POINT('',(112.2,-66.,8.55));
#234 = LINE('',#235,#236);
#235 = CARTESIAN_POINT('',(112.2,-66.,9.668523702136));
#236 = VECTOR('',#237,1.);
#237 = DIRECTION('',(0.,0.,1.));
#238 = ORIENTED_EDGE('',*,*,#239,.F.);
#239 = EDGE_CURVE('',#240,#232,#242,.T.);
#240 = VERTEX_POINT('',#241);
#241 = CARTESIAN_POINT('',(111.5,-66.,8.55));
#242 = LINE('',#243,#244);
#243 = CARTESIAN_POINT('',(111.,-66.,8.55));
#244 = VECTOR('',#245,1.);
#245 = DIRECTION('',(1.,0.,0.));
#246 = ORIENTED_EDGE('',*,*,#247,.T.);
#247 = EDGE_CURVE('',#240,#95,#248,.T.);
#248 = LINE('',#249,#250);
#249 = CARTESIAN_POINT('',(111.5,-66.,6.25));
#250 = VECTOR('',#251,1.);
#251 = DIRECTION('',(0.,0.,1.));
#252 = ORIENTED_EDGE('',*,*,#94,.T.);
#253 = ORIENTED_EDGE('',*,*,#40,.T.);
#254 = PLANE('',#255);
#255 = AXIS2_PLACEMENT_3D('',#256,#257,#258);
#256 = CARTESIAN_POINT('',(111.,-66.,6.3));
#257 = DIRECTION('',(0.,1.,0.));
#258 = DIRECTION('',(0.,0.,1.));
#259 = ADVANCED_FACE('',(#260,#386,#397),#408,.T.);
#260 = FACE_BOUND('',#261,.T.);
#261 = EDGE_LOOP('',(#262,#263,#264,#272,#280,#288,#296,#304,#312,#321,
    #329,#338,#346,#354,#362,#370,#378,#385));
#262 = ORIENTED_EDGE('',*,*,#31,.F.);
#263 = ORIENTED_EDGE('',*,*,#223,.F.);
#264 = ORIENTED_EDGE('',*,*,#265,.F.);
#265 = EDGE_CURVE('',#266,#224,#268,.T.);
#266 = VERTEX_POINT('',#267);
#267 = CARTESIAN_POINT('',(112.2,-66.7,6.3));
#268 = LINE('',#269,#270);
#269 = CARTESIAN_POINT('',(112.2,-68.5,6.3));
#270 = VECTOR('',#271,1.);
#271 = DIRECTION('',(0.,1.,0.));
#272 = ORIENTED_EDGE('',*,*,#273,.T.);
#273 = EDGE_CURVE('',#266,#274,#276,.T.);
#274 = VERTEX_POINT('',#275);
#275 = CARTESIAN_POINT('',(111.,-65.5,6.3));
#276 = LINE('',#277,#278);
#277 = CARTESIAN_POINT('',(115.25016409609,-69.75016409609,6.3));
#278 = VECTOR('',#279,1.);
#279 = DIRECTION('',(-0.707106781187,0.707106781187,0.));
#280 = ORIENTED_EDGE('',*,*,#281,.T.);
#281 = EDGE_CURVE('',#274,#282,#284,.T.);
#282 = VERTEX_POINT('',#283);
#283 = CARTESIAN_POINT('',(111.,-61.5,6.3));
#284 = LINE('',#285,#286);
#285 = CARTESIAN_POINT('',(111.,-68.5,6.3));
#286 = VECTOR('',#287,1.);
#287 = DIRECTION('',(0.,1.,0.));
#288 = ORIENTED_EDGE('',*,*,#289,.T.);
#289 = EDGE_CURVE('',#282,#290,#292,.T.);
#290 = VERTEX_POINT('',#291);
#291 = CARTESIAN_POINT('',(112.2,-61.5,6.3));
#292 = LINE('',#293,#294);
#293 = CARTESIAN_POINT('',(111.,-61.5,6.3));
#294 = VECTOR('',#295,1.);
#295 = DIRECTION('',(1.,0.,0.));
#296 = ORIENTED_EDGE('',*,*,#297,.F.);
#297 = EDGE_CURVE('',#298,#290,#300,.T.);
#298 = VERTEX_POINT('',#299);
#299 = CARTESIAN_POINT('',(112.2,-62.8,6.3));
#300 = LINE('',#301,#302);
#301 = CARTESIAN_POINT('',(112.2,-68.5,6.3));
#302 = VECTOR('',#303,1.);
#303 = DIRECTION('',(0.,1.,0.));
#304 = ORIENTED_EDGE('',*,*,#305,.T.);
#305 = EDGE_CURVE('',#298,#306,#308,.T.);
#306 = VERTEX_POINT('',#307);
#307 = CARTESIAN_POINT('',(112.77663120603,-62.8,6.3));
#308 = LINE('',#309,#310);
#309 = CARTESIAN_POINT('',(111.,-62.8,6.3));
#310 = VECTOR('',#311,1.);
#311 = DIRECTION('',(1.,0.,0.));
#312 = ORIENTED_EDGE('',*,*,#313,.F.);
#313 = EDGE_CURVE('',#314,#306,#316,.T.);
#314 = VERTEX_POINT('',#315);
#315 = CARTESIAN_POINT('',(116.22336879396,-62.8,6.3));
#316 = CIRCLE('',#317,2.1);
#317 = AXIS2_PLACEMENT_3D('',#318,#319,#320);
#318 = CARTESIAN_POINT('',(114.5,-64.,6.3));
#319 = DIRECTION('',(0.,0.,1.));
#320 = DIRECTION('',(1.,0.,0.));
#321 = ORIENTED_EDGE('',*,*,#322,.T.);
#322 = EDGE_CURVE('',#314,#323,#325,.T.);
#323 = VERTEX_POINT('',#324);
#324 = CARTESIAN_POINT('',(128.87663120603,-62.8,6.3));
#325 = LINE('',#326,#327);
#326 = CARTESIAN_POINT('',(111.,-62.8,6.3));
#327 = VECTOR('',#328,1.);
#328 = DIRECTION('',(1.,0.,0.));
#329 = ORIENTED_EDGE('',*,*,#330,.F.);
#330 = EDGE_CURVE('',#331,#323,#333,.T.);
#331 = VERTEX_POINT('',#332);
#332 = CARTESIAN_POINT('',(132.32336879396,-62.8,6.3));
#333 = CIRCLE('',#334,2.1);
#334 = AXIS2_PLACEMENT_3D('',#335,#336,#337);
#335 = CARTESIAN_POINT('',(130.6,-64.,6.3));
#336 = DIRECTION('',(0.,0.,1.));
#337 = DIRECTION('',(1.,0.,0.));
#338 = ORIENTED_EDGE('',*,*,#339,.T.);
#339 = EDGE_CURVE('',#331,#340,#342,.T.);
#340 = VERTEX_POINT('',#341);
#341 = CARTESIAN_POINT('',(133.8,-62.8,6.3));
#342 = LINE('',#343,#344);
#343 = CARTESIAN_POINT('',(111.,-62.8,6.3));
#344 = VECTOR('',#345,1.);
#345 = DIRECTION('',(1.,0.,0.));
#346 = ORIENTED_EDGE('',*,*,#347,.T.);
#347 = EDGE_CURVE('',#340,#348,#350,.T.);
#348 = VERTEX_POINT('',#349);
#349 = CARTESIAN_POINT('',(133.8,-61.9,6.3));
#350 = LINE('',#351,#352);
#351 = CARTESIAN_POINT('',(133.8,-68.5,6.3));
#352 = VECTOR('',#353,1.);
#353 = DIRECTION('',(0.,1.,0.));
#354 = ORIENTED_EDGE('',*,*,#355,.T.);
#355 = EDGE_CURVE('',#348,#356,#358,.T.);
#356 = VERTEX_POINT('',#357);
#357 = CARTESIAN_POINT('',(135.,-61.9,6.3));
#358 = LINE('',#359,#360);
#359 = CARTESIAN_POINT('',(125.65,-61.9,6.3));
#360 = VECTOR('',#361,1.);
#361 = DIRECTION('',(1.,0.,0.));
#362 = ORIENTED_EDGE('',*,*,#363,.F.);
#363 = EDGE_CURVE('',#364,#356,#366,.T.);
#364 = VERTEX_POINT('',#365);
#365 = CARTESIAN_POINT('',(135.,-62.,6.3));
#366 = LINE('',#367,#368);
#367 = CARTESIAN_POINT('',(135.,-68.5,6.3));
#368 = VECTOR('',#369,1.);
#369 = DIRECTION('',(0.,1.,0.));
#370 = ORIENTED_EDGE('',*,*,#371,.T.);
#371 = EDGE_CURVE('',#364,#372,#374,.T.);
#372 = VERTEX_POINT('',#373);
#373 = CARTESIAN_POINT('',(130.92535721577,-66.07464278422,6.3));
#374 = LINE('',#375,#376);
#375 = CARTESIAN_POINT('',(131.30607973707,-65.69392026292,6.3));
#376 = VECTOR('',#377,1.);
#377 = DIRECTION('',(-0.707106781187,-0.707106781187,0.));
#378 = ORIENTED_EDGE('',*,*,#379,.F.);
#379 = EDGE_CURVE('',#64,#372,#380,.T.);
#380 = CIRCLE('',#381,2.1);
#381 = AXIS2_PLACEMENT_3D('',#382,#383,#384);
#382 = CARTESIAN_POINT('',(130.6,-64.,6.3));
#383 = DIRECTION('',(0.,0.,1.));
#384 = DIRECTION('',(1.,0.,0.));
#385 = ORIENTED_EDGE('',*,*,#63,.F.);
#386 = FACE_BOUND('',#387,.T.);
#387 = EDGE_LOOP('',(#388));
#388 = ORIENTED_EDGE('',*,*,#389,.F.);
#389 = EDGE_CURVE('',#390,#390,#392,.T.);
#390 = VERTEX_POINT('',#391);
#391 = CARTESIAN_POINT('',(131.75,-64.,6.3));
#392 = CIRCLE('',#393,1.15);
#393 = AXIS2_PLACEMENT_3D('',#394,#395,#396);
#394 = CARTESIAN_POINT('',(130.6,-64.,6.3));
#395 = DIRECTION('',(0.,0.,-1.));
#396 = DIRECTION('',(1.,0.,0.));
#397 = FACE_BOUND('',#398,.T.);
#398 = EDGE_LOOP('',(#399));
#399 = ORIENTED_EDGE('',*,*,#400,.F.);
#400 = EDGE_CURVE('',#401,#401,#403,.T.);
#401 = VERTEX_POINT('',#402);
#402 = CARTESIAN_POINT('',(115.65,-64.,6.3));
#403 = CIRCLE('',#404,1.15);
#404 = AXIS2_PLACEMENT_3D('',#405,#406,#407);
#405 = CARTESIAN_POINT('',(114.5,-64.,6.3));
#406 = DIRECTION('',(0.,0.,-1.));
#407 = DIRECTION('',(1.,0.,0.));
#408 = PLANE('',#409);
#409 = AXIS2_PLACEMENT_3D('',#410,#411,#412);
#410 = CARTESIAN_POINT('',(122.86248766635,-64.63816871804,6.3));
#411 = DIRECTION('',(-0.,-0.,-1.));
#412 = DIRECTION('',(-1.,0.,0.));
#413 = ADVANCED_FACE('',(#414),#425,.T.);
#414 = FACE_BOUND('',#415,.F.);
#415 = EDGE_LOOP('',(#416,#417,#423,#424));
#416 = ORIENTED_EDGE('',*,*,#104,.T.);
#417 = ORIENTED_EDGE('',*,*,#418,.T.);
#418 = EDGE_CURVE('',#105,#372,#419,.T.);
#419 = LINE('',#420,#421);
#420 = CARTESIAN_POINT('',(130.92535721577,-66.07464278422,6.3));
#421 = VECTOR('',#422,1.);
#422 = DIRECTION('',(-0.,-0.,-1.));
#423 = ORIENTED_EDGE('',*,*,#379,.F.);
#424 = ORIENTED_EDGE('',*,*,#80,.F.);
#425 = CYLINDRICAL_SURFACE('',#426,2.1);
#426 = AXIS2_PLACEMENT_3D('',#427,#428,#429);
#427 = CARTESIAN_POINT('',(130.6,-64.,6.3));
#428 = DIRECTION('',(-0.,-0.,-1.));
#429 = DIRECTION('',(1.,0.,0.));
#430 = ADVANCED_FACE('',(#431),#456,.T.);
#431 = FACE_BOUND('',#432,.T.);
#432 = EDGE_LOOP('',(#433,#439,#440,#448,#454,#455));
#433 = ORIENTED_EDGE('',*,*,#434,.F.);
#434 = EDGE_CURVE('',#274,#180,#435,.T.);
#435 = LINE('',#436,#437);
#436 = CARTESIAN_POINT('',(111.,-65.5,6.2));
#437 = VECTOR('',#438,1.);
#438 = DIRECTION('',(0.,0.,1.));
#439 = ORIENTED_EDGE('',*,*,#273,.F.);
#440 = ORIENTED_EDGE('',*,*,#441,.F.);
#441 = EDGE_CURVE('',#442,#266,#444,.T.);
#442 = VERTEX_POINT('',#443);
#443 = CARTESIAN_POINT('',(112.2,-66.7,7.92));
#444 = LINE('',#445,#446);
#445 = CARTESIAN_POINT('',(112.2,-66.7,9.618523702136));
#446 = VECTOR('',#447,1.);
#447 = DIRECTION('',(0.,0.,-1.));
#448 = ORIENTED_EDGE('',*,*,#449,.T.);
#449 = EDGE_CURVE('',#442,#240,#450,.T.);
#450 = LINE('',#451,#452);
#451 = CARTESIAN_POINT('',(112.51601423487,-67.01601423487,
    7.635587188612));
#452 = VECTOR('',#453,1.);
#453 = DIRECTION('',(-0.596549986272,0.596549986272,0.536894987645));
#454 = ORIENTED_EDGE('',*,*,#247,.T.);
#455 = ORIENTED_EDGE('',*,*,#187,.F.);
#456 = PLANE('',#457);
#457 = AXIS2_PLACEMENT_3D('',#458,#459,#460);
#458 = CARTESIAN_POINT('',(114.,-68.5,6.2));
#459 = DIRECTION('',(-0.707106781187,-0.707106781187,0.));
#460 = DIRECTION('',(-0.707106781187,0.707106781187,0.));
#461 = ADVANCED_FACE('',(#462),#487,.F.);
#462 = FACE_BOUND('',#463,.F.);
#463 = EDGE_LOOP('',(#464,#474,#480,#481));
#464 = ORIENTED_EDGE('',*,*,#465,.T.);
#465 = EDGE_CURVE('',#466,#468,#470,.T.);
#466 = VERTEX_POINT('',#467);
#467 = CARTESIAN_POINT('',(111.,-52.,16.6));
#468 = VERTEX_POINT('',#469);
#469 = CARTESIAN_POINT('',(112.2,-52.,16.6));
#470 = LINE('',#471,#472);
#471 = CARTESIAN_POINT('',(111.,-52.,16.6));
#472 = VECTOR('',#473,1.);
#473 = DIRECTION('',(1.,0.,0.));
#474 = ORIENTED_EDGE('',*,*,#475,.T.);
#475 = EDGE_CURVE('',#468,#172,#476,.T.);
#476 = LINE('',#477,#478);
#477 = CARTESIAN_POINT('',(112.2,-52.,16.6));
#478 = VECTOR('',#479,1.);
#479 = DIRECTION('',(0.,-0.871403098855,-0.490567670466));
#480 = ORIENTED_EDGE('',*,*,#179,.F.);
#481 = ORIENTED_EDGE('',*,*,#482,.F.);
#482 = EDGE_CURVE('',#466,#180,#483,.T.);
#483 = LINE('',#484,#485);
#484 = CARTESIAN_POINT('',(111.,-52.,16.6));
#485 = VECTOR('',#486,1.);
#486 = DIRECTION('',(0.,-0.871403098855,-0.490567670466));
#487 = PLANE('',#488);
#488 = AXIS2_PLACEMENT_3D('',#489,#490,#491);
#489 = CARTESIAN_POINT('',(111.,-52.,16.6));
#490 = DIRECTION('',(0.,0.490567670466,-0.871403098855));
#491 = DIRECTION('',(0.,-0.871403098855,-0.490567670466));
#492 = ADVANCED_FACE('',(#493),#566,.T.);
#493 = FACE_BOUND('',#494,.T.);
#494 = EDGE_LOOP('',(#495,#505,#513,#519,#520,#521,#527,#528,#536,#544,
    #552,#560));
#495 = ORIENTED_EDGE('',*,*,#496,.F.);
#496 = EDGE_CURVE('',#497,#499,#501,.T.);
#497 = VERTEX_POINT('',#498);
#498 = CARTESIAN_POINT('',(112.2,-11.,7.));
#499 = VERTEX_POINT('',#500);
#500 = CARTESIAN_POINT('',(112.2,-12.,7.));
#501 = LINE('',#502,#503);
#502 = CARTESIAN_POINT('',(112.2,-25.70190967853,7.));
#503 = VECTOR('',#504,1.);
#504 = DIRECTION('',(0.,-1.,0.));
#505 = ORIENTED_EDGE('',*,*,#506,.T.);
#506 = EDGE_CURVE('',#497,#507,#509,.T.);
#507 = VERTEX_POINT('',#508);
#508 = CARTESIAN_POINT('',(112.2,-23.,16.6));
#509 = LINE('',#510,#511);
#510 = CARTESIAN_POINT('',(112.2,-11.,7.));
#511 = VECTOR('',#512,1.);
#512 = DIRECTION('',(0.,-0.780868809443,0.624695047554));
#513 = ORIENTED_EDGE('',*,*,#514,.T.);
#514 = EDGE_CURVE('',#507,#468,#515,.T.);
#515 = LINE('',#516,#517);
#516 = CARTESIAN_POINT('',(112.2,-23.,16.6));
#517 = VECTOR('',#518,1.);
#518 = DIRECTION('',(0.,-1.,0.));
#519 = ORIENTED_EDGE('',*,*,#475,.T.);
#520 = ORIENTED_EDGE('',*,*,#171,.F.);
#521 = ORIENTED_EDGE('',*,*,#522,.F.);
#522 = EDGE_CURVE('',#298,#164,#523,.T.);
#523 = LINE('',#524,#525);
#524 = CARTESIAN_POINT('',(112.2,-62.8,9.668523702136));
#525 = VECTOR('',#526,1.);
#526 = DIRECTION('',(0.,0.,1.));
#527 = ORIENTED_EDGE('',*,*,#297,.T.);
#528 = ORIENTED_EDGE('',*,*,#529,.T.);
#529 = EDGE_CURVE('',#290,#530,#532,.T.);
#530 = VERTEX_POINT('',#531);
#531 = CARTESIAN_POINT('',(112.2,-51.5,15.4));
#532 = LINE('',#533,#534);
#533 = CARTESIAN_POINT('',(112.2,-61.5,6.3));
#534 = VECTOR('',#535,1.);
#535 = DIRECTION('',(0.,0.739605318781,0.673040840091));
#536 = ORIENTED_EDGE('',*,*,#537,.T.);
#537 = EDGE_CURVE('',#530,#538,#540,.T.);
#538 = VERTEX_POINT('',#539);
#539 = CARTESIAN_POINT('',(112.2,-23.5,15.4));
#540 = LINE('',#541,#542);
#541 = CARTESIAN_POINT('',(112.2,-51.5,15.4));
#542 = VECTOR('',#543,1.);
#543 = DIRECTION('',(0.,1.,0.));
#544 = ORIENTED_EDGE('',*,*,#545,.T.);
#545 = EDGE_CURVE('',#538,#546,#548,.T.);
#546 = VERTEX_POINT('',#547);
#547 = CARTESIAN_POINT('',(112.2,-13.,6.3));
#548 = LINE('',#549,#550);
#549 = CARTESIAN_POINT('',(112.2,-23.5,15.4));
#550 = VECTOR('',#551,1.);
#551 = DIRECTION('',(-0.,0.75568908279,-0.654930538418));
#552 = ORIENTED_EDGE('',*,*,#553,.T.);
#553 = EDGE_CURVE('',#546,#554,#556,.T.);
#554 = VERTEX_POINT('',#555);
#555 = CARTESIAN_POINT('',(112.2,-12.,6.3));
#556 = LINE('',#557,#558);
#557 = CARTESIAN_POINT('',(112.2,-13.,6.3));
#558 = VECTOR('',#559,1.);
#559 = DIRECTION('',(0.,1.,8.881784197001E-16));
#560 = ORIENTED_EDGE('',*,*,#561,.T.);
#561 = EDGE_CURVE('',#554,#499,#562,.T.);
#562 = LINE('',#563,#564);
#563 = CARTESIAN_POINT('',(112.2,-12.,9.668523702136));
#564 = VECTOR('',#565,1.);
#565 = DIRECTION('',(0.,0.,1.));
#566 = PLANE('',#567);
#567 = AXIS2_PLACEMENT_3D('',#568,#569,#570);
#568 = CARTESIAN_POINT('',(112.2,-39.40381935707,13.037047404272));
#569 = DIRECTION('',(1.,0.,0.));
#570 = DIRECTION('',(0.,0.,1.));
#571 = ADVANCED_FACE('',(#572),#583,.T.);
#572 = FACE_BOUND('',#573,.T.);
#573 = EDGE_LOOP('',(#574,#575,#576,#577));
#574 = ORIENTED_EDGE('',*,*,#305,.F.);
#575 = ORIENTED_EDGE('',*,*,#522,.T.);
#576 = ORIENTED_EDGE('',*,*,#163,.T.);
#577 = ORIENTED_EDGE('',*,*,#578,.T.);
#578 = EDGE_CURVE('',#155,#306,#579,.T.);
#579 = LINE('',#580,#581);
#580 = CARTESIAN_POINT('',(112.77663120603,-62.8,6.3));
#581 = VECTOR('',#582,1.);
#582 = DIRECTION('',(-0.,-0.,-1.));
#583 = PLANE('',#584);
#584 = AXIS2_PLACEMENT_3D('',#585,#586,#587);
#585 = CARTESIAN_POINT('',(111.,-62.8,6.3));
#586 = DIRECTION('',(0.,1.,0.));
#587 = DIRECTION('',(0.,0.,1.));
#588 = ADVANCED_FACE('',(#589),#600,.T.);
#589 = FACE_BOUND('',#590,.F.);
#590 = EDGE_LOOP('',(#591,#592,#598,#599));
#591 = ORIENTED_EDGE('',*,*,#313,.F.);
#592 = ORIENTED_EDGE('',*,*,#593,.F.);
#593 = EDGE_CURVE('',#147,#314,#594,.T.);
#594 = LINE('',#595,#596);
#595 = CARTESIAN_POINT('',(116.22336879396,-62.8,6.3));
#596 = VECTOR('',#597,1.);
#597 = DIRECTION('',(-0.,-0.,-1.));
#598 = ORIENTED_EDGE('',*,*,#154,.T.);
#599 = ORIENTED_EDGE('',*,*,#578,.T.);
#600 = CYLINDRICAL_SURFACE('',#601,2.1);
#601 = AXIS2_PLACEMENT_3D('',#602,#603,#604);
#602 = CARTESIAN_POINT('',(114.5,-64.,6.3));
#603 = DIRECTION('',(-0.,-0.,-1.));
#604 = DIRECTION('',(1.,0.,0.));
#605 = ADVANCED_FACE('',(#606),#617,.T.);
#606 = FACE_BOUND('',#607,.T.);
#607 = EDGE_LOOP('',(#608,#609,#610,#611));
#608 = ORIENTED_EDGE('',*,*,#322,.F.);
#609 = ORIENTED_EDGE('',*,*,#593,.F.);
#610 = ORIENTED_EDGE('',*,*,#146,.T.);
#611 = ORIENTED_EDGE('',*,*,#612,.T.);
#612 = EDGE_CURVE('',#138,#323,#613,.T.);
#613 = LINE('',#614,#615);
#614 = CARTESIAN_POINT('',(128.87663120603,-62.8,6.3));
#615 = VECTOR('',#616,1.);
#616 = DIRECTION('',(-0.,-0.,-1.));
#617 = PLANE('',#618);
#618 = AXIS2_PLACEMENT_3D('',#619,#620,#621);
#619 = CARTESIAN_POINT('',(111.,-62.8,6.3));
#620 = DIRECTION('',(0.,1.,0.));
#621 = DIRECTION('',(0.,0.,1.));
#622 = ADVANCED_FACE('',(#623),#634,.T.);
#623 = FACE_BOUND('',#624,.F.);
#624 = EDGE_LOOP('',(#625,#626,#632,#633));
#625 = ORIENTED_EDGE('',*,*,#330,.F.);
#626 = ORIENTED_EDGE('',*,*,#627,.F.);
#627 = EDGE_CURVE('',#130,#331,#628,.T.);
#628 = LINE('',#629,#630);
#629 = CARTESIAN_POINT('',(132.32336879396,-62.8,6.3));
#630 = VECTOR('',#631,1.);
#631 = DIRECTION('',(-0.,-0.,-1.));
#632 = ORIENTED_EDGE('',*,*,#137,.T.);
#633 = ORIENTED_EDGE('',*,*,#612,.T.);
#634 = CYLINDRICAL_SURFACE('',#635,2.1);
#635 = AXIS2_PLACEMENT_3D('',#636,#637,#638);
#636 = CARTESIAN_POINT('',(130.6,-64.,6.3));
#637 = DIRECTION('',(-0.,-0.,-1.));
#638 = DIRECTION('',(1.,0.,0.));
#639 = ADVANCED_FACE('',(#640),#651,.T.);
#640 = FACE_BOUND('',#641,.T.);
#641 = EDGE_LOOP('',(#642,#643,#644,#645));
#642 = ORIENTED_EDGE('',*,*,#339,.F.);
#643 = ORIENTED_EDGE('',*,*,#627,.F.);
#644 = ORIENTED_EDGE('',*,*,#129,.T.);
#645 = ORIENTED_EDGE('',*,*,#646,.F.);
#646 = EDGE_CURVE('',#340,#122,#647,.T.);
#647 = LINE('',#648,#649);
#648 = CARTESIAN_POINT('',(133.8,-62.8,9.668523702136));
#649 = VECTOR('',#650,1.);
#650 = DIRECTION('',(0.,0.,1.));
#651 = PLANE('',#652);
#652 = AXIS2_PLACEMENT_3D('',#653,#654,#655);
#653 = CARTESIAN_POINT('',(111.,-62.8,6.3));
#654 = DIRECTION('',(0.,1.,0.));
#655 = DIRECTION('',(0.,0.,1.));
#656 = ADVANCED_FACE('',(#657),#748,.F.);
#657 = FACE_BOUND('',#658,.F.);
#658 = EDGE_LOOP('',(#659,#669,#677,#685,#693,#699,#700,#701,#702,#710,
    #718,#726,#734,#742));
#659 = ORIENTED_EDGE('',*,*,#660,.T.);
#660 = EDGE_CURVE('',#661,#663,#665,.T.);
#661 = VERTEX_POINT('',#662);
#662 = CARTESIAN_POINT('',(133.8,-12.8,6.3));
#663 = VERTEX_POINT('',#664);
#664 = CARTESIAN_POINT('',(133.8,-12.8,8.44));
#665 = LINE('',#666,#667);
#666 = CARTESIAN_POINT('',(133.8,-12.8,9.618523702136));
#667 = VECTOR('',#668,1.);
#668 = DIRECTION('',(0.,0.,1.));
#669 = ORIENTED_EDGE('',*,*,#670,.T.);
#670 = EDGE_CURVE('',#663,#671,#673,.T.);
#671 = VERTEX_POINT('',#672);
#672 = CARTESIAN_POINT('',(133.8,-23.,16.6));
#673 = LINE('',#674,#675);
#674 = CARTESIAN_POINT('',(133.8,-11.,7.));
#675 = VECTOR('',#676,1.);
#676 = DIRECTION('',(0.,-0.780868809443,0.624695047554));
#677 = ORIENTED_EDGE('',*,*,#678,.T.);
#678 = EDGE_CURVE('',#671,#679,#681,.T.);
#679 = VERTEX_POINT('',#680);
#680 = CARTESIAN_POINT('',(133.8,-52.,16.6));
#681 = LINE('',#682,#683);
#682 = CARTESIAN_POINT('',(133.8,-23.,16.6));
#683 = VECTOR('',#684,1.);
#684 = DIRECTION('',(0.,-1.,0.));
#685 = ORIENTED_EDGE('',*,*,#686,.T.);
#686 = EDGE_CURVE('',#679,#687,#689,.T.);
#687 = VERTEX_POINT('',#688);
#688 = CARTESIAN_POINT('',(133.8,-63.2,10.294814814815));
#689 = LINE('',#690,#691);
#690 = CARTESIAN_POINT('',(133.8,-52.,16.6));
#691 = VECTOR('',#692,1.);
#692 = DIRECTION('',(0.,-0.871403098855,-0.490567670466));
#693 = ORIENTED_EDGE('',*,*,#694,.T.);
#694 = EDGE_CURVE('',#687,#114,#695,.T.);
#695 = LINE('',#696,#697);
#696 = CARTESIAN_POINT('',(133.8,-63.2,9.618523702136));
#697 = VECTOR('',#698,1.);
#698 = DIRECTION('',(0.,0.,-1.));
#699 = ORIENTED_EDGE('',*,*,#121,.F.);
#700 = ORIENTED_EDGE('',*,*,#646,.F.);
#701 = ORIENTED_EDGE('',*,*,#347,.T.);
#702 = ORIENTED_EDGE('',*,*,#703,.T.);
#703 = EDGE_CURVE('',#348,#704,#706,.T.);
#704 = VERTEX_POINT('',#705);
#705 = CARTESIAN_POINT('',(133.8,-61.9,9.2));
#706 = LINE('',#707,#708);
#707 = CARTESIAN_POINT('',(133.8,-61.9,9.068523702136));
#708 = VECTOR('',#709,1.);
#709 = DIRECTION('',(0.,0.,1.));
#710 = ORIENTED_EDGE('',*,*,#711,.F.);
#711 = EDGE_CURVE('',#712,#704,#714,.T.);
#712 = VERTEX_POINT('',#713);
#713 = CARTESIAN_POINT('',(133.8,-58.31318681318,9.2));
#714 = LINE('',#715,#716);
#715 = CARTESIAN_POINT('',(133.8,-50.65190967853,9.2));
#716 = VECTOR('',#717,1.);
#717 = DIRECTION('',(0.,-1.,0.));
#718 = ORIENTED_EDGE('',*,*,#719,.T.);
#719 = EDGE_CURVE('',#712,#720,#722,.T.);
#720 = VERTEX_POINT('',#721);
#721 = CARTESIAN_POINT('',(133.8,-51.5,15.4));
#722 = LINE('',#723,#724);
#723 = CARTESIAN_POINT('',(133.8,-61.5,6.3));
#724 = VECTOR('',#725,1.);
#725 = DIRECTION('',(0.,0.739605318781,0.673040840091));
#726 = ORIENTED_EDGE('',*,*,#727,.T.);
#727 = EDGE_CURVE('',#720,#728,#730,.T.);
#728 = VERTEX_POINT('',#729);
#729 = CARTESIAN_POINT('',(133.8,-23.5,15.4));
#730 = LINE('',#731,#732);
#731 = CARTESIAN_POINT('',(133.8,-51.5,15.4));
#732 = VECTOR('',#733,1.);
#733 = DIRECTION('',(0.,1.,0.));
#734 = ORIENTED_EDGE('',*,*,#735,.T.);
#735 = EDGE_CURVE('',#728,#736,#738,.T.);
#736 = VERTEX_POINT('',#737);
#737 = CARTESIAN_POINT('',(133.8,-13.,6.3));
#738 = LINE('',#739,#740);
#739 = CARTESIAN_POINT('',(133.8,-23.5,15.4));
#740 = VECTOR('',#741,1.);
#741 = DIRECTION('',(-0.,0.75568908279,-0.654930538418));
#742 = ORIENTED_EDGE('',*,*,#743,.T.);
#743 = EDGE_CURVE('',#736,#661,#744,.T.);
#744 = LINE('',#745,#746);
#745 = CARTESIAN_POINT('',(133.8,-13.,6.3));
#746 = VECTOR('',#747,1.);
#747 = DIRECTION('',(0.,1.,8.881784197001E-16));
#748 = PLANE('',#749);
#749 = AXIS2_PLACEMENT_3D('',#750,#751,#752);
#750 = CARTESIAN_POINT('',(133.8,-39.40381935707,13.037047404272));
#751 = DIRECTION('',(1.,0.,0.));
#752 = DIRECTION('',(0.,0.,1.));
#753 = ADVANCED_FACE('',(#754),#774,.T.);
#754 = FACE_BOUND('',#755,.T.);
#755 = EDGE_LOOP('',(#756,#757,#765,#771,#772,#773));
#756 = ORIENTED_EDGE('',*,*,#371,.F.);
#757 = ORIENTED_EDGE('',*,*,#758,.T.);
#758 = EDGE_CURVE('',#364,#759,#761,.T.);
#759 = VERTEX_POINT('',#760);
#760 = CARTESIAN_POINT('',(135.,-62.,10.97037037037));
#761 = LINE('',#762,#763);
#762 = CARTESIAN_POINT('',(135.,-62.,6.2));
#763 = VECTOR('',#764,1.);
#764 = DIRECTION('',(0.,0.,1.));
#765 = ORIENTED_EDGE('',*,*,#766,.T.);
#766 = EDGE_CURVE('',#759,#687,#767,.T.);
#767 = LINE('',#768,#769);
#768 = CARTESIAN_POINT('',(137.00345758537,-59.99654241462,
    12.098242788803));
#769 = VECTOR('',#770,1.);
#770 = DIRECTION('',(-0.656967365592,-0.656967365592,-0.369848294703));
#771 = ORIENTED_EDGE('',*,*,#694,.T.);
#772 = ORIENTED_EDGE('',*,*,#113,.F.);
#773 = ORIENTED_EDGE('',*,*,#418,.T.);
#774 = PLANE('',#775);
#775 = AXIS2_PLACEMENT_3D('',#776,#777,#778);
#776 = CARTESIAN_POINT('',(135.,-62.,6.2));
#777 = DIRECTION('',(0.707106781187,-0.707106781187,0.));
#778 = DIRECTION('',(-0.707106781187,-0.707106781187,0.));
#779 = ADVANCED_FACE('',(#780),#791,.F.);
#780 = FACE_BOUND('',#781,.T.);
#781 = EDGE_LOOP('',(#782,#783,#789,#790));
#782 = ORIENTED_EDGE('',*,*,#400,.T.);
#783 = ORIENTED_EDGE('',*,*,#784,.T.);
#784 = EDGE_CURVE('',#401,#196,#785,.T.);
#785 = LINE('',#786,#787);
#786 = CARTESIAN_POINT('',(115.65,-64.,6.2));
#787 = VECTOR('',#788,1.);
#788 = DIRECTION('',(0.,0.,1.));
#789 = ORIENTED_EDGE('',*,*,#195,.F.);
#790 = ORIENTED_EDGE('',*,*,#784,.F.);
#791 = CYLINDRICAL_SURFACE('',#792,1.15);
#792 = AXIS2_PLACEMENT_3D('',#793,#794,#795);
#793 = CARTESIAN_POINT('',(114.5,-64.,6.2));
#794 = DIRECTION('',(-0.,-0.,-1.));
#795 = DIRECTION('',(1.,0.,0.));
#796 = ADVANCED_FACE('',(#797),#808,.F.);
#797 = FACE_BOUND('',#798,.T.);
#798 = EDGE_LOOP('',(#799,#800,#806,#807));
#799 = ORIENTED_EDGE('',*,*,#389,.T.);
#800 = ORIENTED_EDGE('',*,*,#801,.T.);
#801 = EDGE_CURVE('',#390,#207,#802,.T.);
#802 = LINE('',#803,#804);
#803 = CARTESIAN_POINT('',(131.75,-64.,6.2));
#804 = VECTOR('',#805,1.);
#805 = DIRECTION('',(0.,0.,1.));
#806 = ORIENTED_EDGE('',*,*,#206,.F.);
#807 = ORIENTED_EDGE('',*,*,#801,.F.);
#808 = CYLINDRICAL_SURFACE('',#809,1.15);
#809 = AXIS2_PLACEMENT_3D('',#810,#811,#812);
#810 = CARTESIAN_POINT('',(130.6,-64.,6.2));
#811 = DIRECTION('',(-0.,-0.,-1.));
#812 = DIRECTION('',(1.,0.,0.));
#813 = ADVANCED_FACE('',(#814),#824,.F.);
#814 = FACE_BOUND('',#815,.F.);
#815 = EDGE_LOOP('',(#816,#817,#818));
#816 = ORIENTED_EDGE('',*,*,#449,.T.);
#817 = ORIENTED_EDGE('',*,*,#239,.T.);
#818 = ORIENTED_EDGE('',*,*,#819,.T.);
#819 = EDGE_CURVE('',#232,#442,#820,.T.);
#820 = LINE('',#821,#822);
#821 = CARTESIAN_POINT('',(112.2,-65.5,9.));
#822 = VECTOR('',#823,1.);
#823 = DIRECTION('',(0.,-0.743294146247,-0.668964731622));
#824 = PLANE('',#825);
#825 = AXIS2_PLACEMENT_3D('',#826,#827,#828);
#826 = CARTESIAN_POINT('',(111.,-65.5,9.));
#827 = DIRECTION('',(0.,0.668964731622,-0.743294146247));
#828 = DIRECTION('',(0.,-0.743294146247,-0.668964731622));
#829 = ADVANCED_FACE('',(#830),#836,.T.);
#830 = FACE_BOUND('',#831,.T.);
#831 = EDGE_LOOP('',(#832,#833,#834,#835));
#832 = ORIENTED_EDGE('',*,*,#265,.T.);
#833 = ORIENTED_EDGE('',*,*,#231,.T.);
#834 = ORIENTED_EDGE('',*,*,#819,.T.);
#835 = ORIENTED_EDGE('',*,*,#441,.T.);
#836 = PLANE('',#837);
#837 = AXIS2_PLACEMENT_3D('',#838,#839,#840);
#838 = CARTESIAN_POINT('',(112.2,-39.40381935707,13.037047404272));
#839 = DIRECTION('',(1.,0.,0.));
#840 = DIRECTION('',(0.,0.,1.));
#841 = ADVANCED_FACE('',(#842),#916,.T.);
#842 = FACE_BOUND('',#843,.T.);
#843 = EDGE_LOOP('',(#844,#854,#862,#870,#878,#886,#892,#893,#894,#902,
    #910));
#844 = ORIENTED_EDGE('',*,*,#845,.T.);
#845 = EDGE_CURVE('',#846,#848,#850,.T.);
#846 = VERTEX_POINT('',#847);
#847 = CARTESIAN_POINT('',(135.,-51.5,15.4));
#848 = VERTEX_POINT('',#849);
#849 = CARTESIAN_POINT('',(135.,-23.5,15.4));
#850 = LINE('',#851,#852);
#851 = CARTESIAN_POINT('',(135.,-51.5,15.4));
#852 = VECTOR('',#853,1.);
#853 = DIRECTION('',(0.,1.,0.));
#854 = ORIENTED_EDGE('',*,*,#855,.T.);
#855 = EDGE_CURVE('',#848,#856,#858,.T.);
#856 = VERTEX_POINT('',#857);
#857 = CARTESIAN_POINT('',(135.,-14.,7.166666666667));
#858 = LINE('',#859,#860);
#859 = CARTESIAN_POINT('',(135.,-23.5,15.4));
#860 = VECTOR('',#861,1.);
#861 = DIRECTION('',(-0.,0.75568908279,-0.654930538418));
#862 = ORIENTED_EDGE('',*,*,#863,.T.);
#863 = EDGE_CURVE('',#856,#864,#866,.T.);
#864 = VERTEX_POINT('',#865);
#865 = CARTESIAN_POINT('',(135.,-14.,9.4));
#866 = LINE('',#867,#868);
#867 = CARTESIAN_POINT('',(135.,-14.,6.2));
#868 = VECTOR('',#869,1.);
#869 = DIRECTION('',(0.,0.,1.));
#870 = ORIENTED_EDGE('',*,*,#871,.T.);
#871 = EDGE_CURVE('',#864,#872,#874,.T.);
#872 = VERTEX_POINT('',#873);
#873 = CARTESIAN_POINT('',(135.,-23.,16.6));
#874 = LINE('',#875,#876);
#875 = CARTESIAN_POINT('',(135.,-11.,7.));
#876 = VECTOR('',#877,1.);
#877 = DIRECTION('',(0.,-0.780868809443,0.624695047554));
#878 = ORIENTED_EDGE('',*,*,#879,.T.);
#879 = EDGE_CURVE('',#872,#880,#882,.T.);
#880 = VERTEX_POINT('',#881);
#881 = CARTESIAN_POINT('',(135.,-52.,16.6));
#882 = LINE('',#883,#884);
#883 = CARTESIAN_POINT('',(135.,-23.,16.6));
#884 = VECTOR('',#885,1.);
#885 = DIRECTION('',(0.,-1.,0.));
#886 = ORIENTED_EDGE('',*,*,#887,.T.);
#887 = EDGE_CURVE('',#880,#759,#888,.T.);
#888 = LINE('',#889,#890);
#889 = CARTESIAN_POINT('',(135.,-52.,16.6));
#890 = VECTOR('',#891,1.);
#891 = DIRECTION('',(0.,-0.871403098855,-0.490567670466));
#892 = ORIENTED_EDGE('',*,*,#758,.F.);
#893 = ORIENTED_EDGE('',*,*,#363,.T.);
#894 = ORIENTED_EDGE('',*,*,#895,.T.);
#895 = EDGE_CURVE('',#356,#896,#898,.T.);
#896 = VERTEX_POINT('',#897);
#897 = CARTESIAN_POINT('',(135.,-61.9,9.2));
#898 = LINE('',#899,#900);
#899 = CARTESIAN_POINT('',(135.,-61.9,9.064387812411));
#900 = VECTOR('',#901,1.);
#901 = DIRECTION('',(0.,0.,1.));
#902 = ORIENTED_EDGE('',*,*,#903,.F.);
#903 = EDGE_CURVE('',#904,#896,#906,.T.);
#904 = VERTEX_POINT('',#905);
#905 = CARTESIAN_POINT('',(135.,-58.31318681318,9.2));
#906 = LINE('',#907,#908);
#907 = CARTESIAN_POINT('',(135.,-50.68060052035,9.2));
#908 = VECTOR('',#909,1.);
#909 = DIRECTION('',(0.,-1.,0.));
#910 = ORIENTED_EDGE('',*,*,#911,.T.);
#911 = EDGE_CURVE('',#904,#846,#912,.T.);
#912 = LINE('',#913,#914);
#913 = CARTESIAN_POINT('',(135.,-61.5,6.3));
#914 = VECTOR('',#915,1.);
#915 = DIRECTION('',(0.,0.739605318781,0.673040840091));
#916 = PLANE('',#917);
#917 = AXIS2_PLACEMENT_3D('',#918,#919,#920);
#918 = CARTESIAN_POINT('',(135.,-39.4612010407,13.028775624821));
#919 = DIRECTION('',(1.,0.,0.));
#920 = DIRECTION('',(0.,0.,1.));
#921 = ADVANCED_FACE('',(#922),#933,.T.);
#922 = FACE_BOUND('',#923,.T.);
#923 = EDGE_LOOP('',(#924,#930,#931,#932));
#924 = ORIENTED_EDGE('',*,*,#925,.T.);
#925 = EDGE_CURVE('',#704,#896,#926,.T.);
#926 = LINE('',#927,#928);
#927 = CARTESIAN_POINT('',(128.3,-61.9,9.2));
#928 = VECTOR('',#929,1.);
#929 = DIRECTION('',(1.,0.,0.));
#930 = ORIENTED_EDGE('',*,*,#895,.F.);
#931 = ORIENTED_EDGE('',*,*,#355,.F.);
#932 = ORIENTED_EDGE('',*,*,#703,.T.);
#933 = PLANE('',#934);
#934 = AXIS2_PLACEMENT_3D('',#935,#936,#937);
#935 = CARTESIAN_POINT('',(128.3,-61.9,5.1));
#936 = DIRECTION('',(0.,1.,0.));
#937 = DIRECTION('',(0.,0.,1.));
#938 = ADVANCED_FACE('',(#939),#957,.F.);
#939 = FACE_BOUND('',#940,.F.);
#940 = EDGE_LOOP('',(#941,#942,#943,#951));
#941 = ORIENTED_EDGE('',*,*,#289,.T.);
#942 = ORIENTED_EDGE('',*,*,#529,.T.);
#943 = ORIENTED_EDGE('',*,*,#944,.F.);
#944 = EDGE_CURVE('',#945,#530,#947,.T.);
#945 = VERTEX_POINT('',#946);
#946 = CARTESIAN_POINT('',(111.,-51.5,15.4));
#947 = LINE('',#948,#949);
#948 = CARTESIAN_POINT('',(111.,-51.5,15.4));
#949 = VECTOR('',#950,1.);
#950 = DIRECTION('',(1.,0.,0.));
#951 = ORIENTED_EDGE('',*,*,#952,.F.);
#952 = EDGE_CURVE('',#282,#945,#953,.T.);
#953 = LINE('',#954,#955);
#954 = CARTESIAN_POINT('',(111.,-61.5,6.3));
#955 = VECTOR('',#956,1.);
#956 = DIRECTION('',(0.,0.739605318781,0.673040840091));
#957 = PLANE('',#958);
#958 = AXIS2_PLACEMENT_3D('',#959,#960,#961);
#959 = CARTESIAN_POINT('',(111.,-61.5,6.3));
#960 = DIRECTION('',(0.,-0.673040840091,0.739605318781));
#961 = DIRECTION('',(0.,0.739605318781,0.673040840091));
#962 = ADVANCED_FACE('',(#963),#1015,.T.);
#963 = FACE_BOUND('',#964,.T.);
#964 = EDGE_LOOP('',(#965,#975,#983,#989,#990,#991,#992,#993,#1001,#1009
    ));
#965 = ORIENTED_EDGE('',*,*,#966,.F.);
#966 = EDGE_CURVE('',#967,#969,#971,.T.);
#967 = VERTEX_POINT('',#968);
#968 = CARTESIAN_POINT('',(111.,-13.,6.3));
#969 = VERTEX_POINT('',#970);
#970 = CARTESIAN_POINT('',(111.,-11.,6.3));
#971 = LINE('',#972,#973);
#972 = CARTESIAN_POINT('',(111.,-13.,6.3));
#973 = VECTOR('',#974,1.);
#974 = DIRECTION('',(0.,1.,8.881784197001E-16));
#975 = ORIENTED_EDGE('',*,*,#976,.F.);
#976 = EDGE_CURVE('',#977,#967,#979,.T.);
#977 = VERTEX_POINT('',#978);
#978 = CARTESIAN_POINT('',(111.,-23.5,15.4));
#979 = LINE('',#980,#981);
#980 = CARTESIAN_POINT('',(111.,-23.5,15.4));
#981 = VECTOR('',#982,1.);
#982 = DIRECTION('',(-0.,0.75568908279,-0.654930538418));
#983 = ORIENTED_EDGE('',*,*,#984,.F.);
#984 = EDGE_CURVE('',#945,#977,#985,.T.);
#985 = LINE('',#986,#987);
#986 = CARTESIAN_POINT('',(111.,-51.5,15.4));
#987 = VECTOR('',#988,1.);
#988 = DIRECTION('',(0.,1.,0.));
#989 = ORIENTED_EDGE('',*,*,#952,.F.);
#990 = ORIENTED_EDGE('',*,*,#281,.F.);
#991 = ORIENTED_EDGE('',*,*,#434,.T.);
#992 = ORIENTED_EDGE('',*,*,#482,.F.);
#993 = ORIENTED_EDGE('',*,*,#994,.F.);
#994 = EDGE_CURVE('',#995,#466,#997,.T.);
#995 = VERTEX_POINT('',#996);
#996 = CARTESIAN_POINT('',(111.,-23.,16.6));
#997 = LINE('',#998,#999);
#998 = CARTESIAN_POINT('',(111.,-23.,16.6));
#999 = VECTOR('',#1000,1.);
#1000 = DIRECTION('',(0.,-1.,0.));
#1001 = ORIENTED_EDGE('',*,*,#1002,.F.);
#1002 = EDGE_CURVE('',#1003,#995,#1005,.T.);
#1003 = VERTEX_POINT('',#1004);
#1004 = CARTESIAN_POINT('',(111.,-11.,7.));
#1005 = LINE('',#1006,#1007);
#1006 = CARTESIAN_POINT('',(111.,-11.,7.));
#1007 = VECTOR('',#1008,1.);
#1008 = DIRECTION('',(0.,-0.780868809443,0.624695047554));
#1009 = ORIENTED_EDGE('',*,*,#1010,.F.);
#1010 = EDGE_CURVE('',#969,#1003,#1011,.T.);
#1011 = LINE('',#1012,#1013);
#1012 = CARTESIAN_POINT('',(111.,-11.,6.3));
#1013 = VECTOR('',#1014,1.);
#1014 = DIRECTION('',(0.,0.,1.));
#1015 = PLANE('',#1016);
#1016 = AXIS2_PLACEMENT_3D('',#1017,#1018,#1019);
#1017 = CARTESIAN_POINT('',(111.,-39.4612010407,13.028775624821));
#1018 = DIRECTION('',(-1.,-0.,-0.));
#1019 = DIRECTION('',(0.,0.,-1.));
#1020 = ADVANCED_FACE('',(#1021),#1032,.F.);
#1021 = FACE_BOUND('',#1022,.F.);
#1022 = EDGE_LOOP('',(#1023,#1029,#1030,#1031));
#1023 = ORIENTED_EDGE('',*,*,#1024,.T.);
#1024 = EDGE_CURVE('',#995,#507,#1025,.T.);
#1025 = LINE('',#1026,#1027);
#1026 = CARTESIAN_POINT('',(111.,-23.,16.6));
#1027 = VECTOR('',#1028,1.);
#1028 = DIRECTION('',(1.,0.,0.));
#1029 = ORIENTED_EDGE('',*,*,#514,.T.);
#1030 = ORIENTED_EDGE('',*,*,#465,.F.);
#1031 = ORIENTED_EDGE('',*,*,#994,.F.);
#1032 = PLANE('',#1033);
#1033 = AXIS2_PLACEMENT_3D('',#1034,#1035,#1036);
#1034 = CARTESIAN_POINT('',(111.,-23.,16.6));
#1035 = DIRECTION('',(0.,0.,-1.));
#1036 = DIRECTION('',(0.,-1.,0.));
#1037 = ADVANCED_FACE('',(#1038),#1063,.T.);
#1038 = FACE_BOUND('',#1039,.T.);
#1039 = EDGE_LOOP('',(#1040,#1048,#1049,#1057));
#1040 = ORIENTED_EDGE('',*,*,#1041,.F.);
#1041 = EDGE_CURVE('',#497,#1042,#1044,.T.);
#1042 = VERTEX_POINT('',#1043);
#1043 = CARTESIAN_POINT('',(132.,-11.,7.));
#1044 = LINE('',#1045,#1046);
#1045 = CARTESIAN_POINT('',(111.,-11.,7.));
#1046 = VECTOR('',#1047,1.);
#1047 = DIRECTION('',(1.,0.,0.));
#1048 = ORIENTED_EDGE('',*,*,#496,.T.);
#1049 = ORIENTED_EDGE('',*,*,#1050,.T.);
#1050 = EDGE_CURVE('',#499,#1051,#1053,.T.);
#1051 = VERTEX_POINT('',#1052);
#1052 = CARTESIAN_POINT('',(133.,-12.,7.));
#1053 = LINE('',#1054,#1055);
#1054 = CARTESIAN_POINT('',(111.,-12.,7.));
#1055 = VECTOR('',#1056,1.);
#1056 = DIRECTION('',(1.,0.,0.));
#1057 = ORIENTED_EDGE('',*,*,#1058,.T.);
#1058 = EDGE_CURVE('',#1051,#1042,#1059,.T.);
#1059 = LINE('',#1060,#1061);
#1060 = CARTESIAN_POINT('',(127.,-6.,7.));
#1061 = VECTOR('',#1062,1.);
#1062 = DIRECTION('',(-0.707106781187,0.707106781187,0.));
#1063 = PLANE('',#1064);
#1064 = AXIS2_PLACEMENT_3D('',#1065,#1066,#1067);
#1065 = CARTESIAN_POINT('',(111.,-12.,7.));
#1066 = DIRECTION('',(0.,0.,1.));
#1067 = DIRECTION('',(1.,0.,0.));
#1068 = ADVANCED_FACE('',(#1069),#1087,.F.);
#1069 = FACE_BOUND('',#1070,.F.);
#1070 = EDGE_LOOP('',(#1071,#1079,#1080,#1081));
#1071 = ORIENTED_EDGE('',*,*,#1072,.F.);
#1072 = EDGE_CURVE('',#554,#1073,#1075,.T.);
#1073 = VERTEX_POINT('',#1074);
#1074 = CARTESIAN_POINT('',(133.,-12.,6.3));
#1075 = LINE('',#1076,#1077);
#1076 = CARTESIAN_POINT('',(111.,-12.,6.3));
#1077 = VECTOR('',#1078,1.);
#1078 = DIRECTION('',(1.,0.,0.));
#1079 = ORIENTED_EDGE('',*,*,#561,.T.);
#1080 = ORIENTED_EDGE('',*,*,#1050,.T.);
#1081 = ORIENTED_EDGE('',*,*,#1082,.T.);
#1082 = EDGE_CURVE('',#1051,#1073,#1083,.T.);
#1083 = LINE('',#1084,#1085);
#1084 = CARTESIAN_POINT('',(133.,-12.,6.25));
#1085 = VECTOR('',#1086,1.);
#1086 = DIRECTION('',(0.,0.,-1.));
#1087 = PLANE('',#1088);
#1088 = AXIS2_PLACEMENT_3D('',#1089,#1090,#1091);
#1089 = CARTESIAN_POINT('',(111.,-12.,6.3));
#1090 = DIRECTION('',(0.,1.,0.));
#1091 = DIRECTION('',(0.,0.,1.));
#1092 = ADVANCED_FACE('',(#1093),#1118,.T.);
#1093 = FACE_BOUND('',#1094,.T.);
#1094 = EDGE_LOOP('',(#1095,#1096,#1104,#1110,#1111,#1112));
#1095 = ORIENTED_EDGE('',*,*,#966,.T.);
#1096 = ORIENTED_EDGE('',*,*,#1097,.T.);
#1097 = EDGE_CURVE('',#969,#1098,#1100,.T.);
#1098 = VERTEX_POINT('',#1099);
#1099 = CARTESIAN_POINT('',(132.,-11.,6.3));
#1100 = LINE('',#1101,#1102);
#1101 = CARTESIAN_POINT('',(133.8,-11.,6.3));
#1102 = VECTOR('',#1103,1.);
#1103 = DIRECTION('',(1.,0.,0.));
#1104 = ORIENTED_EDGE('',*,*,#1105,.T.);
#1105 = EDGE_CURVE('',#1098,#1073,#1106,.T.);
#1106 = LINE('',#1107,#1108);
#1107 = CARTESIAN_POINT('',(129.90462962963,-8.90462962963,6.3));
#1108 = VECTOR('',#1109,1.);
#1109 = DIRECTION('',(0.707106781187,-0.707106781187,-3.878016612989E-16
    ));
#1110 = ORIENTED_EDGE('',*,*,#1072,.F.);
#1111 = ORIENTED_EDGE('',*,*,#553,.F.);
#1112 = ORIENTED_EDGE('',*,*,#1113,.F.);
#1113 = EDGE_CURVE('',#967,#546,#1114,.T.);
#1114 = LINE('',#1115,#1116);
#1115 = CARTESIAN_POINT('',(111.,-13.,6.3));
#1116 = VECTOR('',#1117,1.);
#1117 = DIRECTION('',(1.,0.,0.));
#1118 = PLANE('',#1119);
#1119 = AXIS2_PLACEMENT_3D('',#1120,#1121,#1122);
#1120 = CARTESIAN_POINT('',(123.,-11.61851851851,6.3));
#1121 = DIRECTION('',(0.,5.484343689197E-16,-1.));
#1122 = DIRECTION('',(0.,-1.,-5.484343689197E-16));
#1123 = ADVANCED_FACE('',(#1124),#1135,.F.);
#1124 = FACE_BOUND('',#1125,.F.);
#1125 = EDGE_LOOP('',(#1126,#1132,#1133,#1134));
#1126 = ORIENTED_EDGE('',*,*,#1127,.T.);
#1127 = EDGE_CURVE('',#977,#538,#1128,.T.);
#1128 = LINE('',#1129,#1130);
#1129 = CARTESIAN_POINT('',(111.,-23.5,15.4));
#1130 = VECTOR('',#1131,1.);
#1131 = DIRECTION('',(1.,0.,0.));
#1132 = ORIENTED_EDGE('',*,*,#545,.T.);
#1133 = ORIENTED_EDGE('',*,*,#1113,.F.);
#1134 = ORIENTED_EDGE('',*,*,#976,.F.);
#1135 = PLANE('',#1136);
#1136 = AXIS2_PLACEMENT_3D('',#1137,#1138,#1139);
#1137 = CARTESIAN_POINT('',(111.,-23.5,15.4));
#1138 = DIRECTION('',(0.,0.654930538418,0.75568908279));
#1139 = DIRECTION('',(0.,0.75568908279,-0.654930538418));
#1140 = ADVANCED_FACE('',(#1141),#1147,.F.);
#1141 = FACE_BOUND('',#1142,.F.);
#1142 = EDGE_LOOP('',(#1143,#1144,#1145,#1146));
#1143 = ORIENTED_EDGE('',*,*,#944,.T.);
#1144 = ORIENTED_EDGE('',*,*,#537,.T.);
#1145 = ORIENTED_EDGE('',*,*,#1127,.F.);
#1146 = ORIENTED_EDGE('',*,*,#984,.F.);
#1147 = PLANE('',#1148);
#1148 = AXIS2_PLACEMENT_3D('',#1149,#1150,#1151);
#1149 = CARTESIAN_POINT('',(111.,-51.5,15.4));
#1150 = DIRECTION('',(0.,0.,1.));
#1151 = DIRECTION('',(0.,1.,0.));
#1152 = ADVANCED_FACE('',(#1153),#1164,.F.);
#1153 = FACE_BOUND('',#1154,.F.);
#1154 = EDGE_LOOP('',(#1155,#1161,#1162,#1163));
#1155 = ORIENTED_EDGE('',*,*,#1156,.T.);
#1156 = EDGE_CURVE('',#1003,#497,#1157,.T.);
#1157 = LINE('',#1158,#1159);
#1158 = CARTESIAN_POINT('',(111.,-11.,7.));
#1159 = VECTOR('',#1160,1.);
#1160 = DIRECTION('',(1.,0.,0.));
#1161 = ORIENTED_EDGE('',*,*,#506,.T.);
#1162 = ORIENTED_EDGE('',*,*,#1024,.F.);
#1163 = ORIENTED_EDGE('',*,*,#1002,.F.);
#1164 = PLANE('',#1165);
#1165 = AXIS2_PLACEMENT_3D('',#1166,#1167,#1168);
#1166 = CARTESIAN_POINT('',(111.,-11.,7.));
#1167 = DIRECTION('',(0.,-0.624695047554,-0.780868809443));
#1168 = DIRECTION('',(0.,-0.780868809443,0.624695047554));
#1169 = ADVANCED_FACE('',(#1170),#1194,.T.);
#1170 = FACE_BOUND('',#1171,.T.);
#1171 = EDGE_LOOP('',(#1172,#1173,#1181,#1187,#1188));
#1172 = ORIENTED_EDGE('',*,*,#863,.F.);
#1173 = ORIENTED_EDGE('',*,*,#1174,.T.);
#1174 = EDGE_CURVE('',#856,#1175,#1177,.T.);
#1175 = VERTEX_POINT('',#1176);
#1176 = CARTESIAN_POINT('',(134.,-13.,6.3));
#1177 = LINE('',#1178,#1179);
#1178 = CARTESIAN_POINT('',(136.5626009693,-15.5626009693,8.520920840065
    ));
#1179 = VECTOR('',#1180,1.);
#1180 = DIRECTION('',(-0.602900903294,0.602900903294,-0.522514116188));
#1181 = ORIENTED_EDGE('',*,*,#1182,.F.);
#1182 = EDGE_CURVE('',#661,#1175,#1183,.T.);
#1183 = LINE('',#1184,#1185);
#1184 = CARTESIAN_POINT('',(129.90462962963,-8.90462962963,6.3));
#1185 = VECTOR('',#1186,1.);
#1186 = DIRECTION('',(0.707106781187,-0.707106781187,-3.878016612989E-16
    ));
#1187 = ORIENTED_EDGE('',*,*,#660,.T.);
#1188 = ORIENTED_EDGE('',*,*,#1189,.T.);
#1189 = EDGE_CURVE('',#663,#864,#1190,.T.);
#1190 = LINE('',#1191,#1192);
#1191 = CARTESIAN_POINT('',(132.21969696969,-11.21969696969,
    7.175757575758));
#1192 = VECTOR('',#1193,1.);
#1193 = DIRECTION('',(0.615457454897,-0.615457454897,0.492365963917));
#1194 = PLANE('',#1195);
#1195 = AXIS2_PLACEMENT_3D('',#1196,#1197,#1198);
#1196 = CARTESIAN_POINT('',(132.,-11.,6.2));
#1197 = DIRECTION('',(0.707106781187,0.707106781187,0.));
#1198 = DIRECTION('',(0.707106781187,-0.707106781187,0.));
#1199 = ADVANCED_FACE('',(#1200),#1210,.T.);
#1200 = FACE_BOUND('',#1201,.T.);
#1201 = EDGE_LOOP('',(#1202,#1203,#1209));
#1202 = ORIENTED_EDGE('',*,*,#1182,.T.);
#1203 = ORIENTED_EDGE('',*,*,#1204,.F.);
#1204 = EDGE_CURVE('',#736,#1175,#1205,.T.);
#1205 = LINE('',#1206,#1207);
#1206 = CARTESIAN_POINT('',(133.8,-13.,6.3));
#1207 = VECTOR('',#1208,1.);
#1208 = DIRECTION('',(1.,0.,0.));
#1209 = ORIENTED_EDGE('',*,*,#743,.T.);
#1210 = PLANE('',#1211);
#1211 = AXIS2_PLACEMENT_3D('',#1212,#1213,#1214);
#1212 = CARTESIAN_POINT('',(123.,-11.61851851851,6.3));
#1213 = DIRECTION('',(0.,5.484343689197E-16,-1.));
#1214 = DIRECTION('',(0.,-1.,-5.484343689197E-16));
#1215 = ADVANCED_FACE('',(#1216),#1228,.F.);
#1216 = FACE_BOUND('',#1217,.F.);
#1217 = EDGE_LOOP('',(#1218,#1219,#1225,#1226,#1227));
#1218 = ORIENTED_EDGE('',*,*,#735,.F.);
#1219 = ORIENTED_EDGE('',*,*,#1220,.T.);
#1220 = EDGE_CURVE('',#728,#848,#1221,.T.);
#1221 = LINE('',#1222,#1223);
#1222 = CARTESIAN_POINT('',(133.8,-23.5,15.4));
#1223 = VECTOR('',#1224,1.);
#1224 = DIRECTION('',(1.,0.,0.));
#1225 = ORIENTED_EDGE('',*,*,#855,.T.);
#1226 = ORIENTED_EDGE('',*,*,#1174,.T.);
#1227 = ORIENTED_EDGE('',*,*,#1204,.F.);
#1228 = PLANE('',#1229);
#1229 = AXIS2_PLACEMENT_3D('',#1230,#1231,#1232);
#1230 = CARTESIAN_POINT('',(133.8,-23.5,15.4));
#1231 = DIRECTION('',(0.,0.654930538418,0.75568908279));
#1232 = DIRECTION('',(0.,0.75568908279,-0.654930538418));
#1233 = ADVANCED_FACE('',(#1234),#1245,.F.);
#1234 = FACE_BOUND('',#1235,.F.);
#1235 = EDGE_LOOP('',(#1236,#1242,#1243,#1244));
#1236 = ORIENTED_EDGE('',*,*,#1237,.T.);
#1237 = EDGE_CURVE('',#720,#846,#1238,.T.);
#1238 = LINE('',#1239,#1240);
#1239 = CARTESIAN_POINT('',(133.8,-51.5,15.4));
#1240 = VECTOR('',#1241,1.);
#1241 = DIRECTION('',(1.,0.,0.));
#1242 = ORIENTED_EDGE('',*,*,#845,.T.);
#1243 = ORIENTED_EDGE('',*,*,#1220,.F.);
#1244 = ORIENTED_EDGE('',*,*,#727,.F.);
#1245 = PLANE('',#1246);
#1246 = AXIS2_PLACEMENT_3D('',#1247,#1248,#1249);
#1247 = CARTESIAN_POINT('',(133.8,-51.5,15.4));
#1248 = DIRECTION('',(0.,0.,1.));
#1249 = DIRECTION('',(0.,1.,0.));
#1250 = ADVANCED_FACE('',(#1251),#1262,.F.);
#1251 = FACE_BOUND('',#1252,.F.);
#1252 = EDGE_LOOP('',(#1253,#1254,#1260,#1261));
#1253 = ORIENTED_EDGE('',*,*,#719,.F.);
#1254 = ORIENTED_EDGE('',*,*,#1255,.F.);
#1255 = EDGE_CURVE('',#904,#712,#1256,.T.);
#1256 = LINE('',#1257,#1258);
#1257 = CARTESIAN_POINT('',(131.05,-58.31318681318,9.2));
#1258 = VECTOR('',#1259,1.);
#1259 = DIRECTION('',(-1.,0.,0.));
#1260 = ORIENTED_EDGE('',*,*,#911,.T.);
#1261 = ORIENTED_EDGE('',*,*,#1237,.F.);
#1262 = PLANE('',#1263);
#1263 = AXIS2_PLACEMENT_3D('',#1264,#1265,#1266);
#1264 = CARTESIAN_POINT('',(133.8,-61.5,6.3));
#1265 = DIRECTION('',(0.,-0.673040840091,0.739605318781));
#1266 = DIRECTION('',(0.,0.739605318781,0.673040840091));
#1267 = ADVANCED_FACE('',(#1268),#1274,.F.);
#1268 = FACE_BOUND('',#1269,.F.);
#1269 = EDGE_LOOP('',(#1270,#1271,#1272,#1273));
#1270 = ORIENTED_EDGE('',*,*,#711,.T.);
#1271 = ORIENTED_EDGE('',*,*,#925,.T.);
#1272 = ORIENTED_EDGE('',*,*,#903,.F.);
#1273 = ORIENTED_EDGE('',*,*,#1255,.T.);
#1274 = PLANE('',#1275);
#1275 = AXIS2_PLACEMENT_3D('',#1276,#1277,#1278);
#1276 = CARTESIAN_POINT('',(128.3,-61.9,9.2));
#1277 = DIRECTION('',(0.,0.,1.));
#1278 = DIRECTION('',(1.,0.,0.));
#1279 = ADVANCED_FACE('',(#1280),#1291,.F.);
#1280 = FACE_BOUND('',#1281,.F.);
#1281 = EDGE_LOOP('',(#1282,#1283,#1289,#1290));
#1282 = ORIENTED_EDGE('',*,*,#686,.F.);
#1283 = ORIENTED_EDGE('',*,*,#1284,.T.);
#1284 = EDGE_CURVE('',#679,#880,#1285,.T.);
#1285 = LINE('',#1286,#1287);
#1286 = CARTESIAN_POINT('',(133.8,-52.,16.6));
#1287 = VECTOR('',#1288,1.);
#1288 = DIRECTION('',(1.,0.,0.));
#1289 = ORIENTED_EDGE('',*,*,#887,.T.);
#1290 = ORIENTED_EDGE('',*,*,#766,.T.);
#1291 = PLANE('',#1292);
#1292 = AXIS2_PLACEMENT_3D('',#1293,#1294,#1295);
#1293 = CARTESIAN_POINT('',(133.8,-52.,16.6));
#1294 = DIRECTION('',(0.,0.490567670466,-0.871403098855));
#1295 = DIRECTION('',(0.,-0.871403098855,-0.490567670466));
#1296 = ADVANCED_FACE('',(#1297),#1308,.F.);
#1297 = FACE_BOUND('',#1298,.F.);
#1298 = EDGE_LOOP('',(#1299,#1305,#1306,#1307));
#1299 = ORIENTED_EDGE('',*,*,#1300,.T.);
#1300 = EDGE_CURVE('',#671,#872,#1301,.T.);
#1301 = LINE('',#1302,#1303);
#1302 = CARTESIAN_POINT('',(133.8,-23.,16.6));
#1303 = VECTOR('',#1304,1.);
#1304 = DIRECTION('',(1.,0.,0.));
#1305 = ORIENTED_EDGE('',*,*,#879,.T.);
#1306 = ORIENTED_EDGE('',*,*,#1284,.F.);
#1307 = ORIENTED_EDGE('',*,*,#678,.F.);
#1308 = PLANE('',#1309);
#1309 = AXIS2_PLACEMENT_3D('',#1310,#1311,#1312);
#1310 = CARTESIAN_POINT('',(133.8,-23.,16.6));
#1311 = DIRECTION('',(0.,0.,-1.));
#1312 = DIRECTION('',(0.,-1.,0.));
#1313 = ADVANCED_FACE('',(#1314),#1320,.F.);
#1314 = FACE_BOUND('',#1315,.F.);
#1315 = EDGE_LOOP('',(#1316,#1317,#1318,#1319));
#1316 = ORIENTED_EDGE('',*,*,#670,.F.);
#1317 = ORIENTED_EDGE('',*,*,#1189,.T.);
#1318 = ORIENTED_EDGE('',*,*,#871,.T.);
#1319 = ORIENTED_EDGE('',*,*,#1300,.F.);
#1320 = PLANE('',#1321);
#1321 = AXIS2_PLACEMENT_3D('',#1322,#1323,#1324);
#1322 = CARTESIAN_POINT('',(133.8,-11.,7.));
#1323 = DIRECTION('',(0.,-0.624695047554,-0.780868809443));
#1324 = DIRECTION('',(0.,-0.780868809443,0.624695047554));
#1325 = ADVANCED_FACE('',(#1326),#1338,.T.);
#1326 = FACE_BOUND('',#1327,.T.);
#1327 = EDGE_LOOP('',(#1328,#1329,#1330,#1331,#1332));
#1328 = ORIENTED_EDGE('',*,*,#1097,.F.);
#1329 = ORIENTED_EDGE('',*,*,#1010,.T.);
#1330 = ORIENTED_EDGE('',*,*,#1156,.T.);
#1331 = ORIENTED_EDGE('',*,*,#1041,.T.);
#1332 = ORIENTED_EDGE('',*,*,#1333,.F.);
#1333 = EDGE_CURVE('',#1098,#1042,#1334,.T.);
#1334 = LINE('',#1335,#1336);
#1335 = CARTESIAN_POINT('',(132.,-11.,6.2));
#1336 = VECTOR('',#1337,1.);
#1337 = DIRECTION('',(0.,0.,1.));
#1338 = PLANE('',#1339);
#1339 = AXIS2_PLACEMENT_3D('',#1340,#1341,#1342);
#1340 = CARTESIAN_POINT('',(123.,-11.,6.65));
#1341 = DIRECTION('',(0.,1.,0.));
#1342 = DIRECTION('',(0.,0.,1.));
#1343 = ADVANCED_FACE('',(#1344),#1350,.T.);
#1344 = FACE_BOUND('',#1345,.T.);
#1345 = EDGE_LOOP('',(#1346,#1347,#1348,#1349));
#1346 = ORIENTED_EDGE('',*,*,#1105,.F.);
#1347 = ORIENTED_EDGE('',*,*,#1333,.T.);
#1348 = ORIENTED_EDGE('',*,*,#1058,.F.);
#1349 = ORIENTED_EDGE('',*,*,#1082,.T.);
#1350 = PLANE('',#1351);
#1351 = AXIS2_PLACEMENT_3D('',#1352,#1353,#1354);
#1352 = CARTESIAN_POINT('',(132.,-11.,6.2));
#1353 = DIRECTION('',(0.707106781187,0.707106781187,0.));
#1354 = DIRECTION('',(0.707106781187,-0.707106781187,0.));
#1355 = ( GEOMETRIC_REPRESENTATION_CONTEXT(3) 
GLOBAL_UNCERTAINTY_ASSIGNED_CONTEXT((#1359)) 
GLOBAL_UNIT_ASSIGNED_CONTEXT((#1356,#1357,#1358)) REPRESENTATION_CONTEXT
('Context #1','3D Context with UNIT and UNCERTAINTY') );
#1356 = ( LENGTH_UNIT() NAMED_UNIT(*) SI_UNIT(.MILLI.,.METRE.) );
#1357 = ( NAMED_UNIT(*) PLANE_ANGLE_UNIT() SI_UNIT($,.RADIAN.) );
#1358 = ( NAMED_UNIT(*) SI_UNIT($,.STERADIAN.) SOLID_ANGLE_UNIT() );
#1359 = UNCERTAINTY_MEASURE_WITH_UNIT(LENGTH_MEASURE(2.E-05),#1356,
  'distance_accuracy_value','confusion accuracy');
#1360 = PRODUCT_RELATED_PRODUCT_CATEGORY('part',$,(#7));
ENDSEC;
END-ISO-10303-21;
