ISO-10303-21;
HEADER;
FILE_DESCRIPTION(('FreeCAD Model'),'2;1');
FILE_NAME('Open CASCADE Shape Model','2026-09-21T17:34:17',('FreeCAD'),(
    'FreeCAD'),'Open CASCADE STEP processor 7.8','FreeCAD','Unknown');
FILE_SCHEMA(('AUTOMOTIVE_DESIGN { 1 0 10303 214 1 1 1 1 }'));
ENDSEC;
DATA;
#1 = APPLICATION_PROTOCOL_DEFINITION('international standard',
  'automotive_design',2000,#2);
#2 = APPLICATION_CONTEXT(
  'core data for automotive mechanical design processes');
#3 = SHAPE_DEFINITION_REPRESENTATION(#4,#10);
#4 = PRODUCT_DEFINITION_SHAPE('','',#5);
#5 = PRODUCT_DEFINITION('design','',#6,#9);
#6 = PRODUCT_DEFINITION_FORMATION('','',#7);
#7 = PRODUCT('Open CASCADE STEP translator 7.8 25',
  'Open CASCADE STEP translator 7.8 25','',(#8));
#8 = PRODUCT_CONTEXT('',#2,'mechanical');
#9 = PRODUCT_DEFINITION_CONTEXT('part definition',#2,'design');
#10 = ADVANCED_BREP_SHAPE_REPRESENTATION('',(#11,#15),#1355);
#11 = AXIS2_PLACEMENT_3D('',#12,#13,#14);
#12 = CARTESIAN_POINT('',(0.,0.,0.));
#13 = DIRECTION('',(0.,0.,1.));
#14 = DIRECTION('',(1.,0.,-0.));
#15 = MANIFOLD_SOLID_BREP('',#16);
#16 = CLOSED_SHELL('',(#17,#57,#226,#251,#380,#397,#499,#523,#603,#627,
    #644,#661,#678,#711,#735,#759,#831,#855,#934,#946,#958,#975,#992,
    #1009,#1039,#1055,#1073,#1090,#1107,#1119,#1136,#1153,#1165,#1176,
    #1198,#1210,#1227,#1244,#1276,#1302,#1326,#1343));
#17 = ADVANCED_FACE('',(#18),#52,.T.);
#18 = FACE_BOUND('',#19,.T.);
#19 = EDGE_LOOP('',(#20,#30,#38,#46));
#20 = ORIENTED_EDGE('',*,*,#21,.F.);
#21 = EDGE_CURVE('',#22,#24,#26,.T.);
#22 = VERTEX_POINT('',#23);
#23 = CARTESIAN_POINT('',(31.123368793961,-62.8,6.3));
#24 = VERTEX_POINT('',#25);
#25 = CARTESIAN_POINT('',(43.776631206039,-62.8,6.3));
#26 = LINE('',#27,#28);
#27 = CARTESIAN_POINT('',(25.,-62.8,6.3));
#28 = VECTOR('',#29,1.);
#29 = DIRECTION('',(1.,0.,0.));
#30 = ORIENTED_EDGE('',*,*,#31,.F.);
#31 = EDGE_CURVE('',#32,#22,#34,.T.);
#32 = VERTEX_POINT('',#33);
#33 = CARTESIAN_POINT('',(31.123368793961,-62.8,9.));
#34 = LINE('',#35,#36);
#35 = CARTESIAN_POINT('',(31.123368793961,-62.8,6.3));
#36 = VECTOR('',#37,1.);
#37 = DIRECTION('',(-0.,-0.,-1.));
#38 = ORIENTED_EDGE('',*,*,#39,.T.);
#39 = EDGE_CURVE('',#32,#40,#42,.T.);
#40 = VERTEX_POINT('',#41);
#41 = CARTESIAN_POINT('',(43.776631206038,-62.8,9.));
#42 = LINE('',#43,#44);
#43 = CARTESIAN_POINT('',(25.,-62.8,9.));
#44 = VECTOR('',#45,1.);
#45 = DIRECTION('',(1.,0.,0.));
#46 = ORIENTED_EDGE('',*,*,#47,.T.);
#47 = EDGE_CURVE('',#40,#24,#48,.T.);
#48 = LINE('',#49,#50);
#49 = CARTESIAN_POINT('',(43.776631206039,-62.8,6.3));
#50 = VECTOR('',#51,1.);
#51 = DIRECTION('',(-0.,-0.,-1.));
#52 = PLANE('',#53);
#53 = AXIS2_PLACEMENT_3D('',#54,#55,#56);
#54 = CARTESIAN_POINT('',(25.,-62.8,6.3));
#55 = DIRECTION('',(0.,1.,0.));
#56 = DIRECTION('',(0.,0.,1.));
#57 = ADVANCED_FACE('',(#58,#199,#210),#221,.T.);
#58 = FACE_BOUND('',#59,.T.);
#59 = EDGE_LOOP('',(#60,#70,#78,#85,#86,#95,#103,#111,#119,#127,#135,
    #143,#151,#160,#168,#177,#185,#193));
#60 = ORIENTED_EDGE('',*,*,#61,.F.);
#61 = EDGE_CURVE('',#62,#64,#66,.T.);
#62 = VERTEX_POINT('',#63);
#63 = CARTESIAN_POINT('',(26.2,-62.8,6.3));
#64 = VERTEX_POINT('',#65);
#65 = CARTESIAN_POINT('',(26.2,-61.9,6.3));
#66 = LINE('',#67,#68);
#67 = CARTESIAN_POINT('',(26.2,-68.5,6.3));
#68 = VECTOR('',#69,1.);
#69 = DIRECTION('',(0.,1.,0.));
#70 = ORIENTED_EDGE('',*,*,#71,.T.);
#71 = EDGE_CURVE('',#62,#72,#74,.T.);
#72 = VERTEX_POINT('',#73);
#73 = CARTESIAN_POINT('',(27.676631206039,-62.8,6.3));
#74 = LINE('',#75,#76);
#75 = CARTESIAN_POINT('',(25.,-62.8,6.3));
#76 = VECTOR('',#77,1.);
#77 = DIRECTION('',(1.,0.,0.));
#78 = ORIENTED_EDGE('',*,*,#79,.F.);
#79 = EDGE_CURVE('',#22,#72,#80,.T.);
#80 = CIRCLE('',#81,2.1);
#81 = AXIS2_PLACEMENT_3D('',#82,#83,#84);
#82 = CARTESIAN_POINT('',(29.4,-64.,6.3));
#83 = DIRECTION('',(0.,0.,1.));
#84 = DIRECTION('',(1.,0.,0.));
#85 = ORIENTED_EDGE('',*,*,#21,.T.);
#86 = ORIENTED_EDGE('',*,*,#87,.F.);
#87 = EDGE_CURVE('',#88,#24,#90,.T.);
#88 = VERTEX_POINT('',#89);
#89 = CARTESIAN_POINT('',(47.223368793961,-62.8,6.3));
#90 = CIRCLE('',#91,2.1);
#91 = AXIS2_PLACEMENT_3D('',#92,#93,#94);
#92 = CARTESIAN_POINT('',(45.5,-64.,6.3));
#93 = DIRECTION('',(0.,0.,1.));
#94 = DIRECTION('',(1.,0.,0.));
#95 = ORIENTED_EDGE('',*,*,#96,.T.);
#96 = EDGE_CURVE('',#88,#97,#99,.T.);
#97 = VERTEX_POINT('',#98);
#98 = CARTESIAN_POINT('',(47.8,-62.8,6.3));
#99 = LINE('',#100,#101);
#100 = CARTESIAN_POINT('',(25.,-62.8,6.3));
#101 = VECTOR('',#102,1.);
#102 = DIRECTION('',(1.,0.,0.));
#103 = ORIENTED_EDGE('',*,*,#104,.T.);
#104 = EDGE_CURVE('',#97,#105,#107,.T.);
#105 = VERTEX_POINT('',#106);
#106 = CARTESIAN_POINT('',(47.8,-61.5,6.3));
#107 = LINE('',#108,#109);
#108 = CARTESIAN_POINT('',(47.8,-68.5,6.3));
#109 = VECTOR('',#110,1.);
#110 = DIRECTION('',(0.,1.,0.));
#111 = ORIENTED_EDGE('',*,*,#112,.T.);
#112 = EDGE_CURVE('',#105,#113,#115,.T.);
#113 = VERTEX_POINT('',#114);
#114 = CARTESIAN_POINT('',(49.,-61.5,6.3));
#115 = LINE('',#116,#117);
#116 = CARTESIAN_POINT('',(47.8,-61.5,6.3));
#117 = VECTOR('',#118,1.);
#118 = DIRECTION('',(1.,0.,0.));
#119 = ORIENTED_EDGE('',*,*,#120,.F.);
#120 = EDGE_CURVE('',#121,#113,#123,.T.);
#121 = VERTEX_POINT('',#122);
#122 = CARTESIAN_POINT('',(49.,-65.5,6.3));
#123 = LINE('',#124,#125);
#124 = CARTESIAN_POINT('',(49.,-68.5,6.3));
#125 = VECTOR('',#126,1.);
#126 = DIRECTION('',(0.,1.,0.));
#127 = ORIENTED_EDGE('',*,*,#128,.F.);
#128 = EDGE_CURVE('',#129,#121,#131,.T.);
#129 = VERTEX_POINT('',#130);
#130 = CARTESIAN_POINT('',(47.8,-66.7,6.3));
#131 = LINE('',#132,#133);
#132 = CARTESIAN_POINT('',(44.749835903901,-69.75016409609,6.3));
#133 = VECTOR('',#134,1.);
#134 = DIRECTION('',(0.707106781187,0.707106781187,0.));
#135 = ORIENTED_EDGE('',*,*,#136,.T.);
#136 = EDGE_CURVE('',#129,#137,#139,.T.);
#137 = VERTEX_POINT('',#138);
#138 = CARTESIAN_POINT('',(47.8,-66.,6.3));
#139 = LINE('',#140,#141);
#140 = CARTESIAN_POINT('',(47.8,-68.5,6.3));
#141 = VECTOR('',#142,1.);
#142 = DIRECTION('',(0.,1.,0.));
#143 = ORIENTED_EDGE('',*,*,#144,.F.);
#144 = EDGE_CURVE('',#145,#137,#147,.T.);
#145 = VERTEX_POINT('',#146);
#146 = CARTESIAN_POINT('',(46.140312423743,-66.,6.3));
#147 = LINE('',#148,#149);
#148 = CARTESIAN_POINT('',(25.,-66.,6.3));
#149 = VECTOR('',#150,1.);
#150 = DIRECTION('',(1.,0.,0.));
#151 = ORIENTED_EDGE('',*,*,#152,.F.);
#152 = EDGE_CURVE('',#153,#145,#155,.T.);
#153 = VERTEX_POINT('',#154);
#154 = CARTESIAN_POINT('',(44.859687576257,-66.,6.3));
#155 = CIRCLE('',#156,2.1);
#156 = AXIS2_PLACEMENT_3D('',#157,#158,#159);
#157 = CARTESIAN_POINT('',(45.5,-64.,6.3));
#158 = DIRECTION('',(0.,0.,1.));
#159 = DIRECTION('',(1.,0.,0.));
#160 = ORIENTED_EDGE('',*,*,#161,.F.);
#161 = EDGE_CURVE('',#162,#153,#164,.T.);
#162 = VERTEX_POINT('',#163);
#163 = CARTESIAN_POINT('',(30.040312423743,-66.,6.3));
#164 = LINE('',#165,#166);
#165 = CARTESIAN_POINT('',(25.,-66.,6.3));
#166 = VECTOR('',#167,1.);
#167 = DIRECTION('',(1.,0.,0.));
#168 = ORIENTED_EDGE('',*,*,#169,.F.);
#169 = EDGE_CURVE('',#170,#162,#172,.T.);
#170 = VERTEX_POINT('',#171);
#171 = CARTESIAN_POINT('',(29.074642784227,-66.07464278422,6.3));
#172 = CIRCLE('',#173,2.1);
#173 = AXIS2_PLACEMENT_3D('',#174,#175,#176);
#174 = CARTESIAN_POINT('',(29.4,-64.,6.3));
#175 = DIRECTION('',(0.,0.,1.));
#176 = DIRECTION('',(1.,0.,0.));
#177 = ORIENTED_EDGE('',*,*,#178,.F.);
#178 = EDGE_CURVE('',#179,#170,#181,.T.);
#179 = VERTEX_POINT('',#180);
#180 = CARTESIAN_POINT('',(25.,-62.,6.3));
#181 = LINE('',#182,#183);
#182 = CARTESIAN_POINT('',(28.693920262921,-65.69392026292,6.3));
#183 = VECTOR('',#184,1.);
#184 = DIRECTION('',(0.707106781187,-0.707106781187,0.));
#185 = ORIENTED_EDGE('',*,*,#186,.T.);
#186 = EDGE_CURVE('',#179,#187,#189,.T.);
#187 = VERTEX_POINT('',#188);
#188 = CARTESIAN_POINT('',(25.,-61.9,6.3));
#189 = LINE('',#190,#191);
#190 = CARTESIAN_POINT('',(25.,-68.5,6.3));
#191 = VECTOR('',#192,1.);
#192 = DIRECTION('',(0.,1.,0.));
#193 = ORIENTED_EDGE('',*,*,#194,.T.);
#194 = EDGE_CURVE('',#187,#64,#195,.T.);
#195 = LINE('',#196,#197);
#196 = CARTESIAN_POINT('',(28.5,-61.9,6.3));
#197 = VECTOR('',#198,1.);
#198 = DIRECTION('',(1.,0.,0.));
#199 = FACE_BOUND('',#200,.T.);
#200 = EDGE_LOOP('',(#201));
#201 = ORIENTED_EDGE('',*,*,#202,.F.);
#202 = EDGE_CURVE('',#203,#203,#205,.T.);
#203 = VERTEX_POINT('',#204);
#204 = CARTESIAN_POINT('',(46.65,-64.,6.3));
#205 = CIRCLE('',#206,1.15);
#206 = AXIS2_PLACEMENT_3D('',#207,#208,#209);
#207 = CARTESIAN_POINT('',(45.5,-64.,6.3));
#208 = DIRECTION('',(0.,0.,-1.));
#209 = DIRECTION('',(1.,0.,0.));
#210 = FACE_BOUND('',#211,.T.);
#211 = EDGE_LOOP('',(#212));
#212 = ORIENTED_EDGE('',*,*,#213,.F.);
#213 = EDGE_CURVE('',#214,#214,#216,.T.);
#214 = VERTEX_POINT('',#215);
#215 = CARTESIAN_POINT('',(30.55,-64.,6.3));
#216 = CIRCLE('',#217,1.15);
#217 = AXIS2_PLACEMENT_3D('',#218,#219,#220);
#218 = CARTESIAN_POINT('',(29.4,-64.,6.3));
#219 = DIRECTION('',(0.,0.,-1.));
#220 = DIRECTION('',(1.,0.,0.));
#221 = PLANE('',#222);
#222 = AXIS2_PLACEMENT_3D('',#223,#224,#225);
#223 = CARTESIAN_POINT('',(37.137512333642,-64.63816871804,6.3));
#224 = DIRECTION('',(-0.,-0.,-1.));
#225 = DIRECTION('',(-1.,0.,0.));
#226 = ADVANCED_FACE('',(#227),#246,.T.);
#227 = FACE_BOUND('',#228,.F.);
#228 = EDGE_LOOP('',(#229,#230,#238,#245));
#229 = ORIENTED_EDGE('',*,*,#87,.F.);
#230 = ORIENTED_EDGE('',*,*,#231,.F.);
#231 = EDGE_CURVE('',#232,#88,#234,.T.);
#232 = VERTEX_POINT('',#233);
#233 = CARTESIAN_POINT('',(47.223368793961,-62.8,9.));
#234 = LINE('',#235,#236);
#235 = CARTESIAN_POINT('',(47.223368793961,-62.8,6.3));
#236 = VECTOR('',#237,1.);
#237 = DIRECTION('',(-0.,-0.,-1.));
#238 = ORIENTED_EDGE('',*,*,#239,.T.);
#239 = EDGE_CURVE('',#232,#40,#240,.T.);
#240 = CIRCLE('',#241,2.1);
#241 = AXIS2_PLACEMENT_3D('',#242,#243,#244);
#242 = CARTESIAN_POINT('',(45.5,-64.,9.));
#243 = DIRECTION('',(0.,0.,1.));
#244 = DIRECTION('',(1.,0.,0.));
#245 = ORIENTED_EDGE('',*,*,#47,.T.);
#246 = CYLINDRICAL_SURFACE('',#247,2.1);
#247 = AXIS2_PLACEMENT_3D('',#248,#249,#250);
#248 = CARTESIAN_POINT('',(45.5,-64.,6.3));
#249 = DIRECTION('',(-0.,-0.,-1.));
#250 = DIRECTION('',(1.,0.,0.));
#251 = ADVANCED_FACE('',(#252,#353,#364),#375,.T.);
#252 = FACE_BOUND('',#253,.T.);
#253 = EDGE_LOOP('',(#254,#264,#273,#281,#290,#298,#306,#314,#322,#328,
    #329,#330,#339,#347));
#254 = ORIENTED_EDGE('',*,*,#255,.F.);
#255 = EDGE_CURVE('',#256,#258,#260,.T.);
#256 = VERTEX_POINT('',#257);
#257 = CARTESIAN_POINT('',(29.074642784227,-66.07464278422,9.));
#258 = VERTEX_POINT('',#259);
#259 = CARTESIAN_POINT('',(26.2,-63.2,9.));
#260 = LINE('',#261,#262);
#261 = CARTESIAN_POINT('',(28.605841664741,-65.60584166474,9.));
#262 = VECTOR('',#263,1.);
#263 = DIRECTION('',(-0.707106781187,0.707106781187,0.));
#264 = ORIENTED_EDGE('',*,*,#265,.T.);
#265 = EDGE_CURVE('',#256,#266,#268,.T.);
#266 = VERTEX_POINT('',#267);
#267 = CARTESIAN_POINT('',(30.040312423743,-66.,9.));
#268 = CIRCLE('',#269,2.1);
#269 = AXIS2_PLACEMENT_3D('',#270,#271,#272);
#270 = CARTESIAN_POINT('',(29.4,-64.,9.));
#271 = DIRECTION('',(0.,0.,1.));
#272 = DIRECTION('',(1.,0.,0.));
#273 = ORIENTED_EDGE('',*,*,#274,.T.);
#274 = EDGE_CURVE('',#266,#275,#277,.T.);
#275 = VERTEX_POINT('',#276);
#276 = CARTESIAN_POINT('',(44.859687576257,-66.,9.));
#277 = LINE('',#278,#279);
#278 = CARTESIAN_POINT('',(25.,-66.,9.));
#279 = VECTOR('',#280,1.);
#280 = DIRECTION('',(1.,0.,0.));
#281 = ORIENTED_EDGE('',*,*,#282,.T.);
#282 = EDGE_CURVE('',#275,#283,#285,.T.);
#283 = VERTEX_POINT('',#284);
#284 = CARTESIAN_POINT('',(46.140312423743,-66.,9.));
#285 = CIRCLE('',#286,2.1);
#286 = AXIS2_PLACEMENT_3D('',#287,#288,#289);
#287 = CARTESIAN_POINT('',(45.5,-64.,9.));
#288 = DIRECTION('',(0.,0.,1.));
#289 = DIRECTION('',(1.,0.,0.));
#290 = ORIENTED_EDGE('',*,*,#291,.T.);
#291 = EDGE_CURVE('',#283,#292,#294,.T.);
#292 = VERTEX_POINT('',#293);
#293 = CARTESIAN_POINT('',(48.5,-66.,9.));
#294 = LINE('',#295,#296);
#295 = CARTESIAN_POINT('',(25.,-66.,9.));
#296 = VECTOR('',#297,1.);
#297 = DIRECTION('',(1.,0.,0.));
#298 = ORIENTED_EDGE('',*,*,#299,.F.);
#299 = EDGE_CURVE('',#300,#292,#302,.T.);
#300 = VERTEX_POINT('',#301);
#301 = CARTESIAN_POINT('',(49.,-65.5,9.));
#302 = LINE('',#303,#304);
#303 = CARTESIAN_POINT('',(44.773581065322,-69.72641893467,9.));
#304 = VECTOR('',#305,1.);
#305 = DIRECTION('',(-0.707106781187,-0.707106781187,0.));
#306 = ORIENTED_EDGE('',*,*,#307,.F.);
#307 = EDGE_CURVE('',#308,#300,#310,.T.);
#308 = VERTEX_POINT('',#309);
#309 = CARTESIAN_POINT('',(47.8,-65.5,9.));
#310 = LINE('',#311,#312);
#311 = CARTESIAN_POINT('',(47.8,-65.5,9.));
#312 = VECTOR('',#313,1.);
#313 = DIRECTION('',(1.,0.,0.));
#314 = ORIENTED_EDGE('',*,*,#315,.F.);
#315 = EDGE_CURVE('',#316,#308,#318,.T.);
#316 = VERTEX_POINT('',#317);
#317 = CARTESIAN_POINT('',(47.8,-62.8,9.));
#318 = LINE('',#319,#320);
#319 = CARTESIAN_POINT('',(47.8,-52.70190967853,9.));
#320 = VECTOR('',#321,1.);
#321 = DIRECTION('',(0.,-1.,0.));
#322 = ORIENTED_EDGE('',*,*,#323,.F.);
#323 = EDGE_CURVE('',#232,#316,#324,.T.);
#324 = LINE('',#325,#326);
#325 = CARTESIAN_POINT('',(25.,-62.8,9.));
#326 = VECTOR('',#327,1.);
#327 = DIRECTION('',(1.,0.,0.));
#328 = ORIENTED_EDGE('',*,*,#239,.T.);
#329 = ORIENTED_EDGE('',*,*,#39,.F.);
#330 = ORIENTED_EDGE('',*,*,#331,.T.);
#331 = EDGE_CURVE('',#32,#332,#334,.T.);
#332 = VERTEX_POINT('',#333);
#333 = CARTESIAN_POINT('',(27.676631206039,-62.8,9.));
#334 = CIRCLE('',#335,2.1);
#335 = AXIS2_PLACEMENT_3D('',#336,#337,#338);
#336 = CARTESIAN_POINT('',(29.4,-64.,9.));
#337 = DIRECTION('',(0.,0.,1.));
#338 = DIRECTION('',(1.,0.,0.));
#339 = ORIENTED_EDGE('',*,*,#340,.F.);
#340 = EDGE_CURVE('',#341,#332,#343,.T.);
#341 = VERTEX_POINT('',#342);
#342 = CARTESIAN_POINT('',(26.2,-62.8,9.));
#343 = LINE('',#344,#345);
#344 = CARTESIAN_POINT('',(25.,-62.8,9.));
#345 = VECTOR('',#346,1.);
#346 = DIRECTION('',(1.,0.,0.));
#347 = ORIENTED_EDGE('',*,*,#348,.T.);
#348 = EDGE_CURVE('',#341,#258,#349,.T.);
#349 = LINE('',#350,#351);
#350 = CARTESIAN_POINT('',(26.2,-52.70190967853,9.));
#351 = VECTOR('',#352,1.);
#352 = DIRECTION('',(0.,-1.,0.));
#353 = FACE_BOUND('',#354,.T.);
#354 = EDGE_LOOP('',(#355));
#355 = ORIENTED_EDGE('',*,*,#356,.T.);
#356 = EDGE_CURVE('',#357,#357,#359,.T.);
#357 = VERTEX_POINT('',#358);
#358 = CARTESIAN_POINT('',(30.55,-64.,9.));
#359 = CIRCLE('',#360,1.15);
#360 = AXIS2_PLACEMENT_3D('',#361,#362,#363);
#361 = CARTESIAN_POINT('',(29.4,-64.,9.));
#362 = DIRECTION('',(0.,0.,-1.));
#363 = DIRECTION('',(1.,0.,0.));
#364 = FACE_BOUND('',#365,.T.);
#365 = EDGE_LOOP('',(#366));
#366 = ORIENTED_EDGE('',*,*,#367,.T.);
#367 = EDGE_CURVE('',#368,#368,#370,.T.);
#368 = VERTEX_POINT('',#369);
#369 = CARTESIAN_POINT('',(46.65,-64.,9.));
#370 = CIRCLE('',#371,1.15);
#371 = AXIS2_PLACEMENT_3D('',#372,#373,#374);
#372 = CARTESIAN_POINT('',(45.5,-64.,9.));
#373 = DIRECTION('',(0.,0.,-1.));
#374 = DIRECTION('',(1.,0.,0.));
#375 = PLANE('',#376);
#376 = AXIS2_PLACEMENT_3D('',#377,#378,#379);
#377 = CARTESIAN_POINT('',(37.008845460125,-64.41452119883,9.));
#378 = DIRECTION('',(0.,0.,1.));
#379 = DIRECTION('',(1.,0.,0.));
#380 = ADVANCED_FACE('',(#381),#392,.T.);
#381 = FACE_BOUND('',#382,.F.);
#382 = EDGE_LOOP('',(#383,#384,#385,#386));
#383 = ORIENTED_EDGE('',*,*,#79,.F.);
#384 = ORIENTED_EDGE('',*,*,#31,.F.);
#385 = ORIENTED_EDGE('',*,*,#331,.T.);
#386 = ORIENTED_EDGE('',*,*,#387,.T.);
#387 = EDGE_CURVE('',#332,#72,#388,.T.);
#388 = LINE('',#389,#390);
#389 = CARTESIAN_POINT('',(27.676631206039,-62.8,6.3));
#390 = VECTOR('',#391,1.);
#391 = DIRECTION('',(-0.,-0.,-1.));
#392 = CYLINDRICAL_SURFACE('',#393,2.1);
#393 = AXIS2_PLACEMENT_3D('',#394,#395,#396);
#394 = CARTESIAN_POINT('',(29.4,-64.,6.3));
#395 = DIRECTION('',(-0.,-0.,-1.));
#396 = DIRECTION('',(1.,0.,0.));
#397 = ADVANCED_FACE('',(#398),#494,.T.);
#398 = FACE_BOUND('',#399,.T.);
#399 = EDGE_LOOP('',(#400,#410,#418,#426,#434,#440,#441,#447,#448,#456,
    #464,#472,#480,#488));
#400 = ORIENTED_EDGE('',*,*,#401,.F.);
#401 = EDGE_CURVE('',#402,#404,#406,.T.);
#402 = VERTEX_POINT('',#403);
#403 = CARTESIAN_POINT('',(26.2,-12.8,8.44));
#404 = VERTEX_POINT('',#405);
#405 = CARTESIAN_POINT('',(26.2,-12.8,6.3));
#406 = LINE('',#407,#408);
#407 = CARTESIAN_POINT('',(26.2,-12.8,9.618523702136));
#408 = VECTOR('',#409,1.);
#409 = DIRECTION('',(0.,0.,-1.));
#410 = ORIENTED_EDGE('',*,*,#411,.T.);
#411 = EDGE_CURVE('',#402,#412,#414,.T.);
#412 = VERTEX_POINT('',#413);
#413 = CARTESIAN_POINT('',(26.2,-23.,16.6));
#414 = LINE('',#415,#416);
#415 = CARTESIAN_POINT('',(26.2,-11.,7.));
#416 = VECTOR('',#417,1.);
#417 = DIRECTION('',(0.,-0.780868809443,0.624695047554));
#418 = ORIENTED_EDGE('',*,*,#419,.T.);
#419 = EDGE_CURVE('',#412,#420,#422,.T.);
#420 = VERTEX_POINT('',#421);
#421 = CARTESIAN_POINT('',(26.2,-52.,16.6));
#422 = LINE('',#423,#424);
#423 = CARTESIAN_POINT('',(26.2,-23.,16.6));
#424 = VECTOR('',#425,1.);
#425 = DIRECTION('',(0.,-1.,0.));
#426 = ORIENTED_EDGE('',*,*,#427,.T.);
#427 = EDGE_CURVE('',#420,#428,#430,.T.);
#428 = VERTEX_POINT('',#429);
#429 = CARTESIAN_POINT('',(26.2,-63.2,10.294814814815));
#430 = LINE('',#431,#432);
#431 = CARTESIAN_POINT('',(26.2,-52.,16.6));
#432 = VECTOR('',#433,1.);
#433 = DIRECTION('',(0.,-0.871403098855,-0.490567670466));
#434 = ORIENTED_EDGE('',*,*,#435,.F.);
#435 = EDGE_CURVE('',#258,#428,#436,.T.);
#436 = LINE('',#437,#438);
#437 = CARTESIAN_POINT('',(26.2,-63.2,9.618523702136));
#438 = VECTOR('',#439,1.);
#439 = DIRECTION('',(0.,0.,1.));
#440 = ORIENTED_EDGE('',*,*,#348,.F.);
#441 = ORIENTED_EDGE('',*,*,#442,.F.);
#442 = EDGE_CURVE('',#62,#341,#443,.T.);
#443 = LINE('',#444,#445);
#444 = CARTESIAN_POINT('',(26.2,-62.8,9.668523702136));
#445 = VECTOR('',#446,1.);
#446 = DIRECTION('',(0.,0.,1.));
#447 = ORIENTED_EDGE('',*,*,#61,.T.);
#448 = ORIENTED_EDGE('',*,*,#449,.T.);
#449 = EDGE_CURVE('',#64,#450,#452,.T.);
#450 = VERTEX_POINT('',#451);
#451 = CARTESIAN_POINT('',(26.2,-61.9,9.2));
#452 = LINE('',#453,#454);
#453 = CARTESIAN_POINT('',(26.2,-61.9,9.068523702136));
#454 = VECTOR('',#455,1.);
#455 = DIRECTION('',(0.,0.,1.));
#456 = ORIENTED_EDGE('',*,*,#457,.F.);
#457 = EDGE_CURVE('',#458,#450,#460,.T.);
#458 = VERTEX_POINT('',#459);
#459 = CARTESIAN_POINT('',(26.2,-58.31318681318,9.2));
#460 = LINE('',#461,#462);
#461 = CARTESIAN_POINT('',(26.2,-50.65190967853,9.2));
#462 = VECTOR('',#463,1.);
#463 = DIRECTION('',(0.,-1.,0.));
#464 = ORIENTED_EDGE('',*,*,#465,.T.);
#465 = EDGE_CURVE('',#458,#466,#468,.T.);
#466 = VERTEX_POINT('',#467);
#467 = CARTESIAN_POINT('',(26.2,-51.5,15.4));
#468 = LINE('',#469,#470);
#469 = CARTESIAN_POINT('',(26.2,-61.5,6.3));
#470 = VECTOR('',#471,1.);
#471 = DIRECTION('',(0.,0.739605318781,0.673040840091));
#472 = ORIENTED_EDGE('',*,*,#473,.T.);
#473 = EDGE_CURVE('',#466,#474,#476,.T.);
#474 = VERTEX_POINT('',#475);
#475 = CARTESIAN_POINT('',(26.2,-23.5,15.4));
#476 = LINE('',#477,#478);
#477 = CARTESIAN_POINT('',(26.2,-51.5,15.4));
#478 = VECTOR('',#479,1.);
#479 = DIRECTION('',(0.,1.,0.));
#480 = ORIENTED_EDGE('',*,*,#481,.T.);
#481 = EDGE_CURVE('',#474,#482,#484,.T.);
#482 = VERTEX_POINT('',#483);
#483 = CARTESIAN_POINT('',(26.2,-13.,6.3));
#484 = LINE('',#485,#486);
#485 = CARTESIAN_POINT('',(26.2,-23.5,15.4));
#486 = VECTOR('',#487,1.);
#487 = DIRECTION('',(-0.,0.75568908279,-0.654930538418));
#488 = ORIENTED_EDGE('',*,*,#489,.T.);
#489 = EDGE_CURVE('',#482,#404,#490,.T.);
#490 = LINE('',#491,#492);
#491 = CARTESIAN_POINT('',(26.2,-13.,6.3));
#492 = VECTOR('',#493,1.);
#493 = DIRECTION('',(0.,1.,8.881784197001E-16));
#494 = PLANE('',#495);
#495 = AXIS2_PLACEMENT_3D('',#496,#497,#498);
#496 = CARTESIAN_POINT('',(26.2,-39.40381935707,13.037047404272));
#497 = DIRECTION('',(1.,0.,0.));
#498 = DIRECTION('',(0.,0.,1.));
#499 = ADVANCED_FACE('',(#500),#518,.T.);
#500 = FACE_BOUND('',#501,.T.);
#501 = EDGE_LOOP('',(#502,#510,#511,#512));
#502 = ORIENTED_EDGE('',*,*,#503,.T.);
#503 = EDGE_CURVE('',#504,#450,#506,.T.);
#504 = VERTEX_POINT('',#505);
#505 = CARTESIAN_POINT('',(25.,-61.9,9.2));
#506 = LINE('',#507,#508);
#507 = CARTESIAN_POINT('',(20.,-61.9,9.2));
#508 = VECTOR('',#509,1.);
#509 = DIRECTION('',(1.,0.,0.));
#510 = ORIENTED_EDGE('',*,*,#449,.F.);
#511 = ORIENTED_EDGE('',*,*,#194,.F.);
#512 = ORIENTED_EDGE('',*,*,#513,.F.);
#513 = EDGE_CURVE('',#504,#187,#514,.T.);
#514 = LINE('',#515,#516);
#515 = CARTESIAN_POINT('',(25.,-61.9,9.064387812411));
#516 = VECTOR('',#517,1.);
#517 = DIRECTION('',(0.,0.,-1.));
#518 = PLANE('',#519);
#519 = AXIS2_PLACEMENT_3D('',#520,#521,#522);
#520 = CARTESIAN_POINT('',(20.,-61.9,5.1));
#521 = DIRECTION('',(0.,1.,0.));
#522 = DIRECTION('',(0.,0.,1.));
#523 = ADVANCED_FACE('',(#524),#598,.T.);
#524 = FACE_BOUND('',#525,.T.);
#525 = EDGE_LOOP('',(#526,#536,#544,#552,#560,#566,#567,#568,#576,#584,
    #592));
#526 = ORIENTED_EDGE('',*,*,#527,.F.);
#527 = EDGE_CURVE('',#528,#530,#532,.T.);
#528 = VERTEX_POINT('',#529);
#529 = CARTESIAN_POINT('',(25.,-14.,7.166666666667));
#530 = VERTEX_POINT('',#531);
#531 = CARTESIAN_POINT('',(25.,-14.,9.4));
#532 = LINE('',#533,#534);
#533 = CARTESIAN_POINT('',(25.,-14.,6.2));
#534 = VECTOR('',#535,1.);
#535 = DIRECTION('',(0.,0.,1.));
#536 = ORIENTED_EDGE('',*,*,#537,.F.);
#537 = EDGE_CURVE('',#538,#528,#540,.T.);
#538 = VERTEX_POINT('',#539);
#539 = CARTESIAN_POINT('',(25.,-23.5,15.4));
#540 = LINE('',#541,#542);
#541 = CARTESIAN_POINT('',(25.,-23.5,15.4));
#542 = VECTOR('',#543,1.);
#543 = DIRECTION('',(-0.,0.75568908279,-0.654930538418));
#544 = ORIENTED_EDGE('',*,*,#545,.F.);
#545 = EDGE_CURVE('',#546,#538,#548,.T.);
#546 = VERTEX_POINT('',#547);
#547 = CARTESIAN_POINT('',(25.,-51.5,15.4));
#548 = LINE('',#549,#550);
#549 = CARTESIAN_POINT('',(25.,-51.5,15.4));
#550 = VECTOR('',#551,1.);
#551 = DIRECTION('',(0.,1.,0.));
#552 = ORIENTED_EDGE('',*,*,#553,.F.);
#553 = EDGE_CURVE('',#554,#546,#556,.T.);
#554 = VERTEX_POINT('',#555);
#555 = CARTESIAN_POINT('',(25.,-58.31318681318,9.2));
#556 = LINE('',#557,#558);
#557 = CARTESIAN_POINT('',(25.,-61.5,6.3));
#558 = VECTOR('',#559,1.);
#559 = DIRECTION('',(0.,0.739605318781,0.673040840091));
#560 = ORIENTED_EDGE('',*,*,#561,.F.);
#561 = EDGE_CURVE('',#504,#554,#562,.T.);
#562 = LINE('',#563,#564);
#563 = CARTESIAN_POINT('',(25.,-50.68060052035,9.2));
#564 = VECTOR('',#565,1.);
#565 = DIRECTION('',(0.,1.,0.));
#566 = ORIENTED_EDGE('',*,*,#513,.T.);
#567 = ORIENTED_EDGE('',*,*,#186,.F.);
#568 = ORIENTED_EDGE('',*,*,#569,.T.);
#569 = EDGE_CURVE('',#179,#570,#572,.T.);
#570 = VERTEX_POINT('',#571);
#571 = CARTESIAN_POINT('',(25.,-62.,10.97037037037));
#572 = LINE('',#573,#574);
#573 = CARTESIAN_POINT('',(25.,-62.,6.2));
#574 = VECTOR('',#575,1.);
#575 = DIRECTION('',(0.,0.,1.));
#576 = ORIENTED_EDGE('',*,*,#577,.F.);
#577 = EDGE_CURVE('',#578,#570,#580,.T.);
#578 = VERTEX_POINT('',#579);
#579 = CARTESIAN_POINT('',(25.,-52.,16.6));
#580 = LINE('',#581,#582);
#581 = CARTESIAN_POINT('',(25.,-52.,16.6));
#582 = VECTOR('',#583,1.);
#583 = DIRECTION('',(0.,-0.871403098855,-0.490567670466));
#584 = ORIENTED_EDGE('',*,*,#585,.F.);
#585 = EDGE_CURVE('',#586,#578,#588,.T.);
#586 = VERTEX_POINT('',#587);
#587 = CARTESIAN_POINT('',(25.,-23.,16.6));
#588 = LINE('',#589,#590);
#589 = CARTESIAN_POINT('',(25.,-23.,16.6));
#590 = VECTOR('',#591,1.);
#591 = DIRECTION('',(0.,-1.,0.));
#592 = ORIENTED_EDGE('',*,*,#593,.F.);
#593 = EDGE_CURVE('',#530,#586,#594,.T.);
#594 = LINE('',#595,#596);
#595 = CARTESIAN_POINT('',(25.,-11.,7.));
#596 = VECTOR('',#597,1.);
#597 = DIRECTION('',(0.,-0.780868809443,0.624695047554));
#598 = PLANE('',#599);
#599 = AXIS2_PLACEMENT_3D('',#600,#601,#602);
#600 = CARTESIAN_POINT('',(25.,-39.4612010407,13.028775624821));
#601 = DIRECTION('',(-1.,-0.,-0.));
#602 = DIRECTION('',(0.,0.,-1.));
#603 = ADVANCED_FACE('',(#604),#622,.F.);
#604 = FACE_BOUND('',#605,.F.);
#605 = EDGE_LOOP('',(#606,#607,#608,#614,#615,#616));
#606 = ORIENTED_EDGE('',*,*,#178,.F.);
#607 = ORIENTED_EDGE('',*,*,#569,.T.);
#608 = ORIENTED_EDGE('',*,*,#609,.T.);
#609 = EDGE_CURVE('',#570,#428,#610,.T.);
#610 = LINE('',#611,#612);
#611 = CARTESIAN_POINT('',(22.737578742955,-59.73757874295,
    12.244029744707));
#612 = VECTOR('',#613,1.);
#613 = DIRECTION('',(0.656967365592,-0.656967365592,-0.369848294703));
#614 = ORIENTED_EDGE('',*,*,#435,.F.);
#615 = ORIENTED_EDGE('',*,*,#255,.F.);
#616 = ORIENTED_EDGE('',*,*,#617,.T.);
#617 = EDGE_CURVE('',#256,#170,#618,.T.);
#618 = LINE('',#619,#620);
#619 = CARTESIAN_POINT('',(29.074642784227,-66.07464278422,6.3));
#620 = VECTOR('',#621,1.);
#621 = DIRECTION('',(-0.,-0.,-1.));
#622 = PLANE('',#623);
#623 = AXIS2_PLACEMENT_3D('',#624,#625,#626);
#624 = CARTESIAN_POINT('',(25.,-62.,6.2));
#625 = DIRECTION('',(0.707106781187,0.707106781187,0.));
#626 = DIRECTION('',(0.707106781187,-0.707106781187,0.));
#627 = ADVANCED_FACE('',(#628),#639,.T.);
#628 = FACE_BOUND('',#629,.F.);
#629 = EDGE_LOOP('',(#630,#631,#637,#638));
#630 = ORIENTED_EDGE('',*,*,#265,.T.);
#631 = ORIENTED_EDGE('',*,*,#632,.T.);
#632 = EDGE_CURVE('',#266,#162,#633,.T.);
#633 = LINE('',#634,#635);
#634 = CARTESIAN_POINT('',(30.040312423743,-66.,6.3));
#635 = VECTOR('',#636,1.);
#636 = DIRECTION('',(-0.,-0.,-1.));
#637 = ORIENTED_EDGE('',*,*,#169,.F.);
#638 = ORIENTED_EDGE('',*,*,#617,.F.);
#639 = CYLINDRICAL_SURFACE('',#640,2.1);
#640 = AXIS2_PLACEMENT_3D('',#641,#642,#643);
#641 = CARTESIAN_POINT('',(29.4,-64.,6.3));
#642 = DIRECTION('',(-0.,-0.,-1.));
#643 = DIRECTION('',(1.,0.,0.));
#644 = ADVANCED_FACE('',(#645),#656,.F.);
#645 = FACE_BOUND('',#646,.F.);
#646 = EDGE_LOOP('',(#647,#648,#649,#650));
#647 = ORIENTED_EDGE('',*,*,#161,.F.);
#648 = ORIENTED_EDGE('',*,*,#632,.F.);
#649 = ORIENTED_EDGE('',*,*,#274,.T.);
#650 = ORIENTED_EDGE('',*,*,#651,.T.);
#651 = EDGE_CURVE('',#275,#153,#652,.T.);
#652 = LINE('',#653,#654);
#653 = CARTESIAN_POINT('',(44.859687576257,-66.,6.3));
#654 = VECTOR('',#655,1.);
#655 = DIRECTION('',(-0.,-0.,-1.));
#656 = PLANE('',#657);
#657 = AXIS2_PLACEMENT_3D('',#658,#659,#660);
#658 = CARTESIAN_POINT('',(25.,-66.,6.3));
#659 = DIRECTION('',(0.,1.,0.));
#660 = DIRECTION('',(0.,0.,1.));
#661 = ADVANCED_FACE('',(#662),#673,.T.);
#662 = FACE_BOUND('',#663,.F.);
#663 = EDGE_LOOP('',(#664,#670,#671,#672));
#664 = ORIENTED_EDGE('',*,*,#665,.T.);
#665 = EDGE_CURVE('',#283,#145,#666,.T.);
#666 = LINE('',#667,#668);
#667 = CARTESIAN_POINT('',(46.140312423743,-66.,6.3));
#668 = VECTOR('',#669,1.);
#669 = DIRECTION('',(-0.,-0.,-1.));
#670 = ORIENTED_EDGE('',*,*,#152,.F.);
#671 = ORIENTED_EDGE('',*,*,#651,.F.);
#672 = ORIENTED_EDGE('',*,*,#282,.T.);
#673 = CYLINDRICAL_SURFACE('',#674,2.1);
#674 = AXIS2_PLACEMENT_3D('',#675,#676,#677);
#675 = CARTESIAN_POINT('',(45.5,-64.,6.3));
#676 = DIRECTION('',(-0.,-0.,-1.));
#677 = DIRECTION('',(1.,0.,0.));
#678 = ADVANCED_FACE('',(#679),#706,.F.);
#679 = FACE_BOUND('',#680,.F.);
#680 = EDGE_LOOP('',(#681,#682,#683,#684,#692,#700));
#681 = ORIENTED_EDGE('',*,*,#144,.F.);
#682 = ORIENTED_EDGE('',*,*,#665,.F.);
#683 = ORIENTED_EDGE('',*,*,#291,.T.);
#684 = ORIENTED_EDGE('',*,*,#685,.F.);
#685 = EDGE_CURVE('',#686,#292,#688,.T.);
#686 = VERTEX_POINT('',#687);
#687 = CARTESIAN_POINT('',(48.5,-66.,8.55));
#688 = LINE('',#689,#690);
#689 = CARTESIAN_POINT('',(48.5,-66.,6.25));
#690 = VECTOR('',#691,1.);
#691 = DIRECTION('',(0.,0.,1.));
#692 = ORIENTED_EDGE('',*,*,#693,.F.);
#693 = EDGE_CURVE('',#694,#686,#696,.T.);
#694 = VERTEX_POINT('',#695);
#695 = CARTESIAN_POINT('',(47.8,-66.,8.55));
#696 = LINE('',#697,#698);
#697 = CARTESIAN_POINT('',(36.4,-66.,8.55));
#698 = VECTOR('',#699,1.);
#699 = DIRECTION('',(1.,0.,0.));
#700 = ORIENTED_EDGE('',*,*,#701,.F.);
#701 = EDGE_CURVE('',#137,#694,#702,.T.);
#702 = LINE('',#703,#704);
#703 = CARTESIAN_POINT('',(47.8,-66.,9.668523702136));
#704 = VECTOR('',#705,1.);
#705 = DIRECTION('',(0.,0.,1.));
#706 = PLANE('',#707);
#707 = AXIS2_PLACEMENT_3D('',#708,#709,#710);
#708 = CARTESIAN_POINT('',(25.,-66.,6.3));
#709 = DIRECTION('',(0.,1.,0.));
#710 = DIRECTION('',(0.,0.,1.));
#711 = ADVANCED_FACE('',(#712),#730,.F.);
#712 = FACE_BOUND('',#713,.F.);
#713 = EDGE_LOOP('',(#714,#715,#716,#724));
#714 = ORIENTED_EDGE('',*,*,#136,.T.);
#715 = ORIENTED_EDGE('',*,*,#701,.T.);
#716 = ORIENTED_EDGE('',*,*,#717,.T.);
#717 = EDGE_CURVE('',#694,#718,#720,.T.);
#718 = VERTEX_POINT('',#719);
#719 = CARTESIAN_POINT('',(47.8,-66.7,7.92));
#720 = LINE('',#721,#722);
#721 = CARTESIAN_POINT('',(47.8,-65.5,9.));
#722 = VECTOR('',#723,1.);
#723 = DIRECTION('',(0.,-0.743294146247,-0.668964731622));
#724 = ORIENTED_EDGE('',*,*,#725,.F.);
#725 = EDGE_CURVE('',#129,#718,#726,.T.);
#726 = LINE('',#727,#728);
#727 = CARTESIAN_POINT('',(47.8,-66.7,9.618523702136));
#728 = VECTOR('',#729,1.);
#729 = DIRECTION('',(0.,0.,1.));
#730 = PLANE('',#731);
#731 = AXIS2_PLACEMENT_3D('',#732,#733,#734);
#732 = CARTESIAN_POINT('',(47.8,-39.40381935707,13.037047404272));
#733 = DIRECTION('',(1.,0.,0.));
#734 = DIRECTION('',(0.,0.,1.));
#735 = ADVANCED_FACE('',(#736),#754,.F.);
#736 = FACE_BOUND('',#737,.F.);
#737 = EDGE_LOOP('',(#738,#744,#745,#746,#752,#753));
#738 = ORIENTED_EDGE('',*,*,#739,.F.);
#739 = EDGE_CURVE('',#121,#300,#740,.T.);
#740 = LINE('',#741,#742);
#741 = CARTESIAN_POINT('',(49.,-65.5,6.2));
#742 = VECTOR('',#743,1.);
#743 = DIRECTION('',(0.,0.,1.));
#744 = ORIENTED_EDGE('',*,*,#128,.F.);
#745 = ORIENTED_EDGE('',*,*,#725,.T.);
#746 = ORIENTED_EDGE('',*,*,#747,.T.);
#747 = EDGE_CURVE('',#718,#686,#748,.T.);
#748 = LINE('',#749,#750);
#749 = CARTESIAN_POINT('',(47.270462633452,-67.22953736654,
    7.443416370107));
#750 = VECTOR('',#751,1.);
#751 = DIRECTION('',(0.596549986272,0.596549986272,0.536894987645));
#752 = ORIENTED_EDGE('',*,*,#685,.T.);
#753 = ORIENTED_EDGE('',*,*,#299,.F.);
#754 = PLANE('',#755);
#755 = AXIS2_PLACEMENT_3D('',#756,#757,#758);
#756 = CARTESIAN_POINT('',(46.,-68.5,6.2));
#757 = DIRECTION('',(-0.707106781187,0.707106781187,0.));
#758 = DIRECTION('',(0.707106781187,0.707106781187,0.));
#759 = ADVANCED_FACE('',(#760),#826,.T.);
#760 = FACE_BOUND('',#761,.T.);
#761 = EDGE_LOOP('',(#762,#772,#780,#788,#796,#804,#810,#811,#812,#820)
  );
#762 = ORIENTED_EDGE('',*,*,#763,.T.);
#763 = EDGE_CURVE('',#764,#766,#768,.T.);
#764 = VERTEX_POINT('',#765);
#765 = CARTESIAN_POINT('',(49.,-23.5,15.4));
#766 = VERTEX_POINT('',#767);
#767 = CARTESIAN_POINT('',(49.,-13.,6.3));
#768 = LINE('',#769,#770);
#769 = CARTESIAN_POINT('',(49.,-23.5,15.4));
#770 = VECTOR('',#771,1.);
#771 = DIRECTION('',(-0.,0.75568908279,-0.654930538418));
#772 = ORIENTED_EDGE('',*,*,#773,.T.);
#773 = EDGE_CURVE('',#766,#774,#776,.T.);
#774 = VERTEX_POINT('',#775);
#775 = CARTESIAN_POINT('',(49.,-11.,6.3));
#776 = LINE('',#777,#778);
#777 = CARTESIAN_POINT('',(49.,-13.,6.3));
#778 = VECTOR('',#779,1.);
#779 = DIRECTION('',(0.,1.,8.881784197001E-16));
#780 = ORIENTED_EDGE('',*,*,#781,.T.);
#781 = EDGE_CURVE('',#774,#782,#784,.T.);
#782 = VERTEX_POINT('',#783);
#783 = CARTESIAN_POINT('',(49.,-11.,7.));
#784 = LINE('',#785,#786);
#785 = CARTESIAN_POINT('',(49.,-11.,6.3));
#786 = VECTOR('',#787,1.);
#787 = DIRECTION('',(0.,0.,1.));
#788 = ORIENTED_EDGE('',*,*,#789,.T.);
#789 = EDGE_CURVE('',#782,#790,#792,.T.);
#790 = VERTEX_POINT('',#791);
#791 = CARTESIAN_POINT('',(49.,-23.,16.6));
#792 = LINE('',#793,#794);
#793 = CARTESIAN_POINT('',(49.,-11.,7.));
#794 = VECTOR('',#795,1.);
#795 = DIRECTION('',(0.,-0.780868809443,0.624695047554));
#796 = ORIENTED_EDGE('',*,*,#797,.T.);
#797 = EDGE_CURVE('',#790,#798,#800,.T.);
#798 = VERTEX_POINT('',#799);
#799 = CARTESIAN_POINT('',(49.,-52.,16.6));
#800 = LINE('',#801,#802);
#801 = CARTESIAN_POINT('',(49.,-23.,16.6));
#802 = VECTOR('',#803,1.);
#803 = DIRECTION('',(0.,-1.,0.));
#804 = ORIENTED_EDGE('',*,*,#805,.T.);
#805 = EDGE_CURVE('',#798,#300,#806,.T.);
#806 = LINE('',#807,#808);
#807 = CARTESIAN_POINT('',(49.,-52.,16.6));
#808 = VECTOR('',#809,1.);
#809 = DIRECTION('',(0.,-0.871403098855,-0.490567670466));
#810 = ORIENTED_EDGE('',*,*,#739,.F.);
#811 = ORIENTED_EDGE('',*,*,#120,.T.);
#812 = ORIENTED_EDGE('',*,*,#813,.T.);
#813 = EDGE_CURVE('',#113,#814,#816,.T.);
#814 = VERTEX_POINT('',#815);
#815 = CARTESIAN_POINT('',(49.,-51.5,15.4));
#816 = LINE('',#817,#818);
#817 = CARTESIAN_POINT('',(49.,-61.5,6.3));
#818 = VECTOR('',#819,1.);
#819 = DIRECTION('',(0.,0.739605318781,0.673040840091));
#820 = ORIENTED_EDGE('',*,*,#821,.T.);
#821 = EDGE_CURVE('',#814,#764,#822,.T.);
#822 = LINE('',#823,#824);
#823 = CARTESIAN_POINT('',(49.,-51.5,15.4));
#824 = VECTOR('',#825,1.);
#825 = DIRECTION('',(0.,1.,0.));
#826 = PLANE('',#827);
#827 = AXIS2_PLACEMENT_3D('',#828,#829,#830);
#828 = CARTESIAN_POINT('',(49.,-39.4612010407,13.028775624821));
#829 = DIRECTION('',(1.,0.,0.));
#830 = DIRECTION('',(0.,0.,1.));
#831 = ADVANCED_FACE('',(#832),#850,.F.);
#832 = FACE_BOUND('',#833,.F.);
#833 = EDGE_LOOP('',(#834,#835,#836,#844));
#834 = ORIENTED_EDGE('',*,*,#112,.T.);
#835 = ORIENTED_EDGE('',*,*,#813,.T.);
#836 = ORIENTED_EDGE('',*,*,#837,.F.);
#837 = EDGE_CURVE('',#838,#814,#840,.T.);
#838 = VERTEX_POINT('',#839);
#839 = CARTESIAN_POINT('',(47.8,-51.5,15.4));
#840 = LINE('',#841,#842);
#841 = CARTESIAN_POINT('',(47.8,-51.5,15.4));
#842 = VECTOR('',#843,1.);
#843 = DIRECTION('',(1.,0.,0.));
#844 = ORIENTED_EDGE('',*,*,#845,.F.);
#845 = EDGE_CURVE('',#105,#838,#846,.T.);
#846 = LINE('',#847,#848);
#847 = CARTESIAN_POINT('',(47.8,-61.5,6.3));
#848 = VECTOR('',#849,1.);
#849 = DIRECTION('',(0.,0.739605318781,0.673040840091));
#850 = PLANE('',#851);
#851 = AXIS2_PLACEMENT_3D('',#852,#853,#854);
#852 = CARTESIAN_POINT('',(47.8,-61.5,6.3));
#853 = DIRECTION('',(0.,-0.673040840091,0.739605318781));
#854 = DIRECTION('',(0.,0.739605318781,0.673040840091));
#855 = ADVANCED_FACE('',(#856),#929,.F.);
#856 = FACE_BOUND('',#857,.F.);
#857 = EDGE_LOOP('',(#858,#868,#876,#884,#890,#891,#897,#898,#899,#907,
    #915,#923));
#858 = ORIENTED_EDGE('',*,*,#859,.F.);
#859 = EDGE_CURVE('',#860,#862,#864,.T.);
#860 = VERTEX_POINT('',#861);
#861 = CARTESIAN_POINT('',(47.8,-11.,7.));
#862 = VERTEX_POINT('',#863);
#863 = CARTESIAN_POINT('',(47.8,-12.,7.));
#864 = LINE('',#865,#866);
#865 = CARTESIAN_POINT('',(47.8,-25.70190967853,7.));
#866 = VECTOR('',#867,1.);
#867 = DIRECTION('',(0.,-1.,0.));
#868 = ORIENTED_EDGE('',*,*,#869,.T.);
#869 = EDGE_CURVE('',#860,#870,#872,.T.);
#870 = VERTEX_POINT('',#871);
#871 = CARTESIAN_POINT('',(47.8,-23.,16.6));
#872 = LINE('',#873,#874);
#873 = CARTESIAN_POINT('',(47.8,-11.,7.));
#874 = VECTOR('',#875,1.);
#875 = DIRECTION('',(0.,-0.780868809443,0.624695047554));
#876 = ORIENTED_EDGE('',*,*,#877,.T.);
#877 = EDGE_CURVE('',#870,#878,#880,.T.);
#878 = VERTEX_POINT('',#879);
#879 = CARTESIAN_POINT('',(47.8,-52.,16.6));
#880 = LINE('',#881,#882);
#881 = CARTESIAN_POINT('',(47.8,-23.,16.6));
#882 = VECTOR('',#883,1.);
#883 = DIRECTION('',(0.,-1.,0.));
#884 = ORIENTED_EDGE('',*,*,#885,.T.);
#885 = EDGE_CURVE('',#878,#308,#886,.T.);
#886 = LINE('',#887,#888);
#887 = CARTESIAN_POINT('',(47.8,-52.,16.6));
#888 = VECTOR('',#889,1.);
#889 = DIRECTION('',(0.,-0.871403098855,-0.490567670466));
#890 = ORIENTED_EDGE('',*,*,#315,.F.);
#891 = ORIENTED_EDGE('',*,*,#892,.F.);
#892 = EDGE_CURVE('',#97,#316,#893,.T.);
#893 = LINE('',#894,#895);
#894 = CARTESIAN_POINT('',(47.8,-62.8,9.668523702136));
#895 = VECTOR('',#896,1.);
#896 = DIRECTION('',(0.,0.,1.));
#897 = ORIENTED_EDGE('',*,*,#104,.T.);
#898 = ORIENTED_EDGE('',*,*,#845,.T.);
#899 = ORIENTED_EDGE('',*,*,#900,.T.);
#900 = EDGE_CURVE('',#838,#901,#903,.T.);
#901 = VERTEX_POINT('',#902);
#902 = CARTESIAN_POINT('',(47.8,-23.5,15.4));
#903 = LINE('',#904,#905);
#904 = CARTESIAN_POINT('',(47.8,-51.5,15.4));
#905 = VECTOR('',#906,1.);
#906 = DIRECTION('',(0.,1.,0.));
#907 = ORIENTED_EDGE('',*,*,#908,.T.);
#908 = EDGE_CURVE('',#901,#909,#911,.T.);
#909 = VERTEX_POINT('',#910);
#910 = CARTESIAN_POINT('',(47.8,-13.,6.3));
#911 = LINE('',#912,#913);
#912 = CARTESIAN_POINT('',(47.8,-23.5,15.4));
#913 = VECTOR('',#914,1.);
#914 = DIRECTION('',(-0.,0.75568908279,-0.654930538418));
#915 = ORIENTED_EDGE('',*,*,#916,.T.);
#916 = EDGE_CURVE('',#909,#917,#919,.T.);
#917 = VERTEX_POINT('',#918);
#918 = CARTESIAN_POINT('',(47.8,-12.,6.3));
#919 = LINE('',#920,#921);
#920 = CARTESIAN_POINT('',(47.8,-13.,6.3));
#921 = VECTOR('',#922,1.);
#922 = DIRECTION('',(0.,1.,8.881784197001E-16));
#923 = ORIENTED_EDGE('',*,*,#924,.T.);
#924 = EDGE_CURVE('',#917,#862,#925,.T.);
#925 = LINE('',#926,#927);
#926 = CARTESIAN_POINT('',(47.8,-12.,9.668523702136));
#927 = VECTOR('',#928,1.);
#928 = DIRECTION('',(0.,0.,1.));
#929 = PLANE('',#930);
#930 = AXIS2_PLACEMENT_3D('',#931,#932,#933);
#931 = CARTESIAN_POINT('',(47.8,-39.40381935707,13.037047404272));
#932 = DIRECTION('',(1.,0.,0.));
#933 = DIRECTION('',(0.,0.,1.));
#934 = ADVANCED_FACE('',(#935),#941,.T.);
#935 = FACE_BOUND('',#936,.T.);
#936 = EDGE_LOOP('',(#937,#938,#939,#940));
#937 = ORIENTED_EDGE('',*,*,#96,.F.);
#938 = ORIENTED_EDGE('',*,*,#231,.F.);
#939 = ORIENTED_EDGE('',*,*,#323,.T.);
#940 = ORIENTED_EDGE('',*,*,#892,.F.);
#941 = PLANE('',#942);
#942 = AXIS2_PLACEMENT_3D('',#943,#944,#945);
#943 = CARTESIAN_POINT('',(25.,-62.8,6.3));
#944 = DIRECTION('',(0.,1.,0.));
#945 = DIRECTION('',(0.,0.,1.));
#946 = ADVANCED_FACE('',(#947),#953,.T.);
#947 = FACE_BOUND('',#948,.T.);
#948 = EDGE_LOOP('',(#949,#950,#951,#952));
#949 = ORIENTED_EDGE('',*,*,#71,.F.);
#950 = ORIENTED_EDGE('',*,*,#442,.T.);
#951 = ORIENTED_EDGE('',*,*,#340,.T.);
#952 = ORIENTED_EDGE('',*,*,#387,.T.);
#953 = PLANE('',#954);
#954 = AXIS2_PLACEMENT_3D('',#955,#956,#957);
#955 = CARTESIAN_POINT('',(25.,-62.8,6.3));
#956 = DIRECTION('',(0.,1.,0.));
#957 = DIRECTION('',(0.,0.,1.));
#958 = ADVANCED_FACE('',(#959),#970,.F.);
#959 = FACE_BOUND('',#960,.T.);
#960 = EDGE_LOOP('',(#961,#962,#968,#969));
#961 = ORIENTED_EDGE('',*,*,#202,.T.);
#962 = ORIENTED_EDGE('',*,*,#963,.T.);
#963 = EDGE_CURVE('',#203,#368,#964,.T.);
#964 = LINE('',#965,#966);
#965 = CARTESIAN_POINT('',(46.65,-64.,6.2));
#966 = VECTOR('',#967,1.);
#967 = DIRECTION('',(0.,0.,1.));
#968 = ORIENTED_EDGE('',*,*,#367,.F.);
#969 = ORIENTED_EDGE('',*,*,#963,.F.);
#970 = CYLINDRICAL_SURFACE('',#971,1.15);
#971 = AXIS2_PLACEMENT_3D('',#972,#973,#974);
#972 = CARTESIAN_POINT('',(45.5,-64.,6.2));
#973 = DIRECTION('',(-0.,-0.,-1.));
#974 = DIRECTION('',(1.,0.,0.));
#975 = ADVANCED_FACE('',(#976),#987,.F.);
#976 = FACE_BOUND('',#977,.T.);
#977 = EDGE_LOOP('',(#978,#979,#985,#986));
#978 = ORIENTED_EDGE('',*,*,#213,.T.);
#979 = ORIENTED_EDGE('',*,*,#980,.T.);
#980 = EDGE_CURVE('',#214,#357,#981,.T.);
#981 = LINE('',#982,#983);
#982 = CARTESIAN_POINT('',(30.55,-64.,6.2));
#983 = VECTOR('',#984,1.);
#984 = DIRECTION('',(0.,0.,1.));
#985 = ORIENTED_EDGE('',*,*,#356,.F.);
#986 = ORIENTED_EDGE('',*,*,#980,.F.);
#987 = CYLINDRICAL_SURFACE('',#988,1.15);
#988 = AXIS2_PLACEMENT_3D('',#989,#990,#991);
#989 = CARTESIAN_POINT('',(29.4,-64.,6.2));
#990 = DIRECTION('',(-0.,-0.,-1.));
#991 = DIRECTION('',(1.,0.,0.));
#992 = ADVANCED_FACE('',(#993),#1004,.F.);
#993 = FACE_BOUND('',#994,.F.);
#994 = EDGE_LOOP('',(#995,#1001,#1002,#1003));
#995 = ORIENTED_EDGE('',*,*,#996,.T.);
#996 = EDGE_CURVE('',#878,#798,#997,.T.);
#997 = LINE('',#998,#999);
#998 = CARTESIAN_POINT('',(47.8,-52.,16.6));
#999 = VECTOR('',#1000,1.);
#1000 = DIRECTION('',(1.,0.,0.));
#1001 = ORIENTED_EDGE('',*,*,#805,.T.);
#1002 = ORIENTED_EDGE('',*,*,#307,.F.);
#1003 = ORIENTED_EDGE('',*,*,#885,.F.);
#1004 = PLANE('',#1005);
#1005 = AXIS2_PLACEMENT_3D('',#1006,#1007,#1008);
#1006 = CARTESIAN_POINT('',(47.8,-52.,16.6));
#1007 = DIRECTION('',(0.,0.490567670466,-0.871403098855));
#1008 = DIRECTION('',(0.,-0.871403098855,-0.490567670466));
#1009 = ADVANCED_FACE('',(#1010),#1034,.F.);
#1010 = FACE_BOUND('',#1011,.F.);
#1011 = EDGE_LOOP('',(#1012,#1013,#1021,#1027,#1028));
#1012 = ORIENTED_EDGE('',*,*,#527,.F.);
#1013 = ORIENTED_EDGE('',*,*,#1014,.T.);
#1014 = EDGE_CURVE('',#528,#1015,#1017,.T.);
#1015 = VERTEX_POINT('',#1016);
#1016 = CARTESIAN_POINT('',(26.,-13.,6.3));
#1017 = LINE('',#1018,#1019);
#1018 = CARTESIAN_POINT('',(23.219305331179,-15.78069466882,
    8.709935379645));
#1019 = VECTOR('',#1020,1.);
#1020 = DIRECTION('',(0.602900903294,0.602900903294,-0.522514116188));
#1021 = ORIENTED_EDGE('',*,*,#1022,.F.);
#1022 = EDGE_CURVE('',#404,#1015,#1023,.T.);
#1023 = LINE('',#1024,#1025);
#1024 = CARTESIAN_POINT('',(30.09537037037,-8.90462962963,6.3));
#1025 = VECTOR('',#1026,1.);
#1026 = DIRECTION('',(-0.707106781187,-0.707106781187,
    -3.878016612989E-16));
#1027 = ORIENTED_EDGE('',*,*,#401,.F.);
#1028 = ORIENTED_EDGE('',*,*,#1029,.T.);
#1029 = EDGE_CURVE('',#402,#530,#1030,.T.);
#1030 = LINE('',#1031,#1032);
#1031 = CARTESIAN_POINT('',(27.55303030303,-11.44696969697,
    7.357575757576));
#1032 = VECTOR('',#1033,1.);
#1033 = DIRECTION('',(-0.615457454897,-0.615457454897,0.492365963917));
#1034 = PLANE('',#1035);
#1035 = AXIS2_PLACEMENT_3D('',#1036,#1037,#1038);
#1036 = CARTESIAN_POINT('',(28.,-11.,6.2));
#1037 = DIRECTION('',(0.707106781187,-0.707106781187,0.));
#1038 = DIRECTION('',(-0.707106781187,-0.707106781187,0.));
#1039 = ADVANCED_FACE('',(#1040),#1050,.T.);
#1040 = FACE_BOUND('',#1041,.T.);
#1041 = EDGE_LOOP('',(#1042,#1048,#1049));
#1042 = ORIENTED_EDGE('',*,*,#1043,.F.);
#1043 = EDGE_CURVE('',#1015,#482,#1044,.T.);
#1044 = LINE('',#1045,#1046);
#1045 = CARTESIAN_POINT('',(25.,-13.,6.3));
#1046 = VECTOR('',#1047,1.);
#1047 = DIRECTION('',(1.,0.,0.));
#1048 = ORIENTED_EDGE('',*,*,#1022,.F.);
#1049 = ORIENTED_EDGE('',*,*,#489,.F.);
#1050 = PLANE('',#1051);
#1051 = AXIS2_PLACEMENT_3D('',#1052,#1053,#1054);
#1052 = CARTESIAN_POINT('',(37.,-11.61851851851,6.3));
#1053 = DIRECTION('',(0.,5.484343689197E-16,-1.));
#1054 = DIRECTION('',(0.,-1.,-5.484343689197E-16));
#1055 = ADVANCED_FACE('',(#1056),#1068,.F.);
#1056 = FACE_BOUND('',#1057,.F.);
#1057 = EDGE_LOOP('',(#1058,#1059,#1065,#1066,#1067));
#1058 = ORIENTED_EDGE('',*,*,#537,.F.);
#1059 = ORIENTED_EDGE('',*,*,#1060,.T.);
#1060 = EDGE_CURVE('',#538,#474,#1061,.T.);
#1061 = LINE('',#1062,#1063);
#1062 = CARTESIAN_POINT('',(25.,-23.5,15.4));
#1063 = VECTOR('',#1064,1.);
#1064 = DIRECTION('',(1.,0.,0.));
#1065 = ORIENTED_EDGE('',*,*,#481,.T.);
#1066 = ORIENTED_EDGE('',*,*,#1043,.F.);
#1067 = ORIENTED_EDGE('',*,*,#1014,.F.);
#1068 = PLANE('',#1069);
#1069 = AXIS2_PLACEMENT_3D('',#1070,#1071,#1072);
#1070 = CARTESIAN_POINT('',(25.,-23.5,15.4));
#1071 = DIRECTION('',(0.,0.654930538418,0.75568908279));
#1072 = DIRECTION('',(0.,0.75568908279,-0.654930538418));
#1073 = ADVANCED_FACE('',(#1074),#1085,.F.);
#1074 = FACE_BOUND('',#1075,.F.);
#1075 = EDGE_LOOP('',(#1076,#1082,#1083,#1084));
#1076 = ORIENTED_EDGE('',*,*,#1077,.T.);
#1077 = EDGE_CURVE('',#546,#466,#1078,.T.);
#1078 = LINE('',#1079,#1080);
#1079 = CARTESIAN_POINT('',(25.,-51.5,15.4));
#1080 = VECTOR('',#1081,1.);
#1081 = DIRECTION('',(1.,0.,0.));
#1082 = ORIENTED_EDGE('',*,*,#473,.T.);
#1083 = ORIENTED_EDGE('',*,*,#1060,.F.);
#1084 = ORIENTED_EDGE('',*,*,#545,.F.);
#1085 = PLANE('',#1086);
#1086 = AXIS2_PLACEMENT_3D('',#1087,#1088,#1089);
#1087 = CARTESIAN_POINT('',(25.,-51.5,15.4));
#1088 = DIRECTION('',(0.,0.,1.));
#1089 = DIRECTION('',(0.,1.,0.));
#1090 = ADVANCED_FACE('',(#1091),#1102,.F.);
#1091 = FACE_BOUND('',#1092,.F.);
#1092 = EDGE_LOOP('',(#1093,#1094,#1100,#1101));
#1093 = ORIENTED_EDGE('',*,*,#553,.F.);
#1094 = ORIENTED_EDGE('',*,*,#1095,.F.);
#1095 = EDGE_CURVE('',#458,#554,#1096,.T.);
#1096 = LINE('',#1097,#1098);
#1097 = CARTESIAN_POINT('',(22.5,-58.31318681318,9.2));
#1098 = VECTOR('',#1099,1.);
#1099 = DIRECTION('',(-1.,0.,0.));
#1100 = ORIENTED_EDGE('',*,*,#465,.T.);
#1101 = ORIENTED_EDGE('',*,*,#1077,.F.);
#1102 = PLANE('',#1103);
#1103 = AXIS2_PLACEMENT_3D('',#1104,#1105,#1106);
#1104 = CARTESIAN_POINT('',(25.,-61.5,6.3));
#1105 = DIRECTION('',(0.,-0.673040840091,0.739605318781));
#1106 = DIRECTION('',(0.,0.739605318781,0.673040840091));
#1107 = ADVANCED_FACE('',(#1108),#1114,.F.);
#1108 = FACE_BOUND('',#1109,.F.);
#1109 = EDGE_LOOP('',(#1110,#1111,#1112,#1113));
#1110 = ORIENTED_EDGE('',*,*,#561,.F.);
#1111 = ORIENTED_EDGE('',*,*,#503,.T.);
#1112 = ORIENTED_EDGE('',*,*,#457,.F.);
#1113 = ORIENTED_EDGE('',*,*,#1095,.T.);
#1114 = PLANE('',#1115);
#1115 = AXIS2_PLACEMENT_3D('',#1116,#1117,#1118);
#1116 = CARTESIAN_POINT('',(20.,-61.9,9.2));
#1117 = DIRECTION('',(0.,0.,1.));
#1118 = DIRECTION('',(1.,0.,0.));
#1119 = ADVANCED_FACE('',(#1120),#1131,.F.);
#1120 = FACE_BOUND('',#1121,.F.);
#1121 = EDGE_LOOP('',(#1122,#1123,#1129,#1130));
#1122 = ORIENTED_EDGE('',*,*,#577,.F.);
#1123 = ORIENTED_EDGE('',*,*,#1124,.T.);
#1124 = EDGE_CURVE('',#578,#420,#1125,.T.);
#1125 = LINE('',#1126,#1127);
#1126 = CARTESIAN_POINT('',(25.,-52.,16.6));
#1127 = VECTOR('',#1128,1.);
#1128 = DIRECTION('',(1.,0.,0.));
#1129 = ORIENTED_EDGE('',*,*,#427,.T.);
#1130 = ORIENTED_EDGE('',*,*,#609,.F.);
#1131 = PLANE('',#1132);
#1132 = AXIS2_PLACEMENT_3D('',#1133,#1134,#1135);
#1133 = CARTESIAN_POINT('',(25.,-52.,16.6));
#1134 = DIRECTION('',(0.,0.490567670466,-0.871403098855));
#1135 = DIRECTION('',(0.,-0.871403098855,-0.490567670466));
#1136 = ADVANCED_FACE('',(#1137),#1148,.F.);
#1137 = FACE_BOUND('',#1138,.F.);
#1138 = EDGE_LOOP('',(#1139,#1145,#1146,#1147));
#1139 = ORIENTED_EDGE('',*,*,#1140,.T.);
#1140 = EDGE_CURVE('',#586,#412,#1141,.T.);
#1141 = LINE('',#1142,#1143);
#1142 = CARTESIAN_POINT('',(25.,-23.,16.6));
#1143 = VECTOR('',#1144,1.);
#1144 = DIRECTION('',(1.,0.,0.));
#1145 = ORIENTED_EDGE('',*,*,#419,.T.);
#1146 = ORIENTED_EDGE('',*,*,#1124,.F.);
#1147 = ORIENTED_EDGE('',*,*,#585,.F.);
#1148 = PLANE('',#1149);
#1149 = AXIS2_PLACEMENT_3D('',#1150,#1151,#1152);
#1150 = CARTESIAN_POINT('',(25.,-23.,16.6));
#1151 = DIRECTION('',(0.,0.,-1.));
#1152 = DIRECTION('',(0.,-1.,0.));
#1153 = ADVANCED_FACE('',(#1154),#1160,.F.);
#1154 = FACE_BOUND('',#1155,.F.);
#1155 = EDGE_LOOP('',(#1156,#1157,#1158,#1159));
#1156 = ORIENTED_EDGE('',*,*,#593,.F.);
#1157 = ORIENTED_EDGE('',*,*,#1029,.F.);
#1158 = ORIENTED_EDGE('',*,*,#411,.T.);
#1159 = ORIENTED_EDGE('',*,*,#1140,.F.);
#1160 = PLANE('',#1161);
#1161 = AXIS2_PLACEMENT_3D('',#1162,#1163,#1164);
#1162 = CARTESIAN_POINT('',(25.,-11.,7.));
#1163 = DIRECTION('',(0.,-0.624695047554,-0.780868809443));
#1164 = DIRECTION('',(0.,-0.780868809443,0.624695047554));
#1165 = ADVANCED_FACE('',(#1166),#1171,.F.);
#1166 = FACE_BOUND('',#1167,.F.);
#1167 = EDGE_LOOP('',(#1168,#1169,#1170));
#1168 = ORIENTED_EDGE('',*,*,#717,.F.);
#1169 = ORIENTED_EDGE('',*,*,#693,.T.);
#1170 = ORIENTED_EDGE('',*,*,#747,.F.);
#1171 = PLANE('',#1172);
#1172 = AXIS2_PLACEMENT_3D('',#1173,#1174,#1175);
#1173 = CARTESIAN_POINT('',(47.8,-65.5,9.));
#1174 = DIRECTION('',(0.,0.668964731622,-0.743294146247));
#1175 = DIRECTION('',(0.,-0.743294146247,-0.668964731622));
#1176 = ADVANCED_FACE('',(#1177),#1193,.F.);
#1177 = FACE_BOUND('',#1178,.F.);
#1178 = EDGE_LOOP('',(#1179,#1185,#1186,#1192));
#1179 = ORIENTED_EDGE('',*,*,#1180,.T.);
#1180 = EDGE_CURVE('',#901,#764,#1181,.T.);
#1181 = LINE('',#1182,#1183);
#1182 = CARTESIAN_POINT('',(47.8,-23.5,15.4));
#1183 = VECTOR('',#1184,1.);
#1184 = DIRECTION('',(1.,0.,0.));
#1185 = ORIENTED_EDGE('',*,*,#763,.T.);
#1186 = ORIENTED_EDGE('',*,*,#1187,.F.);
#1187 = EDGE_CURVE('',#909,#766,#1188,.T.);
#1188 = LINE('',#1189,#1190);
#1189 = CARTESIAN_POINT('',(47.8,-13.,6.3));
#1190 = VECTOR('',#1191,1.);
#1191 = DIRECTION('',(1.,0.,0.));
#1192 = ORIENTED_EDGE('',*,*,#908,.F.);
#1193 = PLANE('',#1194);
#1194 = AXIS2_PLACEMENT_3D('',#1195,#1196,#1197);
#1195 = CARTESIAN_POINT('',(47.8,-23.5,15.4));
#1196 = DIRECTION('',(0.,0.654930538418,0.75568908279));
#1197 = DIRECTION('',(0.,0.75568908279,-0.654930538418));
#1198 = ADVANCED_FACE('',(#1199),#1205,.F.);
#1199 = FACE_BOUND('',#1200,.F.);
#1200 = EDGE_LOOP('',(#1201,#1202,#1203,#1204));
#1201 = ORIENTED_EDGE('',*,*,#837,.T.);
#1202 = ORIENTED_EDGE('',*,*,#821,.T.);
#1203 = ORIENTED_EDGE('',*,*,#1180,.F.);
#1204 = ORIENTED_EDGE('',*,*,#900,.F.);
#1205 = PLANE('',#1206);
#1206 = AXIS2_PLACEMENT_3D('',#1207,#1208,#1209);
#1207 = CARTESIAN_POINT('',(47.8,-51.5,15.4));
#1208 = DIRECTION('',(0.,0.,1.));
#1209 = DIRECTION('',(0.,1.,0.));
#1210 = ADVANCED_FACE('',(#1211),#1222,.F.);
#1211 = FACE_BOUND('',#1212,.F.);
#1212 = EDGE_LOOP('',(#1213,#1219,#1220,#1221));
#1213 = ORIENTED_EDGE('',*,*,#1214,.T.);
#1214 = EDGE_CURVE('',#870,#790,#1215,.T.);
#1215 = LINE('',#1216,#1217);
#1216 = CARTESIAN_POINT('',(47.8,-23.,16.6));
#1217 = VECTOR('',#1218,1.);
#1218 = DIRECTION('',(1.,0.,0.));
#1219 = ORIENTED_EDGE('',*,*,#797,.T.);
#1220 = ORIENTED_EDGE('',*,*,#996,.F.);
#1221 = ORIENTED_EDGE('',*,*,#877,.F.);
#1222 = PLANE('',#1223);
#1223 = AXIS2_PLACEMENT_3D('',#1224,#1225,#1226);
#1224 = CARTESIAN_POINT('',(47.8,-23.,16.6));
#1225 = DIRECTION('',(0.,0.,-1.));
#1226 = DIRECTION('',(0.,-1.,0.));
#1227 = ADVANCED_FACE('',(#1228),#1239,.F.);
#1228 = FACE_BOUND('',#1229,.F.);
#1229 = EDGE_LOOP('',(#1230,#1236,#1237,#1238));
#1230 = ORIENTED_EDGE('',*,*,#1231,.T.);
#1231 = EDGE_CURVE('',#860,#782,#1232,.T.);
#1232 = LINE('',#1233,#1234);
#1233 = CARTESIAN_POINT('',(47.8,-11.,7.));
#1234 = VECTOR('',#1235,1.);
#1235 = DIRECTION('',(1.,0.,0.));
#1236 = ORIENTED_EDGE('',*,*,#789,.T.);
#1237 = ORIENTED_EDGE('',*,*,#1214,.F.);
#1238 = ORIENTED_EDGE('',*,*,#869,.F.);
#1239 = PLANE('',#1240);
#1240 = AXIS2_PLACEMENT_3D('',#1241,#1242,#1243);
#1241 = CARTESIAN_POINT('',(47.8,-11.,7.));
#1242 = DIRECTION('',(0.,-0.624695047554,-0.780868809443));
#1243 = DIRECTION('',(0.,-0.780868809443,0.624695047554));
#1244 = ADVANCED_FACE('',(#1245),#1271,.T.);
#1245 = FACE_BOUND('',#1246,.T.);
#1246 = EDGE_LOOP('',(#1247,#1255,#1263,#1269,#1270));
#1247 = ORIENTED_EDGE('',*,*,#1248,.F.);
#1248 = EDGE_CURVE('',#1249,#774,#1251,.T.);
#1249 = VERTEX_POINT('',#1250);
#1250 = CARTESIAN_POINT('',(28.,-11.,6.3));
#1251 = LINE('',#1252,#1253);
#1252 = CARTESIAN_POINT('',(47.8,-11.,6.3));
#1253 = VECTOR('',#1254,1.);
#1254 = DIRECTION('',(1.,0.,0.));
#1255 = ORIENTED_EDGE('',*,*,#1256,.T.);
#1256 = EDGE_CURVE('',#1249,#1257,#1259,.T.);
#1257 = VERTEX_POINT('',#1258);
#1258 = CARTESIAN_POINT('',(28.,-11.,7.));
#1259 = LINE('',#1260,#1261);
#1260 = CARTESIAN_POINT('',(28.,-11.,6.2));
#1261 = VECTOR('',#1262,1.);
#1262 = DIRECTION('',(0.,0.,1.));
#1263 = ORIENTED_EDGE('',*,*,#1264,.T.);
#1264 = EDGE_CURVE('',#1257,#860,#1265,.T.);
#1265 = LINE('',#1266,#1267);
#1266 = CARTESIAN_POINT('',(25.,-11.,7.));
#1267 = VECTOR('',#1268,1.);
#1268 = DIRECTION('',(1.,0.,0.));
#1269 = ORIENTED_EDGE('',*,*,#1231,.T.);
#1270 = ORIENTED_EDGE('',*,*,#781,.F.);
#1271 = PLANE('',#1272);
#1272 = AXIS2_PLACEMENT_3D('',#1273,#1274,#1275);
#1273 = CARTESIAN_POINT('',(37.,-11.,6.65));
#1274 = DIRECTION('',(0.,1.,0.));
#1275 = DIRECTION('',(0.,0.,1.));
#1276 = ADVANCED_FACE('',(#1277),#1297,.T.);
#1277 = FACE_BOUND('',#1278,.T.);
#1278 = EDGE_LOOP('',(#1279,#1287,#1288,#1289,#1290,#1291));
#1279 = ORIENTED_EDGE('',*,*,#1280,.F.);
#1280 = EDGE_CURVE('',#1249,#1281,#1283,.T.);
#1281 = VERTEX_POINT('',#1282);
#1282 = CARTESIAN_POINT('',(27.,-12.,6.3));
#1283 = LINE('',#1284,#1285);
#1284 = CARTESIAN_POINT('',(30.09537037037,-8.90462962963,6.3));
#1285 = VECTOR('',#1286,1.);
#1286 = DIRECTION('',(-0.707106781187,-0.707106781187,
    -3.878016612989E-16));
#1287 = ORIENTED_EDGE('',*,*,#1248,.T.);
#1288 = ORIENTED_EDGE('',*,*,#773,.F.);
#1289 = ORIENTED_EDGE('',*,*,#1187,.F.);
#1290 = ORIENTED_EDGE('',*,*,#916,.T.);
#1291 = ORIENTED_EDGE('',*,*,#1292,.F.);
#1292 = EDGE_CURVE('',#1281,#917,#1293,.T.);
#1293 = LINE('',#1294,#1295);
#1294 = CARTESIAN_POINT('',(25.,-12.,6.3));
#1295 = VECTOR('',#1296,1.);
#1296 = DIRECTION('',(1.,0.,0.));
#1297 = PLANE('',#1298);
#1298 = AXIS2_PLACEMENT_3D('',#1299,#1300,#1301);
#1299 = CARTESIAN_POINT('',(37.,-11.61851851851,6.3));
#1300 = DIRECTION('',(0.,5.484343689197E-16,-1.));
#1301 = DIRECTION('',(0.,-1.,-5.484343689197E-16));
#1302 = ADVANCED_FACE('',(#1303),#1321,.T.);
#1303 = FACE_BOUND('',#1304,.T.);
#1304 = EDGE_LOOP('',(#1305,#1306,#1314,#1320));
#1305 = ORIENTED_EDGE('',*,*,#1264,.F.);
#1306 = ORIENTED_EDGE('',*,*,#1307,.F.);
#1307 = EDGE_CURVE('',#1308,#1257,#1310,.T.);
#1308 = VERTEX_POINT('',#1309);
#1309 = CARTESIAN_POINT('',(27.,-12.,7.));
#1310 = LINE('',#1311,#1312);
#1311 = CARTESIAN_POINT('',(27.,-12.,7.));
#1312 = VECTOR('',#1313,1.);
#1313 = DIRECTION('',(0.707106781187,0.707106781187,0.));
#1314 = ORIENTED_EDGE('',*,*,#1315,.T.);
#1315 = EDGE_CURVE('',#1308,#862,#1316,.T.);
#1316 = LINE('',#1317,#1318);
#1317 = CARTESIAN_POINT('',(25.,-12.,7.));
#1318 = VECTOR('',#1319,1.);
#1319 = DIRECTION('',(1.,0.,0.));
#1320 = ORIENTED_EDGE('',*,*,#859,.F.);
#1321 = PLANE('',#1322);
#1322 = AXIS2_PLACEMENT_3D('',#1323,#1324,#1325);
#1323 = CARTESIAN_POINT('',(25.,-12.,7.));
#1324 = DIRECTION('',(0.,0.,1.));
#1325 = DIRECTION('',(1.,0.,0.));
#1326 = ADVANCED_FACE('',(#1327),#1338,.F.);
#1327 = FACE_BOUND('',#1328,.F.);
#1328 = EDGE_LOOP('',(#1329,#1330,#1336,#1337));
#1329 = ORIENTED_EDGE('',*,*,#1292,.F.);
#1330 = ORIENTED_EDGE('',*,*,#1331,.F.);
#1331 = EDGE_CURVE('',#1308,#1281,#1332,.T.);
#1332 = LINE('',#1333,#1334);
#1333 = CARTESIAN_POINT('',(27.,-12.,6.25));
#1334 = VECTOR('',#1335,1.);
#1335 = DIRECTION('',(0.,0.,-1.));
#1336 = ORIENTED_EDGE('',*,*,#1315,.T.);
#1337 = ORIENTED_EDGE('',*,*,#924,.F.);
#1338 = PLANE('',#1339);
#1339 = AXIS2_PLACEMENT_3D('',#1340,#1341,#1342);
#1340 = CARTESIAN_POINT('',(25.,-12.,6.3));
#1341 = DIRECTION('',(0.,1.,0.));
#1342 = DIRECTION('',(0.,0.,1.));
#1343 = ADVANCED_FACE('',(#1344),#1350,.F.);
#1344 = FACE_BOUND('',#1345,.F.);
#1345 = EDGE_LOOP('',(#1346,#1347,#1348,#1349));
#1346 = ORIENTED_EDGE('',*,*,#1280,.F.);
#1347 = ORIENTED_EDGE('',*,*,#1256,.T.);
#1348 = ORIENTED_EDGE('',*,*,#1307,.F.);
#1349 = ORIENTED_EDGE('',*,*,#1331,.T.);
#1350 = PLANE('',#1351);
#1351 = AXIS2_PLACEMENT_3D('',#1352,#1353,#1354);
#1352 = CARTESIAN_POINT('',(28.,-11.,6.2));
#1353 = DIRECTION('',(0.707106781187,-0.707106781187,0.));
#1354 = DIRECTION('',(-0.707106781187,-0.707106781187,0.));
#1355 = ( GEOMETRIC_REPRESENTATION_CONTEXT(3) 
GLOBAL_UNCERTAINTY_ASSIGNED_CONTEXT((#1359)) 
GLOBAL_UNIT_ASSIGNED_CONTEXT((#1356,#1357,#1358)) REPRESENTATION_CONTEXT
('Context #1','3D Context with UNIT and UNCERTAINTY') );
#1356 = ( LENGTH_UNIT() NAMED_UNIT(*) SI_UNIT(.MILLI.,.METRE.) );
#1357 = ( NAMED_UNIT(*) PLANE_ANGLE_UNIT() SI_UNIT($,.RADIAN.) );
#1358 = ( NAMED_UNIT(*) SI_UNIT($,.STERADIAN.) SOLID_ANGLE_UNIT() );
#1359 = UNCERTAINTY_MEASURE_WITH_UNIT(LENGTH_MEASURE(2.E-05),#1356,
  'distance_accuracy_value','confusion accuracy');
#1360 = PRODUCT_RELATED_PRODUCT_CATEGORY('part',$,(#7));
ENDSEC;
END-ISO-10303-21;
