ISO-10303-21;
HEADER;
FILE_DESCRIPTION(('FreeCAD Model'),'2;1');
FILE_NAME('Open CASCADE Shape Model','2026-09-22T17:03:21',('Author'),(
    ''),'Open CASCADE STEP processor 7.8','FreeCAD','Unknown');
FILE_SCHEMA(('AUTOMOTIVE_DESIGN { 1 0 10303 214 1 1 1 1 }'));
ENDSEC;
DATA;
#1 = APPLICATION_PROTOCOL_DEFINITION('international standard',
  'automotive_design',2000,#2);
#2 = APPLICATION_CONTEXT(
  'core data for automotive mechanical design processes');
#3 = SHAPE_DEFINITION_REPRESENTATION(#4,#10);
#4 = PRODUCT_DEFINITION_SHAPE('','',#5);
#5 = PRODUCT_DEFINITION('design','',#6,#9);
#6 = PRODUCT_DEFINITION_FORMATION('','',#7);
#7 = PRODUCT('right-display','right-display','',(#8));
#8 = PRODUCT_CONTEXT('',#2,'mechanical');
#9 = PRODUCT_DEFINITION_CONTEXT('part definition',#2,'design');
#10 = SHAPE_REPRESENTATION('',(#11,#15,#360,#452,#544,#636,#728,#820,
    #970),#1120);
#11 = AXIS2_PLACEMENT_3D('',#12,#13,#14);
#12 = CARTESIAN_POINT('',(0.,0.,0.));
#13 = DIRECTION('',(0.,0.,1.));
#14 = DIRECTION('',(1.,0.,-0.));
#15 = MANIFOLD_SOLID_BREP('',#16);
#16 = CLOSED_SHELL('',(#17,#57,#88,#167,#191,#263,#275,#292,#309,#326,
    #343));
#17 = ADVANCED_FACE('',(#18),#52,.F.);
#18 = FACE_BOUND('',#19,.F.);
#19 = EDGE_LOOP('',(#20,#30,#38,#46));
#20 = ORIENTED_EDGE('',*,*,#21,.F.);
#21 = EDGE_CURVE('',#22,#24,#26,.T.);
#22 = VERTEX_POINT('',#23);
#23 = CARTESIAN_POINT('',(-1.92,-1.2,8.8));
#24 = VERTEX_POINT('',#25);
#25 = CARTESIAN_POINT('',(-1.92,-1.2,9.8));
#26 = LINE('',#27,#28);
#27 = CARTESIAN_POINT('',(-1.92,-1.2,8.8));
#28 = VECTOR('',#29,1.);
#29 = DIRECTION('',(0.,0.,1.));
#30 = ORIENTED_EDGE('',*,*,#31,.T.);
#31 = EDGE_CURVE('',#22,#32,#34,.T.);
#32 = VERTEX_POINT('',#33);
#33 = CARTESIAN_POINT('',(-1.92,34.8,8.8));
#34 = LINE('',#35,#36);
#35 = CARTESIAN_POINT('',(-1.92,-1.2,8.8));
#36 = VECTOR('',#37,1.);
#37 = DIRECTION('',(0.,1.,0.));
#38 = ORIENTED_EDGE('',*,*,#39,.T.);
#39 = EDGE_CURVE('',#32,#40,#42,.T.);
#40 = VERTEX_POINT('',#41);
#41 = CARTESIAN_POINT('',(-1.92,34.8,9.8));
#42 = LINE('',#43,#44);
#43 = CARTESIAN_POINT('',(-1.92,34.8,8.8));
#44 = VECTOR('',#45,1.);
#45 = DIRECTION('',(0.,0.,1.));
#46 = ORIENTED_EDGE('',*,*,#47,.F.);
#47 = EDGE_CURVE('',#24,#40,#48,.T.);
#48 = LINE('',#49,#50);
#49 = CARTESIAN_POINT('',(-1.92,-1.2,9.8));
#50 = VECTOR('',#51,1.);
#51 = DIRECTION('',(0.,1.,0.));
#52 = PLANE('',#53);
#53 = AXIS2_PLACEMENT_3D('',#54,#55,#56);
#54 = CARTESIAN_POINT('',(-1.92,-1.2,8.8));
#55 = DIRECTION('',(1.,0.,0.));
#56 = DIRECTION('',(0.,0.,1.));
#57 = ADVANCED_FACE('',(#58),#83,.F.);
#58 = FACE_BOUND('',#59,.F.);
#59 = EDGE_LOOP('',(#60,#68,#69,#77));
#60 = ORIENTED_EDGE('',*,*,#61,.F.);
#61 = EDGE_CURVE('',#22,#62,#64,.T.);
#62 = VERTEX_POINT('',#63);
#63 = CARTESIAN_POINT('',(12.08,-1.2,8.8));
#64 = LINE('',#65,#66);
#65 = CARTESIAN_POINT('',(-1.92,-1.2,8.8));
#66 = VECTOR('',#67,1.);
#67 = DIRECTION('',(1.,0.,0.));
#68 = ORIENTED_EDGE('',*,*,#21,.T.);
#69 = ORIENTED_EDGE('',*,*,#70,.T.);
#70 = EDGE_CURVE('',#24,#71,#73,.T.);
#71 = VERTEX_POINT('',#72);
#72 = CARTESIAN_POINT('',(12.08,-1.2,9.8));
#73 = LINE('',#74,#75);
#74 = CARTESIAN_POINT('',(-1.92,-1.2,9.8));
#75 = VECTOR('',#76,1.);
#76 = DIRECTION('',(1.,0.,0.));
#77 = ORIENTED_EDGE('',*,*,#78,.F.);
#78 = EDGE_CURVE('',#62,#71,#79,.T.);
#79 = LINE('',#80,#81);
#80 = CARTESIAN_POINT('',(12.08,-1.2,8.8));
#81 = VECTOR('',#82,1.);
#82 = DIRECTION('',(0.,0.,1.));
#83 = PLANE('',#84);
#84 = AXIS2_PLACEMENT_3D('',#85,#86,#87);
#85 = CARTESIAN_POINT('',(-1.92,-1.2,8.8));
#86 = DIRECTION('',(0.,1.,0.));
#87 = DIRECTION('',(0.,0.,1.));
#88 = ADVANCED_FACE('',(#89,#107,#118,#129,#140,#151),#162,.T.);
#89 = FACE_BOUND('',#90,.T.);
#90 = EDGE_LOOP('',(#91,#92,#93,#101));
#91 = ORIENTED_EDGE('',*,*,#47,.F.);
#92 = ORIENTED_EDGE('',*,*,#70,.T.);
#93 = ORIENTED_EDGE('',*,*,#94,.T.);
#94 = EDGE_CURVE('',#71,#95,#97,.T.);
#95 = VERTEX_POINT('',#96);
#96 = CARTESIAN_POINT('',(12.08,34.8,9.8));
#97 = LINE('',#98,#99);
#98 = CARTESIAN_POINT('',(12.08,-1.2,9.8));
#99 = VECTOR('',#100,1.);
#100 = DIRECTION('',(0.,1.,0.));
#101 = ORIENTED_EDGE('',*,*,#102,.F.);
#102 = EDGE_CURVE('',#40,#95,#103,.T.);
#103 = LINE('',#104,#105);
#104 = CARTESIAN_POINT('',(-1.92,34.8,9.8));
#105 = VECTOR('',#106,1.);
#106 = DIRECTION('',(1.,0.,0.));
#107 = FACE_BOUND('',#108,.T.);
#108 = EDGE_LOOP('',(#109));
#109 = ORIENTED_EDGE('',*,*,#110,.F.);
#110 = EDGE_CURVE('',#111,#111,#113,.T.);
#111 = VERTEX_POINT('',#112);
#112 = CARTESIAN_POINT('',(0.45,2.4,9.8));
#113 = CIRCLE('',#114,0.45);
#114 = AXIS2_PLACEMENT_3D('',#115,#116,#117);
#115 = CARTESIAN_POINT('',(5.329070518201E-15,2.4,9.8));
#116 = DIRECTION('',(0.,0.,1.));
#117 = DIRECTION('',(1.,0.,0.));
#118 = FACE_BOUND('',#119,.T.);
#119 = EDGE_LOOP('',(#120));
#120 = ORIENTED_EDGE('',*,*,#121,.F.);
#121 = EDGE_CURVE('',#122,#122,#124,.T.);
#122 = VERTEX_POINT('',#123);
#123 = CARTESIAN_POINT('',(2.99,2.4,9.8));
#124 = CIRCLE('',#125,0.45);
#125 = AXIS2_PLACEMENT_3D('',#126,#127,#128);
#126 = CARTESIAN_POINT('',(2.54,2.4,9.8));
#127 = DIRECTION('',(0.,0.,1.));
#128 = DIRECTION('',(1.,0.,0.));
#129 = FACE_BOUND('',#130,.T.);
#130 = EDGE_LOOP('',(#131));
#131 = ORIENTED_EDGE('',*,*,#132,.F.);
#132 = EDGE_CURVE('',#133,#133,#135,.T.);
#133 = VERTEX_POINT('',#134);
#134 = CARTESIAN_POINT('',(5.53,2.4,9.8));
#135 = CIRCLE('',#136,0.45);
#136 = AXIS2_PLACEMENT_3D('',#137,#138,#139);
#137 = CARTESIAN_POINT('',(5.08,2.4,9.8));
#138 = DIRECTION('',(0.,0.,1.));
#139 = DIRECTION('',(1.,0.,0.));
#140 = FACE_BOUND('',#141,.T.);
#141 = EDGE_LOOP('',(#142));
#142 = ORIENTED_EDGE('',*,*,#143,.F.);
#143 = EDGE_CURVE('',#144,#144,#146,.T.);
#144 = VERTEX_POINT('',#145);
#145 = CARTESIAN_POINT('',(8.07,2.4,9.8));
#146 = CIRCLE('',#147,0.45);
#147 = AXIS2_PLACEMENT_3D('',#148,#149,#150);
#148 = CARTESIAN_POINT('',(7.62,2.4,9.8));
#149 = DIRECTION('',(0.,0.,1.));
#150 = DIRECTION('',(1.,0.,0.));
#151 = FACE_BOUND('',#152,.T.);
#152 = EDGE_LOOP('',(#153));
#153 = ORIENTED_EDGE('',*,*,#154,.F.);
#154 = EDGE_CURVE('',#155,#155,#157,.T.);
#155 = VERTEX_POINT('',#156);
#156 = CARTESIAN_POINT('',(10.61,2.4,9.8));
#157 = CIRCLE('',#158,0.45);
#158 = AXIS2_PLACEMENT_3D('',#159,#160,#161);
#159 = CARTESIAN_POINT('',(10.16,2.4,9.8));
#160 = DIRECTION('',(0.,0.,1.));
#161 = DIRECTION('',(1.,0.,0.));
#162 = PLANE('',#163);
#163 = AXIS2_PLACEMENT_3D('',#164,#165,#166);
#164 = CARTESIAN_POINT('',(-1.92,-1.2,9.8));
#165 = DIRECTION('',(0.,0.,1.));
#166 = DIRECTION('',(1.,0.,0.));
#167 = ADVANCED_FACE('',(#168),#186,.T.);
#168 = FACE_BOUND('',#169,.T.);
#169 = EDGE_LOOP('',(#170,#178,#179,#180));
#170 = ORIENTED_EDGE('',*,*,#171,.F.);
#171 = EDGE_CURVE('',#32,#172,#174,.T.);
#172 = VERTEX_POINT('',#173);
#173 = CARTESIAN_POINT('',(12.08,34.8,8.8));
#174 = LINE('',#175,#176);
#175 = CARTESIAN_POINT('',(-1.92,34.8,8.8));
#176 = VECTOR('',#177,1.);
#177 = DIRECTION('',(1.,0.,0.));
#178 = ORIENTED_EDGE('',*,*,#39,.T.);
#179 = ORIENTED_EDGE('',*,*,#102,.T.);
#180 = ORIENTED_EDGE('',*,*,#181,.F.);
#181 = EDGE_CURVE('',#172,#95,#182,.T.);
#182 = LINE('',#183,#184);
#183 = CARTESIAN_POINT('',(12.08,34.8,8.8));
#184 = VECTOR('',#185,1.);
#185 = DIRECTION('',(0.,0.,1.));
#186 = PLANE('',#187);
#187 = AXIS2_PLACEMENT_3D('',#188,#189,#190);
#188 = CARTESIAN_POINT('',(-1.92,34.8,8.8));
#189 = DIRECTION('',(0.,1.,0.));
#190 = DIRECTION('',(0.,0.,1.));
#191 = ADVANCED_FACE('',(#192,#203,#214,#225,#236,#247),#258,.F.);
#192 = FACE_BOUND('',#193,.F.);
#193 = EDGE_LOOP('',(#194,#195,#196,#202));
#194 = ORIENTED_EDGE('',*,*,#31,.F.);
#195 = ORIENTED_EDGE('',*,*,#61,.T.);
#196 = ORIENTED_EDGE('',*,*,#197,.T.);
#197 = EDGE_CURVE('',#62,#172,#198,.T.);
#198 = LINE('',#199,#200);
#199 = CARTESIAN_POINT('',(12.08,-1.2,8.8));
#200 = VECTOR('',#201,1.);
#201 = DIRECTION('',(0.,1.,0.));
#202 = ORIENTED_EDGE('',*,*,#171,.F.);
#203 = FACE_BOUND('',#204,.F.);
#204 = EDGE_LOOP('',(#205));
#205 = ORIENTED_EDGE('',*,*,#206,.F.);
#206 = EDGE_CURVE('',#207,#207,#209,.T.);
#207 = VERTEX_POINT('',#208);
#208 = CARTESIAN_POINT('',(0.45,2.4,8.8));
#209 = CIRCLE('',#210,0.45);
#210 = AXIS2_PLACEMENT_3D('',#211,#212,#213);
#211 = CARTESIAN_POINT('',(5.329070518201E-15,2.4,8.8));
#212 = DIRECTION('',(0.,0.,1.));
#213 = DIRECTION('',(1.,0.,0.));
#214 = FACE_BOUND('',#215,.F.);
#215 = EDGE_LOOP('',(#216));
#216 = ORIENTED_EDGE('',*,*,#217,.F.);
#217 = EDGE_CURVE('',#218,#218,#220,.T.);
#218 = VERTEX_POINT('',#219);
#219 = CARTESIAN_POINT('',(2.99,2.4,8.8));
#220 = CIRCLE('',#221,0.45);
#221 = AXIS2_PLACEMENT_3D('',#222,#223,#224);
#222 = CARTESIAN_POINT('',(2.54,2.4,8.8));
#223 = DIRECTION('',(0.,0.,1.));
#224 = DIRECTION('',(1.,0.,0.));
#225 = FACE_BOUND('',#226,.F.);
#226 = EDGE_LOOP('',(#227));
#227 = ORIENTED_EDGE('',*,*,#228,.F.);
#228 = EDGE_CURVE('',#229,#229,#231,.T.);
#229 = VERTEX_POINT('',#230);
#230 = CARTESIAN_POINT('',(5.53,2.4,8.8));
#231 = CIRCLE('',#232,0.45);
#232 = AXIS2_PLACEMENT_3D('',#233,#234,#235);
#233 = CARTESIAN_POINT('',(5.08,2.4,8.8));
#234 = DIRECTION('',(0.,0.,1.));
#235 = DIRECTION('',(1.,0.,0.));
#236 = FACE_BOUND('',#237,.F.);
#237 = EDGE_LOOP('',(#238));
#238 = ORIENTED_EDGE('',*,*,#239,.F.);
#239 = EDGE_CURVE('',#240,#240,#242,.T.);
#240 = VERTEX_POINT('',#241);
#241 = CARTESIAN_POINT('',(8.07,2.4,8.8));
#242 = CIRCLE('',#243,0.45);
#243 = AXIS2_PLACEMENT_3D('',#244,#245,#246);
#244 = CARTESIAN_POINT('',(7.62,2.4,8.8));
#245 = DIRECTION('',(0.,0.,1.));
#246 = DIRECTION('',(1.,0.,0.));
#247 = FACE_BOUND('',#248,.F.);
#248 = EDGE_LOOP('',(#249));
#249 = ORIENTED_EDGE('',*,*,#250,.F.);
#250 = EDGE_CURVE('',#251,#251,#253,.T.);
#251 = VERTEX_POINT('',#252);
#252 = CARTESIAN_POINT('',(10.61,2.4,8.8));
#253 = CIRCLE('',#254,0.45);
#254 = AXIS2_PLACEMENT_3D('',#255,#256,#257);
#255 = CARTESIAN_POINT('',(10.16,2.4,8.8));
#256 = DIRECTION('',(0.,0.,1.));
#257 = DIRECTION('',(1.,0.,0.));
#258 = PLANE('',#259);
#259 = AXIS2_PLACEMENT_3D('',#260,#261,#262);
#260 = CARTESIAN_POINT('',(-1.92,-1.2,8.8));
#261 = DIRECTION('',(0.,0.,1.));
#262 = DIRECTION('',(1.,0.,0.));
#263 = ADVANCED_FACE('',(#264),#270,.T.);
#264 = FACE_BOUND('',#265,.T.);
#265 = EDGE_LOOP('',(#266,#267,#268,#269));
#266 = ORIENTED_EDGE('',*,*,#78,.F.);
#267 = ORIENTED_EDGE('',*,*,#197,.T.);
#268 = ORIENTED_EDGE('',*,*,#181,.T.);
#269 = ORIENTED_EDGE('',*,*,#94,.F.);
#270 = PLANE('',#271);
#271 = AXIS2_PLACEMENT_3D('',#272,#273,#274);
#272 = CARTESIAN_POINT('',(12.08,-1.2,8.8));
#273 = DIRECTION('',(1.,0.,0.));
#274 = DIRECTION('',(0.,0.,1.));
#275 = ADVANCED_FACE('',(#276),#287,.F.);
#276 = FACE_BOUND('',#277,.F.);
#277 = EDGE_LOOP('',(#278,#279,#285,#286));
#278 = ORIENTED_EDGE('',*,*,#110,.F.);
#279 = ORIENTED_EDGE('',*,*,#280,.F.);
#280 = EDGE_CURVE('',#207,#111,#281,.T.);
#281 = LINE('',#282,#283);
#282 = CARTESIAN_POINT('',(0.45,2.4,8.7));
#283 = VECTOR('',#284,1.);
#284 = DIRECTION('',(0.,0.,1.));
#285 = ORIENTED_EDGE('',*,*,#206,.T.);
#286 = ORIENTED_EDGE('',*,*,#280,.T.);
#287 = CYLINDRICAL_SURFACE('',#288,0.45);
#288 = AXIS2_PLACEMENT_3D('',#289,#290,#291);
#289 = CARTESIAN_POINT('',(5.329070518201E-15,2.4,8.7));
#290 = DIRECTION('',(0.,0.,1.));
#291 = DIRECTION('',(1.,0.,0.));
#292 = ADVANCED_FACE('',(#293),#304,.F.);
#293 = FACE_BOUND('',#294,.F.);
#294 = EDGE_LOOP('',(#295,#296,#302,#303));
#295 = ORIENTED_EDGE('',*,*,#121,.F.);
#296 = ORIENTED_EDGE('',*,*,#297,.F.);
#297 = EDGE_CURVE('',#218,#122,#298,.T.);
#298 = LINE('',#299,#300);
#299 = CARTESIAN_POINT('',(2.99,2.4,8.7));
#300 = VECTOR('',#301,1.);
#301 = DIRECTION('',(0.,0.,1.));
#302 = ORIENTED_EDGE('',*,*,#217,.T.);
#303 = ORIENTED_EDGE('',*,*,#297,.T.);
#304 = CYLINDRICAL_SURFACE('',#305,0.45);
#305 = AXIS2_PLACEMENT_3D('',#306,#307,#308);
#306 = CARTESIAN_POINT('',(2.54,2.4,8.7));
#307 = DIRECTION('',(0.,0.,1.));
#308 = DIRECTION('',(1.,0.,0.));
#309 = ADVANCED_FACE('',(#310),#321,.F.);
#310 = FACE_BOUND('',#311,.F.);
#311 = EDGE_LOOP('',(#312,#313,#319,#320));
#312 = ORIENTED_EDGE('',*,*,#132,.F.);
#313 = ORIENTED_EDGE('',*,*,#314,.F.);
#314 = EDGE_CURVE('',#229,#133,#315,.T.);
#315 = LINE('',#316,#317);
#316 = CARTESIAN_POINT('',(5.53,2.4,8.7));
#317 = VECTOR('',#318,1.);
#318 = DIRECTION('',(0.,0.,1.));
#319 = ORIENTED_EDGE('',*,*,#228,.T.);
#320 = ORIENTED_EDGE('',*,*,#314,.T.);
#321 = CYLINDRICAL_SURFACE('',#322,0.45);
#322 = AXIS2_PLACEMENT_3D('',#323,#324,#325);
#323 = CARTESIAN_POINT('',(5.08,2.4,8.7));
#324 = DIRECTION('',(0.,0.,1.));
#325 = DIRECTION('',(1.,0.,0.));
#326 = ADVANCED_FACE('',(#327),#338,.F.);
#327 = FACE_BOUND('',#328,.F.);
#328 = EDGE_LOOP('',(#329,#330,#336,#337));
#329 = ORIENTED_EDGE('',*,*,#143,.F.);
#330 = ORIENTED_EDGE('',*,*,#331,.F.);
#331 = EDGE_CURVE('',#240,#144,#332,.T.);
#332 = LINE('',#333,#334);
#333 = CARTESIAN_POINT('',(8.07,2.4,8.7));
#334 = VECTOR('',#335,1.);
#335 = DIRECTION('',(0.,0.,1.));
#336 = ORIENTED_EDGE('',*,*,#239,.T.);
#337 = ORIENTED_EDGE('',*,*,#331,.T.);
#338 = CYLINDRICAL_SURFACE('',#339,0.45);
#339 = AXIS2_PLACEMENT_3D('',#340,#341,#342);
#340 = CARTESIAN_POINT('',(7.62,2.4,8.7));
#341 = DIRECTION('',(0.,0.,1.));
#342 = DIRECTION('',(1.,0.,0.));
#343 = ADVANCED_FACE('',(#344),#355,.F.);
#344 = FACE_BOUND('',#345,.F.);
#345 = EDGE_LOOP('',(#346,#347,#353,#354));
#346 = ORIENTED_EDGE('',*,*,#154,.F.);
#347 = ORIENTED_EDGE('',*,*,#348,.F.);
#348 = EDGE_CURVE('',#251,#155,#349,.T.);
#349 = LINE('',#350,#351);
#350 = CARTESIAN_POINT('',(10.61,2.4,8.7));
#351 = VECTOR('',#352,1.);
#352 = DIRECTION('',(0.,0.,1.));
#353 = ORIENTED_EDGE('',*,*,#250,.T.);
#354 = ORIENTED_EDGE('',*,*,#348,.T.);
#355 = CYLINDRICAL_SURFACE('',#356,0.45);
#356 = AXIS2_PLACEMENT_3D('',#357,#358,#359);
#357 = CARTESIAN_POINT('',(10.16,2.4,8.7));
#358 = DIRECTION('',(0.,0.,1.));
#359 = DIRECTION('',(1.,0.,0.));
#360 = MANIFOLD_SOLID_BREP('',#361);
#361 = CLOSED_SHELL('',(#362,#395,#415,#435));
#362 = ADVANCED_FACE('',(#363),#390,.T.);
#363 = FACE_BOUND('',#364,.T.);
#364 = EDGE_LOOP('',(#365,#374,#382,#389));
#365 = ORIENTED_EDGE('',*,*,#366,.F.);
#366 = EDGE_CURVE('',#367,#367,#369,.T.);
#367 = VERTEX_POINT('',#368);
#368 = CARTESIAN_POINT('',(0.9,2.4,9.825));
#369 = CIRCLE('',#370,0.9);
#370 = AXIS2_PLACEMENT_3D('',#371,#372,#373);
#371 = CARTESIAN_POINT('',(5.329070518201E-15,2.4,9.825));
#372 = DIRECTION('',(0.,0.,1.));
#373 = DIRECTION('',(1.,0.,0.));
#374 = ORIENTED_EDGE('',*,*,#375,.F.);
#375 = EDGE_CURVE('',#376,#367,#378,.T.);
#376 = VERTEX_POINT('',#377);
#377 = CARTESIAN_POINT('',(0.9,2.4,9.79));
#378 = LINE('',#379,#380);
#379 = CARTESIAN_POINT('',(0.9,2.4,9.79));
#380 = VECTOR('',#381,1.);
#381 = DIRECTION('',(0.,0.,1.));
#382 = ORIENTED_EDGE('',*,*,#383,.T.);
#383 = EDGE_CURVE('',#376,#376,#384,.T.);
#384 = CIRCLE('',#385,0.9);
#385 = AXIS2_PLACEMENT_3D('',#386,#387,#388);
#386 = CARTESIAN_POINT('',(5.329070518201E-15,2.4,9.79));
#387 = DIRECTION('',(0.,0.,1.));
#388 = DIRECTION('',(1.,0.,0.));
#389 = ORIENTED_EDGE('',*,*,#375,.T.);
#390 = CYLINDRICAL_SURFACE('',#391,0.9);
#391 = AXIS2_PLACEMENT_3D('',#392,#393,#394);
#392 = CARTESIAN_POINT('',(5.329070518201E-15,2.4,9.79));
#393 = DIRECTION('',(0.,0.,1.));
#394 = DIRECTION('',(1.,0.,0.));
#395 = ADVANCED_FACE('',(#396,#399),#410,.T.);
#396 = FACE_BOUND('',#397,.T.);
#397 = EDGE_LOOP('',(#398));
#398 = ORIENTED_EDGE('',*,*,#366,.T.);
#399 = FACE_BOUND('',#400,.T.);
#400 = EDGE_LOOP('',(#401));
#401 = ORIENTED_EDGE('',*,*,#402,.F.);
#402 = EDGE_CURVE('',#403,#403,#405,.T.);
#403 = VERTEX_POINT('',#404);
#404 = CARTESIAN_POINT('',(0.45,2.4,9.825));
#405 = CIRCLE('',#406,0.45);
#406 = AXIS2_PLACEMENT_3D('',#407,#408,#409);
#407 = CARTESIAN_POINT('',(5.329070518201E-15,2.4,9.825));
#408 = DIRECTION('',(0.,0.,1.));
#409 = DIRECTION('',(1.,0.,0.));
#410 = PLANE('',#411);
#411 = AXIS2_PLACEMENT_3D('',#412,#413,#414);
#412 = CARTESIAN_POINT('',(5.329070518201E-15,2.4,9.825));
#413 = DIRECTION('',(0.,0.,1.));
#414 = DIRECTION('',(1.,0.,0.));
#415 = ADVANCED_FACE('',(#416,#419),#430,.F.);
#416 = FACE_BOUND('',#417,.F.);
#417 = EDGE_LOOP('',(#418));
#418 = ORIENTED_EDGE('',*,*,#383,.T.);
#419 = FACE_BOUND('',#420,.F.);
#420 = EDGE_LOOP('',(#421));
#421 = ORIENTED_EDGE('',*,*,#422,.F.);
#422 = EDGE_CURVE('',#423,#423,#425,.T.);
#423 = VERTEX_POINT('',#424);
#424 = CARTESIAN_POINT('',(0.45,2.4,9.79));
#425 = CIRCLE('',#426,0.45);
#426 = AXIS2_PLACEMENT_3D('',#427,#428,#429);
#427 = CARTESIAN_POINT('',(5.329070518201E-15,2.4,9.79));
#428 = DIRECTION('',(0.,0.,1.));
#429 = DIRECTION('',(1.,0.,0.));
#430 = PLANE('',#431);
#431 = AXIS2_PLACEMENT_3D('',#432,#433,#434);
#432 = CARTESIAN_POINT('',(5.329070518201E-15,2.4,9.79));
#433 = DIRECTION('',(0.,0.,1.));
#434 = DIRECTION('',(1.,0.,0.));
#435 = ADVANCED_FACE('',(#436),#447,.F.);
#436 = FACE_BOUND('',#437,.F.);
#437 = EDGE_LOOP('',(#438,#439,#445,#446));
#438 = ORIENTED_EDGE('',*,*,#402,.F.);
#439 = ORIENTED_EDGE('',*,*,#440,.F.);
#440 = EDGE_CURVE('',#423,#403,#441,.T.);
#441 = LINE('',#442,#443);
#442 = CARTESIAN_POINT('',(0.45,2.4,9.78));
#443 = VECTOR('',#444,1.);
#444 = DIRECTION('',(0.,0.,1.));
#445 = ORIENTED_EDGE('',*,*,#422,.T.);
#446 = ORIENTED_EDGE('',*,*,#440,.T.);
#447 = CYLINDRICAL_SURFACE('',#448,0.45);
#448 = AXIS2_PLACEMENT_3D('',#449,#450,#451);
#449 = CARTESIAN_POINT('',(5.329070518201E-15,2.4,9.78));
#450 = DIRECTION('',(0.,0.,1.));
#451 = DIRECTION('',(1.,0.,0.));
#452 = MANIFOLD_SOLID_BREP('',#453);
#453 = CLOSED_SHELL('',(#454,#487,#507,#527));
#454 = ADVANCED_FACE('',(#455),#482,.T.);
#455 = FACE_BOUND('',#456,.T.);
#456 = EDGE_LOOP('',(#457,#466,#474,#481));
#457 = ORIENTED_EDGE('',*,*,#458,.F.);
#458 = EDGE_CURVE('',#459,#459,#461,.T.);
#459 = VERTEX_POINT('',#460);
#460 = CARTESIAN_POINT('',(3.44,2.4,9.825));
#461 = CIRCLE('',#462,0.9);
#462 = AXIS2_PLACEMENT_3D('',#463,#464,#465);
#463 = CARTESIAN_POINT('',(2.54,2.4,9.825));
#464 = DIRECTION('',(0.,0.,1.));
#465 = DIRECTION('',(1.,0.,0.));
#466 = ORIENTED_EDGE('',*,*,#467,.F.);
#467 = EDGE_CURVE('',#468,#459,#470,.T.);
#468 = VERTEX_POINT('',#469);
#469 = CARTESIAN_POINT('',(3.44,2.4,9.79));
#470 = LINE('',#471,#472);
#471 = CARTESIAN_POINT('',(3.44,2.4,9.79));
#472 = VECTOR('',#473,1.);
#473 = DIRECTION('',(0.,0.,1.));
#474 = ORIENTED_EDGE('',*,*,#475,.T.);
#475 = EDGE_CURVE('',#468,#468,#476,.T.);
#476 = CIRCLE('',#477,0.9);
#477 = AXIS2_PLACEMENT_3D('',#478,#479,#480);
#478 = CARTESIAN_POINT('',(2.54,2.4,9.79));
#479 = DIRECTION('',(0.,0.,1.));
#480 = DIRECTION('',(1.,0.,0.));
#481 = ORIENTED_EDGE('',*,*,#467,.T.);
#482 = CYLINDRICAL_SURFACE('',#483,0.9);
#483 = AXIS2_PLACEMENT_3D('',#484,#485,#486);
#484 = CARTESIAN_POINT('',(2.54,2.4,9.79));
#485 = DIRECTION('',(0.,0.,1.));
#486 = DIRECTION('',(1.,0.,0.));
#487 = ADVANCED_FACE('',(#488,#491),#502,.T.);
#488 = FACE_BOUND('',#489,.T.);
#489 = EDGE_LOOP('',(#490));
#490 = ORIENTED_EDGE('',*,*,#458,.T.);
#491 = FACE_BOUND('',#492,.T.);
#492 = EDGE_LOOP('',(#493));
#493 = ORIENTED_EDGE('',*,*,#494,.F.);
#494 = EDGE_CURVE('',#495,#495,#497,.T.);
#495 = VERTEX_POINT('',#496);
#496 = CARTESIAN_POINT('',(2.99,2.4,9.825));
#497 = CIRCLE('',#498,0.45);
#498 = AXIS2_PLACEMENT_3D('',#499,#500,#501);
#499 = CARTESIAN_POINT('',(2.54,2.4,9.825));
#500 = DIRECTION('',(0.,0.,1.));
#501 = DIRECTION('',(1.,0.,0.));
#502 = PLANE('',#503);
#503 = AXIS2_PLACEMENT_3D('',#504,#505,#506);
#504 = CARTESIAN_POINT('',(2.54,2.4,9.825));
#505 = DIRECTION('',(0.,0.,1.));
#506 = DIRECTION('',(1.,0.,0.));
#507 = ADVANCED_FACE('',(#508,#511),#522,.F.);
#508 = FACE_BOUND('',#509,.F.);
#509 = EDGE_LOOP('',(#510));
#510 = ORIENTED_EDGE('',*,*,#475,.T.);
#511 = FACE_BOUND('',#512,.F.);
#512 = EDGE_LOOP('',(#513));
#513 = ORIENTED_EDGE('',*,*,#514,.F.);
#514 = EDGE_CURVE('',#515,#515,#517,.T.);
#515 = VERTEX_POINT('',#516);
#516 = CARTESIAN_POINT('',(2.99,2.4,9.79));
#517 = CIRCLE('',#518,0.45);
#518 = AXIS2_PLACEMENT_3D('',#519,#520,#521);
#519 = CARTESIAN_POINT('',(2.54,2.4,9.79));
#520 = DIRECTION('',(0.,0.,1.));
#521 = DIRECTION('',(1.,0.,0.));
#522 = PLANE('',#523);
#523 = AXIS2_PLACEMENT_3D('',#524,#525,#526);
#524 = CARTESIAN_POINT('',(2.54,2.4,9.79));
#525 = DIRECTION('',(0.,0.,1.));
#526 = DIRECTION('',(1.,0.,0.));
#527 = ADVANCED_FACE('',(#528),#539,.F.);
#528 = FACE_BOUND('',#529,.F.);
#529 = EDGE_LOOP('',(#530,#531,#537,#538));
#530 = ORIENTED_EDGE('',*,*,#494,.F.);
#531 = ORIENTED_EDGE('',*,*,#532,.F.);
#532 = EDGE_CURVE('',#515,#495,#533,.T.);
#533 = LINE('',#534,#535);
#534 = CARTESIAN_POINT('',(2.99,2.4,9.78));
#535 = VECTOR('',#536,1.);
#536 = DIRECTION('',(0.,0.,1.));
#537 = ORIENTED_EDGE('',*,*,#514,.T.);
#538 = ORIENTED_EDGE('',*,*,#532,.T.);
#539 = CYLINDRICAL_SURFACE('',#540,0.45);
#540 = AXIS2_PLACEMENT_3D('',#541,#542,#543);
#541 = CARTESIAN_POINT('',(2.54,2.4,9.78));
#542 = DIRECTION('',(0.,0.,1.));
#543 = DIRECTION('',(1.,0.,0.));
#544 = MANIFOLD_SOLID_BREP('',#545);
#545 = CLOSED_SHELL('',(#546,#579,#599,#619));
#546 = ADVANCED_FACE('',(#547),#574,.T.);
#547 = FACE_BOUND('',#548,.T.);
#548 = EDGE_LOOP('',(#549,#558,#566,#573));
#549 = ORIENTED_EDGE('',*,*,#550,.F.);
#550 = EDGE_CURVE('',#551,#551,#553,.T.);
#551 = VERTEX_POINT('',#552);
#552 = CARTESIAN_POINT('',(5.98,2.4,9.825));
#553 = CIRCLE('',#554,0.9);
#554 = AXIS2_PLACEMENT_3D('',#555,#556,#557);
#555 = CARTESIAN_POINT('',(5.08,2.4,9.825));
#556 = DIRECTION('',(0.,0.,1.));
#557 = DIRECTION('',(1.,0.,0.));
#558 = ORIENTED_EDGE('',*,*,#559,.F.);
#559 = EDGE_CURVE('',#560,#551,#562,.T.);
#560 = VERTEX_POINT('',#561);
#561 = CARTESIAN_POINT('',(5.98,2.4,9.79));
#562 = LINE('',#563,#564);
#563 = CARTESIAN_POINT('',(5.98,2.4,9.79));
#564 = VECTOR('',#565,1.);
#565 = DIRECTION('',(0.,0.,1.));
#566 = ORIENTED_EDGE('',*,*,#567,.T.);
#567 = EDGE_CURVE('',#560,#560,#568,.T.);
#568 = CIRCLE('',#569,0.9);
#569 = AXIS2_PLACEMENT_3D('',#570,#571,#572);
#570 = CARTESIAN_POINT('',(5.08,2.4,9.79));
#571 = DIRECTION('',(0.,0.,1.));
#572 = DIRECTION('',(1.,0.,0.));
#573 = ORIENTED_EDGE('',*,*,#559,.T.);
#574 = CYLINDRICAL_SURFACE('',#575,0.9);
#575 = AXIS2_PLACEMENT_3D('',#576,#577,#578);
#576 = CARTESIAN_POINT('',(5.08,2.4,9.79));
#577 = DIRECTION('',(0.,0.,1.));
#578 = DIRECTION('',(1.,0.,0.));
#579 = ADVANCED_FACE('',(#580,#583),#594,.T.);
#580 = FACE_BOUND('',#581,.T.);
#581 = EDGE_LOOP('',(#582));
#582 = ORIENTED_EDGE('',*,*,#550,.T.);
#583 = FACE_BOUND('',#584,.T.);
#584 = EDGE_LOOP('',(#585));
#585 = ORIENTED_EDGE('',*,*,#586,.F.);
#586 = EDGE_CURVE('',#587,#587,#589,.T.);
#587 = VERTEX_POINT('',#588);
#588 = CARTESIAN_POINT('',(5.53,2.4,9.825));
#589 = CIRCLE('',#590,0.45);
#590 = AXIS2_PLACEMENT_3D('',#591,#592,#593);
#591 = CARTESIAN_POINT('',(5.08,2.4,9.825));
#592 = DIRECTION('',(0.,0.,1.));
#593 = DIRECTION('',(1.,0.,0.));
#594 = PLANE('',#595);
#595 = AXIS2_PLACEMENT_3D('',#596,#597,#598);
#596 = CARTESIAN_POINT('',(5.08,2.4,9.825));
#597 = DIRECTION('',(0.,0.,1.));
#598 = DIRECTION('',(1.,0.,0.));
#599 = ADVANCED_FACE('',(#600,#603),#614,.F.);
#600 = FACE_BOUND('',#601,.F.);
#601 = EDGE_LOOP('',(#602));
#602 = ORIENTED_EDGE('',*,*,#567,.T.);
#603 = FACE_BOUND('',#604,.F.);
#604 = EDGE_LOOP('',(#605));
#605 = ORIENTED_EDGE('',*,*,#606,.F.);
#606 = EDGE_CURVE('',#607,#607,#609,.T.);
#607 = VERTEX_POINT('',#608);
#608 = CARTESIAN_POINT('',(5.53,2.4,9.79));
#609 = CIRCLE('',#610,0.45);
#610 = AXIS2_PLACEMENT_3D('',#611,#612,#613);
#611 = CARTESIAN_POINT('',(5.08,2.4,9.79));
#612 = DIRECTION('',(0.,0.,1.));
#613 = DIRECTION('',(1.,0.,0.));
#614 = PLANE('',#615);
#615 = AXIS2_PLACEMENT_3D('',#616,#617,#618);
#616 = CARTESIAN_POINT('',(5.08,2.4,9.79));
#617 = DIRECTION('',(0.,0.,1.));
#618 = DIRECTION('',(1.,0.,0.));
#619 = ADVANCED_FACE('',(#620),#631,.F.);
#620 = FACE_BOUND('',#621,.F.);
#621 = EDGE_LOOP('',(#622,#623,#629,#630));
#622 = ORIENTED_EDGE('',*,*,#586,.F.);
#623 = ORIENTED_EDGE('',*,*,#624,.F.);
#624 = EDGE_CURVE('',#607,#587,#625,.T.);
#625 = LINE('',#626,#627);
#626 = CARTESIAN_POINT('',(5.53,2.4,9.78));
#627 = VECTOR('',#628,1.);
#628 = DIRECTION('',(0.,0.,1.));
#629 = ORIENTED_EDGE('',*,*,#606,.T.);
#630 = ORIENTED_EDGE('',*,*,#624,.T.);
#631 = CYLINDRICAL_SURFACE('',#632,0.45);
#632 = AXIS2_PLACEMENT_3D('',#633,#634,#635);
#633 = CARTESIAN_POINT('',(5.08,2.4,9.78));
#634 = DIRECTION('',(0.,0.,1.));
#635 = DIRECTION('',(1.,0.,0.));
#636 = MANIFOLD_SOLID_BREP('',#637);
#637 = CLOSED_SHELL('',(#638,#671,#691,#711));
#638 = ADVANCED_FACE('',(#639),#666,.T.);
#639 = FACE_BOUND('',#640,.T.);
#640 = EDGE_LOOP('',(#641,#650,#658,#665));
#641 = ORIENTED_EDGE('',*,*,#642,.F.);
#642 = EDGE_CURVE('',#643,#643,#645,.T.);
#643 = VERTEX_POINT('',#644);
#644 = CARTESIAN_POINT('',(8.52,2.4,9.825));
#645 = CIRCLE('',#646,0.9);
#646 = AXIS2_PLACEMENT_3D('',#647,#648,#649);
#647 = CARTESIAN_POINT('',(7.62,2.4,9.825));
#648 = DIRECTION('',(0.,0.,1.));
#649 = DIRECTION('',(1.,0.,0.));
#650 = ORIENTED_EDGE('',*,*,#651,.F.);
#651 = EDGE_CURVE('',#652,#643,#654,.T.);
#652 = VERTEX_POINT('',#653);
#653 = CARTESIAN_POINT('',(8.52,2.4,9.79));
#654 = LINE('',#655,#656);
#655 = CARTESIAN_POINT('',(8.52,2.4,9.79));
#656 = VECTOR('',#657,1.);
#657 = DIRECTION('',(0.,0.,1.));
#658 = ORIENTED_EDGE('',*,*,#659,.T.);
#659 = EDGE_CURVE('',#652,#652,#660,.T.);
#660 = CIRCLE('',#661,0.9);
#661 = AXIS2_PLACEMENT_3D('',#662,#663,#664);
#662 = CARTESIAN_POINT('',(7.62,2.4,9.79));
#663 = DIRECTION('',(0.,0.,1.));
#664 = DIRECTION('',(1.,0.,0.));
#665 = ORIENTED_EDGE('',*,*,#651,.T.);
#666 = CYLINDRICAL_SURFACE('',#667,0.9);
#667 = AXIS2_PLACEMENT_3D('',#668,#669,#670);
#668 = CARTESIAN_POINT('',(7.62,2.4,9.79));
#669 = DIRECTION('',(0.,0.,1.));
#670 = DIRECTION('',(1.,0.,0.));
#671 = ADVANCED_FACE('',(#672,#675),#686,.T.);
#672 = FACE_BOUND('',#673,.T.);
#673 = EDGE_LOOP('',(#674));
#674 = ORIENTED_EDGE('',*,*,#642,.T.);
#675 = FACE_BOUND('',#676,.T.);
#676 = EDGE_LOOP('',(#677));
#677 = ORIENTED_EDGE('',*,*,#678,.F.);
#678 = EDGE_CURVE('',#679,#679,#681,.T.);
#679 = VERTEX_POINT('',#680);
#680 = CARTESIAN_POINT('',(8.07,2.4,9.825));
#681 = CIRCLE('',#682,0.45);
#682 = AXIS2_PLACEMENT_3D('',#683,#684,#685);
#683 = CARTESIAN_POINT('',(7.62,2.4,9.825));
#684 = DIRECTION('',(0.,0.,1.));
#685 = DIRECTION('',(1.,0.,0.));
#686 = PLANE('',#687);
#687 = AXIS2_PLACEMENT_3D('',#688,#689,#690);
#688 = CARTESIAN_POINT('',(7.62,2.4,9.825));
#689 = DIRECTION('',(0.,0.,1.));
#690 = DIRECTION('',(1.,0.,0.));
#691 = ADVANCED_FACE('',(#692,#695),#706,.F.);
#692 = FACE_BOUND('',#693,.F.);
#693 = EDGE_LOOP('',(#694));
#694 = ORIENTED_EDGE('',*,*,#659,.T.);
#695 = FACE_BOUND('',#696,.F.);
#696 = EDGE_LOOP('',(#697));
#697 = ORIENTED_EDGE('',*,*,#698,.F.);
#698 = EDGE_CURVE('',#699,#699,#701,.T.);
#699 = VERTEX_POINT('',#700);
#700 = CARTESIAN_POINT('',(8.07,2.4,9.79));
#701 = CIRCLE('',#702,0.45);
#702 = AXIS2_PLACEMENT_3D('',#703,#704,#705);
#703 = CARTESIAN_POINT('',(7.62,2.4,9.79));
#704 = DIRECTION('',(0.,0.,1.));
#705 = DIRECTION('',(1.,0.,0.));
#706 = PLANE('',#707);
#707 = AXIS2_PLACEMENT_3D('',#708,#709,#710);
#708 = CARTESIAN_POINT('',(7.62,2.4,9.79));
#709 = DIRECTION('',(0.,0.,1.));
#710 = DIRECTION('',(1.,0.,0.));
#711 = ADVANCED_FACE('',(#712),#723,.F.);
#712 = FACE_BOUND('',#713,.F.);
#713 = EDGE_LOOP('',(#714,#715,#721,#722));
#714 = ORIENTED_EDGE('',*,*,#678,.F.);
#715 = ORIENTED_EDGE('',*,*,#716,.F.);
#716 = EDGE_CURVE('',#699,#679,#717,.T.);
#717 = LINE('',#718,#719);
#718 = CARTESIAN_POINT('',(8.07,2.4,9.78));
#719 = VECTOR('',#720,1.);
#720 = DIRECTION('',(0.,0.,1.));
#721 = ORIENTED_EDGE('',*,*,#698,.T.);
#722 = ORIENTED_EDGE('',*,*,#716,.T.);
#723 = CYLINDRICAL_SURFACE('',#724,0.45);
#724 = AXIS2_PLACEMENT_3D('',#725,#726,#727);
#725 = CARTESIAN_POINT('',(7.62,2.4,9.78));
#726 = DIRECTION('',(0.,0.,1.));
#727 = DIRECTION('',(1.,0.,0.));
#728 = MANIFOLD_SOLID_BREP('',#729);
#729 = CLOSED_SHELL('',(#730,#763,#783,#803));
#730 = ADVANCED_FACE('',(#731),#758,.T.);
#731 = FACE_BOUND('',#732,.T.);
#732 = EDGE_LOOP('',(#733,#742,#750,#757));
#733 = ORIENTED_EDGE('',*,*,#734,.F.);
#734 = EDGE_CURVE('',#735,#735,#737,.T.);
#735 = VERTEX_POINT('',#736);
#736 = CARTESIAN_POINT('',(11.06,2.4,9.825));
#737 = CIRCLE('',#738,0.9);
#738 = AXIS2_PLACEMENT_3D('',#739,#740,#741);
#739 = CARTESIAN_POINT('',(10.16,2.4,9.825));
#740 = DIRECTION('',(0.,0.,1.));
#741 = DIRECTION('',(1.,0.,0.));
#742 = ORIENTED_EDGE('',*,*,#743,.F.);
#743 = EDGE_CURVE('',#744,#735,#746,.T.);
#744 = VERTEX_POINT('',#745);
#745 = CARTESIAN_POINT('',(11.06,2.4,9.79));
#746 = LINE('',#747,#748);
#747 = CARTESIAN_POINT('',(11.06,2.4,9.79));
#748 = VECTOR('',#749,1.);
#749 = DIRECTION('',(0.,0.,1.));
#750 = ORIENTED_EDGE('',*,*,#751,.T.);
#751 = EDGE_CURVE('',#744,#744,#752,.T.);
#752 = CIRCLE('',#753,0.9);
#753 = AXIS2_PLACEMENT_3D('',#754,#755,#756);
#754 = CARTESIAN_POINT('',(10.16,2.4,9.79));
#755 = DIRECTION('',(0.,0.,1.));
#756 = DIRECTION('',(1.,0.,0.));
#757 = ORIENTED_EDGE('',*,*,#743,.T.);
#758 = CYLINDRICAL_SURFACE('',#759,0.9);
#759 = AXIS2_PLACEMENT_3D('',#760,#761,#762);
#760 = CARTESIAN_POINT('',(10.16,2.4,9.79));
#761 = DIRECTION('',(0.,0.,1.));
#762 = DIRECTION('',(1.,0.,0.));
#763 = ADVANCED_FACE('',(#764,#767),#778,.T.);
#764 = FACE_BOUND('',#765,.T.);
#765 = EDGE_LOOP('',(#766));
#766 = ORIENTED_EDGE('',*,*,#734,.T.);
#767 = FACE_BOUND('',#768,.T.);
#768 = EDGE_LOOP('',(#769));
#769 = ORIENTED_EDGE('',*,*,#770,.F.);
#770 = EDGE_CURVE('',#771,#771,#773,.T.);
#771 = VERTEX_POINT('',#772);
#772 = CARTESIAN_POINT('',(10.61,2.4,9.825));
#773 = CIRCLE('',#774,0.45);
#774 = AXIS2_PLACEMENT_3D('',#775,#776,#777);
#775 = CARTESIAN_POINT('',(10.16,2.4,9.825));
#776 = DIRECTION('',(0.,0.,1.));
#777 = DIRECTION('',(1.,0.,0.));
#778 = PLANE('',#779);
#779 = AXIS2_PLACEMENT_3D('',#780,#781,#782);
#780 = CARTESIAN_POINT('',(10.16,2.4,9.825));
#781 = DIRECTION('',(0.,0.,1.));
#782 = DIRECTION('',(1.,0.,0.));
#783 = ADVANCED_FACE('',(#784,#787),#798,.F.);
#784 = FACE_BOUND('',#785,.F.);
#785 = EDGE_LOOP('',(#786));
#786 = ORIENTED_EDGE('',*,*,#751,.T.);
#787 = FACE_BOUND('',#788,.F.);
#788 = EDGE_LOOP('',(#789));
#789 = ORIENTED_EDGE('',*,*,#790,.F.);
#790 = EDGE_CURVE('',#791,#791,#793,.T.);
#791 = VERTEX_POINT('',#792);
#792 = CARTESIAN_POINT('',(10.61,2.4,9.79));
#793 = CIRCLE('',#794,0.45);
#794 = AXIS2_PLACEMENT_3D('',#795,#796,#797);
#795 = CARTESIAN_POINT('',(10.16,2.4,9.79));
#796 = DIRECTION('',(0.,0.,1.));
#797 = DIRECTION('',(1.,0.,0.));
#798 = PLANE('',#799);
#799 = AXIS2_PLACEMENT_3D('',#800,#801,#802);
#800 = CARTESIAN_POINT('',(10.16,2.4,9.79));
#801 = DIRECTION('',(0.,0.,1.));
#802 = DIRECTION('',(1.,0.,0.));
#803 = ADVANCED_FACE('',(#804),#815,.F.);
#804 = FACE_BOUND('',#805,.F.);
#805 = EDGE_LOOP('',(#806,#807,#813,#814));
#806 = ORIENTED_EDGE('',*,*,#770,.F.);
#807 = ORIENTED_EDGE('',*,*,#808,.F.);
#808 = EDGE_CURVE('',#791,#771,#809,.T.);
#809 = LINE('',#810,#811);
#810 = CARTESIAN_POINT('',(10.61,2.4,9.78));
#811 = VECTOR('',#812,1.);
#812 = DIRECTION('',(0.,0.,1.));
#813 = ORIENTED_EDGE('',*,*,#790,.T.);
#814 = ORIENTED_EDGE('',*,*,#808,.T.);
#815 = CYLINDRICAL_SURFACE('',#816,0.45);
#816 = AXIS2_PLACEMENT_3D('',#817,#818,#819);
#817 = CARTESIAN_POINT('',(10.16,2.4,9.78));
#818 = DIRECTION('',(0.,0.,1.));
#819 = DIRECTION('',(1.,0.,0.));
#820 = MANIFOLD_SOLID_BREP('',#821);
#821 = CLOSED_SHELL('',(#822,#862,#902,#924,#946,#958));
#822 = ADVANCED_FACE('',(#823),#857,.F.);
#823 = FACE_BOUND('',#824,.F.);
#824 = EDGE_LOOP('',(#825,#835,#843,#851));
#825 = ORIENTED_EDGE('',*,*,#826,.F.);
#826 = EDGE_CURVE('',#827,#829,#831,.T.);
#827 = VERTEX_POINT('',#828);
#828 = CARTESIAN_POINT('',(-1.77,1.95,9.8));
#829 = VERTEX_POINT('',#830);
#830 = CARTESIAN_POINT('',(-1.77,1.95,10.7));
#831 = LINE('',#832,#833);
#832 = CARTESIAN_POINT('',(-1.77,1.95,9.8));
#833 = VECTOR('',#834,1.);
#834 = DIRECTION('',(0.,0.,1.));
#835 = ORIENTED_EDGE('',*,*,#836,.T.);
#836 = EDGE_CURVE('',#827,#837,#839,.T.);
#837 = VERTEX_POINT('',#838);
#838 = CARTESIAN_POINT('',(-1.77,32.25,9.8));
#839 = LINE('',#840,#841);
#840 = CARTESIAN_POINT('',(-1.77,1.95,9.8));
#841 = VECTOR('',#842,1.);
#842 = DIRECTION('',(0.,1.,0.));
#843 = ORIENTED_EDGE('',*,*,#844,.T.);
#844 = EDGE_CURVE('',#837,#845,#847,.T.);
#845 = VERTEX_POINT('',#846);
#846 = CARTESIAN_POINT('',(-1.77,32.25,10.7));
#847 = LINE('',#848,#849);
#848 = CARTESIAN_POINT('',(-1.77,32.25,9.8));
#849 = VECTOR('',#850,1.);
#850 = DIRECTION('',(0.,0.,1.));
#851 = ORIENTED_EDGE('',*,*,#852,.F.);
#852 = EDGE_CURVE('',#829,#845,#853,.T.);
#853 = LINE('',#854,#855);
#854 = CARTESIAN_POINT('',(-1.77,1.95,10.7));
#855 = VECTOR('',#856,1.);
#856 = DIRECTION('',(0.,1.,0.));
#857 = PLANE('',#858);
#858 = AXIS2_PLACEMENT_3D('',#859,#860,#861);
#859 = CARTESIAN_POINT('',(-1.77,1.95,9.8));
#860 = DIRECTION('',(1.,0.,0.));
#861 = DIRECTION('',(0.,0.,1.));
#862 = ADVANCED_FACE('',(#863),#897,.T.);
#863 = FACE_BOUND('',#864,.T.);
#864 = EDGE_LOOP('',(#865,#875,#883,#891));
#865 = ORIENTED_EDGE('',*,*,#866,.F.);
#866 = EDGE_CURVE('',#867,#869,#871,.T.);
#867 = VERTEX_POINT('',#868);
#868 = CARTESIAN_POINT('',(11.93,1.95,9.8));
#869 = VERTEX_POINT('',#870);
#870 = CARTESIAN_POINT('',(11.93,1.95,10.7));
#871 = LINE('',#872,#873);
#872 = CARTESIAN_POINT('',(11.93,1.95,9.8));
#873 = VECTOR('',#874,1.);
#874 = DIRECTION('',(0.,0.,1.));
#875 = ORIENTED_EDGE('',*,*,#876,.T.);
#876 = EDGE_CURVE('',#867,#877,#879,.T.);
#877 = VERTEX_POINT('',#878);
#878 = CARTESIAN_POINT('',(11.93,32.25,9.8));
#879 = LINE('',#880,#881);
#880 = CARTESIAN_POINT('',(11.93,1.95,9.8));
#881 = VECTOR('',#882,1.);
#882 = DIRECTION('',(0.,1.,0.));
#883 = ORIENTED_EDGE('',*,*,#884,.T.);
#884 = EDGE_CURVE('',#877,#885,#887,.T.);
#885 = VERTEX_POINT('',#886);
#886 = CARTESIAN_POINT('',(11.93,32.25,10.7));
#887 = LINE('',#888,#889);
#888 = CARTESIAN_POINT('',(11.93,32.25,9.8));
#889 = VECTOR('',#890,1.);
#890 = DIRECTION('',(0.,0.,1.));
#891 = ORIENTED_EDGE('',*,*,#892,.F.);
#892 = EDGE_CURVE('',#869,#885,#893,.T.);
#893 = LINE('',#894,#895);
#894 = CARTESIAN_POINT('',(11.93,1.95,10.7));
#895 = VECTOR('',#896,1.);
#896 = DIRECTION('',(0.,1.,0.));
#897 = PLANE('',#898);
#898 = AXIS2_PLACEMENT_3D('',#899,#900,#901);
#899 = CARTESIAN_POINT('',(11.93,1.95,9.8));
#900 = DIRECTION('',(1.,0.,0.));
#901 = DIRECTION('',(0.,0.,1.));
#902 = ADVANCED_FACE('',(#903),#919,.F.);
#903 = FACE_BOUND('',#904,.F.);
#904 = EDGE_LOOP('',(#905,#911,#912,#918));
#905 = ORIENTED_EDGE('',*,*,#906,.F.);
#906 = EDGE_CURVE('',#827,#867,#907,.T.);
#907 = LINE('',#908,#909);
#908 = CARTESIAN_POINT('',(-1.77,1.95,9.8));
#909 = VECTOR('',#910,1.);
#910 = DIRECTION('',(1.,0.,0.));
#911 = ORIENTED_EDGE('',*,*,#826,.T.);
#912 = ORIENTED_EDGE('',*,*,#913,.T.);
#913 = EDGE_CURVE('',#829,#869,#914,.T.);
#914 = LINE('',#915,#916);
#915 = CARTESIAN_POINT('',(-1.77,1.95,10.7));
#916 = VECTOR('',#917,1.);
#917 = DIRECTION('',(1.,0.,0.));
#918 = ORIENTED_EDGE('',*,*,#866,.F.);
#919 = PLANE('',#920);
#920 = AXIS2_PLACEMENT_3D('',#921,#922,#923);
#921 = CARTESIAN_POINT('',(-1.77,1.95,9.8));
#922 = DIRECTION('',(0.,1.,0.));
#923 = DIRECTION('',(0.,0.,1.));
#924 = ADVANCED_FACE('',(#925),#941,.T.);
#925 = FACE_BOUND('',#926,.T.);
#926 = EDGE_LOOP('',(#927,#933,#934,#940));
#927 = ORIENTED_EDGE('',*,*,#928,.F.);
#928 = EDGE_CURVE('',#837,#877,#929,.T.);
#929 = LINE('',#930,#931);
#930 = CARTESIAN_POINT('',(-1.77,32.25,9.8));
#931 = VECTOR('',#932,1.);
#932 = DIRECTION('',(1.,0.,0.));
#933 = ORIENTED_EDGE('',*,*,#844,.T.);
#934 = ORIENTED_EDGE('',*,*,#935,.T.);
#935 = EDGE_CURVE('',#845,#885,#936,.T.);
#936 = LINE('',#937,#938);
#937 = CARTESIAN_POINT('',(-1.77,32.25,10.7));
#938 = VECTOR('',#939,1.);
#939 = DIRECTION('',(1.,0.,0.));
#940 = ORIENTED_EDGE('',*,*,#884,.F.);
#941 = PLANE('',#942);
#942 = AXIS2_PLACEMENT_3D('',#943,#944,#945);
#943 = CARTESIAN_POINT('',(-1.77,32.25,9.8));
#944 = DIRECTION('',(0.,1.,0.));
#945 = DIRECTION('',(0.,0.,1.));
#946 = ADVANCED_FACE('',(#947),#953,.F.);
#947 = FACE_BOUND('',#948,.F.);
#948 = EDGE_LOOP('',(#949,#950,#951,#952));
#949 = ORIENTED_EDGE('',*,*,#836,.F.);
#950 = ORIENTED_EDGE('',*,*,#906,.T.);
#951 = ORIENTED_EDGE('',*,*,#876,.T.);
#952 = ORIENTED_EDGE('',*,*,#928,.F.);
#953 = PLANE('',#954);
#954 = AXIS2_PLACEMENT_3D('',#955,#956,#957);
#955 = CARTESIAN_POINT('',(-1.77,1.95,9.8));
#956 = DIRECTION('',(0.,0.,1.));
#957 = DIRECTION('',(1.,0.,0.));
#958 = ADVANCED_FACE('',(#959),#965,.T.);
#959 = FACE_BOUND('',#960,.T.);
#960 = EDGE_LOOP('',(#961,#962,#963,#964));
#961 = ORIENTED_EDGE('',*,*,#852,.F.);
#962 = ORIENTED_EDGE('',*,*,#913,.T.);
#963 = ORIENTED_EDGE('',*,*,#892,.T.);
#964 = ORIENTED_EDGE('',*,*,#935,.F.);
#965 = PLANE('',#966);
#966 = AXIS2_PLACEMENT_3D('',#967,#968,#969);
#967 = CARTESIAN_POINT('',(-1.77,1.95,10.7));
#968 = DIRECTION('',(0.,0.,1.));
#969 = DIRECTION('',(1.,0.,0.));
#970 = MANIFOLD_SOLID_BREP('',#971);
#971 = CLOSED_SHELL('',(#972,#1012,#1052,#1074,#1096,#1108));
#972 = ADVANCED_FACE('',(#973),#1007,.F.);
#973 = FACE_BOUND('',#974,.F.);
#974 = EDGE_LOOP('',(#975,#985,#993,#1001));
#975 = ORIENTED_EDGE('',*,*,#976,.F.);
#976 = EDGE_CURVE('',#977,#979,#981,.T.);
#977 = VERTEX_POINT('',#978);
#978 = CARTESIAN_POINT('',(-0.92,6.25,7.8));
#979 = VERTEX_POINT('',#980);
#980 = CARTESIAN_POINT('',(-0.92,6.25,8.8));
#981 = LINE('',#982,#983);
#982 = CARTESIAN_POINT('',(-0.92,6.25,7.8));
#983 = VECTOR('',#984,1.);
#984 = DIRECTION('',(0.,0.,1.));
#985 = ORIENTED_EDGE('',*,*,#986,.T.);
#986 = EDGE_CURVE('',#977,#987,#989,.T.);
#987 = VERTEX_POINT('',#988);
#988 = CARTESIAN_POINT('',(-0.92,25.25,7.8));
#989 = LINE('',#990,#991);
#990 = CARTESIAN_POINT('',(-0.92,6.25,7.8));
#991 = VECTOR('',#992,1.);
#992 = DIRECTION('',(0.,1.,0.));
#993 = ORIENTED_EDGE('',*,*,#994,.T.);
#994 = EDGE_CURVE('',#987,#995,#997,.T.);
#995 = VERTEX_POINT('',#996);
#996 = CARTESIAN_POINT('',(-0.92,25.25,8.8));
#997 = LINE('',#998,#999);
#998 = CARTESIAN_POINT('',(-0.92,25.25,7.8));
#999 = VECTOR('',#1000,1.);
#1000 = DIRECTION('',(0.,0.,1.));
#1001 = ORIENTED_EDGE('',*,*,#1002,.F.);
#1002 = EDGE_CURVE('',#979,#995,#1003,.T.);
#1003 = LINE('',#1004,#1005);
#1004 = CARTESIAN_POINT('',(-0.92,6.25,8.8));
#1005 = VECTOR('',#1006,1.);
#1006 = DIRECTION('',(0.,1.,0.));
#1007 = PLANE('',#1008);
#1008 = AXIS2_PLACEMENT_3D('',#1009,#1010,#1011);
#1009 = CARTESIAN_POINT('',(-0.92,6.25,7.8));
#1010 = DIRECTION('',(1.,0.,0.));
#1011 = DIRECTION('',(0.,0.,1.));
#1012 = ADVANCED_FACE('',(#1013),#1047,.T.);
#1013 = FACE_BOUND('',#1014,.T.);
#1014 = EDGE_LOOP('',(#1015,#1025,#1033,#1041));
#1015 = ORIENTED_EDGE('',*,*,#1016,.F.);
#1016 = EDGE_CURVE('',#1017,#1019,#1021,.T.);
#1017 = VERTEX_POINT('',#1018);
#1018 = CARTESIAN_POINT('',(11.08,6.25,7.8));
#1019 = VERTEX_POINT('',#1020);
#1020 = CARTESIAN_POINT('',(11.08,6.25,8.8));
#1021 = LINE('',#1022,#1023);
#1022 = CARTESIAN_POINT('',(11.08,6.25,7.8));
#1023 = VECTOR('',#1024,1.);
#1024 = DIRECTION('',(0.,0.,1.));
#1025 = ORIENTED_EDGE('',*,*,#1026,.T.);
#1026 = EDGE_CURVE('',#1017,#1027,#1029,.T.);
#1027 = VERTEX_POINT('',#1028);
#1028 = CARTESIAN_POINT('',(11.08,25.25,7.8));
#1029 = LINE('',#1030,#1031);
#1030 = CARTESIAN_POINT('',(11.08,6.25,7.8));
#1031 = VECTOR('',#1032,1.);
#1032 = DIRECTION('',(0.,1.,0.));
#1033 = ORIENTED_EDGE('',*,*,#1034,.T.);
#1034 = EDGE_CURVE('',#1027,#1035,#1037,.T.);
#1035 = VERTEX_POINT('',#1036);
#1036 = CARTESIAN_POINT('',(11.08,25.25,8.8));
#1037 = LINE('',#1038,#1039);
#1038 = CARTESIAN_POINT('',(11.08,25.25,7.8));
#1039 = VECTOR('',#1040,1.);
#1040 = DIRECTION('',(0.,0.,1.));
#1041 = ORIENTED_EDGE('',*,*,#1042,.F.);
#1042 = EDGE_CURVE('',#1019,#1035,#1043,.T.);
#1043 = LINE('',#1044,#1045);
#1044 = CARTESIAN_POINT('',(11.08,6.25,8.8));
#1045 = VECTOR('',#1046,1.);
#1046 = DIRECTION('',(0.,1.,0.));
#1047 = PLANE('',#1048);
#1048 = AXIS2_PLACEMENT_3D('',#1049,#1050,#1051);
#1049 = CARTESIAN_POINT('',(11.08,6.25,7.8));
#1050 = DIRECTION('',(1.,0.,0.));
#1051 = DIRECTION('',(0.,0.,1.));
#1052 = ADVANCED_FACE('',(#1053),#1069,.F.);
#1053 = FACE_BOUND('',#1054,.F.);
#1054 = EDGE_LOOP('',(#1055,#1061,#1062,#1068));
#1055 = ORIENTED_EDGE('',*,*,#1056,.F.);
#1056 = EDGE_CURVE('',#977,#1017,#1057,.T.);
#1057 = LINE('',#1058,#1059);
#1058 = CARTESIAN_POINT('',(-0.92,6.25,7.8));
#1059 = VECTOR('',#1060,1.);
#1060 = DIRECTION('',(1.,0.,0.));
#1061 = ORIENTED_EDGE('',*,*,#976,.T.);
#1062 = ORIENTED_EDGE('',*,*,#1063,.T.);
#1063 = EDGE_CURVE('',#979,#1019,#1064,.T.);
#1064 = LINE('',#1065,#1066);
#1065 = CARTESIAN_POINT('',(-0.92,6.25,8.8));
#1066 = VECTOR('',#1067,1.);
#1067 = DIRECTION('',(1.,0.,0.));
#1068 = ORIENTED_EDGE('',*,*,#1016,.F.);
#1069 = PLANE('',#1070);
#1070 = AXIS2_PLACEMENT_3D('',#1071,#1072,#1073);
#1071 = CARTESIAN_POINT('',(-0.92,6.25,7.8));
#1072 = DIRECTION('',(0.,1.,0.));
#1073 = DIRECTION('',(0.,0.,1.));
#1074 = ADVANCED_FACE('',(#1075),#1091,.T.);
#1075 = FACE_BOUND('',#1076,.T.);
#1076 = EDGE_LOOP('',(#1077,#1083,#1084,#1090));
#1077 = ORIENTED_EDGE('',*,*,#1078,.F.);
#1078 = EDGE_CURVE('',#987,#1027,#1079,.T.);
#1079 = LINE('',#1080,#1081);
#1080 = CARTESIAN_POINT('',(-0.92,25.25,7.8));
#1081 = VECTOR('',#1082,1.);
#1082 = DIRECTION('',(1.,0.,0.));
#1083 = ORIENTED_EDGE('',*,*,#994,.T.);
#1084 = ORIENTED_EDGE('',*,*,#1085,.T.);
#1085 = EDGE_CURVE('',#995,#1035,#1086,.T.);
#1086 = LINE('',#1087,#1088);
#1087 = CARTESIAN_POINT('',(-0.92,25.25,8.8));
#1088 = VECTOR('',#1089,1.);
#1089 = DIRECTION('',(1.,0.,0.));
#1090 = ORIENTED_EDGE('',*,*,#1034,.F.);
#1091 = PLANE('',#1092);
#1092 = AXIS2_PLACEMENT_3D('',#1093,#1094,#1095);
#1093 = CARTESIAN_POINT('',(-0.92,25.25,7.8));
#1094 = DIRECTION('',(0.,1.,0.));
#1095 = DIRECTION('',(0.,0.,1.));
#1096 = ADVANCED_FACE('',(#1097),#1103,.F.);
#1097 = FACE_BOUND('',#1098,.F.);
#1098 = EDGE_LOOP('',(#1099,#1100,#1101,#1102));
#1099 = ORIENTED_EDGE('',*,*,#986,.F.);
#1100 = ORIENTED_EDGE('',*,*,#1056,.T.);
#1101 = ORIENTED_EDGE('',*,*,#1026,.T.);
#1102 = ORIENTED_EDGE('',*,*,#1078,.F.);
#1103 = PLANE('',#1104);
#1104 = AXIS2_PLACEMENT_3D('',#1105,#1106,#1107);
#1105 = CARTESIAN_POINT('',(-0.92,6.25,7.8));
#1106 = DIRECTION('',(0.,0.,1.));
#1107 = DIRECTION('',(1.,0.,0.));
#1108 = ADVANCED_FACE('',(#1109),#1115,.T.);
#1109 = FACE_BOUND('',#1110,.T.);
#1110 = EDGE_LOOP('',(#1111,#1112,#1113,#1114));
#1111 = ORIENTED_EDGE('',*,*,#1002,.F.);
#1112 = ORIENTED_EDGE('',*,*,#1063,.T.);
#1113 = ORIENTED_EDGE('',*,*,#1042,.T.);
#1114 = ORIENTED_EDGE('',*,*,#1085,.F.);
#1115 = PLANE('',#1116);
#1116 = AXIS2_PLACEMENT_3D('',#1117,#1118,#1119);
#1117 = CARTESIAN_POINT('',(-0.92,6.25,8.8));
#1118 = DIRECTION('',(0.,0.,1.));
#1119 = DIRECTION('',(1.,0.,0.));
#1120 = ( GEOMETRIC_REPRESENTATION_CONTEXT(3) 
GLOBAL_UNCERTAINTY_ASSIGNED_CONTEXT((#1124)) 
GLOBAL_UNIT_ASSIGNED_CONTEXT((#1121,#1122,#1123)) REPRESENTATION_CONTEXT
('Context #1','3D Context with UNIT and UNCERTAINTY') );
#1121 = ( LENGTH_UNIT() NAMED_UNIT(*) SI_UNIT(.MILLI.,.METRE.) );
#1122 = ( NAMED_UNIT(*) PLANE_ANGLE_UNIT() SI_UNIT($,.RADIAN.) );
#1123 = ( NAMED_UNIT(*) SI_UNIT($,.STERADIAN.) SOLID_ANGLE_UNIT() );
#1124 = UNCERTAINTY_MEASURE_WITH_UNIT(LENGTH_MEASURE(1.E-07),#1121,
  'distance_accuracy_value','confusion accuracy');
#1125 = PRODUCT_RELATED_PRODUCT_CATEGORY('part',$,(#7));
#1126 = MECHANICAL_DESIGN_GEOMETRIC_PRESENTATION_REPRESENTATION('',(
    #1127,#1138,#1147,#1155,#1162,#1169,#1176,#1185,#1192,#1199,#1206,
    #1213,#1222,#1229,#1236,#1243,#1250,#1259,#1266,#1273,#1280,#1287,
    #1296,#1303,#1310,#1317,#1324,#1333,#1341,#1348,#1355,#1362,#1369,
    #1376,#1385,#1393,#1400,#1407,#1414,#1421),#1120);
#1127 = STYLED_ITEM('color',(#1128),#15);
#1128 = PRESENTATION_STYLE_ASSIGNMENT((#1129,#1135));
#1129 = SURFACE_STYLE_USAGE(.BOTH.,#1130);
#1130 = SURFACE_SIDE_STYLE('',(#1131));
#1131 = SURFACE_STYLE_FILL_AREA(#1132);
#1132 = FILL_AREA_STYLE('',(#1133));
#1133 = FILL_AREA_STYLE_COLOUR('',#1134);
#1134 = COLOUR_RGB('',4.313725586683E-02,4.705882428269E-02,
  5.490196094709E-02);
#1135 = CURVE_STYLE('',#1136,POSITIVE_LENGTH_MEASURE(0.1),#1137);
#1136 = DRAUGHTING_PRE_DEFINED_CURVE_FONT('continuous');
#1137 = COLOUR_RGB('',9.803921802644E-02,9.803921802644E-02,
  9.803921802644E-02);
#1138 = STYLED_ITEM('color',(#1139),#360);
#1139 = PRESENTATION_STYLE_ASSIGNMENT((#1140,#1145));
#1140 = SURFACE_STYLE_USAGE(.BOTH.,#1141);
#1141 = SURFACE_SIDE_STYLE('',(#1142));
#1142 = SURFACE_STYLE_FILL_AREA(#1143);
#1143 = FILL_AREA_STYLE('',(#1144));
#1144 = FILL_AREA_STYLE_COLOUR('',#1134);
#1145 = CURVE_STYLE('',#1146,POSITIVE_LENGTH_MEASURE(0.1),#1137);
#1146 = DRAUGHTING_PRE_DEFINED_CURVE_FONT('continuous');
#1147 = OVER_RIDING_STYLED_ITEM('overriding color',(#1148),#362,#1138);
#1148 = PRESENTATION_STYLE_ASSIGNMENT((#1149));
#1149 = SURFACE_STYLE_USAGE(.BOTH.,#1150);
#1150 = SURFACE_SIDE_STYLE('',(#1151));
#1151 = SURFACE_STYLE_FILL_AREA(#1152);
#1152 = FILL_AREA_STYLE('',(#1153));
#1153 = FILL_AREA_STYLE_COLOUR('',#1154);
#1154 = COLOUR_RGB('',0.768627468855,0.611764719091,0.278431382231);
#1155 = OVER_RIDING_STYLED_ITEM('overriding color',(#1156),#395,#1138);
#1156 = PRESENTATION_STYLE_ASSIGNMENT((#1157));
#1157 = SURFACE_STYLE_USAGE(.BOTH.,#1158);
#1158 = SURFACE_SIDE_STYLE('',(#1159));
#1159 = SURFACE_STYLE_FILL_AREA(#1160);
#1160 = FILL_AREA_STYLE('',(#1161));
#1161 = FILL_AREA_STYLE_COLOUR('',#1154);
#1162 = OVER_RIDING_STYLED_ITEM('overriding color',(#1163),#415,#1138);
#1163 = PRESENTATION_STYLE_ASSIGNMENT((#1164));
#1164 = SURFACE_STYLE_USAGE(.BOTH.,#1165);
#1165 = SURFACE_SIDE_STYLE('',(#1166));
#1166 = SURFACE_STYLE_FILL_AREA(#1167);
#1167 = FILL_AREA_STYLE('',(#1168));
#1168 = FILL_AREA_STYLE_COLOUR('',#1154);
#1169 = OVER_RIDING_STYLED_ITEM('overriding color',(#1170),#435,#1138);
#1170 = PRESENTATION_STYLE_ASSIGNMENT((#1171));
#1171 = SURFACE_STYLE_USAGE(.BOTH.,#1172);
#1172 = SURFACE_SIDE_STYLE('',(#1173));
#1173 = SURFACE_STYLE_FILL_AREA(#1174);
#1174 = FILL_AREA_STYLE('',(#1175));
#1175 = FILL_AREA_STYLE_COLOUR('',#1154);
#1176 = STYLED_ITEM('color',(#1177),#452);
#1177 = PRESENTATION_STYLE_ASSIGNMENT((#1178,#1183));
#1178 = SURFACE_STYLE_USAGE(.BOTH.,#1179);
#1179 = SURFACE_SIDE_STYLE('',(#1180));
#1180 = SURFACE_STYLE_FILL_AREA(#1181);
#1181 = FILL_AREA_STYLE('',(#1182));
#1182 = FILL_AREA_STYLE_COLOUR('',#1134);
#1183 = CURVE_STYLE('',#1184,POSITIVE_LENGTH_MEASURE(0.1),#1137);
#1184 = DRAUGHTING_PRE_DEFINED_CURVE_FONT('continuous');
#1185 = OVER_RIDING_STYLED_ITEM('overriding color',(#1186),#454,#1176);
#1186 = PRESENTATION_STYLE_ASSIGNMENT((#1187));
#1187 = SURFACE_STYLE_USAGE(.BOTH.,#1188);
#1188 = SURFACE_SIDE_STYLE('',(#1189));
#1189 = SURFACE_STYLE_FILL_AREA(#1190);
#1190 = FILL_AREA_STYLE('',(#1191));
#1191 = FILL_AREA_STYLE_COLOUR('',#1154);
#1192 = OVER_RIDING_STYLED_ITEM('overriding color',(#1193),#487,#1176);
#1193 = PRESENTATION_STYLE_ASSIGNMENT((#1194));
#1194 = SURFACE_STYLE_USAGE(.BOTH.,#1195);
#1195 = SURFACE_SIDE_STYLE('',(#1196));
#1196 = SURFACE_STYLE_FILL_AREA(#1197);
#1197 = FILL_AREA_STYLE('',(#1198));
#1198 = FILL_AREA_STYLE_COLOUR('',#1154);
#1199 = OVER_RIDING_STYLED_ITEM('overriding color',(#1200),#507,#1176);
#1200 = PRESENTATION_STYLE_ASSIGNMENT((#1201));
#1201 = SURFACE_STYLE_USAGE(.BOTH.,#1202);
#1202 = SURFACE_SIDE_STYLE('',(#1203));
#1203 = SURFACE_STYLE_FILL_AREA(#1204);
#1204 = FILL_AREA_STYLE('',(#1205));
#1205 = FILL_AREA_STYLE_COLOUR('',#1154);
#1206 = OVER_RIDING_STYLED_ITEM('overriding color',(#1207),#527,#1176);
#1207 = PRESENTATION_STYLE_ASSIGNMENT((#1208));
#1208 = SURFACE_STYLE_USAGE(.BOTH.,#1209);
#1209 = SURFACE_SIDE_STYLE('',(#1210));
#1210 = SURFACE_STYLE_FILL_AREA(#1211);
#1211 = FILL_AREA_STYLE('',(#1212));
#1212 = FILL_AREA_STYLE_COLOUR('',#1154);
#1213 = STYLED_ITEM('color',(#1214),#544);
#1214 = PRESENTATION_STYLE_ASSIGNMENT((#1215,#1220));
#1215 = SURFACE_STYLE_USAGE(.BOTH.,#1216);
#1216 = SURFACE_SIDE_STYLE('',(#1217));
#1217 = SURFACE_STYLE_FILL_AREA(#1218);
#1218 = FILL_AREA_STYLE('',(#1219));
#1219 = FILL_AREA_STYLE_COLOUR('',#1134);
#1220 = CURVE_STYLE('',#1221,POSITIVE_LENGTH_MEASURE(0.1),#1137);
#1221 = DRAUGHTING_PRE_DEFINED_CURVE_FONT('continuous');
#1222 = OVER_RIDING_STYLED_ITEM('overriding color',(#1223),#546,#1213);
#1223 = PRESENTATION_STYLE_ASSIGNMENT((#1224));
#1224 = SURFACE_STYLE_USAGE(.BOTH.,#1225);
#1225 = SURFACE_SIDE_STYLE('',(#1226));
#1226 = SURFACE_STYLE_FILL_AREA(#1227);
#1227 = FILL_AREA_STYLE('',(#1228));
#1228 = FILL_AREA_STYLE_COLOUR('',#1154);
#1229 = OVER_RIDING_STYLED_ITEM('overriding color',(#1230),#579,#1213);
#1230 = PRESENTATION_STYLE_ASSIGNMENT((#1231));
#1231 = SURFACE_STYLE_USAGE(.BOTH.,#1232);
#1232 = SURFACE_SIDE_STYLE('',(#1233));
#1233 = SURFACE_STYLE_FILL_AREA(#1234);
#1234 = FILL_AREA_STYLE('',(#1235));
#1235 = FILL_AREA_STYLE_COLOUR('',#1154);
#1236 = OVER_RIDING_STYLED_ITEM('overriding color',(#1237),#599,#1213);
#1237 = PRESENTATION_STYLE_ASSIGNMENT((#1238));
#1238 = SURFACE_STYLE_USAGE(.BOTH.,#1239);
#1239 = SURFACE_SIDE_STYLE('',(#1240));
#1240 = SURFACE_STYLE_FILL_AREA(#1241);
#1241 = FILL_AREA_STYLE('',(#1242));
#1242 = FILL_AREA_STYLE_COLOUR('',#1154);
#1243 = OVER_RIDING_STYLED_ITEM('overriding color',(#1244),#619,#1213);
#1244 = PRESENTATION_STYLE_ASSIGNMENT((#1245));
#1245 = SURFACE_STYLE_USAGE(.BOTH.,#1246);
#1246 = SURFACE_SIDE_STYLE('',(#1247));
#1247 = SURFACE_STYLE_FILL_AREA(#1248);
#1248 = FILL_AREA_STYLE('',(#1249));
#1249 = FILL_AREA_STYLE_COLOUR('',#1154);
#1250 = STYLED_ITEM('color',(#1251),#636);
#1251 = PRESENTATION_STYLE_ASSIGNMENT((#1252,#1257));
#1252 = SURFACE_STYLE_USAGE(.BOTH.,#1253);
#1253 = SURFACE_SIDE_STYLE('',(#1254));
#1254 = SURFACE_STYLE_FILL_AREA(#1255);
#1255 = FILL_AREA_STYLE('',(#1256));
#1256 = FILL_AREA_STYLE_COLOUR('',#1134);
#1257 = CURVE_STYLE('',#1258,POSITIVE_LENGTH_MEASURE(0.1),#1137);
#1258 = DRAUGHTING_PRE_DEFINED_CURVE_FONT('continuous');
#1259 = OVER_RIDING_STYLED_ITEM('overriding color',(#1260),#638,#1250);
#1260 = PRESENTATION_STYLE_ASSIGNMENT((#1261));
#1261 = SURFACE_STYLE_USAGE(.BOTH.,#1262);
#1262 = SURFACE_SIDE_STYLE('',(#1263));
#1263 = SURFACE_STYLE_FILL_AREA(#1264);
#1264 = FILL_AREA_STYLE('',(#1265));
#1265 = FILL_AREA_STYLE_COLOUR('',#1154);
#1266 = OVER_RIDING_STYLED_ITEM('overriding color',(#1267),#671,#1250);
#1267 = PRESENTATION_STYLE_ASSIGNMENT((#1268));
#1268 = SURFACE_STYLE_USAGE(.BOTH.,#1269);
#1269 = SURFACE_SIDE_STYLE('',(#1270));
#1270 = SURFACE_STYLE_FILL_AREA(#1271);
#1271 = FILL_AREA_STYLE('',(#1272));
#1272 = FILL_AREA_STYLE_COLOUR('',#1154);
#1273 = OVER_RIDING_STYLED_ITEM('overriding color',(#1274),#691,#1250);
#1274 = PRESENTATION_STYLE_ASSIGNMENT((#1275));
#1275 = SURFACE_STYLE_USAGE(.BOTH.,#1276);
#1276 = SURFACE_SIDE_STYLE('',(#1277));
#1277 = SURFACE_STYLE_FILL_AREA(#1278);
#1278 = FILL_AREA_STYLE('',(#1279));
#1279 = FILL_AREA_STYLE_COLOUR('',#1154);
#1280 = OVER_RIDING_STYLED_ITEM('overriding color',(#1281),#711,#1250);
#1281 = PRESENTATION_STYLE_ASSIGNMENT((#1282));
#1282 = SURFACE_STYLE_USAGE(.BOTH.,#1283);
#1283 = SURFACE_SIDE_STYLE('',(#1284));
#1284 = SURFACE_STYLE_FILL_AREA(#1285);
#1285 = FILL_AREA_STYLE('',(#1286));
#1286 = FILL_AREA_STYLE_COLOUR('',#1154);
#1287 = STYLED_ITEM('color',(#1288),#728);
#1288 = PRESENTATION_STYLE_ASSIGNMENT((#1289,#1294));
#1289 = SURFACE_STYLE_USAGE(.BOTH.,#1290);
#1290 = SURFACE_SIDE_STYLE('',(#1291));
#1291 = SURFACE_STYLE_FILL_AREA(#1292);
#1292 = FILL_AREA_STYLE('',(#1293));
#1293 = FILL_AREA_STYLE_COLOUR('',#1134);
#1294 = CURVE_STYLE('',#1295,POSITIVE_LENGTH_MEASURE(0.1),#1137);
#1295 = DRAUGHTING_PRE_DEFINED_CURVE_FONT('continuous');
#1296 = OVER_RIDING_STYLED_ITEM('overriding color',(#1297),#730,#1287);
#1297 = PRESENTATION_STYLE_ASSIGNMENT((#1298));
#1298 = SURFACE_STYLE_USAGE(.BOTH.,#1299);
#1299 = SURFACE_SIDE_STYLE('',(#1300));
#1300 = SURFACE_STYLE_FILL_AREA(#1301);
#1301 = FILL_AREA_STYLE('',(#1302));
#1302 = FILL_AREA_STYLE_COLOUR('',#1154);
#1303 = OVER_RIDING_STYLED_ITEM('overriding color',(#1304),#763,#1287);
#1304 = PRESENTATION_STYLE_ASSIGNMENT((#1305));
#1305 = SURFACE_STYLE_USAGE(.BOTH.,#1306);
#1306 = SURFACE_SIDE_STYLE('',(#1307));
#1307 = SURFACE_STYLE_FILL_AREA(#1308);
#1308 = FILL_AREA_STYLE('',(#1309));
#1309 = FILL_AREA_STYLE_COLOUR('',#1154);
#1310 = OVER_RIDING_STYLED_ITEM('overriding color',(#1311),#783,#1287);
#1311 = PRESENTATION_STYLE_ASSIGNMENT((#1312));
#1312 = SURFACE_STYLE_USAGE(.BOTH.,#1313);
#1313 = SURFACE_SIDE_STYLE('',(#1314));
#1314 = SURFACE_STYLE_FILL_AREA(#1315);
#1315 = FILL_AREA_STYLE('',(#1316));
#1316 = FILL_AREA_STYLE_COLOUR('',#1154);
#1317 = OVER_RIDING_STYLED_ITEM('overriding color',(#1318),#803,#1287);
#1318 = PRESENTATION_STYLE_ASSIGNMENT((#1319));
#1319 = SURFACE_STYLE_USAGE(.BOTH.,#1320);
#1320 = SURFACE_SIDE_STYLE('',(#1321));
#1321 = SURFACE_STYLE_FILL_AREA(#1322);
#1322 = FILL_AREA_STYLE('',(#1323));
#1323 = FILL_AREA_STYLE_COLOUR('',#1154);
#1324 = STYLED_ITEM('color',(#1325),#820);
#1325 = PRESENTATION_STYLE_ASSIGNMENT((#1326,#1331));
#1326 = SURFACE_STYLE_USAGE(.BOTH.,#1327);
#1327 = SURFACE_SIDE_STYLE('',(#1328));
#1328 = SURFACE_STYLE_FILL_AREA(#1329);
#1329 = FILL_AREA_STYLE('',(#1330));
#1330 = FILL_AREA_STYLE_COLOUR('',#1134);
#1331 = CURVE_STYLE('',#1332,POSITIVE_LENGTH_MEASURE(0.1),#1137);
#1332 = DRAUGHTING_PRE_DEFINED_CURVE_FONT('continuous');
#1333 = OVER_RIDING_STYLED_ITEM('overriding color',(#1334),#822,#1324);
#1334 = PRESENTATION_STYLE_ASSIGNMENT((#1335));
#1335 = SURFACE_STYLE_USAGE(.BOTH.,#1336);
#1336 = SURFACE_SIDE_STYLE('',(#1337));
#1337 = SURFACE_STYLE_FILL_AREA(#1338);
#1338 = FILL_AREA_STYLE('',(#1339));
#1339 = FILL_AREA_STYLE_COLOUR('',#1340);
#1340 = COLOUR_RGB('',0.188235296286,0.219607846375,0.211764712168);
#1341 = OVER_RIDING_STYLED_ITEM('overriding color',(#1342),#862,#1324);
#1342 = PRESENTATION_STYLE_ASSIGNMENT((#1343));
#1343 = SURFACE_STYLE_USAGE(.BOTH.,#1344);
#1344 = SURFACE_SIDE_STYLE('',(#1345));
#1345 = SURFACE_STYLE_FILL_AREA(#1346);
#1346 = FILL_AREA_STYLE('',(#1347));
#1347 = FILL_AREA_STYLE_COLOUR('',#1340);
#1348 = OVER_RIDING_STYLED_ITEM('overriding color',(#1349),#902,#1324);
#1349 = PRESENTATION_STYLE_ASSIGNMENT((#1350));
#1350 = SURFACE_STYLE_USAGE(.BOTH.,#1351);
#1351 = SURFACE_SIDE_STYLE('',(#1352));
#1352 = SURFACE_STYLE_FILL_AREA(#1353);
#1353 = FILL_AREA_STYLE('',(#1354));
#1354 = FILL_AREA_STYLE_COLOUR('',#1340);
#1355 = OVER_RIDING_STYLED_ITEM('overriding color',(#1356),#924,#1324);
#1356 = PRESENTATION_STYLE_ASSIGNMENT((#1357));
#1357 = SURFACE_STYLE_USAGE(.BOTH.,#1358);
#1358 = SURFACE_SIDE_STYLE('',(#1359));
#1359 = SURFACE_STYLE_FILL_AREA(#1360);
#1360 = FILL_AREA_STYLE('',(#1361));
#1361 = FILL_AREA_STYLE_COLOUR('',#1340);
#1362 = OVER_RIDING_STYLED_ITEM('overriding color',(#1363),#946,#1324);
#1363 = PRESENTATION_STYLE_ASSIGNMENT((#1364));
#1364 = SURFACE_STYLE_USAGE(.BOTH.,#1365);
#1365 = SURFACE_SIDE_STYLE('',(#1366));
#1366 = SURFACE_STYLE_FILL_AREA(#1367);
#1367 = FILL_AREA_STYLE('',(#1368));
#1368 = FILL_AREA_STYLE_COLOUR('',#1340);
#1369 = OVER_RIDING_STYLED_ITEM('overriding color',(#1370),#958,#1324);
#1370 = PRESENTATION_STYLE_ASSIGNMENT((#1371));
#1371 = SURFACE_STYLE_USAGE(.BOTH.,#1372);
#1372 = SURFACE_SIDE_STYLE('',(#1373));
#1373 = SURFACE_STYLE_FILL_AREA(#1374);
#1374 = FILL_AREA_STYLE('',(#1375));
#1375 = FILL_AREA_STYLE_COLOUR('',#1340);
#1376 = STYLED_ITEM('color',(#1377),#970);
#1377 = PRESENTATION_STYLE_ASSIGNMENT((#1378,#1383));
#1378 = SURFACE_STYLE_USAGE(.BOTH.,#1379);
#1379 = SURFACE_SIDE_STYLE('',(#1380));
#1380 = SURFACE_STYLE_FILL_AREA(#1381);
#1381 = FILL_AREA_STYLE('',(#1382));
#1382 = FILL_AREA_STYLE_COLOUR('',#1134);
#1383 = CURVE_STYLE('',#1384,POSITIVE_LENGTH_MEASURE(0.1),#1137);
#1384 = DRAUGHTING_PRE_DEFINED_CURVE_FONT('continuous');
#1385 = OVER_RIDING_STYLED_ITEM('overriding color',(#1386),#972,#1376);
#1386 = PRESENTATION_STYLE_ASSIGNMENT((#1387));
#1387 = SURFACE_STYLE_USAGE(.BOTH.,#1388);
#1388 = SURFACE_SIDE_STYLE('',(#1389));
#1389 = SURFACE_STYLE_FILL_AREA(#1390);
#1390 = FILL_AREA_STYLE('',(#1391));
#1391 = FILL_AREA_STYLE_COLOUR('',#1392);
#1392 = COLOUR_RGB('',0.670588257465,0.388235295535,0.121568629232);
#1393 = OVER_RIDING_STYLED_ITEM('overriding color',(#1394),#1012,#1376);
#1394 = PRESENTATION_STYLE_ASSIGNMENT((#1395));
#1395 = SURFACE_STYLE_USAGE(.BOTH.,#1396);
#1396 = SURFACE_SIDE_STYLE('',(#1397));
#1397 = SURFACE_STYLE_FILL_AREA(#1398);
#1398 = FILL_AREA_STYLE('',(#1399));
#1399 = FILL_AREA_STYLE_COLOUR('',#1392);
#1400 = OVER_RIDING_STYLED_ITEM('overriding color',(#1401),#1052,#1376);
#1401 = PRESENTATION_STYLE_ASSIGNMENT((#1402));
#1402 = SURFACE_STYLE_USAGE(.BOTH.,#1403);
#1403 = SURFACE_SIDE_STYLE('',(#1404));
#1404 = SURFACE_STYLE_FILL_AREA(#1405);
#1405 = FILL_AREA_STYLE('',(#1406));
#1406 = FILL_AREA_STYLE_COLOUR('',#1392);
#1407 = OVER_RIDING_STYLED_ITEM('overriding color',(#1408),#1074,#1376);
#1408 = PRESENTATION_STYLE_ASSIGNMENT((#1409));
#1409 = SURFACE_STYLE_USAGE(.BOTH.,#1410);
#1410 = SURFACE_SIDE_STYLE('',(#1411));
#1411 = SURFACE_STYLE_FILL_AREA(#1412);
#1412 = FILL_AREA_STYLE('',(#1413));
#1413 = FILL_AREA_STYLE_COLOUR('',#1392);
#1414 = OVER_RIDING_STYLED_ITEM('overriding color',(#1415),#1096,#1376);
#1415 = PRESENTATION_STYLE_ASSIGNMENT((#1416));
#1416 = SURFACE_STYLE_USAGE(.BOTH.,#1417);
#1417 = SURFACE_SIDE_STYLE('',(#1418));
#1418 = SURFACE_STYLE_FILL_AREA(#1419);
#1419 = FILL_AREA_STYLE('',(#1420));
#1420 = FILL_AREA_STYLE_COLOUR('',#1392);
#1421 = OVER_RIDING_STYLED_ITEM('overriding color',(#1422),#1108,#1376);
#1422 = PRESENTATION_STYLE_ASSIGNMENT((#1423));
#1423 = SURFACE_STYLE_USAGE(.BOTH.,#1424);
#1424 = SURFACE_SIDE_STYLE('',(#1425));
#1425 = SURFACE_STYLE_FILL_AREA(#1426);
#1426 = FILL_AREA_STYLE('',(#1427));
#1427 = FILL_AREA_STYLE_COLOUR('',#1392);
ENDSEC;
END-ISO-10303-21;
