ISO-10303-21;
HEADER;
FILE_DESCRIPTION(('FreeCAD Model'),'2;1');
FILE_NAME('Open CASCADE Shape Model','2026-09-21T19:38:50',('FreeCAD'),(
    'FreeCAD'),'Open CASCADE STEP processor 7.8','FreeCAD','Unknown');
FILE_SCHEMA(('AUTOMOTIVE_DESIGN { 1 0 10303 214 1 1 1 1 }'));
ENDSEC;
DATA;
#1 = APPLICATION_PROTOCOL_DEFINITION('international standard',
  'automotive_design',2000,#2);
#2 = APPLICATION_CONTEXT(
  'core data for automotive mechanical design processes');
#3 = SHAPE_DEFINITION_REPRESENTATION(#4,#10);
#4 = PRODUCT_DEFINITION_SHAPE('','',#5);
#5 = PRODUCT_DEFINITION('design','',#6,#9);
#6 = PRODUCT_DEFINITION_FORMATION('','',#7);
#7 = PRODUCT('Open CASCADE STEP translator 7.8 19',
  'Open CASCADE STEP translator 7.8 19','',(#8));
#8 = PRODUCT_CONTEXT('',#2,'mechanical');
#9 = PRODUCT_DEFINITION_CONTEXT('part definition',#2,'design');
#10 = ADVANCED_BREP_SHAPE_REPRESENTATION('',(#11,#15),#1862);
#11 = AXIS2_PLACEMENT_3D('',#12,#13,#14);
#12 = CARTESIAN_POINT('',(0.,0.,0.));
#13 = DIRECTION('',(0.,0.,1.));
#14 = DIRECTION('',(1.,0.,-0.));
#15 = MANIFOLD_SOLID_BREP('',#16);
#16 = CLOSED_SHELL('',(#17,#57,#285,#320,#496,#513,#530,#549,#566,#583,
    #600,#617,#634,#651,#700,#717,#741,#822,#876,#916,#940,#994,#1017,
    #1041,#1065,#1082,#1107,#1132,#1156,#1173,#1198,#1229,#1253,#1277,
    #1294,#1311,#1328,#1356,#1389,#1413,#1437,#1461,#1485,#1502,#1520,
    #1549,#1566,#1582,#1606,#1635,#1658,#1682,#1706,#1723,#1743,#1763,
    #1816,#1828,#1845));
#17 = ADVANCED_FACE('',(#18),#52,.T.);
#18 = FACE_BOUND('',#19,.T.);
#19 = EDGE_LOOP('',(#20,#30,#38,#46));
#20 = ORIENTED_EDGE('',*,*,#21,.F.);
#21 = EDGE_CURVE('',#22,#24,#26,.T.);
#22 = VERTEX_POINT('',#23);
#23 = CARTESIAN_POINT('',(112.22945834653,-65.8,6.3));
#24 = VERTEX_POINT('',#25);
#25 = CARTESIAN_POINT('',(113.41833461736,-65.8,6.3));
#26 = LINE('',#27,#28);
#27 = CARTESIAN_POINT('',(112.21472917326,-65.8,6.3));
#28 = VECTOR('',#29,1.);
#29 = DIRECTION('',(1.,0.,0.));
#30 = ORIENTED_EDGE('',*,*,#31,.T.);
#31 = EDGE_CURVE('',#22,#32,#34,.T.);
#32 = VERTEX_POINT('',#33);
#33 = CARTESIAN_POINT('',(112.22945834653,-65.8,15.4));
#34 = LINE('',#35,#36);
#35 = CARTESIAN_POINT('',(112.22945834653,-65.8,6.2));
#36 = VECTOR('',#37,1.);
#37 = DIRECTION('',(0.,0.,1.));
#38 = ORIENTED_EDGE('',*,*,#39,.T.);
#39 = EDGE_CURVE('',#32,#40,#42,.T.);
#40 = VERTEX_POINT('',#41);
#41 = CARTESIAN_POINT('',(113.41833461736,-65.8,15.4));
#42 = LINE('',#43,#44);
#43 = CARTESIAN_POINT('',(112.22945834653,-65.8,15.4));
#44 = VECTOR('',#45,1.);
#45 = DIRECTION('',(1.,0.,0.));
#46 = ORIENTED_EDGE('',*,*,#47,.T.);
#47 = EDGE_CURVE('',#40,#24,#48,.T.);
#48 = LINE('',#49,#50);
#49 = CARTESIAN_POINT('',(113.41833461736,-65.8,6.3));
#50 = VECTOR('',#51,1.);
#51 = DIRECTION('',(-0.,-0.,-1.));
#52 = PLANE('',#53);
#53 = AXIS2_PLACEMENT_3D('',#54,#55,#56);
#54 = CARTESIAN_POINT('',(112.22945834653,-65.8,6.2));
#55 = DIRECTION('',(0.,1.,0.));
#56 = DIRECTION('',(1.,0.,0.));
#57 = ADVANCED_FACE('',(#58,#258,#269),#280,.T.);
#58 = FACE_BOUND('',#59,.T.);
#59 = EDGE_LOOP('',(#60,#71,#79,#88,#97,#105,#113,#121,#129,#137,#145,
    #154,#162,#171,#179,#188,#196,#204,#212,#220,#228,#236,#244,#250,
    #251));
#60 = ORIENTED_EDGE('',*,*,#61,.F.);
#61 = EDGE_CURVE('',#62,#64,#66,.T.);
#62 = VERTEX_POINT('',#63);
#63 = CARTESIAN_POINT('',(115.58166538263,-65.8,6.3));
#64 = VERTEX_POINT('',#65);
#65 = CARTESIAN_POINT('',(116.6,-64.,6.3));
#66 = CIRCLE('',#67,2.1);
#67 = AXIS2_PLACEMENT_3D('',#68,#69,#70);
#68 = CARTESIAN_POINT('',(114.5,-64.,6.3));
#69 = DIRECTION('',(0.,0.,1.));
#70 = DIRECTION('',(1.,0.,0.));
#71 = ORIENTED_EDGE('',*,*,#72,.T.);
#72 = EDGE_CURVE('',#62,#73,#75,.T.);
#73 = VERTEX_POINT('',#74);
#74 = CARTESIAN_POINT('',(129.51833461736,-65.8,6.3));
#75 = LINE('',#76,#77);
#76 = CARTESIAN_POINT('',(112.21472917326,-65.8,6.3));
#77 = VECTOR('',#78,1.);
#78 = DIRECTION('',(1.,0.,0.));
#79 = ORIENTED_EDGE('',*,*,#80,.F.);
#80 = EDGE_CURVE('',#81,#73,#83,.T.);
#81 = VERTEX_POINT('',#82);
#82 = CARTESIAN_POINT('',(132.7,-64.,6.3));
#83 = CIRCLE('',#84,2.1);
#84 = AXIS2_PLACEMENT_3D('',#85,#86,#87);
#85 = CARTESIAN_POINT('',(130.6,-64.,6.3));
#86 = DIRECTION('',(0.,0.,1.));
#87 = DIRECTION('',(1.,0.,0.));
#88 = ORIENTED_EDGE('',*,*,#89,.F.);
#89 = EDGE_CURVE('',#90,#81,#92,.T.);
#90 = VERTEX_POINT('',#91);
#91 = CARTESIAN_POINT('',(131.68166538263,-65.8,6.3));
#92 = CIRCLE('',#93,2.1);
#93 = AXIS2_PLACEMENT_3D('',#94,#95,#96);
#94 = CARTESIAN_POINT('',(130.6,-64.,6.3));
#95 = DIRECTION('',(0.,0.,1.));
#96 = DIRECTION('',(1.,0.,0.));
#97 = ORIENTED_EDGE('',*,*,#98,.T.);
#98 = EDGE_CURVE('',#90,#99,#101,.T.);
#99 = VERTEX_POINT('',#100);
#100 = CARTESIAN_POINT('',(133.77054165346,-65.8,6.3));
#101 = LINE('',#102,#103);
#102 = CARTESIAN_POINT('',(112.21472917326,-65.8,6.3));
#103 = VECTOR('',#104,1.);
#104 = DIRECTION('',(1.,0.,0.));
#105 = ORIENTED_EDGE('',*,*,#106,.T.);
#106 = EDGE_CURVE('',#99,#107,#109,.T.);
#107 = VERTEX_POINT('',#108);
#108 = CARTESIAN_POINT('',(133.79862057122,-65.79862057122,6.3));
#109 = LINE('',#110,#111);
#110 = CARTESIAN_POINT('',(124.32466752062,-66.26404603946,6.3));
#111 = VECTOR('',#112,1.);
#112 = DIRECTION('',(0.998795456205,4.906767432757E-02,0.));
#113 = ORIENTED_EDGE('',*,*,#114,.T.);
#114 = EDGE_CURVE('',#107,#115,#117,.T.);
#115 = VERTEX_POINT('',#116);
#116 = CARTESIAN_POINT('',(133.8,-65.77054165346,6.3));
#117 = LINE('',#118,#119);
#118 = CARTESIAN_POINT('',(135.08601563433,-39.59309204348,6.3));
#119 = VECTOR('',#120,1.);
#120 = DIRECTION('',(4.906767432734E-02,0.998795456205,0.));
#121 = ORIENTED_EDGE('',*,*,#122,.T.);
#122 = EDGE_CURVE('',#115,#123,#125,.T.);
#123 = VERTEX_POINT('',#124);
#124 = CARTESIAN_POINT('',(133.8,-61.9,6.3));
#125 = LINE('',#126,#127);
#126 = CARTESIAN_POINT('',(133.8,-38.98527082673,6.3));
#127 = VECTOR('',#128,1.);
#128 = DIRECTION('',(0.,1.,0.));
#129 = ORIENTED_EDGE('',*,*,#130,.T.);
#130 = EDGE_CURVE('',#123,#131,#133,.T.);
#131 = VERTEX_POINT('',#132);
#132 = CARTESIAN_POINT('',(135.,-61.9,6.3));
#133 = LINE('',#134,#135);
#134 = CARTESIAN_POINT('',(120.25,-61.9,6.3));
#135 = VECTOR('',#136,1.);
#136 = DIRECTION('',(1.,0.,0.));
#137 = ORIENTED_EDGE('',*,*,#138,.T.);
#138 = EDGE_CURVE('',#131,#139,#141,.T.);
#139 = VERTEX_POINT('',#140);
#140 = CARTESIAN_POINT('',(135.,-65.8,6.3));
#141 = LINE('',#142,#143);
#142 = CARTESIAN_POINT('',(135.,-12.2,6.3));
#143 = VECTOR('',#144,1.);
#144 = DIRECTION('',(0.,-1.,0.));
#145 = ORIENTED_EDGE('',*,*,#146,.T.);
#146 = EDGE_CURVE('',#139,#147,#149,.T.);
#147 = VERTEX_POINT('',#148);
#148 = CARTESIAN_POINT('',(133.8,-67.,6.3));
#149 = CIRCLE('',#150,1.2);
#150 = AXIS2_PLACEMENT_3D('',#151,#152,#153);
#151 = CARTESIAN_POINT('',(133.8,-65.8,6.3));
#152 = DIRECTION('',(0.,0.,-1.));
#153 = DIRECTION('',(1.,2.368475785867E-14,0.));
#154 = ORIENTED_EDGE('',*,*,#155,.T.);
#155 = EDGE_CURVE('',#147,#156,#158,.T.);
#156 = VERTEX_POINT('',#157);
#157 = CARTESIAN_POINT('',(112.2,-67.,6.3));
#158 = LINE('',#159,#160);
#159 = CARTESIAN_POINT('',(133.8,-67.,6.3));
#160 = VECTOR('',#161,1.);
#161 = DIRECTION('',(-1.,0.,0.));
#162 = ORIENTED_EDGE('',*,*,#163,.T.);
#163 = EDGE_CURVE('',#156,#164,#166,.T.);
#164 = VERTEX_POINT('',#165);
#165 = CARTESIAN_POINT('',(111.,-65.8,6.3));
#166 = CIRCLE('',#167,1.2);
#167 = AXIS2_PLACEMENT_3D('',#168,#169,#170);
#168 = CARTESIAN_POINT('',(112.2,-65.8,6.3));
#169 = DIRECTION('',(0.,0.,-1.));
#170 = DIRECTION('',(0.,-1.,0.));
#171 = ORIENTED_EDGE('',*,*,#172,.T.);
#172 = EDGE_CURVE('',#164,#173,#175,.T.);
#173 = VERTEX_POINT('',#174);
#174 = CARTESIAN_POINT('',(111.,-12.2,6.3));
#175 = LINE('',#176,#177);
#176 = CARTESIAN_POINT('',(111.,-65.8,6.3));
#177 = VECTOR('',#178,1.);
#178 = DIRECTION('',(0.,1.,0.));
#179 = ORIENTED_EDGE('',*,*,#180,.T.);
#180 = EDGE_CURVE('',#173,#181,#183,.T.);
#181 = VERTEX_POINT('',#182);
#182 = CARTESIAN_POINT('',(112.2,-11.,6.3));
#183 = CIRCLE('',#184,1.2);
#184 = AXIS2_PLACEMENT_3D('',#185,#186,#187);
#185 = CARTESIAN_POINT('',(112.2,-12.2,6.3));
#186 = DIRECTION('',(0.,0.,-1.));
#187 = DIRECTION('',(-1.,4.440892098501E-15,0.));
#188 = ORIENTED_EDGE('',*,*,#189,.T.);
#189 = EDGE_CURVE('',#181,#190,#192,.T.);
#190 = VERTEX_POINT('',#191);
#191 = CARTESIAN_POINT('',(116.3,-11.,6.3));
#192 = LINE('',#193,#194);
#193 = CARTESIAN_POINT('',(112.2,-11.,6.3));
#194 = VECTOR('',#195,1.);
#195 = DIRECTION('',(1.,0.,0.));
#196 = ORIENTED_EDGE('',*,*,#197,.T.);
#197 = EDGE_CURVE('',#190,#198,#200,.T.);
#198 = VERTEX_POINT('',#199);
#199 = CARTESIAN_POINT('',(116.3,-12.2,6.3));
#200 = LINE('',#201,#202);
#201 = CARTESIAN_POINT('',(116.3,-16.1,6.3));
#202 = VECTOR('',#203,1.);
#203 = DIRECTION('',(0.,-1.,0.));
#204 = ORIENTED_EDGE('',*,*,#205,.T.);
#205 = EDGE_CURVE('',#198,#206,#208,.T.);
#206 = VERTEX_POINT('',#207);
#207 = CARTESIAN_POINT('',(112.22945834653,-12.2,6.3));
#208 = LINE('',#209,#210);
#209 = CARTESIAN_POINT('',(122.98527082673,-12.2,6.3));
#210 = VECTOR('',#211,1.);
#211 = DIRECTION('',(-1.,-0.,-0.));
#212 = ORIENTED_EDGE('',*,*,#213,.T.);
#213 = EDGE_CURVE('',#206,#214,#216,.T.);
#214 = VERTEX_POINT('',#215);
#215 = CARTESIAN_POINT('',(112.20137942877,-12.20137942877,6.3));
#216 = LINE('',#217,#218);
#217 = CARTESIAN_POINT('',(112.21476463576,-12.20072185572,6.3));
#218 = VECTOR('',#219,1.);
#219 = DIRECTION('',(-0.998795456205,-4.906767432741E-02,-0.));
#220 = ORIENTED_EDGE('',*,*,#221,.T.);
#221 = EDGE_CURVE('',#214,#222,#224,.T.);
#222 = VERTEX_POINT('',#223);
#223 = CARTESIAN_POINT('',(112.2,-12.22945834653,6.3));
#224 = LINE('',#225,#226);
#225 = CARTESIAN_POINT('',(112.2014115701,-12.20072517688,6.3));
#226 = VECTOR('',#227,1.);
#227 = DIRECTION('',(-4.906767432758E-02,-0.998795456205,-0.));
#228 = ORIENTED_EDGE('',*,*,#229,.T.);
#229 = EDGE_CURVE('',#222,#230,#232,.T.);
#230 = VERTEX_POINT('',#231);
#231 = CARTESIAN_POINT('',(112.2,-65.77054165346,6.3));
#232 = LINE('',#233,#234);
#233 = CARTESIAN_POINT('',(112.2,-12.21472917326,6.3));
#234 = VECTOR('',#235,1.);
#235 = DIRECTION('',(0.,-1.,0.));
#236 = ORIENTED_EDGE('',*,*,#237,.T.);
#237 = EDGE_CURVE('',#230,#238,#240,.T.);
#238 = VERTEX_POINT('',#239);
#239 = CARTESIAN_POINT('',(112.20137942877,-65.79862057122,6.3));
#240 = LINE('',#241,#242);
#241 = CARTESIAN_POINT('',(110.8872921753,-39.04976002683,6.3));
#242 = VECTOR('',#243,1.);
#243 = DIRECTION('',(4.906767432757E-02,-0.998795456205,0.));
#244 = ORIENTED_EDGE('',*,*,#245,.T.);
#245 = EDGE_CURVE('',#238,#22,#246,.T.);
#246 = LINE('',#247,#248);
#247 = CARTESIAN_POINT('',(110.88729549646,-65.73406376729,6.3));
#248 = VECTOR('',#249,1.);
#249 = DIRECTION('',(0.998795456205,-4.906767432757E-02,0.));
#250 = ORIENTED_EDGE('',*,*,#21,.T.);
#251 = ORIENTED_EDGE('',*,*,#252,.F.);
#252 = EDGE_CURVE('',#64,#24,#253,.T.);
#253 = CIRCLE('',#254,2.1);
#254 = AXIS2_PLACEMENT_3D('',#255,#256,#257);
#255 = CARTESIAN_POINT('',(114.5,-64.,6.3));
#256 = DIRECTION('',(0.,0.,1.));
#257 = DIRECTION('',(1.,0.,0.));
#258 = FACE_BOUND('',#259,.T.);
#259 = EDGE_LOOP('',(#260));
#260 = ORIENTED_EDGE('',*,*,#261,.F.);
#261 = EDGE_CURVE('',#262,#262,#264,.T.);
#262 = VERTEX_POINT('',#263);
#263 = CARTESIAN_POINT('',(131.75,-64.,6.3));
#264 = CIRCLE('',#265,1.15);
#265 = AXIS2_PLACEMENT_3D('',#266,#267,#268);
#266 = CARTESIAN_POINT('',(130.6,-64.,6.3));
#267 = DIRECTION('',(0.,0.,-1.));
#268 = DIRECTION('',(1.,0.,0.));
#269 = FACE_BOUND('',#270,.T.);
#270 = EDGE_LOOP('',(#271));
#271 = ORIENTED_EDGE('',*,*,#272,.F.);
#272 = EDGE_CURVE('',#273,#273,#275,.T.);
#273 = VERTEX_POINT('',#274);
#274 = CARTESIAN_POINT('',(115.65,-64.,6.3));
#275 = CIRCLE('',#276,1.15);
#276 = AXIS2_PLACEMENT_3D('',#277,#278,#279);
#277 = CARTESIAN_POINT('',(114.5,-64.,6.3));
#278 = DIRECTION('',(0.,0.,-1.));
#279 = DIRECTION('',(1.,0.,0.));
#280 = PLANE('',#281);
#281 = AXIS2_PLACEMENT_3D('',#282,#283,#284);
#282 = CARTESIAN_POINT('',(116.56241417424,-47.3349810374,6.3));
#283 = DIRECTION('',(-0.,-0.,-1.));
#284 = DIRECTION('',(-1.,0.,0.));
#285 = ADVANCED_FACE('',(#286),#315,.T.);
#286 = FACE_BOUND('',#287,.F.);
#287 = EDGE_LOOP('',(#288,#296,#305,#312,#313,#314));
#288 = ORIENTED_EDGE('',*,*,#289,.F.);
#289 = EDGE_CURVE('',#290,#62,#292,.T.);
#290 = VERTEX_POINT('',#291);
#291 = CARTESIAN_POINT('',(115.58166538263,-65.8,15.4));
#292 = LINE('',#293,#294);
#293 = CARTESIAN_POINT('',(115.58166538263,-65.8,6.3));
#294 = VECTOR('',#295,1.);
#295 = DIRECTION('',(-0.,-0.,-1.));
#296 = ORIENTED_EDGE('',*,*,#297,.F.);
#297 = EDGE_CURVE('',#298,#290,#300,.T.);
#298 = VERTEX_POINT('',#299);
#299 = CARTESIAN_POINT('',(116.6,-64.,15.4));
#300 = CIRCLE('',#301,2.1);
#301 = AXIS2_PLACEMENT_3D('',#302,#303,#304);
#302 = CARTESIAN_POINT('',(114.5,-64.,15.4));
#303 = DIRECTION('',(0.,0.,-1.));
#304 = DIRECTION('',(1.,0.,0.));
#305 = ORIENTED_EDGE('',*,*,#306,.F.);
#306 = EDGE_CURVE('',#40,#298,#307,.T.);
#307 = CIRCLE('',#308,2.1);
#308 = AXIS2_PLACEMENT_3D('',#309,#310,#311);
#309 = CARTESIAN_POINT('',(114.5,-64.,15.4));
#310 = DIRECTION('',(0.,0.,-1.));
#311 = DIRECTION('',(1.,0.,0.));
#312 = ORIENTED_EDGE('',*,*,#47,.T.);
#313 = ORIENTED_EDGE('',*,*,#252,.F.);
#314 = ORIENTED_EDGE('',*,*,#61,.F.);
#315 = CYLINDRICAL_SURFACE('',#316,2.1);
#316 = AXIS2_PLACEMENT_3D('',#317,#318,#319);
#317 = CARTESIAN_POINT('',(114.5,-64.,6.3));
#318 = DIRECTION('',(-0.,-0.,-1.));
#319 = DIRECTION('',(1.,0.,0.));
#320 = ADVANCED_FACE('',(#321,#446,#457),#491,.F.);
#321 = FACE_BOUND('',#322,.F.);
#322 = EDGE_LOOP('',(#323,#333,#341,#349,#357,#363,#364,#365,#366,#374,
    #383,#392,#400,#408,#416,#424,#432,#440));
#323 = ORIENTED_EDGE('',*,*,#324,.T.);
#324 = EDGE_CURVE('',#325,#327,#329,.T.);
#325 = VERTEX_POINT('',#326);
#326 = CARTESIAN_POINT('',(112.22945834653,-12.2,15.4));
#327 = VERTEX_POINT('',#328);
#328 = CARTESIAN_POINT('',(112.20137942877,-12.20137942877,15.4));
#329 = LINE('',#330,#331);
#330 = CARTESIAN_POINT('',(112.22945834653,-12.2,15.4));
#331 = VECTOR('',#332,1.);
#332 = DIRECTION('',(-0.998795456205,-4.906767432741E-02,0.));
#333 = ORIENTED_EDGE('',*,*,#334,.T.);
#334 = EDGE_CURVE('',#327,#335,#337,.T.);
#335 = VERTEX_POINT('',#336);
#336 = CARTESIAN_POINT('',(112.2,-12.22945834653,15.4));
#337 = LINE('',#338,#339);
#338 = CARTESIAN_POINT('',(112.20137942877,-12.20137942877,15.4));
#339 = VECTOR('',#340,1.);
#340 = DIRECTION('',(-4.906767432758E-02,-0.998795456205,0.));
#341 = ORIENTED_EDGE('',*,*,#342,.T.);
#342 = EDGE_CURVE('',#335,#343,#345,.T.);
#343 = VERTEX_POINT('',#344);
#344 = CARTESIAN_POINT('',(112.2,-65.77054165346,15.4));
#345 = LINE('',#346,#347);
#346 = CARTESIAN_POINT('',(112.2,-12.22945834653,15.4));
#347 = VECTOR('',#348,1.);
#348 = DIRECTION('',(0.,-1.,0.));
#349 = ORIENTED_EDGE('',*,*,#350,.T.);
#350 = EDGE_CURVE('',#343,#351,#353,.T.);
#351 = VERTEX_POINT('',#352);
#352 = CARTESIAN_POINT('',(112.20137942877,-65.79862057122,15.4));
#353 = LINE('',#354,#355);
#354 = CARTESIAN_POINT('',(112.2,-65.77054165346,15.4));
#355 = VECTOR('',#356,1.);
#356 = DIRECTION('',(4.906767432757E-02,-0.998795456205,0.));
#357 = ORIENTED_EDGE('',*,*,#358,.T.);
#358 = EDGE_CURVE('',#351,#32,#359,.T.);
#359 = LINE('',#360,#361);
#360 = CARTESIAN_POINT('',(112.20137942877,-65.79862057122,15.4));
#361 = VECTOR('',#362,1.);
#362 = DIRECTION('',(0.998795456205,-4.906767432757E-02,0.));
#363 = ORIENTED_EDGE('',*,*,#39,.T.);
#364 = ORIENTED_EDGE('',*,*,#306,.T.);
#365 = ORIENTED_EDGE('',*,*,#297,.T.);
#366 = ORIENTED_EDGE('',*,*,#367,.T.);
#367 = EDGE_CURVE('',#290,#368,#370,.T.);
#368 = VERTEX_POINT('',#369);
#369 = CARTESIAN_POINT('',(129.51833461736,-65.8,15.4));
#370 = LINE('',#371,#372);
#371 = CARTESIAN_POINT('',(112.22945834653,-65.8,15.4));
#372 = VECTOR('',#373,1.);
#373 = DIRECTION('',(1.,0.,0.));
#374 = ORIENTED_EDGE('',*,*,#375,.T.);
#375 = EDGE_CURVE('',#368,#376,#378,.T.);
#376 = VERTEX_POINT('',#377);
#377 = CARTESIAN_POINT('',(132.7,-64.,15.4));
#378 = CIRCLE('',#379,2.1);
#379 = AXIS2_PLACEMENT_3D('',#380,#381,#382);
#380 = CARTESIAN_POINT('',(130.6,-64.,15.4));
#381 = DIRECTION('',(0.,0.,-1.));
#382 = DIRECTION('',(1.,0.,0.));
#383 = ORIENTED_EDGE('',*,*,#384,.T.);
#384 = EDGE_CURVE('',#376,#385,#387,.T.);
#385 = VERTEX_POINT('',#386);
#386 = CARTESIAN_POINT('',(131.68166538264,-65.8,15.4));
#387 = CIRCLE('',#388,2.1);
#388 = AXIS2_PLACEMENT_3D('',#389,#390,#391);
#389 = CARTESIAN_POINT('',(130.6,-64.,15.4));
#390 = DIRECTION('',(0.,0.,-1.));
#391 = DIRECTION('',(1.,0.,0.));
#392 = ORIENTED_EDGE('',*,*,#393,.T.);
#393 = EDGE_CURVE('',#385,#394,#396,.T.);
#394 = VERTEX_POINT('',#395);
#395 = CARTESIAN_POINT('',(133.77054165346,-65.8,15.4));
#396 = LINE('',#397,#398);
#397 = CARTESIAN_POINT('',(112.22945834653,-65.8,15.4));
#398 = VECTOR('',#399,1.);
#399 = DIRECTION('',(1.,0.,0.));
#400 = ORIENTED_EDGE('',*,*,#401,.T.);
#401 = EDGE_CURVE('',#394,#402,#404,.T.);
#402 = VERTEX_POINT('',#403);
#403 = CARTESIAN_POINT('',(133.79862057122,-65.79862057122,15.4));
#404 = LINE('',#405,#406);
#405 = CARTESIAN_POINT('',(133.77054165346,-65.8,15.4));
#406 = VECTOR('',#407,1.);
#407 = DIRECTION('',(0.998795456205,4.906767432757E-02,0.));
#408 = ORIENTED_EDGE('',*,*,#409,.T.);
#409 = EDGE_CURVE('',#402,#410,#412,.T.);
#410 = VERTEX_POINT('',#411);
#411 = CARTESIAN_POINT('',(133.8,-65.77054165346,15.4));
#412 = LINE('',#413,#414);
#413 = CARTESIAN_POINT('',(133.79862057122,-65.79862057122,15.4));
#414 = VECTOR('',#415,1.);
#415 = DIRECTION('',(4.906767432734E-02,0.998795456205,0.));
#416 = ORIENTED_EDGE('',*,*,#417,.T.);
#417 = EDGE_CURVE('',#410,#418,#420,.T.);
#418 = VERTEX_POINT('',#419);
#419 = CARTESIAN_POINT('',(133.8,-12.22945834653,15.4));
#420 = LINE('',#421,#422);
#421 = CARTESIAN_POINT('',(133.8,-65.77054165346,15.4));
#422 = VECTOR('',#423,1.);
#423 = DIRECTION('',(0.,1.,0.));
#424 = ORIENTED_EDGE('',*,*,#425,.T.);
#425 = EDGE_CURVE('',#418,#426,#428,.T.);
#426 = VERTEX_POINT('',#427);
#427 = CARTESIAN_POINT('',(133.79862057122,-12.20137942877,15.4));
#428 = LINE('',#429,#430);
#429 = CARTESIAN_POINT('',(133.8,-12.22945834653,15.4));
#430 = VECTOR('',#431,1.);
#431 = DIRECTION('',(-4.906767432733E-02,0.998795456205,0.));
#432 = ORIENTED_EDGE('',*,*,#433,.T.);
#433 = EDGE_CURVE('',#426,#434,#436,.T.);
#434 = VERTEX_POINT('',#435);
#435 = CARTESIAN_POINT('',(133.77054165346,-12.2,15.4));
#436 = LINE('',#437,#438);
#437 = CARTESIAN_POINT('',(133.79862057122,-12.20137942877,15.4));
#438 = VECTOR('',#439,1.);
#439 = DIRECTION('',(-0.998795456205,4.906767432739E-02,0.));
#440 = ORIENTED_EDGE('',*,*,#441,.T.);
#441 = EDGE_CURVE('',#434,#325,#442,.T.);
#442 = LINE('',#443,#444);
#443 = CARTESIAN_POINT('',(133.77054165346,-12.2,15.4));
#444 = VECTOR('',#445,1.);
#445 = DIRECTION('',(-1.,0.,0.));
#446 = FACE_BOUND('',#447,.F.);
#447 = EDGE_LOOP('',(#448));
#448 = ORIENTED_EDGE('',*,*,#449,.T.);
#449 = EDGE_CURVE('',#450,#450,#452,.T.);
#450 = VERTEX_POINT('',#451);
#451 = CARTESIAN_POINT('',(124.4,-59.5,15.4));
#452 = CIRCLE('',#453,1.4);
#453 = AXIS2_PLACEMENT_3D('',#454,#455,#456);
#454 = CARTESIAN_POINT('',(123.,-59.5,15.4));
#455 = DIRECTION('',(0.,0.,-1.));
#456 = DIRECTION('',(1.,0.,0.));
#457 = FACE_BOUND('',#458,.F.);
#458 = EDGE_LOOP('',(#459,#469,#477,#485));
#459 = ORIENTED_EDGE('',*,*,#460,.T.);
#460 = EDGE_CURVE('',#461,#463,#465,.T.);
#461 = VERTEX_POINT('',#462);
#462 = CARTESIAN_POINT('',(130.05,-49.35,15.4));
#463 = VERTEX_POINT('',#464);
#464 = CARTESIAN_POINT('',(115.55,-49.35,15.4));
#465 = LINE('',#466,#467);
#466 = CARTESIAN_POINT('',(119.275,-49.35,15.4));
#467 = VECTOR('',#468,1.);
#468 = DIRECTION('',(-1.,0.,0.));
#469 = ORIENTED_EDGE('',*,*,#470,.T.);
#470 = EDGE_CURVE('',#463,#471,#473,.T.);
#471 = VERTEX_POINT('',#472);
#472 = CARTESIAN_POINT('',(115.55,-18.25,15.4));
#473 = LINE('',#474,#475);
#474 = CARTESIAN_POINT('',(115.55,-44.175,15.4));
#475 = VECTOR('',#476,1.);
#476 = DIRECTION('',(0.,1.,0.));
#477 = ORIENTED_EDGE('',*,*,#478,.F.);
#478 = EDGE_CURVE('',#479,#471,#481,.T.);
#479 = VERTEX_POINT('',#480);
#480 = CARTESIAN_POINT('',(130.05,-18.25,15.4));
#481 = LINE('',#482,#483);
#482 = CARTESIAN_POINT('',(119.275,-18.25,15.4));
#483 = VECTOR('',#484,1.);
#484 = DIRECTION('',(-1.,0.,0.));
#485 = ORIENTED_EDGE('',*,*,#486,.F.);
#486 = EDGE_CURVE('',#461,#479,#487,.T.);
#487 = LINE('',#488,#489);
#488 = CARTESIAN_POINT('',(130.05,-44.175,15.4));
#489 = VECTOR('',#490,1.);
#490 = DIRECTION('',(0.,1.,0.));
#491 = PLANE('',#492);
#492 = AXIS2_PLACEMENT_3D('',#493,#494,#495);
#493 = CARTESIAN_POINT('',(123.,-39.,15.4));
#494 = DIRECTION('',(0.,0.,1.));
#495 = DIRECTION('',(1.,0.,0.));
#496 = ADVANCED_FACE('',(#497),#508,.T.);
#497 = FACE_BOUND('',#498,.T.);
#498 = EDGE_LOOP('',(#499,#500,#506,#507));
#499 = ORIENTED_EDGE('',*,*,#245,.F.);
#500 = ORIENTED_EDGE('',*,*,#501,.T.);
#501 = EDGE_CURVE('',#238,#351,#502,.T.);
#502 = LINE('',#503,#504);
#503 = CARTESIAN_POINT('',(112.20137942877,-65.79862057122,6.2));
#504 = VECTOR('',#505,1.);
#505 = DIRECTION('',(0.,0.,1.));
#506 = ORIENTED_EDGE('',*,*,#358,.T.);
#507 = ORIENTED_EDGE('',*,*,#31,.F.);
#508 = PLANE('',#509);
#509 = AXIS2_PLACEMENT_3D('',#510,#511,#512);
#510 = CARTESIAN_POINT('',(112.20137942877,-65.79862057122,6.2));
#511 = DIRECTION('',(4.906767432757E-02,0.998795456205,0.));
#512 = DIRECTION('',(0.998795456205,-4.906767432757E-02,0.));
#513 = ADVANCED_FACE('',(#514),#525,.T.);
#514 = FACE_BOUND('',#515,.T.);
#515 = EDGE_LOOP('',(#516,#517,#518,#519));
#516 = ORIENTED_EDGE('',*,*,#72,.F.);
#517 = ORIENTED_EDGE('',*,*,#289,.F.);
#518 = ORIENTED_EDGE('',*,*,#367,.T.);
#519 = ORIENTED_EDGE('',*,*,#520,.T.);
#520 = EDGE_CURVE('',#368,#73,#521,.T.);
#521 = LINE('',#522,#523);
#522 = CARTESIAN_POINT('',(129.51833461736,-65.8,6.3));
#523 = VECTOR('',#524,1.);
#524 = DIRECTION('',(-0.,-0.,-1.));
#525 = PLANE('',#526);
#526 = AXIS2_PLACEMENT_3D('',#527,#528,#529);
#527 = CARTESIAN_POINT('',(112.22945834653,-65.8,6.2));
#528 = DIRECTION('',(0.,1.,0.));
#529 = DIRECTION('',(1.,0.,0.));
#530 = ADVANCED_FACE('',(#531),#544,.T.);
#531 = FACE_BOUND('',#532,.F.);
#532 = EDGE_LOOP('',(#533,#539,#540,#541,#542,#543));
#533 = ORIENTED_EDGE('',*,*,#534,.F.);
#534 = EDGE_CURVE('',#385,#90,#535,.T.);
#535 = LINE('',#536,#537);
#536 = CARTESIAN_POINT('',(131.68166538263,-65.8,6.3));
#537 = VECTOR('',#538,1.);
#538 = DIRECTION('',(-0.,-0.,-1.));
#539 = ORIENTED_EDGE('',*,*,#384,.F.);
#540 = ORIENTED_EDGE('',*,*,#375,.F.);
#541 = ORIENTED_EDGE('',*,*,#520,.T.);
#542 = ORIENTED_EDGE('',*,*,#80,.F.);
#543 = ORIENTED_EDGE('',*,*,#89,.F.);
#544 = CYLINDRICAL_SURFACE('',#545,2.1);
#545 = AXIS2_PLACEMENT_3D('',#546,#547,#548);
#546 = CARTESIAN_POINT('',(130.6,-64.,6.3));
#547 = DIRECTION('',(-0.,-0.,-1.));
#548 = DIRECTION('',(1.,0.,0.));
#549 = ADVANCED_FACE('',(#550),#561,.T.);
#550 = FACE_BOUND('',#551,.T.);
#551 = EDGE_LOOP('',(#552,#553,#554,#555));
#552 = ORIENTED_EDGE('',*,*,#98,.F.);
#553 = ORIENTED_EDGE('',*,*,#534,.F.);
#554 = ORIENTED_EDGE('',*,*,#393,.T.);
#555 = ORIENTED_EDGE('',*,*,#556,.F.);
#556 = EDGE_CURVE('',#99,#394,#557,.T.);
#557 = LINE('',#558,#559);
#558 = CARTESIAN_POINT('',(133.77054165346,-65.8,6.2));
#559 = VECTOR('',#560,1.);
#560 = DIRECTION('',(0.,0.,1.));
#561 = PLANE('',#562);
#562 = AXIS2_PLACEMENT_3D('',#563,#564,#565);
#563 = CARTESIAN_POINT('',(112.22945834653,-65.8,6.2));
#564 = DIRECTION('',(0.,1.,0.));
#565 = DIRECTION('',(1.,0.,0.));
#566 = ADVANCED_FACE('',(#567),#578,.T.);
#567 = FACE_BOUND('',#568,.T.);
#568 = EDGE_LOOP('',(#569,#570,#576,#577));
#569 = ORIENTED_EDGE('',*,*,#237,.F.);
#570 = ORIENTED_EDGE('',*,*,#571,.T.);
#571 = EDGE_CURVE('',#230,#343,#572,.T.);
#572 = LINE('',#573,#574);
#573 = CARTESIAN_POINT('',(112.2,-65.77054165346,6.2));
#574 = VECTOR('',#575,1.);
#575 = DIRECTION('',(0.,0.,1.));
#576 = ORIENTED_EDGE('',*,*,#350,.T.);
#577 = ORIENTED_EDGE('',*,*,#501,.F.);
#578 = PLANE('',#579);
#579 = AXIS2_PLACEMENT_3D('',#580,#581,#582);
#580 = CARTESIAN_POINT('',(112.2,-65.77054165346,6.2));
#581 = DIRECTION('',(0.998795456205,4.906767432757E-02,0.));
#582 = DIRECTION('',(4.906767432757E-02,-0.998795456205,0.));
#583 = ADVANCED_FACE('',(#584),#595,.T.);
#584 = FACE_BOUND('',#585,.T.);
#585 = EDGE_LOOP('',(#586,#587,#588,#589));
#586 = ORIENTED_EDGE('',*,*,#106,.F.);
#587 = ORIENTED_EDGE('',*,*,#556,.T.);
#588 = ORIENTED_EDGE('',*,*,#401,.T.);
#589 = ORIENTED_EDGE('',*,*,#590,.F.);
#590 = EDGE_CURVE('',#107,#402,#591,.T.);
#591 = LINE('',#592,#593);
#592 = CARTESIAN_POINT('',(133.79862057122,-65.79862057122,6.2));
#593 = VECTOR('',#594,1.);
#594 = DIRECTION('',(0.,0.,1.));
#595 = PLANE('',#596);
#596 = AXIS2_PLACEMENT_3D('',#597,#598,#599);
#597 = CARTESIAN_POINT('',(133.77054165346,-65.8,6.2));
#598 = DIRECTION('',(-4.906767432757E-02,0.998795456205,0.));
#599 = DIRECTION('',(0.998795456205,4.906767432757E-02,0.));
#600 = ADVANCED_FACE('',(#601),#612,.T.);
#601 = FACE_BOUND('',#602,.T.);
#602 = EDGE_LOOP('',(#603,#604,#610,#611));
#603 = ORIENTED_EDGE('',*,*,#229,.F.);
#604 = ORIENTED_EDGE('',*,*,#605,.T.);
#605 = EDGE_CURVE('',#222,#335,#606,.T.);
#606 = LINE('',#607,#608);
#607 = CARTESIAN_POINT('',(112.2,-12.22945834653,6.2));
#608 = VECTOR('',#609,1.);
#609 = DIRECTION('',(0.,0.,1.));
#610 = ORIENTED_EDGE('',*,*,#342,.T.);
#611 = ORIENTED_EDGE('',*,*,#571,.F.);
#612 = PLANE('',#613);
#613 = AXIS2_PLACEMENT_3D('',#614,#615,#616);
#614 = CARTESIAN_POINT('',(112.2,-12.22945834653,6.2));
#615 = DIRECTION('',(1.,0.,0.));
#616 = DIRECTION('',(0.,-1.,0.));
#617 = ADVANCED_FACE('',(#618),#629,.T.);
#618 = FACE_BOUND('',#619,.T.);
#619 = EDGE_LOOP('',(#620,#621,#622,#623));
#620 = ORIENTED_EDGE('',*,*,#114,.F.);
#621 = ORIENTED_EDGE('',*,*,#590,.T.);
#622 = ORIENTED_EDGE('',*,*,#409,.T.);
#623 = ORIENTED_EDGE('',*,*,#624,.F.);
#624 = EDGE_CURVE('',#115,#410,#625,.T.);
#625 = LINE('',#626,#627);
#626 = CARTESIAN_POINT('',(133.8,-65.77054165346,6.2));
#627 = VECTOR('',#628,1.);
#628 = DIRECTION('',(0.,0.,1.));
#629 = PLANE('',#630);
#630 = AXIS2_PLACEMENT_3D('',#631,#632,#633);
#631 = CARTESIAN_POINT('',(133.79862057122,-65.79862057122,6.2));
#632 = DIRECTION('',(-0.998795456205,4.906767432734E-02,0.));
#633 = DIRECTION('',(4.906767432734E-02,0.998795456205,0.));
#634 = ADVANCED_FACE('',(#635),#646,.T.);
#635 = FACE_BOUND('',#636,.T.);
#636 = EDGE_LOOP('',(#637,#638,#644,#645));
#637 = ORIENTED_EDGE('',*,*,#221,.F.);
#638 = ORIENTED_EDGE('',*,*,#639,.T.);
#639 = EDGE_CURVE('',#214,#327,#640,.T.);
#640 = LINE('',#641,#642);
#641 = CARTESIAN_POINT('',(112.20137942877,-12.20137942877,6.2));
#642 = VECTOR('',#643,1.);
#643 = DIRECTION('',(0.,0.,1.));
#644 = ORIENTED_EDGE('',*,*,#334,.T.);
#645 = ORIENTED_EDGE('',*,*,#605,.F.);
#646 = PLANE('',#647);
#647 = AXIS2_PLACEMENT_3D('',#648,#649,#650);
#648 = CARTESIAN_POINT('',(112.20137942877,-12.20137942877,6.2));
#649 = DIRECTION('',(0.998795456205,-4.906767432758E-02,0.));
#650 = DIRECTION('',(-4.906767432758E-02,-0.998795456205,0.));
#651 = ADVANCED_FACE('',(#652),#695,.T.);
#652 = FACE_BOUND('',#653,.T.);
#653 = EDGE_LOOP('',(#654,#655,#656,#657,#665,#673,#681,#689));
#654 = ORIENTED_EDGE('',*,*,#122,.F.);
#655 = ORIENTED_EDGE('',*,*,#624,.T.);
#656 = ORIENTED_EDGE('',*,*,#417,.T.);
#657 = ORIENTED_EDGE('',*,*,#658,.F.);
#658 = EDGE_CURVE('',#659,#418,#661,.T.);
#659 = VERTEX_POINT('',#660);
#660 = CARTESIAN_POINT('',(133.8,-12.22945834653,6.3));
#661 = LINE('',#662,#663);
#662 = CARTESIAN_POINT('',(133.8,-12.22945834653,6.2));
#663 = VECTOR('',#664,1.);
#664 = DIRECTION('',(0.,0.,1.));
#665 = ORIENTED_EDGE('',*,*,#666,.F.);
#666 = EDGE_CURVE('',#667,#659,#669,.T.);
#667 = VERTEX_POINT('',#668);
#668 = CARTESIAN_POINT('',(133.8,-53.4,6.3));
#669 = LINE('',#670,#671);
#670 = CARTESIAN_POINT('',(133.8,-38.98527082673,6.3));
#671 = VECTOR('',#672,1.);
#672 = DIRECTION('',(0.,1.,0.));
#673 = ORIENTED_EDGE('',*,*,#674,.F.);
#674 = EDGE_CURVE('',#675,#667,#677,.T.);
#675 = VERTEX_POINT('',#676);
#676 = CARTESIAN_POINT('',(133.8,-53.4,9.2));
#677 = LINE('',#678,#679);
#678 = CARTESIAN_POINT('',(133.8,-53.4,5.65));
#679 = VECTOR('',#680,1.);
#680 = DIRECTION('',(0.,0.,-1.));
#681 = ORIENTED_EDGE('',*,*,#682,.F.);
#682 = EDGE_CURVE('',#683,#675,#685,.T.);
#683 = VERTEX_POINT('',#684);
#684 = CARTESIAN_POINT('',(133.8,-61.9,9.2));
#685 = LINE('',#686,#687);
#686 = CARTESIAN_POINT('',(133.8,-63.83527082673,9.2));
#687 = VECTOR('',#688,1.);
#688 = DIRECTION('',(0.,1.,0.));
#689 = ORIENTED_EDGE('',*,*,#690,.T.);
#690 = EDGE_CURVE('',#683,#123,#691,.T.);
#691 = LINE('',#692,#693);
#692 = CARTESIAN_POINT('',(133.8,-61.9,5.65));
#693 = VECTOR('',#694,1.);
#694 = DIRECTION('',(0.,0.,-1.));
#695 = PLANE('',#696);
#696 = AXIS2_PLACEMENT_3D('',#697,#698,#699);
#697 = CARTESIAN_POINT('',(133.8,-65.77054165346,6.2));
#698 = DIRECTION('',(-1.,0.,0.));
#699 = DIRECTION('',(0.,1.,0.));
#700 = ADVANCED_FACE('',(#701),#712,.T.);
#701 = FACE_BOUND('',#702,.T.);
#702 = EDGE_LOOP('',(#703,#704,#710,#711));
#703 = ORIENTED_EDGE('',*,*,#213,.F.);
#704 = ORIENTED_EDGE('',*,*,#705,.T.);
#705 = EDGE_CURVE('',#206,#325,#706,.T.);
#706 = LINE('',#707,#708);
#707 = CARTESIAN_POINT('',(112.22945834653,-12.2,6.2));
#708 = VECTOR('',#709,1.);
#709 = DIRECTION('',(0.,0.,1.));
#710 = ORIENTED_EDGE('',*,*,#324,.T.);
#711 = ORIENTED_EDGE('',*,*,#639,.F.);
#712 = PLANE('',#713);
#713 = AXIS2_PLACEMENT_3D('',#714,#715,#716);
#714 = CARTESIAN_POINT('',(112.22945834653,-12.2,6.2));
#715 = DIRECTION('',(4.906767432741E-02,-0.998795456205,0.));
#716 = DIRECTION('',(-0.998795456205,-4.906767432741E-02,0.));
#717 = ADVANCED_FACE('',(#718),#736,.T.);
#718 = FACE_BOUND('',#719,.T.);
#719 = EDGE_LOOP('',(#720,#728,#734,#735));
#720 = ORIENTED_EDGE('',*,*,#721,.T.);
#721 = EDGE_CURVE('',#683,#722,#724,.T.);
#722 = VERTEX_POINT('',#723);
#723 = CARTESIAN_POINT('',(135.,-61.9,9.2));
#724 = LINE('',#725,#726);
#725 = CARTESIAN_POINT('',(128.3,-61.9,9.2));
#726 = VECTOR('',#727,1.);
#727 = DIRECTION('',(1.,0.,0.));
#728 = ORIENTED_EDGE('',*,*,#729,.T.);
#729 = EDGE_CURVE('',#722,#131,#730,.T.);
#730 = LINE('',#731,#732);
#731 = CARTESIAN_POINT('',(135.,-61.9,10.25));
#732 = VECTOR('',#733,1.);
#733 = DIRECTION('',(0.,0.,-1.));
#734 = ORIENTED_EDGE('',*,*,#130,.F.);
#735 = ORIENTED_EDGE('',*,*,#690,.F.);
#736 = PLANE('',#737);
#737 = AXIS2_PLACEMENT_3D('',#738,#739,#740);
#738 = CARTESIAN_POINT('',(128.3,-61.9,5.1));
#739 = DIRECTION('',(0.,1.,0.));
#740 = DIRECTION('',(0.,0.,1.));
#741 = ADVANCED_FACE('',(#742),#817,.T.);
#742 = FACE_BOUND('',#743,.T.);
#743 = EDGE_LOOP('',(#744,#754,#760,#761,#762,#763,#771,#779,#787,#795,
    #803,#811));
#744 = ORIENTED_EDGE('',*,*,#745,.F.);
#745 = EDGE_CURVE('',#746,#748,#750,.T.);
#746 = VERTEX_POINT('',#747);
#747 = CARTESIAN_POINT('',(133.77054165346,-12.2,6.3));
#748 = VERTEX_POINT('',#749);
#749 = CARTESIAN_POINT('',(129.3,-12.2,6.3));
#750 = LINE('',#751,#752);
#751 = CARTESIAN_POINT('',(122.98527082673,-12.2,6.3));
#752 = VECTOR('',#753,1.);
#753 = DIRECTION('',(-1.,-0.,-0.));
#754 = ORIENTED_EDGE('',*,*,#755,.T.);
#755 = EDGE_CURVE('',#746,#434,#756,.T.);
#756 = LINE('',#757,#758);
#757 = CARTESIAN_POINT('',(133.77054165346,-12.2,6.2));
#758 = VECTOR('',#759,1.);
#759 = DIRECTION('',(0.,0.,1.));
#760 = ORIENTED_EDGE('',*,*,#441,.T.);
#761 = ORIENTED_EDGE('',*,*,#705,.F.);
#762 = ORIENTED_EDGE('',*,*,#205,.F.);
#763 = ORIENTED_EDGE('',*,*,#764,.T.);
#764 = EDGE_CURVE('',#198,#765,#767,.T.);
#765 = VERTEX_POINT('',#766);
#766 = CARTESIAN_POINT('',(116.3,-12.2,8.5));
#767 = LINE('',#768,#769);
#768 = CARTESIAN_POINT('',(116.3,-12.2,6.2));
#769 = VECTOR('',#770,1.);
#770 = DIRECTION('',(0.,0.,1.));
#771 = ORIENTED_EDGE('',*,*,#772,.T.);
#772 = EDGE_CURVE('',#765,#773,#775,.T.);
#773 = VERTEX_POINT('',#774);
#774 = CARTESIAN_POINT('',(113.,-12.2,8.5));
#775 = LINE('',#776,#777);
#776 = CARTESIAN_POINT('',(123.38527082673,-12.2,8.5));
#777 = VECTOR('',#778,1.);
#778 = DIRECTION('',(-1.,0.,0.));
#779 = ORIENTED_EDGE('',*,*,#780,.T.);
#780 = EDGE_CURVE('',#773,#781,#783,.T.);
#781 = VERTEX_POINT('',#782);
#782 = CARTESIAN_POINT('',(113.,-12.2,12.7));
#783 = LINE('',#784,#785);
#784 = CARTESIAN_POINT('',(113.,-12.2,7.35));
#785 = VECTOR('',#786,1.);
#786 = DIRECTION('',(0.,0.,1.));
#787 = ORIENTED_EDGE('',*,*,#788,.F.);
#788 = EDGE_CURVE('',#789,#781,#791,.T.);
#789 = VERTEX_POINT('',#790);
#790 = CARTESIAN_POINT('',(132.6,-12.2,12.7));
#791 = LINE('',#792,#793);
#792 = CARTESIAN_POINT('',(123.38527082673,-12.2,12.7));
#793 = VECTOR('',#794,1.);
#794 = DIRECTION('',(-1.,0.,0.));
#795 = ORIENTED_EDGE('',*,*,#796,.F.);
#796 = EDGE_CURVE('',#797,#789,#799,.T.);
#797 = VERTEX_POINT('',#798);
#798 = CARTESIAN_POINT('',(132.6,-12.2,8.5));
#799 = LINE('',#800,#801);
#800 = CARTESIAN_POINT('',(132.6,-12.2,7.35));
#801 = VECTOR('',#802,1.);
#802 = DIRECTION('',(0.,0.,1.));
#803 = ORIENTED_EDGE('',*,*,#804,.T.);
#804 = EDGE_CURVE('',#797,#805,#807,.T.);
#805 = VERTEX_POINT('',#806);
#806 = CARTESIAN_POINT('',(129.3,-12.2,8.5));
#807 = LINE('',#808,#809);
#808 = CARTESIAN_POINT('',(123.38527082673,-12.2,8.5));
#809 = VECTOR('',#810,1.);
#810 = DIRECTION('',(-1.,0.,0.));
#811 = ORIENTED_EDGE('',*,*,#812,.F.);
#812 = EDGE_CURVE('',#748,#805,#813,.T.);
#813 = LINE('',#814,#815);
#814 = CARTESIAN_POINT('',(129.3,-12.2,6.2));
#815 = VECTOR('',#816,1.);
#816 = DIRECTION('',(0.,0.,1.));
#817 = PLANE('',#818);
#818 = AXIS2_PLACEMENT_3D('',#819,#820,#821);
#819 = CARTESIAN_POINT('',(133.77054165346,-12.2,6.2));
#820 = DIRECTION('',(0.,-1.,0.));
#821 = DIRECTION('',(-1.,0.,0.));
#822 = ADVANCED_FACE('',(#823),#871,.F.);
#823 = FACE_BOUND('',#824,.F.);
#824 = EDGE_LOOP('',(#825,#834,#842,#850,#856,#857,#858,#865));
#825 = ORIENTED_EDGE('',*,*,#826,.F.);
#826 = EDGE_CURVE('',#827,#829,#831,.T.);
#827 = VERTEX_POINT('',#828);
#828 = CARTESIAN_POINT('',(135.,-12.2,6.3));
#829 = VERTEX_POINT('',#830);
#830 = CARTESIAN_POINT('',(135.,-12.2,15.4));
#831 = B_SPLINE_CURVE_WITH_KNOTS('',1,(#832,#833),.UNSPECIFIED.,.F.,.F.,
  (2,2),(0.,1.),.PIECEWISE_BEZIER_KNOTS.);
#832 = CARTESIAN_POINT('',(135.,-12.2,6.3));
#833 = CARTESIAN_POINT('',(135.,-12.2,15.4));
#834 = ORIENTED_EDGE('',*,*,#835,.T.);
#835 = EDGE_CURVE('',#827,#836,#838,.T.);
#836 = VERTEX_POINT('',#837);
#837 = CARTESIAN_POINT('',(135.,-53.4,6.3));
#838 = LINE('',#839,#840);
#839 = CARTESIAN_POINT('',(135.,-12.2,6.3));
#840 = VECTOR('',#841,1.);
#841 = DIRECTION('',(0.,-1.,0.));
#842 = ORIENTED_EDGE('',*,*,#843,.F.);
#843 = EDGE_CURVE('',#844,#836,#846,.T.);
#844 = VERTEX_POINT('',#845);
#845 = CARTESIAN_POINT('',(135.,-53.4,9.2));
#846 = LINE('',#847,#848);
#847 = CARTESIAN_POINT('',(135.,-53.4,10.25));
#848 = VECTOR('',#849,1.);
#849 = DIRECTION('',(0.,0.,-1.));
#850 = ORIENTED_EDGE('',*,*,#851,.F.);
#851 = EDGE_CURVE('',#722,#844,#852,.T.);
#852 = LINE('',#853,#854);
#853 = CARTESIAN_POINT('',(135.,-37.05,9.2));
#854 = VECTOR('',#855,1.);
#855 = DIRECTION('',(0.,1.,0.));
#856 = ORIENTED_EDGE('',*,*,#729,.T.);
#857 = ORIENTED_EDGE('',*,*,#138,.T.);
#858 = ORIENTED_EDGE('',*,*,#859,.T.);
#859 = EDGE_CURVE('',#139,#860,#862,.T.);
#860 = VERTEX_POINT('',#861);
#861 = CARTESIAN_POINT('',(135.,-65.8,15.4));
#862 = B_SPLINE_CURVE_WITH_KNOTS('',1,(#863,#864),.UNSPECIFIED.,.F.,.F.,
  (2,2),(0.,1.),.PIECEWISE_BEZIER_KNOTS.);
#863 = CARTESIAN_POINT('',(135.,-65.8,6.3));
#864 = CARTESIAN_POINT('',(135.,-65.8,15.4));
#865 = ORIENTED_EDGE('',*,*,#866,.F.);
#866 = EDGE_CURVE('',#829,#860,#867,.T.);
#867 = LINE('',#868,#869);
#868 = CARTESIAN_POINT('',(135.,-12.2,15.4));
#869 = VECTOR('',#870,1.);
#870 = DIRECTION('',(0.,-1.,0.));
#871 = PLANE('',#872);
#872 = AXIS2_PLACEMENT_3D('',#873,#874,#875);
#873 = CARTESIAN_POINT('',(135.,-12.2,15.4));
#874 = DIRECTION('',(-1.,0.,0.));
#875 = DIRECTION('',(0.,-1.,0.));
#876 = ADVANCED_FACE('',(#877),#911,.T.);
#877 = FACE_BOUND('',#878,.T.);
#878 = EDGE_LOOP('',(#879,#889,#897,#903,#904,#905));
#879 = ORIENTED_EDGE('',*,*,#880,.F.);
#880 = EDGE_CURVE('',#881,#883,#885,.T.);
#881 = VERTEX_POINT('',#882);
#882 = CARTESIAN_POINT('',(116.3,-11.4,11.8));
#883 = VERTEX_POINT('',#884);
#884 = CARTESIAN_POINT('',(116.3,-11.,11.8));
#885 = LINE('',#886,#887);
#886 = CARTESIAN_POINT('',(116.3,-20.,11.8));
#887 = VECTOR('',#888,1.);
#888 = DIRECTION('',(0.,1.,0.));
#889 = ORIENTED_EDGE('',*,*,#890,.F.);
#890 = EDGE_CURVE('',#891,#881,#893,.T.);
#891 = VERTEX_POINT('',#892);
#892 = CARTESIAN_POINT('',(116.3,-11.4,8.5));
#893 = LINE('',#894,#895);
#894 = CARTESIAN_POINT('',(116.3,-11.4,7.35));
#895 = VECTOR('',#896,1.);
#896 = DIRECTION('',(0.,0.,1.));
#897 = ORIENTED_EDGE('',*,*,#898,.T.);
#898 = EDGE_CURVE('',#891,#765,#899,.T.);
#899 = LINE('',#900,#901);
#900 = CARTESIAN_POINT('',(116.3,-34.05,8.5));
#901 = VECTOR('',#902,1.);
#902 = DIRECTION('',(0.,-1.,0.));
#903 = ORIENTED_EDGE('',*,*,#764,.F.);
#904 = ORIENTED_EDGE('',*,*,#197,.F.);
#905 = ORIENTED_EDGE('',*,*,#906,.T.);
#906 = EDGE_CURVE('',#190,#883,#907,.T.);
#907 = LINE('',#908,#909);
#908 = CARTESIAN_POINT('',(116.3,-11.,10.8));
#909 = VECTOR('',#910,1.);
#910 = DIRECTION('',(0.,0.,1.));
#911 = PLANE('',#912);
#912 = AXIS2_PLACEMENT_3D('',#913,#914,#915);
#913 = CARTESIAN_POINT('',(116.3,-20.,6.2));
#914 = DIRECTION('',(1.,0.,0.));
#915 = DIRECTION('',(0.,0.,1.));
#916 = ADVANCED_FACE('',(#917),#935,.T.);
#917 = FACE_BOUND('',#918,.F.);
#918 = EDGE_LOOP('',(#919,#920,#927,#934));
#919 = ORIENTED_EDGE('',*,*,#146,.T.);
#920 = ORIENTED_EDGE('',*,*,#921,.T.);
#921 = EDGE_CURVE('',#147,#922,#924,.T.);
#922 = VERTEX_POINT('',#923);
#923 = CARTESIAN_POINT('',(133.8,-67.,15.4));
#924 = B_SPLINE_CURVE_WITH_KNOTS('',1,(#925,#926),.UNSPECIFIED.,.F.,.F.,
  (2,2),(0.,1.),.PIECEWISE_BEZIER_KNOTS.);
#925 = CARTESIAN_POINT('',(133.8,-67.,6.3));
#926 = CARTESIAN_POINT('',(133.8,-67.,15.4));
#927 = ORIENTED_EDGE('',*,*,#928,.F.);
#928 = EDGE_CURVE('',#860,#922,#929,.T.);
#929 = CIRCLE('',#930,1.2);
#930 = AXIS2_PLACEMENT_3D('',#931,#932,#933);
#931 = CARTESIAN_POINT('',(133.8,-65.8,15.4));
#932 = DIRECTION('',(0.,0.,-1.));
#933 = DIRECTION('',(1.,2.368475785867E-14,0.));
#934 = ORIENTED_EDGE('',*,*,#859,.F.);
#935 = CYLINDRICAL_SURFACE('',#936,1.2);
#936 = AXIS2_PLACEMENT_3D('',#937,#938,#939);
#937 = CARTESIAN_POINT('',(133.8,-65.8,6.3));
#938 = DIRECTION('',(0.,0.,1.));
#939 = DIRECTION('',(1.,2.368475785867E-14,0.));
#940 = ADVANCED_FACE('',(#941),#989,.F.);
#941 = FACE_BOUND('',#942,.F.);
#942 = EDGE_LOOP('',(#943,#950,#951,#952,#960,#968,#976,#983));
#943 = ORIENTED_EDGE('',*,*,#944,.F.);
#944 = EDGE_CURVE('',#181,#945,#947,.T.);
#945 = VERTEX_POINT('',#946);
#946 = CARTESIAN_POINT('',(112.2,-11.,15.4));
#947 = B_SPLINE_CURVE_WITH_KNOTS('',1,(#948,#949),.UNSPECIFIED.,.F.,.F.,
  (2,2),(0.,1.),.PIECEWISE_BEZIER_KNOTS.);
#948 = CARTESIAN_POINT('',(112.2,-11.,6.3));
#949 = CARTESIAN_POINT('',(112.2,-11.,15.4));
#950 = ORIENTED_EDGE('',*,*,#189,.T.);
#951 = ORIENTED_EDGE('',*,*,#906,.T.);
#952 = ORIENTED_EDGE('',*,*,#953,.F.);
#953 = EDGE_CURVE('',#954,#883,#956,.T.);
#954 = VERTEX_POINT('',#955);
#955 = CARTESIAN_POINT('',(129.3,-11.,11.8));
#956 = LINE('',#957,#958);
#957 = CARTESIAN_POINT('',(114.25,-11.,11.8));
#958 = VECTOR('',#959,1.);
#959 = DIRECTION('',(-1.,0.,0.));
#960 = ORIENTED_EDGE('',*,*,#961,.F.);
#961 = EDGE_CURVE('',#962,#954,#964,.T.);
#962 = VERTEX_POINT('',#963);
#963 = CARTESIAN_POINT('',(129.3,-11.,6.3));
#964 = LINE('',#965,#966);
#965 = CARTESIAN_POINT('',(129.3,-11.,10.8));
#966 = VECTOR('',#967,1.);
#967 = DIRECTION('',(0.,0.,1.));
#968 = ORIENTED_EDGE('',*,*,#969,.T.);
#969 = EDGE_CURVE('',#962,#970,#972,.T.);
#970 = VERTEX_POINT('',#971);
#971 = CARTESIAN_POINT('',(133.8,-11.,6.3));
#972 = LINE('',#973,#974);
#973 = CARTESIAN_POINT('',(112.2,-11.,6.3));
#974 = VECTOR('',#975,1.);
#975 = DIRECTION('',(1.,0.,0.));
#976 = ORIENTED_EDGE('',*,*,#977,.T.);
#977 = EDGE_CURVE('',#970,#978,#980,.T.);
#978 = VERTEX_POINT('',#979);
#979 = CARTESIAN_POINT('',(133.8,-11.,15.4));
#980 = B_SPLINE_CURVE_WITH_KNOTS('',1,(#981,#982),.UNSPECIFIED.,.F.,.F.,
  (2,2),(0.,1.),.PIECEWISE_BEZIER_KNOTS.);
#981 = CARTESIAN_POINT('',(133.8,-11.,6.3));
#982 = CARTESIAN_POINT('',(133.8,-11.,15.4));
#983 = ORIENTED_EDGE('',*,*,#984,.F.);
#984 = EDGE_CURVE('',#945,#978,#985,.T.);
#985 = LINE('',#986,#987);
#986 = CARTESIAN_POINT('',(112.2,-11.,15.4));
#987 = VECTOR('',#988,1.);
#988 = DIRECTION('',(1.,0.,0.));
#989 = PLANE('',#990);
#990 = AXIS2_PLACEMENT_3D('',#991,#992,#993);
#991 = CARTESIAN_POINT('',(112.2,-11.,15.4));
#992 = DIRECTION('',(0.,-1.,0.));
#993 = DIRECTION('',(1.,0.,0.));
#994 = ADVANCED_FACE('',(#995),#1012,.F.);
#995 = FACE_BOUND('',#996,.F.);
#996 = EDGE_LOOP('',(#997,#998,#1005,#1011));
#997 = ORIENTED_EDGE('',*,*,#155,.T.);
#998 = ORIENTED_EDGE('',*,*,#999,.T.);
#999 = EDGE_CURVE('',#156,#1000,#1002,.T.);
#1000 = VERTEX_POINT('',#1001);
#1001 = CARTESIAN_POINT('',(112.2,-67.,15.4));
#1002 = B_SPLINE_CURVE_WITH_KNOTS('',1,(#1003,#1004),.UNSPECIFIED.,.F.,
  .F.,(2,2),(0.,1.),.PIECEWISE_BEZIER_KNOTS.);
#1003 = CARTESIAN_POINT('',(112.2,-67.,6.3));
#1004 = CARTESIAN_POINT('',(112.2,-67.,15.4));
#1005 = ORIENTED_EDGE('',*,*,#1006,.F.);
#1006 = EDGE_CURVE('',#922,#1000,#1007,.T.);
#1007 = LINE('',#1008,#1009);
#1008 = CARTESIAN_POINT('',(133.8,-67.,15.4));
#1009 = VECTOR('',#1010,1.);
#1010 = DIRECTION('',(-1.,0.,0.));
#1011 = ORIENTED_EDGE('',*,*,#921,.F.);
#1012 = PLANE('',#1013);
#1013 = AXIS2_PLACEMENT_3D('',#1014,#1015,#1016);
#1014 = CARTESIAN_POINT('',(133.8,-67.,15.4));
#1015 = DIRECTION('',(0.,1.,0.));
#1016 = DIRECTION('',(-1.,0.,0.));
#1017 = ADVANCED_FACE('',(#1018),#1036,.T.);
#1018 = FACE_BOUND('',#1019,.F.);
#1019 = EDGE_LOOP('',(#1020,#1021,#1022,#1031));
#1020 = ORIENTED_EDGE('',*,*,#180,.T.);
#1021 = ORIENTED_EDGE('',*,*,#944,.T.);
#1022 = ORIENTED_EDGE('',*,*,#1023,.F.);
#1023 = EDGE_CURVE('',#1024,#945,#1026,.T.);
#1024 = VERTEX_POINT('',#1025);
#1025 = CARTESIAN_POINT('',(111.,-12.2,15.4));
#1026 = CIRCLE('',#1027,1.2);
#1027 = AXIS2_PLACEMENT_3D('',#1028,#1029,#1030);
#1028 = CARTESIAN_POINT('',(112.2,-12.2,15.4));
#1029 = DIRECTION('',(0.,0.,-1.));
#1030 = DIRECTION('',(-1.,4.440892098501E-15,0.));
#1031 = ORIENTED_EDGE('',*,*,#1032,.F.);
#1032 = EDGE_CURVE('',#173,#1024,#1033,.T.);
#1033 = B_SPLINE_CURVE_WITH_KNOTS('',1,(#1034,#1035),.UNSPECIFIED.,.F.,
  .F.,(2,2),(0.,1.),.PIECEWISE_BEZIER_KNOTS.);
#1034 = CARTESIAN_POINT('',(111.,-12.2,6.3));
#1035 = CARTESIAN_POINT('',(111.,-12.2,15.4));
#1036 = CYLINDRICAL_SURFACE('',#1037,1.2);
#1037 = AXIS2_PLACEMENT_3D('',#1038,#1039,#1040);
#1038 = CARTESIAN_POINT('',(112.2,-12.2,6.3));
#1039 = DIRECTION('',(0.,0.,1.));
#1040 = DIRECTION('',(-1.,4.440892098501E-15,0.));
#1041 = ADVANCED_FACE('',(#1042),#1060,.T.);
#1042 = FACE_BOUND('',#1043,.F.);
#1043 = EDGE_LOOP('',(#1044,#1045,#1052,#1059));
#1044 = ORIENTED_EDGE('',*,*,#163,.T.);
#1045 = ORIENTED_EDGE('',*,*,#1046,.T.);
#1046 = EDGE_CURVE('',#164,#1047,#1049,.T.);
#1047 = VERTEX_POINT('',#1048);
#1048 = CARTESIAN_POINT('',(111.,-65.8,15.4));
#1049 = B_SPLINE_CURVE_WITH_KNOTS('',1,(#1050,#1051),.UNSPECIFIED.,.F.,
  .F.,(2,2),(0.,1.),.PIECEWISE_BEZIER_KNOTS.);
#1050 = CARTESIAN_POINT('',(111.,-65.8,6.3));
#1051 = CARTESIAN_POINT('',(111.,-65.8,15.4));
#1052 = ORIENTED_EDGE('',*,*,#1053,.F.);
#1053 = EDGE_CURVE('',#1000,#1047,#1054,.T.);
#1054 = CIRCLE('',#1055,1.2);
#1055 = AXIS2_PLACEMENT_3D('',#1056,#1057,#1058);
#1056 = CARTESIAN_POINT('',(112.2,-65.8,15.4));
#1057 = DIRECTION('',(0.,0.,-1.));
#1058 = DIRECTION('',(0.,-1.,0.));
#1059 = ORIENTED_EDGE('',*,*,#999,.F.);
#1060 = CYLINDRICAL_SURFACE('',#1061,1.2);
#1061 = AXIS2_PLACEMENT_3D('',#1062,#1063,#1064);
#1062 = CARTESIAN_POINT('',(112.2,-65.8,6.3));
#1063 = DIRECTION('',(0.,0.,1.));
#1064 = DIRECTION('',(0.,-1.,0.));
#1065 = ADVANCED_FACE('',(#1066),#1077,.F.);
#1066 = FACE_BOUND('',#1067,.F.);
#1067 = EDGE_LOOP('',(#1068,#1069,#1070,#1076));
#1068 = ORIENTED_EDGE('',*,*,#172,.T.);
#1069 = ORIENTED_EDGE('',*,*,#1032,.T.);
#1070 = ORIENTED_EDGE('',*,*,#1071,.F.);
#1071 = EDGE_CURVE('',#1047,#1024,#1072,.T.);
#1072 = LINE('',#1073,#1074);
#1073 = CARTESIAN_POINT('',(111.,-65.8,15.4));
#1074 = VECTOR('',#1075,1.);
#1075 = DIRECTION('',(0.,1.,0.));
#1076 = ORIENTED_EDGE('',*,*,#1046,.F.);
#1077 = PLANE('',#1078);
#1078 = AXIS2_PLACEMENT_3D('',#1079,#1080,#1081);
#1079 = CARTESIAN_POINT('',(111.,-65.8,15.4));
#1080 = DIRECTION('',(1.,0.,0.));
#1081 = DIRECTION('',(0.,1.,0.));
#1082 = ADVANCED_FACE('',(#1083),#1102,.F.);
#1083 = FACE_BOUND('',#1084,.T.);
#1084 = EDGE_LOOP('',(#1085,#1093,#1094,#1095));
#1085 = ORIENTED_EDGE('',*,*,#1086,.F.);
#1086 = EDGE_CURVE('',#262,#1087,#1089,.T.);
#1087 = VERTEX_POINT('',#1088);
#1088 = CARTESIAN_POINT('',(131.75,-64.,14.9));
#1089 = LINE('',#1090,#1091);
#1090 = CARTESIAN_POINT('',(131.75,-64.,6.2));
#1091 = VECTOR('',#1092,1.);
#1092 = DIRECTION('',(0.,0.,1.));
#1093 = ORIENTED_EDGE('',*,*,#261,.T.);
#1094 = ORIENTED_EDGE('',*,*,#1086,.T.);
#1095 = ORIENTED_EDGE('',*,*,#1096,.F.);
#1096 = EDGE_CURVE('',#1087,#1087,#1097,.T.);
#1097 = CIRCLE('',#1098,1.15);
#1098 = AXIS2_PLACEMENT_3D('',#1099,#1100,#1101);
#1099 = CARTESIAN_POINT('',(130.6,-64.,14.9));
#1100 = DIRECTION('',(0.,0.,-1.));
#1101 = DIRECTION('',(1.,0.,0.));
#1102 = CYLINDRICAL_SURFACE('',#1103,1.15);
#1103 = AXIS2_PLACEMENT_3D('',#1104,#1105,#1106);
#1104 = CARTESIAN_POINT('',(130.6,-64.,6.2));
#1105 = DIRECTION('',(-0.,-0.,-1.));
#1106 = DIRECTION('',(1.,0.,0.));
#1107 = ADVANCED_FACE('',(#1108),#1127,.F.);
#1108 = FACE_BOUND('',#1109,.T.);
#1109 = EDGE_LOOP('',(#1110,#1118,#1119,#1120));
#1110 = ORIENTED_EDGE('',*,*,#1111,.F.);
#1111 = EDGE_CURVE('',#273,#1112,#1114,.T.);
#1112 = VERTEX_POINT('',#1113);
#1113 = CARTESIAN_POINT('',(115.65,-64.,14.9));
#1114 = LINE('',#1115,#1116);
#1115 = CARTESIAN_POINT('',(115.65,-64.,6.2));
#1116 = VECTOR('',#1117,1.);
#1117 = DIRECTION('',(0.,0.,1.));
#1118 = ORIENTED_EDGE('',*,*,#272,.T.);
#1119 = ORIENTED_EDGE('',*,*,#1111,.T.);
#1120 = ORIENTED_EDGE('',*,*,#1121,.F.);
#1121 = EDGE_CURVE('',#1112,#1112,#1122,.T.);
#1122 = CIRCLE('',#1123,1.15);
#1123 = AXIS2_PLACEMENT_3D('',#1124,#1125,#1126);
#1124 = CARTESIAN_POINT('',(114.5,-64.,14.9));
#1125 = DIRECTION('',(0.,0.,-1.));
#1126 = DIRECTION('',(1.,0.,0.));
#1127 = CYLINDRICAL_SURFACE('',#1128,1.15);
#1128 = AXIS2_PLACEMENT_3D('',#1129,#1130,#1131);
#1129 = CARTESIAN_POINT('',(114.5,-64.,6.2));
#1130 = DIRECTION('',(-0.,-0.,-1.));
#1131 = DIRECTION('',(1.,0.,0.));
#1132 = ADVANCED_FACE('',(#1133),#1151,.T.);
#1133 = FACE_BOUND('',#1134,.T.);
#1134 = EDGE_LOOP('',(#1135,#1143,#1149,#1150));
#1135 = ORIENTED_EDGE('',*,*,#1136,.F.);
#1136 = EDGE_CURVE('',#1137,#746,#1139,.T.);
#1137 = VERTEX_POINT('',#1138);
#1138 = CARTESIAN_POINT('',(133.79862057122,-12.20137942877,6.3));
#1139 = LINE('',#1140,#1141);
#1140 = CARTESIAN_POINT('',(123.02527729908,-11.67211901232,6.3));
#1141 = VECTOR('',#1142,1.);
#1142 = DIRECTION('',(-0.998795456205,4.906767432739E-02,0.));
#1143 = ORIENTED_EDGE('',*,*,#1144,.T.);
#1144 = EDGE_CURVE('',#1137,#426,#1145,.T.);
#1145 = LINE('',#1146,#1147);
#1146 = CARTESIAN_POINT('',(133.79862057122,-12.20137942877,6.2));
#1147 = VECTOR('',#1148,1.);
#1148 = DIRECTION('',(0.,0.,1.));
#1149 = ORIENTED_EDGE('',*,*,#433,.T.);
#1150 = ORIENTED_EDGE('',*,*,#755,.F.);
#1151 = PLANE('',#1152);
#1152 = AXIS2_PLACEMENT_3D('',#1153,#1154,#1155);
#1153 = CARTESIAN_POINT('',(133.79862057122,-12.20137942877,6.2));
#1154 = DIRECTION('',(-4.906767432739E-02,-0.998795456205,0.));
#1155 = DIRECTION('',(-0.998795456205,4.906767432739E-02,0.));
#1156 = ADVANCED_FACE('',(#1157),#1168,.T.);
#1157 = FACE_BOUND('',#1158,.T.);
#1158 = EDGE_LOOP('',(#1159,#1165,#1166,#1167));
#1159 = ORIENTED_EDGE('',*,*,#1160,.F.);
#1160 = EDGE_CURVE('',#659,#1137,#1161,.T.);
#1161 = LINE('',#1162,#1163);
#1162 = CARTESIAN_POINT('',(133.7732756683,-11.68547207798,6.3));
#1163 = VECTOR('',#1164,1.);
#1164 = DIRECTION('',(-4.906767432733E-02,0.998795456205,0.));
#1165 = ORIENTED_EDGE('',*,*,#658,.T.);
#1166 = ORIENTED_EDGE('',*,*,#425,.T.);
#1167 = ORIENTED_EDGE('',*,*,#1144,.F.);
#1168 = PLANE('',#1169);
#1169 = AXIS2_PLACEMENT_3D('',#1170,#1171,#1172);
#1170 = CARTESIAN_POINT('',(133.8,-12.22945834653,6.2));
#1171 = DIRECTION('',(-0.998795456205,-4.906767432733E-02,0.));
#1172 = DIRECTION('',(-4.906767432733E-02,0.998795456205,0.));
#1173 = ADVANCED_FACE('',(#1174),#1193,.F.);
#1174 = FACE_BOUND('',#1175,.T.);
#1175 = EDGE_LOOP('',(#1176,#1177,#1185,#1192));
#1176 = ORIENTED_EDGE('',*,*,#449,.T.);
#1177 = ORIENTED_EDGE('',*,*,#1178,.T.);
#1178 = EDGE_CURVE('',#450,#1179,#1181,.T.);
#1179 = VERTEX_POINT('',#1180);
#1180 = CARTESIAN_POINT('',(124.4,-59.5,16.6));
#1181 = LINE('',#1182,#1183);
#1182 = CARTESIAN_POINT('',(124.4,-59.5,7.8));
#1183 = VECTOR('',#1184,1.);
#1184 = DIRECTION('',(0.,0.,1.));
#1185 = ORIENTED_EDGE('',*,*,#1186,.F.);
#1186 = EDGE_CURVE('',#1179,#1179,#1187,.T.);
#1187 = CIRCLE('',#1188,1.4);
#1188 = AXIS2_PLACEMENT_3D('',#1189,#1190,#1191);
#1189 = CARTESIAN_POINT('',(123.,-59.5,16.6));
#1190 = DIRECTION('',(0.,0.,-1.));
#1191 = DIRECTION('',(1.,0.,0.));
#1192 = ORIENTED_EDGE('',*,*,#1178,.F.);
#1193 = CYLINDRICAL_SURFACE('',#1194,1.4);
#1194 = AXIS2_PLACEMENT_3D('',#1195,#1196,#1197);
#1195 = CARTESIAN_POINT('',(123.,-59.5,7.8));
#1196 = DIRECTION('',(-0.,-0.,-1.));
#1197 = DIRECTION('',(1.,0.,0.));
#1198 = ADVANCED_FACE('',(#1199),#1224,.T.);
#1199 = FACE_BOUND('',#1200,.T.);
#1200 = EDGE_LOOP('',(#1201,#1209,#1210,#1218));
#1201 = ORIENTED_EDGE('',*,*,#1202,.F.);
#1202 = EDGE_CURVE('',#461,#1203,#1205,.T.);
#1203 = VERTEX_POINT('',#1204);
#1204 = CARTESIAN_POINT('',(130.05,-49.35,16.6));
#1205 = LINE('',#1206,#1207);
#1206 = CARTESIAN_POINT('',(130.05,-49.35,15.1));
#1207 = VECTOR('',#1208,1.);
#1208 = DIRECTION('',(0.,0.,1.));
#1209 = ORIENTED_EDGE('',*,*,#460,.T.);
#1210 = ORIENTED_EDGE('',*,*,#1211,.T.);
#1211 = EDGE_CURVE('',#463,#1212,#1214,.T.);
#1212 = VERTEX_POINT('',#1213);
#1213 = CARTESIAN_POINT('',(115.55,-49.35,16.6));
#1214 = LINE('',#1215,#1216);
#1215 = CARTESIAN_POINT('',(115.55,-49.35,15.1));
#1216 = VECTOR('',#1217,1.);
#1217 = DIRECTION('',(0.,0.,1.));
#1218 = ORIENTED_EDGE('',*,*,#1219,.T.);
#1219 = EDGE_CURVE('',#1212,#1203,#1220,.T.);
#1220 = LINE('',#1221,#1222);
#1221 = CARTESIAN_POINT('',(113.875,-49.35,16.6));
#1222 = VECTOR('',#1223,1.);
#1223 = DIRECTION('',(1.,0.,0.));
#1224 = PLANE('',#1225);
#1225 = AXIS2_PLACEMENT_3D('',#1226,#1227,#1228);
#1226 = CARTESIAN_POINT('',(115.55,-49.35,15.1));
#1227 = DIRECTION('',(0.,1.,0.));
#1228 = DIRECTION('',(0.,0.,1.));
#1229 = ADVANCED_FACE('',(#1230),#1248,.F.);
#1230 = FACE_BOUND('',#1231,.F.);
#1231 = EDGE_LOOP('',(#1232,#1233,#1234,#1242));
#1232 = ORIENTED_EDGE('',*,*,#1202,.F.);
#1233 = ORIENTED_EDGE('',*,*,#486,.T.);
#1234 = ORIENTED_EDGE('',*,*,#1235,.T.);
#1235 = EDGE_CURVE('',#479,#1236,#1238,.T.);
#1236 = VERTEX_POINT('',#1237);
#1237 = CARTESIAN_POINT('',(130.05,-18.25,16.6));
#1238 = LINE('',#1239,#1240);
#1239 = CARTESIAN_POINT('',(130.05,-18.25,15.1));
#1240 = VECTOR('',#1241,1.);
#1241 = DIRECTION('',(0.,0.,1.));
#1242 = ORIENTED_EDGE('',*,*,#1243,.T.);
#1243 = EDGE_CURVE('',#1236,#1203,#1244,.T.);
#1244 = LINE('',#1245,#1246);
#1245 = CARTESIAN_POINT('',(130.05,-30.775,16.6));
#1246 = VECTOR('',#1247,1.);
#1247 = DIRECTION('',(0.,-1.,0.));
#1248 = PLANE('',#1249);
#1249 = AXIS2_PLACEMENT_3D('',#1250,#1251,#1252);
#1250 = CARTESIAN_POINT('',(130.05,-49.35,15.1));
#1251 = DIRECTION('',(1.,0.,0.));
#1252 = DIRECTION('',(0.,0.,1.));
#1253 = ADVANCED_FACE('',(#1254),#1272,.T.);
#1254 = FACE_BOUND('',#1255,.T.);
#1255 = EDGE_LOOP('',(#1256,#1257,#1258,#1266));
#1256 = ORIENTED_EDGE('',*,*,#1211,.F.);
#1257 = ORIENTED_EDGE('',*,*,#470,.T.);
#1258 = ORIENTED_EDGE('',*,*,#1259,.T.);
#1259 = EDGE_CURVE('',#471,#1260,#1262,.T.);
#1260 = VERTEX_POINT('',#1261);
#1261 = CARTESIAN_POINT('',(115.55,-18.25,16.6));
#1262 = LINE('',#1263,#1264);
#1263 = CARTESIAN_POINT('',(115.55,-18.25,15.1));
#1264 = VECTOR('',#1265,1.);
#1265 = DIRECTION('',(0.,0.,1.));
#1266 = ORIENTED_EDGE('',*,*,#1267,.T.);
#1267 = EDGE_CURVE('',#1260,#1212,#1268,.T.);
#1268 = LINE('',#1269,#1270);
#1269 = CARTESIAN_POINT('',(115.55,-30.775,16.6));
#1270 = VECTOR('',#1271,1.);
#1271 = DIRECTION('',(0.,-1.,0.));
#1272 = PLANE('',#1273);
#1273 = AXIS2_PLACEMENT_3D('',#1274,#1275,#1276);
#1274 = CARTESIAN_POINT('',(115.55,-49.35,15.1));
#1275 = DIRECTION('',(1.,0.,0.));
#1276 = DIRECTION('',(0.,0.,1.));
#1277 = ADVANCED_FACE('',(#1278),#1289,.F.);
#1278 = FACE_BOUND('',#1279,.F.);
#1279 = EDGE_LOOP('',(#1280,#1281,#1282,#1283));
#1280 = ORIENTED_EDGE('',*,*,#1235,.F.);
#1281 = ORIENTED_EDGE('',*,*,#478,.T.);
#1282 = ORIENTED_EDGE('',*,*,#1259,.T.);
#1283 = ORIENTED_EDGE('',*,*,#1284,.T.);
#1284 = EDGE_CURVE('',#1260,#1236,#1285,.T.);
#1285 = LINE('',#1286,#1287);
#1286 = CARTESIAN_POINT('',(113.875,-18.25,16.6));
#1287 = VECTOR('',#1288,1.);
#1288 = DIRECTION('',(1.,0.,0.));
#1289 = PLANE('',#1290);
#1290 = AXIS2_PLACEMENT_3D('',#1291,#1292,#1293);
#1291 = CARTESIAN_POINT('',(115.55,-18.25,15.1));
#1292 = DIRECTION('',(0.,1.,0.));
#1293 = DIRECTION('',(0.,0.,1.));
#1294 = ADVANCED_FACE('',(#1295),#1306,.F.);
#1295 = FACE_BOUND('',#1296,.F.);
#1296 = EDGE_LOOP('',(#1297,#1303,#1304,#1305));
#1297 = ORIENTED_EDGE('',*,*,#1298,.F.);
#1298 = EDGE_CURVE('',#675,#844,#1299,.T.);
#1299 = LINE('',#1300,#1301);
#1300 = CARTESIAN_POINT('',(128.3,-53.4,9.2));
#1301 = VECTOR('',#1302,1.);
#1302 = DIRECTION('',(1.,0.,0.));
#1303 = ORIENTED_EDGE('',*,*,#682,.F.);
#1304 = ORIENTED_EDGE('',*,*,#721,.T.);
#1305 = ORIENTED_EDGE('',*,*,#851,.T.);
#1306 = PLANE('',#1307);
#1307 = AXIS2_PLACEMENT_3D('',#1308,#1309,#1310);
#1308 = CARTESIAN_POINT('',(128.3,-61.9,9.2));
#1309 = DIRECTION('',(0.,0.,1.));
#1310 = DIRECTION('',(1.,0.,0.));
#1311 = ADVANCED_FACE('',(#1312),#1323,.F.);
#1312 = FACE_BOUND('',#1313,.F.);
#1313 = EDGE_LOOP('',(#1314,#1315,#1316,#1322));
#1314 = ORIENTED_EDGE('',*,*,#1298,.T.);
#1315 = ORIENTED_EDGE('',*,*,#843,.T.);
#1316 = ORIENTED_EDGE('',*,*,#1317,.F.);
#1317 = EDGE_CURVE('',#667,#836,#1318,.T.);
#1318 = LINE('',#1319,#1320);
#1319 = CARTESIAN_POINT('',(120.25,-53.4,6.3));
#1320 = VECTOR('',#1321,1.);
#1321 = DIRECTION('',(1.,0.,0.));
#1322 = ORIENTED_EDGE('',*,*,#674,.F.);
#1323 = PLANE('',#1324);
#1324 = AXIS2_PLACEMENT_3D('',#1325,#1326,#1327);
#1325 = CARTESIAN_POINT('',(128.3,-53.4,5.1));
#1326 = DIRECTION('',(0.,1.,0.));
#1327 = DIRECTION('',(0.,0.,1.));
#1328 = ADVANCED_FACE('',(#1329),#1351,.T.);
#1329 = FACE_BOUND('',#1330,.T.);
#1330 = EDGE_LOOP('',(#1331,#1332,#1333,#1334,#1335,#1336,#1337,#1343,
    #1344));
#1331 = ORIENTED_EDGE('',*,*,#835,.T.);
#1332 = ORIENTED_EDGE('',*,*,#1317,.F.);
#1333 = ORIENTED_EDGE('',*,*,#666,.T.);
#1334 = ORIENTED_EDGE('',*,*,#1160,.T.);
#1335 = ORIENTED_EDGE('',*,*,#1136,.T.);
#1336 = ORIENTED_EDGE('',*,*,#745,.T.);
#1337 = ORIENTED_EDGE('',*,*,#1338,.F.);
#1338 = EDGE_CURVE('',#962,#748,#1339,.T.);
#1339 = LINE('',#1340,#1341);
#1340 = CARTESIAN_POINT('',(129.3,-16.1,6.3));
#1341 = VECTOR('',#1342,1.);
#1342 = DIRECTION('',(0.,-1.,0.));
#1343 = ORIENTED_EDGE('',*,*,#969,.T.);
#1344 = ORIENTED_EDGE('',*,*,#1345,.T.);
#1345 = EDGE_CURVE('',#970,#827,#1346,.T.);
#1346 = CIRCLE('',#1347,1.2);
#1347 = AXIS2_PLACEMENT_3D('',#1348,#1349,#1350);
#1348 = CARTESIAN_POINT('',(133.8,-12.2,6.3));
#1349 = DIRECTION('',(0.,0.,-1.));
#1350 = DIRECTION('',(0.,1.,0.));
#1351 = PLANE('',#1352);
#1352 = AXIS2_PLACEMENT_3D('',#1353,#1354,#1355);
#1353 = CARTESIAN_POINT('',(112.2,-12.2,6.3));
#1354 = DIRECTION('',(0.,0.,-1.));
#1355 = DIRECTION('',(-1.,4.440892098501E-15,0.));
#1356 = ADVANCED_FACE('',(#1357),#1384,.F.);
#1357 = FACE_BOUND('',#1358,.F.);
#1358 = EDGE_LOOP('',(#1359,#1367,#1375,#1381,#1382,#1383));
#1359 = ORIENTED_EDGE('',*,*,#1360,.F.);
#1360 = EDGE_CURVE('',#1361,#954,#1363,.T.);
#1361 = VERTEX_POINT('',#1362);
#1362 = CARTESIAN_POINT('',(129.3,-11.4,11.8));
#1363 = LINE('',#1364,#1365);
#1364 = CARTESIAN_POINT('',(129.3,-20.,11.8));
#1365 = VECTOR('',#1366,1.);
#1366 = DIRECTION('',(0.,1.,0.));
#1367 = ORIENTED_EDGE('',*,*,#1368,.F.);
#1368 = EDGE_CURVE('',#1369,#1361,#1371,.T.);
#1369 = VERTEX_POINT('',#1370);
#1370 = CARTESIAN_POINT('',(129.3,-11.4,8.5));
#1371 = LINE('',#1372,#1373);
#1372 = CARTESIAN_POINT('',(129.3,-11.4,7.35));
#1373 = VECTOR('',#1374,1.);
#1374 = DIRECTION('',(0.,0.,1.));
#1375 = ORIENTED_EDGE('',*,*,#1376,.T.);
#1376 = EDGE_CURVE('',#1369,#805,#1377,.T.);
#1377 = LINE('',#1378,#1379);
#1378 = CARTESIAN_POINT('',(129.3,-34.05,8.5));
#1379 = VECTOR('',#1380,1.);
#1380 = DIRECTION('',(0.,-1.,0.));
#1381 = ORIENTED_EDGE('',*,*,#812,.F.);
#1382 = ORIENTED_EDGE('',*,*,#1338,.F.);
#1383 = ORIENTED_EDGE('',*,*,#961,.T.);
#1384 = PLANE('',#1385);
#1385 = AXIS2_PLACEMENT_3D('',#1386,#1387,#1388);
#1386 = CARTESIAN_POINT('',(129.3,-20.,6.2));
#1387 = DIRECTION('',(1.,0.,0.));
#1388 = DIRECTION('',(0.,0.,1.));
#1389 = ADVANCED_FACE('',(#1390),#1408,.T.);
#1390 = FACE_BOUND('',#1391,.T.);
#1391 = EDGE_LOOP('',(#1392,#1393,#1401,#1407));
#1392 = ORIENTED_EDGE('',*,*,#804,.F.);
#1393 = ORIENTED_EDGE('',*,*,#1394,.T.);
#1394 = EDGE_CURVE('',#797,#1395,#1397,.T.);
#1395 = VERTEX_POINT('',#1396);
#1396 = CARTESIAN_POINT('',(132.6,-11.4,8.5));
#1397 = LINE('',#1398,#1399);
#1398 = CARTESIAN_POINT('',(132.6,-48.1,8.5));
#1399 = VECTOR('',#1400,1.);
#1400 = DIRECTION('',(0.,1.,0.));
#1401 = ORIENTED_EDGE('',*,*,#1402,.F.);
#1402 = EDGE_CURVE('',#1369,#1395,#1403,.T.);
#1403 = LINE('',#1404,#1405);
#1404 = CARTESIAN_POINT('',(113.,-11.4,8.5));
#1405 = VECTOR('',#1406,1.);
#1406 = DIRECTION('',(1.,0.,0.));
#1407 = ORIENTED_EDGE('',*,*,#1376,.T.);
#1408 = PLANE('',#1409);
#1409 = AXIS2_PLACEMENT_3D('',#1410,#1411,#1412);
#1410 = CARTESIAN_POINT('',(113.,-48.1,8.5));
#1411 = DIRECTION('',(0.,0.,1.));
#1412 = DIRECTION('',(1.,0.,0.));
#1413 = ADVANCED_FACE('',(#1414),#1432,.F.);
#1414 = FACE_BOUND('',#1415,.F.);
#1415 = EDGE_LOOP('',(#1416,#1424,#1425,#1426));
#1416 = ORIENTED_EDGE('',*,*,#1417,.F.);
#1417 = EDGE_CURVE('',#789,#1418,#1420,.T.);
#1418 = VERTEX_POINT('',#1419);
#1419 = CARTESIAN_POINT('',(132.6,-11.4,12.7));
#1420 = LINE('',#1421,#1422);
#1421 = CARTESIAN_POINT('',(132.6,-48.1,12.7));
#1422 = VECTOR('',#1423,1.);
#1423 = DIRECTION('',(0.,1.,0.));
#1424 = ORIENTED_EDGE('',*,*,#796,.F.);
#1425 = ORIENTED_EDGE('',*,*,#1394,.T.);
#1426 = ORIENTED_EDGE('',*,*,#1427,.T.);
#1427 = EDGE_CURVE('',#1395,#1418,#1428,.T.);
#1428 = LINE('',#1429,#1430);
#1429 = CARTESIAN_POINT('',(132.6,-11.4,8.5));
#1430 = VECTOR('',#1431,1.);
#1431 = DIRECTION('',(0.,0.,1.));
#1432 = PLANE('',#1433);
#1433 = AXIS2_PLACEMENT_3D('',#1434,#1435,#1436);
#1434 = CARTESIAN_POINT('',(132.6,-48.1,8.5));
#1435 = DIRECTION('',(1.,0.,0.));
#1436 = DIRECTION('',(0.,0.,1.));
#1437 = ADVANCED_FACE('',(#1438),#1456,.F.);
#1438 = FACE_BOUND('',#1439,.F.);
#1439 = EDGE_LOOP('',(#1440,#1448,#1449,#1450));
#1440 = ORIENTED_EDGE('',*,*,#1441,.F.);
#1441 = EDGE_CURVE('',#781,#1442,#1444,.T.);
#1442 = VERTEX_POINT('',#1443);
#1443 = CARTESIAN_POINT('',(113.,-11.4,12.7));
#1444 = LINE('',#1445,#1446);
#1445 = CARTESIAN_POINT('',(113.,-48.1,12.7));
#1446 = VECTOR('',#1447,1.);
#1447 = DIRECTION('',(0.,1.,0.));
#1448 = ORIENTED_EDGE('',*,*,#788,.F.);
#1449 = ORIENTED_EDGE('',*,*,#1417,.T.);
#1450 = ORIENTED_EDGE('',*,*,#1451,.F.);
#1451 = EDGE_CURVE('',#1442,#1418,#1452,.T.);
#1452 = LINE('',#1453,#1454);
#1453 = CARTESIAN_POINT('',(113.,-11.4,12.7));
#1454 = VECTOR('',#1455,1.);
#1455 = DIRECTION('',(1.,0.,0.));
#1456 = PLANE('',#1457);
#1457 = AXIS2_PLACEMENT_3D('',#1458,#1459,#1460);
#1458 = CARTESIAN_POINT('',(113.,-48.1,12.7));
#1459 = DIRECTION('',(0.,0.,1.));
#1460 = DIRECTION('',(1.,0.,0.));
#1461 = ADVANCED_FACE('',(#1462),#1480,.T.);
#1462 = FACE_BOUND('',#1463,.T.);
#1463 = EDGE_LOOP('',(#1464,#1465,#1466,#1474));
#1464 = ORIENTED_EDGE('',*,*,#1441,.F.);
#1465 = ORIENTED_EDGE('',*,*,#780,.F.);
#1466 = ORIENTED_EDGE('',*,*,#1467,.T.);
#1467 = EDGE_CURVE('',#773,#1468,#1470,.T.);
#1468 = VERTEX_POINT('',#1469);
#1469 = CARTESIAN_POINT('',(113.,-11.4,8.5));
#1470 = LINE('',#1471,#1472);
#1471 = CARTESIAN_POINT('',(113.,-48.1,8.5));
#1472 = VECTOR('',#1473,1.);
#1473 = DIRECTION('',(0.,1.,0.));
#1474 = ORIENTED_EDGE('',*,*,#1475,.T.);
#1475 = EDGE_CURVE('',#1468,#1442,#1476,.T.);
#1476 = LINE('',#1477,#1478);
#1477 = CARTESIAN_POINT('',(113.,-11.4,8.5));
#1478 = VECTOR('',#1479,1.);
#1479 = DIRECTION('',(0.,0.,1.));
#1480 = PLANE('',#1481);
#1481 = AXIS2_PLACEMENT_3D('',#1482,#1483,#1484);
#1482 = CARTESIAN_POINT('',(113.,-48.1,8.5));
#1483 = DIRECTION('',(1.,0.,0.));
#1484 = DIRECTION('',(0.,0.,1.));
#1485 = ADVANCED_FACE('',(#1486),#1497,.T.);
#1486 = FACE_BOUND('',#1487,.T.);
#1487 = EDGE_LOOP('',(#1488,#1489,#1490,#1491));
#1488 = ORIENTED_EDGE('',*,*,#1467,.F.);
#1489 = ORIENTED_EDGE('',*,*,#772,.F.);
#1490 = ORIENTED_EDGE('',*,*,#898,.F.);
#1491 = ORIENTED_EDGE('',*,*,#1492,.F.);
#1492 = EDGE_CURVE('',#1468,#891,#1493,.T.);
#1493 = LINE('',#1494,#1495);
#1494 = CARTESIAN_POINT('',(113.,-11.4,8.5));
#1495 = VECTOR('',#1496,1.);
#1496 = DIRECTION('',(1.,0.,0.));
#1497 = PLANE('',#1498);
#1498 = AXIS2_PLACEMENT_3D('',#1499,#1500,#1501);
#1499 = CARTESIAN_POINT('',(113.,-48.1,8.5));
#1500 = DIRECTION('',(0.,0.,1.));
#1501 = DIRECTION('',(1.,0.,0.));
#1502 = ADVANCED_FACE('',(#1503),#1515,.T.);
#1503 = FACE_BOUND('',#1504,.F.);
#1504 = EDGE_LOOP('',(#1505,#1506,#1507,#1514));
#1505 = ORIENTED_EDGE('',*,*,#1345,.T.);
#1506 = ORIENTED_EDGE('',*,*,#826,.T.);
#1507 = ORIENTED_EDGE('',*,*,#1508,.F.);
#1508 = EDGE_CURVE('',#978,#829,#1509,.T.);
#1509 = CIRCLE('',#1510,1.2);
#1510 = AXIS2_PLACEMENT_3D('',#1511,#1512,#1513);
#1511 = CARTESIAN_POINT('',(133.8,-12.2,15.4));
#1512 = DIRECTION('',(0.,0.,-1.));
#1513 = DIRECTION('',(0.,1.,0.));
#1514 = ORIENTED_EDGE('',*,*,#977,.F.);
#1515 = CYLINDRICAL_SURFACE('',#1516,1.2);
#1516 = AXIS2_PLACEMENT_3D('',#1517,#1518,#1519);
#1517 = CARTESIAN_POINT('',(133.8,-12.2,6.3));
#1518 = DIRECTION('',(0.,0.,1.));
#1519 = DIRECTION('',(0.,1.,0.));
#1520 = ADVANCED_FACE('',(#1521),#1544,.F.);
#1521 = FACE_BOUND('',#1522,.F.);
#1522 = EDGE_LOOP('',(#1523,#1524,#1531,#1539));
#1523 = ORIENTED_EDGE('',*,*,#866,.T.);
#1524 = ORIENTED_EDGE('',*,*,#1525,.T.);
#1525 = EDGE_CURVE('',#860,#1526,#1528,.T.);
#1526 = VERTEX_POINT('',#1527);
#1527 = CARTESIAN_POINT('',(134.6,-65.8,16.6));
#1528 = B_SPLINE_CURVE_WITH_KNOTS('',1,(#1529,#1530),.UNSPECIFIED.,.F.,
  .F.,(2,2),(0.,1.),.PIECEWISE_BEZIER_KNOTS.);
#1529 = CARTESIAN_POINT('',(135.,-65.8,15.4));
#1530 = CARTESIAN_POINT('',(134.6,-65.8,16.6));
#1531 = ORIENTED_EDGE('',*,*,#1532,.F.);
#1532 = EDGE_CURVE('',#1533,#1526,#1535,.T.);
#1533 = VERTEX_POINT('',#1534);
#1534 = CARTESIAN_POINT('',(134.6,-12.2,16.6));
#1535 = LINE('',#1536,#1537);
#1536 = CARTESIAN_POINT('',(134.6,-12.2,16.6));
#1537 = VECTOR('',#1538,1.);
#1538 = DIRECTION('',(0.,-1.,0.));
#1539 = ORIENTED_EDGE('',*,*,#1540,.F.);
#1540 = EDGE_CURVE('',#829,#1533,#1541,.T.);
#1541 = B_SPLINE_CURVE_WITH_KNOTS('',1,(#1542,#1543),.UNSPECIFIED.,.F.,
  .F.,(2,2),(0.,1.),.PIECEWISE_BEZIER_KNOTS.);
#1542 = CARTESIAN_POINT('',(135.,-12.2,15.4));
#1543 = CARTESIAN_POINT('',(134.6,-12.2,16.6));
#1544 = PLANE('',#1545);
#1545 = AXIS2_PLACEMENT_3D('',#1546,#1547,#1548);
#1546 = CARTESIAN_POINT('',(134.6,-12.2,16.6));
#1547 = DIRECTION('',(-0.948683298051,-0.,-0.316227766017));
#1548 = DIRECTION('',(0.,-1.,0.));
#1549 = ADVANCED_FACE('',(#1550),#1561,.F.);
#1550 = FACE_BOUND('',#1551,.F.);
#1551 = EDGE_LOOP('',(#1552,#1553,#1559,#1560));
#1552 = ORIENTED_EDGE('',*,*,#880,.F.);
#1553 = ORIENTED_EDGE('',*,*,#1554,.F.);
#1554 = EDGE_CURVE('',#1361,#881,#1555,.T.);
#1555 = LINE('',#1556,#1557);
#1556 = CARTESIAN_POINT('',(114.65,-11.4,11.8));
#1557 = VECTOR('',#1558,1.);
#1558 = DIRECTION('',(-1.,0.,0.));
#1559 = ORIENTED_EDGE('',*,*,#1360,.T.);
#1560 = ORIENTED_EDGE('',*,*,#953,.T.);
#1561 = PLANE('',#1562);
#1562 = AXIS2_PLACEMENT_3D('',#1563,#1564,#1565);
#1563 = CARTESIAN_POINT('',(116.3,-20.,11.8));
#1564 = DIRECTION('',(0.,0.,1.));
#1565 = DIRECTION('',(1.,0.,0.));
#1566 = ADVANCED_FACE('',(#1567),#1577,.F.);
#1567 = FACE_BOUND('',#1568,.F.);
#1568 = EDGE_LOOP('',(#1569,#1570,#1571,#1572,#1573,#1574,#1575,#1576));
#1569 = ORIENTED_EDGE('',*,*,#1492,.F.);
#1570 = ORIENTED_EDGE('',*,*,#1475,.T.);
#1571 = ORIENTED_EDGE('',*,*,#1451,.T.);
#1572 = ORIENTED_EDGE('',*,*,#1427,.F.);
#1573 = ORIENTED_EDGE('',*,*,#1402,.F.);
#1574 = ORIENTED_EDGE('',*,*,#1368,.T.);
#1575 = ORIENTED_EDGE('',*,*,#1554,.T.);
#1576 = ORIENTED_EDGE('',*,*,#890,.F.);
#1577 = PLANE('',#1578);
#1578 = AXIS2_PLACEMENT_3D('',#1579,#1580,#1581);
#1579 = CARTESIAN_POINT('',(113.,-11.4,8.5));
#1580 = DIRECTION('',(0.,1.,0.));
#1581 = DIRECTION('',(0.,0.,1.));
#1582 = ADVANCED_FACE('',(#1583),#1601,.T.);
#1583 = FACE_BOUND('',#1584,.F.);
#1584 = EDGE_LOOP('',(#1585,#1586,#1593,#1600));
#1585 = ORIENTED_EDGE('',*,*,#928,.T.);
#1586 = ORIENTED_EDGE('',*,*,#1587,.T.);
#1587 = EDGE_CURVE('',#922,#1588,#1590,.T.);
#1588 = VERTEX_POINT('',#1589);
#1589 = CARTESIAN_POINT('',(133.8,-66.6,16.6));
#1590 = B_SPLINE_CURVE_WITH_KNOTS('',1,(#1591,#1592),.UNSPECIFIED.,.F.,
  .F.,(2,2),(0.,1.),.PIECEWISE_BEZIER_KNOTS.);
#1591 = CARTESIAN_POINT('',(133.8,-67.,15.4));
#1592 = CARTESIAN_POINT('',(133.8,-66.6,16.6));
#1593 = ORIENTED_EDGE('',*,*,#1594,.F.);
#1594 = EDGE_CURVE('',#1526,#1588,#1595,.T.);
#1595 = CIRCLE('',#1596,0.8);
#1596 = AXIS2_PLACEMENT_3D('',#1597,#1598,#1599);
#1597 = CARTESIAN_POINT('',(133.8,-65.8,16.6));
#1598 = DIRECTION('',(0.,0.,-1.));
#1599 = DIRECTION('',(1.,-5.3290705182E-14,0.));
#1600 = ORIENTED_EDGE('',*,*,#1525,.F.);
#1601 = CONICAL_SURFACE('',#1602,1.2,0.321750554397);
#1602 = AXIS2_PLACEMENT_3D('',#1603,#1604,#1605);
#1603 = CARTESIAN_POINT('',(133.8,-65.8,15.4));
#1604 = DIRECTION('',(0.,0.,-1.));
#1605 = DIRECTION('',(1.,2.368475785867E-14,0.));
#1606 = ADVANCED_FACE('',(#1607),#1630,.F.);
#1607 = FACE_BOUND('',#1608,.F.);
#1608 = EDGE_LOOP('',(#1609,#1610,#1617,#1625));
#1609 = ORIENTED_EDGE('',*,*,#984,.T.);
#1610 = ORIENTED_EDGE('',*,*,#1611,.T.);
#1611 = EDGE_CURVE('',#978,#1612,#1614,.T.);
#1612 = VERTEX_POINT('',#1613);
#1613 = CARTESIAN_POINT('',(133.8,-11.4,16.6));
#1614 = B_SPLINE_CURVE_WITH_KNOTS('',1,(#1615,#1616),.UNSPECIFIED.,.F.,
  .F.,(2,2),(0.,1.),.PIECEWISE_BEZIER_KNOTS.);
#1615 = CARTESIAN_POINT('',(133.8,-11.,15.4));
#1616 = CARTESIAN_POINT('',(133.8,-11.4,16.6));
#1617 = ORIENTED_EDGE('',*,*,#1618,.F.);
#1618 = EDGE_CURVE('',#1619,#1612,#1621,.T.);
#1619 = VERTEX_POINT('',#1620);
#1620 = CARTESIAN_POINT('',(112.2,-11.4,16.6));
#1621 = LINE('',#1622,#1623);
#1622 = CARTESIAN_POINT('',(112.2,-11.4,16.6));
#1623 = VECTOR('',#1624,1.);
#1624 = DIRECTION('',(1.,0.,0.));
#1625 = ORIENTED_EDGE('',*,*,#1626,.F.);
#1626 = EDGE_CURVE('',#945,#1619,#1627,.T.);
#1627 = B_SPLINE_CURVE_WITH_KNOTS('',1,(#1628,#1629),.UNSPECIFIED.,.F.,
  .F.,(2,2),(0.,1.),.PIECEWISE_BEZIER_KNOTS.);
#1628 = CARTESIAN_POINT('',(112.2,-11.,15.4));
#1629 = CARTESIAN_POINT('',(112.2,-11.4,16.6));
#1630 = PLANE('',#1631);
#1631 = AXIS2_PLACEMENT_3D('',#1632,#1633,#1634);
#1632 = CARTESIAN_POINT('',(112.2,-11.4,16.6));
#1633 = DIRECTION('',(0.,-0.948683298051,-0.316227766017));
#1634 = DIRECTION('',(1.,0.,0.));
#1635 = ADVANCED_FACE('',(#1636),#1653,.F.);
#1636 = FACE_BOUND('',#1637,.F.);
#1637 = EDGE_LOOP('',(#1638,#1639,#1646,#1652));
#1638 = ORIENTED_EDGE('',*,*,#1006,.T.);
#1639 = ORIENTED_EDGE('',*,*,#1640,.T.);
#1640 = EDGE_CURVE('',#1000,#1641,#1643,.T.);
#1641 = VERTEX_POINT('',#1642);
#1642 = CARTESIAN_POINT('',(112.2,-66.6,16.6));
#1643 = B_SPLINE_CURVE_WITH_KNOTS('',1,(#1644,#1645),.UNSPECIFIED.,.F.,
  .F.,(2,2),(0.,1.),.PIECEWISE_BEZIER_KNOTS.);
#1644 = CARTESIAN_POINT('',(112.2,-67.,15.4));
#1645 = CARTESIAN_POINT('',(112.2,-66.6,16.6));
#1646 = ORIENTED_EDGE('',*,*,#1647,.F.);
#1647 = EDGE_CURVE('',#1588,#1641,#1648,.T.);
#1648 = LINE('',#1649,#1650);
#1649 = CARTESIAN_POINT('',(133.8,-66.6,16.6));
#1650 = VECTOR('',#1651,1.);
#1651 = DIRECTION('',(-1.,0.,0.));
#1652 = ORIENTED_EDGE('',*,*,#1587,.F.);
#1653 = PLANE('',#1654);
#1654 = AXIS2_PLACEMENT_3D('',#1655,#1656,#1657);
#1655 = CARTESIAN_POINT('',(133.8,-66.6,16.6));
#1656 = DIRECTION('',(0.,0.948683298051,-0.316227766017));
#1657 = DIRECTION('',(-1.,0.,0.));
#1658 = ADVANCED_FACE('',(#1659),#1677,.T.);
#1659 = FACE_BOUND('',#1660,.F.);
#1660 = EDGE_LOOP('',(#1661,#1662,#1663,#1672));
#1661 = ORIENTED_EDGE('',*,*,#1023,.T.);
#1662 = ORIENTED_EDGE('',*,*,#1626,.T.);
#1663 = ORIENTED_EDGE('',*,*,#1664,.F.);
#1664 = EDGE_CURVE('',#1665,#1619,#1667,.T.);
#1665 = VERTEX_POINT('',#1666);
#1666 = CARTESIAN_POINT('',(111.4,-12.2,16.6));
#1667 = CIRCLE('',#1668,0.8);
#1668 = AXIS2_PLACEMENT_3D('',#1669,#1670,#1671);
#1669 = CARTESIAN_POINT('',(112.2,-12.2,16.6));
#1670 = DIRECTION('',(0.,0.,-1.));
#1671 = DIRECTION('',(-1.,0.,0.));
#1672 = ORIENTED_EDGE('',*,*,#1673,.F.);
#1673 = EDGE_CURVE('',#1024,#1665,#1674,.T.);
#1674 = B_SPLINE_CURVE_WITH_KNOTS('',1,(#1675,#1676),.UNSPECIFIED.,.F.,
  .F.,(2,2),(0.,1.),.PIECEWISE_BEZIER_KNOTS.);
#1675 = CARTESIAN_POINT('',(111.,-12.2,15.4));
#1676 = CARTESIAN_POINT('',(111.4,-12.2,16.6));
#1677 = CONICAL_SURFACE('',#1678,1.2,0.321750554397);
#1678 = AXIS2_PLACEMENT_3D('',#1679,#1680,#1681);
#1679 = CARTESIAN_POINT('',(112.2,-12.2,15.4));
#1680 = DIRECTION('',(0.,0.,-1.));
#1681 = DIRECTION('',(-1.,4.440892098501E-15,0.));
#1682 = ADVANCED_FACE('',(#1683),#1701,.T.);
#1683 = FACE_BOUND('',#1684,.F.);
#1684 = EDGE_LOOP('',(#1685,#1686,#1693,#1700));
#1685 = ORIENTED_EDGE('',*,*,#1053,.T.);
#1686 = ORIENTED_EDGE('',*,*,#1687,.T.);
#1687 = EDGE_CURVE('',#1047,#1688,#1690,.T.);
#1688 = VERTEX_POINT('',#1689);
#1689 = CARTESIAN_POINT('',(111.4,-65.8,16.6));
#1690 = B_SPLINE_CURVE_WITH_KNOTS('',1,(#1691,#1692),.UNSPECIFIED.,.F.,
  .F.,(2,2),(0.,1.),.PIECEWISE_BEZIER_KNOTS.);
#1691 = CARTESIAN_POINT('',(111.,-65.8,15.4));
#1692 = CARTESIAN_POINT('',(111.4,-65.8,16.6));
#1693 = ORIENTED_EDGE('',*,*,#1694,.F.);
#1694 = EDGE_CURVE('',#1641,#1688,#1695,.T.);
#1695 = CIRCLE('',#1696,0.8);
#1696 = AXIS2_PLACEMENT_3D('',#1697,#1698,#1699);
#1697 = CARTESIAN_POINT('',(112.2,-65.8,16.6));
#1698 = DIRECTION('',(0.,0.,-1.));
#1699 = DIRECTION('',(0.,-1.,0.));
#1700 = ORIENTED_EDGE('',*,*,#1640,.F.);
#1701 = CONICAL_SURFACE('',#1702,1.2,0.321750554397);
#1702 = AXIS2_PLACEMENT_3D('',#1703,#1704,#1705);
#1703 = CARTESIAN_POINT('',(112.2,-65.8,15.4));
#1704 = DIRECTION('',(0.,0.,-1.));
#1705 = DIRECTION('',(0.,-1.,0.));
#1706 = ADVANCED_FACE('',(#1707),#1718,.F.);
#1707 = FACE_BOUND('',#1708,.F.);
#1708 = EDGE_LOOP('',(#1709,#1710,#1711,#1717));
#1709 = ORIENTED_EDGE('',*,*,#1071,.T.);
#1710 = ORIENTED_EDGE('',*,*,#1673,.T.);
#1711 = ORIENTED_EDGE('',*,*,#1712,.F.);
#1712 = EDGE_CURVE('',#1688,#1665,#1713,.T.);
#1713 = LINE('',#1714,#1715);
#1714 = CARTESIAN_POINT('',(111.4,-65.8,16.6));
#1715 = VECTOR('',#1716,1.);
#1716 = DIRECTION('',(0.,1.,0.));
#1717 = ORIENTED_EDGE('',*,*,#1687,.F.);
#1718 = PLANE('',#1719);
#1719 = AXIS2_PLACEMENT_3D('',#1720,#1721,#1722);
#1720 = CARTESIAN_POINT('',(111.4,-65.8,16.6));
#1721 = DIRECTION('',(0.948683298051,0.,-0.316227766017));
#1722 = DIRECTION('',(0.,1.,0.));
#1723 = ADVANCED_FACE('',(#1724,#1735),#1738,.T.);
#1724 = FACE_BOUND('',#1725,.T.);
#1725 = EDGE_LOOP('',(#1726));
#1726 = ORIENTED_EDGE('',*,*,#1727,.T.);
#1727 = EDGE_CURVE('',#1728,#1728,#1730,.T.);
#1728 = VERTEX_POINT('',#1729);
#1729 = CARTESIAN_POINT('',(132.45,-64.,14.9));
#1730 = CIRCLE('',#1731,1.85);
#1731 = AXIS2_PLACEMENT_3D('',#1732,#1733,#1734);
#1732 = CARTESIAN_POINT('',(130.6,-64.,14.9));
#1733 = DIRECTION('',(0.,0.,1.));
#1734 = DIRECTION('',(1.,0.,0.));
#1735 = FACE_BOUND('',#1736,.T.);
#1736 = EDGE_LOOP('',(#1737));
#1737 = ORIENTED_EDGE('',*,*,#1096,.T.);
#1738 = PLANE('',#1739);
#1739 = AXIS2_PLACEMENT_3D('',#1740,#1741,#1742);
#1740 = CARTESIAN_POINT('',(130.6,-64.,14.9));
#1741 = DIRECTION('',(0.,0.,1.));
#1742 = DIRECTION('',(1.,0.,0.));
#1743 = ADVANCED_FACE('',(#1744,#1755),#1758,.T.);
#1744 = FACE_BOUND('',#1745,.T.);
#1745 = EDGE_LOOP('',(#1746));
#1746 = ORIENTED_EDGE('',*,*,#1747,.T.);
#1747 = EDGE_CURVE('',#1748,#1748,#1750,.T.);
#1748 = VERTEX_POINT('',#1749);
#1749 = CARTESIAN_POINT('',(116.35,-64.,14.9));
#1750 = CIRCLE('',#1751,1.85);
#1751 = AXIS2_PLACEMENT_3D('',#1752,#1753,#1754);
#1752 = CARTESIAN_POINT('',(114.5,-64.,14.9));
#1753 = DIRECTION('',(0.,0.,1.));
#1754 = DIRECTION('',(1.,0.,0.));
#1755 = FACE_BOUND('',#1756,.T.);
#1756 = EDGE_LOOP('',(#1757));
#1757 = ORIENTED_EDGE('',*,*,#1121,.T.);
#1758 = PLANE('',#1759);
#1759 = AXIS2_PLACEMENT_3D('',#1760,#1761,#1762);
#1760 = CARTESIAN_POINT('',(114.5,-64.,14.9));
#1761 = DIRECTION('',(0.,0.,1.));
#1762 = DIRECTION('',(1.,0.,0.));
#1763 = ADVANCED_FACE('',(#1764,#1780,#1791,#1794,#1805),#1811,.T.);
#1764 = FACE_BOUND('',#1765,.T.);
#1765 = EDGE_LOOP('',(#1766,#1767,#1768,#1769,#1770,#1771,#1772,#1779));
#1766 = ORIENTED_EDGE('',*,*,#1664,.F.);
#1767 = ORIENTED_EDGE('',*,*,#1712,.F.);
#1768 = ORIENTED_EDGE('',*,*,#1694,.F.);
#1769 = ORIENTED_EDGE('',*,*,#1647,.F.);
#1770 = ORIENTED_EDGE('',*,*,#1594,.F.);
#1771 = ORIENTED_EDGE('',*,*,#1532,.F.);
#1772 = ORIENTED_EDGE('',*,*,#1773,.F.);
#1773 = EDGE_CURVE('',#1612,#1533,#1774,.T.);
#1774 = CIRCLE('',#1775,0.8);
#1775 = AXIS2_PLACEMENT_3D('',#1776,#1777,#1778);
#1776 = CARTESIAN_POINT('',(133.8,-12.2,16.6));
#1777 = DIRECTION('',(0.,0.,-1.));
#1778 = DIRECTION('',(3.5527136788E-14,1.,0.));
#1779 = ORIENTED_EDGE('',*,*,#1618,.F.);
#1780 = FACE_BOUND('',#1781,.T.);
#1781 = EDGE_LOOP('',(#1782));
#1782 = ORIENTED_EDGE('',*,*,#1783,.T.);
#1783 = EDGE_CURVE('',#1784,#1784,#1786,.T.);
#1784 = VERTEX_POINT('',#1785);
#1785 = CARTESIAN_POINT('',(116.35,-64.,16.6));
#1786 = CIRCLE('',#1787,1.85);
#1787 = AXIS2_PLACEMENT_3D('',#1788,#1789,#1790);
#1788 = CARTESIAN_POINT('',(114.5,-64.,16.6));
#1789 = DIRECTION('',(0.,0.,-1.));
#1790 = DIRECTION('',(1.,0.,0.));
#1791 = FACE_BOUND('',#1792,.T.);
#1792 = EDGE_LOOP('',(#1793));
#1793 = ORIENTED_EDGE('',*,*,#1186,.T.);
#1794 = FACE_BOUND('',#1795,.T.);
#1795 = EDGE_LOOP('',(#1796));
#1796 = ORIENTED_EDGE('',*,*,#1797,.T.);
#1797 = EDGE_CURVE('',#1798,#1798,#1800,.T.);
#1798 = VERTEX_POINT('',#1799);
#1799 = CARTESIAN_POINT('',(132.45,-64.,16.6));
#1800 = CIRCLE('',#1801,1.85);
#1801 = AXIS2_PLACEMENT_3D('',#1802,#1803,#1804);
#1802 = CARTESIAN_POINT('',(130.6,-64.,16.6));
#1803 = DIRECTION('',(0.,0.,-1.));
#1804 = DIRECTION('',(1.,0.,0.));
#1805 = FACE_BOUND('',#1806,.T.);
#1806 = EDGE_LOOP('',(#1807,#1808,#1809,#1810));
#1807 = ORIENTED_EDGE('',*,*,#1284,.T.);
#1808 = ORIENTED_EDGE('',*,*,#1243,.T.);
#1809 = ORIENTED_EDGE('',*,*,#1219,.F.);
#1810 = ORIENTED_EDGE('',*,*,#1267,.F.);
#1811 = PLANE('',#1812);
#1812 = AXIS2_PLACEMENT_3D('',#1813,#1814,#1815);
#1813 = CARTESIAN_POINT('',(123.,-39.,16.6));
#1814 = DIRECTION('',(0.,0.,1.));
#1815 = DIRECTION('',(1.,0.,0.));
#1816 = ADVANCED_FACE('',(#1817),#1823,.T.);
#1817 = FACE_BOUND('',#1818,.F.);
#1818 = EDGE_LOOP('',(#1819,#1820,#1821,#1822));
#1819 = ORIENTED_EDGE('',*,*,#1508,.T.);
#1820 = ORIENTED_EDGE('',*,*,#1540,.T.);
#1821 = ORIENTED_EDGE('',*,*,#1773,.F.);
#1822 = ORIENTED_EDGE('',*,*,#1611,.F.);
#1823 = CONICAL_SURFACE('',#1824,1.2,0.321750554397);
#1824 = AXIS2_PLACEMENT_3D('',#1825,#1826,#1827);
#1825 = CARTESIAN_POINT('',(133.8,-12.2,15.4));
#1826 = DIRECTION('',(0.,0.,-1.));
#1827 = DIRECTION('',(0.,1.,0.));
#1828 = ADVANCED_FACE('',(#1829),#1840,.F.);
#1829 = FACE_BOUND('',#1830,.T.);
#1830 = EDGE_LOOP('',(#1831,#1832,#1838,#1839));
#1831 = ORIENTED_EDGE('',*,*,#1727,.F.);
#1832 = ORIENTED_EDGE('',*,*,#1833,.T.);
#1833 = EDGE_CURVE('',#1728,#1798,#1834,.T.);
#1834 = LINE('',#1835,#1836);
#1835 = CARTESIAN_POINT('',(132.45,-64.,14.9));
#1836 = VECTOR('',#1837,1.);
#1837 = DIRECTION('',(0.,0.,1.));
#1838 = ORIENTED_EDGE('',*,*,#1797,.F.);
#1839 = ORIENTED_EDGE('',*,*,#1833,.F.);
#1840 = CYLINDRICAL_SURFACE('',#1841,1.85);
#1841 = AXIS2_PLACEMENT_3D('',#1842,#1843,#1844);
#1842 = CARTESIAN_POINT('',(130.6,-64.,14.9));
#1843 = DIRECTION('',(-0.,-0.,-1.));
#1844 = DIRECTION('',(1.,0.,0.));
#1845 = ADVANCED_FACE('',(#1846),#1857,.F.);
#1846 = FACE_BOUND('',#1847,.T.);
#1847 = EDGE_LOOP('',(#1848,#1849,#1855,#1856));
#1848 = ORIENTED_EDGE('',*,*,#1747,.F.);
#1849 = ORIENTED_EDGE('',*,*,#1850,.T.);
#1850 = EDGE_CURVE('',#1748,#1784,#1851,.T.);
#1851 = LINE('',#1852,#1853);
#1852 = CARTESIAN_POINT('',(116.35,-64.,14.9));
#1853 = VECTOR('',#1854,1.);
#1854 = DIRECTION('',(0.,0.,1.));
#1855 = ORIENTED_EDGE('',*,*,#1783,.F.);
#1856 = ORIENTED_EDGE('',*,*,#1850,.F.);
#1857 = CYLINDRICAL_SURFACE('',#1858,1.85);
#1858 = AXIS2_PLACEMENT_3D('',#1859,#1860,#1861);
#1859 = CARTESIAN_POINT('',(114.5,-64.,14.9));
#1860 = DIRECTION('',(-0.,-0.,-1.));
#1861 = DIRECTION('',(1.,0.,0.));
#1862 = ( GEOMETRIC_REPRESENTATION_CONTEXT(3) 
GLOBAL_UNCERTAINTY_ASSIGNED_CONTEXT((#1866)) 
GLOBAL_UNIT_ASSIGNED_CONTEXT((#1863,#1864,#1865)) REPRESENTATION_CONTEXT
('Context #1','3D Context with UNIT and UNCERTAINTY') );
#1863 = ( LENGTH_UNIT() NAMED_UNIT(*) SI_UNIT(.MILLI.,.METRE.) );
#1864 = ( NAMED_UNIT(*) PLANE_ANGLE_UNIT() SI_UNIT($,.RADIAN.) );
#1865 = ( NAMED_UNIT(*) SI_UNIT($,.STERADIAN.) SOLID_ANGLE_UNIT() );
#1866 = UNCERTAINTY_MEASURE_WITH_UNIT(LENGTH_MEASURE(2.E-05),#1863,
  'distance_accuracy_value','confusion accuracy');
#1867 = PRODUCT_RELATED_PRODUCT_CATEGORY('part',$,(#7));
ENDSEC;
END-ISO-10303-21;
