ISO-10303-21;
HEADER;
FILE_DESCRIPTION(('FreeCAD Model'),'2;1');
FILE_NAME('Open CASCADE Shape Model','2026-09-21T19:39:04',('FreeCAD'),(
    'FreeCAD'),'Open CASCADE STEP processor 7.8','FreeCAD','Unknown');
FILE_SCHEMA(('AUTOMOTIVE_DESIGN { 1 0 10303 214 1 1 1 1 }'));
ENDSEC;
DATA;
#1 = APPLICATION_PROTOCOL_DEFINITION('international standard',
  'automotive_design',2000,#2);
#2 = APPLICATION_CONTEXT(
  'core data for automotive mechanical design processes');
#3 = SHAPE_DEFINITION_REPRESENTATION(#4,#10);
#4 = PRODUCT_DEFINITION_SHAPE('','',#5);
#5 = PRODUCT_DEFINITION('design','',#6,#9);
#6 = PRODUCT_DEFINITION_FORMATION('','',#7);
#7 = PRODUCT('Open CASCADE STEP translator 7.8 32',
  'Open CASCADE STEP translator 7.8 32','',(#8));
#8 = PRODUCT_CONTEXT('',#2,'mechanical');
#9 = PRODUCT_DEFINITION_CONTEXT('part definition',#2,'design');
#10 = ADVANCED_BREP_SHAPE_REPRESENTATION('',(#11,#15),#1862);
#11 = AXIS2_PLACEMENT_3D('',#12,#13,#14);
#12 = CARTESIAN_POINT('',(0.,0.,0.));
#13 = DIRECTION('',(0.,0.,1.));
#14 = DIRECTION('',(1.,0.,-0.));
#15 = MANIFOLD_SOLID_BREP('',#16);
#16 = CLOSED_SHELL('',(#17,#57,#249,#284,#496,#515,#537,#554,#571,#583,
    #600,#617,#634,#683,#707,#731,#810,#827,#839,#864,#895,#919,#943,
    #960,#1000,#1054,#1078,#1102,#1156,#1179,#1203,#1227,#1244,#1269,
    #1294,#1311,#1328,#1356,#1389,#1413,#1437,#1461,#1485,#1502,#1609,
    #1626,#1642,#1662,#1680,#1696,#1716,#1732,#1748,#1764,#1776,#1796,
    #1816,#1828,#1845));
#17 = ADVANCED_FACE('',(#18),#52,.F.);
#18 = FACE_BOUND('',#19,.F.);
#19 = EDGE_LOOP('',(#20,#30,#38,#46));
#20 = ORIENTED_EDGE('',*,*,#21,.T.);
#21 = EDGE_CURVE('',#22,#24,#26,.T.);
#22 = VERTEX_POINT('',#23);
#23 = CARTESIAN_POINT('',(44.418334617361,-65.8,15.4));
#24 = VERTEX_POINT('',#25);
#25 = CARTESIAN_POINT('',(30.481665382639,-65.8,15.4));
#26 = LINE('',#27,#28);
#27 = CARTESIAN_POINT('',(47.770541653469,-65.8,15.4));
#28 = VECTOR('',#29,1.);
#29 = DIRECTION('',(-1.,0.,0.));
#30 = ORIENTED_EDGE('',*,*,#31,.T.);
#31 = EDGE_CURVE('',#24,#32,#34,.T.);
#32 = VERTEX_POINT('',#33);
#33 = CARTESIAN_POINT('',(30.481665382639,-65.8,6.3));
#34 = LINE('',#35,#36);
#35 = CARTESIAN_POINT('',(30.481665382639,-65.8,6.3));
#36 = VECTOR('',#37,1.);
#37 = DIRECTION('',(-0.,-0.,-1.));
#38 = ORIENTED_EDGE('',*,*,#39,.T.);
#39 = EDGE_CURVE('',#32,#40,#42,.T.);
#40 = VERTEX_POINT('',#41);
#41 = CARTESIAN_POINT('',(44.418334617361,-65.8,6.3));
#42 = LINE('',#43,#44);
#43 = CARTESIAN_POINT('',(47.785270826735,-65.8,6.3));
#44 = VECTOR('',#45,1.);
#45 = DIRECTION('',(1.,0.,0.));
#46 = ORIENTED_EDGE('',*,*,#47,.F.);
#47 = EDGE_CURVE('',#22,#40,#48,.T.);
#48 = LINE('',#49,#50);
#49 = CARTESIAN_POINT('',(44.418334617361,-65.8,6.3));
#50 = VECTOR('',#51,1.);
#51 = DIRECTION('',(-0.,-0.,-1.));
#52 = PLANE('',#53);
#53 = AXIS2_PLACEMENT_3D('',#54,#55,#56);
#54 = CARTESIAN_POINT('',(47.770541653469,-65.8,6.2));
#55 = DIRECTION('',(0.,-1.,0.));
#56 = DIRECTION('',(-1.,0.,0.));
#57 = ADVANCED_FACE('',(#58,#199,#210),#244,.F.);
#58 = FACE_BOUND('',#59,.F.);
#59 = EDGE_LOOP('',(#60,#70,#78,#86,#94,#102,#110,#118,#126,#134,#142,
    #151,#158,#159,#168,#177,#185,#193));
#60 = ORIENTED_EDGE('',*,*,#61,.F.);
#61 = EDGE_CURVE('',#62,#64,#66,.T.);
#62 = VERTEX_POINT('',#63);
#63 = CARTESIAN_POINT('',(47.8,-12.22945834653,15.4));
#64 = VERTEX_POINT('',#65);
#65 = CARTESIAN_POINT('',(47.8,-65.77054165346,15.4));
#66 = LINE('',#67,#68);
#67 = CARTESIAN_POINT('',(47.8,-12.22945834653,15.4));
#68 = VECTOR('',#69,1.);
#69 = DIRECTION('',(0.,-1.,0.));
#70 = ORIENTED_EDGE('',*,*,#71,.F.);
#71 = EDGE_CURVE('',#72,#62,#74,.T.);
#72 = VERTEX_POINT('',#73);
#73 = CARTESIAN_POINT('',(47.798620571226,-12.20137942877,15.4));
#74 = LINE('',#75,#76);
#75 = CARTESIAN_POINT('',(47.798620571226,-12.20137942877,15.4));
#76 = VECTOR('',#77,1.);
#77 = DIRECTION('',(4.906767432758E-02,-0.998795456205,0.));
#78 = ORIENTED_EDGE('',*,*,#79,.F.);
#79 = EDGE_CURVE('',#80,#72,#82,.T.);
#80 = VERTEX_POINT('',#81);
#81 = CARTESIAN_POINT('',(47.770541653469,-12.2,15.4));
#82 = LINE('',#83,#84);
#83 = CARTESIAN_POINT('',(47.770541653469,-12.2,15.4));
#84 = VECTOR('',#85,1.);
#85 = DIRECTION('',(0.998795456205,-4.906767432741E-02,0.));
#86 = ORIENTED_EDGE('',*,*,#87,.F.);
#87 = EDGE_CURVE('',#88,#80,#90,.T.);
#88 = VERTEX_POINT('',#89);
#89 = CARTESIAN_POINT('',(26.229458346531,-12.2,15.4));
#90 = LINE('',#91,#92);
#91 = CARTESIAN_POINT('',(26.229458346531,-12.2,15.4));
#92 = VECTOR('',#93,1.);
#93 = DIRECTION('',(1.,0.,0.));
#94 = ORIENTED_EDGE('',*,*,#95,.F.);
#95 = EDGE_CURVE('',#96,#88,#98,.T.);
#96 = VERTEX_POINT('',#97);
#97 = CARTESIAN_POINT('',(26.201379428774,-12.20137942877,15.4));
#98 = LINE('',#99,#100);
#99 = CARTESIAN_POINT('',(26.201379428774,-12.20137942877,15.4));
#100 = VECTOR('',#101,1.);
#101 = DIRECTION('',(0.998795456205,4.906767432739E-02,0.));
#102 = ORIENTED_EDGE('',*,*,#103,.F.);
#103 = EDGE_CURVE('',#104,#96,#106,.T.);
#104 = VERTEX_POINT('',#105);
#105 = CARTESIAN_POINT('',(26.2,-12.22945834653,15.4));
#106 = LINE('',#107,#108);
#107 = CARTESIAN_POINT('',(26.2,-12.22945834653,15.4));
#108 = VECTOR('',#109,1.);
#109 = DIRECTION('',(4.906767432733E-02,0.998795456205,0.));
#110 = ORIENTED_EDGE('',*,*,#111,.F.);
#111 = EDGE_CURVE('',#112,#104,#114,.T.);
#112 = VERTEX_POINT('',#113);
#113 = CARTESIAN_POINT('',(26.2,-65.77054165346,15.4));
#114 = LINE('',#115,#116);
#115 = CARTESIAN_POINT('',(26.2,-65.77054165346,15.4));
#116 = VECTOR('',#117,1.);
#117 = DIRECTION('',(0.,1.,0.));
#118 = ORIENTED_EDGE('',*,*,#119,.F.);
#119 = EDGE_CURVE('',#120,#112,#122,.T.);
#120 = VERTEX_POINT('',#121);
#121 = CARTESIAN_POINT('',(26.201379428774,-65.79862057122,15.4));
#122 = LINE('',#123,#124);
#123 = CARTESIAN_POINT('',(26.201379428774,-65.79862057122,15.4));
#124 = VECTOR('',#125,1.);
#125 = DIRECTION('',(-4.906767432734E-02,0.998795456205,0.));
#126 = ORIENTED_EDGE('',*,*,#127,.F.);
#127 = EDGE_CURVE('',#128,#120,#130,.T.);
#128 = VERTEX_POINT('',#129);
#129 = CARTESIAN_POINT('',(26.229458346531,-65.8,15.4));
#130 = LINE('',#131,#132);
#131 = CARTESIAN_POINT('',(26.229458346531,-65.8,15.4));
#132 = VECTOR('',#133,1.);
#133 = DIRECTION('',(-0.998795456205,4.906767432757E-02,0.));
#134 = ORIENTED_EDGE('',*,*,#135,.F.);
#135 = EDGE_CURVE('',#136,#128,#138,.T.);
#136 = VERTEX_POINT('',#137);
#137 = CARTESIAN_POINT('',(28.318334617361,-65.8,15.4));
#138 = LINE('',#139,#140);
#139 = CARTESIAN_POINT('',(47.770541653469,-65.8,15.4));
#140 = VECTOR('',#141,1.);
#141 = DIRECTION('',(-1.,0.,0.));
#142 = ORIENTED_EDGE('',*,*,#143,.T.);
#143 = EDGE_CURVE('',#136,#144,#146,.T.);
#144 = VERTEX_POINT('',#145);
#145 = CARTESIAN_POINT('',(31.5,-64.,15.4));
#146 = CIRCLE('',#147,2.1);
#147 = AXIS2_PLACEMENT_3D('',#148,#149,#150);
#148 = CARTESIAN_POINT('',(29.4,-64.,15.4));
#149 = DIRECTION('',(0.,0.,-1.));
#150 = DIRECTION('',(1.,0.,0.));
#151 = ORIENTED_EDGE('',*,*,#152,.T.);
#152 = EDGE_CURVE('',#144,#24,#153,.T.);
#153 = CIRCLE('',#154,2.1);
#154 = AXIS2_PLACEMENT_3D('',#155,#156,#157);
#155 = CARTESIAN_POINT('',(29.4,-64.,15.4));
#156 = DIRECTION('',(0.,0.,-1.));
#157 = DIRECTION('',(1.,0.,0.));
#158 = ORIENTED_EDGE('',*,*,#21,.F.);
#159 = ORIENTED_EDGE('',*,*,#160,.T.);
#160 = EDGE_CURVE('',#22,#161,#163,.T.);
#161 = VERTEX_POINT('',#162);
#162 = CARTESIAN_POINT('',(47.6,-64.,15.4));
#163 = CIRCLE('',#164,2.1);
#164 = AXIS2_PLACEMENT_3D('',#165,#166,#167);
#165 = CARTESIAN_POINT('',(45.5,-64.,15.4));
#166 = DIRECTION('',(0.,0.,-1.));
#167 = DIRECTION('',(1.,0.,0.));
#168 = ORIENTED_EDGE('',*,*,#169,.T.);
#169 = EDGE_CURVE('',#161,#170,#172,.T.);
#170 = VERTEX_POINT('',#171);
#171 = CARTESIAN_POINT('',(46.581665382639,-65.8,15.4));
#172 = CIRCLE('',#173,2.1);
#173 = AXIS2_PLACEMENT_3D('',#174,#175,#176);
#174 = CARTESIAN_POINT('',(45.5,-64.,15.4));
#175 = DIRECTION('',(0.,0.,-1.));
#176 = DIRECTION('',(1.,0.,0.));
#177 = ORIENTED_EDGE('',*,*,#178,.F.);
#178 = EDGE_CURVE('',#179,#170,#181,.T.);
#179 = VERTEX_POINT('',#180);
#180 = CARTESIAN_POINT('',(47.770541653469,-65.8,15.4));
#181 = LINE('',#182,#183);
#182 = CARTESIAN_POINT('',(47.770541653469,-65.8,15.4));
#183 = VECTOR('',#184,1.);
#184 = DIRECTION('',(-1.,0.,0.));
#185 = ORIENTED_EDGE('',*,*,#186,.F.);
#186 = EDGE_CURVE('',#187,#179,#189,.T.);
#187 = VERTEX_POINT('',#188);
#188 = CARTESIAN_POINT('',(47.798620571226,-65.79862057122,15.4));
#189 = LINE('',#190,#191);
#190 = CARTESIAN_POINT('',(47.798620571226,-65.79862057122,15.4));
#191 = VECTOR('',#192,1.);
#192 = DIRECTION('',(-0.998795456205,-4.906767432757E-02,0.));
#193 = ORIENTED_EDGE('',*,*,#194,.F.);
#194 = EDGE_CURVE('',#64,#187,#195,.T.);
#195 = LINE('',#196,#197);
#196 = CARTESIAN_POINT('',(47.8,-65.77054165346,15.4));
#197 = VECTOR('',#198,1.);
#198 = DIRECTION('',(-4.906767432757E-02,-0.998795456205,0.));
#199 = FACE_BOUND('',#200,.F.);
#200 = EDGE_LOOP('',(#201));
#201 = ORIENTED_EDGE('',*,*,#202,.T.);
#202 = EDGE_CURVE('',#203,#203,#205,.T.);
#203 = VERTEX_POINT('',#204);
#204 = CARTESIAN_POINT('',(38.4,-59.5,15.4));
#205 = CIRCLE('',#206,1.4);
#206 = AXIS2_PLACEMENT_3D('',#207,#208,#209);
#207 = CARTESIAN_POINT('',(37.,-59.5,15.4));
#208 = DIRECTION('',(0.,0.,-1.));
#209 = DIRECTION('',(1.,0.,0.));
#210 = FACE_BOUND('',#211,.F.);
#211 = EDGE_LOOP('',(#212,#222,#230,#238));
#212 = ORIENTED_EDGE('',*,*,#213,.T.);
#213 = EDGE_CURVE('',#214,#216,#218,.T.);
#214 = VERTEX_POINT('',#215);
#215 = CARTESIAN_POINT('',(44.45,-49.35,15.4));
#216 = VERTEX_POINT('',#217);
#217 = CARTESIAN_POINT('',(29.95,-49.35,15.4));
#218 = LINE('',#219,#220);
#219 = CARTESIAN_POINT('',(33.475,-49.35,15.4));
#220 = VECTOR('',#221,1.);
#221 = DIRECTION('',(-1.,0.,0.));
#222 = ORIENTED_EDGE('',*,*,#223,.T.);
#223 = EDGE_CURVE('',#216,#224,#226,.T.);
#224 = VERTEX_POINT('',#225);
#225 = CARTESIAN_POINT('',(29.95,-18.25,15.4));
#226 = LINE('',#227,#228);
#227 = CARTESIAN_POINT('',(29.95,-44.175,15.4));
#228 = VECTOR('',#229,1.);
#229 = DIRECTION('',(0.,1.,0.));
#230 = ORIENTED_EDGE('',*,*,#231,.F.);
#231 = EDGE_CURVE('',#232,#224,#234,.T.);
#232 = VERTEX_POINT('',#233);
#233 = CARTESIAN_POINT('',(44.45,-18.25,15.4));
#234 = LINE('',#235,#236);
#235 = CARTESIAN_POINT('',(33.475,-18.25,15.4));
#236 = VECTOR('',#237,1.);
#237 = DIRECTION('',(-1.,0.,0.));
#238 = ORIENTED_EDGE('',*,*,#239,.F.);
#239 = EDGE_CURVE('',#214,#232,#240,.T.);
#240 = LINE('',#241,#242);
#241 = CARTESIAN_POINT('',(44.45,-44.175,15.4));
#242 = VECTOR('',#243,1.);
#243 = DIRECTION('',(0.,1.,0.));
#244 = PLANE('',#245);
#245 = AXIS2_PLACEMENT_3D('',#246,#247,#248);
#246 = CARTESIAN_POINT('',(37.,-39.,15.4));
#247 = DIRECTION('',(0.,0.,1.));
#248 = DIRECTION('',(1.,0.,0.));
#249 = ADVANCED_FACE('',(#250),#279,.T.);
#250 = FACE_BOUND('',#251,.F.);
#251 = EDGE_LOOP('',(#252,#260,#261,#262,#263,#272));
#252 = ORIENTED_EDGE('',*,*,#253,.F.);
#253 = EDGE_CURVE('',#170,#254,#256,.T.);
#254 = VERTEX_POINT('',#255);
#255 = CARTESIAN_POINT('',(46.581665382639,-65.8,6.3));
#256 = LINE('',#257,#258);
#257 = CARTESIAN_POINT('',(46.581665382639,-65.8,6.3));
#258 = VECTOR('',#259,1.);
#259 = DIRECTION('',(-0.,-0.,-1.));
#260 = ORIENTED_EDGE('',*,*,#169,.F.);
#261 = ORIENTED_EDGE('',*,*,#160,.F.);
#262 = ORIENTED_EDGE('',*,*,#47,.T.);
#263 = ORIENTED_EDGE('',*,*,#264,.F.);
#264 = EDGE_CURVE('',#265,#40,#267,.T.);
#265 = VERTEX_POINT('',#266);
#266 = CARTESIAN_POINT('',(47.6,-64.,6.3));
#267 = CIRCLE('',#268,2.1);
#268 = AXIS2_PLACEMENT_3D('',#269,#270,#271);
#269 = CARTESIAN_POINT('',(45.5,-64.,6.3));
#270 = DIRECTION('',(0.,0.,1.));
#271 = DIRECTION('',(1.,0.,0.));
#272 = ORIENTED_EDGE('',*,*,#273,.F.);
#273 = EDGE_CURVE('',#254,#265,#274,.T.);
#274 = CIRCLE('',#275,2.1);
#275 = AXIS2_PLACEMENT_3D('',#276,#277,#278);
#276 = CARTESIAN_POINT('',(45.5,-64.,6.3));
#277 = DIRECTION('',(0.,0.,1.));
#278 = DIRECTION('',(1.,0.,0.));
#279 = CYLINDRICAL_SURFACE('',#280,2.1);
#280 = AXIS2_PLACEMENT_3D('',#281,#282,#283);
#281 = CARTESIAN_POINT('',(45.5,-64.,6.3));
#282 = DIRECTION('',(-0.,-0.,-1.));
#283 = DIRECTION('',(1.,0.,0.));
#284 = ADVANCED_FACE('',(#285,#469,#480),#491,.T.);
#285 = FACE_BOUND('',#286,.T.);
#286 = EDGE_LOOP('',(#287,#288,#296,#304,#312,#320,#328,#336,#344,#352,
    #360,#369,#377,#386,#394,#403,#411,#419,#427,#435,#443,#451,#460,
    #467,#468));
#287 = ORIENTED_EDGE('',*,*,#273,.F.);
#288 = ORIENTED_EDGE('',*,*,#289,.T.);
#289 = EDGE_CURVE('',#254,#290,#292,.T.);
#290 = VERTEX_POINT('',#291);
#291 = CARTESIAN_POINT('',(47.770541653469,-65.8,6.3));
#292 = LINE('',#293,#294);
#293 = CARTESIAN_POINT('',(47.785270826735,-65.8,6.3));
#294 = VECTOR('',#295,1.);
#295 = DIRECTION('',(1.,0.,0.));
#296 = ORIENTED_EDGE('',*,*,#297,.T.);
#297 = EDGE_CURVE('',#290,#298,#300,.T.);
#298 = VERTEX_POINT('',#299);
#299 = CARTESIAN_POINT('',(47.798620571226,-65.79862057122,6.3));
#300 = LINE('',#301,#302);
#301 = CARTESIAN_POINT('',(49.112704503536,-65.73406376729,6.3));
#302 = VECTOR('',#303,1.);
#303 = DIRECTION('',(0.998795456205,4.906767432757E-02,0.));
#304 = ORIENTED_EDGE('',*,*,#305,.T.);
#305 = EDGE_CURVE('',#298,#306,#308,.T.);
#306 = VERTEX_POINT('',#307);
#307 = CARTESIAN_POINT('',(47.8,-65.77054165346,6.3));
#308 = LINE('',#309,#310);
#309 = CARTESIAN_POINT('',(49.112707824699,-39.04976002683,6.3));
#310 = VECTOR('',#311,1.);
#311 = DIRECTION('',(4.906767432757E-02,0.998795456205,0.));
#312 = ORIENTED_EDGE('',*,*,#313,.T.);
#313 = EDGE_CURVE('',#306,#314,#316,.T.);
#314 = VERTEX_POINT('',#315);
#315 = CARTESIAN_POINT('',(47.8,-12.22945834653,6.3));
#316 = LINE('',#317,#318);
#317 = CARTESIAN_POINT('',(47.8,-12.21472917326,6.3));
#318 = VECTOR('',#319,1.);
#319 = DIRECTION('',(0.,1.,0.));
#320 = ORIENTED_EDGE('',*,*,#321,.T.);
#321 = EDGE_CURVE('',#314,#322,#324,.T.);
#322 = VERTEX_POINT('',#323);
#323 = CARTESIAN_POINT('',(47.798620571226,-12.20137942877,6.3));
#324 = LINE('',#325,#326);
#325 = CARTESIAN_POINT('',(47.798588429891,-12.20072517688,6.3));
#326 = VECTOR('',#327,1.);
#327 = DIRECTION('',(-4.906767432758E-02,0.998795456205,0.));
#328 = ORIENTED_EDGE('',*,*,#329,.T.);
#329 = EDGE_CURVE('',#322,#330,#332,.T.);
#330 = VERTEX_POINT('',#331);
#331 = CARTESIAN_POINT('',(47.770541653469,-12.2,6.3));
#332 = LINE('',#333,#334);
#333 = CARTESIAN_POINT('',(47.785235364237,-12.20072185572,6.3));
#334 = VECTOR('',#335,1.);
#335 = DIRECTION('',(-0.998795456205,4.906767432741E-02,0.));
#336 = ORIENTED_EDGE('',*,*,#337,.T.);
#337 = EDGE_CURVE('',#330,#338,#340,.T.);
#338 = VERTEX_POINT('',#339);
#339 = CARTESIAN_POINT('',(43.7,-12.2,6.3));
#340 = LINE('',#341,#342);
#341 = CARTESIAN_POINT('',(37.014729173265,-12.2,6.3));
#342 = VECTOR('',#343,1.);
#343 = DIRECTION('',(-1.,0.,0.));
#344 = ORIENTED_EDGE('',*,*,#345,.T.);
#345 = EDGE_CURVE('',#338,#346,#348,.T.);
#346 = VERTEX_POINT('',#347);
#347 = CARTESIAN_POINT('',(43.7,-11.,6.3));
#348 = LINE('',#349,#350);
#349 = CARTESIAN_POINT('',(43.7,-16.1,6.3));
#350 = VECTOR('',#351,1.);
#351 = DIRECTION('',(0.,1.,0.));
#352 = ORIENTED_EDGE('',*,*,#353,.F.);
#353 = EDGE_CURVE('',#354,#346,#356,.T.);
#354 = VERTEX_POINT('',#355);
#355 = CARTESIAN_POINT('',(47.8,-11.,6.3));
#356 = LINE('',#357,#358);
#357 = CARTESIAN_POINT('',(47.8,-11.,6.3));
#358 = VECTOR('',#359,1.);
#359 = DIRECTION('',(-1.,0.,0.));
#360 = ORIENTED_EDGE('',*,*,#361,.F.);
#361 = EDGE_CURVE('',#362,#354,#364,.T.);
#362 = VERTEX_POINT('',#363);
#363 = CARTESIAN_POINT('',(49.,-12.2,6.3));
#364 = CIRCLE('',#365,1.2);
#365 = AXIS2_PLACEMENT_3D('',#366,#367,#368);
#366 = CARTESIAN_POINT('',(47.8,-12.2,6.3));
#367 = DIRECTION('',(0.,-0.,1.));
#368 = DIRECTION('',(1.,7.401486830834E-15,0.));
#369 = ORIENTED_EDGE('',*,*,#370,.F.);
#370 = EDGE_CURVE('',#371,#362,#373,.T.);
#371 = VERTEX_POINT('',#372);
#372 = CARTESIAN_POINT('',(49.,-65.8,6.3));
#373 = LINE('',#374,#375);
#374 = CARTESIAN_POINT('',(49.,-65.8,6.3));
#375 = VECTOR('',#376,1.);
#376 = DIRECTION('',(0.,1.,0.));
#377 = ORIENTED_EDGE('',*,*,#378,.F.);
#378 = EDGE_CURVE('',#379,#371,#381,.T.);
#379 = VERTEX_POINT('',#380);
#380 = CARTESIAN_POINT('',(47.8,-67.,6.3));
#381 = CIRCLE('',#382,1.2);
#382 = AXIS2_PLACEMENT_3D('',#383,#384,#385);
#383 = CARTESIAN_POINT('',(47.8,-65.8,6.3));
#384 = DIRECTION('',(-0.,0.,1.));
#385 = DIRECTION('',(5.921189464667E-15,-1.,0.));
#386 = ORIENTED_EDGE('',*,*,#387,.F.);
#387 = EDGE_CURVE('',#388,#379,#390,.T.);
#388 = VERTEX_POINT('',#389);
#389 = CARTESIAN_POINT('',(26.2,-67.,6.3));
#390 = LINE('',#391,#392);
#391 = CARTESIAN_POINT('',(26.2,-67.,6.3));
#392 = VECTOR('',#393,1.);
#393 = DIRECTION('',(1.,0.,0.));
#394 = ORIENTED_EDGE('',*,*,#395,.F.);
#395 = EDGE_CURVE('',#396,#388,#398,.T.);
#396 = VERTEX_POINT('',#397);
#397 = CARTESIAN_POINT('',(25.,-65.8,6.3));
#398 = CIRCLE('',#399,1.2);
#399 = AXIS2_PLACEMENT_3D('',#400,#401,#402);
#400 = CARTESIAN_POINT('',(26.2,-65.8,6.3));
#401 = DIRECTION('',(0.,0.,1.));
#402 = DIRECTION('',(-1.,3.552713678801E-14,0.));
#403 = ORIENTED_EDGE('',*,*,#404,.F.);
#404 = EDGE_CURVE('',#405,#396,#407,.T.);
#405 = VERTEX_POINT('',#406);
#406 = CARTESIAN_POINT('',(25.,-61.9,6.3));
#407 = LINE('',#408,#409);
#408 = CARTESIAN_POINT('',(25.,-12.2,6.3));
#409 = VECTOR('',#410,1.);
#410 = DIRECTION('',(0.,-1.,0.));
#411 = ORIENTED_EDGE('',*,*,#412,.F.);
#412 = EDGE_CURVE('',#413,#405,#415,.T.);
#413 = VERTEX_POINT('',#414);
#414 = CARTESIAN_POINT('',(26.2,-61.9,6.3));
#415 = LINE('',#416,#417);
#416 = CARTESIAN_POINT('',(33.9,-61.9,6.3));
#417 = VECTOR('',#418,1.);
#418 = DIRECTION('',(-1.,0.,0.));
#419 = ORIENTED_EDGE('',*,*,#420,.T.);
#420 = EDGE_CURVE('',#413,#421,#423,.T.);
#421 = VERTEX_POINT('',#422);
#422 = CARTESIAN_POINT('',(26.2,-65.77054165346,6.3));
#423 = LINE('',#424,#425);
#424 = CARTESIAN_POINT('',(26.2,-38.98527082673,6.3));
#425 = VECTOR('',#426,1.);
#426 = DIRECTION('',(0.,-1.,0.));
#427 = ORIENTED_EDGE('',*,*,#428,.T.);
#428 = EDGE_CURVE('',#421,#429,#431,.T.);
#429 = VERTEX_POINT('',#430);
#430 = CARTESIAN_POINT('',(26.201379428774,-65.79862057122,6.3));
#431 = LINE('',#432,#433);
#432 = CARTESIAN_POINT('',(24.913984365665,-39.59309204348,6.3));
#433 = VECTOR('',#434,1.);
#434 = DIRECTION('',(4.906767432734E-02,-0.998795456205,0.));
#435 = ORIENTED_EDGE('',*,*,#436,.T.);
#436 = EDGE_CURVE('',#429,#437,#439,.T.);
#437 = VERTEX_POINT('',#438);
#438 = CARTESIAN_POINT('',(26.229458346531,-65.8,6.3));
#439 = LINE('',#440,#441);
#440 = CARTESIAN_POINT('',(35.675332479372,-66.26404603946,6.3));
#441 = VECTOR('',#442,1.);
#442 = DIRECTION('',(0.998795456205,-4.906767432757E-02,0.));
#443 = ORIENTED_EDGE('',*,*,#444,.T.);
#444 = EDGE_CURVE('',#437,#445,#447,.T.);
#445 = VERTEX_POINT('',#446);
#446 = CARTESIAN_POINT('',(28.318334617361,-65.8,6.3));
#447 = LINE('',#448,#449);
#448 = CARTESIAN_POINT('',(47.785270826735,-65.8,6.3));
#449 = VECTOR('',#450,1.);
#450 = DIRECTION('',(1.,0.,0.));
#451 = ORIENTED_EDGE('',*,*,#452,.F.);
#452 = EDGE_CURVE('',#453,#445,#455,.T.);
#453 = VERTEX_POINT('',#454);
#454 = CARTESIAN_POINT('',(31.5,-64.,6.3));
#455 = CIRCLE('',#456,2.1);
#456 = AXIS2_PLACEMENT_3D('',#457,#458,#459);
#457 = CARTESIAN_POINT('',(29.4,-64.,6.3));
#458 = DIRECTION('',(0.,0.,1.));
#459 = DIRECTION('',(1.,0.,0.));
#460 = ORIENTED_EDGE('',*,*,#461,.F.);
#461 = EDGE_CURVE('',#32,#453,#462,.T.);
#462 = CIRCLE('',#463,2.1);
#463 = AXIS2_PLACEMENT_3D('',#464,#465,#466);
#464 = CARTESIAN_POINT('',(29.4,-64.,6.3));
#465 = DIRECTION('',(0.,0.,1.));
#466 = DIRECTION('',(1.,0.,0.));
#467 = ORIENTED_EDGE('',*,*,#39,.T.);
#468 = ORIENTED_EDGE('',*,*,#264,.F.);
#469 = FACE_BOUND('',#470,.T.);
#470 = EDGE_LOOP('',(#471));
#471 = ORIENTED_EDGE('',*,*,#472,.F.);
#472 = EDGE_CURVE('',#473,#473,#475,.T.);
#473 = VERTEX_POINT('',#474);
#474 = CARTESIAN_POINT('',(46.65,-64.,6.3));
#475 = CIRCLE('',#476,1.15);
#476 = AXIS2_PLACEMENT_3D('',#477,#478,#479);
#477 = CARTESIAN_POINT('',(45.5,-64.,6.3));
#478 = DIRECTION('',(0.,0.,-1.));
#479 = DIRECTION('',(1.,0.,0.));
#480 = FACE_BOUND('',#481,.T.);
#481 = EDGE_LOOP('',(#482));
#482 = ORIENTED_EDGE('',*,*,#483,.F.);
#483 = EDGE_CURVE('',#484,#484,#486,.T.);
#484 = VERTEX_POINT('',#485);
#485 = CARTESIAN_POINT('',(30.55,-64.,6.3));
#486 = CIRCLE('',#487,1.15);
#487 = AXIS2_PLACEMENT_3D('',#488,#489,#490);
#488 = CARTESIAN_POINT('',(29.4,-64.,6.3));
#489 = DIRECTION('',(0.,0.,-1.));
#490 = DIRECTION('',(1.,0.,0.));
#491 = PLANE('',#492);
#492 = AXIS2_PLACEMENT_3D('',#493,#494,#495);
#493 = CARTESIAN_POINT('',(43.454840299724,-47.3349810374,6.3));
#494 = DIRECTION('',(-0.,-0.,-1.));
#495 = DIRECTION('',(-1.,0.,0.));
#496 = ADVANCED_FACE('',(#497),#510,.T.);
#497 = FACE_BOUND('',#498,.F.);
#498 = EDGE_LOOP('',(#499,#500,#501,#502,#508,#509));
#499 = ORIENTED_EDGE('',*,*,#31,.F.);
#500 = ORIENTED_EDGE('',*,*,#152,.F.);
#501 = ORIENTED_EDGE('',*,*,#143,.F.);
#502 = ORIENTED_EDGE('',*,*,#503,.T.);
#503 = EDGE_CURVE('',#136,#445,#504,.T.);
#504 = LINE('',#505,#506);
#505 = CARTESIAN_POINT('',(28.318334617361,-65.8,6.3));
#506 = VECTOR('',#507,1.);
#507 = DIRECTION('',(-0.,-0.,-1.));
#508 = ORIENTED_EDGE('',*,*,#452,.F.);
#509 = ORIENTED_EDGE('',*,*,#461,.F.);
#510 = CYLINDRICAL_SURFACE('',#511,2.1);
#511 = AXIS2_PLACEMENT_3D('',#512,#513,#514);
#512 = CARTESIAN_POINT('',(29.4,-64.,6.3));
#513 = DIRECTION('',(-0.,-0.,-1.));
#514 = DIRECTION('',(1.,0.,0.));
#515 = ADVANCED_FACE('',(#516),#532,.F.);
#516 = FACE_BOUND('',#517,.F.);
#517 = EDGE_LOOP('',(#518,#519,#525,#526));
#518 = ORIENTED_EDGE('',*,*,#313,.T.);
#519 = ORIENTED_EDGE('',*,*,#520,.T.);
#520 = EDGE_CURVE('',#314,#62,#521,.T.);
#521 = LINE('',#522,#523);
#522 = CARTESIAN_POINT('',(47.8,-12.22945834653,6.2));
#523 = VECTOR('',#524,1.);
#524 = DIRECTION('',(0.,0.,1.));
#525 = ORIENTED_EDGE('',*,*,#61,.T.);
#526 = ORIENTED_EDGE('',*,*,#527,.F.);
#527 = EDGE_CURVE('',#306,#64,#528,.T.);
#528 = LINE('',#529,#530);
#529 = CARTESIAN_POINT('',(47.8,-65.77054165346,6.2));
#530 = VECTOR('',#531,1.);
#531 = DIRECTION('',(0.,0.,1.));
#532 = PLANE('',#533);
#533 = AXIS2_PLACEMENT_3D('',#534,#535,#536);
#534 = CARTESIAN_POINT('',(47.8,-12.22945834653,6.2));
#535 = DIRECTION('',(1.,0.,0.));
#536 = DIRECTION('',(0.,-1.,0.));
#537 = ADVANCED_FACE('',(#538),#549,.F.);
#538 = FACE_BOUND('',#539,.F.);
#539 = EDGE_LOOP('',(#540,#541,#542,#543));
#540 = ORIENTED_EDGE('',*,*,#305,.T.);
#541 = ORIENTED_EDGE('',*,*,#527,.T.);
#542 = ORIENTED_EDGE('',*,*,#194,.T.);
#543 = ORIENTED_EDGE('',*,*,#544,.F.);
#544 = EDGE_CURVE('',#298,#187,#545,.T.);
#545 = LINE('',#546,#547);
#546 = CARTESIAN_POINT('',(47.798620571226,-65.79862057122,6.2));
#547 = VECTOR('',#548,1.);
#548 = DIRECTION('',(0.,0.,1.));
#549 = PLANE('',#550);
#550 = AXIS2_PLACEMENT_3D('',#551,#552,#553);
#551 = CARTESIAN_POINT('',(47.8,-65.77054165346,6.2));
#552 = DIRECTION('',(0.998795456205,-4.906767432757E-02,0.));
#553 = DIRECTION('',(-4.906767432757E-02,-0.998795456205,0.));
#554 = ADVANCED_FACE('',(#555),#566,.F.);
#555 = FACE_BOUND('',#556,.F.);
#556 = EDGE_LOOP('',(#557,#558,#559,#560));
#557 = ORIENTED_EDGE('',*,*,#297,.T.);
#558 = ORIENTED_EDGE('',*,*,#544,.T.);
#559 = ORIENTED_EDGE('',*,*,#186,.T.);
#560 = ORIENTED_EDGE('',*,*,#561,.F.);
#561 = EDGE_CURVE('',#290,#179,#562,.T.);
#562 = LINE('',#563,#564);
#563 = CARTESIAN_POINT('',(47.770541653469,-65.8,6.2));
#564 = VECTOR('',#565,1.);
#565 = DIRECTION('',(0.,0.,1.));
#566 = PLANE('',#567);
#567 = AXIS2_PLACEMENT_3D('',#568,#569,#570);
#568 = CARTESIAN_POINT('',(47.798620571226,-65.79862057122,6.2));
#569 = DIRECTION('',(4.906767432757E-02,-0.998795456205,0.));
#570 = DIRECTION('',(-0.998795456205,-4.906767432757E-02,0.));
#571 = ADVANCED_FACE('',(#572),#578,.F.);
#572 = FACE_BOUND('',#573,.F.);
#573 = EDGE_LOOP('',(#574,#575,#576,#577));
#574 = ORIENTED_EDGE('',*,*,#178,.T.);
#575 = ORIENTED_EDGE('',*,*,#253,.T.);
#576 = ORIENTED_EDGE('',*,*,#289,.T.);
#577 = ORIENTED_EDGE('',*,*,#561,.T.);
#578 = PLANE('',#579);
#579 = AXIS2_PLACEMENT_3D('',#580,#581,#582);
#580 = CARTESIAN_POINT('',(47.770541653469,-65.8,6.2));
#581 = DIRECTION('',(0.,-1.,0.));
#582 = DIRECTION('',(-1.,0.,0.));
#583 = ADVANCED_FACE('',(#584),#595,.F.);
#584 = FACE_BOUND('',#585,.F.);
#585 = EDGE_LOOP('',(#586,#592,#593,#594));
#586 = ORIENTED_EDGE('',*,*,#587,.F.);
#587 = EDGE_CURVE('',#437,#128,#588,.T.);
#588 = LINE('',#589,#590);
#589 = CARTESIAN_POINT('',(26.229458346531,-65.8,6.2));
#590 = VECTOR('',#591,1.);
#591 = DIRECTION('',(0.,0.,1.));
#592 = ORIENTED_EDGE('',*,*,#444,.T.);
#593 = ORIENTED_EDGE('',*,*,#503,.F.);
#594 = ORIENTED_EDGE('',*,*,#135,.T.);
#595 = PLANE('',#596);
#596 = AXIS2_PLACEMENT_3D('',#597,#598,#599);
#597 = CARTESIAN_POINT('',(47.770541653469,-65.8,6.2));
#598 = DIRECTION('',(0.,-1.,0.));
#599 = DIRECTION('',(-1.,0.,0.));
#600 = ADVANCED_FACE('',(#601),#612,.F.);
#601 = FACE_BOUND('',#602,.F.);
#602 = EDGE_LOOP('',(#603,#604,#605,#606));
#603 = ORIENTED_EDGE('',*,*,#436,.T.);
#604 = ORIENTED_EDGE('',*,*,#587,.T.);
#605 = ORIENTED_EDGE('',*,*,#127,.T.);
#606 = ORIENTED_EDGE('',*,*,#607,.F.);
#607 = EDGE_CURVE('',#429,#120,#608,.T.);
#608 = LINE('',#609,#610);
#609 = CARTESIAN_POINT('',(26.201379428774,-65.79862057122,6.2));
#610 = VECTOR('',#611,1.);
#611 = DIRECTION('',(0.,0.,1.));
#612 = PLANE('',#613);
#613 = AXIS2_PLACEMENT_3D('',#614,#615,#616);
#614 = CARTESIAN_POINT('',(26.229458346531,-65.8,6.2));
#615 = DIRECTION('',(-4.906767432757E-02,-0.998795456205,0.));
#616 = DIRECTION('',(-0.998795456205,4.906767432757E-02,0.));
#617 = ADVANCED_FACE('',(#618),#629,.F.);
#618 = FACE_BOUND('',#619,.F.);
#619 = EDGE_LOOP('',(#620,#621,#622,#623));
#620 = ORIENTED_EDGE('',*,*,#428,.T.);
#621 = ORIENTED_EDGE('',*,*,#607,.T.);
#622 = ORIENTED_EDGE('',*,*,#119,.T.);
#623 = ORIENTED_EDGE('',*,*,#624,.F.);
#624 = EDGE_CURVE('',#421,#112,#625,.T.);
#625 = LINE('',#626,#627);
#626 = CARTESIAN_POINT('',(26.2,-65.77054165346,6.2));
#627 = VECTOR('',#628,1.);
#628 = DIRECTION('',(0.,0.,1.));
#629 = PLANE('',#630);
#630 = AXIS2_PLACEMENT_3D('',#631,#632,#633);
#631 = CARTESIAN_POINT('',(26.201379428774,-65.79862057122,6.2));
#632 = DIRECTION('',(-0.998795456205,-4.906767432734E-02,0.));
#633 = DIRECTION('',(-4.906767432734E-02,0.998795456205,0.));
#634 = ADVANCED_FACE('',(#635),#678,.F.);
#635 = FACE_BOUND('',#636,.F.);
#636 = EDGE_LOOP('',(#637,#645,#653,#661,#669,#675,#676,#677));
#637 = ORIENTED_EDGE('',*,*,#638,.F.);
#638 = EDGE_CURVE('',#639,#104,#641,.T.);
#639 = VERTEX_POINT('',#640);
#640 = CARTESIAN_POINT('',(26.2,-12.22945834653,6.3));
#641 = LINE('',#642,#643);
#642 = CARTESIAN_POINT('',(26.2,-12.22945834653,6.2));
#643 = VECTOR('',#644,1.);
#644 = DIRECTION('',(0.,0.,1.));
#645 = ORIENTED_EDGE('',*,*,#646,.T.);
#646 = EDGE_CURVE('',#639,#647,#649,.T.);
#647 = VERTEX_POINT('',#648);
#648 = CARTESIAN_POINT('',(26.2,-53.4,6.3));
#649 = LINE('',#650,#651);
#650 = CARTESIAN_POINT('',(26.2,-38.98527082673,6.3));
#651 = VECTOR('',#652,1.);
#652 = DIRECTION('',(0.,-1.,0.));
#653 = ORIENTED_EDGE('',*,*,#654,.F.);
#654 = EDGE_CURVE('',#655,#647,#657,.T.);
#655 = VERTEX_POINT('',#656);
#656 = CARTESIAN_POINT('',(26.2,-53.4,9.2));
#657 = LINE('',#658,#659);
#658 = CARTESIAN_POINT('',(26.2,-53.4,5.65));
#659 = VECTOR('',#660,1.);
#660 = DIRECTION('',(0.,0.,-1.));
#661 = ORIENTED_EDGE('',*,*,#662,.F.);
#662 = EDGE_CURVE('',#663,#655,#665,.T.);
#663 = VERTEX_POINT('',#664);
#664 = CARTESIAN_POINT('',(26.2,-61.9,9.2));
#665 = LINE('',#666,#667);
#666 = CARTESIAN_POINT('',(26.2,-63.83527082673,9.2));
#667 = VECTOR('',#668,1.);
#668 = DIRECTION('',(0.,1.,0.));
#669 = ORIENTED_EDGE('',*,*,#670,.T.);
#670 = EDGE_CURVE('',#663,#413,#671,.T.);
#671 = LINE('',#672,#673);
#672 = CARTESIAN_POINT('',(26.2,-61.9,5.65));
#673 = VECTOR('',#674,1.);
#674 = DIRECTION('',(0.,0.,-1.));
#675 = ORIENTED_EDGE('',*,*,#420,.T.);
#676 = ORIENTED_EDGE('',*,*,#624,.T.);
#677 = ORIENTED_EDGE('',*,*,#111,.T.);
#678 = PLANE('',#679);
#679 = AXIS2_PLACEMENT_3D('',#680,#681,#682);
#680 = CARTESIAN_POINT('',(26.2,-65.77054165346,6.2));
#681 = DIRECTION('',(-1.,0.,0.));
#682 = DIRECTION('',(0.,1.,0.));
#683 = ADVANCED_FACE('',(#684),#702,.F.);
#684 = FACE_BOUND('',#685,.F.);
#685 = EDGE_LOOP('',(#686,#694,#695,#696));
#686 = ORIENTED_EDGE('',*,*,#687,.T.);
#687 = EDGE_CURVE('',#688,#639,#690,.T.);
#688 = VERTEX_POINT('',#689);
#689 = CARTESIAN_POINT('',(26.201379428774,-12.20137942877,6.3));
#690 = LINE('',#691,#692);
#691 = CARTESIAN_POINT('',(26.226724331691,-11.68547207798,6.3));
#692 = VECTOR('',#693,1.);
#693 = DIRECTION('',(-4.906767432733E-02,-0.998795456205,0.));
#694 = ORIENTED_EDGE('',*,*,#638,.T.);
#695 = ORIENTED_EDGE('',*,*,#103,.T.);
#696 = ORIENTED_EDGE('',*,*,#697,.F.);
#697 = EDGE_CURVE('',#688,#96,#698,.T.);
#698 = LINE('',#699,#700);
#699 = CARTESIAN_POINT('',(26.201379428774,-12.20137942877,6.2));
#700 = VECTOR('',#701,1.);
#701 = DIRECTION('',(0.,0.,1.));
#702 = PLANE('',#703);
#703 = AXIS2_PLACEMENT_3D('',#704,#705,#706);
#704 = CARTESIAN_POINT('',(26.2,-12.22945834653,6.2));
#705 = DIRECTION('',(-0.998795456205,4.906767432733E-02,0.));
#706 = DIRECTION('',(4.906767432733E-02,0.998795456205,0.));
#707 = ADVANCED_FACE('',(#708),#726,.F.);
#708 = FACE_BOUND('',#709,.F.);
#709 = EDGE_LOOP('',(#710,#718,#719,#720));
#710 = ORIENTED_EDGE('',*,*,#711,.T.);
#711 = EDGE_CURVE('',#712,#688,#714,.T.);
#712 = VERTEX_POINT('',#713);
#713 = CARTESIAN_POINT('',(26.229458346531,-12.2,6.3));
#714 = LINE('',#715,#716);
#715 = CARTESIAN_POINT('',(36.974722700915,-11.67211901232,6.3));
#716 = VECTOR('',#717,1.);
#717 = DIRECTION('',(-0.998795456205,-4.906767432739E-02,0.));
#718 = ORIENTED_EDGE('',*,*,#697,.T.);
#719 = ORIENTED_EDGE('',*,*,#95,.T.);
#720 = ORIENTED_EDGE('',*,*,#721,.F.);
#721 = EDGE_CURVE('',#712,#88,#722,.T.);
#722 = LINE('',#723,#724);
#723 = CARTESIAN_POINT('',(26.229458346531,-12.2,6.2));
#724 = VECTOR('',#725,1.);
#725 = DIRECTION('',(0.,0.,1.));
#726 = PLANE('',#727);
#727 = AXIS2_PLACEMENT_3D('',#728,#729,#730);
#728 = CARTESIAN_POINT('',(26.201379428774,-12.20137942877,6.2));
#729 = DIRECTION('',(-4.906767432739E-02,0.998795456205,0.));
#730 = DIRECTION('',(0.998795456205,4.906767432739E-02,0.));
#731 = ADVANCED_FACE('',(#732),#805,.F.);
#732 = FACE_BOUND('',#733,.F.);
#733 = EDGE_LOOP('',(#734,#740,#741,#749,#757,#765,#773,#781,#789,#797,
    #803,#804));
#734 = ORIENTED_EDGE('',*,*,#735,.F.);
#735 = EDGE_CURVE('',#330,#80,#736,.T.);
#736 = LINE('',#737,#738);
#737 = CARTESIAN_POINT('',(47.770541653469,-12.2,6.2));
#738 = VECTOR('',#739,1.);
#739 = DIRECTION('',(0.,0.,1.));
#740 = ORIENTED_EDGE('',*,*,#337,.T.);
#741 = ORIENTED_EDGE('',*,*,#742,.F.);
#742 = EDGE_CURVE('',#743,#338,#745,.T.);
#743 = VERTEX_POINT('',#744);
#744 = CARTESIAN_POINT('',(43.7,-12.2,8.5));
#745 = LINE('',#746,#747);
#746 = CARTESIAN_POINT('',(43.7,-12.2,6.2));
#747 = VECTOR('',#748,1.);
#748 = DIRECTION('',(0.,0.,-1.));
#749 = ORIENTED_EDGE('',*,*,#750,.T.);
#750 = EDGE_CURVE('',#743,#751,#753,.T.);
#751 = VERTEX_POINT('',#752);
#752 = CARTESIAN_POINT('',(47.,-12.2,8.5));
#753 = LINE('',#754,#755);
#754 = CARTESIAN_POINT('',(26.814729173265,-12.2,8.5));
#755 = VECTOR('',#756,1.);
#756 = DIRECTION('',(1.,0.,0.));
#757 = ORIENTED_EDGE('',*,*,#758,.F.);
#758 = EDGE_CURVE('',#759,#751,#761,.T.);
#759 = VERTEX_POINT('',#760);
#760 = CARTESIAN_POINT('',(47.,-12.2,12.7));
#761 = LINE('',#762,#763);
#762 = CARTESIAN_POINT('',(47.,-12.2,7.35));
#763 = VECTOR('',#764,1.);
#764 = DIRECTION('',(0.,0.,-1.));
#765 = ORIENTED_EDGE('',*,*,#766,.F.);
#766 = EDGE_CURVE('',#767,#759,#769,.T.);
#767 = VERTEX_POINT('',#768);
#768 = CARTESIAN_POINT('',(27.4,-12.2,12.7));
#769 = LINE('',#770,#771);
#770 = CARTESIAN_POINT('',(26.814729173265,-12.2,12.7));
#771 = VECTOR('',#772,1.);
#772 = DIRECTION('',(1.,0.,0.));
#773 = ORIENTED_EDGE('',*,*,#774,.T.);
#774 = EDGE_CURVE('',#767,#775,#777,.T.);
#775 = VERTEX_POINT('',#776);
#776 = CARTESIAN_POINT('',(27.4,-12.2,8.5));
#777 = LINE('',#778,#779);
#778 = CARTESIAN_POINT('',(27.4,-12.2,7.35));
#779 = VECTOR('',#780,1.);
#780 = DIRECTION('',(0.,0.,-1.));
#781 = ORIENTED_EDGE('',*,*,#782,.T.);
#782 = EDGE_CURVE('',#775,#783,#785,.T.);
#783 = VERTEX_POINT('',#784);
#784 = CARTESIAN_POINT('',(30.7,-12.2,8.5));
#785 = LINE('',#786,#787);
#786 = CARTESIAN_POINT('',(26.814729173265,-12.2,8.5));
#787 = VECTOR('',#788,1.);
#788 = DIRECTION('',(1.,0.,0.));
#789 = ORIENTED_EDGE('',*,*,#790,.T.);
#790 = EDGE_CURVE('',#783,#791,#793,.T.);
#791 = VERTEX_POINT('',#792);
#792 = CARTESIAN_POINT('',(30.7,-12.2,6.3));
#793 = LINE('',#794,#795);
#794 = CARTESIAN_POINT('',(30.7,-12.2,6.2));
#795 = VECTOR('',#796,1.);
#796 = DIRECTION('',(0.,0.,-1.));
#797 = ORIENTED_EDGE('',*,*,#798,.T.);
#798 = EDGE_CURVE('',#791,#712,#799,.T.);
#799 = LINE('',#800,#801);
#800 = CARTESIAN_POINT('',(37.014729173265,-12.2,6.3));
#801 = VECTOR('',#802,1.);
#802 = DIRECTION('',(-1.,0.,0.));
#803 = ORIENTED_EDGE('',*,*,#721,.T.);
#804 = ORIENTED_EDGE('',*,*,#87,.T.);
#805 = PLANE('',#806);
#806 = AXIS2_PLACEMENT_3D('',#807,#808,#809);
#807 = CARTESIAN_POINT('',(26.229458346531,-12.2,6.2));
#808 = DIRECTION('',(0.,1.,0.));
#809 = DIRECTION('',(1.,0.,0.));
#810 = ADVANCED_FACE('',(#811),#822,.F.);
#811 = FACE_BOUND('',#812,.F.);
#812 = EDGE_LOOP('',(#813,#814,#815,#816));
#813 = ORIENTED_EDGE('',*,*,#329,.T.);
#814 = ORIENTED_EDGE('',*,*,#735,.T.);
#815 = ORIENTED_EDGE('',*,*,#79,.T.);
#816 = ORIENTED_EDGE('',*,*,#817,.F.);
#817 = EDGE_CURVE('',#322,#72,#818,.T.);
#818 = LINE('',#819,#820);
#819 = CARTESIAN_POINT('',(47.798620571226,-12.20137942877,6.2));
#820 = VECTOR('',#821,1.);
#821 = DIRECTION('',(0.,0.,1.));
#822 = PLANE('',#823);
#823 = AXIS2_PLACEMENT_3D('',#824,#825,#826);
#824 = CARTESIAN_POINT('',(47.770541653469,-12.2,6.2));
#825 = DIRECTION('',(4.906767432741E-02,0.998795456205,0.));
#826 = DIRECTION('',(0.998795456205,-4.906767432741E-02,0.));
#827 = ADVANCED_FACE('',(#828),#834,.F.);
#828 = FACE_BOUND('',#829,.F.);
#829 = EDGE_LOOP('',(#830,#831,#832,#833));
#830 = ORIENTED_EDGE('',*,*,#321,.T.);
#831 = ORIENTED_EDGE('',*,*,#817,.T.);
#832 = ORIENTED_EDGE('',*,*,#71,.T.);
#833 = ORIENTED_EDGE('',*,*,#520,.F.);
#834 = PLANE('',#835);
#835 = AXIS2_PLACEMENT_3D('',#836,#837,#838);
#836 = CARTESIAN_POINT('',(47.798620571226,-12.20137942877,6.2));
#837 = DIRECTION('',(0.998795456205,4.906767432758E-02,0.));
#838 = DIRECTION('',(4.906767432758E-02,-0.998795456205,0.));
#839 = ADVANCED_FACE('',(#840),#859,.F.);
#840 = FACE_BOUND('',#841,.T.);
#841 = EDGE_LOOP('',(#842,#843,#851,#858));
#842 = ORIENTED_EDGE('',*,*,#202,.T.);
#843 = ORIENTED_EDGE('',*,*,#844,.T.);
#844 = EDGE_CURVE('',#203,#845,#847,.T.);
#845 = VERTEX_POINT('',#846);
#846 = CARTESIAN_POINT('',(38.4,-59.5,16.6));
#847 = LINE('',#848,#849);
#848 = CARTESIAN_POINT('',(38.4,-59.5,7.8));
#849 = VECTOR('',#850,1.);
#850 = DIRECTION('',(0.,0.,1.));
#851 = ORIENTED_EDGE('',*,*,#852,.F.);
#852 = EDGE_CURVE('',#845,#845,#853,.T.);
#853 = CIRCLE('',#854,1.4);
#854 = AXIS2_PLACEMENT_3D('',#855,#856,#857);
#855 = CARTESIAN_POINT('',(37.,-59.5,16.6));
#856 = DIRECTION('',(0.,0.,-1.));
#857 = DIRECTION('',(1.,0.,0.));
#858 = ORIENTED_EDGE('',*,*,#844,.F.);
#859 = CYLINDRICAL_SURFACE('',#860,1.4);
#860 = AXIS2_PLACEMENT_3D('',#861,#862,#863);
#861 = CARTESIAN_POINT('',(37.,-59.5,7.8));
#862 = DIRECTION('',(-0.,-0.,-1.));
#863 = DIRECTION('',(1.,0.,0.));
#864 = ADVANCED_FACE('',(#865),#890,.T.);
#865 = FACE_BOUND('',#866,.T.);
#866 = EDGE_LOOP('',(#867,#875,#876,#884));
#867 = ORIENTED_EDGE('',*,*,#868,.F.);
#868 = EDGE_CURVE('',#214,#869,#871,.T.);
#869 = VERTEX_POINT('',#870);
#870 = CARTESIAN_POINT('',(44.45,-49.35,16.6));
#871 = LINE('',#872,#873);
#872 = CARTESIAN_POINT('',(44.45,-49.35,15.1));
#873 = VECTOR('',#874,1.);
#874 = DIRECTION('',(0.,0.,1.));
#875 = ORIENTED_EDGE('',*,*,#213,.T.);
#876 = ORIENTED_EDGE('',*,*,#877,.T.);
#877 = EDGE_CURVE('',#216,#878,#880,.T.);
#878 = VERTEX_POINT('',#879);
#879 = CARTESIAN_POINT('',(29.95,-49.35,16.6));
#880 = LINE('',#881,#882);
#881 = CARTESIAN_POINT('',(29.95,-49.35,15.1));
#882 = VECTOR('',#883,1.);
#883 = DIRECTION('',(0.,0.,1.));
#884 = ORIENTED_EDGE('',*,*,#885,.F.);
#885 = EDGE_CURVE('',#869,#878,#886,.T.);
#886 = LINE('',#887,#888);
#887 = CARTESIAN_POINT('',(38.875,-49.35,16.6));
#888 = VECTOR('',#889,1.);
#889 = DIRECTION('',(-1.,0.,0.));
#890 = PLANE('',#891);
#891 = AXIS2_PLACEMENT_3D('',#892,#893,#894);
#892 = CARTESIAN_POINT('',(29.95,-49.35,15.1));
#893 = DIRECTION('',(0.,1.,0.));
#894 = DIRECTION('',(0.,0.,1.));
#895 = ADVANCED_FACE('',(#896),#914,.F.);
#896 = FACE_BOUND('',#897,.F.);
#897 = EDGE_LOOP('',(#898,#899,#900,#908));
#898 = ORIENTED_EDGE('',*,*,#868,.F.);
#899 = ORIENTED_EDGE('',*,*,#239,.T.);
#900 = ORIENTED_EDGE('',*,*,#901,.T.);
#901 = EDGE_CURVE('',#232,#902,#904,.T.);
#902 = VERTEX_POINT('',#903);
#903 = CARTESIAN_POINT('',(44.45,-18.25,16.6));
#904 = LINE('',#905,#906);
#905 = CARTESIAN_POINT('',(44.45,-18.25,15.1));
#906 = VECTOR('',#907,1.);
#907 = DIRECTION('',(0.,0.,1.));
#908 = ORIENTED_EDGE('',*,*,#909,.F.);
#909 = EDGE_CURVE('',#869,#902,#910,.T.);
#910 = LINE('',#911,#912);
#911 = CARTESIAN_POINT('',(44.45,-30.775,16.6));
#912 = VECTOR('',#913,1.);
#913 = DIRECTION('',(0.,1.,0.));
#914 = PLANE('',#915);
#915 = AXIS2_PLACEMENT_3D('',#916,#917,#918);
#916 = CARTESIAN_POINT('',(44.45,-49.35,15.1));
#917 = DIRECTION('',(1.,0.,0.));
#918 = DIRECTION('',(0.,0.,1.));
#919 = ADVANCED_FACE('',(#920),#938,.T.);
#920 = FACE_BOUND('',#921,.T.);
#921 = EDGE_LOOP('',(#922,#923,#924,#932));
#922 = ORIENTED_EDGE('',*,*,#877,.F.);
#923 = ORIENTED_EDGE('',*,*,#223,.T.);
#924 = ORIENTED_EDGE('',*,*,#925,.T.);
#925 = EDGE_CURVE('',#224,#926,#928,.T.);
#926 = VERTEX_POINT('',#927);
#927 = CARTESIAN_POINT('',(29.95,-18.25,16.6));
#928 = LINE('',#929,#930);
#929 = CARTESIAN_POINT('',(29.95,-18.25,15.1));
#930 = VECTOR('',#931,1.);
#931 = DIRECTION('',(0.,0.,1.));
#932 = ORIENTED_EDGE('',*,*,#933,.F.);
#933 = EDGE_CURVE('',#878,#926,#934,.T.);
#934 = LINE('',#935,#936);
#935 = CARTESIAN_POINT('',(29.95,-30.775,16.6));
#936 = VECTOR('',#937,1.);
#937 = DIRECTION('',(0.,1.,0.));
#938 = PLANE('',#939);
#939 = AXIS2_PLACEMENT_3D('',#940,#941,#942);
#940 = CARTESIAN_POINT('',(29.95,-49.35,15.1));
#941 = DIRECTION('',(1.,0.,0.));
#942 = DIRECTION('',(0.,0.,1.));
#943 = ADVANCED_FACE('',(#944),#955,.F.);
#944 = FACE_BOUND('',#945,.F.);
#945 = EDGE_LOOP('',(#946,#947,#948,#949));
#946 = ORIENTED_EDGE('',*,*,#901,.F.);
#947 = ORIENTED_EDGE('',*,*,#231,.T.);
#948 = ORIENTED_EDGE('',*,*,#925,.T.);
#949 = ORIENTED_EDGE('',*,*,#950,.F.);
#950 = EDGE_CURVE('',#902,#926,#951,.T.);
#951 = LINE('',#952,#953);
#952 = CARTESIAN_POINT('',(38.875,-18.25,16.6));
#953 = VECTOR('',#954,1.);
#954 = DIRECTION('',(-1.,0.,0.));
#955 = PLANE('',#956);
#956 = AXIS2_PLACEMENT_3D('',#957,#958,#959);
#957 = CARTESIAN_POINT('',(29.95,-18.25,15.1));
#958 = DIRECTION('',(0.,1.,0.));
#959 = DIRECTION('',(0.,0.,1.));
#960 = ADVANCED_FACE('',(#961),#995,.F.);
#961 = FACE_BOUND('',#962,.F.);
#962 = EDGE_LOOP('',(#963,#973,#981,#987,#988,#989));
#963 = ORIENTED_EDGE('',*,*,#964,.F.);
#964 = EDGE_CURVE('',#965,#967,#969,.T.);
#965 = VERTEX_POINT('',#966);
#966 = CARTESIAN_POINT('',(43.7,-11.4,11.8));
#967 = VERTEX_POINT('',#968);
#968 = CARTESIAN_POINT('',(43.7,-11.,11.8));
#969 = LINE('',#970,#971);
#970 = CARTESIAN_POINT('',(43.7,-20.,11.8));
#971 = VECTOR('',#972,1.);
#972 = DIRECTION('',(0.,1.,0.));
#973 = ORIENTED_EDGE('',*,*,#974,.F.);
#974 = EDGE_CURVE('',#975,#965,#977,.T.);
#975 = VERTEX_POINT('',#976);
#976 = CARTESIAN_POINT('',(43.7,-11.4,8.5));
#977 = LINE('',#978,#979);
#978 = CARTESIAN_POINT('',(43.7,-11.4,7.35));
#979 = VECTOR('',#980,1.);
#980 = DIRECTION('',(0.,0.,1.));
#981 = ORIENTED_EDGE('',*,*,#982,.T.);
#982 = EDGE_CURVE('',#975,#743,#983,.T.);
#983 = LINE('',#984,#985);
#984 = CARTESIAN_POINT('',(43.7,-34.05,8.5));
#985 = VECTOR('',#986,1.);
#986 = DIRECTION('',(0.,-1.,0.));
#987 = ORIENTED_EDGE('',*,*,#742,.T.);
#988 = ORIENTED_EDGE('',*,*,#345,.T.);
#989 = ORIENTED_EDGE('',*,*,#990,.F.);
#990 = EDGE_CURVE('',#967,#346,#991,.T.);
#991 = LINE('',#992,#993);
#992 = CARTESIAN_POINT('',(43.7,-11.,10.8));
#993 = VECTOR('',#994,1.);
#994 = DIRECTION('',(0.,0.,-1.));
#995 = PLANE('',#996);
#996 = AXIS2_PLACEMENT_3D('',#997,#998,#999);
#997 = CARTESIAN_POINT('',(43.7,-20.,6.2));
#998 = DIRECTION('',(1.,0.,0.));
#999 = DIRECTION('',(0.,0.,1.));
#1000 = ADVANCED_FACE('',(#1001),#1049,.T.);
#1001 = FACE_BOUND('',#1002,.T.);
#1002 = EDGE_LOOP('',(#1003,#1010,#1011,#1012,#1020,#1028,#1036,#1043));
#1003 = ORIENTED_EDGE('',*,*,#1004,.F.);
#1004 = EDGE_CURVE('',#354,#1005,#1007,.T.);
#1005 = VERTEX_POINT('',#1006);
#1006 = CARTESIAN_POINT('',(47.8,-11.,15.4));
#1007 = B_SPLINE_CURVE_WITH_KNOTS('',1,(#1008,#1009),.UNSPECIFIED.,.F.,
  .F.,(2,2),(0.,1.),.PIECEWISE_BEZIER_KNOTS.);
#1008 = CARTESIAN_POINT('',(47.8,-11.,6.3));
#1009 = CARTESIAN_POINT('',(47.8,-11.,15.4));
#1010 = ORIENTED_EDGE('',*,*,#353,.T.);
#1011 = ORIENTED_EDGE('',*,*,#990,.F.);
#1012 = ORIENTED_EDGE('',*,*,#1013,.F.);
#1013 = EDGE_CURVE('',#1014,#967,#1016,.T.);
#1014 = VERTEX_POINT('',#1015);
#1015 = CARTESIAN_POINT('',(30.7,-11.,11.8));
#1016 = LINE('',#1017,#1018);
#1017 = CARTESIAN_POINT('',(39.25,-11.,11.8));
#1018 = VECTOR('',#1019,1.);
#1019 = DIRECTION('',(1.,0.,0.));
#1020 = ORIENTED_EDGE('',*,*,#1021,.T.);
#1021 = EDGE_CURVE('',#1014,#1022,#1024,.T.);
#1022 = VERTEX_POINT('',#1023);
#1023 = CARTESIAN_POINT('',(30.7,-11.,6.3));
#1024 = LINE('',#1025,#1026);
#1025 = CARTESIAN_POINT('',(30.7,-11.,10.8));
#1026 = VECTOR('',#1027,1.);
#1027 = DIRECTION('',(0.,0.,-1.));
#1028 = ORIENTED_EDGE('',*,*,#1029,.T.);
#1029 = EDGE_CURVE('',#1022,#1030,#1032,.T.);
#1030 = VERTEX_POINT('',#1031);
#1031 = CARTESIAN_POINT('',(26.2,-11.,6.3));
#1032 = LINE('',#1033,#1034);
#1033 = CARTESIAN_POINT('',(47.8,-11.,6.3));
#1034 = VECTOR('',#1035,1.);
#1035 = DIRECTION('',(-1.,0.,0.));
#1036 = ORIENTED_EDGE('',*,*,#1037,.T.);
#1037 = EDGE_CURVE('',#1030,#1038,#1040,.T.);
#1038 = VERTEX_POINT('',#1039);
#1039 = CARTESIAN_POINT('',(26.2,-11.,15.4));
#1040 = B_SPLINE_CURVE_WITH_KNOTS('',1,(#1041,#1042),.UNSPECIFIED.,.F.,
  .F.,(2,2),(0.,1.),.PIECEWISE_BEZIER_KNOTS.);
#1041 = CARTESIAN_POINT('',(26.2,-11.,6.3));
#1042 = CARTESIAN_POINT('',(26.2,-11.,15.4));
#1043 = ORIENTED_EDGE('',*,*,#1044,.F.);
#1044 = EDGE_CURVE('',#1005,#1038,#1045,.T.);
#1045 = LINE('',#1046,#1047);
#1046 = CARTESIAN_POINT('',(47.8,-11.,15.4));
#1047 = VECTOR('',#1048,1.);
#1048 = DIRECTION('',(-1.,0.,0.));
#1049 = PLANE('',#1050);
#1050 = AXIS2_PLACEMENT_3D('',#1051,#1052,#1053);
#1051 = CARTESIAN_POINT('',(47.8,-11.,15.4));
#1052 = DIRECTION('',(0.,1.,0.));
#1053 = DIRECTION('',(-1.,0.,0.));
#1054 = ADVANCED_FACE('',(#1055),#1073,.T.);
#1055 = FACE_BOUND('',#1056,.T.);
#1056 = EDGE_LOOP('',(#1057,#1065,#1066,#1067));
#1057 = ORIENTED_EDGE('',*,*,#1058,.T.);
#1058 = EDGE_CURVE('',#1059,#663,#1061,.T.);
#1059 = VERTEX_POINT('',#1060);
#1060 = CARTESIAN_POINT('',(25.,-61.9,9.2));
#1061 = LINE('',#1062,#1063);
#1062 = CARTESIAN_POINT('',(20.,-61.9,9.2));
#1063 = VECTOR('',#1064,1.);
#1064 = DIRECTION('',(1.,0.,0.));
#1065 = ORIENTED_EDGE('',*,*,#670,.T.);
#1066 = ORIENTED_EDGE('',*,*,#412,.T.);
#1067 = ORIENTED_EDGE('',*,*,#1068,.F.);
#1068 = EDGE_CURVE('',#1059,#405,#1069,.T.);
#1069 = LINE('',#1070,#1071);
#1070 = CARTESIAN_POINT('',(25.,-61.9,10.25));
#1071 = VECTOR('',#1072,1.);
#1072 = DIRECTION('',(0.,0.,-1.));
#1073 = PLANE('',#1074);
#1074 = AXIS2_PLACEMENT_3D('',#1075,#1076,#1077);
#1075 = CARTESIAN_POINT('',(20.,-61.9,5.1));
#1076 = DIRECTION('',(0.,1.,0.));
#1077 = DIRECTION('',(0.,0.,1.));
#1078 = ADVANCED_FACE('',(#1079),#1097,.T.);
#1079 = FACE_BOUND('',#1080,.T.);
#1080 = EDGE_LOOP('',(#1081,#1082,#1083,#1092));
#1081 = ORIENTED_EDGE('',*,*,#361,.T.);
#1082 = ORIENTED_EDGE('',*,*,#1004,.T.);
#1083 = ORIENTED_EDGE('',*,*,#1084,.F.);
#1084 = EDGE_CURVE('',#1085,#1005,#1087,.T.);
#1085 = VERTEX_POINT('',#1086);
#1086 = CARTESIAN_POINT('',(49.,-12.2,15.4));
#1087 = CIRCLE('',#1088,1.2);
#1088 = AXIS2_PLACEMENT_3D('',#1089,#1090,#1091);
#1089 = CARTESIAN_POINT('',(47.8,-12.2,15.4));
#1090 = DIRECTION('',(0.,-0.,1.));
#1091 = DIRECTION('',(1.,7.401486830834E-15,0.));
#1092 = ORIENTED_EDGE('',*,*,#1093,.F.);
#1093 = EDGE_CURVE('',#362,#1085,#1094,.T.);
#1094 = B_SPLINE_CURVE_WITH_KNOTS('',1,(#1095,#1096),.UNSPECIFIED.,.F.,
  .F.,(2,2),(0.,1.),.PIECEWISE_BEZIER_KNOTS.);
#1095 = CARTESIAN_POINT('',(49.,-12.2,6.3));
#1096 = CARTESIAN_POINT('',(49.,-12.2,15.4));
#1097 = CYLINDRICAL_SURFACE('',#1098,1.2);
#1098 = AXIS2_PLACEMENT_3D('',#1099,#1100,#1101);
#1099 = CARTESIAN_POINT('',(47.8,-12.2,6.3));
#1100 = DIRECTION('',(0.,0.,1.));
#1101 = DIRECTION('',(1.,7.401486830834E-15,0.));
#1102 = ADVANCED_FACE('',(#1103),#1151,.T.);
#1103 = FACE_BOUND('',#1104,.T.);
#1104 = EDGE_LOOP('',(#1105,#1114,#1122,#1130,#1136,#1137,#1138,#1145));
#1105 = ORIENTED_EDGE('',*,*,#1106,.F.);
#1106 = EDGE_CURVE('',#1107,#1109,#1111,.T.);
#1107 = VERTEX_POINT('',#1108);
#1108 = CARTESIAN_POINT('',(25.,-12.2,6.3));
#1109 = VERTEX_POINT('',#1110);
#1110 = CARTESIAN_POINT('',(25.,-12.2,15.4));
#1111 = B_SPLINE_CURVE_WITH_KNOTS('',1,(#1112,#1113),.UNSPECIFIED.,.F.,
  .F.,(2,2),(0.,1.),.PIECEWISE_BEZIER_KNOTS.);
#1112 = CARTESIAN_POINT('',(25.,-12.2,6.3));
#1113 = CARTESIAN_POINT('',(25.,-12.2,15.4));
#1114 = ORIENTED_EDGE('',*,*,#1115,.T.);
#1115 = EDGE_CURVE('',#1107,#1116,#1118,.T.);
#1116 = VERTEX_POINT('',#1117);
#1117 = CARTESIAN_POINT('',(25.,-53.4,6.3));
#1118 = LINE('',#1119,#1120);
#1119 = CARTESIAN_POINT('',(25.,-12.2,6.3));
#1120 = VECTOR('',#1121,1.);
#1121 = DIRECTION('',(0.,-1.,0.));
#1122 = ORIENTED_EDGE('',*,*,#1123,.F.);
#1123 = EDGE_CURVE('',#1124,#1116,#1126,.T.);
#1124 = VERTEX_POINT('',#1125);
#1125 = CARTESIAN_POINT('',(25.,-53.4,9.2));
#1126 = LINE('',#1127,#1128);
#1127 = CARTESIAN_POINT('',(25.,-53.4,10.25));
#1128 = VECTOR('',#1129,1.);
#1129 = DIRECTION('',(0.,0.,-1.));
#1130 = ORIENTED_EDGE('',*,*,#1131,.F.);
#1131 = EDGE_CURVE('',#1059,#1124,#1132,.T.);
#1132 = LINE('',#1133,#1134);
#1133 = CARTESIAN_POINT('',(25.,-37.05,9.2));
#1134 = VECTOR('',#1135,1.);
#1135 = DIRECTION('',(0.,1.,0.));
#1136 = ORIENTED_EDGE('',*,*,#1068,.T.);
#1137 = ORIENTED_EDGE('',*,*,#404,.T.);
#1138 = ORIENTED_EDGE('',*,*,#1139,.T.);
#1139 = EDGE_CURVE('',#396,#1140,#1142,.T.);
#1140 = VERTEX_POINT('',#1141);
#1141 = CARTESIAN_POINT('',(25.,-65.8,15.4));
#1142 = B_SPLINE_CURVE_WITH_KNOTS('',1,(#1143,#1144),.UNSPECIFIED.,.F.,
  .F.,(2,2),(0.,1.),.PIECEWISE_BEZIER_KNOTS.);
#1143 = CARTESIAN_POINT('',(25.,-65.8,6.3));
#1144 = CARTESIAN_POINT('',(25.,-65.8,15.4));
#1145 = ORIENTED_EDGE('',*,*,#1146,.F.);
#1146 = EDGE_CURVE('',#1109,#1140,#1147,.T.);
#1147 = LINE('',#1148,#1149);
#1148 = CARTESIAN_POINT('',(25.,-12.2,15.4));
#1149 = VECTOR('',#1150,1.);
#1150 = DIRECTION('',(0.,-1.,0.));
#1151 = PLANE('',#1152);
#1152 = AXIS2_PLACEMENT_3D('',#1153,#1154,#1155);
#1153 = CARTESIAN_POINT('',(25.,-12.2,15.4));
#1154 = DIRECTION('',(-1.,0.,0.));
#1155 = DIRECTION('',(0.,-1.,0.));
#1156 = ADVANCED_FACE('',(#1157),#1174,.T.);
#1157 = FACE_BOUND('',#1158,.T.);
#1158 = EDGE_LOOP('',(#1159,#1160,#1161,#1169));
#1159 = ORIENTED_EDGE('',*,*,#370,.T.);
#1160 = ORIENTED_EDGE('',*,*,#1093,.T.);
#1161 = ORIENTED_EDGE('',*,*,#1162,.F.);
#1162 = EDGE_CURVE('',#1163,#1085,#1165,.T.);
#1163 = VERTEX_POINT('',#1164);
#1164 = CARTESIAN_POINT('',(49.,-65.8,15.4));
#1165 = LINE('',#1166,#1167);
#1166 = CARTESIAN_POINT('',(49.,-65.8,15.4));
#1167 = VECTOR('',#1168,1.);
#1168 = DIRECTION('',(0.,1.,0.));
#1169 = ORIENTED_EDGE('',*,*,#1170,.F.);
#1170 = EDGE_CURVE('',#371,#1163,#1171,.T.);
#1171 = B_SPLINE_CURVE_WITH_KNOTS('',1,(#1172,#1173),.UNSPECIFIED.,.F.,
  .F.,(2,2),(0.,1.),.PIECEWISE_BEZIER_KNOTS.);
#1172 = CARTESIAN_POINT('',(49.,-65.8,6.3));
#1173 = CARTESIAN_POINT('',(49.,-65.8,15.4));
#1174 = PLANE('',#1175);
#1175 = AXIS2_PLACEMENT_3D('',#1176,#1177,#1178);
#1176 = CARTESIAN_POINT('',(49.,-65.8,15.4));
#1177 = DIRECTION('',(1.,0.,0.));
#1178 = DIRECTION('',(0.,1.,0.));
#1179 = ADVANCED_FACE('',(#1180),#1198,.T.);
#1180 = FACE_BOUND('',#1181,.T.);
#1181 = EDGE_LOOP('',(#1182,#1183,#1190,#1197));
#1182 = ORIENTED_EDGE('',*,*,#395,.T.);
#1183 = ORIENTED_EDGE('',*,*,#1184,.T.);
#1184 = EDGE_CURVE('',#388,#1185,#1187,.T.);
#1185 = VERTEX_POINT('',#1186);
#1186 = CARTESIAN_POINT('',(26.2,-67.,15.4));
#1187 = B_SPLINE_CURVE_WITH_KNOTS('',1,(#1188,#1189),.UNSPECIFIED.,.F.,
  .F.,(2,2),(0.,1.),.PIECEWISE_BEZIER_KNOTS.);
#1188 = CARTESIAN_POINT('',(26.2,-67.,6.3));
#1189 = CARTESIAN_POINT('',(26.2,-67.,15.4));
#1190 = ORIENTED_EDGE('',*,*,#1191,.F.);
#1191 = EDGE_CURVE('',#1140,#1185,#1192,.T.);
#1192 = CIRCLE('',#1193,1.2);
#1193 = AXIS2_PLACEMENT_3D('',#1194,#1195,#1196);
#1194 = CARTESIAN_POINT('',(26.2,-65.8,15.4));
#1195 = DIRECTION('',(0.,0.,1.));
#1196 = DIRECTION('',(-1.,3.552713678801E-14,0.));
#1197 = ORIENTED_EDGE('',*,*,#1139,.F.);
#1198 = CYLINDRICAL_SURFACE('',#1199,1.2);
#1199 = AXIS2_PLACEMENT_3D('',#1200,#1201,#1202);
#1200 = CARTESIAN_POINT('',(26.2,-65.8,6.3));
#1201 = DIRECTION('',(0.,0.,1.));
#1202 = DIRECTION('',(-1.,3.552713678801E-14,0.));
#1203 = ADVANCED_FACE('',(#1204),#1222,.T.);
#1204 = FACE_BOUND('',#1205,.T.);
#1205 = EDGE_LOOP('',(#1206,#1207,#1208,#1217));
#1206 = ORIENTED_EDGE('',*,*,#378,.T.);
#1207 = ORIENTED_EDGE('',*,*,#1170,.T.);
#1208 = ORIENTED_EDGE('',*,*,#1209,.F.);
#1209 = EDGE_CURVE('',#1210,#1163,#1212,.T.);
#1210 = VERTEX_POINT('',#1211);
#1211 = CARTESIAN_POINT('',(47.8,-67.,15.4));
#1212 = CIRCLE('',#1213,1.2);
#1213 = AXIS2_PLACEMENT_3D('',#1214,#1215,#1216);
#1214 = CARTESIAN_POINT('',(47.8,-65.8,15.4));
#1215 = DIRECTION('',(-0.,0.,1.));
#1216 = DIRECTION('',(5.921189464667E-15,-1.,0.));
#1217 = ORIENTED_EDGE('',*,*,#1218,.F.);
#1218 = EDGE_CURVE('',#379,#1210,#1219,.T.);
#1219 = B_SPLINE_CURVE_WITH_KNOTS('',1,(#1220,#1221),.UNSPECIFIED.,.F.,
  .F.,(2,2),(0.,1.),.PIECEWISE_BEZIER_KNOTS.);
#1220 = CARTESIAN_POINT('',(47.8,-67.,6.3));
#1221 = CARTESIAN_POINT('',(47.8,-67.,15.4));
#1222 = CYLINDRICAL_SURFACE('',#1223,1.2);
#1223 = AXIS2_PLACEMENT_3D('',#1224,#1225,#1226);
#1224 = CARTESIAN_POINT('',(47.8,-65.8,6.3));
#1225 = DIRECTION('',(0.,0.,1.));
#1226 = DIRECTION('',(5.921189464667E-15,-1.,0.));
#1227 = ADVANCED_FACE('',(#1228),#1239,.T.);
#1228 = FACE_BOUND('',#1229,.T.);
#1229 = EDGE_LOOP('',(#1230,#1231,#1232,#1238));
#1230 = ORIENTED_EDGE('',*,*,#387,.T.);
#1231 = ORIENTED_EDGE('',*,*,#1218,.T.);
#1232 = ORIENTED_EDGE('',*,*,#1233,.F.);
#1233 = EDGE_CURVE('',#1185,#1210,#1234,.T.);
#1234 = LINE('',#1235,#1236);
#1235 = CARTESIAN_POINT('',(26.2,-67.,15.4));
#1236 = VECTOR('',#1237,1.);
#1237 = DIRECTION('',(1.,0.,0.));
#1238 = ORIENTED_EDGE('',*,*,#1184,.F.);
#1239 = PLANE('',#1240);
#1240 = AXIS2_PLACEMENT_3D('',#1241,#1242,#1243);
#1241 = CARTESIAN_POINT('',(26.2,-67.,15.4));
#1242 = DIRECTION('',(0.,-1.,0.));
#1243 = DIRECTION('',(1.,0.,0.));
#1244 = ADVANCED_FACE('',(#1245),#1264,.F.);
#1245 = FACE_BOUND('',#1246,.T.);
#1246 = EDGE_LOOP('',(#1247,#1255,#1256,#1257));
#1247 = ORIENTED_EDGE('',*,*,#1248,.F.);
#1248 = EDGE_CURVE('',#473,#1249,#1251,.T.);
#1249 = VERTEX_POINT('',#1250);
#1250 = CARTESIAN_POINT('',(46.65,-64.,14.9));
#1251 = LINE('',#1252,#1253);
#1252 = CARTESIAN_POINT('',(46.65,-64.,6.2));
#1253 = VECTOR('',#1254,1.);
#1254 = DIRECTION('',(0.,0.,1.));
#1255 = ORIENTED_EDGE('',*,*,#472,.T.);
#1256 = ORIENTED_EDGE('',*,*,#1248,.T.);
#1257 = ORIENTED_EDGE('',*,*,#1258,.F.);
#1258 = EDGE_CURVE('',#1249,#1249,#1259,.T.);
#1259 = CIRCLE('',#1260,1.15);
#1260 = AXIS2_PLACEMENT_3D('',#1261,#1262,#1263);
#1261 = CARTESIAN_POINT('',(45.5,-64.,14.9));
#1262 = DIRECTION('',(0.,0.,-1.));
#1263 = DIRECTION('',(1.,0.,0.));
#1264 = CYLINDRICAL_SURFACE('',#1265,1.15);
#1265 = AXIS2_PLACEMENT_3D('',#1266,#1267,#1268);
#1266 = CARTESIAN_POINT('',(45.5,-64.,6.2));
#1267 = DIRECTION('',(-0.,-0.,-1.));
#1268 = DIRECTION('',(1.,0.,0.));
#1269 = ADVANCED_FACE('',(#1270),#1289,.F.);
#1270 = FACE_BOUND('',#1271,.T.);
#1271 = EDGE_LOOP('',(#1272,#1280,#1281,#1282));
#1272 = ORIENTED_EDGE('',*,*,#1273,.F.);
#1273 = EDGE_CURVE('',#484,#1274,#1276,.T.);
#1274 = VERTEX_POINT('',#1275);
#1275 = CARTESIAN_POINT('',(30.55,-64.,14.9));
#1276 = LINE('',#1277,#1278);
#1277 = CARTESIAN_POINT('',(30.55,-64.,6.2));
#1278 = VECTOR('',#1279,1.);
#1279 = DIRECTION('',(0.,0.,1.));
#1280 = ORIENTED_EDGE('',*,*,#483,.T.);
#1281 = ORIENTED_EDGE('',*,*,#1273,.T.);
#1282 = ORIENTED_EDGE('',*,*,#1283,.F.);
#1283 = EDGE_CURVE('',#1274,#1274,#1284,.T.);
#1284 = CIRCLE('',#1285,1.15);
#1285 = AXIS2_PLACEMENT_3D('',#1286,#1287,#1288);
#1286 = CARTESIAN_POINT('',(29.4,-64.,14.9));
#1287 = DIRECTION('',(0.,0.,-1.));
#1288 = DIRECTION('',(1.,0.,0.));
#1289 = CYLINDRICAL_SURFACE('',#1290,1.15);
#1290 = AXIS2_PLACEMENT_3D('',#1291,#1292,#1293);
#1291 = CARTESIAN_POINT('',(29.4,-64.,6.2));
#1292 = DIRECTION('',(-0.,-0.,-1.));
#1293 = DIRECTION('',(1.,0.,0.));
#1294 = ADVANCED_FACE('',(#1295),#1306,.F.);
#1295 = FACE_BOUND('',#1296,.F.);
#1296 = EDGE_LOOP('',(#1297,#1303,#1304,#1305));
#1297 = ORIENTED_EDGE('',*,*,#1298,.F.);
#1298 = EDGE_CURVE('',#1124,#655,#1299,.T.);
#1299 = LINE('',#1300,#1301);
#1300 = CARTESIAN_POINT('',(20.,-53.4,9.2));
#1301 = VECTOR('',#1302,1.);
#1302 = DIRECTION('',(1.,0.,0.));
#1303 = ORIENTED_EDGE('',*,*,#1131,.F.);
#1304 = ORIENTED_EDGE('',*,*,#1058,.T.);
#1305 = ORIENTED_EDGE('',*,*,#662,.T.);
#1306 = PLANE('',#1307);
#1307 = AXIS2_PLACEMENT_3D('',#1308,#1309,#1310);
#1308 = CARTESIAN_POINT('',(20.,-61.9,9.2));
#1309 = DIRECTION('',(0.,0.,1.));
#1310 = DIRECTION('',(1.,0.,0.));
#1311 = ADVANCED_FACE('',(#1312),#1323,.F.);
#1312 = FACE_BOUND('',#1313,.F.);
#1313 = EDGE_LOOP('',(#1314,#1315,#1316,#1322));
#1314 = ORIENTED_EDGE('',*,*,#1298,.T.);
#1315 = ORIENTED_EDGE('',*,*,#654,.T.);
#1316 = ORIENTED_EDGE('',*,*,#1317,.T.);
#1317 = EDGE_CURVE('',#647,#1116,#1318,.T.);
#1318 = LINE('',#1319,#1320);
#1319 = CARTESIAN_POINT('',(33.9,-53.4,6.3));
#1320 = VECTOR('',#1321,1.);
#1321 = DIRECTION('',(-1.,0.,0.));
#1322 = ORIENTED_EDGE('',*,*,#1123,.F.);
#1323 = PLANE('',#1324);
#1324 = AXIS2_PLACEMENT_3D('',#1325,#1326,#1327);
#1325 = CARTESIAN_POINT('',(20.,-53.4,5.1));
#1326 = DIRECTION('',(0.,1.,0.));
#1327 = DIRECTION('',(0.,0.,1.));
#1328 = ADVANCED_FACE('',(#1329),#1351,.F.);
#1329 = FACE_BOUND('',#1330,.F.);
#1330 = EDGE_LOOP('',(#1331,#1332,#1333,#1334,#1335,#1336,#1337,#1343,
    #1344));
#1331 = ORIENTED_EDGE('',*,*,#1115,.T.);
#1332 = ORIENTED_EDGE('',*,*,#1317,.F.);
#1333 = ORIENTED_EDGE('',*,*,#646,.F.);
#1334 = ORIENTED_EDGE('',*,*,#687,.F.);
#1335 = ORIENTED_EDGE('',*,*,#711,.F.);
#1336 = ORIENTED_EDGE('',*,*,#798,.F.);
#1337 = ORIENTED_EDGE('',*,*,#1338,.T.);
#1338 = EDGE_CURVE('',#791,#1022,#1339,.T.);
#1339 = LINE('',#1340,#1341);
#1340 = CARTESIAN_POINT('',(30.7,-16.1,6.3));
#1341 = VECTOR('',#1342,1.);
#1342 = DIRECTION('',(0.,1.,0.));
#1343 = ORIENTED_EDGE('',*,*,#1029,.T.);
#1344 = ORIENTED_EDGE('',*,*,#1345,.T.);
#1345 = EDGE_CURVE('',#1030,#1107,#1346,.T.);
#1346 = CIRCLE('',#1347,1.2);
#1347 = AXIS2_PLACEMENT_3D('',#1348,#1349,#1350);
#1348 = CARTESIAN_POINT('',(26.2,-12.2,6.3));
#1349 = DIRECTION('',(0.,-0.,1.));
#1350 = DIRECTION('',(2.368475785867E-14,1.,0.));
#1351 = PLANE('',#1352);
#1352 = AXIS2_PLACEMENT_3D('',#1353,#1354,#1355);
#1353 = CARTESIAN_POINT('',(47.8,-12.2,6.3));
#1354 = DIRECTION('',(0.,0.,1.));
#1355 = DIRECTION('',(1.,7.401486830834E-15,0.));
#1356 = ADVANCED_FACE('',(#1357),#1384,.T.);
#1357 = FACE_BOUND('',#1358,.T.);
#1358 = EDGE_LOOP('',(#1359,#1367,#1375,#1381,#1382,#1383));
#1359 = ORIENTED_EDGE('',*,*,#1360,.F.);
#1360 = EDGE_CURVE('',#1361,#1014,#1363,.T.);
#1361 = VERTEX_POINT('',#1362);
#1362 = CARTESIAN_POINT('',(30.7,-11.4,11.8));
#1363 = LINE('',#1364,#1365);
#1364 = CARTESIAN_POINT('',(30.7,-20.,11.8));
#1365 = VECTOR('',#1366,1.);
#1366 = DIRECTION('',(0.,1.,0.));
#1367 = ORIENTED_EDGE('',*,*,#1368,.F.);
#1368 = EDGE_CURVE('',#1369,#1361,#1371,.T.);
#1369 = VERTEX_POINT('',#1370);
#1370 = CARTESIAN_POINT('',(30.7,-11.4,8.5));
#1371 = LINE('',#1372,#1373);
#1372 = CARTESIAN_POINT('',(30.7,-11.4,7.35));
#1373 = VECTOR('',#1374,1.);
#1374 = DIRECTION('',(0.,0.,1.));
#1375 = ORIENTED_EDGE('',*,*,#1376,.T.);
#1376 = EDGE_CURVE('',#1369,#783,#1377,.T.);
#1377 = LINE('',#1378,#1379);
#1378 = CARTESIAN_POINT('',(30.7,-34.05,8.5));
#1379 = VECTOR('',#1380,1.);
#1380 = DIRECTION('',(0.,-1.,0.));
#1381 = ORIENTED_EDGE('',*,*,#790,.T.);
#1382 = ORIENTED_EDGE('',*,*,#1338,.T.);
#1383 = ORIENTED_EDGE('',*,*,#1021,.F.);
#1384 = PLANE('',#1385);
#1385 = AXIS2_PLACEMENT_3D('',#1386,#1387,#1388);
#1386 = CARTESIAN_POINT('',(30.7,-20.,6.2));
#1387 = DIRECTION('',(1.,0.,0.));
#1388 = DIRECTION('',(0.,0.,1.));
#1389 = ADVANCED_FACE('',(#1390),#1408,.T.);
#1390 = FACE_BOUND('',#1391,.T.);
#1391 = EDGE_LOOP('',(#1392,#1400,#1401,#1402));
#1392 = ORIENTED_EDGE('',*,*,#1393,.F.);
#1393 = EDGE_CURVE('',#775,#1394,#1396,.T.);
#1394 = VERTEX_POINT('',#1395);
#1395 = CARTESIAN_POINT('',(27.4,-11.4,8.5));
#1396 = LINE('',#1397,#1398);
#1397 = CARTESIAN_POINT('',(27.4,-48.1,8.5));
#1398 = VECTOR('',#1399,1.);
#1399 = DIRECTION('',(0.,1.,0.));
#1400 = ORIENTED_EDGE('',*,*,#782,.T.);
#1401 = ORIENTED_EDGE('',*,*,#1376,.F.);
#1402 = ORIENTED_EDGE('',*,*,#1403,.F.);
#1403 = EDGE_CURVE('',#1394,#1369,#1404,.T.);
#1404 = LINE('',#1405,#1406);
#1405 = CARTESIAN_POINT('',(27.4,-11.4,8.5));
#1406 = VECTOR('',#1407,1.);
#1407 = DIRECTION('',(1.,0.,0.));
#1408 = PLANE('',#1409);
#1409 = AXIS2_PLACEMENT_3D('',#1410,#1411,#1412);
#1410 = CARTESIAN_POINT('',(27.4,-48.1,8.5));
#1411 = DIRECTION('',(0.,0.,1.));
#1412 = DIRECTION('',(1.,0.,0.));
#1413 = ADVANCED_FACE('',(#1414),#1432,.T.);
#1414 = FACE_BOUND('',#1415,.T.);
#1415 = EDGE_LOOP('',(#1416,#1424,#1425,#1426));
#1416 = ORIENTED_EDGE('',*,*,#1417,.F.);
#1417 = EDGE_CURVE('',#767,#1418,#1420,.T.);
#1418 = VERTEX_POINT('',#1419);
#1419 = CARTESIAN_POINT('',(27.4,-11.4,12.7));
#1420 = LINE('',#1421,#1422);
#1421 = CARTESIAN_POINT('',(27.4,-48.1,12.7));
#1422 = VECTOR('',#1423,1.);
#1423 = DIRECTION('',(0.,1.,0.));
#1424 = ORIENTED_EDGE('',*,*,#774,.T.);
#1425 = ORIENTED_EDGE('',*,*,#1393,.T.);
#1426 = ORIENTED_EDGE('',*,*,#1427,.T.);
#1427 = EDGE_CURVE('',#1394,#1418,#1428,.T.);
#1428 = LINE('',#1429,#1430);
#1429 = CARTESIAN_POINT('',(27.4,-11.4,8.5));
#1430 = VECTOR('',#1431,1.);
#1431 = DIRECTION('',(0.,0.,1.));
#1432 = PLANE('',#1433);
#1433 = AXIS2_PLACEMENT_3D('',#1434,#1435,#1436);
#1434 = CARTESIAN_POINT('',(27.4,-48.1,8.5));
#1435 = DIRECTION('',(1.,0.,0.));
#1436 = DIRECTION('',(0.,0.,1.));
#1437 = ADVANCED_FACE('',(#1438),#1456,.F.);
#1438 = FACE_BOUND('',#1439,.F.);
#1439 = EDGE_LOOP('',(#1440,#1441,#1442,#1450));
#1440 = ORIENTED_EDGE('',*,*,#1417,.F.);
#1441 = ORIENTED_EDGE('',*,*,#766,.T.);
#1442 = ORIENTED_EDGE('',*,*,#1443,.T.);
#1443 = EDGE_CURVE('',#759,#1444,#1446,.T.);
#1444 = VERTEX_POINT('',#1445);
#1445 = CARTESIAN_POINT('',(47.,-11.4,12.7));
#1446 = LINE('',#1447,#1448);
#1447 = CARTESIAN_POINT('',(47.,-48.1,12.7));
#1448 = VECTOR('',#1449,1.);
#1449 = DIRECTION('',(0.,1.,0.));
#1450 = ORIENTED_EDGE('',*,*,#1451,.F.);
#1451 = EDGE_CURVE('',#1418,#1444,#1452,.T.);
#1452 = LINE('',#1453,#1454);
#1453 = CARTESIAN_POINT('',(27.4,-11.4,12.7));
#1454 = VECTOR('',#1455,1.);
#1455 = DIRECTION('',(1.,0.,0.));
#1456 = PLANE('',#1457);
#1457 = AXIS2_PLACEMENT_3D('',#1458,#1459,#1460);
#1458 = CARTESIAN_POINT('',(27.4,-48.1,12.7));
#1459 = DIRECTION('',(0.,0.,1.));
#1460 = DIRECTION('',(1.,0.,0.));
#1461 = ADVANCED_FACE('',(#1462),#1480,.F.);
#1462 = FACE_BOUND('',#1463,.F.);
#1463 = EDGE_LOOP('',(#1464,#1465,#1466,#1474));
#1464 = ORIENTED_EDGE('',*,*,#1443,.F.);
#1465 = ORIENTED_EDGE('',*,*,#758,.T.);
#1466 = ORIENTED_EDGE('',*,*,#1467,.T.);
#1467 = EDGE_CURVE('',#751,#1468,#1470,.T.);
#1468 = VERTEX_POINT('',#1469);
#1469 = CARTESIAN_POINT('',(47.,-11.4,8.5));
#1470 = LINE('',#1471,#1472);
#1471 = CARTESIAN_POINT('',(47.,-48.1,8.5));
#1472 = VECTOR('',#1473,1.);
#1473 = DIRECTION('',(0.,1.,0.));
#1474 = ORIENTED_EDGE('',*,*,#1475,.T.);
#1475 = EDGE_CURVE('',#1468,#1444,#1476,.T.);
#1476 = LINE('',#1477,#1478);
#1477 = CARTESIAN_POINT('',(47.,-11.4,8.5));
#1478 = VECTOR('',#1479,1.);
#1479 = DIRECTION('',(0.,0.,1.));
#1480 = PLANE('',#1481);
#1481 = AXIS2_PLACEMENT_3D('',#1482,#1483,#1484);
#1482 = CARTESIAN_POINT('',(47.,-48.1,8.5));
#1483 = DIRECTION('',(1.,0.,0.));
#1484 = DIRECTION('',(0.,0.,1.));
#1485 = ADVANCED_FACE('',(#1486),#1497,.T.);
#1486 = FACE_BOUND('',#1487,.T.);
#1487 = EDGE_LOOP('',(#1488,#1489,#1490,#1496));
#1488 = ORIENTED_EDGE('',*,*,#750,.T.);
#1489 = ORIENTED_EDGE('',*,*,#1467,.T.);
#1490 = ORIENTED_EDGE('',*,*,#1491,.F.);
#1491 = EDGE_CURVE('',#975,#1468,#1492,.T.);
#1492 = LINE('',#1493,#1494);
#1493 = CARTESIAN_POINT('',(27.4,-11.4,8.5));
#1494 = VECTOR('',#1495,1.);
#1495 = DIRECTION('',(1.,0.,0.));
#1496 = ORIENTED_EDGE('',*,*,#982,.T.);
#1497 = PLANE('',#1498);
#1498 = AXIS2_PLACEMENT_3D('',#1499,#1500,#1501);
#1499 = CARTESIAN_POINT('',(27.4,-48.1,8.5));
#1500 = DIRECTION('',(0.,0.,1.));
#1501 = DIRECTION('',(1.,0.,0.));
#1502 = ADVANCED_FACE('',(#1503,#1573,#1584,#1587,#1598),#1604,.T.);
#1503 = FACE_BOUND('',#1504,.T.);
#1504 = EDGE_LOOP('',(#1505,#1516,#1524,#1533,#1541,#1550,#1558,#1567));
#1505 = ORIENTED_EDGE('',*,*,#1506,.T.);
#1506 = EDGE_CURVE('',#1507,#1509,#1511,.T.);
#1507 = VERTEX_POINT('',#1508);
#1508 = CARTESIAN_POINT('',(48.6,-12.2,16.6));
#1509 = VERTEX_POINT('',#1510);
#1510 = CARTESIAN_POINT('',(47.8,-11.4,16.6));
#1511 = CIRCLE('',#1512,0.8);
#1512 = AXIS2_PLACEMENT_3D('',#1513,#1514,#1515);
#1513 = CARTESIAN_POINT('',(47.8,-12.2,16.6));
#1514 = DIRECTION('',(-0.,0.,1.));
#1515 = DIRECTION('',(1.,-4.440892098501E-15,0.));
#1516 = ORIENTED_EDGE('',*,*,#1517,.T.);
#1517 = EDGE_CURVE('',#1509,#1518,#1520,.T.);
#1518 = VERTEX_POINT('',#1519);
#1519 = CARTESIAN_POINT('',(26.2,-11.4,16.6));
#1520 = LINE('',#1521,#1522);
#1521 = CARTESIAN_POINT('',(47.8,-11.4,16.6));
#1522 = VECTOR('',#1523,1.);
#1523 = DIRECTION('',(-1.,0.,0.));
#1524 = ORIENTED_EDGE('',*,*,#1525,.T.);
#1525 = EDGE_CURVE('',#1518,#1526,#1528,.T.);
#1526 = VERTEX_POINT('',#1527);
#1527 = CARTESIAN_POINT('',(25.4,-12.2,16.6));
#1528 = CIRCLE('',#1529,0.8);
#1529 = AXIS2_PLACEMENT_3D('',#1530,#1531,#1532);
#1530 = CARTESIAN_POINT('',(26.2,-12.2,16.6));
#1531 = DIRECTION('',(0.,0.,1.));
#1532 = DIRECTION('',(-1.33226762955E-14,1.,0.));
#1533 = ORIENTED_EDGE('',*,*,#1534,.T.);
#1534 = EDGE_CURVE('',#1526,#1535,#1537,.T.);
#1535 = VERTEX_POINT('',#1536);
#1536 = CARTESIAN_POINT('',(25.4,-65.8,16.6));
#1537 = LINE('',#1538,#1539);
#1538 = CARTESIAN_POINT('',(25.4,-12.2,16.6));
#1539 = VECTOR('',#1540,1.);
#1540 = DIRECTION('',(0.,-1.,0.));
#1541 = ORIENTED_EDGE('',*,*,#1542,.T.);
#1542 = EDGE_CURVE('',#1535,#1543,#1545,.T.);
#1543 = VERTEX_POINT('',#1544);
#1544 = CARTESIAN_POINT('',(26.2,-66.6,16.6));
#1545 = CIRCLE('',#1546,0.8);
#1546 = AXIS2_PLACEMENT_3D('',#1547,#1548,#1549);
#1547 = CARTESIAN_POINT('',(26.2,-65.8,16.6));
#1548 = DIRECTION('',(0.,0.,1.));
#1549 = DIRECTION('',(-1.,-3.5527136788E-14,0.));
#1550 = ORIENTED_EDGE('',*,*,#1551,.T.);
#1551 = EDGE_CURVE('',#1543,#1552,#1554,.T.);
#1552 = VERTEX_POINT('',#1553);
#1553 = CARTESIAN_POINT('',(47.8,-66.6,16.6));
#1554 = LINE('',#1555,#1556);
#1555 = CARTESIAN_POINT('',(26.2,-66.6,16.6));
#1556 = VECTOR('',#1557,1.);
#1557 = DIRECTION('',(1.,0.,0.));
#1558 = ORIENTED_EDGE('',*,*,#1559,.T.);
#1559 = EDGE_CURVE('',#1552,#1560,#1562,.T.);
#1560 = VERTEX_POINT('',#1561);
#1561 = CARTESIAN_POINT('',(48.6,-65.8,16.6));
#1562 = CIRCLE('',#1563,0.8);
#1563 = AXIS2_PLACEMENT_3D('',#1564,#1565,#1566);
#1564 = CARTESIAN_POINT('',(47.8,-65.8,16.6));
#1565 = DIRECTION('',(-0.,0.,1.));
#1566 = DIRECTION('',(0.,-1.,0.));
#1567 = ORIENTED_EDGE('',*,*,#1568,.T.);
#1568 = EDGE_CURVE('',#1560,#1507,#1569,.T.);
#1569 = LINE('',#1570,#1571);
#1570 = CARTESIAN_POINT('',(48.6,-65.8,16.6));
#1571 = VECTOR('',#1572,1.);
#1572 = DIRECTION('',(0.,1.,0.));
#1573 = FACE_BOUND('',#1574,.T.);
#1574 = EDGE_LOOP('',(#1575));
#1575 = ORIENTED_EDGE('',*,*,#1576,.T.);
#1576 = EDGE_CURVE('',#1577,#1577,#1579,.T.);
#1577 = VERTEX_POINT('',#1578);
#1578 = CARTESIAN_POINT('',(31.25,-64.,16.6));
#1579 = CIRCLE('',#1580,1.85);
#1580 = AXIS2_PLACEMENT_3D('',#1581,#1582,#1583);
#1581 = CARTESIAN_POINT('',(29.4,-64.,16.6));
#1582 = DIRECTION('',(0.,0.,-1.));
#1583 = DIRECTION('',(1.,0.,0.));
#1584 = FACE_BOUND('',#1585,.T.);
#1585 = EDGE_LOOP('',(#1586));
#1586 = ORIENTED_EDGE('',*,*,#852,.T.);
#1587 = FACE_BOUND('',#1588,.T.);
#1588 = EDGE_LOOP('',(#1589));
#1589 = ORIENTED_EDGE('',*,*,#1590,.T.);
#1590 = EDGE_CURVE('',#1591,#1591,#1593,.T.);
#1591 = VERTEX_POINT('',#1592);
#1592 = CARTESIAN_POINT('',(47.35,-64.,16.6));
#1593 = CIRCLE('',#1594,1.85);
#1594 = AXIS2_PLACEMENT_3D('',#1595,#1596,#1597);
#1595 = CARTESIAN_POINT('',(45.5,-64.,16.6));
#1596 = DIRECTION('',(0.,0.,-1.));
#1597 = DIRECTION('',(1.,0.,0.));
#1598 = FACE_BOUND('',#1599,.T.);
#1599 = EDGE_LOOP('',(#1600,#1601,#1602,#1603));
#1600 = ORIENTED_EDGE('',*,*,#885,.T.);
#1601 = ORIENTED_EDGE('',*,*,#933,.T.);
#1602 = ORIENTED_EDGE('',*,*,#950,.F.);
#1603 = ORIENTED_EDGE('',*,*,#909,.F.);
#1604 = PLANE('',#1605);
#1605 = AXIS2_PLACEMENT_3D('',#1606,#1607,#1608);
#1606 = CARTESIAN_POINT('',(37.,-39.,16.6));
#1607 = DIRECTION('',(0.,0.,1.));
#1608 = DIRECTION('',(1.,0.,0.));
#1609 = ADVANCED_FACE('',(#1610),#1621,.F.);
#1610 = FACE_BOUND('',#1611,.F.);
#1611 = EDGE_LOOP('',(#1612,#1613,#1619,#1620));
#1612 = ORIENTED_EDGE('',*,*,#1360,.F.);
#1613 = ORIENTED_EDGE('',*,*,#1614,.F.);
#1614 = EDGE_CURVE('',#965,#1361,#1615,.T.);
#1615 = LINE('',#1616,#1617);
#1616 = CARTESIAN_POINT('',(29.05,-11.4,11.8));
#1617 = VECTOR('',#1618,1.);
#1618 = DIRECTION('',(-1.,0.,0.));
#1619 = ORIENTED_EDGE('',*,*,#964,.T.);
#1620 = ORIENTED_EDGE('',*,*,#1013,.F.);
#1621 = PLANE('',#1622);
#1622 = AXIS2_PLACEMENT_3D('',#1623,#1624,#1625);
#1623 = CARTESIAN_POINT('',(30.7,-20.,11.8));
#1624 = DIRECTION('',(0.,0.,1.));
#1625 = DIRECTION('',(1.,0.,0.));
#1626 = ADVANCED_FACE('',(#1627),#1637,.F.);
#1627 = FACE_BOUND('',#1628,.F.);
#1628 = EDGE_LOOP('',(#1629,#1630,#1631,#1632,#1633,#1634,#1635,#1636));
#1629 = ORIENTED_EDGE('',*,*,#1403,.F.);
#1630 = ORIENTED_EDGE('',*,*,#1427,.T.);
#1631 = ORIENTED_EDGE('',*,*,#1451,.T.);
#1632 = ORIENTED_EDGE('',*,*,#1475,.F.);
#1633 = ORIENTED_EDGE('',*,*,#1491,.F.);
#1634 = ORIENTED_EDGE('',*,*,#974,.T.);
#1635 = ORIENTED_EDGE('',*,*,#1614,.T.);
#1636 = ORIENTED_EDGE('',*,*,#1368,.F.);
#1637 = PLANE('',#1638);
#1638 = AXIS2_PLACEMENT_3D('',#1639,#1640,#1641);
#1639 = CARTESIAN_POINT('',(27.4,-11.4,8.5));
#1640 = DIRECTION('',(0.,1.,0.));
#1641 = DIRECTION('',(0.,0.,1.));
#1642 = ADVANCED_FACE('',(#1643),#1657,.T.);
#1643 = FACE_BOUND('',#1644,.T.);
#1644 = EDGE_LOOP('',(#1645,#1646,#1651,#1652));
#1645 = ORIENTED_EDGE('',*,*,#1044,.T.);
#1646 = ORIENTED_EDGE('',*,*,#1647,.T.);
#1647 = EDGE_CURVE('',#1038,#1518,#1648,.T.);
#1648 = B_SPLINE_CURVE_WITH_KNOTS('',1,(#1649,#1650),.UNSPECIFIED.,.F.,
  .F.,(2,2),(0.,1.),.PIECEWISE_BEZIER_KNOTS.);
#1649 = CARTESIAN_POINT('',(26.2,-11.,15.4));
#1650 = CARTESIAN_POINT('',(26.2,-11.4,16.6));
#1651 = ORIENTED_EDGE('',*,*,#1517,.F.);
#1652 = ORIENTED_EDGE('',*,*,#1653,.F.);
#1653 = EDGE_CURVE('',#1005,#1509,#1654,.T.);
#1654 = B_SPLINE_CURVE_WITH_KNOTS('',1,(#1655,#1656),.UNSPECIFIED.,.F.,
  .F.,(2,2),(0.,1.),.PIECEWISE_BEZIER_KNOTS.);
#1655 = CARTESIAN_POINT('',(47.8,-11.,15.4));
#1656 = CARTESIAN_POINT('',(47.8,-11.4,16.6));
#1657 = PLANE('',#1658);
#1658 = AXIS2_PLACEMENT_3D('',#1659,#1660,#1661);
#1659 = CARTESIAN_POINT('',(47.8,-11.4,16.6));
#1660 = DIRECTION('',(0.,0.948683298051,0.316227766017));
#1661 = DIRECTION('',(-1.,0.,0.));
#1662 = ADVANCED_FACE('',(#1663),#1675,.T.);
#1663 = FACE_BOUND('',#1664,.T.);
#1664 = EDGE_LOOP('',(#1665,#1666,#1667,#1674));
#1665 = ORIENTED_EDGE('',*,*,#1345,.T.);
#1666 = ORIENTED_EDGE('',*,*,#1106,.T.);
#1667 = ORIENTED_EDGE('',*,*,#1668,.F.);
#1668 = EDGE_CURVE('',#1038,#1109,#1669,.T.);
#1669 = CIRCLE('',#1670,1.2);
#1670 = AXIS2_PLACEMENT_3D('',#1671,#1672,#1673);
#1671 = CARTESIAN_POINT('',(26.2,-12.2,15.4));
#1672 = DIRECTION('',(0.,-0.,1.));
#1673 = DIRECTION('',(2.368475785867E-14,1.,0.));
#1674 = ORIENTED_EDGE('',*,*,#1037,.F.);
#1675 = CYLINDRICAL_SURFACE('',#1676,1.2);
#1676 = AXIS2_PLACEMENT_3D('',#1677,#1678,#1679);
#1677 = CARTESIAN_POINT('',(26.2,-12.2,6.3));
#1678 = DIRECTION('',(0.,0.,1.));
#1679 = DIRECTION('',(2.368475785867E-14,1.,0.));
#1680 = ADVANCED_FACE('',(#1681),#1691,.T.);
#1681 = FACE_BOUND('',#1682,.T.);
#1682 = EDGE_LOOP('',(#1683,#1684,#1685,#1686));
#1683 = ORIENTED_EDGE('',*,*,#1084,.T.);
#1684 = ORIENTED_EDGE('',*,*,#1653,.T.);
#1685 = ORIENTED_EDGE('',*,*,#1506,.F.);
#1686 = ORIENTED_EDGE('',*,*,#1687,.F.);
#1687 = EDGE_CURVE('',#1085,#1507,#1688,.T.);
#1688 = B_SPLINE_CURVE_WITH_KNOTS('',1,(#1689,#1690),.UNSPECIFIED.,.F.,
  .F.,(2,2),(0.,1.),.PIECEWISE_BEZIER_KNOTS.);
#1689 = CARTESIAN_POINT('',(49.,-12.2,15.4));
#1690 = CARTESIAN_POINT('',(48.6,-12.2,16.6));
#1691 = CONICAL_SURFACE('',#1692,1.2,0.321750554397);
#1692 = AXIS2_PLACEMENT_3D('',#1693,#1694,#1695);
#1693 = CARTESIAN_POINT('',(47.8,-12.2,15.4));
#1694 = DIRECTION('',(0.,0.,-1.));
#1695 = DIRECTION('',(1.,7.401486830834E-15,0.));
#1696 = ADVANCED_FACE('',(#1697),#1711,.T.);
#1697 = FACE_BOUND('',#1698,.T.);
#1698 = EDGE_LOOP('',(#1699,#1700,#1705,#1706));
#1699 = ORIENTED_EDGE('',*,*,#1146,.T.);
#1700 = ORIENTED_EDGE('',*,*,#1701,.T.);
#1701 = EDGE_CURVE('',#1140,#1535,#1702,.T.);
#1702 = B_SPLINE_CURVE_WITH_KNOTS('',1,(#1703,#1704),.UNSPECIFIED.,.F.,
  .F.,(2,2),(0.,1.),.PIECEWISE_BEZIER_KNOTS.);
#1703 = CARTESIAN_POINT('',(25.,-65.8,15.4));
#1704 = CARTESIAN_POINT('',(25.4,-65.8,16.6));
#1705 = ORIENTED_EDGE('',*,*,#1534,.F.);
#1706 = ORIENTED_EDGE('',*,*,#1707,.F.);
#1707 = EDGE_CURVE('',#1109,#1526,#1708,.T.);
#1708 = B_SPLINE_CURVE_WITH_KNOTS('',1,(#1709,#1710),.UNSPECIFIED.,.F.,
  .F.,(2,2),(0.,1.),.PIECEWISE_BEZIER_KNOTS.);
#1709 = CARTESIAN_POINT('',(25.,-12.2,15.4));
#1710 = CARTESIAN_POINT('',(25.4,-12.2,16.6));
#1711 = PLANE('',#1712);
#1712 = AXIS2_PLACEMENT_3D('',#1713,#1714,#1715);
#1713 = CARTESIAN_POINT('',(25.4,-12.2,16.6));
#1714 = DIRECTION('',(-0.948683298051,0.,0.316227766017));
#1715 = DIRECTION('',(0.,-1.,0.));
#1716 = ADVANCED_FACE('',(#1717),#1727,.T.);
#1717 = FACE_BOUND('',#1718,.T.);
#1718 = EDGE_LOOP('',(#1719,#1720,#1721,#1722));
#1719 = ORIENTED_EDGE('',*,*,#1162,.T.);
#1720 = ORIENTED_EDGE('',*,*,#1687,.T.);
#1721 = ORIENTED_EDGE('',*,*,#1568,.F.);
#1722 = ORIENTED_EDGE('',*,*,#1723,.F.);
#1723 = EDGE_CURVE('',#1163,#1560,#1724,.T.);
#1724 = B_SPLINE_CURVE_WITH_KNOTS('',1,(#1725,#1726),.UNSPECIFIED.,.F.,
  .F.,(2,2),(0.,1.),.PIECEWISE_BEZIER_KNOTS.);
#1725 = CARTESIAN_POINT('',(49.,-65.8,15.4));
#1726 = CARTESIAN_POINT('',(48.6,-65.8,16.6));
#1727 = PLANE('',#1728);
#1728 = AXIS2_PLACEMENT_3D('',#1729,#1730,#1731);
#1729 = CARTESIAN_POINT('',(48.6,-65.8,16.6));
#1730 = DIRECTION('',(0.948683298051,0.,0.316227766017));
#1731 = DIRECTION('',(0.,1.,0.));
#1732 = ADVANCED_FACE('',(#1733),#1743,.T.);
#1733 = FACE_BOUND('',#1734,.T.);
#1734 = EDGE_LOOP('',(#1735,#1736,#1741,#1742));
#1735 = ORIENTED_EDGE('',*,*,#1191,.T.);
#1736 = ORIENTED_EDGE('',*,*,#1737,.T.);
#1737 = EDGE_CURVE('',#1185,#1543,#1738,.T.);
#1738 = B_SPLINE_CURVE_WITH_KNOTS('',1,(#1739,#1740),.UNSPECIFIED.,.F.,
  .F.,(2,2),(0.,1.),.PIECEWISE_BEZIER_KNOTS.);
#1739 = CARTESIAN_POINT('',(26.2,-67.,15.4));
#1740 = CARTESIAN_POINT('',(26.2,-66.6,16.6));
#1741 = ORIENTED_EDGE('',*,*,#1542,.F.);
#1742 = ORIENTED_EDGE('',*,*,#1701,.F.);
#1743 = CONICAL_SURFACE('',#1744,1.2,0.321750554397);
#1744 = AXIS2_PLACEMENT_3D('',#1745,#1746,#1747);
#1745 = CARTESIAN_POINT('',(26.2,-65.8,15.4));
#1746 = DIRECTION('',(-0.,-0.,-1.));
#1747 = DIRECTION('',(-1.,3.552713678801E-14,0.));
#1748 = ADVANCED_FACE('',(#1749),#1759,.T.);
#1749 = FACE_BOUND('',#1750,.T.);
#1750 = EDGE_LOOP('',(#1751,#1752,#1753,#1754));
#1751 = ORIENTED_EDGE('',*,*,#1209,.T.);
#1752 = ORIENTED_EDGE('',*,*,#1723,.T.);
#1753 = ORIENTED_EDGE('',*,*,#1559,.F.);
#1754 = ORIENTED_EDGE('',*,*,#1755,.F.);
#1755 = EDGE_CURVE('',#1210,#1552,#1756,.T.);
#1756 = B_SPLINE_CURVE_WITH_KNOTS('',1,(#1757,#1758),.UNSPECIFIED.,.F.,
  .F.,(2,2),(0.,1.),.PIECEWISE_BEZIER_KNOTS.);
#1757 = CARTESIAN_POINT('',(47.8,-67.,15.4));
#1758 = CARTESIAN_POINT('',(47.8,-66.6,16.6));
#1759 = CONICAL_SURFACE('',#1760,1.2,0.321750554397);
#1760 = AXIS2_PLACEMENT_3D('',#1761,#1762,#1763);
#1761 = CARTESIAN_POINT('',(47.8,-65.8,15.4));
#1762 = DIRECTION('',(0.,0.,-1.));
#1763 = DIRECTION('',(5.921189464667E-15,-1.,0.));
#1764 = ADVANCED_FACE('',(#1765),#1771,.T.);
#1765 = FACE_BOUND('',#1766,.T.);
#1766 = EDGE_LOOP('',(#1767,#1768,#1769,#1770));
#1767 = ORIENTED_EDGE('',*,*,#1233,.T.);
#1768 = ORIENTED_EDGE('',*,*,#1755,.T.);
#1769 = ORIENTED_EDGE('',*,*,#1551,.F.);
#1770 = ORIENTED_EDGE('',*,*,#1737,.F.);
#1771 = PLANE('',#1772);
#1772 = AXIS2_PLACEMENT_3D('',#1773,#1774,#1775);
#1773 = CARTESIAN_POINT('',(26.2,-66.6,16.6));
#1774 = DIRECTION('',(0.,-0.948683298051,0.316227766017));
#1775 = DIRECTION('',(1.,0.,0.));
#1776 = ADVANCED_FACE('',(#1777,#1788),#1791,.T.);
#1777 = FACE_BOUND('',#1778,.T.);
#1778 = EDGE_LOOP('',(#1779));
#1779 = ORIENTED_EDGE('',*,*,#1780,.T.);
#1780 = EDGE_CURVE('',#1781,#1781,#1783,.T.);
#1781 = VERTEX_POINT('',#1782);
#1782 = CARTESIAN_POINT('',(47.35,-64.,14.9));
#1783 = CIRCLE('',#1784,1.85);
#1784 = AXIS2_PLACEMENT_3D('',#1785,#1786,#1787);
#1785 = CARTESIAN_POINT('',(45.5,-64.,14.9));
#1786 = DIRECTION('',(0.,0.,1.));
#1787 = DIRECTION('',(1.,0.,0.));
#1788 = FACE_BOUND('',#1789,.T.);
#1789 = EDGE_LOOP('',(#1790));
#1790 = ORIENTED_EDGE('',*,*,#1258,.T.);
#1791 = PLANE('',#1792);
#1792 = AXIS2_PLACEMENT_3D('',#1793,#1794,#1795);
#1793 = CARTESIAN_POINT('',(45.5,-64.,14.9));
#1794 = DIRECTION('',(0.,0.,1.));
#1795 = DIRECTION('',(1.,0.,0.));
#1796 = ADVANCED_FACE('',(#1797,#1808),#1811,.T.);
#1797 = FACE_BOUND('',#1798,.T.);
#1798 = EDGE_LOOP('',(#1799));
#1799 = ORIENTED_EDGE('',*,*,#1800,.T.);
#1800 = EDGE_CURVE('',#1801,#1801,#1803,.T.);
#1801 = VERTEX_POINT('',#1802);
#1802 = CARTESIAN_POINT('',(31.25,-64.,14.9));
#1803 = CIRCLE('',#1804,1.85);
#1804 = AXIS2_PLACEMENT_3D('',#1805,#1806,#1807);
#1805 = CARTESIAN_POINT('',(29.4,-64.,14.9));
#1806 = DIRECTION('',(0.,0.,1.));
#1807 = DIRECTION('',(1.,0.,0.));
#1808 = FACE_BOUND('',#1809,.T.);
#1809 = EDGE_LOOP('',(#1810));
#1810 = ORIENTED_EDGE('',*,*,#1283,.T.);
#1811 = PLANE('',#1812);
#1812 = AXIS2_PLACEMENT_3D('',#1813,#1814,#1815);
#1813 = CARTESIAN_POINT('',(29.4,-64.,14.9));
#1814 = DIRECTION('',(0.,0.,1.));
#1815 = DIRECTION('',(1.,0.,0.));
#1816 = ADVANCED_FACE('',(#1817),#1823,.T.);
#1817 = FACE_BOUND('',#1818,.T.);
#1818 = EDGE_LOOP('',(#1819,#1820,#1821,#1822));
#1819 = ORIENTED_EDGE('',*,*,#1668,.T.);
#1820 = ORIENTED_EDGE('',*,*,#1707,.T.);
#1821 = ORIENTED_EDGE('',*,*,#1525,.F.);
#1822 = ORIENTED_EDGE('',*,*,#1647,.F.);
#1823 = CONICAL_SURFACE('',#1824,1.2,0.321750554397);
#1824 = AXIS2_PLACEMENT_3D('',#1825,#1826,#1827);
#1825 = CARTESIAN_POINT('',(26.2,-12.2,15.4));
#1826 = DIRECTION('',(0.,0.,-1.));
#1827 = DIRECTION('',(2.368475785867E-14,1.,0.));
#1828 = ADVANCED_FACE('',(#1829),#1840,.F.);
#1829 = FACE_BOUND('',#1830,.T.);
#1830 = EDGE_LOOP('',(#1831,#1832,#1838,#1839));
#1831 = ORIENTED_EDGE('',*,*,#1800,.F.);
#1832 = ORIENTED_EDGE('',*,*,#1833,.T.);
#1833 = EDGE_CURVE('',#1801,#1577,#1834,.T.);
#1834 = LINE('',#1835,#1836);
#1835 = CARTESIAN_POINT('',(31.25,-64.,14.9));
#1836 = VECTOR('',#1837,1.);
#1837 = DIRECTION('',(0.,0.,1.));
#1838 = ORIENTED_EDGE('',*,*,#1576,.F.);
#1839 = ORIENTED_EDGE('',*,*,#1833,.F.);
#1840 = CYLINDRICAL_SURFACE('',#1841,1.85);
#1841 = AXIS2_PLACEMENT_3D('',#1842,#1843,#1844);
#1842 = CARTESIAN_POINT('',(29.4,-64.,14.9));
#1843 = DIRECTION('',(-0.,-0.,-1.));
#1844 = DIRECTION('',(1.,0.,0.));
#1845 = ADVANCED_FACE('',(#1846),#1857,.F.);
#1846 = FACE_BOUND('',#1847,.T.);
#1847 = EDGE_LOOP('',(#1848,#1849,#1855,#1856));
#1848 = ORIENTED_EDGE('',*,*,#1780,.F.);
#1849 = ORIENTED_EDGE('',*,*,#1850,.T.);
#1850 = EDGE_CURVE('',#1781,#1591,#1851,.T.);
#1851 = LINE('',#1852,#1853);
#1852 = CARTESIAN_POINT('',(47.35,-64.,14.9));
#1853 = VECTOR('',#1854,1.);
#1854 = DIRECTION('',(0.,0.,1.));
#1855 = ORIENTED_EDGE('',*,*,#1590,.F.);
#1856 = ORIENTED_EDGE('',*,*,#1850,.F.);
#1857 = CYLINDRICAL_SURFACE('',#1858,1.85);
#1858 = AXIS2_PLACEMENT_3D('',#1859,#1860,#1861);
#1859 = CARTESIAN_POINT('',(45.5,-64.,14.9));
#1860 = DIRECTION('',(-0.,-0.,-1.));
#1861 = DIRECTION('',(1.,0.,0.));
#1862 = ( GEOMETRIC_REPRESENTATION_CONTEXT(3) 
GLOBAL_UNCERTAINTY_ASSIGNED_CONTEXT((#1866)) 
GLOBAL_UNIT_ASSIGNED_CONTEXT((#1863,#1864,#1865)) REPRESENTATION_CONTEXT
('Context #1','3D Context with UNIT and UNCERTAINTY') );
#1863 = ( LENGTH_UNIT() NAMED_UNIT(*) SI_UNIT(.MILLI.,.METRE.) );
#1864 = ( NAMED_UNIT(*) PLANE_ANGLE_UNIT() SI_UNIT($,.RADIAN.) );
#1865 = ( NAMED_UNIT(*) SI_UNIT($,.STERADIAN.) SOLID_ANGLE_UNIT() );
#1866 = UNCERTAINTY_MEASURE_WITH_UNIT(LENGTH_MEASURE(2.E-05),#1863,
  'distance_accuracy_value','confusion accuracy');
#1867 = PRODUCT_RELATED_PRODUCT_CATEGORY('part',$,(#7));
ENDSEC;
END-ISO-10303-21;
