ISO-10303-21;
HEADER;
FILE_DESCRIPTION(('FreeCAD Model'),'2;1');
FILE_NAME('Open CASCADE Shape Model','2026-09-21T18:58:21',('FreeCAD'),(
    'FreeCAD'),'Open CASCADE STEP processor 7.8','FreeCAD','Unknown');
FILE_SCHEMA(('AUTOMOTIVE_DESIGN { 1 0 10303 214 1 1 1 1 }'));
ENDSEC;
DATA;
#1 = APPLICATION_PROTOCOL_DEFINITION('international standard',
  'automotive_design',2000,#2);
#2 = APPLICATION_CONTEXT(
  'core data for automotive mechanical design processes');
#3 = SHAPE_DEFINITION_REPRESENTATION(#4,#10);
#4 = PRODUCT_DEFINITION_SHAPE('','',#5);
#5 = PRODUCT_DEFINITION('design','',#6,#9);
#6 = PRODUCT_DEFINITION_FORMATION('','',#7);
#7 = PRODUCT('Open CASCADE STEP translator 7.8 15',
  'Open CASCADE STEP translator 7.8 15','',(#8));
#8 = PRODUCT_CONTEXT('',#2,'mechanical');
#9 = PRODUCT_DEFINITION_CONTEXT('part definition',#2,'design');
#10 = ADVANCED_BREP_SHAPE_REPRESENTATION('',(#11,#15),#1853);
#11 = AXIS2_PLACEMENT_3D('',#12,#13,#14);
#12 = CARTESIAN_POINT('',(0.,0.,0.));
#13 = DIRECTION('',(0.,0.,1.));
#14 = DIRECTION('',(1.,0.,-0.));
#15 = MANIFOLD_SOLID_BREP('',#16);
#16 = CLOSED_SHELL('',(#17,#50,#70,#228,#253,#302,#325,#395,#445,#475,
    #499,#523,#546,#569,#586,#611,#636,#667,#691,#715,#732,#871,#887,
    #903,#919,#935,#951,#999,#1047,#1098,#1118,#1219,#1259,#1306,#1323,
    #1340,#1357,#1374,#1391,#1415,#1441,#1466,#1490,#1532,#1572,#1589,
    #1620,#1651,#1684,#1710,#1735,#1761,#1775,#1800,#1817,#1829,#1841));
#17 = ADVANCED_FACE('',(#18),#45,.F.);
#18 = FACE_BOUND('',#19,.T.);
#19 = EDGE_LOOP('',(#20,#29,#37,#44));
#20 = ORIENTED_EDGE('',*,*,#21,.F.);
#21 = EDGE_CURVE('',#22,#22,#24,.T.);
#22 = VERTEX_POINT('',#23);
#23 = CARTESIAN_POINT('',(132.45,-64.,14.9));
#24 = CIRCLE('',#25,1.85);
#25 = AXIS2_PLACEMENT_3D('',#26,#27,#28);
#26 = CARTESIAN_POINT('',(130.6,-64.,14.9));
#27 = DIRECTION('',(0.,0.,1.));
#28 = DIRECTION('',(1.,0.,0.));
#29 = ORIENTED_EDGE('',*,*,#30,.T.);
#30 = EDGE_CURVE('',#22,#31,#33,.T.);
#31 = VERTEX_POINT('',#32);
#32 = CARTESIAN_POINT('',(132.45,-64.,16.6));
#33 = LINE('',#34,#35);
#34 = CARTESIAN_POINT('',(132.45,-64.,14.9));
#35 = VECTOR('',#36,1.);
#36 = DIRECTION('',(0.,0.,1.));
#37 = ORIENTED_EDGE('',*,*,#38,.F.);
#38 = EDGE_CURVE('',#31,#31,#39,.T.);
#39 = CIRCLE('',#40,1.85);
#40 = AXIS2_PLACEMENT_3D('',#41,#42,#43);
#41 = CARTESIAN_POINT('',(130.6,-64.,16.6));
#42 = DIRECTION('',(0.,0.,-1.));
#43 = DIRECTION('',(1.,0.,0.));
#44 = ORIENTED_EDGE('',*,*,#30,.F.);
#45 = CYLINDRICAL_SURFACE('',#46,1.85);
#46 = AXIS2_PLACEMENT_3D('',#47,#48,#49);
#47 = CARTESIAN_POINT('',(130.6,-64.,14.9));
#48 = DIRECTION('',(-0.,-0.,-1.));
#49 = DIRECTION('',(1.,0.,0.));
#50 = ADVANCED_FACE('',(#51,#54),#65,.T.);
#51 = FACE_BOUND('',#52,.T.);
#52 = EDGE_LOOP('',(#53));
#53 = ORIENTED_EDGE('',*,*,#21,.T.);
#54 = FACE_BOUND('',#55,.T.);
#55 = EDGE_LOOP('',(#56));
#56 = ORIENTED_EDGE('',*,*,#57,.T.);
#57 = EDGE_CURVE('',#58,#58,#60,.T.);
#58 = VERTEX_POINT('',#59);
#59 = CARTESIAN_POINT('',(131.75,-64.,14.9));
#60 = CIRCLE('',#61,1.15);
#61 = AXIS2_PLACEMENT_3D('',#62,#63,#64);
#62 = CARTESIAN_POINT('',(130.6,-64.,14.9));
#63 = DIRECTION('',(0.,0.,-1.));
#64 = DIRECTION('',(1.,0.,0.));
#65 = PLANE('',#66);
#66 = AXIS2_PLACEMENT_3D('',#67,#68,#69);
#67 = CARTESIAN_POINT('',(130.6,-64.,14.9));
#68 = DIRECTION('',(0.,0.,1.));
#69 = DIRECTION('',(1.,0.,0.));
#70 = ADVANCED_FACE('',(#71,#164,#175,#186,#189),#223,.T.);
#71 = FACE_BOUND('',#72,.T.);
#72 = EDGE_LOOP('',(#73,#83,#92,#101,#109,#117,#125,#133,#141,#150,#158)
  );
#73 = ORIENTED_EDGE('',*,*,#74,.T.);
#74 = EDGE_CURVE('',#75,#77,#79,.T.);
#75 = VERTEX_POINT('',#76);
#76 = CARTESIAN_POINT('',(127.67157287525,-66.5,16.6));
#77 = VERTEX_POINT('',#78);
#78 = CARTESIAN_POINT('',(128.91639453969,-65.25517833555,16.6));
#79 = LINE('',#80,#81);
#80 = CARTESIAN_POINT('',(127.67157287525,-66.5,16.6));
#81 = VECTOR('',#82,1.);
#82 = DIRECTION('',(0.707106781187,0.707106781187,0.));
#83 = ORIENTED_EDGE('',*,*,#84,.T.);
#84 = EDGE_CURVE('',#77,#85,#87,.T.);
#85 = VERTEX_POINT('',#86);
#86 = CARTESIAN_POINT('',(132.7,-64.,16.6));
#87 = CIRCLE('',#88,2.1);
#88 = AXIS2_PLACEMENT_3D('',#89,#90,#91);
#89 = CARTESIAN_POINT('',(130.6,-64.,16.6));
#90 = DIRECTION('',(0.,0.,1.));
#91 = DIRECTION('',(1.,0.,0.));
#92 = ORIENTED_EDGE('',*,*,#93,.T.);
#93 = EDGE_CURVE('',#85,#94,#96,.T.);
#94 = VERTEX_POINT('',#95);
#95 = CARTESIAN_POINT('',(131.85517833555,-62.31639453969,16.6));
#96 = CIRCLE('',#97,2.1);
#97 = AXIS2_PLACEMENT_3D('',#98,#99,#100);
#98 = CARTESIAN_POINT('',(130.6,-64.,16.6));
#99 = DIRECTION('',(0.,0.,1.));
#100 = DIRECTION('',(1.,0.,0.));
#101 = ORIENTED_EDGE('',*,*,#102,.T.);
#102 = EDGE_CURVE('',#94,#103,#105,.T.);
#103 = VERTEX_POINT('',#104);
#104 = CARTESIAN_POINT('',(133.,-61.17157287525,16.6));
#105 = LINE('',#106,#107);
#106 = CARTESIAN_POINT('',(127.67157287525,-66.5,16.6));
#107 = VECTOR('',#108,1.);
#108 = DIRECTION('',(0.707106781187,0.707106781187,0.));
#109 = ORIENTED_EDGE('',*,*,#110,.T.);
#110 = EDGE_CURVE('',#103,#111,#113,.T.);
#111 = VERTEX_POINT('',#112);
#112 = CARTESIAN_POINT('',(133.,-14.82842712474,16.6));
#113 = LINE('',#114,#115);
#114 = CARTESIAN_POINT('',(133.,-61.17157287525,16.6));
#115 = VECTOR('',#116,1.);
#116 = DIRECTION('',(0.,1.,0.));
#117 = ORIENTED_EDGE('',*,*,#118,.T.);
#118 = EDGE_CURVE('',#111,#119,#121,.T.);
#119 = VERTEX_POINT('',#120);
#120 = CARTESIAN_POINT('',(131.17157287525,-13.,16.6));
#121 = LINE('',#122,#123);
#122 = CARTESIAN_POINT('',(133.,-14.82842712474,16.6));
#123 = VECTOR('',#124,1.);
#124 = DIRECTION('',(-0.707106781187,0.707106781187,0.));
#125 = ORIENTED_EDGE('',*,*,#126,.T.);
#126 = EDGE_CURVE('',#119,#127,#129,.T.);
#127 = VERTEX_POINT('',#128);
#128 = CARTESIAN_POINT('',(113.,-13.,16.6));
#129 = LINE('',#130,#131);
#130 = CARTESIAN_POINT('',(131.17157287525,-13.,16.6));
#131 = VECTOR('',#132,1.);
#132 = DIRECTION('',(-1.,0.,0.));
#133 = ORIENTED_EDGE('',*,*,#134,.T.);
#134 = EDGE_CURVE('',#127,#135,#137,.T.);
#135 = VERTEX_POINT('',#136);
#136 = CARTESIAN_POINT('',(113.,-62.53030615433,16.6));
#137 = LINE('',#138,#139);
#138 = CARTESIAN_POINT('',(113.,-13.,16.6));
#139 = VECTOR('',#140,1.);
#140 = DIRECTION('',(0.,-1.,0.));
#141 = ORIENTED_EDGE('',*,*,#142,.T.);
#142 = EDGE_CURVE('',#135,#143,#145,.T.);
#143 = VERTEX_POINT('',#144);
#144 = CARTESIAN_POINT('',(114.42716361635,-66.09873649161,16.6));
#145 = CIRCLE('',#146,2.1);
#146 = AXIS2_PLACEMENT_3D('',#147,#148,#149);
#147 = CARTESIAN_POINT('',(114.5,-64.,16.6));
#148 = DIRECTION('',(0.,0.,1.));
#149 = DIRECTION('',(1.,0.,0.));
#150 = ORIENTED_EDGE('',*,*,#151,.T.);
#151 = EDGE_CURVE('',#143,#152,#154,.T.);
#152 = VERTEX_POINT('',#153);
#153 = CARTESIAN_POINT('',(114.82842712474,-66.5,16.6));
#154 = LINE('',#155,#156);
#155 = CARTESIAN_POINT('',(113.,-64.67157287525,16.6));
#156 = VECTOR('',#157,1.);
#157 = DIRECTION('',(0.707106781187,-0.707106781187,0.));
#158 = ORIENTED_EDGE('',*,*,#159,.T.);
#159 = EDGE_CURVE('',#152,#75,#160,.T.);
#160 = LINE('',#161,#162);
#161 = CARTESIAN_POINT('',(114.82842712474,-66.5,16.6));
#162 = VECTOR('',#163,1.);
#163 = DIRECTION('',(1.,0.,0.));
#164 = FACE_BOUND('',#165,.T.);
#165 = EDGE_LOOP('',(#166));
#166 = ORIENTED_EDGE('',*,*,#167,.T.);
#167 = EDGE_CURVE('',#168,#168,#170,.T.);
#168 = VERTEX_POINT('',#169);
#169 = CARTESIAN_POINT('',(116.35,-64.,16.6));
#170 = CIRCLE('',#171,1.85);
#171 = AXIS2_PLACEMENT_3D('',#172,#173,#174);
#172 = CARTESIAN_POINT('',(114.5,-64.,16.6));
#173 = DIRECTION('',(0.,0.,-1.));
#174 = DIRECTION('',(1.,0.,0.));
#175 = FACE_BOUND('',#176,.T.);
#176 = EDGE_LOOP('',(#177));
#177 = ORIENTED_EDGE('',*,*,#178,.T.);
#178 = EDGE_CURVE('',#179,#179,#181,.T.);
#179 = VERTEX_POINT('',#180);
#180 = CARTESIAN_POINT('',(124.4,-59.5,16.6));
#181 = CIRCLE('',#182,1.4);
#182 = AXIS2_PLACEMENT_3D('',#183,#184,#185);
#183 = CARTESIAN_POINT('',(123.,-59.5,16.6));
#184 = DIRECTION('',(0.,0.,-1.));
#185 = DIRECTION('',(1.,0.,0.));
#186 = FACE_BOUND('',#187,.T.);
#187 = EDGE_LOOP('',(#188));
#188 = ORIENTED_EDGE('',*,*,#38,.T.);
#189 = FACE_BOUND('',#190,.T.);
#190 = EDGE_LOOP('',(#191,#201,#209,#217));
#191 = ORIENTED_EDGE('',*,*,#192,.T.);
#192 = EDGE_CURVE('',#193,#195,#197,.T.);
#193 = VERTEX_POINT('',#194);
#194 = CARTESIAN_POINT('',(115.55,-18.25,16.6));
#195 = VERTEX_POINT('',#196);
#196 = CARTESIAN_POINT('',(130.05,-18.25,16.6));
#197 = LINE('',#198,#199);
#198 = CARTESIAN_POINT('',(123.36078643762,-18.25,16.6));
#199 = VECTOR('',#200,1.);
#200 = DIRECTION('',(1.,0.,0.));
#201 = ORIENTED_EDGE('',*,*,#202,.T.);
#202 = EDGE_CURVE('',#195,#203,#205,.T.);
#203 = VERTEX_POINT('',#204);
#204 = CARTESIAN_POINT('',(130.05,-49.35,16.6));
#205 = LINE('',#206,#207);
#206 = CARTESIAN_POINT('',(130.05,-31.175,16.6));
#207 = VECTOR('',#208,1.);
#208 = DIRECTION('',(0.,-1.,0.));
#209 = ORIENTED_EDGE('',*,*,#210,.F.);
#210 = EDGE_CURVE('',#211,#203,#213,.T.);
#211 = VERTEX_POINT('',#212);
#212 = CARTESIAN_POINT('',(115.55,-49.35,16.6));
#213 = LINE('',#214,#215);
#214 = CARTESIAN_POINT('',(123.36078643762,-49.35,16.6));
#215 = VECTOR('',#216,1.);
#216 = DIRECTION('',(1.,0.,0.));
#217 = ORIENTED_EDGE('',*,*,#218,.F.);
#218 = EDGE_CURVE('',#193,#211,#219,.T.);
#219 = LINE('',#220,#221);
#220 = CARTESIAN_POINT('',(115.55,-31.175,16.6));
#221 = VECTOR('',#222,1.);
#222 = DIRECTION('',(0.,-1.,0.));
#223 = PLANE('',#224);
#224 = AXIS2_PLACEMENT_3D('',#225,#226,#227);
#225 = CARTESIAN_POINT('',(122.89419402315,-39.76312980352,16.6));
#226 = DIRECTION('',(0.,0.,1.));
#227 = DIRECTION('',(1.,0.,0.));
#228 = ADVANCED_FACE('',(#229),#248,.F.);
#229 = FACE_BOUND('',#230,.T.);
#230 = EDGE_LOOP('',(#231,#239,#246,#247));
#231 = ORIENTED_EDGE('',*,*,#232,.F.);
#232 = EDGE_CURVE('',#233,#58,#235,.T.);
#233 = VERTEX_POINT('',#234);
#234 = CARTESIAN_POINT('',(131.75,-64.,6.3));
#235 = LINE('',#236,#237);
#236 = CARTESIAN_POINT('',(131.75,-64.,6.2));
#237 = VECTOR('',#238,1.);
#238 = DIRECTION('',(0.,0.,1.));
#239 = ORIENTED_EDGE('',*,*,#240,.T.);
#240 = EDGE_CURVE('',#233,#233,#241,.T.);
#241 = CIRCLE('',#242,1.15);
#242 = AXIS2_PLACEMENT_3D('',#243,#244,#245);
#243 = CARTESIAN_POINT('',(130.6,-64.,6.3));
#244 = DIRECTION('',(0.,0.,-1.));
#245 = DIRECTION('',(1.,0.,0.));
#246 = ORIENTED_EDGE('',*,*,#232,.T.);
#247 = ORIENTED_EDGE('',*,*,#57,.F.);
#248 = CYLINDRICAL_SURFACE('',#249,1.15);
#249 = AXIS2_PLACEMENT_3D('',#250,#251,#252);
#250 = CARTESIAN_POINT('',(130.6,-64.,6.2));
#251 = DIRECTION('',(-0.,-0.,-1.));
#252 = DIRECTION('',(1.,0.,0.));
#253 = ADVANCED_FACE('',(#254),#297,.F.);
#254 = FACE_BOUND('',#255,.F.);
#255 = EDGE_LOOP('',(#256,#283,#291,#296));
#256 = ORIENTED_EDGE('',*,*,#257,.F.);
#257 = EDGE_CURVE('',#258,#77,#260,.T.);
#258 = VERTEX_POINT('',#259);
#259 = CARTESIAN_POINT('',(130.92535721577,-66.07464278422,15.4));
#260 = B_SPLINE_CURVE_WITH_KNOTS('',6,(#261,#262,#263,#264,#265,#266,
    #267,#268,#269,#270,#271,#272,#273,#274,#275,#276,#277,#278,#279,
    #280,#281,#282),.UNSPECIFIED.,.F.,.F.,(7,5,5,5,7),(0.,0.373084660639
    ,0.698188891483,0.822115911806,1.),.UNSPECIFIED.);
#261 = CARTESIAN_POINT('',(130.92535721577,-66.07464278422,15.4));
#262 = CARTESIAN_POINT('',(130.78424515748,-66.09677277534,
    15.450479815921));
#263 = CARTESIAN_POINT('',(130.64230297824,-66.1072318424,
    15.506263376062));
#264 = CARTESIAN_POINT('',(130.50062441018,-66.10615544931,
    15.56682917671));
#265 = CARTESIAN_POINT('',(130.3601805853,-66.09378326232,
    15.631663519668));
#266 = CARTESIAN_POINT('',(130.22182104352,-66.07039100769,
    15.700288994936));
#267 = CARTESIAN_POINT('',(129.96818616878,-66.0064015692,
    15.835045578388));
#268 = CARTESIAN_POINT('',(129.85225628216,-65.96841031876,
    15.900348786257));
#269 = CARTESIAN_POINT('',(129.73897616539,-65.92237164136,
    15.967942026097));
#270 = CARTESIAN_POINT('',(129.62885369795,-65.86841507881,
    16.03755486295));
#271 = CARTESIAN_POINT('',(129.52241807454,-65.80667569806,
    16.108905474468));
#272 = CARTESIAN_POINT('',(129.38126863504,-65.71082179938,
    16.209457475022));
#273 = CARTESIAN_POINT('',(129.34293180842,-65.68325596396,
    16.237417606559));
#274 = CARTESIAN_POINT('',(129.30524600382,-65.65458661646,
    16.265569713369));
#275 = CARTESIAN_POINT('',(129.26824545024,-65.6248233254,
    16.293895213738));
#276 = CARTESIAN_POINT('',(129.2319662405,-65.59397738399,
    16.322374003477));
#277 = CARTESIAN_POINT('',(129.14546127027,-65.51625039039,
    16.392051724666));
#278 = CARTESIAN_POINT('',(129.09604156441,-65.46823624402,
    16.433389407245));
#279 = CARTESIAN_POINT('',(129.04829809971,-65.41805839174,
    16.474933903602));
#280 = CARTESIAN_POINT('',(129.00235449545,-65.36576988869,
    16.516610257126));
#281 = CARTESIAN_POINT('',(128.9583420255,-65.31144365988,
    16.558331833575));
#282 = CARTESIAN_POINT('',(128.91639453969,-65.25517833555,16.6));
#283 = ORIENTED_EDGE('',*,*,#284,.T.);
#284 = EDGE_CURVE('',#258,#285,#287,.T.);
#285 = VERTEX_POINT('',#286);
#286 = CARTESIAN_POINT('',(128.5,-68.5,15.4));
#287 = LINE('',#288,#289);
#288 = CARTESIAN_POINT('',(135.,-62.,15.4));
#289 = VECTOR('',#290,1.);
#290 = DIRECTION('',(-0.707106781187,-0.707106781187,0.));
#291 = ORIENTED_EDGE('',*,*,#292,.T.);
#292 = EDGE_CURVE('',#285,#75,#293,.T.);
#293 = B_SPLINE_CURVE_WITH_KNOTS('',1,(#294,#295),.UNSPECIFIED.,.F.,.F.,
  (2,2),(0.,1.),.PIECEWISE_BEZIER_KNOTS.);
#294 = CARTESIAN_POINT('',(128.5,-68.5,15.4));
#295 = CARTESIAN_POINT('',(127.67157287525,-66.5,16.6));
#296 = ORIENTED_EDGE('',*,*,#74,.T.);
#297 = B_SPLINE_SURFACE_WITH_KNOTS('',1,1,(
    (#298,#299)
    ,(#300,#301
    )),.UNSPECIFIED.,.F.,.F.,.F.,(2,2),(2,2),(0.,9.192388155425),(0.,1.)
  ,.PIECEWISE_BEZIER_KNOTS.);
#298 = CARTESIAN_POINT('',(135.,-62.,15.4));
#299 = CARTESIAN_POINT('',(133.,-61.17157287525,16.6));
#300 = CARTESIAN_POINT('',(128.5,-68.5,15.4));
#301 = CARTESIAN_POINT('',(127.67157287525,-66.5,16.6));
#302 = ADVANCED_FACE('',(#303),#320,.F.);
#303 = FACE_BOUND('',#304,.F.);
#304 = EDGE_LOOP('',(#305,#313,#318,#319));
#305 = ORIENTED_EDGE('',*,*,#306,.T.);
#306 = EDGE_CURVE('',#285,#307,#309,.T.);
#307 = VERTEX_POINT('',#308);
#308 = CARTESIAN_POINT('',(114.,-68.5,15.4));
#309 = LINE('',#310,#311);
#310 = CARTESIAN_POINT('',(128.5,-68.5,15.4));
#311 = VECTOR('',#312,1.);
#312 = DIRECTION('',(-1.,0.,0.));
#313 = ORIENTED_EDGE('',*,*,#314,.T.);
#314 = EDGE_CURVE('',#307,#152,#315,.T.);
#315 = B_SPLINE_CURVE_WITH_KNOTS('',1,(#316,#317),.UNSPECIFIED.,.F.,.F.,
  (2,2),(0.,1.),.PIECEWISE_BEZIER_KNOTS.);
#316 = CARTESIAN_POINT('',(114.,-68.5,15.4));
#317 = CARTESIAN_POINT('',(114.82842712474,-66.5,16.6));
#318 = ORIENTED_EDGE('',*,*,#159,.T.);
#319 = ORIENTED_EDGE('',*,*,#292,.F.);
#320 = B_SPLINE_SURFACE_WITH_KNOTS('',1,1,(
    (#321,#322)
    ,(#323,#324
    )),.UNSPECIFIED.,.F.,.F.,.F.,(2,2),(2,2),(0.,14.5),(0.,1.),
  .PIECEWISE_BEZIER_KNOTS.);
#321 = CARTESIAN_POINT('',(128.5,-68.5,15.4));
#322 = CARTESIAN_POINT('',(127.67157287525,-66.5,16.6));
#323 = CARTESIAN_POINT('',(114.,-68.5,15.4));
#324 = CARTESIAN_POINT('',(114.82842712474,-66.5,16.6));
#325 = ADVANCED_FACE('',(#326),#390,.T.);
#326 = FACE_BOUND('',#327,.F.);
#327 = EDGE_LOOP('',(#328,#351,#364,#372,#381,#387,#388,#389));
#328 = ORIENTED_EDGE('',*,*,#329,.F.);
#329 = EDGE_CURVE('',#330,#94,#332,.T.);
#330 = VERTEX_POINT('',#331);
#331 = CARTESIAN_POINT('',(132.7,-64.,15.527279220614));
#332 = B_SPLINE_CURVE_WITH_KNOTS('',5,(#333,#334,#335,#336,#337,#338,
    #339,#340,#341,#342,#343,#344,#345,#346,#347,#348,#349,#350),
  .UNSPECIFIED.,.F.,.F.,(6,4,4,4,6),(0.,0.27215121758,0.545421751344,
    0.795698943683,1.),.UNSPECIFIED.);
#333 = CARTESIAN_POINT('',(132.7,-64.,15.527279220614));
#334 = CARTESIAN_POINT('',(132.7,-63.89413925737,15.572192129999));
#335 = CARTESIAN_POINT('',(132.69332952885,-63.78873165508,
    15.619742829445));
#336 = CARTESIAN_POINT('',(132.68010242246,-63.68422958083,
    15.66969109063));
#337 = CARTESIAN_POINT('',(132.66044921551,-63.58103858574,
    15.721809471605));
#338 = CARTESIAN_POINT('',(132.60840200517,-63.37759215716,
    15.830206242383));
#339 = CARTESIAN_POINT('',(132.57595782253,-63.27735765945,
    15.88649703914));
#340 = CARTESIAN_POINT('',(132.53725618347,-63.17918599897,15.9445674621
    ));
#341 = CARTESIAN_POINT('',(132.49239682797,-63.08345137909,
    16.004216434133));
#342 = CARTESIAN_POINT('',(132.3948151022,-62.90544254032,
    16.121139608342));
#343 = CARTESIAN_POINT('',(132.34307584817,-62.82272080965,
    16.178186572796));
#344 = CARTESIAN_POINT('',(132.28630928942,-62.74266599798,
    16.236234964096));
#345 = CARTESIAN_POINT('',(132.22459186366,-62.66562645927,
    16.295104558404));
#346 = CARTESIAN_POINT('',(132.10371998595,-62.53187511623,
    16.403132042031));
#347 = CARTESIAN_POINT('',(132.04618072419,-62.47403261122,
    16.452084379851));
#348 = CARTESIAN_POINT('',(131.98549396712,-62.41867066336,
    16.501319675574));
#349 = CARTESIAN_POINT('',(131.92176692432,-62.36603832857,
    16.550686778548));
#350 = CARTESIAN_POINT('',(131.85517833555,-62.31639453969,16.6));
#351 = ORIENTED_EDGE('',*,*,#352,.F.);
#352 = EDGE_CURVE('',#353,#330,#355,.T.);
#353 = VERTEX_POINT('',#354);
#354 = CARTESIAN_POINT('',(132.67464278422,-64.32535721577,15.4));
#355 = B_SPLINE_CURVE_WITH_KNOTS('',4,(#356,#357,#358,#359,#360,#361,
    #362,#363),.UNSPECIFIED.,.F.,.F.,(5,3,5),(0.,0.733674595134,1.),
  .UNSPECIFIED.);
#356 = CARTESIAN_POINT('',(132.67464278422,-64.32535721577,15.4));
#357 = CARTESIAN_POINT('',(132.68398470298,-64.26578839911,
    15.421309468062));
#358 = CARTESIAN_POINT('',(132.69101531707,-64.20605756889,
    15.443668276181));
#359 = CARTESIAN_POINT('',(132.69575012024,-64.14629024525,
    15.467016597225));
#360 = CARTESIAN_POINT('',(132.69910808208,-64.06492766518,
    15.500111153933));
#361 = CARTESIAN_POINT('',(132.69970310727,-64.04326845653,
    15.509047930113));
#362 = CARTESIAN_POINT('',(132.70000000006,-64.02162421535,15.518104843)
  );
#363 = CARTESIAN_POINT('',(132.7,-64.,15.527279220614));
#364 = ORIENTED_EDGE('',*,*,#365,.T.);
#365 = EDGE_CURVE('',#353,#366,#368,.T.);
#366 = VERTEX_POINT('',#367);
#367 = CARTESIAN_POINT('',(132.67464278422,-64.32535721577,6.3));
#368 = LINE('',#369,#370);
#369 = CARTESIAN_POINT('',(132.67464278422,-64.32535721577,6.3));
#370 = VECTOR('',#371,1.);
#371 = DIRECTION('',(-0.,-0.,-1.));
#372 = ORIENTED_EDGE('',*,*,#373,.F.);
#373 = EDGE_CURVE('',#374,#366,#376,.T.);
#374 = VERTEX_POINT('',#375);
#375 = CARTESIAN_POINT('',(130.92535721577,-66.07464278422,6.3));
#376 = CIRCLE('',#377,2.1);
#377 = AXIS2_PLACEMENT_3D('',#378,#379,#380);
#378 = CARTESIAN_POINT('',(130.6,-64.,6.3));
#379 = DIRECTION('',(0.,0.,1.));
#380 = DIRECTION('',(1.,0.,0.));
#381 = ORIENTED_EDGE('',*,*,#382,.F.);
#382 = EDGE_CURVE('',#258,#374,#383,.T.);
#383 = LINE('',#384,#385);
#384 = CARTESIAN_POINT('',(130.92535721577,-66.07464278422,6.3));
#385 = VECTOR('',#386,1.);
#386 = DIRECTION('',(-0.,-0.,-1.));
#387 = ORIENTED_EDGE('',*,*,#257,.T.);
#388 = ORIENTED_EDGE('',*,*,#84,.T.);
#389 = ORIENTED_EDGE('',*,*,#93,.T.);
#390 = CYLINDRICAL_SURFACE('',#391,2.1);
#391 = AXIS2_PLACEMENT_3D('',#392,#393,#394);
#392 = CARTESIAN_POINT('',(130.6,-64.,6.3));
#393 = DIRECTION('',(-0.,-0.,-1.));
#394 = DIRECTION('',(1.,0.,0.));
#395 = ADVANCED_FACE('',(#396),#440,.F.);
#396 = FACE_BOUND('',#397,.F.);
#397 = EDGE_LOOP('',(#398,#399,#407,#414,#439));
#398 = ORIENTED_EDGE('',*,*,#314,.F.);
#399 = ORIENTED_EDGE('',*,*,#400,.T.);
#400 = EDGE_CURVE('',#307,#401,#403,.T.);
#401 = VERTEX_POINT('',#402);
#402 = CARTESIAN_POINT('',(111.,-65.5,15.4));
#403 = LINE('',#404,#405);
#404 = CARTESIAN_POINT('',(114.,-68.5,15.4));
#405 = VECTOR('',#406,1.);
#406 = DIRECTION('',(-0.707106781187,0.707106781187,0.));
#407 = ORIENTED_EDGE('',*,*,#408,.T.);
#408 = EDGE_CURVE('',#401,#409,#411,.T.);
#409 = VERTEX_POINT('',#410);
#410 = CARTESIAN_POINT('',(112.57809413924,-64.84633200482,
    16.346856483546));
#411 = B_SPLINE_CURVE_WITH_KNOTS('',1,(#412,#413),.UNSPECIFIED.,.F.,.F.,
  (2,2),(0.,1.),.PIECEWISE_BEZIER_KNOTS.);
#412 = CARTESIAN_POINT('',(111.,-65.5,15.4));
#413 = CARTESIAN_POINT('',(113.,-64.67157287525,16.6));
#414 = ORIENTED_EDGE('',*,*,#415,.T.);
#415 = EDGE_CURVE('',#409,#143,#416,.T.);
#416 = B_SPLINE_CURVE_WITH_KNOTS('',6,(#417,#418,#419,#420,#421,#422,
    #423,#424,#425,#426,#427,#428,#429,#430,#431,#432,#433,#434,#435,
    #436,#437,#438),.UNSPECIFIED.,.F.,.F.,(7,5,5,5,7),(0.,0.144832518224
    ,0.425123629383,0.77991098894,1.),.UNSPECIFIED.);
#417 = CARTESIAN_POINT('',(112.57809413924,-64.84633200482,
    16.346856483546));
#418 = CARTESIAN_POINT('',(112.59952867676,-64.89500694922,
    16.335299357688));
#419 = CARTESIAN_POINT('',(112.6226880135,-64.94358790571,
    16.324513877863));
#420 = CARTESIAN_POINT('',(112.64760188463,-64.99197025517,
    16.314557045759));
#421 = CARTESIAN_POINT('',(112.67428939824,-65.0400406283,
    16.305485066781));
#422 = CARTESIAN_POINT('',(112.7027561468,-65.08767887392,
    16.297351289433));
#423 = CARTESIAN_POINT('',(112.79150476569,-65.22587512357,
    16.276372436418));
#424 = CARTESIAN_POINT('',(112.85665155521,-65.31491944217,
    16.266233573496));
#425 = CARTESIAN_POINT('',(112.92833966834,-65.40095911997,
    16.260144720279));
#426 = CARTESIAN_POINT('',(113.00626226174,-65.48304268783,
    16.258379368327));
#427 = CARTESIAN_POINT('',(113.08986120204,-65.56027986193,
    16.261078437137));
#428 = CARTESIAN_POINT('',(113.29034712856,-65.72264679466,
    16.277250956535));
#429 = CARTESIAN_POINT('',(113.41022427562,-65.80445754899,
    16.293401159197));
#430 = CARTESIAN_POINT('',(113.5363646806,-65.87585731501,
    16.316625645408));
#431 = CARTESIAN_POINT('',(113.66683771238,-65.9359938954,
    16.346466874455));
#432 = CARTESIAN_POINT('',(113.79972576553,-65.9846543485,
    16.382201618748));
#433 = CARTESIAN_POINT('',(114.01612397831,-66.04530359167,
    16.448280310293));
#434 = CARTESIAN_POINT('',(114.09924505878,-66.06420636146,
    16.475525832065));
#435 = CARTESIAN_POINT('',(114.18224336201,-66.07885470078,
    16.504524265851));
#436 = CARTESIAN_POINT('',(114.26476273557,-66.089374662,16.535071029476
    ));
#437 = CARTESIAN_POINT('',(114.34649104172,-66.09593676014,
    16.566961350714));
#438 = CARTESIAN_POINT('',(114.42716361635,-66.09873649161,16.6));
#439 = ORIENTED_EDGE('',*,*,#151,.T.);
#440 = B_SPLINE_SURFACE_WITH_KNOTS('',1,1,(
    (#441,#442)
    ,(#443,#444
    )),.UNSPECIFIED.,.F.,.F.,.F.,(2,2),(2,2),(0.,4.242640687119),(0.,1.)
  ,.PIECEWISE_BEZIER_KNOTS.);
#441 = CARTESIAN_POINT('',(114.,-68.5,15.4));
#442 = CARTESIAN_POINT('',(114.82842712474,-66.5,16.6));
#443 = CARTESIAN_POINT('',(111.,-65.5,15.4));
#444 = CARTESIAN_POINT('',(113.,-64.67157287525,16.6));
#445 = ADVANCED_FACE('',(#446),#470,.T.);
#446 = FACE_BOUND('',#447,.F.);
#447 = EDGE_LOOP('',(#448,#468,#469));
#448 = ORIENTED_EDGE('',*,*,#449,.F.);
#449 = EDGE_CURVE('',#135,#409,#450,.T.);
#450 = B_SPLINE_CURVE_WITH_KNOTS('',6,(#451,#452,#453,#454,#455,#456,
    #457,#458,#459,#460,#461,#462,#463,#464,#465,#466,#467),
  .UNSPECIFIED.,.F.,.F.,(7,5,5,7),(0.,0.369526493519,0.56228486506,1.),
  .UNSPECIFIED.);
#451 = CARTESIAN_POINT('',(113.,-62.53030615433,16.6));
#452 = CARTESIAN_POINT('',(112.88521948701,-62.64745352483,
    16.531131692211));
#453 = CARTESIAN_POINT('',(112.78130805071,-62.77547057838,
    16.468784830431));
#454 = CARTESIAN_POINT('',(112.69015004397,-62.91250792212,
    16.414090026385));
#455 = CARTESIAN_POINT('',(112.61281604789,-63.0564208687,
    16.367689628737));
#456 = CARTESIAN_POINT('',(112.54984524324,-63.20498649425,
    16.329907145946));
#457 = CARTESIAN_POINT('',(112.47583477319,-63.43466950362,
    16.285500863916));
#458 = CARTESIAN_POINT('',(112.45435285296,-63.51408679767,
    16.27261171178));
#459 = CARTESIAN_POINT('',(112.43675279762,-63.5938906045,
    16.262051678575));
#460 = CARTESIAN_POINT('',(112.42298803311,-63.67381013413,
    16.253792819866));
#461 = CARTESIAN_POINT('',(112.41298388373,-63.75359825838,
    16.247790330238));
#462 = CARTESIAN_POINT('',(112.3922608324,-64.01341456508,
    16.235356499441));
#463 = CARTESIAN_POINT('',(112.39679632003,-64.19189386391,
    16.238077792021));
#464 = CARTESIAN_POINT('',(112.41912291072,-64.36602754087,
    16.251473746435));
#465 = CARTESIAN_POINT('',(112.45775238586,-64.53396151239,
    16.27465143152));
#466 = CARTESIAN_POINT('',(112.51117626584,-64.69437053775,
    16.306705759504));
#467 = CARTESIAN_POINT('',(112.57809413924,-64.84633200482,
    16.346856483546));
#468 = ORIENTED_EDGE('',*,*,#142,.T.);
#469 = ORIENTED_EDGE('',*,*,#415,.F.);
#470 = CYLINDRICAL_SURFACE('',#471,2.1);
#471 = AXIS2_PLACEMENT_3D('',#472,#473,#474);
#472 = CARTESIAN_POINT('',(114.5,-64.,6.3));
#473 = DIRECTION('',(-0.,-0.,-1.));
#474 = DIRECTION('',(1.,0.,0.));
#475 = ADVANCED_FACE('',(#476),#494,.F.);
#476 = FACE_BOUND('',#477,.F.);
#477 = EDGE_LOOP('',(#478,#485,#491,#492,#493));
#478 = ORIENTED_EDGE('',*,*,#479,.F.);
#479 = EDGE_CURVE('',#480,#103,#482,.T.);
#480 = VERTEX_POINT('',#481);
#481 = CARTESIAN_POINT('',(135.,-62.,15.4));
#482 = B_SPLINE_CURVE_WITH_KNOTS('',1,(#483,#484),.UNSPECIFIED.,.F.,.F.,
  (2,2),(0.,1.),.PIECEWISE_BEZIER_KNOTS.);
#483 = CARTESIAN_POINT('',(135.,-62.,15.4));
#484 = CARTESIAN_POINT('',(133.,-61.17157287525,16.6));
#485 = ORIENTED_EDGE('',*,*,#486,.T.);
#486 = EDGE_CURVE('',#480,#353,#487,.T.);
#487 = LINE('',#488,#489);
#488 = CARTESIAN_POINT('',(135.,-62.,15.4));
#489 = VECTOR('',#490,1.);
#490 = DIRECTION('',(-0.707106781187,-0.707106781187,0.));
#491 = ORIENTED_EDGE('',*,*,#352,.T.);
#492 = ORIENTED_EDGE('',*,*,#329,.T.);
#493 = ORIENTED_EDGE('',*,*,#102,.T.);
#494 = B_SPLINE_SURFACE_WITH_KNOTS('',1,1,(
    (#495,#496)
    ,(#497,#498
    )),.UNSPECIFIED.,.F.,.F.,.F.,(2,2),(2,2),(0.,9.192388155425),(0.,1.)
  ,.PIECEWISE_BEZIER_KNOTS.);
#495 = CARTESIAN_POINT('',(135.,-62.,15.4));
#496 = CARTESIAN_POINT('',(133.,-61.17157287525,16.6));
#497 = CARTESIAN_POINT('',(128.5,-68.5,15.4));
#498 = CARTESIAN_POINT('',(127.67157287525,-66.5,16.6));
#499 = ADVANCED_FACE('',(#500),#518,.F.);
#500 = FACE_BOUND('',#501,.F.);
#501 = EDGE_LOOP('',(#502,#503,#511,#516,#517));
#502 = ORIENTED_EDGE('',*,*,#408,.F.);
#503 = ORIENTED_EDGE('',*,*,#504,.T.);
#504 = EDGE_CURVE('',#401,#505,#507,.T.);
#505 = VERTEX_POINT('',#506);
#506 = CARTESIAN_POINT('',(111.,-11.,15.4));
#507 = LINE('',#508,#509);
#508 = CARTESIAN_POINT('',(111.,-65.5,15.4));
#509 = VECTOR('',#510,1.);
#510 = DIRECTION('',(0.,1.,0.));
#511 = ORIENTED_EDGE('',*,*,#512,.T.);
#512 = EDGE_CURVE('',#505,#127,#513,.T.);
#513 = B_SPLINE_CURVE_WITH_KNOTS('',1,(#514,#515),.UNSPECIFIED.,.F.,.F.,
  (2,2),(0.,1.),.PIECEWISE_BEZIER_KNOTS.);
#514 = CARTESIAN_POINT('',(111.,-11.,15.4));
#515 = CARTESIAN_POINT('',(113.,-13.,16.6));
#516 = ORIENTED_EDGE('',*,*,#134,.T.);
#517 = ORIENTED_EDGE('',*,*,#449,.T.);
#518 = B_SPLINE_SURFACE_WITH_KNOTS('',1,1,(
    (#519,#520)
    ,(#521,#522
    )),.UNSPECIFIED.,.F.,.F.,.F.,(2,2),(2,2),(0.,54.5),(0.,1.),
  .PIECEWISE_BEZIER_KNOTS.);
#519 = CARTESIAN_POINT('',(111.,-65.5,15.4));
#520 = CARTESIAN_POINT('',(113.,-64.67157287525,16.6));
#521 = CARTESIAN_POINT('',(111.,-11.,15.4));
#522 = CARTESIAN_POINT('',(113.,-13.,16.6));
#523 = ADVANCED_FACE('',(#524),#541,.F.);
#524 = FACE_BOUND('',#525,.F.);
#525 = EDGE_LOOP('',(#526,#534,#535,#536));
#526 = ORIENTED_EDGE('',*,*,#527,.T.);
#527 = EDGE_CURVE('',#528,#480,#530,.T.);
#528 = VERTEX_POINT('',#529);
#529 = CARTESIAN_POINT('',(135.,-14.,15.4));
#530 = LINE('',#531,#532);
#531 = CARTESIAN_POINT('',(135.,-14.,15.4));
#532 = VECTOR('',#533,1.);
#533 = DIRECTION('',(0.,-1.,0.));
#534 = ORIENTED_EDGE('',*,*,#479,.T.);
#535 = ORIENTED_EDGE('',*,*,#110,.T.);
#536 = ORIENTED_EDGE('',*,*,#537,.F.);
#537 = EDGE_CURVE('',#528,#111,#538,.T.);
#538 = B_SPLINE_CURVE_WITH_KNOTS('',1,(#539,#540),.UNSPECIFIED.,.F.,.F.,
  (2,2),(0.,1.),.PIECEWISE_BEZIER_KNOTS.);
#539 = CARTESIAN_POINT('',(135.,-14.,15.4));
#540 = CARTESIAN_POINT('',(133.,-14.82842712474,16.6));
#541 = B_SPLINE_SURFACE_WITH_KNOTS('',1,1,(
    (#542,#543)
    ,(#544,#545
  )),.UNSPECIFIED.,.F.,.F.,.F.,(2,2),(2,2),(0.,48.),(0.,1.),
  .PIECEWISE_BEZIER_KNOTS.);
#542 = CARTESIAN_POINT('',(135.,-14.,15.4));
#543 = CARTESIAN_POINT('',(133.,-14.82842712474,16.6));
#544 = CARTESIAN_POINT('',(135.,-62.,15.4));
#545 = CARTESIAN_POINT('',(133.,-61.17157287525,16.6));
#546 = ADVANCED_FACE('',(#547),#564,.F.);
#547 = FACE_BOUND('',#548,.F.);
#548 = EDGE_LOOP('',(#549,#557,#562,#563));
#549 = ORIENTED_EDGE('',*,*,#550,.T.);
#550 = EDGE_CURVE('',#505,#551,#553,.T.);
#551 = VERTEX_POINT('',#552);
#552 = CARTESIAN_POINT('',(132.,-11.,15.4));
#553 = LINE('',#554,#555);
#554 = CARTESIAN_POINT('',(111.,-11.,15.4));
#555 = VECTOR('',#556,1.);
#556 = DIRECTION('',(1.,0.,0.));
#557 = ORIENTED_EDGE('',*,*,#558,.T.);
#558 = EDGE_CURVE('',#551,#119,#559,.T.);
#559 = B_SPLINE_CURVE_WITH_KNOTS('',1,(#560,#561),.UNSPECIFIED.,.F.,.F.,
  (2,2),(0.,1.),.PIECEWISE_BEZIER_KNOTS.);
#560 = CARTESIAN_POINT('',(132.,-11.,15.4));
#561 = CARTESIAN_POINT('',(131.17157287525,-13.,16.6));
#562 = ORIENTED_EDGE('',*,*,#126,.T.);
#563 = ORIENTED_EDGE('',*,*,#512,.F.);
#564 = B_SPLINE_SURFACE_WITH_KNOTS('',1,1,(
    (#565,#566)
    ,(#567,#568
  )),.UNSPECIFIED.,.F.,.F.,.F.,(2,2),(2,2),(0.,21.),(0.,1.),
  .PIECEWISE_BEZIER_KNOTS.);
#565 = CARTESIAN_POINT('',(111.,-11.,15.4));
#566 = CARTESIAN_POINT('',(113.,-13.,16.6));
#567 = CARTESIAN_POINT('',(132.,-11.,15.4));
#568 = CARTESIAN_POINT('',(131.17157287525,-13.,16.6));
#569 = ADVANCED_FACE('',(#570),#581,.F.);
#570 = FACE_BOUND('',#571,.F.);
#571 = EDGE_LOOP('',(#572,#578,#579,#580));
#572 = ORIENTED_EDGE('',*,*,#573,.T.);
#573 = EDGE_CURVE('',#551,#528,#574,.T.);
#574 = LINE('',#575,#576);
#575 = CARTESIAN_POINT('',(132.,-11.,15.4));
#576 = VECTOR('',#577,1.);
#577 = DIRECTION('',(0.707106781187,-0.707106781187,0.));
#578 = ORIENTED_EDGE('',*,*,#537,.T.);
#579 = ORIENTED_EDGE('',*,*,#118,.T.);
#580 = ORIENTED_EDGE('',*,*,#558,.F.);
#581 = B_SPLINE_SURFACE_WITH_KNOTS('',1,1,(
    (#582,#583)
    ,(#584,#585
    )),.UNSPECIFIED.,.F.,.F.,.F.,(2,2),(2,2),(0.,4.242640687119),(0.,1.)
  ,.PIECEWISE_BEZIER_KNOTS.);
#582 = CARTESIAN_POINT('',(132.,-11.,15.4));
#583 = CARTESIAN_POINT('',(131.17157287525,-13.,16.6));
#584 = CARTESIAN_POINT('',(135.,-14.,15.4));
#585 = CARTESIAN_POINT('',(133.,-14.82842712474,16.6));
#586 = ADVANCED_FACE('',(#587),#606,.F.);
#587 = FACE_BOUND('',#588,.T.);
#588 = EDGE_LOOP('',(#589,#598,#604,#605));
#589 = ORIENTED_EDGE('',*,*,#590,.F.);
#590 = EDGE_CURVE('',#591,#591,#593,.T.);
#591 = VERTEX_POINT('',#592);
#592 = CARTESIAN_POINT('',(116.35,-64.,14.9));
#593 = CIRCLE('',#594,1.85);
#594 = AXIS2_PLACEMENT_3D('',#595,#596,#597);
#595 = CARTESIAN_POINT('',(114.5,-64.,14.9));
#596 = DIRECTION('',(0.,0.,1.));
#597 = DIRECTION('',(1.,0.,0.));
#598 = ORIENTED_EDGE('',*,*,#599,.T.);
#599 = EDGE_CURVE('',#591,#168,#600,.T.);
#600 = LINE('',#601,#602);
#601 = CARTESIAN_POINT('',(116.35,-64.,14.9));
#602 = VECTOR('',#603,1.);
#603 = DIRECTION('',(0.,0.,1.));
#604 = ORIENTED_EDGE('',*,*,#167,.F.);
#605 = ORIENTED_EDGE('',*,*,#599,.F.);
#606 = CYLINDRICAL_SURFACE('',#607,1.85);
#607 = AXIS2_PLACEMENT_3D('',#608,#609,#610);
#608 = CARTESIAN_POINT('',(114.5,-64.,14.9));
#609 = DIRECTION('',(-0.,-0.,-1.));
#610 = DIRECTION('',(1.,0.,0.));
#611 = ADVANCED_FACE('',(#612),#631,.F.);
#612 = FACE_BOUND('',#613,.T.);
#613 = EDGE_LOOP('',(#614,#623,#629,#630));
#614 = ORIENTED_EDGE('',*,*,#615,.T.);
#615 = EDGE_CURVE('',#616,#616,#618,.T.);
#616 = VERTEX_POINT('',#617);
#617 = CARTESIAN_POINT('',(124.4,-59.5,15.4));
#618 = CIRCLE('',#619,1.4);
#619 = AXIS2_PLACEMENT_3D('',#620,#621,#622);
#620 = CARTESIAN_POINT('',(123.,-59.5,15.4));
#621 = DIRECTION('',(0.,0.,-1.));
#622 = DIRECTION('',(1.,0.,0.));
#623 = ORIENTED_EDGE('',*,*,#624,.T.);
#624 = EDGE_CURVE('',#616,#179,#625,.T.);
#625 = LINE('',#626,#627);
#626 = CARTESIAN_POINT('',(124.4,-59.5,7.8));
#627 = VECTOR('',#628,1.);
#628 = DIRECTION('',(0.,0.,1.));
#629 = ORIENTED_EDGE('',*,*,#178,.F.);
#630 = ORIENTED_EDGE('',*,*,#624,.F.);
#631 = CYLINDRICAL_SURFACE('',#632,1.4);
#632 = AXIS2_PLACEMENT_3D('',#633,#634,#635);
#633 = CARTESIAN_POINT('',(123.,-59.5,7.8));
#634 = DIRECTION('',(-0.,-0.,-1.));
#635 = DIRECTION('',(1.,0.,0.));
#636 = ADVANCED_FACE('',(#637),#662,.F.);
#637 = FACE_BOUND('',#638,.F.);
#638 = EDGE_LOOP('',(#639,#647,#655,#661));
#639 = ORIENTED_EDGE('',*,*,#640,.F.);
#640 = EDGE_CURVE('',#641,#195,#643,.T.);
#641 = VERTEX_POINT('',#642);
#642 = CARTESIAN_POINT('',(130.05,-18.25,15.4));
#643 = LINE('',#644,#645);
#644 = CARTESIAN_POINT('',(130.05,-18.25,15.1));
#645 = VECTOR('',#646,1.);
#646 = DIRECTION('',(0.,0.,1.));
#647 = ORIENTED_EDGE('',*,*,#648,.T.);
#648 = EDGE_CURVE('',#641,#649,#651,.T.);
#649 = VERTEX_POINT('',#650);
#650 = CARTESIAN_POINT('',(115.55,-18.25,15.4));
#651 = LINE('',#652,#653);
#652 = CARTESIAN_POINT('',(119.12689683701,-18.25,15.4));
#653 = VECTOR('',#654,1.);
#654 = DIRECTION('',(-1.,0.,0.));
#655 = ORIENTED_EDGE('',*,*,#656,.T.);
#656 = EDGE_CURVE('',#649,#193,#657,.T.);
#657 = LINE('',#658,#659);
#658 = CARTESIAN_POINT('',(115.55,-18.25,15.1));
#659 = VECTOR('',#660,1.);
#660 = DIRECTION('',(0.,0.,1.));
#661 = ORIENTED_EDGE('',*,*,#192,.T.);
#662 = PLANE('',#663);
#663 = AXIS2_PLACEMENT_3D('',#664,#665,#666);
#664 = CARTESIAN_POINT('',(115.55,-18.25,15.1));
#665 = DIRECTION('',(0.,1.,0.));
#666 = DIRECTION('',(0.,0.,1.));
#667 = ADVANCED_FACE('',(#668),#686,.T.);
#668 = FACE_BOUND('',#669,.T.);
#669 = EDGE_LOOP('',(#670,#678,#684,#685));
#670 = ORIENTED_EDGE('',*,*,#671,.F.);
#671 = EDGE_CURVE('',#672,#211,#674,.T.);
#672 = VERTEX_POINT('',#673);
#673 = CARTESIAN_POINT('',(115.55,-49.35,15.4));
#674 = LINE('',#675,#676);
#675 = CARTESIAN_POINT('',(115.55,-49.35,15.1));
#676 = VECTOR('',#677,1.);
#677 = DIRECTION('',(0.,0.,1.));
#678 = ORIENTED_EDGE('',*,*,#679,.T.);
#679 = EDGE_CURVE('',#672,#649,#680,.T.);
#680 = LINE('',#681,#682);
#681 = CARTESIAN_POINT('',(115.55,-44.20883759906,15.4));
#682 = VECTOR('',#683,1.);
#683 = DIRECTION('',(0.,1.,0.));
#684 = ORIENTED_EDGE('',*,*,#656,.T.);
#685 = ORIENTED_EDGE('',*,*,#218,.T.);
#686 = PLANE('',#687);
#687 = AXIS2_PLACEMENT_3D('',#688,#689,#690);
#688 = CARTESIAN_POINT('',(115.55,-49.35,15.1));
#689 = DIRECTION('',(1.,0.,0.));
#690 = DIRECTION('',(0.,0.,1.));
#691 = ADVANCED_FACE('',(#692),#710,.F.);
#692 = FACE_BOUND('',#693,.F.);
#693 = EDGE_LOOP('',(#694,#702,#708,#709));
#694 = ORIENTED_EDGE('',*,*,#695,.F.);
#695 = EDGE_CURVE('',#696,#203,#698,.T.);
#696 = VERTEX_POINT('',#697);
#697 = CARTESIAN_POINT('',(130.05,-49.35,15.4));
#698 = LINE('',#699,#700);
#699 = CARTESIAN_POINT('',(130.05,-49.35,15.1));
#700 = VECTOR('',#701,1.);
#701 = DIRECTION('',(0.,0.,1.));
#702 = ORIENTED_EDGE('',*,*,#703,.T.);
#703 = EDGE_CURVE('',#696,#641,#704,.T.);
#704 = LINE('',#705,#706);
#705 = CARTESIAN_POINT('',(130.05,-44.20883759906,15.4));
#706 = VECTOR('',#707,1.);
#707 = DIRECTION('',(0.,1.,0.));
#708 = ORIENTED_EDGE('',*,*,#640,.T.);
#709 = ORIENTED_EDGE('',*,*,#202,.T.);
#710 = PLANE('',#711);
#711 = AXIS2_PLACEMENT_3D('',#712,#713,#714);
#712 = CARTESIAN_POINT('',(130.05,-49.35,15.1));
#713 = DIRECTION('',(1.,0.,0.));
#714 = DIRECTION('',(0.,0.,1.));
#715 = ADVANCED_FACE('',(#716),#727,.T.);
#716 = FACE_BOUND('',#717,.T.);
#717 = EDGE_LOOP('',(#718,#719,#725,#726));
#718 = ORIENTED_EDGE('',*,*,#695,.F.);
#719 = ORIENTED_EDGE('',*,*,#720,.T.);
#720 = EDGE_CURVE('',#696,#672,#721,.T.);
#721 = LINE('',#722,#723);
#722 = CARTESIAN_POINT('',(119.12689683701,-49.35,15.4));
#723 = VECTOR('',#724,1.);
#724 = DIRECTION('',(-1.,0.,0.));
#725 = ORIENTED_EDGE('',*,*,#671,.T.);
#726 = ORIENTED_EDGE('',*,*,#210,.T.);
#727 = PLANE('',#728);
#728 = AXIS2_PLACEMENT_3D('',#729,#730,#731);
#729 = CARTESIAN_POINT('',(115.55,-49.35,15.1));
#730 = DIRECTION('',(0.,1.,0.));
#731 = DIRECTION('',(0.,0.,1.));
#732 = ADVANCED_FACE('',(#733,#863),#866,.T.);
#733 = FACE_BOUND('',#734,.T.);
#734 = EDGE_LOOP('',(#735,#745,#753,#761,#769,#777,#785,#793,#802,#810,
    #818,#826,#832,#833,#841,#849,#857));
#735 = ORIENTED_EDGE('',*,*,#736,.T.);
#736 = EDGE_CURVE('',#737,#739,#741,.T.);
#737 = VERTEX_POINT('',#738);
#738 = CARTESIAN_POINT('',(111.,-11.,6.3));
#739 = VERTEX_POINT('',#740);
#740 = CARTESIAN_POINT('',(116.3,-11.,6.3));
#741 = LINE('',#742,#743);
#742 = CARTESIAN_POINT('',(111.,-11.,6.3));
#743 = VECTOR('',#744,1.);
#744 = DIRECTION('',(1.,0.,0.));
#745 = ORIENTED_EDGE('',*,*,#746,.F.);
#746 = EDGE_CURVE('',#747,#739,#749,.T.);
#747 = VERTEX_POINT('',#748);
#748 = CARTESIAN_POINT('',(116.3,-12.2,6.3));
#749 = LINE('',#750,#751);
#750 = CARTESIAN_POINT('',(116.3,-15.5,6.3));
#751 = VECTOR('',#752,1.);
#752 = DIRECTION('',(0.,1.,0.));
#753 = ORIENTED_EDGE('',*,*,#754,.F.);
#754 = EDGE_CURVE('',#755,#747,#757,.T.);
#755 = VERTEX_POINT('',#756);
#756 = CARTESIAN_POINT('',(112.2,-12.2,6.3));
#757 = LINE('',#758,#759);
#758 = CARTESIAN_POINT('',(121.25147186257,-12.2,6.3));
#759 = VECTOR('',#760,1.);
#760 = DIRECTION('',(1.,0.,0.));
#761 = ORIENTED_EDGE('',*,*,#762,.F.);
#762 = EDGE_CURVE('',#763,#755,#765,.T.);
#763 = VERTEX_POINT('',#764);
#764 = CARTESIAN_POINT('',(112.2,-65.00294372515,6.3));
#765 = LINE('',#766,#767);
#766 = CARTESIAN_POINT('',(112.2,-11.6,6.3));
#767 = VECTOR('',#768,1.);
#768 = DIRECTION('',(0.,1.,0.));
#769 = ORIENTED_EDGE('',*,*,#770,.F.);
#770 = EDGE_CURVE('',#771,#763,#773,.T.);
#771 = VERTEX_POINT('',#772);
#772 = CARTESIAN_POINT('',(114.49705627484,-67.3,6.3));
#773 = LINE('',#774,#775);
#774 = CARTESIAN_POINT('',(98.399264068712,-51.20220779386,6.3));
#775 = VECTOR('',#776,1.);
#776 = DIRECTION('',(-0.707106781187,0.707106781187,0.));
#777 = ORIENTED_EDGE('',*,*,#778,.F.);
#778 = EDGE_CURVE('',#779,#771,#781,.T.);
#779 = VERTEX_POINT('',#780);
#780 = CARTESIAN_POINT('',(128.00294372515,-67.3,6.3));
#781 = LINE('',#782,#783);
#782 = CARTESIAN_POINT('',(112.74852813742,-67.3,6.3));
#783 = VECTOR('',#784,1.);
#784 = DIRECTION('',(-1.,0.,0.));
#785 = ORIENTED_EDGE('',*,*,#786,.F.);
#786 = EDGE_CURVE('',#787,#779,#789,.T.);
#787 = VERTEX_POINT('',#788);
#788 = CARTESIAN_POINT('',(129.50874266767,-65.79420105747,6.3));
#789 = LINE('',#790,#791);
#790 = CARTESIAN_POINT('',(137.82720779386,-57.47573593128,6.3));
#791 = VECTOR('',#792,1.);
#792 = DIRECTION('',(-0.707106781187,-0.707106781187,0.));
#793 = ORIENTED_EDGE('',*,*,#794,.F.);
#794 = EDGE_CURVE('',#795,#787,#797,.T.);
#795 = VERTEX_POINT('',#796);
#796 = CARTESIAN_POINT('',(132.39420105747,-62.90874266767,6.3));
#797 = CIRCLE('',#798,2.1);
#798 = AXIS2_PLACEMENT_3D('',#799,#800,#801);
#799 = CARTESIAN_POINT('',(130.6,-64.,6.3));
#800 = DIRECTION('',(0.,0.,1.));
#801 = DIRECTION('',(1.,0.,0.));
#802 = ORIENTED_EDGE('',*,*,#803,.F.);
#803 = EDGE_CURVE('',#804,#795,#806,.T.);
#804 = VERTEX_POINT('',#805);
#805 = CARTESIAN_POINT('',(133.40294372515,-61.9,6.3));
#806 = LINE('',#807,#808);
#807 = CARTESIAN_POINT('',(137.82720779386,-57.47573593128,6.3));
#808 = VECTOR('',#809,1.);
#809 = DIRECTION('',(-0.707106781187,-0.707106781187,0.));
#810 = ORIENTED_EDGE('',*,*,#811,.F.);
#811 = EDGE_CURVE('',#812,#804,#814,.T.);
#812 = VERTEX_POINT('',#813);
#813 = CARTESIAN_POINT('',(135.,-61.9,6.3));
#814 = LINE('',#815,#816);
#815 = CARTESIAN_POINT('',(119.65,-61.9,6.3));
#816 = VECTOR('',#817,1.);
#817 = DIRECTION('',(-1.,0.,0.));
#818 = ORIENTED_EDGE('',*,*,#819,.T.);
#819 = EDGE_CURVE('',#812,#820,#822,.T.);
#820 = VERTEX_POINT('',#821);
#821 = CARTESIAN_POINT('',(135.,-62.,6.3));
#822 = LINE('',#823,#824);
#823 = CARTESIAN_POINT('',(135.,-14.,6.3));
#824 = VECTOR('',#825,1.);
#825 = DIRECTION('',(0.,-1.,0.));
#826 = ORIENTED_EDGE('',*,*,#827,.T.);
#827 = EDGE_CURVE('',#820,#366,#828,.T.);
#828 = LINE('',#829,#830);
#829 = CARTESIAN_POINT('',(135.,-62.,6.3));
#830 = VECTOR('',#831,1.);
#831 = DIRECTION('',(-0.707106781187,-0.707106781187,0.));
#832 = ORIENTED_EDGE('',*,*,#373,.F.);
#833 = ORIENTED_EDGE('',*,*,#834,.T.);
#834 = EDGE_CURVE('',#374,#835,#837,.T.);
#835 = VERTEX_POINT('',#836);
#836 = CARTESIAN_POINT('',(128.5,-68.5,6.3));
#837 = LINE('',#838,#839);
#838 = CARTESIAN_POINT('',(135.,-62.,6.3));
#839 = VECTOR('',#840,1.);
#840 = DIRECTION('',(-0.707106781187,-0.707106781187,0.));
#841 = ORIENTED_EDGE('',*,*,#842,.T.);
#842 = EDGE_CURVE('',#835,#843,#845,.T.);
#843 = VERTEX_POINT('',#844);
#844 = CARTESIAN_POINT('',(114.,-68.5,6.3));
#845 = LINE('',#846,#847);
#846 = CARTESIAN_POINT('',(128.5,-68.5,6.3));
#847 = VECTOR('',#848,1.);
#848 = DIRECTION('',(-1.,0.,0.));
#849 = ORIENTED_EDGE('',*,*,#850,.T.);
#850 = EDGE_CURVE('',#843,#851,#853,.T.);
#851 = VERTEX_POINT('',#852);
#852 = CARTESIAN_POINT('',(111.,-65.5,6.3));
#853 = LINE('',#854,#855);
#854 = CARTESIAN_POINT('',(114.,-68.5,6.3));
#855 = VECTOR('',#856,1.);
#856 = DIRECTION('',(-0.707106781187,0.707106781187,0.));
#857 = ORIENTED_EDGE('',*,*,#858,.T.);
#858 = EDGE_CURVE('',#851,#737,#859,.T.);
#859 = LINE('',#860,#861);
#860 = CARTESIAN_POINT('',(111.,-65.5,6.3));
#861 = VECTOR('',#862,1.);
#862 = DIRECTION('',(0.,1.,0.));
#863 = FACE_BOUND('',#864,.T.);
#864 = EDGE_LOOP('',(#865));
#865 = ORIENTED_EDGE('',*,*,#240,.F.);
#866 = PLANE('',#867);
#867 = AXIS2_PLACEMENT_3D('',#868,#869,#870);
#868 = CARTESIAN_POINT('',(115.77382498646,-45.93276635024,6.3));
#869 = DIRECTION('',(-0.,-0.,-1.));
#870 = DIRECTION('',(-1.,0.,0.));
#871 = ADVANCED_FACE('',(#872),#882,.F.);
#872 = FACE_BOUND('',#873,.F.);
#873 = EDGE_LOOP('',(#874,#875,#876,#881));
#874 = ORIENTED_EDGE('',*,*,#382,.T.);
#875 = ORIENTED_EDGE('',*,*,#834,.T.);
#876 = ORIENTED_EDGE('',*,*,#877,.T.);
#877 = EDGE_CURVE('',#835,#285,#878,.T.);
#878 = B_SPLINE_CURVE_WITH_KNOTS('',1,(#879,#880),.UNSPECIFIED.,.F.,.F.,
  (2,2),(0.,1.),.PIECEWISE_BEZIER_KNOTS.);
#879 = CARTESIAN_POINT('',(128.5,-68.5,6.3));
#880 = CARTESIAN_POINT('',(128.5,-68.5,15.4));
#881 = ORIENTED_EDGE('',*,*,#284,.F.);
#882 = PLANE('',#883);
#883 = AXIS2_PLACEMENT_3D('',#884,#885,#886);
#884 = CARTESIAN_POINT('',(135.,-62.,15.4));
#885 = DIRECTION('',(-0.707106781187,0.707106781187,0.));
#886 = DIRECTION('',(-0.707106781187,-0.707106781187,0.));
#887 = ADVANCED_FACE('',(#888),#898,.F.);
#888 = FACE_BOUND('',#889,.F.);
#889 = EDGE_LOOP('',(#890,#891,#896,#897));
#890 = ORIENTED_EDGE('',*,*,#842,.T.);
#891 = ORIENTED_EDGE('',*,*,#892,.T.);
#892 = EDGE_CURVE('',#843,#307,#893,.T.);
#893 = B_SPLINE_CURVE_WITH_KNOTS('',1,(#894,#895),.UNSPECIFIED.,.F.,.F.,
  (2,2),(0.,1.),.PIECEWISE_BEZIER_KNOTS.);
#894 = CARTESIAN_POINT('',(114.,-68.5,6.3));
#895 = CARTESIAN_POINT('',(114.,-68.5,15.4));
#896 = ORIENTED_EDGE('',*,*,#306,.F.);
#897 = ORIENTED_EDGE('',*,*,#877,.F.);
#898 = PLANE('',#899);
#899 = AXIS2_PLACEMENT_3D('',#900,#901,#902);
#900 = CARTESIAN_POINT('',(128.5,-68.5,15.4));
#901 = DIRECTION('',(0.,1.,0.));
#902 = DIRECTION('',(-1.,0.,0.));
#903 = ADVANCED_FACE('',(#904),#914,.F.);
#904 = FACE_BOUND('',#905,.F.);
#905 = EDGE_LOOP('',(#906,#911,#912,#913));
#906 = ORIENTED_EDGE('',*,*,#907,.F.);
#907 = EDGE_CURVE('',#820,#480,#908,.T.);
#908 = B_SPLINE_CURVE_WITH_KNOTS('',1,(#909,#910),.UNSPECIFIED.,.F.,.F.,
  (2,2),(0.,1.),.PIECEWISE_BEZIER_KNOTS.);
#909 = CARTESIAN_POINT('',(135.,-62.,6.3));
#910 = CARTESIAN_POINT('',(135.,-62.,15.4));
#911 = ORIENTED_EDGE('',*,*,#827,.T.);
#912 = ORIENTED_EDGE('',*,*,#365,.F.);
#913 = ORIENTED_EDGE('',*,*,#486,.F.);
#914 = PLANE('',#915);
#915 = AXIS2_PLACEMENT_3D('',#916,#917,#918);
#916 = CARTESIAN_POINT('',(135.,-62.,15.4));
#917 = DIRECTION('',(-0.707106781187,0.707106781187,0.));
#918 = DIRECTION('',(-0.707106781187,-0.707106781187,0.));
#919 = ADVANCED_FACE('',(#920),#930,.F.);
#920 = FACE_BOUND('',#921,.F.);
#921 = EDGE_LOOP('',(#922,#923,#928,#929));
#922 = ORIENTED_EDGE('',*,*,#850,.T.);
#923 = ORIENTED_EDGE('',*,*,#924,.T.);
#924 = EDGE_CURVE('',#851,#401,#925,.T.);
#925 = B_SPLINE_CURVE_WITH_KNOTS('',1,(#926,#927),.UNSPECIFIED.,.F.,.F.,
  (2,2),(0.,1.),.PIECEWISE_BEZIER_KNOTS.);
#926 = CARTESIAN_POINT('',(111.,-65.5,6.3));
#927 = CARTESIAN_POINT('',(111.,-65.5,15.4));
#928 = ORIENTED_EDGE('',*,*,#400,.F.);
#929 = ORIENTED_EDGE('',*,*,#892,.F.);
#930 = PLANE('',#931);
#931 = AXIS2_PLACEMENT_3D('',#932,#933,#934);
#932 = CARTESIAN_POINT('',(114.,-68.5,15.4));
#933 = DIRECTION('',(0.707106781187,0.707106781187,0.));
#934 = DIRECTION('',(-0.707106781187,0.707106781187,0.));
#935 = ADVANCED_FACE('',(#936),#946,.F.);
#936 = FACE_BOUND('',#937,.F.);
#937 = EDGE_LOOP('',(#938,#939,#944,#945));
#938 = ORIENTED_EDGE('',*,*,#858,.T.);
#939 = ORIENTED_EDGE('',*,*,#940,.T.);
#940 = EDGE_CURVE('',#737,#505,#941,.T.);
#941 = B_SPLINE_CURVE_WITH_KNOTS('',1,(#942,#943),.UNSPECIFIED.,.F.,.F.,
  (2,2),(0.,1.),.PIECEWISE_BEZIER_KNOTS.);
#942 = CARTESIAN_POINT('',(111.,-11.,6.3));
#943 = CARTESIAN_POINT('',(111.,-11.,15.4));
#944 = ORIENTED_EDGE('',*,*,#504,.F.);
#945 = ORIENTED_EDGE('',*,*,#924,.F.);
#946 = PLANE('',#947);
#947 = AXIS2_PLACEMENT_3D('',#948,#949,#950);
#948 = CARTESIAN_POINT('',(111.,-65.5,15.4));
#949 = DIRECTION('',(1.,0.,0.));
#950 = DIRECTION('',(0.,1.,0.));
#951 = ADVANCED_FACE('',(#952),#994,.F.);
#952 = FACE_BOUND('',#953,.F.);
#953 = EDGE_LOOP('',(#954,#961,#969,#977,#985,#991,#992,#993));
#954 = ORIENTED_EDGE('',*,*,#955,.F.);
#955 = EDGE_CURVE('',#956,#528,#958,.T.);
#956 = VERTEX_POINT('',#957);
#957 = CARTESIAN_POINT('',(135.,-14.,6.3));
#958 = B_SPLINE_CURVE_WITH_KNOTS('',1,(#959,#960),.UNSPECIFIED.,.F.,.F.,
  (2,2),(0.,1.),.PIECEWISE_BEZIER_KNOTS.);
#959 = CARTESIAN_POINT('',(135.,-14.,6.3));
#960 = CARTESIAN_POINT('',(135.,-14.,15.4));
#961 = ORIENTED_EDGE('',*,*,#962,.T.);
#962 = EDGE_CURVE('',#956,#963,#965,.T.);
#963 = VERTEX_POINT('',#964);
#964 = CARTESIAN_POINT('',(135.,-53.4,6.3));
#965 = LINE('',#966,#967);
#966 = CARTESIAN_POINT('',(135.,-14.,6.3));
#967 = VECTOR('',#968,1.);
#968 = DIRECTION('',(0.,-1.,0.));
#969 = ORIENTED_EDGE('',*,*,#970,.F.);
#970 = EDGE_CURVE('',#971,#963,#973,.T.);
#971 = VERTEX_POINT('',#972);
#972 = CARTESIAN_POINT('',(135.,-53.4,9.2));
#973 = LINE('',#974,#975);
#974 = CARTESIAN_POINT('',(135.,-53.4,10.25));
#975 = VECTOR('',#976,1.);
#976 = DIRECTION('',(0.,0.,-1.));
#977 = ORIENTED_EDGE('',*,*,#978,.F.);
#978 = EDGE_CURVE('',#979,#971,#981,.T.);
#979 = VERTEX_POINT('',#980);
#980 = CARTESIAN_POINT('',(135.,-61.9,9.2));
#981 = LINE('',#982,#983);
#982 = CARTESIAN_POINT('',(135.,-37.95,9.2));
#983 = VECTOR('',#984,1.);
#984 = DIRECTION('',(0.,1.,0.));
#985 = ORIENTED_EDGE('',*,*,#986,.T.);
#986 = EDGE_CURVE('',#979,#812,#987,.T.);
#987 = LINE('',#988,#989);
#988 = CARTESIAN_POINT('',(135.,-61.9,10.25));
#989 = VECTOR('',#990,1.);
#990 = DIRECTION('',(0.,0.,-1.));
#991 = ORIENTED_EDGE('',*,*,#819,.T.);
#992 = ORIENTED_EDGE('',*,*,#907,.T.);
#993 = ORIENTED_EDGE('',*,*,#527,.F.);
#994 = PLANE('',#995);
#995 = AXIS2_PLACEMENT_3D('',#996,#997,#998);
#996 = CARTESIAN_POINT('',(135.,-14.,15.4));
#997 = DIRECTION('',(-1.,0.,0.));
#998 = DIRECTION('',(0.,-1.,0.));
#999 = ADVANCED_FACE('',(#1000),#1042,.F.);
#1000 = FACE_BOUND('',#1001,.F.);
#1001 = EDGE_LOOP('',(#1002,#1003,#1004,#1012,#1020,#1028,#1036,#1041));
#1002 = ORIENTED_EDGE('',*,*,#940,.F.);
#1003 = ORIENTED_EDGE('',*,*,#736,.T.);
#1004 = ORIENTED_EDGE('',*,*,#1005,.T.);
#1005 = EDGE_CURVE('',#739,#1006,#1008,.T.);
#1006 = VERTEX_POINT('',#1007);
#1007 = CARTESIAN_POINT('',(116.3,-11.,11.8));
#1008 = LINE('',#1009,#1010);
#1009 = CARTESIAN_POINT('',(116.3,-11.,10.8));
#1010 = VECTOR('',#1011,1.);
#1011 = DIRECTION('',(0.,0.,1.));
#1012 = ORIENTED_EDGE('',*,*,#1013,.F.);
#1013 = EDGE_CURVE('',#1014,#1006,#1016,.T.);
#1014 = VERTEX_POINT('',#1015);
#1015 = CARTESIAN_POINT('',(129.3,-11.,11.8));
#1016 = LINE('',#1017,#1018);
#1017 = CARTESIAN_POINT('',(113.65,-11.,11.8));
#1018 = VECTOR('',#1019,1.);
#1019 = DIRECTION('',(-1.,0.,0.));
#1020 = ORIENTED_EDGE('',*,*,#1021,.F.);
#1021 = EDGE_CURVE('',#1022,#1014,#1024,.T.);
#1022 = VERTEX_POINT('',#1023);
#1023 = CARTESIAN_POINT('',(129.3,-11.,6.3));
#1024 = LINE('',#1025,#1026);
#1025 = CARTESIAN_POINT('',(129.3,-11.,10.8));
#1026 = VECTOR('',#1027,1.);
#1027 = DIRECTION('',(0.,0.,1.));
#1028 = ORIENTED_EDGE('',*,*,#1029,.T.);
#1029 = EDGE_CURVE('',#1022,#1030,#1032,.T.);
#1030 = VERTEX_POINT('',#1031);
#1031 = CARTESIAN_POINT('',(132.,-11.,6.3));
#1032 = LINE('',#1033,#1034);
#1033 = CARTESIAN_POINT('',(111.,-11.,6.3));
#1034 = VECTOR('',#1035,1.);
#1035 = DIRECTION('',(1.,0.,0.));
#1036 = ORIENTED_EDGE('',*,*,#1037,.T.);
#1037 = EDGE_CURVE('',#1030,#551,#1038,.T.);
#1038 = B_SPLINE_CURVE_WITH_KNOTS('',1,(#1039,#1040),.UNSPECIFIED.,.F.,
  .F.,(2,2),(0.,1.),.PIECEWISE_BEZIER_KNOTS.);
#1039 = CARTESIAN_POINT('',(132.,-11.,6.3));
#1040 = CARTESIAN_POINT('',(132.,-11.,15.4));
#1041 = ORIENTED_EDGE('',*,*,#550,.F.);
#1042 = PLANE('',#1043);
#1043 = AXIS2_PLACEMENT_3D('',#1044,#1045,#1046);
#1044 = CARTESIAN_POINT('',(111.,-11.,15.4));
#1045 = DIRECTION('',(0.,-1.,0.));
#1046 = DIRECTION('',(1.,0.,0.));
#1047 = ADVANCED_FACE('',(#1048,#1059),#1093,.F.);
#1048 = FACE_BOUND('',#1049,.F.);
#1049 = EDGE_LOOP('',(#1050,#1056,#1057,#1058));
#1050 = ORIENTED_EDGE('',*,*,#1051,.T.);
#1051 = EDGE_CURVE('',#1030,#956,#1052,.T.);
#1052 = LINE('',#1053,#1054);
#1053 = CARTESIAN_POINT('',(132.,-11.,6.3));
#1054 = VECTOR('',#1055,1.);
#1055 = DIRECTION('',(0.707106781187,-0.707106781187,0.));
#1056 = ORIENTED_EDGE('',*,*,#955,.T.);
#1057 = ORIENTED_EDGE('',*,*,#573,.F.);
#1058 = ORIENTED_EDGE('',*,*,#1037,.F.);
#1059 = FACE_BOUND('',#1060,.F.);
#1060 = EDGE_LOOP('',(#1061,#1071,#1079,#1087));
#1061 = ORIENTED_EDGE('',*,*,#1062,.F.);
#1062 = EDGE_CURVE('',#1063,#1065,#1067,.T.);
#1063 = VERTEX_POINT('',#1064);
#1064 = CARTESIAN_POINT('',(132.6,-11.6,8.5));
#1065 = VERTEX_POINT('',#1066);
#1066 = CARTESIAN_POINT('',(132.6,-11.6,12.7));
#1067 = LINE('',#1068,#1069);
#1068 = CARTESIAN_POINT('',(132.6,-11.6,11.95));
#1069 = VECTOR('',#1070,1.);
#1070 = DIRECTION('',(0.,0.,1.));
#1071 = ORIENTED_EDGE('',*,*,#1072,.T.);
#1072 = EDGE_CURVE('',#1063,#1073,#1075,.T.);
#1073 = VERTEX_POINT('',#1074);
#1074 = CARTESIAN_POINT('',(132.4,-11.4,8.5));
#1075 = LINE('',#1076,#1077);
#1076 = CARTESIAN_POINT('',(136.525,-15.525,8.5));
#1077 = VECTOR('',#1078,1.);
#1078 = DIRECTION('',(-0.707106781187,0.707106781187,0.));
#1079 = ORIENTED_EDGE('',*,*,#1080,.F.);
#1080 = EDGE_CURVE('',#1081,#1073,#1083,.T.);
#1081 = VERTEX_POINT('',#1082);
#1082 = CARTESIAN_POINT('',(132.4,-11.4,12.7));
#1083 = LINE('',#1084,#1085);
#1084 = CARTESIAN_POINT('',(132.4,-11.4,11.95));
#1085 = VECTOR('',#1086,1.);
#1086 = DIRECTION('',(0.,0.,-1.));
#1087 = ORIENTED_EDGE('',*,*,#1088,.F.);
#1088 = EDGE_CURVE('',#1065,#1081,#1089,.T.);
#1089 = LINE('',#1090,#1091);
#1090 = CARTESIAN_POINT('',(136.525,-15.525,12.7));
#1091 = VECTOR('',#1092,1.);
#1092 = DIRECTION('',(-0.707106781187,0.707106781187,0.));
#1093 = PLANE('',#1094);
#1094 = AXIS2_PLACEMENT_3D('',#1095,#1096,#1097);
#1095 = CARTESIAN_POINT('',(132.,-11.,15.4));
#1096 = DIRECTION('',(-0.707106781187,-0.707106781187,0.));
#1097 = DIRECTION('',(0.707106781187,-0.707106781187,0.));
#1098 = ADVANCED_FACE('',(#1099,#1102),#1113,.T.);
#1099 = FACE_BOUND('',#1100,.T.);
#1100 = EDGE_LOOP('',(#1101));
#1101 = ORIENTED_EDGE('',*,*,#590,.T.);
#1102 = FACE_BOUND('',#1103,.T.);
#1103 = EDGE_LOOP('',(#1104));
#1104 = ORIENTED_EDGE('',*,*,#1105,.T.);
#1105 = EDGE_CURVE('',#1106,#1106,#1108,.T.);
#1106 = VERTEX_POINT('',#1107);
#1107 = CARTESIAN_POINT('',(115.65,-64.,14.9));
#1108 = CIRCLE('',#1109,1.15);
#1109 = AXIS2_PLACEMENT_3D('',#1110,#1111,#1112);
#1110 = CARTESIAN_POINT('',(114.5,-64.,14.9));
#1111 = DIRECTION('',(0.,0.,-1.));
#1112 = DIRECTION('',(1.,0.,0.));
#1113 = PLANE('',#1114);
#1114 = AXIS2_PLACEMENT_3D('',#1115,#1116,#1117);
#1115 = CARTESIAN_POINT('',(114.5,-64.,14.9));
#1116 = DIRECTION('',(0.,0.,1.));
#1117 = DIRECTION('',(1.,0.,0.));
#1118 = ADVANCED_FACE('',(#1119,#1194,#1205,#1208),#1214,.F.);
#1119 = FACE_BOUND('',#1120,.F.);
#1120 = EDGE_LOOP('',(#1121,#1131,#1139,#1147,#1155,#1163,#1172,#1180,
    #1188));
#1121 = ORIENTED_EDGE('',*,*,#1122,.T.);
#1122 = EDGE_CURVE('',#1123,#1125,#1127,.T.);
#1123 = VERTEX_POINT('',#1124);
#1124 = CARTESIAN_POINT('',(131.50294372515,-12.2,15.4));
#1125 = VERTEX_POINT('',#1126);
#1126 = CARTESIAN_POINT('',(112.2,-12.2,15.4));
#1127 = LINE('',#1128,#1129);
#1128 = CARTESIAN_POINT('',(131.50294372515,-12.2,15.4));
#1129 = VECTOR('',#1130,1.);
#1130 = DIRECTION('',(-1.,0.,0.));
#1131 = ORIENTED_EDGE('',*,*,#1132,.T.);
#1132 = EDGE_CURVE('',#1125,#1133,#1135,.T.);
#1133 = VERTEX_POINT('',#1134);
#1134 = CARTESIAN_POINT('',(112.2,-65.00294372515,15.4));
#1135 = LINE('',#1136,#1137);
#1136 = CARTESIAN_POINT('',(112.2,-12.2,15.4));
#1137 = VECTOR('',#1138,1.);
#1138 = DIRECTION('',(0.,-1.,0.));
#1139 = ORIENTED_EDGE('',*,*,#1140,.T.);
#1140 = EDGE_CURVE('',#1133,#1141,#1143,.T.);
#1141 = VERTEX_POINT('',#1142);
#1142 = CARTESIAN_POINT('',(114.49705627484,-67.3,15.4));
#1143 = LINE('',#1144,#1145);
#1144 = CARTESIAN_POINT('',(112.2,-65.00294372515,15.4));
#1145 = VECTOR('',#1146,1.);
#1146 = DIRECTION('',(0.707106781187,-0.707106781187,0.));
#1147 = ORIENTED_EDGE('',*,*,#1148,.T.);
#1148 = EDGE_CURVE('',#1141,#1149,#1151,.T.);
#1149 = VERTEX_POINT('',#1150);
#1150 = CARTESIAN_POINT('',(128.00294372515,-67.3,15.4));
#1151 = LINE('',#1152,#1153);
#1152 = CARTESIAN_POINT('',(114.49705627484,-67.3,15.4));
#1153 = VECTOR('',#1154,1.);
#1154 = DIRECTION('',(1.,0.,0.));
#1155 = ORIENTED_EDGE('',*,*,#1156,.T.);
#1156 = EDGE_CURVE('',#1149,#1157,#1159,.T.);
#1157 = VERTEX_POINT('',#1158);
#1158 = CARTESIAN_POINT('',(129.50874266767,-65.79420105747,15.4));
#1159 = LINE('',#1160,#1161);
#1160 = CARTESIAN_POINT('',(128.00294372515,-67.3,15.4));
#1161 = VECTOR('',#1162,1.);
#1162 = DIRECTION('',(0.707106781187,0.707106781187,0.));
#1163 = ORIENTED_EDGE('',*,*,#1164,.T.);
#1164 = EDGE_CURVE('',#1157,#1165,#1167,.T.);
#1165 = VERTEX_POINT('',#1166);
#1166 = CARTESIAN_POINT('',(132.39420105747,-62.90874266767,15.4));
#1167 = CIRCLE('',#1168,2.1);
#1168 = AXIS2_PLACEMENT_3D('',#1169,#1170,#1171);
#1169 = CARTESIAN_POINT('',(130.6,-64.,15.4));
#1170 = DIRECTION('',(0.,0.,-1.));
#1171 = DIRECTION('',(1.,0.,0.));
#1172 = ORIENTED_EDGE('',*,*,#1173,.T.);
#1173 = EDGE_CURVE('',#1165,#1174,#1176,.T.);
#1174 = VERTEX_POINT('',#1175);
#1175 = CARTESIAN_POINT('',(133.8,-61.50294372515,15.4));
#1176 = LINE('',#1177,#1178);
#1177 = CARTESIAN_POINT('',(128.00294372515,-67.3,15.4));
#1178 = VECTOR('',#1179,1.);
#1179 = DIRECTION('',(0.707106781187,0.707106781187,0.));
#1180 = ORIENTED_EDGE('',*,*,#1181,.T.);
#1181 = EDGE_CURVE('',#1174,#1182,#1184,.T.);
#1182 = VERTEX_POINT('',#1183);
#1183 = CARTESIAN_POINT('',(133.8,-14.49705627484,15.4));
#1184 = LINE('',#1185,#1186);
#1185 = CARTESIAN_POINT('',(133.8,-61.50294372515,15.4));
#1186 = VECTOR('',#1187,1.);
#1187 = DIRECTION('',(0.,1.,0.));
#1188 = ORIENTED_EDGE('',*,*,#1189,.T.);
#1189 = EDGE_CURVE('',#1182,#1123,#1190,.T.);
#1190 = LINE('',#1191,#1192);
#1191 = CARTESIAN_POINT('',(133.8,-14.49705627484,15.4));
#1192 = VECTOR('',#1193,1.);
#1193 = DIRECTION('',(-0.707106781187,0.707106781187,0.));
#1194 = FACE_BOUND('',#1195,.F.);
#1195 = EDGE_LOOP('',(#1196));
#1196 = ORIENTED_EDGE('',*,*,#1197,.T.);
#1197 = EDGE_CURVE('',#1198,#1198,#1200,.T.);
#1198 = VERTEX_POINT('',#1199);
#1199 = CARTESIAN_POINT('',(116.6,-64.,15.4));
#1200 = CIRCLE('',#1201,2.1);
#1201 = AXIS2_PLACEMENT_3D('',#1202,#1203,#1204);
#1202 = CARTESIAN_POINT('',(114.5,-64.,15.4));
#1203 = DIRECTION('',(0.,0.,-1.));
#1204 = DIRECTION('',(1.,0.,0.));
#1205 = FACE_BOUND('',#1206,.F.);
#1206 = EDGE_LOOP('',(#1207));
#1207 = ORIENTED_EDGE('',*,*,#615,.T.);
#1208 = FACE_BOUND('',#1209,.F.);
#1209 = EDGE_LOOP('',(#1210,#1211,#1212,#1213));
#1210 = ORIENTED_EDGE('',*,*,#720,.T.);
#1211 = ORIENTED_EDGE('',*,*,#679,.T.);
#1212 = ORIENTED_EDGE('',*,*,#648,.F.);
#1213 = ORIENTED_EDGE('',*,*,#703,.F.);
#1214 = PLANE('',#1215);
#1215 = AXIS2_PLACEMENT_3D('',#1216,#1217,#1218);
#1216 = CARTESIAN_POINT('',(122.70379367402,-39.06767519813,15.4));
#1217 = DIRECTION('',(0.,0.,1.));
#1218 = DIRECTION('',(1.,0.,0.));
#1219 = ADVANCED_FACE('',(#1220),#1254,.T.);
#1220 = FACE_BOUND('',#1221,.T.);
#1221 = EDGE_LOOP('',(#1222,#1230,#1238,#1246,#1252,#1253));
#1222 = ORIENTED_EDGE('',*,*,#1223,.F.);
#1223 = EDGE_CURVE('',#1224,#1006,#1226,.T.);
#1224 = VERTEX_POINT('',#1225);
#1225 = CARTESIAN_POINT('',(116.3,-11.4,11.8));
#1226 = LINE('',#1227,#1228);
#1227 = CARTESIAN_POINT('',(116.3,-20.,11.8));
#1228 = VECTOR('',#1229,1.);
#1229 = DIRECTION('',(0.,1.,0.));
#1230 = ORIENTED_EDGE('',*,*,#1231,.F.);
#1231 = EDGE_CURVE('',#1232,#1224,#1234,.T.);
#1232 = VERTEX_POINT('',#1233);
#1233 = CARTESIAN_POINT('',(116.3,-11.4,8.5));
#1234 = LINE('',#1235,#1236);
#1235 = CARTESIAN_POINT('',(116.3,-11.4,7.35));
#1236 = VECTOR('',#1237,1.);
#1237 = DIRECTION('',(0.,0.,1.));
#1238 = ORIENTED_EDGE('',*,*,#1239,.T.);
#1239 = EDGE_CURVE('',#1232,#1240,#1242,.T.);
#1240 = VERTEX_POINT('',#1241);
#1241 = CARTESIAN_POINT('',(116.3,-12.2,8.5));
#1242 = LINE('',#1243,#1244);
#1243 = CARTESIAN_POINT('',(116.3,-34.05,8.5));
#1244 = VECTOR('',#1245,1.);
#1245 = DIRECTION('',(0.,-1.,0.));
#1246 = ORIENTED_EDGE('',*,*,#1247,.F.);
#1247 = EDGE_CURVE('',#747,#1240,#1248,.T.);
#1248 = LINE('',#1249,#1250);
#1249 = CARTESIAN_POINT('',(116.3,-12.2,6.2));
#1250 = VECTOR('',#1251,1.);
#1251 = DIRECTION('',(0.,0.,1.));
#1252 = ORIENTED_EDGE('',*,*,#746,.T.);
#1253 = ORIENTED_EDGE('',*,*,#1005,.T.);
#1254 = PLANE('',#1255);
#1255 = AXIS2_PLACEMENT_3D('',#1256,#1257,#1258);
#1256 = CARTESIAN_POINT('',(116.3,-20.,6.2));
#1257 = DIRECTION('',(1.,0.,0.));
#1258 = DIRECTION('',(0.,0.,1.));
#1259 = ADVANCED_FACE('',(#1260),#1301,.T.);
#1260 = FACE_BOUND('',#1261,.T.);
#1261 = EDGE_LOOP('',(#1262,#1268,#1269,#1270,#1278,#1286,#1294,#1300));
#1262 = ORIENTED_EDGE('',*,*,#1263,.F.);
#1263 = EDGE_CURVE('',#755,#1125,#1264,.T.);
#1264 = LINE('',#1265,#1266);
#1265 = CARTESIAN_POINT('',(112.2,-12.2,6.2));
#1266 = VECTOR('',#1267,1.);
#1267 = DIRECTION('',(0.,0.,1.));
#1268 = ORIENTED_EDGE('',*,*,#754,.T.);
#1269 = ORIENTED_EDGE('',*,*,#1247,.T.);
#1270 = ORIENTED_EDGE('',*,*,#1271,.T.);
#1271 = EDGE_CURVE('',#1240,#1272,#1274,.T.);
#1272 = VERTEX_POINT('',#1273);
#1273 = CARTESIAN_POINT('',(113.,-12.2,8.5));
#1274 = LINE('',#1275,#1276);
#1275 = CARTESIAN_POINT('',(122.25147186257,-12.2,8.5));
#1276 = VECTOR('',#1277,1.);
#1277 = DIRECTION('',(-1.,0.,0.));
#1278 = ORIENTED_EDGE('',*,*,#1279,.T.);
#1279 = EDGE_CURVE('',#1272,#1280,#1282,.T.);
#1280 = VERTEX_POINT('',#1281);
#1281 = CARTESIAN_POINT('',(113.,-12.2,12.7));
#1282 = LINE('',#1283,#1284);
#1283 = CARTESIAN_POINT('',(113.,-12.2,7.35));
#1284 = VECTOR('',#1285,1.);
#1285 = DIRECTION('',(0.,0.,1.));
#1286 = ORIENTED_EDGE('',*,*,#1287,.F.);
#1287 = EDGE_CURVE('',#1288,#1280,#1290,.T.);
#1288 = VERTEX_POINT('',#1289);
#1289 = CARTESIAN_POINT('',(131.50294372515,-12.2,12.7));
#1290 = LINE('',#1291,#1292);
#1291 = CARTESIAN_POINT('',(122.25147186257,-12.2,12.7));
#1292 = VECTOR('',#1293,1.);
#1293 = DIRECTION('',(-1.,0.,0.));
#1294 = ORIENTED_EDGE('',*,*,#1295,.T.);
#1295 = EDGE_CURVE('',#1288,#1123,#1296,.T.);
#1296 = LINE('',#1297,#1298);
#1297 = CARTESIAN_POINT('',(131.50294372515,-12.2,6.2));
#1298 = VECTOR('',#1299,1.);
#1299 = DIRECTION('',(0.,0.,1.));
#1300 = ORIENTED_EDGE('',*,*,#1122,.T.);
#1301 = PLANE('',#1302);
#1302 = AXIS2_PLACEMENT_3D('',#1303,#1304,#1305);
#1303 = CARTESIAN_POINT('',(131.50294372515,-12.2,6.2));
#1304 = DIRECTION('',(0.,-1.,0.));
#1305 = DIRECTION('',(-1.,0.,0.));
#1306 = ADVANCED_FACE('',(#1307),#1318,.T.);
#1307 = FACE_BOUND('',#1308,.T.);
#1308 = EDGE_LOOP('',(#1309,#1310,#1311,#1312));
#1309 = ORIENTED_EDGE('',*,*,#762,.T.);
#1310 = ORIENTED_EDGE('',*,*,#1263,.T.);
#1311 = ORIENTED_EDGE('',*,*,#1132,.T.);
#1312 = ORIENTED_EDGE('',*,*,#1313,.F.);
#1313 = EDGE_CURVE('',#763,#1133,#1314,.T.);
#1314 = LINE('',#1315,#1316);
#1315 = CARTESIAN_POINT('',(112.2,-65.00294372515,6.2));
#1316 = VECTOR('',#1317,1.);
#1317 = DIRECTION('',(0.,0.,1.));
#1318 = PLANE('',#1319);
#1319 = AXIS2_PLACEMENT_3D('',#1320,#1321,#1322);
#1320 = CARTESIAN_POINT('',(112.2,-12.2,6.2));
#1321 = DIRECTION('',(1.,0.,0.));
#1322 = DIRECTION('',(0.,-1.,0.));
#1323 = ADVANCED_FACE('',(#1324),#1335,.T.);
#1324 = FACE_BOUND('',#1325,.T.);
#1325 = EDGE_LOOP('',(#1326,#1327,#1328,#1329));
#1326 = ORIENTED_EDGE('',*,*,#770,.T.);
#1327 = ORIENTED_EDGE('',*,*,#1313,.T.);
#1328 = ORIENTED_EDGE('',*,*,#1140,.T.);
#1329 = ORIENTED_EDGE('',*,*,#1330,.F.);
#1330 = EDGE_CURVE('',#771,#1141,#1331,.T.);
#1331 = LINE('',#1332,#1333);
#1332 = CARTESIAN_POINT('',(114.49705627484,-67.3,6.2));
#1333 = VECTOR('',#1334,1.);
#1334 = DIRECTION('',(0.,0.,1.));
#1335 = PLANE('',#1336);
#1336 = AXIS2_PLACEMENT_3D('',#1337,#1338,#1339);
#1337 = CARTESIAN_POINT('',(112.2,-65.00294372515,6.2));
#1338 = DIRECTION('',(0.707106781187,0.707106781187,0.));
#1339 = DIRECTION('',(0.707106781187,-0.707106781187,0.));
#1340 = ADVANCED_FACE('',(#1341),#1352,.T.);
#1341 = FACE_BOUND('',#1342,.T.);
#1342 = EDGE_LOOP('',(#1343,#1344,#1345,#1346));
#1343 = ORIENTED_EDGE('',*,*,#778,.T.);
#1344 = ORIENTED_EDGE('',*,*,#1330,.T.);
#1345 = ORIENTED_EDGE('',*,*,#1148,.T.);
#1346 = ORIENTED_EDGE('',*,*,#1347,.F.);
#1347 = EDGE_CURVE('',#779,#1149,#1348,.T.);
#1348 = LINE('',#1349,#1350);
#1349 = CARTESIAN_POINT('',(128.00294372515,-67.3,6.2));
#1350 = VECTOR('',#1351,1.);
#1351 = DIRECTION('',(0.,0.,1.));
#1352 = PLANE('',#1353);
#1353 = AXIS2_PLACEMENT_3D('',#1354,#1355,#1356);
#1354 = CARTESIAN_POINT('',(114.49705627484,-67.3,6.2));
#1355 = DIRECTION('',(0.,1.,0.));
#1356 = DIRECTION('',(1.,0.,0.));
#1357 = ADVANCED_FACE('',(#1358),#1369,.T.);
#1358 = FACE_BOUND('',#1359,.T.);
#1359 = EDGE_LOOP('',(#1360,#1366,#1367,#1368));
#1360 = ORIENTED_EDGE('',*,*,#1361,.T.);
#1361 = EDGE_CURVE('',#1157,#787,#1362,.T.);
#1362 = LINE('',#1363,#1364);
#1363 = CARTESIAN_POINT('',(129.50874266767,-65.79420105747,6.3));
#1364 = VECTOR('',#1365,1.);
#1365 = DIRECTION('',(-0.,-0.,-1.));
#1366 = ORIENTED_EDGE('',*,*,#786,.T.);
#1367 = ORIENTED_EDGE('',*,*,#1347,.T.);
#1368 = ORIENTED_EDGE('',*,*,#1156,.T.);
#1369 = PLANE('',#1370);
#1370 = AXIS2_PLACEMENT_3D('',#1371,#1372,#1373);
#1371 = CARTESIAN_POINT('',(128.00294372515,-67.3,6.2));
#1372 = DIRECTION('',(-0.707106781187,0.707106781187,0.));
#1373 = DIRECTION('',(0.707106781187,0.707106781187,0.));
#1374 = ADVANCED_FACE('',(#1375),#1386,.T.);
#1375 = FACE_BOUND('',#1376,.F.);
#1376 = EDGE_LOOP('',(#1377,#1378,#1384,#1385));
#1377 = ORIENTED_EDGE('',*,*,#794,.F.);
#1378 = ORIENTED_EDGE('',*,*,#1379,.F.);
#1379 = EDGE_CURVE('',#1165,#795,#1380,.T.);
#1380 = LINE('',#1381,#1382);
#1381 = CARTESIAN_POINT('',(132.39420105747,-62.90874266767,6.3));
#1382 = VECTOR('',#1383,1.);
#1383 = DIRECTION('',(-0.,-0.,-1.));
#1384 = ORIENTED_EDGE('',*,*,#1164,.F.);
#1385 = ORIENTED_EDGE('',*,*,#1361,.T.);
#1386 = CYLINDRICAL_SURFACE('',#1387,2.1);
#1387 = AXIS2_PLACEMENT_3D('',#1388,#1389,#1390);
#1388 = CARTESIAN_POINT('',(130.6,-64.,6.3));
#1389 = DIRECTION('',(-0.,-0.,-1.));
#1390 = DIRECTION('',(1.,0.,0.));
#1391 = ADVANCED_FACE('',(#1392),#1410,.T.);
#1392 = FACE_BOUND('',#1393,.T.);
#1393 = EDGE_LOOP('',(#1394,#1402,#1403,#1404));
#1394 = ORIENTED_EDGE('',*,*,#1395,.T.);
#1395 = EDGE_CURVE('',#1396,#979,#1398,.T.);
#1396 = VERTEX_POINT('',#1397);
#1397 = CARTESIAN_POINT('',(133.40294372515,-61.9,9.2));
#1398 = LINE('',#1399,#1400);
#1399 = CARTESIAN_POINT('',(128.3,-61.9,9.2));
#1400 = VECTOR('',#1401,1.);
#1401 = DIRECTION('',(1.,0.,0.));
#1402 = ORIENTED_EDGE('',*,*,#986,.T.);
#1403 = ORIENTED_EDGE('',*,*,#811,.T.);
#1404 = ORIENTED_EDGE('',*,*,#1405,.F.);
#1405 = EDGE_CURVE('',#1396,#804,#1406,.T.);
#1406 = LINE('',#1407,#1408);
#1407 = CARTESIAN_POINT('',(133.40294372515,-61.9,5.65));
#1408 = VECTOR('',#1409,1.);
#1409 = DIRECTION('',(0.,0.,-1.));
#1410 = PLANE('',#1411);
#1411 = AXIS2_PLACEMENT_3D('',#1412,#1413,#1414);
#1412 = CARTESIAN_POINT('',(128.3,-61.9,5.1));
#1413 = DIRECTION('',(0.,1.,0.));
#1414 = DIRECTION('',(0.,0.,1.));
#1415 = ADVANCED_FACE('',(#1416),#1436,.T.);
#1416 = FACE_BOUND('',#1417,.T.);
#1417 = EDGE_LOOP('',(#1418,#1426,#1427,#1428,#1429,#1430));
#1418 = ORIENTED_EDGE('',*,*,#1419,.F.);
#1419 = EDGE_CURVE('',#1396,#1420,#1422,.T.);
#1420 = VERTEX_POINT('',#1421);
#1421 = CARTESIAN_POINT('',(133.8,-61.50294372515,9.2));
#1422 = LINE('',#1423,#1424);
#1423 = CARTESIAN_POINT('',(129.42720779386,-65.87573593128,9.2));
#1424 = VECTOR('',#1425,1.);
#1425 = DIRECTION('',(0.707106781187,0.707106781187,0.));
#1426 = ORIENTED_EDGE('',*,*,#1405,.T.);
#1427 = ORIENTED_EDGE('',*,*,#803,.T.);
#1428 = ORIENTED_EDGE('',*,*,#1379,.F.);
#1429 = ORIENTED_EDGE('',*,*,#1173,.T.);
#1430 = ORIENTED_EDGE('',*,*,#1431,.F.);
#1431 = EDGE_CURVE('',#1420,#1174,#1432,.T.);
#1432 = LINE('',#1433,#1434);
#1433 = CARTESIAN_POINT('',(133.8,-61.50294372515,6.2));
#1434 = VECTOR('',#1435,1.);
#1435 = DIRECTION('',(0.,0.,1.));
#1436 = PLANE('',#1437);
#1437 = AXIS2_PLACEMENT_3D('',#1438,#1439,#1440);
#1438 = CARTESIAN_POINT('',(128.00294372515,-67.3,6.2));
#1439 = DIRECTION('',(-0.707106781187,0.707106781187,0.));
#1440 = DIRECTION('',(0.707106781187,0.707106781187,0.));
#1441 = ADVANCED_FACE('',(#1442),#1461,.F.);
#1442 = FACE_BOUND('',#1443,.F.);
#1443 = EDGE_LOOP('',(#1444,#1452,#1458,#1459,#1460));
#1444 = ORIENTED_EDGE('',*,*,#1445,.F.);
#1445 = EDGE_CURVE('',#1446,#971,#1448,.T.);
#1446 = VERTEX_POINT('',#1447);
#1447 = CARTESIAN_POINT('',(133.8,-53.4,9.2));
#1448 = LINE('',#1449,#1450);
#1449 = CARTESIAN_POINT('',(128.3,-53.4,9.2));
#1450 = VECTOR('',#1451,1.);
#1451 = DIRECTION('',(1.,0.,0.));
#1452 = ORIENTED_EDGE('',*,*,#1453,.F.);
#1453 = EDGE_CURVE('',#1420,#1446,#1454,.T.);
#1454 = LINE('',#1455,#1456);
#1455 = CARTESIAN_POINT('',(133.8,-61.70147186257,9.2));
#1456 = VECTOR('',#1457,1.);
#1457 = DIRECTION('',(0.,1.,0.));
#1458 = ORIENTED_EDGE('',*,*,#1419,.F.);
#1459 = ORIENTED_EDGE('',*,*,#1395,.T.);
#1460 = ORIENTED_EDGE('',*,*,#978,.T.);
#1461 = PLANE('',#1462);
#1462 = AXIS2_PLACEMENT_3D('',#1463,#1464,#1465);
#1463 = CARTESIAN_POINT('',(128.3,-61.9,9.2));
#1464 = DIRECTION('',(0.,0.,1.));
#1465 = DIRECTION('',(1.,0.,0.));
#1466 = ADVANCED_FACE('',(#1467),#1485,.F.);
#1467 = FACE_BOUND('',#1468,.F.);
#1468 = EDGE_LOOP('',(#1469,#1470,#1471,#1479));
#1469 = ORIENTED_EDGE('',*,*,#1445,.T.);
#1470 = ORIENTED_EDGE('',*,*,#970,.T.);
#1471 = ORIENTED_EDGE('',*,*,#1472,.T.);
#1472 = EDGE_CURVE('',#963,#1473,#1475,.T.);
#1473 = VERTEX_POINT('',#1474);
#1474 = CARTESIAN_POINT('',(133.8,-53.4,6.3));
#1475 = LINE('',#1476,#1477);
#1476 = CARTESIAN_POINT('',(119.65,-53.4,6.3));
#1477 = VECTOR('',#1478,1.);
#1478 = DIRECTION('',(-1.,0.,0.));
#1479 = ORIENTED_EDGE('',*,*,#1480,.F.);
#1480 = EDGE_CURVE('',#1446,#1473,#1481,.T.);
#1481 = LINE('',#1482,#1483);
#1482 = CARTESIAN_POINT('',(133.8,-53.4,5.65));
#1483 = VECTOR('',#1484,1.);
#1484 = DIRECTION('',(0.,0.,-1.));
#1485 = PLANE('',#1486);
#1486 = AXIS2_PLACEMENT_3D('',#1487,#1488,#1489);
#1487 = CARTESIAN_POINT('',(128.3,-53.4,5.1));
#1488 = DIRECTION('',(0.,1.,0.));
#1489 = DIRECTION('',(0.,0.,1.));
#1490 = ADVANCED_FACE('',(#1491),#1527,.F.);
#1491 = FACE_BOUND('',#1492,.F.);
#1492 = EDGE_LOOP('',(#1493,#1494,#1495,#1496,#1497,#1505,#1513,#1521));
#1493 = ORIENTED_EDGE('',*,*,#1472,.F.);
#1494 = ORIENTED_EDGE('',*,*,#962,.F.);
#1495 = ORIENTED_EDGE('',*,*,#1051,.F.);
#1496 = ORIENTED_EDGE('',*,*,#1029,.F.);
#1497 = ORIENTED_EDGE('',*,*,#1498,.F.);
#1498 = EDGE_CURVE('',#1499,#1022,#1501,.T.);
#1499 = VERTEX_POINT('',#1500);
#1500 = CARTESIAN_POINT('',(129.3,-12.2,6.3));
#1501 = LINE('',#1502,#1503);
#1502 = CARTESIAN_POINT('',(129.3,-15.5,6.3));
#1503 = VECTOR('',#1504,1.);
#1504 = DIRECTION('',(0.,1.,0.));
#1505 = ORIENTED_EDGE('',*,*,#1506,.T.);
#1506 = EDGE_CURVE('',#1499,#1507,#1509,.T.);
#1507 = VERTEX_POINT('',#1508);
#1508 = CARTESIAN_POINT('',(131.50294372515,-12.2,6.3));
#1509 = LINE('',#1510,#1511);
#1510 = CARTESIAN_POINT('',(121.25147186257,-12.2,6.3));
#1511 = VECTOR('',#1512,1.);
#1512 = DIRECTION('',(1.,0.,0.));
#1513 = ORIENTED_EDGE('',*,*,#1514,.T.);
#1514 = EDGE_CURVE('',#1507,#1515,#1517,.T.);
#1515 = VERTEX_POINT('',#1516);
#1516 = CARTESIAN_POINT('',(133.8,-14.49705627484,6.3));
#1517 = LINE('',#1518,#1519);
#1518 = CARTESIAN_POINT('',(127.22573593128,-7.922792206136,6.3));
#1519 = VECTOR('',#1520,1.);
#1520 = DIRECTION('',(0.707106781187,-0.707106781187,0.));
#1521 = ORIENTED_EDGE('',*,*,#1522,.T.);
#1522 = EDGE_CURVE('',#1515,#1473,#1523,.T.);
#1523 = LINE('',#1524,#1525);
#1524 = CARTESIAN_POINT('',(133.8,-36.25147186257,6.3));
#1525 = VECTOR('',#1526,1.);
#1526 = DIRECTION('',(0.,-1.,0.));
#1527 = PLANE('',#1528);
#1528 = AXIS2_PLACEMENT_3D('',#1529,#1530,#1531);
#1529 = CARTESIAN_POINT('',(111.,-11.,6.3));
#1530 = DIRECTION('',(0.,0.,1.));
#1531 = DIRECTION('',(0.291161615783,-0.956673880429,0.));
#1532 = ADVANCED_FACE('',(#1533),#1567,.F.);
#1533 = FACE_BOUND('',#1534,.F.);
#1534 = EDGE_LOOP('',(#1535,#1543,#1551,#1559,#1565,#1566));
#1535 = ORIENTED_EDGE('',*,*,#1536,.F.);
#1536 = EDGE_CURVE('',#1537,#1014,#1539,.T.);
#1537 = VERTEX_POINT('',#1538);
#1538 = CARTESIAN_POINT('',(129.3,-11.4,11.8));
#1539 = LINE('',#1540,#1541);
#1540 = CARTESIAN_POINT('',(129.3,-20.,11.8));
#1541 = VECTOR('',#1542,1.);
#1542 = DIRECTION('',(0.,1.,0.));
#1543 = ORIENTED_EDGE('',*,*,#1544,.F.);
#1544 = EDGE_CURVE('',#1545,#1537,#1547,.T.);
#1545 = VERTEX_POINT('',#1546);
#1546 = CARTESIAN_POINT('',(129.3,-11.4,8.5));
#1547 = LINE('',#1548,#1549);
#1548 = CARTESIAN_POINT('',(129.3,-11.4,7.35));
#1549 = VECTOR('',#1550,1.);
#1550 = DIRECTION('',(0.,0.,1.));
#1551 = ORIENTED_EDGE('',*,*,#1552,.T.);
#1552 = EDGE_CURVE('',#1545,#1553,#1555,.T.);
#1553 = VERTEX_POINT('',#1554);
#1554 = CARTESIAN_POINT('',(129.3,-12.2,8.5));
#1555 = LINE('',#1556,#1557);
#1556 = CARTESIAN_POINT('',(129.3,-34.05,8.5));
#1557 = VECTOR('',#1558,1.);
#1558 = DIRECTION('',(0.,-1.,0.));
#1559 = ORIENTED_EDGE('',*,*,#1560,.F.);
#1560 = EDGE_CURVE('',#1499,#1553,#1561,.T.);
#1561 = LINE('',#1562,#1563);
#1562 = CARTESIAN_POINT('',(129.3,-12.2,6.2));
#1563 = VECTOR('',#1564,1.);
#1564 = DIRECTION('',(0.,0.,1.));
#1565 = ORIENTED_EDGE('',*,*,#1498,.T.);
#1566 = ORIENTED_EDGE('',*,*,#1021,.T.);
#1567 = PLANE('',#1568);
#1568 = AXIS2_PLACEMENT_3D('',#1569,#1570,#1571);
#1569 = CARTESIAN_POINT('',(129.3,-20.,6.2));
#1570 = DIRECTION('',(1.,0.,0.));
#1571 = DIRECTION('',(0.,0.,1.));
#1572 = ADVANCED_FACE('',(#1573),#1584,.F.);
#1573 = FACE_BOUND('',#1574,.F.);
#1574 = EDGE_LOOP('',(#1575,#1576,#1582,#1583));
#1575 = ORIENTED_EDGE('',*,*,#1223,.F.);
#1576 = ORIENTED_EDGE('',*,*,#1577,.F.);
#1577 = EDGE_CURVE('',#1537,#1224,#1578,.T.);
#1578 = LINE('',#1579,#1580);
#1579 = CARTESIAN_POINT('',(114.65,-11.4,11.8));
#1580 = VECTOR('',#1581,1.);
#1581 = DIRECTION('',(-1.,0.,0.));
#1582 = ORIENTED_EDGE('',*,*,#1536,.T.);
#1583 = ORIENTED_EDGE('',*,*,#1013,.T.);
#1584 = PLANE('',#1585);
#1585 = AXIS2_PLACEMENT_3D('',#1586,#1587,#1588);
#1586 = CARTESIAN_POINT('',(116.3,-20.,11.8));
#1587 = DIRECTION('',(0.,0.,1.));
#1588 = DIRECTION('',(1.,0.,0.));
#1589 = ADVANCED_FACE('',(#1590),#1615,.F.);
#1590 = FACE_BOUND('',#1591,.F.);
#1591 = EDGE_LOOP('',(#1592,#1600,#1608,#1614));
#1592 = ORIENTED_EDGE('',*,*,#1593,.F.);
#1593 = EDGE_CURVE('',#1594,#1065,#1596,.T.);
#1594 = VERTEX_POINT('',#1595);
#1595 = CARTESIAN_POINT('',(132.6,-13.29705627484,12.7));
#1596 = LINE('',#1597,#1598);
#1597 = CARTESIAN_POINT('',(132.6,-48.1,12.7));
#1598 = VECTOR('',#1599,1.);
#1599 = DIRECTION('',(0.,1.,0.));
#1600 = ORIENTED_EDGE('',*,*,#1601,.F.);
#1601 = EDGE_CURVE('',#1602,#1594,#1604,.T.);
#1602 = VERTEX_POINT('',#1603);
#1603 = CARTESIAN_POINT('',(132.6,-13.29705627484,8.5));
#1604 = LINE('',#1605,#1606);
#1605 = CARTESIAN_POINT('',(132.6,-13.29705627484,7.35));
#1606 = VECTOR('',#1607,1.);
#1607 = DIRECTION('',(0.,0.,1.));
#1608 = ORIENTED_EDGE('',*,*,#1609,.T.);
#1609 = EDGE_CURVE('',#1602,#1063,#1610,.T.);
#1610 = LINE('',#1611,#1612);
#1611 = CARTESIAN_POINT('',(132.6,-48.1,8.5));
#1612 = VECTOR('',#1613,1.);
#1613 = DIRECTION('',(0.,1.,0.));
#1614 = ORIENTED_EDGE('',*,*,#1062,.T.);
#1615 = PLANE('',#1616);
#1616 = AXIS2_PLACEMENT_3D('',#1617,#1618,#1619);
#1617 = CARTESIAN_POINT('',(132.6,-48.1,8.5));
#1618 = DIRECTION('',(1.,0.,0.));
#1619 = DIRECTION('',(0.,0.,1.));
#1620 = ADVANCED_FACE('',(#1621),#1646,.F.);
#1621 = FACE_BOUND('',#1622,.F.);
#1622 = EDGE_LOOP('',(#1623,#1631,#1632,#1638,#1639,#1640));
#1623 = ORIENTED_EDGE('',*,*,#1624,.F.);
#1624 = EDGE_CURVE('',#1280,#1625,#1627,.T.);
#1625 = VERTEX_POINT('',#1626);
#1626 = CARTESIAN_POINT('',(113.,-11.4,12.7));
#1627 = LINE('',#1628,#1629);
#1628 = CARTESIAN_POINT('',(113.,-48.1,12.7));
#1629 = VECTOR('',#1630,1.);
#1630 = DIRECTION('',(0.,1.,0.));
#1631 = ORIENTED_EDGE('',*,*,#1287,.F.);
#1632 = ORIENTED_EDGE('',*,*,#1633,.F.);
#1633 = EDGE_CURVE('',#1594,#1288,#1634,.T.);
#1634 = LINE('',#1635,#1636);
#1635 = CARTESIAN_POINT('',(137.00073593128,-17.69779220613,12.7));
#1636 = VECTOR('',#1637,1.);
#1637 = DIRECTION('',(-0.707106781187,0.707106781187,0.));
#1638 = ORIENTED_EDGE('',*,*,#1593,.T.);
#1639 = ORIENTED_EDGE('',*,*,#1088,.T.);
#1640 = ORIENTED_EDGE('',*,*,#1641,.F.);
#1641 = EDGE_CURVE('',#1625,#1081,#1642,.T.);
#1642 = LINE('',#1643,#1644);
#1643 = CARTESIAN_POINT('',(113.,-11.4,12.7));
#1644 = VECTOR('',#1645,1.);
#1645 = DIRECTION('',(1.,0.,0.));
#1646 = PLANE('',#1647);
#1647 = AXIS2_PLACEMENT_3D('',#1648,#1649,#1650);
#1648 = CARTESIAN_POINT('',(113.,-48.1,12.7));
#1649 = DIRECTION('',(0.,0.,1.));
#1650 = DIRECTION('',(1.,0.,0.));
#1651 = ADVANCED_FACE('',(#1652),#1679,.F.);
#1652 = FACE_BOUND('',#1653,.F.);
#1653 = EDGE_LOOP('',(#1654,#1662,#1668,#1669,#1670,#1676,#1677,#1678));
#1654 = ORIENTED_EDGE('',*,*,#1655,.F.);
#1655 = EDGE_CURVE('',#1656,#1232,#1658,.T.);
#1656 = VERTEX_POINT('',#1657);
#1657 = CARTESIAN_POINT('',(113.,-11.4,8.5));
#1658 = LINE('',#1659,#1660);
#1659 = CARTESIAN_POINT('',(113.,-11.4,8.5));
#1660 = VECTOR('',#1661,1.);
#1661 = DIRECTION('',(1.,0.,0.));
#1662 = ORIENTED_EDGE('',*,*,#1663,.T.);
#1663 = EDGE_CURVE('',#1656,#1625,#1664,.T.);
#1664 = LINE('',#1665,#1666);
#1665 = CARTESIAN_POINT('',(113.,-11.4,8.5));
#1666 = VECTOR('',#1667,1.);
#1667 = DIRECTION('',(0.,0.,1.));
#1668 = ORIENTED_EDGE('',*,*,#1641,.T.);
#1669 = ORIENTED_EDGE('',*,*,#1080,.T.);
#1670 = ORIENTED_EDGE('',*,*,#1671,.F.);
#1671 = EDGE_CURVE('',#1545,#1073,#1672,.T.);
#1672 = LINE('',#1673,#1674);
#1673 = CARTESIAN_POINT('',(113.,-11.4,8.5));
#1674 = VECTOR('',#1675,1.);
#1675 = DIRECTION('',(1.,0.,0.));
#1676 = ORIENTED_EDGE('',*,*,#1544,.T.);
#1677 = ORIENTED_EDGE('',*,*,#1577,.T.);
#1678 = ORIENTED_EDGE('',*,*,#1231,.F.);
#1679 = PLANE('',#1680);
#1680 = AXIS2_PLACEMENT_3D('',#1681,#1682,#1683);
#1681 = CARTESIAN_POINT('',(113.,-11.4,8.5));
#1682 = DIRECTION('',(0.,1.,0.));
#1683 = DIRECTION('',(0.,0.,1.));
#1684 = ADVANCED_FACE('',(#1685),#1705,.T.);
#1685 = FACE_BOUND('',#1686,.T.);
#1686 = EDGE_LOOP('',(#1687,#1695,#1696,#1697,#1698,#1699));
#1687 = ORIENTED_EDGE('',*,*,#1688,.F.);
#1688 = EDGE_CURVE('',#1602,#1689,#1691,.T.);
#1689 = VERTEX_POINT('',#1690);
#1690 = CARTESIAN_POINT('',(131.50294372515,-12.2,8.5));
#1691 = LINE('',#1692,#1693);
#1692 = CARTESIAN_POINT('',(137.00073593128,-17.69779220613,8.5));
#1693 = VECTOR('',#1694,1.);
#1694 = DIRECTION('',(-0.707106781187,0.707106781187,0.));
#1695 = ORIENTED_EDGE('',*,*,#1609,.T.);
#1696 = ORIENTED_EDGE('',*,*,#1072,.T.);
#1697 = ORIENTED_EDGE('',*,*,#1671,.F.);
#1698 = ORIENTED_EDGE('',*,*,#1552,.T.);
#1699 = ORIENTED_EDGE('',*,*,#1700,.F.);
#1700 = EDGE_CURVE('',#1689,#1553,#1701,.T.);
#1701 = LINE('',#1702,#1703);
#1702 = CARTESIAN_POINT('',(122.25147186257,-12.2,8.5));
#1703 = VECTOR('',#1704,1.);
#1704 = DIRECTION('',(-1.,0.,0.));
#1705 = PLANE('',#1706);
#1706 = AXIS2_PLACEMENT_3D('',#1707,#1708,#1709);
#1707 = CARTESIAN_POINT('',(113.,-48.1,8.5));
#1708 = DIRECTION('',(0.,0.,1.));
#1709 = DIRECTION('',(1.,0.,0.));
#1710 = ADVANCED_FACE('',(#1711),#1730,.F.);
#1711 = FACE_BOUND('',#1712,.T.);
#1712 = EDGE_LOOP('',(#1713,#1721,#1728,#1729));
#1713 = ORIENTED_EDGE('',*,*,#1714,.F.);
#1714 = EDGE_CURVE('',#1715,#1106,#1717,.T.);
#1715 = VERTEX_POINT('',#1716);
#1716 = CARTESIAN_POINT('',(115.65,-64.,6.3));
#1717 = LINE('',#1718,#1719);
#1718 = CARTESIAN_POINT('',(115.65,-64.,6.2));
#1719 = VECTOR('',#1720,1.);
#1720 = DIRECTION('',(0.,0.,1.));
#1721 = ORIENTED_EDGE('',*,*,#1722,.T.);
#1722 = EDGE_CURVE('',#1715,#1715,#1723,.T.);
#1723 = CIRCLE('',#1724,1.15);
#1724 = AXIS2_PLACEMENT_3D('',#1725,#1726,#1727);
#1725 = CARTESIAN_POINT('',(114.5,-64.,6.3));
#1726 = DIRECTION('',(0.,0.,-1.));
#1727 = DIRECTION('',(1.,0.,0.));
#1728 = ORIENTED_EDGE('',*,*,#1714,.T.);
#1729 = ORIENTED_EDGE('',*,*,#1105,.F.);
#1730 = CYLINDRICAL_SURFACE('',#1731,1.15);
#1731 = AXIS2_PLACEMENT_3D('',#1732,#1733,#1734);
#1732 = CARTESIAN_POINT('',(114.5,-64.,6.2));
#1733 = DIRECTION('',(-0.,-0.,-1.));
#1734 = DIRECTION('',(1.,0.,0.));
#1735 = ADVANCED_FACE('',(#1736),#1756,.T.);
#1736 = FACE_BOUND('',#1737,.T.);
#1737 = EDGE_LOOP('',(#1738,#1744,#1745,#1751,#1752,#1753,#1754,#1755));
#1738 = ORIENTED_EDGE('',*,*,#1739,.F.);
#1739 = EDGE_CURVE('',#1507,#1689,#1740,.T.);
#1740 = LINE('',#1741,#1742);
#1741 = CARTESIAN_POINT('',(131.50294372515,-12.2,6.2));
#1742 = VECTOR('',#1743,1.);
#1743 = DIRECTION('',(0.,0.,1.));
#1744 = ORIENTED_EDGE('',*,*,#1514,.T.);
#1745 = ORIENTED_EDGE('',*,*,#1746,.T.);
#1746 = EDGE_CURVE('',#1515,#1182,#1747,.T.);
#1747 = LINE('',#1748,#1749);
#1748 = CARTESIAN_POINT('',(133.8,-14.49705627484,6.2));
#1749 = VECTOR('',#1750,1.);
#1750 = DIRECTION('',(0.,0.,1.));
#1751 = ORIENTED_EDGE('',*,*,#1189,.T.);
#1752 = ORIENTED_EDGE('',*,*,#1295,.F.);
#1753 = ORIENTED_EDGE('',*,*,#1633,.F.);
#1754 = ORIENTED_EDGE('',*,*,#1601,.F.);
#1755 = ORIENTED_EDGE('',*,*,#1688,.T.);
#1756 = PLANE('',#1757);
#1757 = AXIS2_PLACEMENT_3D('',#1758,#1759,#1760);
#1758 = CARTESIAN_POINT('',(133.8,-14.49705627484,6.2));
#1759 = DIRECTION('',(-0.707106781187,-0.707106781187,0.));
#1760 = DIRECTION('',(-0.707106781187,0.707106781187,0.));
#1761 = ADVANCED_FACE('',(#1762),#1770,.T.);
#1762 = FACE_BOUND('',#1763,.T.);
#1763 = EDGE_LOOP('',(#1764,#1765,#1766,#1767,#1768,#1769));
#1764 = ORIENTED_EDGE('',*,*,#1746,.F.);
#1765 = ORIENTED_EDGE('',*,*,#1522,.T.);
#1766 = ORIENTED_EDGE('',*,*,#1480,.F.);
#1767 = ORIENTED_EDGE('',*,*,#1453,.F.);
#1768 = ORIENTED_EDGE('',*,*,#1431,.T.);
#1769 = ORIENTED_EDGE('',*,*,#1181,.T.);
#1770 = PLANE('',#1771);
#1771 = AXIS2_PLACEMENT_3D('',#1772,#1773,#1774);
#1772 = CARTESIAN_POINT('',(133.8,-61.50294372515,6.2));
#1773 = DIRECTION('',(-1.,0.,0.));
#1774 = DIRECTION('',(0.,1.,0.));
#1775 = ADVANCED_FACE('',(#1776),#1795,.T.);
#1776 = FACE_BOUND('',#1777,.F.);
#1777 = EDGE_LOOP('',(#1778,#1787,#1793,#1794));
#1778 = ORIENTED_EDGE('',*,*,#1779,.F.);
#1779 = EDGE_CURVE('',#1780,#1780,#1782,.T.);
#1780 = VERTEX_POINT('',#1781);
#1781 = CARTESIAN_POINT('',(116.6,-64.,6.3));
#1782 = CIRCLE('',#1783,2.1);
#1783 = AXIS2_PLACEMENT_3D('',#1784,#1785,#1786);
#1784 = CARTESIAN_POINT('',(114.5,-64.,6.3));
#1785 = DIRECTION('',(0.,0.,1.));
#1786 = DIRECTION('',(1.,0.,0.));
#1787 = ORIENTED_EDGE('',*,*,#1788,.T.);
#1788 = EDGE_CURVE('',#1780,#1198,#1789,.T.);
#1789 = LINE('',#1790,#1791);
#1790 = CARTESIAN_POINT('',(116.6,-64.,6.3));
#1791 = VECTOR('',#1792,1.);
#1792 = DIRECTION('',(0.,0.,1.));
#1793 = ORIENTED_EDGE('',*,*,#1197,.F.);
#1794 = ORIENTED_EDGE('',*,*,#1788,.F.);
#1795 = CYLINDRICAL_SURFACE('',#1796,2.1);
#1796 = AXIS2_PLACEMENT_3D('',#1797,#1798,#1799);
#1797 = CARTESIAN_POINT('',(114.5,-64.,6.3));
#1798 = DIRECTION('',(-0.,-0.,-1.));
#1799 = DIRECTION('',(1.,0.,0.));
#1800 = ADVANCED_FACE('',(#1801),#1812,.T.);
#1801 = FACE_BOUND('',#1802,.T.);
#1802 = EDGE_LOOP('',(#1803,#1809,#1810,#1811));
#1803 = ORIENTED_EDGE('',*,*,#1804,.F.);
#1804 = EDGE_CURVE('',#1272,#1656,#1805,.T.);
#1805 = LINE('',#1806,#1807);
#1806 = CARTESIAN_POINT('',(113.,-48.1,8.5));
#1807 = VECTOR('',#1808,1.);
#1808 = DIRECTION('',(0.,1.,0.));
#1809 = ORIENTED_EDGE('',*,*,#1271,.F.);
#1810 = ORIENTED_EDGE('',*,*,#1239,.F.);
#1811 = ORIENTED_EDGE('',*,*,#1655,.F.);
#1812 = PLANE('',#1813);
#1813 = AXIS2_PLACEMENT_3D('',#1814,#1815,#1816);
#1814 = CARTESIAN_POINT('',(113.,-48.1,8.5));
#1815 = DIRECTION('',(0.,0.,1.));
#1816 = DIRECTION('',(1.,0.,0.));
#1817 = ADVANCED_FACE('',(#1818),#1824,.T.);
#1818 = FACE_BOUND('',#1819,.T.);
#1819 = EDGE_LOOP('',(#1820,#1821,#1822,#1823));
#1820 = ORIENTED_EDGE('',*,*,#1624,.F.);
#1821 = ORIENTED_EDGE('',*,*,#1279,.F.);
#1822 = ORIENTED_EDGE('',*,*,#1804,.T.);
#1823 = ORIENTED_EDGE('',*,*,#1663,.T.);
#1824 = PLANE('',#1825);
#1825 = AXIS2_PLACEMENT_3D('',#1826,#1827,#1828);
#1826 = CARTESIAN_POINT('',(113.,-48.1,8.5));
#1827 = DIRECTION('',(1.,0.,0.));
#1828 = DIRECTION('',(0.,0.,1.));
#1829 = ADVANCED_FACE('',(#1830),#1836,.T.);
#1830 = FACE_BOUND('',#1831,.T.);
#1831 = EDGE_LOOP('',(#1832,#1833,#1834,#1835));
#1832 = ORIENTED_EDGE('',*,*,#1739,.T.);
#1833 = ORIENTED_EDGE('',*,*,#1700,.T.);
#1834 = ORIENTED_EDGE('',*,*,#1560,.F.);
#1835 = ORIENTED_EDGE('',*,*,#1506,.T.);
#1836 = PLANE('',#1837);
#1837 = AXIS2_PLACEMENT_3D('',#1838,#1839,#1840);
#1838 = CARTESIAN_POINT('',(131.50294372515,-12.2,6.2));
#1839 = DIRECTION('',(0.,-1.,0.));
#1840 = DIRECTION('',(-1.,0.,0.));
#1841 = ADVANCED_FACE('',(#1842,#1845),#1848,.F.);
#1842 = FACE_BOUND('',#1843,.F.);
#1843 = EDGE_LOOP('',(#1844));
#1844 = ORIENTED_EDGE('',*,*,#1779,.T.);
#1845 = FACE_BOUND('',#1846,.F.);
#1846 = EDGE_LOOP('',(#1847));
#1847 = ORIENTED_EDGE('',*,*,#1722,.T.);
#1848 = PLANE('',#1849);
#1849 = AXIS2_PLACEMENT_3D('',#1850,#1851,#1852);
#1850 = CARTESIAN_POINT('',(114.5,-64.,6.3));
#1851 = DIRECTION('',(0.,0.,1.));
#1852 = DIRECTION('',(1.,0.,0.));
#1853 = ( GEOMETRIC_REPRESENTATION_CONTEXT(3) 
GLOBAL_UNCERTAINTY_ASSIGNED_CONTEXT((#1857)) 
GLOBAL_UNIT_ASSIGNED_CONTEXT((#1854,#1855,#1856)) REPRESENTATION_CONTEXT
('Context #1','3D Context with UNIT and UNCERTAINTY') );
#1854 = ( LENGTH_UNIT() NAMED_UNIT(*) SI_UNIT(.MILLI.,.METRE.) );
#1855 = ( NAMED_UNIT(*) PLANE_ANGLE_UNIT() SI_UNIT($,.RADIAN.) );
#1856 = ( NAMED_UNIT(*) SI_UNIT($,.STERADIAN.) SOLID_ANGLE_UNIT() );
#1857 = UNCERTAINTY_MEASURE_WITH_UNIT(LENGTH_MEASURE(2.E-05),#1854,
  'distance_accuracy_value','confusion accuracy');
#1858 = PRODUCT_RELATED_PRODUCT_CATEGORY('part',$,(#7));
ENDSEC;
END-ISO-10303-21;
