ISO-10303-21;
HEADER;
FILE_DESCRIPTION(('FreeCAD Model'),'2;1');
FILE_NAME('Open CASCADE Shape Model','2026-09-21T18:58:13',('FreeCAD'),(
    'FreeCAD'),'Open CASCADE STEP processor 7.8','FreeCAD','Unknown');
FILE_SCHEMA(('AUTOMOTIVE_DESIGN { 1 0 10303 214 1 1 1 1 }'));
ENDSEC;
DATA;
#1 = APPLICATION_PROTOCOL_DEFINITION('international standard',
  'automotive_design',2000,#2);
#2 = APPLICATION_CONTEXT(
  'core data for automotive mechanical design processes');
#3 = SHAPE_DEFINITION_REPRESENTATION(#4,#10);
#4 = PRODUCT_DEFINITION_SHAPE('','',#5);
#5 = PRODUCT_DEFINITION('design','',#6,#9);
#6 = PRODUCT_DEFINITION_FORMATION('','',#7);
#7 = PRODUCT('Open CASCADE STEP translator 7.8 12',
  'Open CASCADE STEP translator 7.8 12','',(#8));
#8 = PRODUCT_CONTEXT('',#2,'mechanical');
#9 = PRODUCT_DEFINITION_CONTEXT('part definition',#2,'design');
#10 = ADVANCED_BREP_SHAPE_REPRESENTATION('',(#11,#15),#1774);
#11 = AXIS2_PLACEMENT_3D('',#12,#13,#14);
#12 = CARTESIAN_POINT('',(0.,0.,0.));
#13 = DIRECTION('',(0.,0.,1.));
#14 = DIRECTION('',(1.,0.,-0.));
#15 = MANIFOLD_SOLID_BREP('',#16);
#16 = CLOSED_SHELL('',(#17,#50,#70,#219,#244,#328,#351,#374,#398,#421,
    #444,#467,#490,#507,#532,#557,#588,#612,#636,#653,#792,#808,#824,
    #840,#856,#904,#920,#977,#1019,#1039,#1140,#1180,#1227,#1244,#1261,
    #1278,#1295,#1312,#1336,#1362,#1387,#1411,#1453,#1484,#1515,#1562,
    #1595,#1619,#1631,#1656,#1682,#1696,#1721,#1738,#1750,#1762));
#17 = ADVANCED_FACE('',(#18),#45,.F.);
#18 = FACE_BOUND('',#19,.T.);
#19 = EDGE_LOOP('',(#20,#29,#37,#44));
#20 = ORIENTED_EDGE('',*,*,#21,.F.);
#21 = EDGE_CURVE('',#22,#22,#24,.T.);
#22 = VERTEX_POINT('',#23);
#23 = CARTESIAN_POINT('',(132.45,-64.,14.9));
#24 = CIRCLE('',#25,1.85);
#25 = AXIS2_PLACEMENT_3D('',#26,#27,#28);
#26 = CARTESIAN_POINT('',(130.6,-64.,14.9));
#27 = DIRECTION('',(0.,0.,1.));
#28 = DIRECTION('',(1.,0.,0.));
#29 = ORIENTED_EDGE('',*,*,#30,.T.);
#30 = EDGE_CURVE('',#22,#31,#33,.T.);
#31 = VERTEX_POINT('',#32);
#32 = CARTESIAN_POINT('',(132.45,-64.,16.6));
#33 = LINE('',#34,#35);
#34 = CARTESIAN_POINT('',(132.45,-64.,14.9));
#35 = VECTOR('',#36,1.);
#36 = DIRECTION('',(0.,0.,1.));
#37 = ORIENTED_EDGE('',*,*,#38,.F.);
#38 = EDGE_CURVE('',#31,#31,#39,.T.);
#39 = CIRCLE('',#40,1.85);
#40 = AXIS2_PLACEMENT_3D('',#41,#42,#43);
#41 = CARTESIAN_POINT('',(130.6,-64.,16.6));
#42 = DIRECTION('',(0.,0.,-1.));
#43 = DIRECTION('',(1.,0.,0.));
#44 = ORIENTED_EDGE('',*,*,#30,.F.);
#45 = CYLINDRICAL_SURFACE('',#46,1.85);
#46 = AXIS2_PLACEMENT_3D('',#47,#48,#49);
#47 = CARTESIAN_POINT('',(130.6,-64.,14.9));
#48 = DIRECTION('',(-0.,-0.,-1.));
#49 = DIRECTION('',(1.,0.,0.));
#50 = ADVANCED_FACE('',(#51,#54),#65,.T.);
#51 = FACE_BOUND('',#52,.T.);
#52 = EDGE_LOOP('',(#53));
#53 = ORIENTED_EDGE('',*,*,#21,.T.);
#54 = FACE_BOUND('',#55,.T.);
#55 = EDGE_LOOP('',(#56));
#56 = ORIENTED_EDGE('',*,*,#57,.T.);
#57 = EDGE_CURVE('',#58,#58,#60,.T.);
#58 = VERTEX_POINT('',#59);
#59 = CARTESIAN_POINT('',(131.75,-64.,14.9));
#60 = CIRCLE('',#61,1.15);
#61 = AXIS2_PLACEMENT_3D('',#62,#63,#64);
#62 = CARTESIAN_POINT('',(130.6,-64.,14.9));
#63 = DIRECTION('',(0.,0.,-1.));
#64 = DIRECTION('',(1.,0.,0.));
#65 = PLANE('',#66);
#66 = AXIS2_PLACEMENT_3D('',#67,#68,#69);
#67 = CARTESIAN_POINT('',(130.6,-64.,14.9));
#68 = DIRECTION('',(0.,0.,1.));
#69 = DIRECTION('',(1.,0.,0.));
#70 = ADVANCED_FACE('',(#71,#155,#166,#177,#180),#214,.T.);
#71 = FACE_BOUND('',#72,.T.);
#72 = EDGE_LOOP('',(#73,#84,#93,#101,#109,#117,#125,#133,#141,#149));
#73 = ORIENTED_EDGE('',*,*,#74,.T.);
#74 = EDGE_CURVE('',#75,#77,#79,.T.);
#75 = VERTEX_POINT('',#76);
#76 = CARTESIAN_POINT('',(129.69215902745,-65.89362741017,16.6));
#77 = VERTEX_POINT('',#78);
#78 = CARTESIAN_POINT('',(132.7,-64.,16.6));
#79 = CIRCLE('',#80,2.1);
#80 = AXIS2_PLACEMENT_3D('',#81,#82,#83);
#81 = CARTESIAN_POINT('',(130.6,-64.,16.6));
#82 = DIRECTION('',(0.,0.,1.));
#83 = DIRECTION('',(1.,0.,0.));
#84 = ORIENTED_EDGE('',*,*,#85,.T.);
#85 = EDGE_CURVE('',#77,#86,#88,.T.);
#86 = VERTEX_POINT('',#87);
#87 = CARTESIAN_POINT('',(132.49362741017,-63.09215902745,16.6));
#88 = CIRCLE('',#89,2.1);
#89 = AXIS2_PLACEMENT_3D('',#90,#91,#92);
#90 = CARTESIAN_POINT('',(130.6,-64.,16.6));
#91 = DIRECTION('',(0.,0.,1.));
#92 = DIRECTION('',(1.,0.,0.));
#93 = ORIENTED_EDGE('',*,*,#94,.T.);
#94 = EDGE_CURVE('',#86,#95,#97,.T.);
#95 = VERTEX_POINT('',#96);
#96 = CARTESIAN_POINT('',(134.,-61.58578643762,16.6));
#97 = LINE('',#98,#99);
#98 = CARTESIAN_POINT('',(128.08578643762,-67.5,16.6));
#99 = VECTOR('',#100,1.);
#100 = DIRECTION('',(0.707106781187,0.707106781187,0.));
#101 = ORIENTED_EDGE('',*,*,#102,.T.);
#102 = EDGE_CURVE('',#95,#103,#105,.T.);
#103 = VERTEX_POINT('',#104);
#104 = CARTESIAN_POINT('',(134.,-14.41421356237,16.6));
#105 = LINE('',#106,#107);
#106 = CARTESIAN_POINT('',(134.,-61.58578643762,16.6));
#107 = VECTOR('',#108,1.);
#108 = DIRECTION('',(0.,1.,0.));
#109 = ORIENTED_EDGE('',*,*,#110,.T.);
#110 = EDGE_CURVE('',#103,#111,#113,.T.);
#111 = VERTEX_POINT('',#112);
#112 = CARTESIAN_POINT('',(131.58578643762,-12.,16.6));
#113 = LINE('',#114,#115);
#114 = CARTESIAN_POINT('',(134.,-14.41421356237,16.6));
#115 = VECTOR('',#116,1.);
#116 = DIRECTION('',(-0.707106781187,0.707106781187,0.));
#117 = ORIENTED_EDGE('',*,*,#118,.T.);
#118 = EDGE_CURVE('',#111,#119,#121,.T.);
#119 = VERTEX_POINT('',#120);
#120 = CARTESIAN_POINT('',(112.,-12.,16.6));
#121 = LINE('',#122,#123);
#122 = CARTESIAN_POINT('',(131.58578643762,-12.,16.6));
#123 = VECTOR('',#124,1.);
#124 = DIRECTION('',(-1.,0.,0.));
#125 = ORIENTED_EDGE('',*,*,#126,.T.);
#126 = EDGE_CURVE('',#119,#127,#129,.T.);
#127 = VERTEX_POINT('',#128);
#128 = CARTESIAN_POINT('',(112.,-65.08578643762,16.6));
#129 = LINE('',#130,#131);
#130 = CARTESIAN_POINT('',(112.,-12.,16.6));
#131 = VECTOR('',#132,1.);
#132 = DIRECTION('',(0.,-1.,0.));
#133 = ORIENTED_EDGE('',*,*,#134,.T.);
#134 = EDGE_CURVE('',#127,#135,#137,.T.);
#135 = VERTEX_POINT('',#136);
#136 = CARTESIAN_POINT('',(114.41421356237,-67.5,16.6));
#137 = LINE('',#138,#139);
#138 = CARTESIAN_POINT('',(112.,-65.08578643762,16.6));
#139 = VECTOR('',#140,1.);
#140 = DIRECTION('',(0.707106781187,-0.707106781187,0.));
#141 = ORIENTED_EDGE('',*,*,#142,.T.);
#142 = EDGE_CURVE('',#135,#143,#145,.T.);
#143 = VERTEX_POINT('',#144);
#144 = CARTESIAN_POINT('',(128.08578643762,-67.5,16.6));
#145 = LINE('',#146,#147);
#146 = CARTESIAN_POINT('',(114.41421356237,-67.5,16.6));
#147 = VECTOR('',#148,1.);
#148 = DIRECTION('',(1.,0.,0.));
#149 = ORIENTED_EDGE('',*,*,#150,.T.);
#150 = EDGE_CURVE('',#143,#75,#151,.T.);
#151 = LINE('',#152,#153);
#152 = CARTESIAN_POINT('',(128.08578643762,-67.5,16.6));
#153 = VECTOR('',#154,1.);
#154 = DIRECTION('',(0.707106781187,0.707106781187,0.));
#155 = FACE_BOUND('',#156,.T.);
#156 = EDGE_LOOP('',(#157));
#157 = ORIENTED_EDGE('',*,*,#158,.T.);
#158 = EDGE_CURVE('',#159,#159,#161,.T.);
#159 = VERTEX_POINT('',#160);
#160 = CARTESIAN_POINT('',(116.35,-64.,16.6));
#161 = CIRCLE('',#162,1.85);
#162 = AXIS2_PLACEMENT_3D('',#163,#164,#165);
#163 = CARTESIAN_POINT('',(114.5,-64.,16.6));
#164 = DIRECTION('',(0.,0.,-1.));
#165 = DIRECTION('',(1.,0.,0.));
#166 = FACE_BOUND('',#167,.T.);
#167 = EDGE_LOOP('',(#168));
#168 = ORIENTED_EDGE('',*,*,#169,.T.);
#169 = EDGE_CURVE('',#170,#170,#172,.T.);
#170 = VERTEX_POINT('',#171);
#171 = CARTESIAN_POINT('',(124.4,-59.5,16.6));
#172 = CIRCLE('',#173,1.4);
#173 = AXIS2_PLACEMENT_3D('',#174,#175,#176);
#174 = CARTESIAN_POINT('',(123.,-59.5,16.6));
#175 = DIRECTION('',(0.,0.,-1.));
#176 = DIRECTION('',(1.,0.,0.));
#177 = FACE_BOUND('',#178,.T.);
#178 = EDGE_LOOP('',(#179));
#179 = ORIENTED_EDGE('',*,*,#38,.T.);
#180 = FACE_BOUND('',#181,.T.);
#181 = EDGE_LOOP('',(#182,#192,#200,#208));
#182 = ORIENTED_EDGE('',*,*,#183,.T.);
#183 = EDGE_CURVE('',#184,#186,#188,.T.);
#184 = VERTEX_POINT('',#185);
#185 = CARTESIAN_POINT('',(115.55,-18.25,16.6));
#186 = VERTEX_POINT('',#187);
#187 = CARTESIAN_POINT('',(130.05,-18.25,16.6));
#188 = LINE('',#189,#190);
#189 = CARTESIAN_POINT('',(123.56789321881,-18.25,16.6));
#190 = VECTOR('',#191,1.);
#191 = DIRECTION('',(1.,0.,0.));
#192 = ORIENTED_EDGE('',*,*,#193,.T.);
#193 = EDGE_CURVE('',#186,#194,#196,.T.);
#194 = VERTEX_POINT('',#195);
#195 = CARTESIAN_POINT('',(130.05,-49.35,16.6));
#196 = LINE('',#197,#198);
#197 = CARTESIAN_POINT('',(130.05,-30.675,16.6));
#198 = VECTOR('',#199,1.);
#199 = DIRECTION('',(0.,-1.,0.));
#200 = ORIENTED_EDGE('',*,*,#201,.F.);
#201 = EDGE_CURVE('',#202,#194,#204,.T.);
#202 = VERTEX_POINT('',#203);
#203 = CARTESIAN_POINT('',(115.55,-49.35,16.6));
#204 = LINE('',#205,#206);
#205 = CARTESIAN_POINT('',(123.56789321881,-49.35,16.6));
#206 = VECTOR('',#207,1.);
#207 = DIRECTION('',(1.,0.,0.));
#208 = ORIENTED_EDGE('',*,*,#209,.F.);
#209 = EDGE_CURVE('',#184,#202,#210,.T.);
#210 = LINE('',#211,#212);
#211 = CARTESIAN_POINT('',(115.55,-30.675,16.6));
#212 = VECTOR('',#213,1.);
#213 = DIRECTION('',(0.,-1.,0.));
#214 = PLANE('',#215);
#215 = AXIS2_PLACEMENT_3D('',#216,#217,#218);
#216 = CARTESIAN_POINT('',(122.77955412678,-39.26746602031,16.6));
#217 = DIRECTION('',(0.,0.,1.));
#218 = DIRECTION('',(1.,0.,0.));
#219 = ADVANCED_FACE('',(#220),#239,.F.);
#220 = FACE_BOUND('',#221,.T.);
#221 = EDGE_LOOP('',(#222,#230,#237,#238));
#222 = ORIENTED_EDGE('',*,*,#223,.F.);
#223 = EDGE_CURVE('',#224,#58,#226,.T.);
#224 = VERTEX_POINT('',#225);
#225 = CARTESIAN_POINT('',(131.75,-64.,6.3));
#226 = LINE('',#227,#228);
#227 = CARTESIAN_POINT('',(131.75,-64.,6.2));
#228 = VECTOR('',#229,1.);
#229 = DIRECTION('',(0.,0.,1.));
#230 = ORIENTED_EDGE('',*,*,#231,.T.);
#231 = EDGE_CURVE('',#224,#224,#232,.T.);
#232 = CIRCLE('',#233,1.15);
#233 = AXIS2_PLACEMENT_3D('',#234,#235,#236);
#234 = CARTESIAN_POINT('',(130.6,-64.,6.3));
#235 = DIRECTION('',(0.,0.,-1.));
#236 = DIRECTION('',(1.,0.,0.));
#237 = ORIENTED_EDGE('',*,*,#223,.T.);
#238 = ORIENTED_EDGE('',*,*,#57,.F.);
#239 = CYLINDRICAL_SURFACE('',#240,1.15);
#240 = AXIS2_PLACEMENT_3D('',#241,#242,#243);
#241 = CARTESIAN_POINT('',(130.6,-64.,6.2));
#242 = DIRECTION('',(-0.,-0.,-1.));
#243 = DIRECTION('',(1.,0.,0.));
#244 = ADVANCED_FACE('',(#245),#323,.T.);
#245 = FACE_BOUND('',#246,.F.);
#246 = EDGE_LOOP('',(#247,#262,#275,#283,#292,#300,#321,#322));
#247 = ORIENTED_EDGE('',*,*,#248,.F.);
#248 = EDGE_CURVE('',#249,#86,#251,.T.);
#249 = VERTEX_POINT('',#250);
#250 = CARTESIAN_POINT('',(132.7,-64.,15.654558441227));
#251 = B_SPLINE_CURVE_WITH_KNOTS('',5,(#252,#253,#254,#255,#256,#257,
    #258,#259,#260,#261),.UNSPECIFIED.,.F.,.F.,(6,4,6),(0.,
    0.519892277981,1.),.UNSPECIFIED.);
#252 = CARTESIAN_POINT('',(132.7,-64.,15.654558441227));
#253 = CARTESIAN_POINT('',(132.7,-63.8945926292,15.74399956124));
#254 = CARTESIAN_POINT('',(132.69338710624,-63.79197467515,
    15.836685009079));
#255 = CARTESIAN_POINT('',(132.68085726518,-63.69222215856,
    15.931959748874));
#256 = CARTESIAN_POINT('',(132.66291837287,-63.59536878637,
    16.029364215264));
#257 = CARTESIAN_POINT('',(132.61873792943,-63.4146127117,
    16.220229180012));
#258 = CARTESIAN_POINT('',(132.59323894366,-63.33029607703,
    16.313410823893));
#259 = CARTESIAN_POINT('',(132.56375149859,-63.24844094257,
    16.40788813551));
#260 = CARTESIAN_POINT('',(132.53049394007,-63.169057376,16.503467299578
    ));
#261 = CARTESIAN_POINT('',(132.49362741017,-63.09215902745,16.6));
#262 = ORIENTED_EDGE('',*,*,#263,.F.);
#263 = EDGE_CURVE('',#264,#249,#266,.T.);
#264 = VERTEX_POINT('',#265);
#265 = CARTESIAN_POINT('',(132.67464278422,-64.32535721577,15.4));
#266 = B_SPLINE_CURVE_WITH_KNOTS('',4,(#267,#268,#269,#270,#271,#272,
    #273,#274),.UNSPECIFIED.,.F.,.F.,(5,3,5),(0.,0.864523799114,1.),
  .UNSPECIFIED.);
#267 = CARTESIAN_POINT('',(132.67464278422,-64.32535721577,15.4));
#268 = CARTESIAN_POINT('',(132.6859818291,-64.25305370903,
    15.451730061268));
#269 = CARTESIAN_POINT('',(132.69371090728,-64.18181834299,
    15.505616933421));
#270 = CARTESIAN_POINT('',(132.69815269844,-64.11177264367,
    15.561283695424));
#271 = CARTESIAN_POINT('',(132.69978127285,-64.03217068796,
    15.627446303419));
#272 = CARTESIAN_POINT('',(132.69992740165,-64.02141670843,
    15.636447363249));
#273 = CARTESIAN_POINT('',(132.70000000001,-64.01069310069,
    15.645485044404));
#274 = CARTESIAN_POINT('',(132.7,-64.,15.654558441227));
#275 = ORIENTED_EDGE('',*,*,#276,.T.);
#276 = EDGE_CURVE('',#264,#277,#279,.T.);
#277 = VERTEX_POINT('',#278);
#278 = CARTESIAN_POINT('',(132.67464278422,-64.32535721577,6.3));
#279 = LINE('',#280,#281);
#280 = CARTESIAN_POINT('',(132.67464278422,-64.32535721577,6.3));
#281 = VECTOR('',#282,1.);
#282 = DIRECTION('',(-0.,-0.,-1.));
#283 = ORIENTED_EDGE('',*,*,#284,.F.);
#284 = EDGE_CURVE('',#285,#277,#287,.T.);
#285 = VERTEX_POINT('',#286);
#286 = CARTESIAN_POINT('',(130.92535721577,-66.07464278422,6.3));
#287 = CIRCLE('',#288,2.1);
#288 = AXIS2_PLACEMENT_3D('',#289,#290,#291);
#289 = CARTESIAN_POINT('',(130.6,-64.,6.3));
#290 = DIRECTION('',(0.,0.,1.));
#291 = DIRECTION('',(1.,0.,0.));
#292 = ORIENTED_EDGE('',*,*,#293,.F.);
#293 = EDGE_CURVE('',#294,#285,#296,.T.);
#294 = VERTEX_POINT('',#295);
#295 = CARTESIAN_POINT('',(130.92535721577,-66.07464278422,15.4));
#296 = LINE('',#297,#298);
#297 = CARTESIAN_POINT('',(130.92535721577,-66.07464278422,6.3));
#298 = VECTOR('',#299,1.);
#299 = DIRECTION('',(-0.,-0.,-1.));
#300 = ORIENTED_EDGE('',*,*,#301,.T.);
#301 = EDGE_CURVE('',#294,#75,#302,.T.);
#302 = B_SPLINE_CURVE_WITH_KNOTS('',5,(#303,#304,#305,#306,#307,#308,
    #309,#310,#311,#312,#313,#314,#315,#316,#317,#318,#319,#320),
  .UNSPECIFIED.,.F.,.F.,(6,4,4,4,6),(0.,0.278592947218,0.531189597291,
    0.770343155573,1.),.UNSPECIFIED.);
#303 = CARTESIAN_POINT('',(130.92535721577,-66.07464278422,15.4));
#304 = CARTESIAN_POINT('',(130.84686168906,-66.0869528967,
    15.456160186265));
#305 = CARTESIAN_POINT('',(130.76954649398,-66.09527426305,
    15.514703391247));
#306 = CARTESIAN_POINT('',(130.69352993288,-66.09992944586,
    15.575255528653));
#307 = CARTESIAN_POINT('',(130.61887810209,-66.10119377915,
    15.637526885217));
#308 = CARTESIAN_POINT('',(130.47918054442,-66.09757446084,
    15.759135287055));
#309 = CARTESIAN_POINT('',(130.41389252702,-66.09325357684,
    15.818200398514));
#310 = CARTESIAN_POINT('',(130.3497655235,-66.08650319571,
    15.878341853689));
#311 = CARTESIAN_POINT('',(130.28680951486,-66.07746355145,
    15.939432190942));
#312 = CARTESIAN_POINT('',(130.16652797588,-66.05563531808,
    16.060016331384));
#313 = CARTESIAN_POINT('',(130.10908237129,-66.04307226469,
    16.119420647545));
#314 = CARTESIAN_POINT('',(130.052689444,-66.02866002875,16.179500820821
    ));
#315 = CARTESIAN_POINT('',(129.99735018369,-66.01248099322,
    16.240186107184));
#316 = CARTESIAN_POINT('',(129.8909354149,-65.97743259983,
    16.360221580699));
#317 = CARTESIAN_POINT('',(129.83977833413,-65.95869604629,
    16.419528296046));
#318 = CARTESIAN_POINT('',(129.78959447619,-65.93845147703,
    16.479288798194));
#319 = CARTESIAN_POINT('',(129.74038650954,-65.91674858174,
    16.539458659796));
#320 = CARTESIAN_POINT('',(129.69215902745,-65.89362741017,16.6));
#321 = ORIENTED_EDGE('',*,*,#74,.T.);
#322 = ORIENTED_EDGE('',*,*,#85,.T.);
#323 = CYLINDRICAL_SURFACE('',#324,2.1);
#324 = AXIS2_PLACEMENT_3D('',#325,#326,#327);
#325 = CARTESIAN_POINT('',(130.6,-64.,6.3));
#326 = DIRECTION('',(-0.,-0.,-1.));
#327 = DIRECTION('',(1.,0.,0.));
#328 = ADVANCED_FACE('',(#329),#346,.F.);
#329 = FACE_BOUND('',#330,.F.);
#330 = EDGE_LOOP('',(#331,#332,#340,#345));
#331 = ORIENTED_EDGE('',*,*,#301,.F.);
#332 = ORIENTED_EDGE('',*,*,#333,.T.);
#333 = EDGE_CURVE('',#294,#334,#336,.T.);
#334 = VERTEX_POINT('',#335);
#335 = CARTESIAN_POINT('',(128.5,-68.5,15.4));
#336 = LINE('',#337,#338);
#337 = CARTESIAN_POINT('',(135.,-62.,15.4));
#338 = VECTOR('',#339,1.);
#339 = DIRECTION('',(-0.707106781187,-0.707106781187,0.));
#340 = ORIENTED_EDGE('',*,*,#341,.T.);
#341 = EDGE_CURVE('',#334,#143,#342,.T.);
#342 = B_SPLINE_CURVE_WITH_KNOTS('',1,(#343,#344),.UNSPECIFIED.,.F.,.F.,
  (2,2),(0.,1.),.PIECEWISE_BEZIER_KNOTS.);
#343 = CARTESIAN_POINT('',(128.5,-68.5,15.4));
#344 = CARTESIAN_POINT('',(128.08578643762,-67.5,16.6));
#345 = ORIENTED_EDGE('',*,*,#150,.T.);
#346 = B_SPLINE_SURFACE_WITH_KNOTS('',1,1,(
    (#347,#348)
    ,(#349,#350
    )),.UNSPECIFIED.,.F.,.F.,.F.,(2,2),(2,2),(0.,9.192388155425),(0.,1.)
  ,.PIECEWISE_BEZIER_KNOTS.);
#347 = CARTESIAN_POINT('',(135.,-62.,15.4));
#348 = CARTESIAN_POINT('',(134.,-61.58578643762,16.6));
#349 = CARTESIAN_POINT('',(128.5,-68.5,15.4));
#350 = CARTESIAN_POINT('',(128.08578643762,-67.5,16.6));
#351 = ADVANCED_FACE('',(#352),#369,.F.);
#352 = FACE_BOUND('',#353,.F.);
#353 = EDGE_LOOP('',(#354,#362,#367,#368));
#354 = ORIENTED_EDGE('',*,*,#355,.T.);
#355 = EDGE_CURVE('',#334,#356,#358,.T.);
#356 = VERTEX_POINT('',#357);
#357 = CARTESIAN_POINT('',(114.,-68.5,15.4));
#358 = LINE('',#359,#360);
#359 = CARTESIAN_POINT('',(128.5,-68.5,15.4));
#360 = VECTOR('',#361,1.);
#361 = DIRECTION('',(-1.,0.,0.));
#362 = ORIENTED_EDGE('',*,*,#363,.T.);
#363 = EDGE_CURVE('',#356,#135,#364,.T.);
#364 = B_SPLINE_CURVE_WITH_KNOTS('',1,(#365,#366),.UNSPECIFIED.,.F.,.F.,
  (2,2),(0.,1.),.PIECEWISE_BEZIER_KNOTS.);
#365 = CARTESIAN_POINT('',(114.,-68.5,15.4));
#366 = CARTESIAN_POINT('',(114.41421356237,-67.5,16.6));
#367 = ORIENTED_EDGE('',*,*,#142,.T.);
#368 = ORIENTED_EDGE('',*,*,#341,.F.);
#369 = B_SPLINE_SURFACE_WITH_KNOTS('',1,1,(
    (#370,#371)
    ,(#372,#373
    )),.UNSPECIFIED.,.F.,.F.,.F.,(2,2),(2,2),(0.,14.5),(0.,1.),
  .PIECEWISE_BEZIER_KNOTS.);
#370 = CARTESIAN_POINT('',(128.5,-68.5,15.4));
#371 = CARTESIAN_POINT('',(128.08578643762,-67.5,16.6));
#372 = CARTESIAN_POINT('',(114.,-68.5,15.4));
#373 = CARTESIAN_POINT('',(114.41421356237,-67.5,16.6));
#374 = ADVANCED_FACE('',(#375),#393,.F.);
#375 = FACE_BOUND('',#376,.F.);
#376 = EDGE_LOOP('',(#377,#384,#390,#391,#392));
#377 = ORIENTED_EDGE('',*,*,#378,.F.);
#378 = EDGE_CURVE('',#379,#95,#381,.T.);
#379 = VERTEX_POINT('',#380);
#380 = CARTESIAN_POINT('',(135.,-62.,15.4));
#381 = B_SPLINE_CURVE_WITH_KNOTS('',1,(#382,#383),.UNSPECIFIED.,.F.,.F.,
  (2,2),(0.,1.),.PIECEWISE_BEZIER_KNOTS.);
#382 = CARTESIAN_POINT('',(135.,-62.,15.4));
#383 = CARTESIAN_POINT('',(134.,-61.58578643762,16.6));
#384 = ORIENTED_EDGE('',*,*,#385,.T.);
#385 = EDGE_CURVE('',#379,#264,#386,.T.);
#386 = LINE('',#387,#388);
#387 = CARTESIAN_POINT('',(135.,-62.,15.4));
#388 = VECTOR('',#389,1.);
#389 = DIRECTION('',(-0.707106781187,-0.707106781187,0.));
#390 = ORIENTED_EDGE('',*,*,#263,.T.);
#391 = ORIENTED_EDGE('',*,*,#248,.T.);
#392 = ORIENTED_EDGE('',*,*,#94,.T.);
#393 = B_SPLINE_SURFACE_WITH_KNOTS('',1,1,(
    (#394,#395)
    ,(#396,#397
    )),.UNSPECIFIED.,.F.,.F.,.F.,(2,2),(2,2),(0.,9.192388155425),(0.,1.)
  ,.PIECEWISE_BEZIER_KNOTS.);
#394 = CARTESIAN_POINT('',(135.,-62.,15.4));
#395 = CARTESIAN_POINT('',(134.,-61.58578643762,16.6));
#396 = CARTESIAN_POINT('',(128.5,-68.5,15.4));
#397 = CARTESIAN_POINT('',(128.08578643762,-67.5,16.6));
#398 = ADVANCED_FACE('',(#399),#416,.F.);
#399 = FACE_BOUND('',#400,.F.);
#400 = EDGE_LOOP('',(#401,#409,#414,#415));
#401 = ORIENTED_EDGE('',*,*,#402,.T.);
#402 = EDGE_CURVE('',#356,#403,#405,.T.);
#403 = VERTEX_POINT('',#404);
#404 = CARTESIAN_POINT('',(111.,-65.5,15.4));
#405 = LINE('',#406,#407);
#406 = CARTESIAN_POINT('',(114.,-68.5,15.4));
#407 = VECTOR('',#408,1.);
#408 = DIRECTION('',(-0.707106781187,0.707106781187,0.));
#409 = ORIENTED_EDGE('',*,*,#410,.T.);
#410 = EDGE_CURVE('',#403,#127,#411,.T.);
#411 = B_SPLINE_CURVE_WITH_KNOTS('',1,(#412,#413),.UNSPECIFIED.,.F.,.F.,
  (2,2),(0.,1.),.PIECEWISE_BEZIER_KNOTS.);
#412 = CARTESIAN_POINT('',(111.,-65.5,15.4));
#413 = CARTESIAN_POINT('',(112.,-65.08578643762,16.6));
#414 = ORIENTED_EDGE('',*,*,#134,.T.);
#415 = ORIENTED_EDGE('',*,*,#363,.F.);
#416 = B_SPLINE_SURFACE_WITH_KNOTS('',1,1,(
    (#417,#418)
    ,(#419,#420
    )),.UNSPECIFIED.,.F.,.F.,.F.,(2,2),(2,2),(0.,4.242640687119),(0.,1.)
  ,.PIECEWISE_BEZIER_KNOTS.);
#417 = CARTESIAN_POINT('',(114.,-68.5,15.4));
#418 = CARTESIAN_POINT('',(114.41421356237,-67.5,16.6));
#419 = CARTESIAN_POINT('',(111.,-65.5,15.4));
#420 = CARTESIAN_POINT('',(112.,-65.08578643762,16.6));
#421 = ADVANCED_FACE('',(#422),#439,.F.);
#422 = FACE_BOUND('',#423,.F.);
#423 = EDGE_LOOP('',(#424,#432,#433,#434));
#424 = ORIENTED_EDGE('',*,*,#425,.T.);
#425 = EDGE_CURVE('',#426,#379,#428,.T.);
#426 = VERTEX_POINT('',#427);
#427 = CARTESIAN_POINT('',(135.,-14.,15.4));
#428 = LINE('',#429,#430);
#429 = CARTESIAN_POINT('',(135.,-14.,15.4));
#430 = VECTOR('',#431,1.);
#431 = DIRECTION('',(0.,-1.,0.));
#432 = ORIENTED_EDGE('',*,*,#378,.T.);
#433 = ORIENTED_EDGE('',*,*,#102,.T.);
#434 = ORIENTED_EDGE('',*,*,#435,.F.);
#435 = EDGE_CURVE('',#426,#103,#436,.T.);
#436 = B_SPLINE_CURVE_WITH_KNOTS('',1,(#437,#438),.UNSPECIFIED.,.F.,.F.,
  (2,2),(0.,1.),.PIECEWISE_BEZIER_KNOTS.);
#437 = CARTESIAN_POINT('',(135.,-14.,15.4));
#438 = CARTESIAN_POINT('',(134.,-14.41421356237,16.6));
#439 = B_SPLINE_SURFACE_WITH_KNOTS('',1,1,(
    (#440,#441)
    ,(#442,#443
  )),.UNSPECIFIED.,.F.,.F.,.F.,(2,2),(2,2),(0.,48.),(0.,1.),
  .PIECEWISE_BEZIER_KNOTS.);
#440 = CARTESIAN_POINT('',(135.,-14.,15.4));
#441 = CARTESIAN_POINT('',(134.,-14.41421356237,16.6));
#442 = CARTESIAN_POINT('',(135.,-62.,15.4));
#443 = CARTESIAN_POINT('',(134.,-61.58578643762,16.6));
#444 = ADVANCED_FACE('',(#445),#462,.F.);
#445 = FACE_BOUND('',#446,.F.);
#446 = EDGE_LOOP('',(#447,#455,#460,#461));
#447 = ORIENTED_EDGE('',*,*,#448,.T.);
#448 = EDGE_CURVE('',#403,#449,#451,.T.);
#449 = VERTEX_POINT('',#450);
#450 = CARTESIAN_POINT('',(111.,-11.,15.4));
#451 = LINE('',#452,#453);
#452 = CARTESIAN_POINT('',(111.,-65.5,15.4));
#453 = VECTOR('',#454,1.);
#454 = DIRECTION('',(0.,1.,0.));
#455 = ORIENTED_EDGE('',*,*,#456,.T.);
#456 = EDGE_CURVE('',#449,#119,#457,.T.);
#457 = B_SPLINE_CURVE_WITH_KNOTS('',1,(#458,#459),.UNSPECIFIED.,.F.,.F.,
  (2,2),(0.,1.),.PIECEWISE_BEZIER_KNOTS.);
#458 = CARTESIAN_POINT('',(111.,-11.,15.4));
#459 = CARTESIAN_POINT('',(112.,-12.,16.6));
#460 = ORIENTED_EDGE('',*,*,#126,.T.);
#461 = ORIENTED_EDGE('',*,*,#410,.F.);
#462 = B_SPLINE_SURFACE_WITH_KNOTS('',1,1,(
    (#463,#464)
    ,(#465,#466
    )),.UNSPECIFIED.,.F.,.F.,.F.,(2,2),(2,2),(0.,54.5),(0.,1.),
  .PIECEWISE_BEZIER_KNOTS.);
#463 = CARTESIAN_POINT('',(111.,-65.5,15.4));
#464 = CARTESIAN_POINT('',(112.,-65.08578643762,16.6));
#465 = CARTESIAN_POINT('',(111.,-11.,15.4));
#466 = CARTESIAN_POINT('',(112.,-12.,16.6));
#467 = ADVANCED_FACE('',(#468),#485,.F.);
#468 = FACE_BOUND('',#469,.F.);
#469 = EDGE_LOOP('',(#470,#478,#479,#480));
#470 = ORIENTED_EDGE('',*,*,#471,.T.);
#471 = EDGE_CURVE('',#472,#426,#474,.T.);
#472 = VERTEX_POINT('',#473);
#473 = CARTESIAN_POINT('',(132.,-11.,15.4));
#474 = LINE('',#475,#476);
#475 = CARTESIAN_POINT('',(132.,-11.,15.4));
#476 = VECTOR('',#477,1.);
#477 = DIRECTION('',(0.707106781187,-0.707106781187,0.));
#478 = ORIENTED_EDGE('',*,*,#435,.T.);
#479 = ORIENTED_EDGE('',*,*,#110,.T.);
#480 = ORIENTED_EDGE('',*,*,#481,.F.);
#481 = EDGE_CURVE('',#472,#111,#482,.T.);
#482 = B_SPLINE_CURVE_WITH_KNOTS('',1,(#483,#484),.UNSPECIFIED.,.F.,.F.,
  (2,2),(0.,1.),.PIECEWISE_BEZIER_KNOTS.);
#483 = CARTESIAN_POINT('',(132.,-11.,15.4));
#484 = CARTESIAN_POINT('',(131.58578643762,-12.,16.6));
#485 = B_SPLINE_SURFACE_WITH_KNOTS('',1,1,(
    (#486,#487)
    ,(#488,#489
    )),.UNSPECIFIED.,.F.,.F.,.F.,(2,2),(2,2),(0.,4.242640687119),(0.,1.)
  ,.PIECEWISE_BEZIER_KNOTS.);
#486 = CARTESIAN_POINT('',(132.,-11.,15.4));
#487 = CARTESIAN_POINT('',(131.58578643762,-12.,16.6));
#488 = CARTESIAN_POINT('',(135.,-14.,15.4));
#489 = CARTESIAN_POINT('',(134.,-14.41421356237,16.6));
#490 = ADVANCED_FACE('',(#491),#502,.F.);
#491 = FACE_BOUND('',#492,.F.);
#492 = EDGE_LOOP('',(#493,#499,#500,#501));
#493 = ORIENTED_EDGE('',*,*,#494,.T.);
#494 = EDGE_CURVE('',#449,#472,#495,.T.);
#495 = LINE('',#496,#497);
#496 = CARTESIAN_POINT('',(111.,-11.,15.4));
#497 = VECTOR('',#498,1.);
#498 = DIRECTION('',(1.,0.,0.));
#499 = ORIENTED_EDGE('',*,*,#481,.T.);
#500 = ORIENTED_EDGE('',*,*,#118,.T.);
#501 = ORIENTED_EDGE('',*,*,#456,.F.);
#502 = B_SPLINE_SURFACE_WITH_KNOTS('',1,1,(
    (#503,#504)
    ,(#505,#506
  )),.UNSPECIFIED.,.F.,.F.,.F.,(2,2),(2,2),(0.,21.),(0.,1.),
  .PIECEWISE_BEZIER_KNOTS.);
#503 = CARTESIAN_POINT('',(111.,-11.,15.4));
#504 = CARTESIAN_POINT('',(112.,-12.,16.6));
#505 = CARTESIAN_POINT('',(132.,-11.,15.4));
#506 = CARTESIAN_POINT('',(131.58578643762,-12.,16.6));
#507 = ADVANCED_FACE('',(#508),#527,.F.);
#508 = FACE_BOUND('',#509,.T.);
#509 = EDGE_LOOP('',(#510,#519,#525,#526));
#510 = ORIENTED_EDGE('',*,*,#511,.F.);
#511 = EDGE_CURVE('',#512,#512,#514,.T.);
#512 = VERTEX_POINT('',#513);
#513 = CARTESIAN_POINT('',(116.35,-64.,14.9));
#514 = CIRCLE('',#515,1.85);
#515 = AXIS2_PLACEMENT_3D('',#516,#517,#518);
#516 = CARTESIAN_POINT('',(114.5,-64.,14.9));
#517 = DIRECTION('',(0.,0.,1.));
#518 = DIRECTION('',(1.,0.,0.));
#519 = ORIENTED_EDGE('',*,*,#520,.T.);
#520 = EDGE_CURVE('',#512,#159,#521,.T.);
#521 = LINE('',#522,#523);
#522 = CARTESIAN_POINT('',(116.35,-64.,14.9));
#523 = VECTOR('',#524,1.);
#524 = DIRECTION('',(0.,0.,1.));
#525 = ORIENTED_EDGE('',*,*,#158,.F.);
#526 = ORIENTED_EDGE('',*,*,#520,.F.);
#527 = CYLINDRICAL_SURFACE('',#528,1.85);
#528 = AXIS2_PLACEMENT_3D('',#529,#530,#531);
#529 = CARTESIAN_POINT('',(114.5,-64.,14.9));
#530 = DIRECTION('',(-0.,-0.,-1.));
#531 = DIRECTION('',(1.,0.,0.));
#532 = ADVANCED_FACE('',(#533),#552,.F.);
#533 = FACE_BOUND('',#534,.T.);
#534 = EDGE_LOOP('',(#535,#544,#550,#551));
#535 = ORIENTED_EDGE('',*,*,#536,.T.);
#536 = EDGE_CURVE('',#537,#537,#539,.T.);
#537 = VERTEX_POINT('',#538);
#538 = CARTESIAN_POINT('',(124.4,-59.5,15.4));
#539 = CIRCLE('',#540,1.4);
#540 = AXIS2_PLACEMENT_3D('',#541,#542,#543);
#541 = CARTESIAN_POINT('',(123.,-59.5,15.4));
#542 = DIRECTION('',(0.,0.,-1.));
#543 = DIRECTION('',(1.,0.,0.));
#544 = ORIENTED_EDGE('',*,*,#545,.T.);
#545 = EDGE_CURVE('',#537,#170,#546,.T.);
#546 = LINE('',#547,#548);
#547 = CARTESIAN_POINT('',(124.4,-59.5,7.8));
#548 = VECTOR('',#549,1.);
#549 = DIRECTION('',(0.,0.,1.));
#550 = ORIENTED_EDGE('',*,*,#169,.F.);
#551 = ORIENTED_EDGE('',*,*,#545,.F.);
#552 = CYLINDRICAL_SURFACE('',#553,1.4);
#553 = AXIS2_PLACEMENT_3D('',#554,#555,#556);
#554 = CARTESIAN_POINT('',(123.,-59.5,7.8));
#555 = DIRECTION('',(-0.,-0.,-1.));
#556 = DIRECTION('',(1.,0.,0.));
#557 = ADVANCED_FACE('',(#558),#583,.F.);
#558 = FACE_BOUND('',#559,.F.);
#559 = EDGE_LOOP('',(#560,#568,#576,#582));
#560 = ORIENTED_EDGE('',*,*,#561,.F.);
#561 = EDGE_CURVE('',#562,#186,#564,.T.);
#562 = VERTEX_POINT('',#563);
#563 = CARTESIAN_POINT('',(130.05,-18.25,15.4));
#564 = LINE('',#565,#566);
#565 = CARTESIAN_POINT('',(130.05,-18.25,15.1));
#566 = VECTOR('',#567,1.);
#567 = DIRECTION('',(0.,0.,1.));
#568 = ORIENTED_EDGE('',*,*,#569,.T.);
#569 = EDGE_CURVE('',#562,#570,#572,.T.);
#570 = VERTEX_POINT('',#571);
#571 = CARTESIAN_POINT('',(115.55,-18.25,15.4));
#572 = LINE('',#573,#574);
#573 = CARTESIAN_POINT('',(119.12689683701,-18.25,15.4));
#574 = VECTOR('',#575,1.);
#575 = DIRECTION('',(-1.,0.,0.));
#576 = ORIENTED_EDGE('',*,*,#577,.T.);
#577 = EDGE_CURVE('',#570,#184,#578,.T.);
#578 = LINE('',#579,#580);
#579 = CARTESIAN_POINT('',(115.55,-18.25,15.1));
#580 = VECTOR('',#581,1.);
#581 = DIRECTION('',(0.,0.,1.));
#582 = ORIENTED_EDGE('',*,*,#183,.T.);
#583 = PLANE('',#584);
#584 = AXIS2_PLACEMENT_3D('',#585,#586,#587);
#585 = CARTESIAN_POINT('',(115.55,-18.25,15.1));
#586 = DIRECTION('',(0.,1.,0.));
#587 = DIRECTION('',(0.,0.,1.));
#588 = ADVANCED_FACE('',(#589),#607,.T.);
#589 = FACE_BOUND('',#590,.T.);
#590 = EDGE_LOOP('',(#591,#599,#605,#606));
#591 = ORIENTED_EDGE('',*,*,#592,.F.);
#592 = EDGE_CURVE('',#593,#202,#595,.T.);
#593 = VERTEX_POINT('',#594);
#594 = CARTESIAN_POINT('',(115.55,-49.35,15.4));
#595 = LINE('',#596,#597);
#596 = CARTESIAN_POINT('',(115.55,-49.35,15.1));
#597 = VECTOR('',#598,1.);
#598 = DIRECTION('',(0.,0.,1.));
#599 = ORIENTED_EDGE('',*,*,#600,.T.);
#600 = EDGE_CURVE('',#593,#570,#601,.T.);
#601 = LINE('',#602,#603);
#602 = CARTESIAN_POINT('',(115.55,-44.20883759906,15.4));
#603 = VECTOR('',#604,1.);
#604 = DIRECTION('',(0.,1.,0.));
#605 = ORIENTED_EDGE('',*,*,#577,.T.);
#606 = ORIENTED_EDGE('',*,*,#209,.T.);
#607 = PLANE('',#608);
#608 = AXIS2_PLACEMENT_3D('',#609,#610,#611);
#609 = CARTESIAN_POINT('',(115.55,-49.35,15.1));
#610 = DIRECTION('',(1.,0.,0.));
#611 = DIRECTION('',(0.,0.,1.));
#612 = ADVANCED_FACE('',(#613),#631,.F.);
#613 = FACE_BOUND('',#614,.F.);
#614 = EDGE_LOOP('',(#615,#623,#629,#630));
#615 = ORIENTED_EDGE('',*,*,#616,.F.);
#616 = EDGE_CURVE('',#617,#194,#619,.T.);
#617 = VERTEX_POINT('',#618);
#618 = CARTESIAN_POINT('',(130.05,-49.35,15.4));
#619 = LINE('',#620,#621);
#620 = CARTESIAN_POINT('',(130.05,-49.35,15.1));
#621 = VECTOR('',#622,1.);
#622 = DIRECTION('',(0.,0.,1.));
#623 = ORIENTED_EDGE('',*,*,#624,.T.);
#624 = EDGE_CURVE('',#617,#562,#625,.T.);
#625 = LINE('',#626,#627);
#626 = CARTESIAN_POINT('',(130.05,-44.20883759906,15.4));
#627 = VECTOR('',#628,1.);
#628 = DIRECTION('',(0.,1.,0.));
#629 = ORIENTED_EDGE('',*,*,#561,.T.);
#630 = ORIENTED_EDGE('',*,*,#193,.T.);
#631 = PLANE('',#632);
#632 = AXIS2_PLACEMENT_3D('',#633,#634,#635);
#633 = CARTESIAN_POINT('',(130.05,-49.35,15.1));
#634 = DIRECTION('',(1.,0.,0.));
#635 = DIRECTION('',(0.,0.,1.));
#636 = ADVANCED_FACE('',(#637),#648,.T.);
#637 = FACE_BOUND('',#638,.T.);
#638 = EDGE_LOOP('',(#639,#640,#646,#647));
#639 = ORIENTED_EDGE('',*,*,#616,.F.);
#640 = ORIENTED_EDGE('',*,*,#641,.T.);
#641 = EDGE_CURVE('',#617,#593,#642,.T.);
#642 = LINE('',#643,#644);
#643 = CARTESIAN_POINT('',(119.12689683701,-49.35,15.4));
#644 = VECTOR('',#645,1.);
#645 = DIRECTION('',(-1.,0.,0.));
#646 = ORIENTED_EDGE('',*,*,#592,.T.);
#647 = ORIENTED_EDGE('',*,*,#201,.T.);
#648 = PLANE('',#649);
#649 = AXIS2_PLACEMENT_3D('',#650,#651,#652);
#650 = CARTESIAN_POINT('',(115.55,-49.35,15.1));
#651 = DIRECTION('',(0.,1.,0.));
#652 = DIRECTION('',(0.,0.,1.));
#653 = ADVANCED_FACE('',(#654,#784),#787,.T.);
#654 = FACE_BOUND('',#655,.T.);
#655 = EDGE_LOOP('',(#656,#666,#674,#682,#690,#698,#706,#714,#723,#731,
    #739,#747,#753,#754,#762,#770,#778));
#656 = ORIENTED_EDGE('',*,*,#657,.T.);
#657 = EDGE_CURVE('',#658,#660,#662,.T.);
#658 = VERTEX_POINT('',#659);
#659 = CARTESIAN_POINT('',(111.,-11.,6.3));
#660 = VERTEX_POINT('',#661);
#661 = CARTESIAN_POINT('',(116.3,-11.,6.3));
#662 = LINE('',#663,#664);
#663 = CARTESIAN_POINT('',(111.,-11.,6.3));
#664 = VECTOR('',#665,1.);
#665 = DIRECTION('',(1.,0.,0.));
#666 = ORIENTED_EDGE('',*,*,#667,.F.);
#667 = EDGE_CURVE('',#668,#660,#670,.T.);
#668 = VERTEX_POINT('',#669);
#669 = CARTESIAN_POINT('',(116.3,-12.2,6.3));
#670 = LINE('',#671,#672);
#671 = CARTESIAN_POINT('',(116.3,-15.5,6.3));
#672 = VECTOR('',#673,1.);
#673 = DIRECTION('',(0.,1.,0.));
#674 = ORIENTED_EDGE('',*,*,#675,.F.);
#675 = EDGE_CURVE('',#676,#668,#678,.T.);
#676 = VERTEX_POINT('',#677);
#677 = CARTESIAN_POINT('',(112.2,-12.2,6.3));
#678 = LINE('',#679,#680);
#679 = CARTESIAN_POINT('',(121.25147186257,-12.2,6.3));
#680 = VECTOR('',#681,1.);
#681 = DIRECTION('',(1.,0.,0.));
#682 = ORIENTED_EDGE('',*,*,#683,.F.);
#683 = EDGE_CURVE('',#684,#676,#686,.T.);
#684 = VERTEX_POINT('',#685);
#685 = CARTESIAN_POINT('',(112.2,-65.00294372515,6.3));
#686 = LINE('',#687,#688);
#687 = CARTESIAN_POINT('',(112.2,-11.6,6.3));
#688 = VECTOR('',#689,1.);
#689 = DIRECTION('',(0.,1.,0.));
#690 = ORIENTED_EDGE('',*,*,#691,.F.);
#691 = EDGE_CURVE('',#692,#684,#694,.T.);
#692 = VERTEX_POINT('',#693);
#693 = CARTESIAN_POINT('',(114.49705627484,-67.3,6.3));
#694 = LINE('',#695,#696);
#695 = CARTESIAN_POINT('',(98.399264068712,-51.20220779386,6.3));
#696 = VECTOR('',#697,1.);
#697 = DIRECTION('',(-0.707106781187,0.707106781187,0.));
#698 = ORIENTED_EDGE('',*,*,#699,.F.);
#699 = EDGE_CURVE('',#700,#692,#702,.T.);
#700 = VERTEX_POINT('',#701);
#701 = CARTESIAN_POINT('',(128.00294372515,-67.3,6.3));
#702 = LINE('',#703,#704);
#703 = CARTESIAN_POINT('',(112.74852813742,-67.3,6.3));
#704 = VECTOR('',#705,1.);
#705 = DIRECTION('',(-1.,0.,0.));
#706 = ORIENTED_EDGE('',*,*,#707,.F.);
#707 = EDGE_CURVE('',#708,#700,#710,.T.);
#708 = VERTEX_POINT('',#709);
#709 = CARTESIAN_POINT('',(129.50874266767,-65.79420105747,6.3));
#710 = LINE('',#711,#712);
#711 = CARTESIAN_POINT('',(137.82720779386,-57.47573593128,6.3));
#712 = VECTOR('',#713,1.);
#713 = DIRECTION('',(-0.707106781187,-0.707106781187,0.));
#714 = ORIENTED_EDGE('',*,*,#715,.F.);
#715 = EDGE_CURVE('',#716,#708,#718,.T.);
#716 = VERTEX_POINT('',#717);
#717 = CARTESIAN_POINT('',(132.39420105747,-62.90874266767,6.3));
#718 = CIRCLE('',#719,2.1);
#719 = AXIS2_PLACEMENT_3D('',#720,#721,#722);
#720 = CARTESIAN_POINT('',(130.6,-64.,6.3));
#721 = DIRECTION('',(0.,0.,1.));
#722 = DIRECTION('',(1.,0.,0.));
#723 = ORIENTED_EDGE('',*,*,#724,.F.);
#724 = EDGE_CURVE('',#725,#716,#727,.T.);
#725 = VERTEX_POINT('',#726);
#726 = CARTESIAN_POINT('',(133.40294372515,-61.9,6.3));
#727 = LINE('',#728,#729);
#728 = CARTESIAN_POINT('',(137.82720779386,-57.47573593128,6.3));
#729 = VECTOR('',#730,1.);
#730 = DIRECTION('',(-0.707106781187,-0.707106781187,0.));
#731 = ORIENTED_EDGE('',*,*,#732,.F.);
#732 = EDGE_CURVE('',#733,#725,#735,.T.);
#733 = VERTEX_POINT('',#734);
#734 = CARTESIAN_POINT('',(135.,-61.9,6.3));
#735 = LINE('',#736,#737);
#736 = CARTESIAN_POINT('',(119.65,-61.9,6.3));
#737 = VECTOR('',#738,1.);
#738 = DIRECTION('',(-1.,0.,0.));
#739 = ORIENTED_EDGE('',*,*,#740,.T.);
#740 = EDGE_CURVE('',#733,#741,#743,.T.);
#741 = VERTEX_POINT('',#742);
#742 = CARTESIAN_POINT('',(135.,-62.,6.3));
#743 = LINE('',#744,#745);
#744 = CARTESIAN_POINT('',(135.,-14.,6.3));
#745 = VECTOR('',#746,1.);
#746 = DIRECTION('',(0.,-1.,0.));
#747 = ORIENTED_EDGE('',*,*,#748,.T.);
#748 = EDGE_CURVE('',#741,#277,#749,.T.);
#749 = LINE('',#750,#751);
#750 = CARTESIAN_POINT('',(135.,-62.,6.3));
#751 = VECTOR('',#752,1.);
#752 = DIRECTION('',(-0.707106781187,-0.707106781187,0.));
#753 = ORIENTED_EDGE('',*,*,#284,.F.);
#754 = ORIENTED_EDGE('',*,*,#755,.T.);
#755 = EDGE_CURVE('',#285,#756,#758,.T.);
#756 = VERTEX_POINT('',#757);
#757 = CARTESIAN_POINT('',(128.5,-68.5,6.3));
#758 = LINE('',#759,#760);
#759 = CARTESIAN_POINT('',(135.,-62.,6.3));
#760 = VECTOR('',#761,1.);
#761 = DIRECTION('',(-0.707106781187,-0.707106781187,0.));
#762 = ORIENTED_EDGE('',*,*,#763,.T.);
#763 = EDGE_CURVE('',#756,#764,#766,.T.);
#764 = VERTEX_POINT('',#765);
#765 = CARTESIAN_POINT('',(114.,-68.5,6.3));
#766 = LINE('',#767,#768);
#767 = CARTESIAN_POINT('',(128.5,-68.5,6.3));
#768 = VECTOR('',#769,1.);
#769 = DIRECTION('',(-1.,0.,0.));
#770 = ORIENTED_EDGE('',*,*,#771,.T.);
#771 = EDGE_CURVE('',#764,#772,#774,.T.);
#772 = VERTEX_POINT('',#773);
#773 = CARTESIAN_POINT('',(111.,-65.5,6.3));
#774 = LINE('',#775,#776);
#775 = CARTESIAN_POINT('',(114.,-68.5,6.3));
#776 = VECTOR('',#777,1.);
#777 = DIRECTION('',(-0.707106781187,0.707106781187,0.));
#778 = ORIENTED_EDGE('',*,*,#779,.T.);
#779 = EDGE_CURVE('',#772,#658,#780,.T.);
#780 = LINE('',#781,#782);
#781 = CARTESIAN_POINT('',(111.,-65.5,6.3));
#782 = VECTOR('',#783,1.);
#783 = DIRECTION('',(0.,1.,0.));
#784 = FACE_BOUND('',#785,.T.);
#785 = EDGE_LOOP('',(#786));
#786 = ORIENTED_EDGE('',*,*,#231,.F.);
#787 = PLANE('',#788);
#788 = AXIS2_PLACEMENT_3D('',#789,#790,#791);
#789 = CARTESIAN_POINT('',(115.77382498646,-45.93276635024,6.3));
#790 = DIRECTION('',(-0.,-0.,-1.));
#791 = DIRECTION('',(-1.,0.,0.));
#792 = ADVANCED_FACE('',(#793),#803,.F.);
#793 = FACE_BOUND('',#794,.F.);
#794 = EDGE_LOOP('',(#795,#800,#801,#802));
#795 = ORIENTED_EDGE('',*,*,#796,.F.);
#796 = EDGE_CURVE('',#741,#379,#797,.T.);
#797 = B_SPLINE_CURVE_WITH_KNOTS('',1,(#798,#799),.UNSPECIFIED.,.F.,.F.,
  (2,2),(0.,1.),.PIECEWISE_BEZIER_KNOTS.);
#798 = CARTESIAN_POINT('',(135.,-62.,6.3));
#799 = CARTESIAN_POINT('',(135.,-62.,15.4));
#800 = ORIENTED_EDGE('',*,*,#748,.T.);
#801 = ORIENTED_EDGE('',*,*,#276,.F.);
#802 = ORIENTED_EDGE('',*,*,#385,.F.);
#803 = PLANE('',#804);
#804 = AXIS2_PLACEMENT_3D('',#805,#806,#807);
#805 = CARTESIAN_POINT('',(135.,-62.,15.4));
#806 = DIRECTION('',(-0.707106781187,0.707106781187,0.));
#807 = DIRECTION('',(-0.707106781187,-0.707106781187,0.));
#808 = ADVANCED_FACE('',(#809),#819,.F.);
#809 = FACE_BOUND('',#810,.F.);
#810 = EDGE_LOOP('',(#811,#812,#813,#818));
#811 = ORIENTED_EDGE('',*,*,#293,.T.);
#812 = ORIENTED_EDGE('',*,*,#755,.T.);
#813 = ORIENTED_EDGE('',*,*,#814,.T.);
#814 = EDGE_CURVE('',#756,#334,#815,.T.);
#815 = B_SPLINE_CURVE_WITH_KNOTS('',1,(#816,#817),.UNSPECIFIED.,.F.,.F.,
  (2,2),(0.,1.),.PIECEWISE_BEZIER_KNOTS.);
#816 = CARTESIAN_POINT('',(128.5,-68.5,6.3));
#817 = CARTESIAN_POINT('',(128.5,-68.5,15.4));
#818 = ORIENTED_EDGE('',*,*,#333,.F.);
#819 = PLANE('',#820);
#820 = AXIS2_PLACEMENT_3D('',#821,#822,#823);
#821 = CARTESIAN_POINT('',(135.,-62.,15.4));
#822 = DIRECTION('',(-0.707106781187,0.707106781187,0.));
#823 = DIRECTION('',(-0.707106781187,-0.707106781187,0.));
#824 = ADVANCED_FACE('',(#825),#835,.F.);
#825 = FACE_BOUND('',#826,.F.);
#826 = EDGE_LOOP('',(#827,#828,#833,#834));
#827 = ORIENTED_EDGE('',*,*,#763,.T.);
#828 = ORIENTED_EDGE('',*,*,#829,.T.);
#829 = EDGE_CURVE('',#764,#356,#830,.T.);
#830 = B_SPLINE_CURVE_WITH_KNOTS('',1,(#831,#832),.UNSPECIFIED.,.F.,.F.,
  (2,2),(0.,1.),.PIECEWISE_BEZIER_KNOTS.);
#831 = CARTESIAN_POINT('',(114.,-68.5,6.3));
#832 = CARTESIAN_POINT('',(114.,-68.5,15.4));
#833 = ORIENTED_EDGE('',*,*,#355,.F.);
#834 = ORIENTED_EDGE('',*,*,#814,.F.);
#835 = PLANE('',#836);
#836 = AXIS2_PLACEMENT_3D('',#837,#838,#839);
#837 = CARTESIAN_POINT('',(128.5,-68.5,15.4));
#838 = DIRECTION('',(0.,1.,0.));
#839 = DIRECTION('',(-1.,0.,0.));
#840 = ADVANCED_FACE('',(#841),#851,.F.);
#841 = FACE_BOUND('',#842,.F.);
#842 = EDGE_LOOP('',(#843,#844,#849,#850));
#843 = ORIENTED_EDGE('',*,*,#771,.T.);
#844 = ORIENTED_EDGE('',*,*,#845,.T.);
#845 = EDGE_CURVE('',#772,#403,#846,.T.);
#846 = B_SPLINE_CURVE_WITH_KNOTS('',1,(#847,#848),.UNSPECIFIED.,.F.,.F.,
  (2,2),(0.,1.),.PIECEWISE_BEZIER_KNOTS.);
#847 = CARTESIAN_POINT('',(111.,-65.5,6.3));
#848 = CARTESIAN_POINT('',(111.,-65.5,15.4));
#849 = ORIENTED_EDGE('',*,*,#402,.F.);
#850 = ORIENTED_EDGE('',*,*,#829,.F.);
#851 = PLANE('',#852);
#852 = AXIS2_PLACEMENT_3D('',#853,#854,#855);
#853 = CARTESIAN_POINT('',(114.,-68.5,15.4));
#854 = DIRECTION('',(0.707106781187,0.707106781187,0.));
#855 = DIRECTION('',(-0.707106781187,0.707106781187,0.));
#856 = ADVANCED_FACE('',(#857),#899,.F.);
#857 = FACE_BOUND('',#858,.F.);
#858 = EDGE_LOOP('',(#859,#866,#874,#882,#890,#896,#897,#898));
#859 = ORIENTED_EDGE('',*,*,#860,.F.);
#860 = EDGE_CURVE('',#861,#426,#863,.T.);
#861 = VERTEX_POINT('',#862);
#862 = CARTESIAN_POINT('',(135.,-14.,6.3));
#863 = B_SPLINE_CURVE_WITH_KNOTS('',1,(#864,#865),.UNSPECIFIED.,.F.,.F.,
  (2,2),(0.,1.),.PIECEWISE_BEZIER_KNOTS.);
#864 = CARTESIAN_POINT('',(135.,-14.,6.3));
#865 = CARTESIAN_POINT('',(135.,-14.,15.4));
#866 = ORIENTED_EDGE('',*,*,#867,.T.);
#867 = EDGE_CURVE('',#861,#868,#870,.T.);
#868 = VERTEX_POINT('',#869);
#869 = CARTESIAN_POINT('',(135.,-53.4,6.3));
#870 = LINE('',#871,#872);
#871 = CARTESIAN_POINT('',(135.,-14.,6.3));
#872 = VECTOR('',#873,1.);
#873 = DIRECTION('',(0.,-1.,0.));
#874 = ORIENTED_EDGE('',*,*,#875,.F.);
#875 = EDGE_CURVE('',#876,#868,#878,.T.);
#876 = VERTEX_POINT('',#877);
#877 = CARTESIAN_POINT('',(135.,-53.4,9.2));
#878 = LINE('',#879,#880);
#879 = CARTESIAN_POINT('',(135.,-53.4,10.25));
#880 = VECTOR('',#881,1.);
#881 = DIRECTION('',(0.,0.,-1.));
#882 = ORIENTED_EDGE('',*,*,#883,.F.);
#883 = EDGE_CURVE('',#884,#876,#886,.T.);
#884 = VERTEX_POINT('',#885);
#885 = CARTESIAN_POINT('',(135.,-61.9,9.2));
#886 = LINE('',#887,#888);
#887 = CARTESIAN_POINT('',(135.,-37.95,9.2));
#888 = VECTOR('',#889,1.);
#889 = DIRECTION('',(0.,1.,0.));
#890 = ORIENTED_EDGE('',*,*,#891,.T.);
#891 = EDGE_CURVE('',#884,#733,#892,.T.);
#892 = LINE('',#893,#894);
#893 = CARTESIAN_POINT('',(135.,-61.9,10.25));
#894 = VECTOR('',#895,1.);
#895 = DIRECTION('',(0.,0.,-1.));
#896 = ORIENTED_EDGE('',*,*,#740,.T.);
#897 = ORIENTED_EDGE('',*,*,#796,.T.);
#898 = ORIENTED_EDGE('',*,*,#425,.F.);
#899 = PLANE('',#900);
#900 = AXIS2_PLACEMENT_3D('',#901,#902,#903);
#901 = CARTESIAN_POINT('',(135.,-14.,15.4));
#902 = DIRECTION('',(-1.,0.,0.));
#903 = DIRECTION('',(0.,-1.,0.));
#904 = ADVANCED_FACE('',(#905),#915,.F.);
#905 = FACE_BOUND('',#906,.F.);
#906 = EDGE_LOOP('',(#907,#908,#913,#914));
#907 = ORIENTED_EDGE('',*,*,#779,.T.);
#908 = ORIENTED_EDGE('',*,*,#909,.T.);
#909 = EDGE_CURVE('',#658,#449,#910,.T.);
#910 = B_SPLINE_CURVE_WITH_KNOTS('',1,(#911,#912),.UNSPECIFIED.,.F.,.F.,
  (2,2),(0.,1.),.PIECEWISE_BEZIER_KNOTS.);
#911 = CARTESIAN_POINT('',(111.,-11.,6.3));
#912 = CARTESIAN_POINT('',(111.,-11.,15.4));
#913 = ORIENTED_EDGE('',*,*,#448,.F.);
#914 = ORIENTED_EDGE('',*,*,#845,.F.);
#915 = PLANE('',#916);
#916 = AXIS2_PLACEMENT_3D('',#917,#918,#919);
#917 = CARTESIAN_POINT('',(111.,-65.5,15.4));
#918 = DIRECTION('',(1.,0.,0.));
#919 = DIRECTION('',(0.,1.,0.));
#920 = ADVANCED_FACE('',(#921,#938),#972,.F.);
#921 = FACE_BOUND('',#922,.F.);
#922 = EDGE_LOOP('',(#923,#931,#932,#933));
#923 = ORIENTED_EDGE('',*,*,#924,.T.);
#924 = EDGE_CURVE('',#925,#861,#927,.T.);
#925 = VERTEX_POINT('',#926);
#926 = CARTESIAN_POINT('',(132.,-11.,6.3));
#927 = LINE('',#928,#929);
#928 = CARTESIAN_POINT('',(132.,-11.,6.3));
#929 = VECTOR('',#930,1.);
#930 = DIRECTION('',(0.707106781187,-0.707106781187,0.));
#931 = ORIENTED_EDGE('',*,*,#860,.T.);
#932 = ORIENTED_EDGE('',*,*,#471,.F.);
#933 = ORIENTED_EDGE('',*,*,#934,.F.);
#934 = EDGE_CURVE('',#925,#472,#935,.T.);
#935 = B_SPLINE_CURVE_WITH_KNOTS('',1,(#936,#937),.UNSPECIFIED.,.F.,.F.,
  (2,2),(0.,1.),.PIECEWISE_BEZIER_KNOTS.);
#936 = CARTESIAN_POINT('',(132.,-11.,6.3));
#937 = CARTESIAN_POINT('',(132.,-11.,15.4));
#938 = FACE_BOUND('',#939,.F.);
#939 = EDGE_LOOP('',(#940,#950,#958,#966));
#940 = ORIENTED_EDGE('',*,*,#941,.F.);
#941 = EDGE_CURVE('',#942,#944,#946,.T.);
#942 = VERTEX_POINT('',#943);
#943 = CARTESIAN_POINT('',(132.6,-11.6,8.5));
#944 = VERTEX_POINT('',#945);
#945 = CARTESIAN_POINT('',(132.6,-11.6,12.7));
#946 = LINE('',#947,#948);
#947 = CARTESIAN_POINT('',(132.6,-11.6,11.95));
#948 = VECTOR('',#949,1.);
#949 = DIRECTION('',(0.,0.,1.));
#950 = ORIENTED_EDGE('',*,*,#951,.T.);
#951 = EDGE_CURVE('',#942,#952,#954,.T.);
#952 = VERTEX_POINT('',#953);
#953 = CARTESIAN_POINT('',(132.4,-11.4,8.5));
#954 = LINE('',#955,#956);
#955 = CARTESIAN_POINT('',(136.525,-15.525,8.5));
#956 = VECTOR('',#957,1.);
#957 = DIRECTION('',(-0.707106781187,0.707106781187,0.));
#958 = ORIENTED_EDGE('',*,*,#959,.F.);
#959 = EDGE_CURVE('',#960,#952,#962,.T.);
#960 = VERTEX_POINT('',#961);
#961 = CARTESIAN_POINT('',(132.4,-11.4,12.7));
#962 = LINE('',#963,#964);
#963 = CARTESIAN_POINT('',(132.4,-11.4,11.95));
#964 = VECTOR('',#965,1.);
#965 = DIRECTION('',(0.,0.,-1.));
#966 = ORIENTED_EDGE('',*,*,#967,.F.);
#967 = EDGE_CURVE('',#944,#960,#968,.T.);
#968 = LINE('',#969,#970);
#969 = CARTESIAN_POINT('',(136.525,-15.525,12.7));
#970 = VECTOR('',#971,1.);
#971 = DIRECTION('',(-0.707106781187,0.707106781187,0.));
#972 = PLANE('',#973);
#973 = AXIS2_PLACEMENT_3D('',#974,#975,#976);
#974 = CARTESIAN_POINT('',(132.,-11.,15.4));
#975 = DIRECTION('',(-0.707106781187,-0.707106781187,0.));
#976 = DIRECTION('',(0.707106781187,-0.707106781187,0.));
#977 = ADVANCED_FACE('',(#978),#1014,.F.);
#978 = FACE_BOUND('',#979,.F.);
#979 = EDGE_LOOP('',(#980,#981,#982,#990,#998,#1006,#1012,#1013));
#980 = ORIENTED_EDGE('',*,*,#909,.F.);
#981 = ORIENTED_EDGE('',*,*,#657,.T.);
#982 = ORIENTED_EDGE('',*,*,#983,.T.);
#983 = EDGE_CURVE('',#660,#984,#986,.T.);
#984 = VERTEX_POINT('',#985);
#985 = CARTESIAN_POINT('',(116.3,-11.,11.8));
#986 = LINE('',#987,#988);
#987 = CARTESIAN_POINT('',(116.3,-11.,10.8));
#988 = VECTOR('',#989,1.);
#989 = DIRECTION('',(0.,0.,1.));
#990 = ORIENTED_EDGE('',*,*,#991,.F.);
#991 = EDGE_CURVE('',#992,#984,#994,.T.);
#992 = VERTEX_POINT('',#993);
#993 = CARTESIAN_POINT('',(129.3,-11.,11.8));
#994 = LINE('',#995,#996);
#995 = CARTESIAN_POINT('',(113.65,-11.,11.8));
#996 = VECTOR('',#997,1.);
#997 = DIRECTION('',(-1.,0.,0.));
#998 = ORIENTED_EDGE('',*,*,#999,.F.);
#999 = EDGE_CURVE('',#1000,#992,#1002,.T.);
#1000 = VERTEX_POINT('',#1001);
#1001 = CARTESIAN_POINT('',(129.3,-11.,6.3));
#1002 = LINE('',#1003,#1004);
#1003 = CARTESIAN_POINT('',(129.3,-11.,10.8));
#1004 = VECTOR('',#1005,1.);
#1005 = DIRECTION('',(0.,0.,1.));
#1006 = ORIENTED_EDGE('',*,*,#1007,.T.);
#1007 = EDGE_CURVE('',#1000,#925,#1008,.T.);
#1008 = LINE('',#1009,#1010);
#1009 = CARTESIAN_POINT('',(111.,-11.,6.3));
#1010 = VECTOR('',#1011,1.);
#1011 = DIRECTION('',(1.,0.,0.));
#1012 = ORIENTED_EDGE('',*,*,#934,.T.);
#1013 = ORIENTED_EDGE('',*,*,#494,.F.);
#1014 = PLANE('',#1015);
#1015 = AXIS2_PLACEMENT_3D('',#1016,#1017,#1018);
#1016 = CARTESIAN_POINT('',(111.,-11.,15.4));
#1017 = DIRECTION('',(0.,-1.,0.));
#1018 = DIRECTION('',(1.,0.,0.));
#1019 = ADVANCED_FACE('',(#1020,#1023),#1034,.T.);
#1020 = FACE_BOUND('',#1021,.T.);
#1021 = EDGE_LOOP('',(#1022));
#1022 = ORIENTED_EDGE('',*,*,#511,.T.);
#1023 = FACE_BOUND('',#1024,.T.);
#1024 = EDGE_LOOP('',(#1025));
#1025 = ORIENTED_EDGE('',*,*,#1026,.T.);
#1026 = EDGE_CURVE('',#1027,#1027,#1029,.T.);
#1027 = VERTEX_POINT('',#1028);
#1028 = CARTESIAN_POINT('',(115.65,-64.,14.9));
#1029 = CIRCLE('',#1030,1.15);
#1030 = AXIS2_PLACEMENT_3D('',#1031,#1032,#1033);
#1031 = CARTESIAN_POINT('',(114.5,-64.,14.9));
#1032 = DIRECTION('',(0.,0.,-1.));
#1033 = DIRECTION('',(1.,0.,0.));
#1034 = PLANE('',#1035);
#1035 = AXIS2_PLACEMENT_3D('',#1036,#1037,#1038);
#1036 = CARTESIAN_POINT('',(114.5,-64.,14.9));
#1037 = DIRECTION('',(0.,0.,1.));
#1038 = DIRECTION('',(1.,0.,0.));
#1039 = ADVANCED_FACE('',(#1040,#1115,#1126,#1129),#1135,.F.);
#1040 = FACE_BOUND('',#1041,.F.);
#1041 = EDGE_LOOP('',(#1042,#1052,#1060,#1068,#1076,#1084,#1093,#1101,
    #1109));
#1042 = ORIENTED_EDGE('',*,*,#1043,.T.);
#1043 = EDGE_CURVE('',#1044,#1046,#1048,.T.);
#1044 = VERTEX_POINT('',#1045);
#1045 = CARTESIAN_POINT('',(131.50294372515,-12.2,15.4));
#1046 = VERTEX_POINT('',#1047);
#1047 = CARTESIAN_POINT('',(112.2,-12.2,15.4));
#1048 = LINE('',#1049,#1050);
#1049 = CARTESIAN_POINT('',(131.50294372515,-12.2,15.4));
#1050 = VECTOR('',#1051,1.);
#1051 = DIRECTION('',(-1.,0.,0.));
#1052 = ORIENTED_EDGE('',*,*,#1053,.T.);
#1053 = EDGE_CURVE('',#1046,#1054,#1056,.T.);
#1054 = VERTEX_POINT('',#1055);
#1055 = CARTESIAN_POINT('',(112.2,-65.00294372515,15.4));
#1056 = LINE('',#1057,#1058);
#1057 = CARTESIAN_POINT('',(112.2,-12.2,15.4));
#1058 = VECTOR('',#1059,1.);
#1059 = DIRECTION('',(0.,-1.,0.));
#1060 = ORIENTED_EDGE('',*,*,#1061,.T.);
#1061 = EDGE_CURVE('',#1054,#1062,#1064,.T.);
#1062 = VERTEX_POINT('',#1063);
#1063 = CARTESIAN_POINT('',(114.49705627484,-67.3,15.4));
#1064 = LINE('',#1065,#1066);
#1065 = CARTESIAN_POINT('',(112.2,-65.00294372515,15.4));
#1066 = VECTOR('',#1067,1.);
#1067 = DIRECTION('',(0.707106781187,-0.707106781187,0.));
#1068 = ORIENTED_EDGE('',*,*,#1069,.T.);
#1069 = EDGE_CURVE('',#1062,#1070,#1072,.T.);
#1070 = VERTEX_POINT('',#1071);
#1071 = CARTESIAN_POINT('',(128.00294372515,-67.3,15.4));
#1072 = LINE('',#1073,#1074);
#1073 = CARTESIAN_POINT('',(114.49705627484,-67.3,15.4));
#1074 = VECTOR('',#1075,1.);
#1075 = DIRECTION('',(1.,0.,0.));
#1076 = ORIENTED_EDGE('',*,*,#1077,.T.);
#1077 = EDGE_CURVE('',#1070,#1078,#1080,.T.);
#1078 = VERTEX_POINT('',#1079);
#1079 = CARTESIAN_POINT('',(129.50874266767,-65.79420105747,15.4));
#1080 = LINE('',#1081,#1082);
#1081 = CARTESIAN_POINT('',(128.00294372515,-67.3,15.4));
#1082 = VECTOR('',#1083,1.);
#1083 = DIRECTION('',(0.707106781187,0.707106781187,0.));
#1084 = ORIENTED_EDGE('',*,*,#1085,.T.);
#1085 = EDGE_CURVE('',#1078,#1086,#1088,.T.);
#1086 = VERTEX_POINT('',#1087);
#1087 = CARTESIAN_POINT('',(132.39420105747,-62.90874266767,15.4));
#1088 = CIRCLE('',#1089,2.1);
#1089 = AXIS2_PLACEMENT_3D('',#1090,#1091,#1092);
#1090 = CARTESIAN_POINT('',(130.6,-64.,15.4));
#1091 = DIRECTION('',(0.,0.,-1.));
#1092 = DIRECTION('',(1.,0.,0.));
#1093 = ORIENTED_EDGE('',*,*,#1094,.T.);
#1094 = EDGE_CURVE('',#1086,#1095,#1097,.T.);
#1095 = VERTEX_POINT('',#1096);
#1096 = CARTESIAN_POINT('',(133.8,-61.50294372515,15.4));
#1097 = LINE('',#1098,#1099);
#1098 = CARTESIAN_POINT('',(128.00294372515,-67.3,15.4));
#1099 = VECTOR('',#1100,1.);
#1100 = DIRECTION('',(0.707106781187,0.707106781187,0.));
#1101 = ORIENTED_EDGE('',*,*,#1102,.T.);
#1102 = EDGE_CURVE('',#1095,#1103,#1105,.T.);
#1103 = VERTEX_POINT('',#1104);
#1104 = CARTESIAN_POINT('',(133.8,-14.49705627484,15.4));
#1105 = LINE('',#1106,#1107);
#1106 = CARTESIAN_POINT('',(133.8,-61.50294372515,15.4));
#1107 = VECTOR('',#1108,1.);
#1108 = DIRECTION('',(0.,1.,0.));
#1109 = ORIENTED_EDGE('',*,*,#1110,.T.);
#1110 = EDGE_CURVE('',#1103,#1044,#1111,.T.);
#1111 = LINE('',#1112,#1113);
#1112 = CARTESIAN_POINT('',(133.8,-14.49705627484,15.4));
#1113 = VECTOR('',#1114,1.);
#1114 = DIRECTION('',(-0.707106781187,0.707106781187,0.));
#1115 = FACE_BOUND('',#1116,.F.);
#1116 = EDGE_LOOP('',(#1117));
#1117 = ORIENTED_EDGE('',*,*,#1118,.T.);
#1118 = EDGE_CURVE('',#1119,#1119,#1121,.T.);
#1119 = VERTEX_POINT('',#1120);
#1120 = CARTESIAN_POINT('',(116.6,-64.,15.4));
#1121 = CIRCLE('',#1122,2.1);
#1122 = AXIS2_PLACEMENT_3D('',#1123,#1124,#1125);
#1123 = CARTESIAN_POINT('',(114.5,-64.,15.4));
#1124 = DIRECTION('',(0.,0.,-1.));
#1125 = DIRECTION('',(1.,0.,0.));
#1126 = FACE_BOUND('',#1127,.F.);
#1127 = EDGE_LOOP('',(#1128));
#1128 = ORIENTED_EDGE('',*,*,#536,.T.);
#1129 = FACE_BOUND('',#1130,.F.);
#1130 = EDGE_LOOP('',(#1131,#1132,#1133,#1134));
#1131 = ORIENTED_EDGE('',*,*,#641,.T.);
#1132 = ORIENTED_EDGE('',*,*,#600,.T.);
#1133 = ORIENTED_EDGE('',*,*,#569,.F.);
#1134 = ORIENTED_EDGE('',*,*,#624,.F.);
#1135 = PLANE('',#1136);
#1136 = AXIS2_PLACEMENT_3D('',#1137,#1138,#1139);
#1137 = CARTESIAN_POINT('',(122.70379367402,-39.06767519813,15.4));
#1138 = DIRECTION('',(0.,0.,1.));
#1139 = DIRECTION('',(1.,0.,0.));
#1140 = ADVANCED_FACE('',(#1141),#1175,.T.);
#1141 = FACE_BOUND('',#1142,.T.);
#1142 = EDGE_LOOP('',(#1143,#1151,#1159,#1167,#1173,#1174));
#1143 = ORIENTED_EDGE('',*,*,#1144,.F.);
#1144 = EDGE_CURVE('',#1145,#984,#1147,.T.);
#1145 = VERTEX_POINT('',#1146);
#1146 = CARTESIAN_POINT('',(116.3,-11.4,11.8));
#1147 = LINE('',#1148,#1149);
#1148 = CARTESIAN_POINT('',(116.3,-20.,11.8));
#1149 = VECTOR('',#1150,1.);
#1150 = DIRECTION('',(0.,1.,0.));
#1151 = ORIENTED_EDGE('',*,*,#1152,.F.);
#1152 = EDGE_CURVE('',#1153,#1145,#1155,.T.);
#1153 = VERTEX_POINT('',#1154);
#1154 = CARTESIAN_POINT('',(116.3,-11.4,8.5));
#1155 = LINE('',#1156,#1157);
#1156 = CARTESIAN_POINT('',(116.3,-11.4,7.35));
#1157 = VECTOR('',#1158,1.);
#1158 = DIRECTION('',(0.,0.,1.));
#1159 = ORIENTED_EDGE('',*,*,#1160,.T.);
#1160 = EDGE_CURVE('',#1153,#1161,#1163,.T.);
#1161 = VERTEX_POINT('',#1162);
#1162 = CARTESIAN_POINT('',(116.3,-12.2,8.5));
#1163 = LINE('',#1164,#1165);
#1164 = CARTESIAN_POINT('',(116.3,-34.05,8.5));
#1165 = VECTOR('',#1166,1.);
#1166 = DIRECTION('',(0.,-1.,0.));
#1167 = ORIENTED_EDGE('',*,*,#1168,.F.);
#1168 = EDGE_CURVE('',#668,#1161,#1169,.T.);
#1169 = LINE('',#1170,#1171);
#1170 = CARTESIAN_POINT('',(116.3,-12.2,6.2));
#1171 = VECTOR('',#1172,1.);
#1172 = DIRECTION('',(0.,0.,1.));
#1173 = ORIENTED_EDGE('',*,*,#667,.T.);
#1174 = ORIENTED_EDGE('',*,*,#983,.T.);
#1175 = PLANE('',#1176);
#1176 = AXIS2_PLACEMENT_3D('',#1177,#1178,#1179);
#1177 = CARTESIAN_POINT('',(116.3,-20.,6.2));
#1178 = DIRECTION('',(1.,0.,0.));
#1179 = DIRECTION('',(0.,0.,1.));
#1180 = ADVANCED_FACE('',(#1181),#1222,.T.);
#1181 = FACE_BOUND('',#1182,.T.);
#1182 = EDGE_LOOP('',(#1183,#1189,#1190,#1191,#1199,#1207,#1215,#1221));
#1183 = ORIENTED_EDGE('',*,*,#1184,.F.);
#1184 = EDGE_CURVE('',#676,#1046,#1185,.T.);
#1185 = LINE('',#1186,#1187);
#1186 = CARTESIAN_POINT('',(112.2,-12.2,6.2));
#1187 = VECTOR('',#1188,1.);
#1188 = DIRECTION('',(0.,0.,1.));
#1189 = ORIENTED_EDGE('',*,*,#675,.T.);
#1190 = ORIENTED_EDGE('',*,*,#1168,.T.);
#1191 = ORIENTED_EDGE('',*,*,#1192,.T.);
#1192 = EDGE_CURVE('',#1161,#1193,#1195,.T.);
#1193 = VERTEX_POINT('',#1194);
#1194 = CARTESIAN_POINT('',(113.,-12.2,8.5));
#1195 = LINE('',#1196,#1197);
#1196 = CARTESIAN_POINT('',(122.25147186257,-12.2,8.5));
#1197 = VECTOR('',#1198,1.);
#1198 = DIRECTION('',(-1.,0.,0.));
#1199 = ORIENTED_EDGE('',*,*,#1200,.T.);
#1200 = EDGE_CURVE('',#1193,#1201,#1203,.T.);
#1201 = VERTEX_POINT('',#1202);
#1202 = CARTESIAN_POINT('',(113.,-12.2,12.7));
#1203 = LINE('',#1204,#1205);
#1204 = CARTESIAN_POINT('',(113.,-12.2,7.35));
#1205 = VECTOR('',#1206,1.);
#1206 = DIRECTION('',(0.,0.,1.));
#1207 = ORIENTED_EDGE('',*,*,#1208,.F.);
#1208 = EDGE_CURVE('',#1209,#1201,#1211,.T.);
#1209 = VERTEX_POINT('',#1210);
#1210 = CARTESIAN_POINT('',(131.50294372515,-12.2,12.7));
#1211 = LINE('',#1212,#1213);
#1212 = CARTESIAN_POINT('',(122.25147186257,-12.2,12.7));
#1213 = VECTOR('',#1214,1.);
#1214 = DIRECTION('',(-1.,0.,0.));
#1215 = ORIENTED_EDGE('',*,*,#1216,.T.);
#1216 = EDGE_CURVE('',#1209,#1044,#1217,.T.);
#1217 = LINE('',#1218,#1219);
#1218 = CARTESIAN_POINT('',(131.50294372515,-12.2,6.2));
#1219 = VECTOR('',#1220,1.);
#1220 = DIRECTION('',(0.,0.,1.));
#1221 = ORIENTED_EDGE('',*,*,#1043,.T.);
#1222 = PLANE('',#1223);
#1223 = AXIS2_PLACEMENT_3D('',#1224,#1225,#1226);
#1224 = CARTESIAN_POINT('',(131.50294372515,-12.2,6.2));
#1225 = DIRECTION('',(0.,-1.,0.));
#1226 = DIRECTION('',(-1.,0.,0.));
#1227 = ADVANCED_FACE('',(#1228),#1239,.T.);
#1228 = FACE_BOUND('',#1229,.T.);
#1229 = EDGE_LOOP('',(#1230,#1231,#1232,#1233));
#1230 = ORIENTED_EDGE('',*,*,#683,.T.);
#1231 = ORIENTED_EDGE('',*,*,#1184,.T.);
#1232 = ORIENTED_EDGE('',*,*,#1053,.T.);
#1233 = ORIENTED_EDGE('',*,*,#1234,.F.);
#1234 = EDGE_CURVE('',#684,#1054,#1235,.T.);
#1235 = LINE('',#1236,#1237);
#1236 = CARTESIAN_POINT('',(112.2,-65.00294372515,6.2));
#1237 = VECTOR('',#1238,1.);
#1238 = DIRECTION('',(0.,0.,1.));
#1239 = PLANE('',#1240);
#1240 = AXIS2_PLACEMENT_3D('',#1241,#1242,#1243);
#1241 = CARTESIAN_POINT('',(112.2,-12.2,6.2));
#1242 = DIRECTION('',(1.,0.,0.));
#1243 = DIRECTION('',(0.,-1.,0.));
#1244 = ADVANCED_FACE('',(#1245),#1256,.T.);
#1245 = FACE_BOUND('',#1246,.T.);
#1246 = EDGE_LOOP('',(#1247,#1248,#1249,#1250));
#1247 = ORIENTED_EDGE('',*,*,#691,.T.);
#1248 = ORIENTED_EDGE('',*,*,#1234,.T.);
#1249 = ORIENTED_EDGE('',*,*,#1061,.T.);
#1250 = ORIENTED_EDGE('',*,*,#1251,.F.);
#1251 = EDGE_CURVE('',#692,#1062,#1252,.T.);
#1252 = LINE('',#1253,#1254);
#1253 = CARTESIAN_POINT('',(114.49705627484,-67.3,6.2));
#1254 = VECTOR('',#1255,1.);
#1255 = DIRECTION('',(0.,0.,1.));
#1256 = PLANE('',#1257);
#1257 = AXIS2_PLACEMENT_3D('',#1258,#1259,#1260);
#1258 = CARTESIAN_POINT('',(112.2,-65.00294372515,6.2));
#1259 = DIRECTION('',(0.707106781187,0.707106781187,0.));
#1260 = DIRECTION('',(0.707106781187,-0.707106781187,0.));
#1261 = ADVANCED_FACE('',(#1262),#1273,.T.);
#1262 = FACE_BOUND('',#1263,.T.);
#1263 = EDGE_LOOP('',(#1264,#1265,#1266,#1267));
#1264 = ORIENTED_EDGE('',*,*,#699,.T.);
#1265 = ORIENTED_EDGE('',*,*,#1251,.T.);
#1266 = ORIENTED_EDGE('',*,*,#1069,.T.);
#1267 = ORIENTED_EDGE('',*,*,#1268,.F.);
#1268 = EDGE_CURVE('',#700,#1070,#1269,.T.);
#1269 = LINE('',#1270,#1271);
#1270 = CARTESIAN_POINT('',(128.00294372515,-67.3,6.2));
#1271 = VECTOR('',#1272,1.);
#1272 = DIRECTION('',(0.,0.,1.));
#1273 = PLANE('',#1274);
#1274 = AXIS2_PLACEMENT_3D('',#1275,#1276,#1277);
#1275 = CARTESIAN_POINT('',(114.49705627484,-67.3,6.2));
#1276 = DIRECTION('',(0.,1.,0.));
#1277 = DIRECTION('',(1.,0.,0.));
#1278 = ADVANCED_FACE('',(#1279),#1290,.T.);
#1279 = FACE_BOUND('',#1280,.T.);
#1280 = EDGE_LOOP('',(#1281,#1287,#1288,#1289));
#1281 = ORIENTED_EDGE('',*,*,#1282,.T.);
#1282 = EDGE_CURVE('',#1078,#708,#1283,.T.);
#1283 = LINE('',#1284,#1285);
#1284 = CARTESIAN_POINT('',(129.50874266767,-65.79420105747,6.3));
#1285 = VECTOR('',#1286,1.);
#1286 = DIRECTION('',(-0.,-0.,-1.));
#1287 = ORIENTED_EDGE('',*,*,#707,.T.);
#1288 = ORIENTED_EDGE('',*,*,#1268,.T.);
#1289 = ORIENTED_EDGE('',*,*,#1077,.T.);
#1290 = PLANE('',#1291);
#1291 = AXIS2_PLACEMENT_3D('',#1292,#1293,#1294);
#1292 = CARTESIAN_POINT('',(128.00294372515,-67.3,6.2));
#1293 = DIRECTION('',(-0.707106781187,0.707106781187,0.));
#1294 = DIRECTION('',(0.707106781187,0.707106781187,0.));
#1295 = ADVANCED_FACE('',(#1296),#1307,.T.);
#1296 = FACE_BOUND('',#1297,.F.);
#1297 = EDGE_LOOP('',(#1298,#1299,#1305,#1306));
#1298 = ORIENTED_EDGE('',*,*,#715,.F.);
#1299 = ORIENTED_EDGE('',*,*,#1300,.F.);
#1300 = EDGE_CURVE('',#1086,#716,#1301,.T.);
#1301 = LINE('',#1302,#1303);
#1302 = CARTESIAN_POINT('',(132.39420105747,-62.90874266767,6.3));
#1303 = VECTOR('',#1304,1.);
#1304 = DIRECTION('',(-0.,-0.,-1.));
#1305 = ORIENTED_EDGE('',*,*,#1085,.F.);
#1306 = ORIENTED_EDGE('',*,*,#1282,.T.);
#1307 = CYLINDRICAL_SURFACE('',#1308,2.1);
#1308 = AXIS2_PLACEMENT_3D('',#1309,#1310,#1311);
#1309 = CARTESIAN_POINT('',(130.6,-64.,6.3));
#1310 = DIRECTION('',(-0.,-0.,-1.));
#1311 = DIRECTION('',(1.,0.,0.));
#1312 = ADVANCED_FACE('',(#1313),#1331,.T.);
#1313 = FACE_BOUND('',#1314,.T.);
#1314 = EDGE_LOOP('',(#1315,#1323,#1324,#1325));
#1315 = ORIENTED_EDGE('',*,*,#1316,.T.);
#1316 = EDGE_CURVE('',#1317,#884,#1319,.T.);
#1317 = VERTEX_POINT('',#1318);
#1318 = CARTESIAN_POINT('',(133.40294372515,-61.9,9.2));
#1319 = LINE('',#1320,#1321);
#1320 = CARTESIAN_POINT('',(128.3,-61.9,9.2));
#1321 = VECTOR('',#1322,1.);
#1322 = DIRECTION('',(1.,0.,0.));
#1323 = ORIENTED_EDGE('',*,*,#891,.T.);
#1324 = ORIENTED_EDGE('',*,*,#732,.T.);
#1325 = ORIENTED_EDGE('',*,*,#1326,.F.);
#1326 = EDGE_CURVE('',#1317,#725,#1327,.T.);
#1327 = LINE('',#1328,#1329);
#1328 = CARTESIAN_POINT('',(133.40294372515,-61.9,5.65));
#1329 = VECTOR('',#1330,1.);
#1330 = DIRECTION('',(0.,0.,-1.));
#1331 = PLANE('',#1332);
#1332 = AXIS2_PLACEMENT_3D('',#1333,#1334,#1335);
#1333 = CARTESIAN_POINT('',(128.3,-61.9,5.1));
#1334 = DIRECTION('',(0.,1.,0.));
#1335 = DIRECTION('',(0.,0.,1.));
#1336 = ADVANCED_FACE('',(#1337),#1357,.T.);
#1337 = FACE_BOUND('',#1338,.T.);
#1338 = EDGE_LOOP('',(#1339,#1347,#1348,#1349,#1350,#1351));
#1339 = ORIENTED_EDGE('',*,*,#1340,.F.);
#1340 = EDGE_CURVE('',#1317,#1341,#1343,.T.);
#1341 = VERTEX_POINT('',#1342);
#1342 = CARTESIAN_POINT('',(133.8,-61.50294372515,9.2));
#1343 = LINE('',#1344,#1345);
#1344 = CARTESIAN_POINT('',(129.42720779386,-65.87573593128,9.2));
#1345 = VECTOR('',#1346,1.);
#1346 = DIRECTION('',(0.707106781187,0.707106781187,0.));
#1347 = ORIENTED_EDGE('',*,*,#1326,.T.);
#1348 = ORIENTED_EDGE('',*,*,#724,.T.);
#1349 = ORIENTED_EDGE('',*,*,#1300,.F.);
#1350 = ORIENTED_EDGE('',*,*,#1094,.T.);
#1351 = ORIENTED_EDGE('',*,*,#1352,.F.);
#1352 = EDGE_CURVE('',#1341,#1095,#1353,.T.);
#1353 = LINE('',#1354,#1355);
#1354 = CARTESIAN_POINT('',(133.8,-61.50294372515,6.2));
#1355 = VECTOR('',#1356,1.);
#1356 = DIRECTION('',(0.,0.,1.));
#1357 = PLANE('',#1358);
#1358 = AXIS2_PLACEMENT_3D('',#1359,#1360,#1361);
#1359 = CARTESIAN_POINT('',(128.00294372515,-67.3,6.2));
#1360 = DIRECTION('',(-0.707106781187,0.707106781187,0.));
#1361 = DIRECTION('',(0.707106781187,0.707106781187,0.));
#1362 = ADVANCED_FACE('',(#1363),#1382,.F.);
#1363 = FACE_BOUND('',#1364,.F.);
#1364 = EDGE_LOOP('',(#1365,#1373,#1379,#1380,#1381));
#1365 = ORIENTED_EDGE('',*,*,#1366,.F.);
#1366 = EDGE_CURVE('',#1367,#876,#1369,.T.);
#1367 = VERTEX_POINT('',#1368);
#1368 = CARTESIAN_POINT('',(133.8,-53.4,9.2));
#1369 = LINE('',#1370,#1371);
#1370 = CARTESIAN_POINT('',(128.3,-53.4,9.2));
#1371 = VECTOR('',#1372,1.);
#1372 = DIRECTION('',(1.,0.,0.));
#1373 = ORIENTED_EDGE('',*,*,#1374,.F.);
#1374 = EDGE_CURVE('',#1341,#1367,#1375,.T.);
#1375 = LINE('',#1376,#1377);
#1376 = CARTESIAN_POINT('',(133.8,-61.70147186257,9.2));
#1377 = VECTOR('',#1378,1.);
#1378 = DIRECTION('',(0.,1.,0.));
#1379 = ORIENTED_EDGE('',*,*,#1340,.F.);
#1380 = ORIENTED_EDGE('',*,*,#1316,.T.);
#1381 = ORIENTED_EDGE('',*,*,#883,.T.);
#1382 = PLANE('',#1383);
#1383 = AXIS2_PLACEMENT_3D('',#1384,#1385,#1386);
#1384 = CARTESIAN_POINT('',(128.3,-61.9,9.2));
#1385 = DIRECTION('',(0.,0.,1.));
#1386 = DIRECTION('',(1.,0.,0.));
#1387 = ADVANCED_FACE('',(#1388),#1406,.F.);
#1388 = FACE_BOUND('',#1389,.F.);
#1389 = EDGE_LOOP('',(#1390,#1391,#1392,#1400));
#1390 = ORIENTED_EDGE('',*,*,#1366,.T.);
#1391 = ORIENTED_EDGE('',*,*,#875,.T.);
#1392 = ORIENTED_EDGE('',*,*,#1393,.T.);
#1393 = EDGE_CURVE('',#868,#1394,#1396,.T.);
#1394 = VERTEX_POINT('',#1395);
#1395 = CARTESIAN_POINT('',(133.8,-53.4,6.3));
#1396 = LINE('',#1397,#1398);
#1397 = CARTESIAN_POINT('',(119.65,-53.4,6.3));
#1398 = VECTOR('',#1399,1.);
#1399 = DIRECTION('',(-1.,0.,0.));
#1400 = ORIENTED_EDGE('',*,*,#1401,.F.);
#1401 = EDGE_CURVE('',#1367,#1394,#1402,.T.);
#1402 = LINE('',#1403,#1404);
#1403 = CARTESIAN_POINT('',(133.8,-53.4,5.65));
#1404 = VECTOR('',#1405,1.);
#1405 = DIRECTION('',(0.,0.,-1.));
#1406 = PLANE('',#1407);
#1407 = AXIS2_PLACEMENT_3D('',#1408,#1409,#1410);
#1408 = CARTESIAN_POINT('',(128.3,-53.4,5.1));
#1409 = DIRECTION('',(0.,1.,0.));
#1410 = DIRECTION('',(0.,0.,1.));
#1411 = ADVANCED_FACE('',(#1412),#1448,.F.);
#1412 = FACE_BOUND('',#1413,.F.);
#1413 = EDGE_LOOP('',(#1414,#1415,#1416,#1417,#1418,#1426,#1434,#1442));
#1414 = ORIENTED_EDGE('',*,*,#1393,.F.);
#1415 = ORIENTED_EDGE('',*,*,#867,.F.);
#1416 = ORIENTED_EDGE('',*,*,#924,.F.);
#1417 = ORIENTED_EDGE('',*,*,#1007,.F.);
#1418 = ORIENTED_EDGE('',*,*,#1419,.F.);
#1419 = EDGE_CURVE('',#1420,#1000,#1422,.T.);
#1420 = VERTEX_POINT('',#1421);
#1421 = CARTESIAN_POINT('',(129.3,-12.2,6.3));
#1422 = LINE('',#1423,#1424);
#1423 = CARTESIAN_POINT('',(129.3,-15.5,6.3));
#1424 = VECTOR('',#1425,1.);
#1425 = DIRECTION('',(0.,1.,0.));
#1426 = ORIENTED_EDGE('',*,*,#1427,.T.);
#1427 = EDGE_CURVE('',#1420,#1428,#1430,.T.);
#1428 = VERTEX_POINT('',#1429);
#1429 = CARTESIAN_POINT('',(131.50294372515,-12.2,6.3));
#1430 = LINE('',#1431,#1432);
#1431 = CARTESIAN_POINT('',(121.25147186257,-12.2,6.3));
#1432 = VECTOR('',#1433,1.);
#1433 = DIRECTION('',(1.,0.,0.));
#1434 = ORIENTED_EDGE('',*,*,#1435,.T.);
#1435 = EDGE_CURVE('',#1428,#1436,#1438,.T.);
#1436 = VERTEX_POINT('',#1437);
#1437 = CARTESIAN_POINT('',(133.8,-14.49705627484,6.3));
#1438 = LINE('',#1439,#1440);
#1439 = CARTESIAN_POINT('',(127.22573593128,-7.922792206136,6.3));
#1440 = VECTOR('',#1441,1.);
#1441 = DIRECTION('',(0.707106781187,-0.707106781187,0.));
#1442 = ORIENTED_EDGE('',*,*,#1443,.T.);
#1443 = EDGE_CURVE('',#1436,#1394,#1444,.T.);
#1444 = LINE('',#1445,#1446);
#1445 = CARTESIAN_POINT('',(133.8,-36.25147186257,6.3));
#1446 = VECTOR('',#1447,1.);
#1447 = DIRECTION('',(0.,-1.,0.));
#1448 = PLANE('',#1449);
#1449 = AXIS2_PLACEMENT_3D('',#1450,#1451,#1452);
#1450 = CARTESIAN_POINT('',(111.,-11.,6.3));
#1451 = DIRECTION('',(0.,0.,1.));
#1452 = DIRECTION('',(0.291161615783,-0.956673880429,0.));
#1453 = ADVANCED_FACE('',(#1454),#1479,.F.);
#1454 = FACE_BOUND('',#1455,.F.);
#1455 = EDGE_LOOP('',(#1456,#1464,#1472,#1478));
#1456 = ORIENTED_EDGE('',*,*,#1457,.F.);
#1457 = EDGE_CURVE('',#1458,#944,#1460,.T.);
#1458 = VERTEX_POINT('',#1459);
#1459 = CARTESIAN_POINT('',(132.6,-13.29705627484,12.7));
#1460 = LINE('',#1461,#1462);
#1461 = CARTESIAN_POINT('',(132.6,-48.1,12.7));
#1462 = VECTOR('',#1463,1.);
#1463 = DIRECTION('',(0.,1.,0.));
#1464 = ORIENTED_EDGE('',*,*,#1465,.F.);
#1465 = EDGE_CURVE('',#1466,#1458,#1468,.T.);
#1466 = VERTEX_POINT('',#1467);
#1467 = CARTESIAN_POINT('',(132.6,-13.29705627484,8.5));
#1468 = LINE('',#1469,#1470);
#1469 = CARTESIAN_POINT('',(132.6,-13.29705627484,7.35));
#1470 = VECTOR('',#1471,1.);
#1471 = DIRECTION('',(0.,0.,1.));
#1472 = ORIENTED_EDGE('',*,*,#1473,.T.);
#1473 = EDGE_CURVE('',#1466,#942,#1474,.T.);
#1474 = LINE('',#1475,#1476);
#1475 = CARTESIAN_POINT('',(132.6,-48.1,8.5));
#1476 = VECTOR('',#1477,1.);
#1477 = DIRECTION('',(0.,1.,0.));
#1478 = ORIENTED_EDGE('',*,*,#941,.T.);
#1479 = PLANE('',#1480);
#1480 = AXIS2_PLACEMENT_3D('',#1481,#1482,#1483);
#1481 = CARTESIAN_POINT('',(132.6,-48.1,8.5));
#1482 = DIRECTION('',(1.,0.,0.));
#1483 = DIRECTION('',(0.,0.,1.));
#1484 = ADVANCED_FACE('',(#1485),#1510,.F.);
#1485 = FACE_BOUND('',#1486,.F.);
#1486 = EDGE_LOOP('',(#1487,#1495,#1496,#1502,#1503,#1504));
#1487 = ORIENTED_EDGE('',*,*,#1488,.F.);
#1488 = EDGE_CURVE('',#1201,#1489,#1491,.T.);
#1489 = VERTEX_POINT('',#1490);
#1490 = CARTESIAN_POINT('',(113.,-11.4,12.7));
#1491 = LINE('',#1492,#1493);
#1492 = CARTESIAN_POINT('',(113.,-48.1,12.7));
#1493 = VECTOR('',#1494,1.);
#1494 = DIRECTION('',(0.,1.,0.));
#1495 = ORIENTED_EDGE('',*,*,#1208,.F.);
#1496 = ORIENTED_EDGE('',*,*,#1497,.F.);
#1497 = EDGE_CURVE('',#1458,#1209,#1498,.T.);
#1498 = LINE('',#1499,#1500);
#1499 = CARTESIAN_POINT('',(137.00073593128,-17.69779220613,12.7));
#1500 = VECTOR('',#1501,1.);
#1501 = DIRECTION('',(-0.707106781187,0.707106781187,0.));
#1502 = ORIENTED_EDGE('',*,*,#1457,.T.);
#1503 = ORIENTED_EDGE('',*,*,#967,.T.);
#1504 = ORIENTED_EDGE('',*,*,#1505,.F.);
#1505 = EDGE_CURVE('',#1489,#960,#1506,.T.);
#1506 = LINE('',#1507,#1508);
#1507 = CARTESIAN_POINT('',(113.,-11.4,12.7));
#1508 = VECTOR('',#1509,1.);
#1509 = DIRECTION('',(1.,0.,0.));
#1510 = PLANE('',#1511);
#1511 = AXIS2_PLACEMENT_3D('',#1512,#1513,#1514);
#1512 = CARTESIAN_POINT('',(113.,-48.1,12.7));
#1513 = DIRECTION('',(0.,0.,1.));
#1514 = DIRECTION('',(1.,0.,0.));
#1515 = ADVANCED_FACE('',(#1516),#1557,.F.);
#1516 = FACE_BOUND('',#1517,.F.);
#1517 = EDGE_LOOP('',(#1518,#1526,#1532,#1533,#1534,#1542,#1550,#1556));
#1518 = ORIENTED_EDGE('',*,*,#1519,.F.);
#1519 = EDGE_CURVE('',#1520,#1153,#1522,.T.);
#1520 = VERTEX_POINT('',#1521);
#1521 = CARTESIAN_POINT('',(113.,-11.4,8.5));
#1522 = LINE('',#1523,#1524);
#1523 = CARTESIAN_POINT('',(113.,-11.4,8.5));
#1524 = VECTOR('',#1525,1.);
#1525 = DIRECTION('',(1.,0.,0.));
#1526 = ORIENTED_EDGE('',*,*,#1527,.T.);
#1527 = EDGE_CURVE('',#1520,#1489,#1528,.T.);
#1528 = LINE('',#1529,#1530);
#1529 = CARTESIAN_POINT('',(113.,-11.4,8.5));
#1530 = VECTOR('',#1531,1.);
#1531 = DIRECTION('',(0.,0.,1.));
#1532 = ORIENTED_EDGE('',*,*,#1505,.T.);
#1533 = ORIENTED_EDGE('',*,*,#959,.T.);
#1534 = ORIENTED_EDGE('',*,*,#1535,.F.);
#1535 = EDGE_CURVE('',#1536,#952,#1538,.T.);
#1536 = VERTEX_POINT('',#1537);
#1537 = CARTESIAN_POINT('',(129.3,-11.4,8.5));
#1538 = LINE('',#1539,#1540);
#1539 = CARTESIAN_POINT('',(113.,-11.4,8.5));
#1540 = VECTOR('',#1541,1.);
#1541 = DIRECTION('',(1.,0.,0.));
#1542 = ORIENTED_EDGE('',*,*,#1543,.T.);
#1543 = EDGE_CURVE('',#1536,#1544,#1546,.T.);
#1544 = VERTEX_POINT('',#1545);
#1545 = CARTESIAN_POINT('',(129.3,-11.4,11.8));
#1546 = LINE('',#1547,#1548);
#1547 = CARTESIAN_POINT('',(129.3,-11.4,7.35));
#1548 = VECTOR('',#1549,1.);
#1549 = DIRECTION('',(0.,0.,1.));
#1550 = ORIENTED_EDGE('',*,*,#1551,.T.);
#1551 = EDGE_CURVE('',#1544,#1145,#1552,.T.);
#1552 = LINE('',#1553,#1554);
#1553 = CARTESIAN_POINT('',(114.65,-11.4,11.8));
#1554 = VECTOR('',#1555,1.);
#1555 = DIRECTION('',(-1.,0.,0.));
#1556 = ORIENTED_EDGE('',*,*,#1152,.F.);
#1557 = PLANE('',#1558);
#1558 = AXIS2_PLACEMENT_3D('',#1559,#1560,#1561);
#1559 = CARTESIAN_POINT('',(113.,-11.4,8.5));
#1560 = DIRECTION('',(0.,1.,0.));
#1561 = DIRECTION('',(0.,0.,1.));
#1562 = ADVANCED_FACE('',(#1563),#1590,.T.);
#1563 = FACE_BOUND('',#1564,.T.);
#1564 = EDGE_LOOP('',(#1565,#1573,#1574,#1575,#1576,#1584));
#1565 = ORIENTED_EDGE('',*,*,#1566,.F.);
#1566 = EDGE_CURVE('',#1466,#1567,#1569,.T.);
#1567 = VERTEX_POINT('',#1568);
#1568 = CARTESIAN_POINT('',(131.50294372515,-12.2,8.5));
#1569 = LINE('',#1570,#1571);
#1570 = CARTESIAN_POINT('',(137.00073593128,-17.69779220613,8.5));
#1571 = VECTOR('',#1572,1.);
#1572 = DIRECTION('',(-0.707106781187,0.707106781187,0.));
#1573 = ORIENTED_EDGE('',*,*,#1473,.T.);
#1574 = ORIENTED_EDGE('',*,*,#951,.T.);
#1575 = ORIENTED_EDGE('',*,*,#1535,.F.);
#1576 = ORIENTED_EDGE('',*,*,#1577,.T.);
#1577 = EDGE_CURVE('',#1536,#1578,#1580,.T.);
#1578 = VERTEX_POINT('',#1579);
#1579 = CARTESIAN_POINT('',(129.3,-12.2,8.5));
#1580 = LINE('',#1581,#1582);
#1581 = CARTESIAN_POINT('',(129.3,-34.05,8.5));
#1582 = VECTOR('',#1583,1.);
#1583 = DIRECTION('',(0.,-1.,0.));
#1584 = ORIENTED_EDGE('',*,*,#1585,.F.);
#1585 = EDGE_CURVE('',#1567,#1578,#1586,.T.);
#1586 = LINE('',#1587,#1588);
#1587 = CARTESIAN_POINT('',(122.25147186257,-12.2,8.5));
#1588 = VECTOR('',#1589,1.);
#1589 = DIRECTION('',(-1.,0.,0.));
#1590 = PLANE('',#1591);
#1591 = AXIS2_PLACEMENT_3D('',#1592,#1593,#1594);
#1592 = CARTESIAN_POINT('',(113.,-48.1,8.5));
#1593 = DIRECTION('',(0.,0.,1.));
#1594 = DIRECTION('',(1.,0.,0.));
#1595 = ADVANCED_FACE('',(#1596),#1614,.F.);
#1596 = FACE_BOUND('',#1597,.F.);
#1597 = EDGE_LOOP('',(#1598,#1604,#1605,#1606,#1612,#1613));
#1598 = ORIENTED_EDGE('',*,*,#1599,.F.);
#1599 = EDGE_CURVE('',#1544,#992,#1600,.T.);
#1600 = LINE('',#1601,#1602);
#1601 = CARTESIAN_POINT('',(129.3,-20.,11.8));
#1602 = VECTOR('',#1603,1.);
#1603 = DIRECTION('',(0.,1.,0.));
#1604 = ORIENTED_EDGE('',*,*,#1543,.F.);
#1605 = ORIENTED_EDGE('',*,*,#1577,.T.);
#1606 = ORIENTED_EDGE('',*,*,#1607,.F.);
#1607 = EDGE_CURVE('',#1420,#1578,#1608,.T.);
#1608 = LINE('',#1609,#1610);
#1609 = CARTESIAN_POINT('',(129.3,-12.2,6.2));
#1610 = VECTOR('',#1611,1.);
#1611 = DIRECTION('',(0.,0.,1.));
#1612 = ORIENTED_EDGE('',*,*,#1419,.T.);
#1613 = ORIENTED_EDGE('',*,*,#999,.T.);
#1614 = PLANE('',#1615);
#1615 = AXIS2_PLACEMENT_3D('',#1616,#1617,#1618);
#1616 = CARTESIAN_POINT('',(129.3,-20.,6.2));
#1617 = DIRECTION('',(1.,0.,0.));
#1618 = DIRECTION('',(0.,0.,1.));
#1619 = ADVANCED_FACE('',(#1620),#1626,.F.);
#1620 = FACE_BOUND('',#1621,.F.);
#1621 = EDGE_LOOP('',(#1622,#1623,#1624,#1625));
#1622 = ORIENTED_EDGE('',*,*,#1144,.F.);
#1623 = ORIENTED_EDGE('',*,*,#1551,.F.);
#1624 = ORIENTED_EDGE('',*,*,#1599,.T.);
#1625 = ORIENTED_EDGE('',*,*,#991,.T.);
#1626 = PLANE('',#1627);
#1627 = AXIS2_PLACEMENT_3D('',#1628,#1629,#1630);
#1628 = CARTESIAN_POINT('',(116.3,-20.,11.8));
#1629 = DIRECTION('',(0.,0.,1.));
#1630 = DIRECTION('',(1.,0.,0.));
#1631 = ADVANCED_FACE('',(#1632),#1651,.F.);
#1632 = FACE_BOUND('',#1633,.T.);
#1633 = EDGE_LOOP('',(#1634,#1642,#1649,#1650));
#1634 = ORIENTED_EDGE('',*,*,#1635,.F.);
#1635 = EDGE_CURVE('',#1636,#1027,#1638,.T.);
#1636 = VERTEX_POINT('',#1637);
#1637 = CARTESIAN_POINT('',(115.65,-64.,6.3));
#1638 = LINE('',#1639,#1640);
#1639 = CARTESIAN_POINT('',(115.65,-64.,6.2));
#1640 = VECTOR('',#1641,1.);
#1641 = DIRECTION('',(0.,0.,1.));
#1642 = ORIENTED_EDGE('',*,*,#1643,.T.);
#1643 = EDGE_CURVE('',#1636,#1636,#1644,.T.);
#1644 = CIRCLE('',#1645,1.15);
#1645 = AXIS2_PLACEMENT_3D('',#1646,#1647,#1648);
#1646 = CARTESIAN_POINT('',(114.5,-64.,6.3));
#1647 = DIRECTION('',(0.,0.,-1.));
#1648 = DIRECTION('',(1.,0.,0.));
#1649 = ORIENTED_EDGE('',*,*,#1635,.T.);
#1650 = ORIENTED_EDGE('',*,*,#1026,.F.);
#1651 = CYLINDRICAL_SURFACE('',#1652,1.15);
#1652 = AXIS2_PLACEMENT_3D('',#1653,#1654,#1655);
#1653 = CARTESIAN_POINT('',(114.5,-64.,6.2));
#1654 = DIRECTION('',(-0.,-0.,-1.));
#1655 = DIRECTION('',(1.,0.,0.));
#1656 = ADVANCED_FACE('',(#1657),#1677,.T.);
#1657 = FACE_BOUND('',#1658,.T.);
#1658 = EDGE_LOOP('',(#1659,#1665,#1666,#1672,#1673,#1674,#1675,#1676));
#1659 = ORIENTED_EDGE('',*,*,#1660,.F.);
#1660 = EDGE_CURVE('',#1428,#1567,#1661,.T.);
#1661 = LINE('',#1662,#1663);
#1662 = CARTESIAN_POINT('',(131.50294372515,-12.2,6.2));
#1663 = VECTOR('',#1664,1.);
#1664 = DIRECTION('',(0.,0.,1.));
#1665 = ORIENTED_EDGE('',*,*,#1435,.T.);
#1666 = ORIENTED_EDGE('',*,*,#1667,.T.);
#1667 = EDGE_CURVE('',#1436,#1103,#1668,.T.);
#1668 = LINE('',#1669,#1670);
#1669 = CARTESIAN_POINT('',(133.8,-14.49705627484,6.2));
#1670 = VECTOR('',#1671,1.);
#1671 = DIRECTION('',(0.,0.,1.));
#1672 = ORIENTED_EDGE('',*,*,#1110,.T.);
#1673 = ORIENTED_EDGE('',*,*,#1216,.F.);
#1674 = ORIENTED_EDGE('',*,*,#1497,.F.);
#1675 = ORIENTED_EDGE('',*,*,#1465,.F.);
#1676 = ORIENTED_EDGE('',*,*,#1566,.T.);
#1677 = PLANE('',#1678);
#1678 = AXIS2_PLACEMENT_3D('',#1679,#1680,#1681);
#1679 = CARTESIAN_POINT('',(133.8,-14.49705627484,6.2));
#1680 = DIRECTION('',(-0.707106781187,-0.707106781187,0.));
#1681 = DIRECTION('',(-0.707106781187,0.707106781187,0.));
#1682 = ADVANCED_FACE('',(#1683),#1691,.T.);
#1683 = FACE_BOUND('',#1684,.T.);
#1684 = EDGE_LOOP('',(#1685,#1686,#1687,#1688,#1689,#1690));
#1685 = ORIENTED_EDGE('',*,*,#1667,.F.);
#1686 = ORIENTED_EDGE('',*,*,#1443,.T.);
#1687 = ORIENTED_EDGE('',*,*,#1401,.F.);
#1688 = ORIENTED_EDGE('',*,*,#1374,.F.);
#1689 = ORIENTED_EDGE('',*,*,#1352,.T.);
#1690 = ORIENTED_EDGE('',*,*,#1102,.T.);
#1691 = PLANE('',#1692);
#1692 = AXIS2_PLACEMENT_3D('',#1693,#1694,#1695);
#1693 = CARTESIAN_POINT('',(133.8,-61.50294372515,6.2));
#1694 = DIRECTION('',(-1.,0.,0.));
#1695 = DIRECTION('',(0.,1.,0.));
#1696 = ADVANCED_FACE('',(#1697),#1716,.T.);
#1697 = FACE_BOUND('',#1698,.F.);
#1698 = EDGE_LOOP('',(#1699,#1708,#1714,#1715));
#1699 = ORIENTED_EDGE('',*,*,#1700,.F.);
#1700 = EDGE_CURVE('',#1701,#1701,#1703,.T.);
#1701 = VERTEX_POINT('',#1702);
#1702 = CARTESIAN_POINT('',(116.6,-64.,6.3));
#1703 = CIRCLE('',#1704,2.1);
#1704 = AXIS2_PLACEMENT_3D('',#1705,#1706,#1707);
#1705 = CARTESIAN_POINT('',(114.5,-64.,6.3));
#1706 = DIRECTION('',(0.,0.,1.));
#1707 = DIRECTION('',(1.,0.,0.));
#1708 = ORIENTED_EDGE('',*,*,#1709,.T.);
#1709 = EDGE_CURVE('',#1701,#1119,#1710,.T.);
#1710 = LINE('',#1711,#1712);
#1711 = CARTESIAN_POINT('',(116.6,-64.,6.3));
#1712 = VECTOR('',#1713,1.);
#1713 = DIRECTION('',(0.,0.,1.));
#1714 = ORIENTED_EDGE('',*,*,#1118,.F.);
#1715 = ORIENTED_EDGE('',*,*,#1709,.F.);
#1716 = CYLINDRICAL_SURFACE('',#1717,2.1);
#1717 = AXIS2_PLACEMENT_3D('',#1718,#1719,#1720);
#1718 = CARTESIAN_POINT('',(114.5,-64.,6.3));
#1719 = DIRECTION('',(-0.,-0.,-1.));
#1720 = DIRECTION('',(1.,0.,0.));
#1721 = ADVANCED_FACE('',(#1722),#1733,.T.);
#1722 = FACE_BOUND('',#1723,.T.);
#1723 = EDGE_LOOP('',(#1724,#1730,#1731,#1732));
#1724 = ORIENTED_EDGE('',*,*,#1725,.F.);
#1725 = EDGE_CURVE('',#1193,#1520,#1726,.T.);
#1726 = LINE('',#1727,#1728);
#1727 = CARTESIAN_POINT('',(113.,-48.1,8.5));
#1728 = VECTOR('',#1729,1.);
#1729 = DIRECTION('',(0.,1.,0.));
#1730 = ORIENTED_EDGE('',*,*,#1192,.F.);
#1731 = ORIENTED_EDGE('',*,*,#1160,.F.);
#1732 = ORIENTED_EDGE('',*,*,#1519,.F.);
#1733 = PLANE('',#1734);
#1734 = AXIS2_PLACEMENT_3D('',#1735,#1736,#1737);
#1735 = CARTESIAN_POINT('',(113.,-48.1,8.5));
#1736 = DIRECTION('',(0.,0.,1.));
#1737 = DIRECTION('',(1.,0.,0.));
#1738 = ADVANCED_FACE('',(#1739),#1745,.T.);
#1739 = FACE_BOUND('',#1740,.T.);
#1740 = EDGE_LOOP('',(#1741,#1742,#1743,#1744));
#1741 = ORIENTED_EDGE('',*,*,#1488,.F.);
#1742 = ORIENTED_EDGE('',*,*,#1200,.F.);
#1743 = ORIENTED_EDGE('',*,*,#1725,.T.);
#1744 = ORIENTED_EDGE('',*,*,#1527,.T.);
#1745 = PLANE('',#1746);
#1746 = AXIS2_PLACEMENT_3D('',#1747,#1748,#1749);
#1747 = CARTESIAN_POINT('',(113.,-48.1,8.5));
#1748 = DIRECTION('',(1.,0.,0.));
#1749 = DIRECTION('',(0.,0.,1.));
#1750 = ADVANCED_FACE('',(#1751),#1757,.T.);
#1751 = FACE_BOUND('',#1752,.T.);
#1752 = EDGE_LOOP('',(#1753,#1754,#1755,#1756));
#1753 = ORIENTED_EDGE('',*,*,#1660,.T.);
#1754 = ORIENTED_EDGE('',*,*,#1585,.T.);
#1755 = ORIENTED_EDGE('',*,*,#1607,.F.);
#1756 = ORIENTED_EDGE('',*,*,#1427,.T.);
#1757 = PLANE('',#1758);
#1758 = AXIS2_PLACEMENT_3D('',#1759,#1760,#1761);
#1759 = CARTESIAN_POINT('',(131.50294372515,-12.2,6.2));
#1760 = DIRECTION('',(0.,-1.,0.));
#1761 = DIRECTION('',(-1.,0.,0.));
#1762 = ADVANCED_FACE('',(#1763,#1766),#1769,.F.);
#1763 = FACE_BOUND('',#1764,.F.);
#1764 = EDGE_LOOP('',(#1765));
#1765 = ORIENTED_EDGE('',*,*,#1700,.T.);
#1766 = FACE_BOUND('',#1767,.F.);
#1767 = EDGE_LOOP('',(#1768));
#1768 = ORIENTED_EDGE('',*,*,#1643,.T.);
#1769 = PLANE('',#1770);
#1770 = AXIS2_PLACEMENT_3D('',#1771,#1772,#1773);
#1771 = CARTESIAN_POINT('',(114.5,-64.,6.3));
#1772 = DIRECTION('',(0.,0.,1.));
#1773 = DIRECTION('',(1.,0.,0.));
#1774 = ( GEOMETRIC_REPRESENTATION_CONTEXT(3) 
GLOBAL_UNCERTAINTY_ASSIGNED_CONTEXT((#1778)) 
GLOBAL_UNIT_ASSIGNED_CONTEXT((#1775,#1776,#1777)) REPRESENTATION_CONTEXT
('Context #1','3D Context with UNIT and UNCERTAINTY') );
#1775 = ( LENGTH_UNIT() NAMED_UNIT(*) SI_UNIT(.MILLI.,.METRE.) );
#1776 = ( NAMED_UNIT(*) PLANE_ANGLE_UNIT() SI_UNIT($,.RADIAN.) );
#1777 = ( NAMED_UNIT(*) SI_UNIT($,.STERADIAN.) SOLID_ANGLE_UNIT() );
#1778 = UNCERTAINTY_MEASURE_WITH_UNIT(LENGTH_MEASURE(2.E-05),#1775,
  'distance_accuracy_value','confusion accuracy');
#1779 = PRODUCT_RELATED_PRODUCT_CATEGORY('part',$,(#7));
ENDSEC;
END-ISO-10303-21;
