ISO-10303-21;
HEADER;
FILE_DESCRIPTION(('FreeCAD Model'),'2;1');
FILE_NAME('Open CASCADE Shape Model','2026-09-21T18:58:29',('FreeCAD'),(
    'FreeCAD'),'Open CASCADE STEP processor 7.8','FreeCAD','Unknown');
FILE_SCHEMA(('AUTOMOTIVE_DESIGN { 1 0 10303 214 1 1 1 1 }'));
ENDSEC;
DATA;
#1 = APPLICATION_PROTOCOL_DEFINITION('international standard',
  'automotive_design',2000,#2);
#2 = APPLICATION_CONTEXT(
  'core data for automotive mechanical design processes');
#3 = SHAPE_DEFINITION_REPRESENTATION(#4,#10);
#4 = PRODUCT_DEFINITION_SHAPE('','',#5);
#5 = PRODUCT_DEFINITION('design','',#6,#9);
#6 = PRODUCT_DEFINITION_FORMATION('','',#7);
#7 = PRODUCT('Open CASCADE STEP translator 7.8 29',
  'Open CASCADE STEP translator 7.8 29','',(#8));
#8 = PRODUCT_CONTEXT('',#2,'mechanical');
#9 = PRODUCT_DEFINITION_CONTEXT('part definition',#2,'design');
#10 = ADVANCED_BREP_SHAPE_REPRESENTATION('',(#11,#15),#1778);
#11 = AXIS2_PLACEMENT_3D('',#12,#13,#14);
#12 = CARTESIAN_POINT('',(0.,0.,0.));
#13 = DIRECTION('',(0.,0.,1.));
#14 = DIRECTION('',(1.,0.,-0.));
#15 = MANIFOLD_SOLID_BREP('',#16);
#16 = CLOSED_SHELL('',(#17,#50,#70,#210,#235,#264,#287,#310,#333,#356,
    #379,#418,#457,#491,#516,#541,#572,#596,#620,#637,#785,#837,#853,
    #910,#926,#972,#988,#1000,#1012,#1122,#1142,#1166,#1183,#1200,#1233,
    #1250,#1267,#1284,#1333,#1366,#1415,#1455,#1472,#1510,#1543,#1576,
    #1593,#1618,#1635,#1661,#1675,#1700,#1725,#1742,#1754,#1766));
#17 = ADVANCED_FACE('',(#18),#45,.F.);
#18 = FACE_BOUND('',#19,.T.);
#19 = EDGE_LOOP('',(#20,#29,#37,#44));
#20 = ORIENTED_EDGE('',*,*,#21,.F.);
#21 = EDGE_CURVE('',#22,#22,#24,.T.);
#22 = VERTEX_POINT('',#23);
#23 = CARTESIAN_POINT('',(31.25,-64.,14.9));
#24 = CIRCLE('',#25,1.85);
#25 = AXIS2_PLACEMENT_3D('',#26,#27,#28);
#26 = CARTESIAN_POINT('',(29.4,-64.,14.9));
#27 = DIRECTION('',(0.,0.,1.));
#28 = DIRECTION('',(1.,0.,0.));
#29 = ORIENTED_EDGE('',*,*,#30,.T.);
#30 = EDGE_CURVE('',#22,#31,#33,.T.);
#31 = VERTEX_POINT('',#32);
#32 = CARTESIAN_POINT('',(31.25,-64.,16.6));
#33 = LINE('',#34,#35);
#34 = CARTESIAN_POINT('',(31.25,-64.,14.9));
#35 = VECTOR('',#36,1.);
#36 = DIRECTION('',(0.,0.,1.));
#37 = ORIENTED_EDGE('',*,*,#38,.F.);
#38 = EDGE_CURVE('',#31,#31,#39,.T.);
#39 = CIRCLE('',#40,1.85);
#40 = AXIS2_PLACEMENT_3D('',#41,#42,#43);
#41 = CARTESIAN_POINT('',(29.4,-64.,16.6));
#42 = DIRECTION('',(0.,0.,-1.));
#43 = DIRECTION('',(1.,0.,0.));
#44 = ORIENTED_EDGE('',*,*,#30,.F.);
#45 = CYLINDRICAL_SURFACE('',#46,1.85);
#46 = AXIS2_PLACEMENT_3D('',#47,#48,#49);
#47 = CARTESIAN_POINT('',(29.4,-64.,14.9));
#48 = DIRECTION('',(-0.,-0.,-1.));
#49 = DIRECTION('',(1.,0.,0.));
#50 = ADVANCED_FACE('',(#51,#54),#65,.T.);
#51 = FACE_BOUND('',#52,.T.);
#52 = EDGE_LOOP('',(#53));
#53 = ORIENTED_EDGE('',*,*,#21,.T.);
#54 = FACE_BOUND('',#55,.T.);
#55 = EDGE_LOOP('',(#56));
#56 = ORIENTED_EDGE('',*,*,#57,.T.);
#57 = EDGE_CURVE('',#58,#58,#60,.T.);
#58 = VERTEX_POINT('',#59);
#59 = CARTESIAN_POINT('',(30.55,-64.,14.9));
#60 = CIRCLE('',#61,1.15);
#61 = AXIS2_PLACEMENT_3D('',#62,#63,#64);
#62 = CARTESIAN_POINT('',(29.4,-64.,14.9));
#63 = DIRECTION('',(0.,0.,-1.));
#64 = DIRECTION('',(1.,0.,0.));
#65 = PLANE('',#66);
#66 = AXIS2_PLACEMENT_3D('',#67,#68,#69);
#67 = CARTESIAN_POINT('',(29.4,-64.,14.9));
#68 = DIRECTION('',(0.,0.,1.));
#69 = DIRECTION('',(1.,0.,0.));
#70 = ADVANCED_FACE('',(#71,#146,#149,#160,#171),#205,.T.);
#71 = FACE_BOUND('',#72,.T.);
#72 = EDGE_LOOP('',(#73,#83,#91,#99,#107,#116,#124,#132,#140));
#73 = ORIENTED_EDGE('',*,*,#74,.T.);
#74 = EDGE_CURVE('',#75,#77,#79,.T.);
#75 = VERTEX_POINT('',#76);
#76 = CARTESIAN_POINT('',(48.,-12.,16.6));
#77 = VERTEX_POINT('',#78);
#78 = CARTESIAN_POINT('',(28.414213562373,-12.,16.6));
#79 = LINE('',#80,#81);
#80 = CARTESIAN_POINT('',(48.,-12.,16.6));
#81 = VECTOR('',#82,1.);
#82 = DIRECTION('',(-1.,0.,0.));
#83 = ORIENTED_EDGE('',*,*,#84,.T.);
#84 = EDGE_CURVE('',#77,#85,#87,.T.);
#85 = VERTEX_POINT('',#86);
#86 = CARTESIAN_POINT('',(26.,-14.41421356237,16.6));
#87 = LINE('',#88,#89);
#88 = CARTESIAN_POINT('',(28.414213562373,-12.,16.6));
#89 = VECTOR('',#90,1.);
#90 = DIRECTION('',(-0.707106781187,-0.707106781187,0.));
#91 = ORIENTED_EDGE('',*,*,#92,.T.);
#92 = EDGE_CURVE('',#85,#93,#95,.T.);
#93 = VERTEX_POINT('',#94);
#94 = CARTESIAN_POINT('',(26.,-61.58578643762,16.6));
#95 = LINE('',#96,#97);
#96 = CARTESIAN_POINT('',(26.,-14.41421356237,16.6));
#97 = VECTOR('',#98,1.);
#98 = DIRECTION('',(0.,-1.,0.));
#99 = ORIENTED_EDGE('',*,*,#100,.T.);
#100 = EDGE_CURVE('',#93,#101,#103,.T.);
#101 = VERTEX_POINT('',#102);
#102 = CARTESIAN_POINT('',(27.506372589826,-63.09215902745,16.6));
#103 = LINE('',#104,#105);
#104 = CARTESIAN_POINT('',(26.,-61.58578643762,16.6));
#105 = VECTOR('',#106,1.);
#106 = DIRECTION('',(0.707106781187,-0.707106781187,0.));
#107 = ORIENTED_EDGE('',*,*,#108,.T.);
#108 = EDGE_CURVE('',#101,#109,#111,.T.);
#109 = VERTEX_POINT('',#110);
#110 = CARTESIAN_POINT('',(30.307840972548,-65.89362741017,16.6));
#111 = CIRCLE('',#112,2.1);
#112 = AXIS2_PLACEMENT_3D('',#113,#114,#115);
#113 = CARTESIAN_POINT('',(29.4,-64.,16.6));
#114 = DIRECTION('',(0.,0.,1.));
#115 = DIRECTION('',(1.,0.,0.));
#116 = ORIENTED_EDGE('',*,*,#117,.T.);
#117 = EDGE_CURVE('',#109,#118,#120,.T.);
#118 = VERTEX_POINT('',#119);
#119 = CARTESIAN_POINT('',(31.914213562373,-67.5,16.6));
#120 = LINE('',#121,#122);
#121 = CARTESIAN_POINT('',(26.,-61.58578643762,16.6));
#122 = VECTOR('',#123,1.);
#123 = DIRECTION('',(0.707106781187,-0.707106781187,0.));
#124 = ORIENTED_EDGE('',*,*,#125,.T.);
#125 = EDGE_CURVE('',#118,#126,#128,.T.);
#126 = VERTEX_POINT('',#127);
#127 = CARTESIAN_POINT('',(45.585786437627,-67.5,16.6));
#128 = LINE('',#129,#130);
#129 = CARTESIAN_POINT('',(31.914213562373,-67.5,16.6));
#130 = VECTOR('',#131,1.);
#131 = DIRECTION('',(1.,0.,0.));
#132 = ORIENTED_EDGE('',*,*,#133,.T.);
#133 = EDGE_CURVE('',#126,#134,#136,.T.);
#134 = VERTEX_POINT('',#135);
#135 = CARTESIAN_POINT('',(48.,-65.08578643762,16.6));
#136 = LINE('',#137,#138);
#137 = CARTESIAN_POINT('',(45.585786437627,-67.5,16.6));
#138 = VECTOR('',#139,1.);
#139 = DIRECTION('',(0.707106781187,0.707106781187,0.));
#140 = ORIENTED_EDGE('',*,*,#141,.T.);
#141 = EDGE_CURVE('',#134,#75,#142,.T.);
#142 = LINE('',#143,#144);
#143 = CARTESIAN_POINT('',(48.,-65.08578643762,16.6));
#144 = VECTOR('',#145,1.);
#145 = DIRECTION('',(0.,1.,0.));
#146 = FACE_BOUND('',#147,.T.);
#147 = EDGE_LOOP('',(#148));
#148 = ORIENTED_EDGE('',*,*,#38,.T.);
#149 = FACE_BOUND('',#150,.T.);
#150 = EDGE_LOOP('',(#151));
#151 = ORIENTED_EDGE('',*,*,#152,.T.);
#152 = EDGE_CURVE('',#153,#153,#155,.T.);
#153 = VERTEX_POINT('',#154);
#154 = CARTESIAN_POINT('',(38.4,-59.5,16.6));
#155 = CIRCLE('',#156,1.4);
#156 = AXIS2_PLACEMENT_3D('',#157,#158,#159);
#157 = CARTESIAN_POINT('',(37.,-59.5,16.6));
#158 = DIRECTION('',(0.,0.,-1.));
#159 = DIRECTION('',(1.,0.,0.));
#160 = FACE_BOUND('',#161,.T.);
#161 = EDGE_LOOP('',(#162));
#162 = ORIENTED_EDGE('',*,*,#163,.T.);
#163 = EDGE_CURVE('',#164,#164,#166,.T.);
#164 = VERTEX_POINT('',#165);
#165 = CARTESIAN_POINT('',(47.35,-64.,16.6));
#166 = CIRCLE('',#167,1.85);
#167 = AXIS2_PLACEMENT_3D('',#168,#169,#170);
#168 = CARTESIAN_POINT('',(45.5,-64.,16.6));
#169 = DIRECTION('',(0.,0.,-1.));
#170 = DIRECTION('',(1.,0.,0.));
#171 = FACE_BOUND('',#172,.T.);
#172 = EDGE_LOOP('',(#173,#183,#191,#199));
#173 = ORIENTED_EDGE('',*,*,#174,.T.);
#174 = EDGE_CURVE('',#175,#177,#179,.T.);
#175 = VERTEX_POINT('',#176);
#176 = CARTESIAN_POINT('',(29.95,-18.25,16.6));
#177 = VERTEX_POINT('',#178);
#178 = CARTESIAN_POINT('',(44.45,-18.25,16.6));
#179 = LINE('',#180,#181);
#180 = CARTESIAN_POINT('',(38.975,-18.25,16.6));
#181 = VECTOR('',#182,1.);
#182 = DIRECTION('',(1.,0.,0.));
#183 = ORIENTED_EDGE('',*,*,#184,.T.);
#184 = EDGE_CURVE('',#177,#185,#187,.T.);
#185 = VERTEX_POINT('',#186);
#186 = CARTESIAN_POINT('',(44.45,-49.35,16.6));
#187 = LINE('',#188,#189);
#188 = CARTESIAN_POINT('',(44.45,-30.675,16.6));
#189 = VECTOR('',#190,1.);
#190 = DIRECTION('',(0.,-1.,0.));
#191 = ORIENTED_EDGE('',*,*,#192,.F.);
#192 = EDGE_CURVE('',#193,#185,#195,.T.);
#193 = VERTEX_POINT('',#194);
#194 = CARTESIAN_POINT('',(29.95,-49.35,16.6));
#195 = LINE('',#196,#197);
#196 = CARTESIAN_POINT('',(38.975,-49.35,16.6));
#197 = VECTOR('',#198,1.);
#198 = DIRECTION('',(1.,0.,0.));
#199 = ORIENTED_EDGE('',*,*,#200,.F.);
#200 = EDGE_CURVE('',#175,#193,#201,.T.);
#201 = LINE('',#202,#203);
#202 = CARTESIAN_POINT('',(29.95,-30.675,16.6));
#203 = VECTOR('',#204,1.);
#204 = DIRECTION('',(0.,-1.,0.));
#205 = PLANE('',#206);
#206 = AXIS2_PLACEMENT_3D('',#207,#208,#209);
#207 = CARTESIAN_POINT('',(37.225537223899,-39.25597095578,16.6));
#208 = DIRECTION('',(0.,0.,1.));
#209 = DIRECTION('',(1.,0.,0.));
#210 = ADVANCED_FACE('',(#211),#230,.F.);
#211 = FACE_BOUND('',#212,.T.);
#212 = EDGE_LOOP('',(#213,#221,#228,#229));
#213 = ORIENTED_EDGE('',*,*,#214,.F.);
#214 = EDGE_CURVE('',#215,#58,#217,.T.);
#215 = VERTEX_POINT('',#216);
#216 = CARTESIAN_POINT('',(30.55,-64.,6.3));
#217 = LINE('',#218,#219);
#218 = CARTESIAN_POINT('',(30.55,-64.,6.2));
#219 = VECTOR('',#220,1.);
#220 = DIRECTION('',(0.,0.,1.));
#221 = ORIENTED_EDGE('',*,*,#222,.T.);
#222 = EDGE_CURVE('',#215,#215,#223,.T.);
#223 = CIRCLE('',#224,1.15);
#224 = AXIS2_PLACEMENT_3D('',#225,#226,#227);
#225 = CARTESIAN_POINT('',(29.4,-64.,6.3));
#226 = DIRECTION('',(0.,0.,-1.));
#227 = DIRECTION('',(1.,0.,0.));
#228 = ORIENTED_EDGE('',*,*,#214,.T.);
#229 = ORIENTED_EDGE('',*,*,#57,.F.);
#230 = CYLINDRICAL_SURFACE('',#231,1.15);
#231 = AXIS2_PLACEMENT_3D('',#232,#233,#234);
#232 = CARTESIAN_POINT('',(29.4,-64.,6.2));
#233 = DIRECTION('',(-0.,-0.,-1.));
#234 = DIRECTION('',(1.,0.,0.));
#235 = ADVANCED_FACE('',(#236),#259,.T.);
#236 = FACE_BOUND('',#237,.T.);
#237 = EDGE_LOOP('',(#238,#248,#253,#254));
#238 = ORIENTED_EDGE('',*,*,#239,.T.);
#239 = EDGE_CURVE('',#240,#242,#244,.T.);
#240 = VERTEX_POINT('',#241);
#241 = CARTESIAN_POINT('',(49.,-11.,15.4));
#242 = VERTEX_POINT('',#243);
#243 = CARTESIAN_POINT('',(28.,-11.,15.4));
#244 = LINE('',#245,#246);
#245 = CARTESIAN_POINT('',(49.,-11.,15.4));
#246 = VECTOR('',#247,1.);
#247 = DIRECTION('',(-1.,0.,0.));
#248 = ORIENTED_EDGE('',*,*,#249,.T.);
#249 = EDGE_CURVE('',#242,#77,#250,.T.);
#250 = B_SPLINE_CURVE_WITH_KNOTS('',1,(#251,#252),.UNSPECIFIED.,.F.,.F.,
  (2,2),(0.,1.),.PIECEWISE_BEZIER_KNOTS.);
#251 = CARTESIAN_POINT('',(28.,-11.,15.4));
#252 = CARTESIAN_POINT('',(28.414213562373,-12.,16.6));
#253 = ORIENTED_EDGE('',*,*,#74,.F.);
#254 = ORIENTED_EDGE('',*,*,#255,.F.);
#255 = EDGE_CURVE('',#240,#75,#256,.T.);
#256 = B_SPLINE_CURVE_WITH_KNOTS('',1,(#257,#258),.UNSPECIFIED.,.F.,.F.,
  (2,2),(0.,1.),.PIECEWISE_BEZIER_KNOTS.);
#257 = CARTESIAN_POINT('',(49.,-11.,15.4));
#258 = CARTESIAN_POINT('',(48.,-12.,16.6));
#259 = B_SPLINE_SURFACE_WITH_KNOTS('',1,1,(
    (#260,#261)
    ,(#262,#263
  )),.UNSPECIFIED.,.F.,.F.,.F.,(2,2),(2,2),(0.,21.),(0.,1.),
  .PIECEWISE_BEZIER_KNOTS.);
#260 = CARTESIAN_POINT('',(49.,-11.,15.4));
#261 = CARTESIAN_POINT('',(48.,-12.,16.6));
#262 = CARTESIAN_POINT('',(28.,-11.,15.4));
#263 = CARTESIAN_POINT('',(28.414213562373,-12.,16.6));
#264 = ADVANCED_FACE('',(#265),#282,.T.);
#265 = FACE_BOUND('',#266,.T.);
#266 = EDGE_LOOP('',(#267,#275,#276,#277));
#267 = ORIENTED_EDGE('',*,*,#268,.T.);
#268 = EDGE_CURVE('',#269,#240,#271,.T.);
#269 = VERTEX_POINT('',#270);
#270 = CARTESIAN_POINT('',(49.,-65.5,15.4));
#271 = LINE('',#272,#273);
#272 = CARTESIAN_POINT('',(49.,-65.5,15.4));
#273 = VECTOR('',#274,1.);
#274 = DIRECTION('',(0.,1.,0.));
#275 = ORIENTED_EDGE('',*,*,#255,.T.);
#276 = ORIENTED_EDGE('',*,*,#141,.F.);
#277 = ORIENTED_EDGE('',*,*,#278,.F.);
#278 = EDGE_CURVE('',#269,#134,#279,.T.);
#279 = B_SPLINE_CURVE_WITH_KNOTS('',1,(#280,#281),.UNSPECIFIED.,.F.,.F.,
  (2,2),(0.,1.),.PIECEWISE_BEZIER_KNOTS.);
#280 = CARTESIAN_POINT('',(49.,-65.5,15.4));
#281 = CARTESIAN_POINT('',(48.,-65.08578643762,16.6));
#282 = B_SPLINE_SURFACE_WITH_KNOTS('',1,1,(
    (#283,#284)
    ,(#285,#286
    )),.UNSPECIFIED.,.F.,.F.,.F.,(2,2),(2,2),(0.,54.5),(0.,1.),
  .PIECEWISE_BEZIER_KNOTS.);
#283 = CARTESIAN_POINT('',(49.,-65.5,15.4));
#284 = CARTESIAN_POINT('',(48.,-65.08578643762,16.6));
#285 = CARTESIAN_POINT('',(49.,-11.,15.4));
#286 = CARTESIAN_POINT('',(48.,-12.,16.6));
#287 = ADVANCED_FACE('',(#288),#305,.T.);
#288 = FACE_BOUND('',#289,.T.);
#289 = EDGE_LOOP('',(#290,#298,#303,#304));
#290 = ORIENTED_EDGE('',*,*,#291,.T.);
#291 = EDGE_CURVE('',#242,#292,#294,.T.);
#292 = VERTEX_POINT('',#293);
#293 = CARTESIAN_POINT('',(25.,-14.,15.4));
#294 = LINE('',#295,#296);
#295 = CARTESIAN_POINT('',(28.,-11.,15.4));
#296 = VECTOR('',#297,1.);
#297 = DIRECTION('',(-0.707106781187,-0.707106781187,0.));
#298 = ORIENTED_EDGE('',*,*,#299,.T.);
#299 = EDGE_CURVE('',#292,#85,#300,.T.);
#300 = B_SPLINE_CURVE_WITH_KNOTS('',1,(#301,#302),.UNSPECIFIED.,.F.,.F.,
  (2,2),(0.,1.),.PIECEWISE_BEZIER_KNOTS.);
#301 = CARTESIAN_POINT('',(25.,-14.,15.4));
#302 = CARTESIAN_POINT('',(26.,-14.41421356237,16.6));
#303 = ORIENTED_EDGE('',*,*,#84,.F.);
#304 = ORIENTED_EDGE('',*,*,#249,.F.);
#305 = B_SPLINE_SURFACE_WITH_KNOTS('',1,1,(
    (#306,#307)
    ,(#308,#309
    )),.UNSPECIFIED.,.F.,.F.,.F.,(2,2),(2,2),(0.,4.242640687119),(0.,1.)
  ,.PIECEWISE_BEZIER_KNOTS.);
#306 = CARTESIAN_POINT('',(28.,-11.,15.4));
#307 = CARTESIAN_POINT('',(28.414213562373,-12.,16.6));
#308 = CARTESIAN_POINT('',(25.,-14.,15.4));
#309 = CARTESIAN_POINT('',(26.,-14.41421356237,16.6));
#310 = ADVANCED_FACE('',(#311),#328,.T.);
#311 = FACE_BOUND('',#312,.T.);
#312 = EDGE_LOOP('',(#313,#321,#322,#323));
#313 = ORIENTED_EDGE('',*,*,#314,.T.);
#314 = EDGE_CURVE('',#315,#269,#317,.T.);
#315 = VERTEX_POINT('',#316);
#316 = CARTESIAN_POINT('',(46.,-68.5,15.4));
#317 = LINE('',#318,#319);
#318 = CARTESIAN_POINT('',(46.,-68.5,15.4));
#319 = VECTOR('',#320,1.);
#320 = DIRECTION('',(0.707106781187,0.707106781187,0.));
#321 = ORIENTED_EDGE('',*,*,#278,.T.);
#322 = ORIENTED_EDGE('',*,*,#133,.F.);
#323 = ORIENTED_EDGE('',*,*,#324,.F.);
#324 = EDGE_CURVE('',#315,#126,#325,.T.);
#325 = B_SPLINE_CURVE_WITH_KNOTS('',1,(#326,#327),.UNSPECIFIED.,.F.,.F.,
  (2,2),(0.,1.),.PIECEWISE_BEZIER_KNOTS.);
#326 = CARTESIAN_POINT('',(46.,-68.5,15.4));
#327 = CARTESIAN_POINT('',(45.585786437627,-67.5,16.6));
#328 = B_SPLINE_SURFACE_WITH_KNOTS('',1,1,(
    (#329,#330)
    ,(#331,#332
    )),.UNSPECIFIED.,.F.,.F.,.F.,(2,2),(2,2),(0.,4.242640687119),(0.,1.)
  ,.PIECEWISE_BEZIER_KNOTS.);
#329 = CARTESIAN_POINT('',(46.,-68.5,15.4));
#330 = CARTESIAN_POINT('',(45.585786437627,-67.5,16.6));
#331 = CARTESIAN_POINT('',(49.,-65.5,15.4));
#332 = CARTESIAN_POINT('',(48.,-65.08578643762,16.6));
#333 = ADVANCED_FACE('',(#334),#351,.T.);
#334 = FACE_BOUND('',#335,.T.);
#335 = EDGE_LOOP('',(#336,#344,#349,#350));
#336 = ORIENTED_EDGE('',*,*,#337,.T.);
#337 = EDGE_CURVE('',#292,#338,#340,.T.);
#338 = VERTEX_POINT('',#339);
#339 = CARTESIAN_POINT('',(25.,-62.,15.4));
#340 = LINE('',#341,#342);
#341 = CARTESIAN_POINT('',(25.,-14.,15.4));
#342 = VECTOR('',#343,1.);
#343 = DIRECTION('',(0.,-1.,0.));
#344 = ORIENTED_EDGE('',*,*,#345,.T.);
#345 = EDGE_CURVE('',#338,#93,#346,.T.);
#346 = B_SPLINE_CURVE_WITH_KNOTS('',1,(#347,#348),.UNSPECIFIED.,.F.,.F.,
  (2,2),(0.,1.),.PIECEWISE_BEZIER_KNOTS.);
#347 = CARTESIAN_POINT('',(25.,-62.,15.4));
#348 = CARTESIAN_POINT('',(26.,-61.58578643762,16.6));
#349 = ORIENTED_EDGE('',*,*,#92,.F.);
#350 = ORIENTED_EDGE('',*,*,#299,.F.);
#351 = B_SPLINE_SURFACE_WITH_KNOTS('',1,1,(
    (#352,#353)
    ,(#354,#355
  )),.UNSPECIFIED.,.F.,.F.,.F.,(2,2),(2,2),(0.,48.),(0.,1.),
  .PIECEWISE_BEZIER_KNOTS.);
#352 = CARTESIAN_POINT('',(25.,-14.,15.4));
#353 = CARTESIAN_POINT('',(26.,-14.41421356237,16.6));
#354 = CARTESIAN_POINT('',(25.,-62.,15.4));
#355 = CARTESIAN_POINT('',(26.,-61.58578643762,16.6));
#356 = ADVANCED_FACE('',(#357),#374,.T.);
#357 = FACE_BOUND('',#358,.T.);
#358 = EDGE_LOOP('',(#359,#367,#368,#369));
#359 = ORIENTED_EDGE('',*,*,#360,.T.);
#360 = EDGE_CURVE('',#361,#315,#363,.T.);
#361 = VERTEX_POINT('',#362);
#362 = CARTESIAN_POINT('',(31.5,-68.5,15.4));
#363 = LINE('',#364,#365);
#364 = CARTESIAN_POINT('',(31.5,-68.5,15.4));
#365 = VECTOR('',#366,1.);
#366 = DIRECTION('',(1.,0.,0.));
#367 = ORIENTED_EDGE('',*,*,#324,.T.);
#368 = ORIENTED_EDGE('',*,*,#125,.F.);
#369 = ORIENTED_EDGE('',*,*,#370,.F.);
#370 = EDGE_CURVE('',#361,#118,#371,.T.);
#371 = B_SPLINE_CURVE_WITH_KNOTS('',1,(#372,#373),.UNSPECIFIED.,.F.,.F.,
  (2,2),(0.,1.),.PIECEWISE_BEZIER_KNOTS.);
#372 = CARTESIAN_POINT('',(31.5,-68.5,15.4));
#373 = CARTESIAN_POINT('',(31.914213562373,-67.5,16.6));
#374 = B_SPLINE_SURFACE_WITH_KNOTS('',1,1,(
    (#375,#376)
    ,(#377,#378
    )),.UNSPECIFIED.,.F.,.F.,.F.,(2,2),(2,2),(0.,14.5),(0.,1.),
  .PIECEWISE_BEZIER_KNOTS.);
#375 = CARTESIAN_POINT('',(31.5,-68.5,15.4));
#376 = CARTESIAN_POINT('',(31.914213562373,-67.5,16.6));
#377 = CARTESIAN_POINT('',(46.,-68.5,15.4));
#378 = CARTESIAN_POINT('',(45.585786437627,-67.5,16.6));
#379 = ADVANCED_FACE('',(#380),#413,.T.);
#380 = FACE_BOUND('',#381,.T.);
#381 = EDGE_LOOP('',(#382,#383,#391,#412));
#382 = ORIENTED_EDGE('',*,*,#345,.F.);
#383 = ORIENTED_EDGE('',*,*,#384,.T.);
#384 = EDGE_CURVE('',#338,#385,#387,.T.);
#385 = VERTEX_POINT('',#386);
#386 = CARTESIAN_POINT('',(27.325357215773,-64.32535721577,15.4));
#387 = LINE('',#388,#389);
#388 = CARTESIAN_POINT('',(25.,-62.,15.4));
#389 = VECTOR('',#390,1.);
#390 = DIRECTION('',(0.707106781187,-0.707106781187,0.));
#391 = ORIENTED_EDGE('',*,*,#392,.T.);
#392 = EDGE_CURVE('',#385,#101,#393,.T.);
#393 = B_SPLINE_CURVE_WITH_KNOTS('',5,(#394,#395,#396,#397,#398,#399,
    #400,#401,#402,#403,#404,#405,#406,#407,#408,#409,#410,#411),
  .UNSPECIFIED.,.F.,.F.,(6,4,4,4,6),(0.,0.278618952203,0.531232923054,
    0.770380412028,1.),.UNSPECIFIED.);
#394 = CARTESIAN_POINT('',(27.325357215773,-64.32535721577,15.4));
#395 = CARTESIAN_POINT('',(27.313046791972,-64.24685970389,
    15.456161606567));
#396 = CARTESIAN_POINT('',(27.30472565292,-64.16954474311,
    15.514704805615));
#397 = CARTESIAN_POINT('',(27.300070581145,-64.09352921742,
    15.575256158662));
#398 = CARTESIAN_POINT('',(27.298806232775,-64.01887831412,
    15.637526715427));
#399 = CARTESIAN_POINT('',(27.302425461069,-63.87918294879,
    15.759133180621));
#400 = CARTESIAN_POINT('',(27.306746144687,-63.81389623534,
    15.818197015601));
#401 = CARTESIAN_POINT('',(27.313496301251,-63.74976953118,
    15.878338026225));
#402 = CARTESIAN_POINT('',(27.32253591767,-63.68681254603,
    15.939429168454));
#403 = CARTESIAN_POINT('',(27.344363967509,-63.56653181231,
    16.060012469876));
#404 = CARTESIAN_POINT('',(27.356926454497,-63.50908793192,
    16.119414842394));
#405 = CARTESIAN_POINT('',(27.371338403184,-63.4526950976,
    16.179494693044));
#406 = CARTESIAN_POINT('',(27.387517702274,-63.39735419754,
    16.240181594412));
#407 = CARTESIAN_POINT('',(27.422565929022,-63.29093983065,
    16.360216585504));
#408 = CARTESIAN_POINT('',(27.441301558712,-63.2397846622,16.41952089428
    ));
#409 = CARTESIAN_POINT('',(27.461545848108,-63.18960073256,16.4792812198
    ));
#410 = CARTESIAN_POINT('',(27.483249425558,-63.14039066602,
    16.539453442052));
#411 = CARTESIAN_POINT('',(27.506372589826,-63.09215902745,16.6));
#412 = ORIENTED_EDGE('',*,*,#100,.F.);
#413 = B_SPLINE_SURFACE_WITH_KNOTS('',1,1,(
    (#414,#415)
    ,(#416,#417
    )),.UNSPECIFIED.,.F.,.F.,.F.,(2,2),(2,2),(0.,9.192388155425),(0.,1.)
  ,.PIECEWISE_BEZIER_KNOTS.);
#414 = CARTESIAN_POINT('',(25.,-62.,15.4));
#415 = CARTESIAN_POINT('',(26.,-61.58578643762,16.6));
#416 = CARTESIAN_POINT('',(31.5,-68.5,15.4));
#417 = CARTESIAN_POINT('',(31.914213562373,-67.5,16.6));
#418 = ADVANCED_FACE('',(#419),#452,.T.);
#419 = FACE_BOUND('',#420,.T.);
#420 = EDGE_LOOP('',(#421,#444,#450,#451));
#421 = ORIENTED_EDGE('',*,*,#422,.F.);
#422 = EDGE_CURVE('',#423,#109,#425,.T.);
#423 = VERTEX_POINT('',#424);
#424 = CARTESIAN_POINT('',(29.074642784227,-66.07464278422,15.4));
#425 = B_SPLINE_CURVE_WITH_KNOTS('',5,(#426,#427,#428,#429,#430,#431,
    #432,#433,#434,#435,#436,#437,#438,#439,#440,#441,#442,#443),
  .UNSPECIFIED.,.F.,.F.,(6,4,4,4,6),(0.,0.278592947218,0.531189597291,
    0.770343155573,1.),.UNSPECIFIED.);
#426 = CARTESIAN_POINT('',(29.074642784227,-66.07464278422,15.4));
#427 = CARTESIAN_POINT('',(29.153138310937,-66.0869528967,
    15.456160186265));
#428 = CARTESIAN_POINT('',(29.230453506015,-66.09527426305,
    15.514703391247));
#429 = CARTESIAN_POINT('',(29.306470067116,-66.09992944586,
    15.575255528653));
#430 = CARTESIAN_POINT('',(29.381121897904,-66.10119377915,
    15.637526885217));
#431 = CARTESIAN_POINT('',(29.520819455576,-66.09757446084,
    15.759135287055));
#432 = CARTESIAN_POINT('',(29.58610747298,-66.09325357684,
    15.818200398514));
#433 = CARTESIAN_POINT('',(29.6502344765,-66.08650319571,15.878341853689
    ));
#434 = CARTESIAN_POINT('',(29.713190485131,-66.07746355145,
    15.939432190942));
#435 = CARTESIAN_POINT('',(29.833472024111,-66.05563531808,
    16.060016331384));
#436 = CARTESIAN_POINT('',(29.890917628702,-66.04307226469,
    16.119420647545));
#437 = CARTESIAN_POINT('',(29.947310555991,-66.02866002875,
    16.179500820821));
#438 = CARTESIAN_POINT('',(30.002649816301,-66.01248099322,
    16.240186107184));
#439 = CARTESIAN_POINT('',(30.109064585094,-65.97743259983,
    16.360221580699));
#440 = CARTESIAN_POINT('',(30.160221665868,-65.95869604629,
    16.419528296046));
#441 = CARTESIAN_POINT('',(30.210405523806,-65.93845147703,
    16.479288798194));
#442 = CARTESIAN_POINT('',(30.259613490454,-65.91674858174,
    16.539458659796));
#443 = CARTESIAN_POINT('',(30.307840972548,-65.89362741017,16.6));
#444 = ORIENTED_EDGE('',*,*,#445,.T.);
#445 = EDGE_CURVE('',#423,#361,#446,.T.);
#446 = LINE('',#447,#448);
#447 = CARTESIAN_POINT('',(25.,-62.,15.4));
#448 = VECTOR('',#449,1.);
#449 = DIRECTION('',(0.707106781187,-0.707106781187,0.));
#450 = ORIENTED_EDGE('',*,*,#370,.T.);
#451 = ORIENTED_EDGE('',*,*,#117,.F.);
#452 = B_SPLINE_SURFACE_WITH_KNOTS('',1,1,(
    (#453,#454)
    ,(#455,#456
    )),.UNSPECIFIED.,.F.,.F.,.F.,(2,2),(2,2),(0.,9.192388155425),(0.,1.)
  ,.PIECEWISE_BEZIER_KNOTS.);
#453 = CARTESIAN_POINT('',(25.,-62.,15.4));
#454 = CARTESIAN_POINT('',(26.,-61.58578643762,16.6));
#455 = CARTESIAN_POINT('',(31.5,-68.5,15.4));
#456 = CARTESIAN_POINT('',(31.914213562373,-67.5,16.6));
#457 = ADVANCED_FACE('',(#458),#486,.T.);
#458 = FACE_BOUND('',#459,.F.);
#459 = EDGE_LOOP('',(#460,#471,#477,#478,#479,#480));
#460 = ORIENTED_EDGE('',*,*,#461,.F.);
#461 = EDGE_CURVE('',#462,#464,#466,.T.);
#462 = VERTEX_POINT('',#463);
#463 = CARTESIAN_POINT('',(27.325357215773,-64.32535721577,6.3));
#464 = VERTEX_POINT('',#465);
#465 = CARTESIAN_POINT('',(29.074642784227,-66.07464278422,6.3));
#466 = CIRCLE('',#467,2.1);
#467 = AXIS2_PLACEMENT_3D('',#468,#469,#470);
#468 = CARTESIAN_POINT('',(29.4,-64.,6.3));
#469 = DIRECTION('',(0.,0.,1.));
#470 = DIRECTION('',(1.,0.,0.));
#471 = ORIENTED_EDGE('',*,*,#472,.F.);
#472 = EDGE_CURVE('',#385,#462,#473,.T.);
#473 = LINE('',#474,#475);
#474 = CARTESIAN_POINT('',(27.325357215773,-64.32535721577,6.3));
#475 = VECTOR('',#476,1.);
#476 = DIRECTION('',(-0.,-0.,-1.));
#477 = ORIENTED_EDGE('',*,*,#392,.T.);
#478 = ORIENTED_EDGE('',*,*,#108,.T.);
#479 = ORIENTED_EDGE('',*,*,#422,.F.);
#480 = ORIENTED_EDGE('',*,*,#481,.T.);
#481 = EDGE_CURVE('',#423,#464,#482,.T.);
#482 = LINE('',#483,#484);
#483 = CARTESIAN_POINT('',(29.074642784227,-66.07464278422,6.3));
#484 = VECTOR('',#485,1.);
#485 = DIRECTION('',(-0.,-0.,-1.));
#486 = CYLINDRICAL_SURFACE('',#487,2.1);
#487 = AXIS2_PLACEMENT_3D('',#488,#489,#490);
#488 = CARTESIAN_POINT('',(29.4,-64.,6.3));
#489 = DIRECTION('',(-0.,-0.,-1.));
#490 = DIRECTION('',(1.,0.,0.));
#491 = ADVANCED_FACE('',(#492),#511,.F.);
#492 = FACE_BOUND('',#493,.T.);
#493 = EDGE_LOOP('',(#494,#503,#509,#510));
#494 = ORIENTED_EDGE('',*,*,#495,.T.);
#495 = EDGE_CURVE('',#496,#496,#498,.T.);
#496 = VERTEX_POINT('',#497);
#497 = CARTESIAN_POINT('',(38.4,-59.5,15.4));
#498 = CIRCLE('',#499,1.4);
#499 = AXIS2_PLACEMENT_3D('',#500,#501,#502);
#500 = CARTESIAN_POINT('',(37.,-59.5,15.4));
#501 = DIRECTION('',(0.,0.,-1.));
#502 = DIRECTION('',(1.,0.,0.));
#503 = ORIENTED_EDGE('',*,*,#504,.T.);
#504 = EDGE_CURVE('',#496,#153,#505,.T.);
#505 = LINE('',#506,#507);
#506 = CARTESIAN_POINT('',(38.4,-59.5,7.8));
#507 = VECTOR('',#508,1.);
#508 = DIRECTION('',(0.,0.,1.));
#509 = ORIENTED_EDGE('',*,*,#152,.F.);
#510 = ORIENTED_EDGE('',*,*,#504,.F.);
#511 = CYLINDRICAL_SURFACE('',#512,1.4);
#512 = AXIS2_PLACEMENT_3D('',#513,#514,#515);
#513 = CARTESIAN_POINT('',(37.,-59.5,7.8));
#514 = DIRECTION('',(-0.,-0.,-1.));
#515 = DIRECTION('',(1.,0.,0.));
#516 = ADVANCED_FACE('',(#517),#536,.F.);
#517 = FACE_BOUND('',#518,.T.);
#518 = EDGE_LOOP('',(#519,#528,#534,#535));
#519 = ORIENTED_EDGE('',*,*,#520,.F.);
#520 = EDGE_CURVE('',#521,#521,#523,.T.);
#521 = VERTEX_POINT('',#522);
#522 = CARTESIAN_POINT('',(47.35,-64.,14.9));
#523 = CIRCLE('',#524,1.85);
#524 = AXIS2_PLACEMENT_3D('',#525,#526,#527);
#525 = CARTESIAN_POINT('',(45.5,-64.,14.9));
#526 = DIRECTION('',(0.,0.,1.));
#527 = DIRECTION('',(1.,0.,0.));
#528 = ORIENTED_EDGE('',*,*,#529,.T.);
#529 = EDGE_CURVE('',#521,#164,#530,.T.);
#530 = LINE('',#531,#532);
#531 = CARTESIAN_POINT('',(47.35,-64.,14.9));
#532 = VECTOR('',#533,1.);
#533 = DIRECTION('',(0.,0.,1.));
#534 = ORIENTED_EDGE('',*,*,#163,.F.);
#535 = ORIENTED_EDGE('',*,*,#529,.F.);
#536 = CYLINDRICAL_SURFACE('',#537,1.85);
#537 = AXIS2_PLACEMENT_3D('',#538,#539,#540);
#538 = CARTESIAN_POINT('',(45.5,-64.,14.9));
#539 = DIRECTION('',(-0.,-0.,-1.));
#540 = DIRECTION('',(1.,0.,0.));
#541 = ADVANCED_FACE('',(#542),#567,.F.);
#542 = FACE_BOUND('',#543,.F.);
#543 = EDGE_LOOP('',(#544,#552,#560,#566));
#544 = ORIENTED_EDGE('',*,*,#545,.F.);
#545 = EDGE_CURVE('',#546,#177,#548,.T.);
#546 = VERTEX_POINT('',#547);
#547 = CARTESIAN_POINT('',(44.45,-18.25,15.4));
#548 = LINE('',#549,#550);
#549 = CARTESIAN_POINT('',(44.45,-18.25,15.1));
#550 = VECTOR('',#551,1.);
#551 = DIRECTION('',(0.,0.,1.));
#552 = ORIENTED_EDGE('',*,*,#553,.T.);
#553 = EDGE_CURVE('',#546,#554,#556,.T.);
#554 = VERTEX_POINT('',#555);
#555 = CARTESIAN_POINT('',(29.95,-18.25,15.4));
#556 = LINE('',#557,#558);
#557 = CARTESIAN_POINT('',(33.623103162987,-18.25,15.4));
#558 = VECTOR('',#559,1.);
#559 = DIRECTION('',(-1.,0.,0.));
#560 = ORIENTED_EDGE('',*,*,#561,.T.);
#561 = EDGE_CURVE('',#554,#175,#562,.T.);
#562 = LINE('',#563,#564);
#563 = CARTESIAN_POINT('',(29.95,-18.25,15.1));
#564 = VECTOR('',#565,1.);
#565 = DIRECTION('',(0.,0.,1.));
#566 = ORIENTED_EDGE('',*,*,#174,.T.);
#567 = PLANE('',#568);
#568 = AXIS2_PLACEMENT_3D('',#569,#570,#571);
#569 = CARTESIAN_POINT('',(29.95,-18.25,15.1));
#570 = DIRECTION('',(0.,1.,0.));
#571 = DIRECTION('',(0.,0.,1.));
#572 = ADVANCED_FACE('',(#573),#591,.T.);
#573 = FACE_BOUND('',#574,.T.);
#574 = EDGE_LOOP('',(#575,#583,#589,#590));
#575 = ORIENTED_EDGE('',*,*,#576,.F.);
#576 = EDGE_CURVE('',#577,#193,#579,.T.);
#577 = VERTEX_POINT('',#578);
#578 = CARTESIAN_POINT('',(29.95,-49.35,15.4));
#579 = LINE('',#580,#581);
#580 = CARTESIAN_POINT('',(29.95,-49.35,15.1));
#581 = VECTOR('',#582,1.);
#582 = DIRECTION('',(0.,0.,1.));
#583 = ORIENTED_EDGE('',*,*,#584,.T.);
#584 = EDGE_CURVE('',#577,#554,#585,.T.);
#585 = LINE('',#586,#587);
#586 = CARTESIAN_POINT('',(29.95,-44.20883759906,15.4));
#587 = VECTOR('',#588,1.);
#588 = DIRECTION('',(0.,1.,0.));
#589 = ORIENTED_EDGE('',*,*,#561,.T.);
#590 = ORIENTED_EDGE('',*,*,#200,.T.);
#591 = PLANE('',#592);
#592 = AXIS2_PLACEMENT_3D('',#593,#594,#595);
#593 = CARTESIAN_POINT('',(29.95,-49.35,15.1));
#594 = DIRECTION('',(1.,0.,0.));
#595 = DIRECTION('',(0.,0.,1.));
#596 = ADVANCED_FACE('',(#597),#615,.F.);
#597 = FACE_BOUND('',#598,.F.);
#598 = EDGE_LOOP('',(#599,#607,#613,#614));
#599 = ORIENTED_EDGE('',*,*,#600,.F.);
#600 = EDGE_CURVE('',#601,#185,#603,.T.);
#601 = VERTEX_POINT('',#602);
#602 = CARTESIAN_POINT('',(44.45,-49.35,15.4));
#603 = LINE('',#604,#605);
#604 = CARTESIAN_POINT('',(44.45,-49.35,15.1));
#605 = VECTOR('',#606,1.);
#606 = DIRECTION('',(0.,0.,1.));
#607 = ORIENTED_EDGE('',*,*,#608,.T.);
#608 = EDGE_CURVE('',#601,#546,#609,.T.);
#609 = LINE('',#610,#611);
#610 = CARTESIAN_POINT('',(44.45,-44.20883759906,15.4));
#611 = VECTOR('',#612,1.);
#612 = DIRECTION('',(0.,1.,0.));
#613 = ORIENTED_EDGE('',*,*,#545,.T.);
#614 = ORIENTED_EDGE('',*,*,#184,.T.);
#615 = PLANE('',#616);
#616 = AXIS2_PLACEMENT_3D('',#617,#618,#619);
#617 = CARTESIAN_POINT('',(44.45,-49.35,15.1));
#618 = DIRECTION('',(1.,0.,0.));
#619 = DIRECTION('',(0.,0.,1.));
#620 = ADVANCED_FACE('',(#621),#632,.T.);
#621 = FACE_BOUND('',#622,.T.);
#622 = EDGE_LOOP('',(#623,#624,#630,#631));
#623 = ORIENTED_EDGE('',*,*,#600,.F.);
#624 = ORIENTED_EDGE('',*,*,#625,.T.);
#625 = EDGE_CURVE('',#601,#577,#626,.T.);
#626 = LINE('',#627,#628);
#627 = CARTESIAN_POINT('',(33.623103162987,-49.35,15.4));
#628 = VECTOR('',#629,1.);
#629 = DIRECTION('',(-1.,0.,0.));
#630 = ORIENTED_EDGE('',*,*,#576,.T.);
#631 = ORIENTED_EDGE('',*,*,#192,.T.);
#632 = PLANE('',#633);
#633 = AXIS2_PLACEMENT_3D('',#634,#635,#636);
#634 = CARTESIAN_POINT('',(29.95,-49.35,15.1));
#635 = DIRECTION('',(0.,1.,0.));
#636 = DIRECTION('',(0.,0.,1.));
#637 = ADVANCED_FACE('',(#638,#777),#780,.T.);
#638 = FACE_BOUND('',#639,.T.);
#639 = EDGE_LOOP('',(#640,#651,#659,#667,#675,#683,#691,#699,#707,#715,
    #723,#731,#737,#738,#746,#754,#762,#770));
#640 = ORIENTED_EDGE('',*,*,#641,.F.);
#641 = EDGE_CURVE('',#642,#644,#646,.T.);
#642 = VERTEX_POINT('',#643);
#643 = CARTESIAN_POINT('',(30.491257332324,-65.79420105747,6.3));
#644 = VERTEX_POINT('',#645);
#645 = CARTESIAN_POINT('',(31.5,-64.,6.3));
#646 = CIRCLE('',#647,2.1);
#647 = AXIS2_PLACEMENT_3D('',#648,#649,#650);
#648 = CARTESIAN_POINT('',(29.4,-64.,6.3));
#649 = DIRECTION('',(0.,0.,1.));
#650 = DIRECTION('',(1.,0.,0.));
#651 = ORIENTED_EDGE('',*,*,#652,.T.);
#652 = EDGE_CURVE('',#642,#653,#655,.T.);
#653 = VERTEX_POINT('',#654);
#654 = CARTESIAN_POINT('',(31.997056274848,-67.3,6.3));
#655 = LINE('',#656,#657);
#656 = CARTESIAN_POINT('',(19.274264068712,-54.57720779386,6.3));
#657 = VECTOR('',#658,1.);
#658 = DIRECTION('',(0.707106781187,-0.707106781187,0.));
#659 = ORIENTED_EDGE('',*,*,#660,.T.);
#660 = EDGE_CURVE('',#653,#661,#663,.T.);
#661 = VERTEX_POINT('',#662);
#662 = CARTESIAN_POINT('',(45.502943725152,-67.3,6.3));
#663 = LINE('',#664,#665);
#664 = CARTESIAN_POINT('',(40.498528137424,-67.3,6.3));
#665 = VECTOR('',#666,1.);
#666 = DIRECTION('',(1.,0.,0.));
#667 = ORIENTED_EDGE('',*,*,#668,.T.);
#668 = EDGE_CURVE('',#661,#669,#671,.T.);
#669 = VERTEX_POINT('',#670);
#670 = CARTESIAN_POINT('',(47.8,-65.00294372515,6.3));
#671 = LINE('',#672,#673);
#672 = CARTESIAN_POINT('',(60.452207793864,-52.35073593128,6.3));
#673 = VECTOR('',#674,1.);
#674 = DIRECTION('',(0.707106781187,0.707106781187,0.));
#675 = ORIENTED_EDGE('',*,*,#676,.T.);
#676 = EDGE_CURVE('',#669,#677,#679,.T.);
#677 = VERTEX_POINT('',#678);
#678 = CARTESIAN_POINT('',(47.8,-12.2,6.3));
#679 = LINE('',#680,#681);
#680 = CARTESIAN_POINT('',(47.8,-38.00147186257,6.3));
#681 = VECTOR('',#682,1.);
#682 = DIRECTION('',(0.,1.,0.));
#683 = ORIENTED_EDGE('',*,*,#684,.T.);
#684 = EDGE_CURVE('',#677,#685,#687,.T.);
#685 = VERTEX_POINT('',#686);
#686 = CARTESIAN_POINT('',(43.7,-12.2,6.3));
#687 = LINE('',#688,#689);
#688 = CARTESIAN_POINT('',(48.4,-12.2,6.3));
#689 = VECTOR('',#690,1.);
#690 = DIRECTION('',(-1.,-0.,-0.));
#691 = ORIENTED_EDGE('',*,*,#692,.F.);
#692 = EDGE_CURVE('',#693,#685,#695,.T.);
#693 = VERTEX_POINT('',#694);
#694 = CARTESIAN_POINT('',(43.7,-11.,6.3));
#695 = LINE('',#696,#697);
#696 = CARTESIAN_POINT('',(43.7,-15.5,6.3));
#697 = VECTOR('',#698,1.);
#698 = DIRECTION('',(0.,-1.,0.));
#699 = ORIENTED_EDGE('',*,*,#700,.F.);
#700 = EDGE_CURVE('',#701,#693,#703,.T.);
#701 = VERTEX_POINT('',#702);
#702 = CARTESIAN_POINT('',(49.,-11.,6.3));
#703 = LINE('',#704,#705);
#704 = CARTESIAN_POINT('',(49.,-11.,6.3));
#705 = VECTOR('',#706,1.);
#706 = DIRECTION('',(-1.,0.,0.));
#707 = ORIENTED_EDGE('',*,*,#708,.F.);
#708 = EDGE_CURVE('',#709,#701,#711,.T.);
#709 = VERTEX_POINT('',#710);
#710 = CARTESIAN_POINT('',(49.,-65.5,6.3));
#711 = LINE('',#712,#713);
#712 = CARTESIAN_POINT('',(49.,-65.5,6.3));
#713 = VECTOR('',#714,1.);
#714 = DIRECTION('',(0.,1.,0.));
#715 = ORIENTED_EDGE('',*,*,#716,.F.);
#716 = EDGE_CURVE('',#717,#709,#719,.T.);
#717 = VERTEX_POINT('',#718);
#718 = CARTESIAN_POINT('',(46.,-68.5,6.3));
#719 = LINE('',#720,#721);
#720 = CARTESIAN_POINT('',(46.,-68.5,6.3));
#721 = VECTOR('',#722,1.);
#722 = DIRECTION('',(0.707106781187,0.707106781187,0.));
#723 = ORIENTED_EDGE('',*,*,#724,.F.);
#724 = EDGE_CURVE('',#725,#717,#727,.T.);
#725 = VERTEX_POINT('',#726);
#726 = CARTESIAN_POINT('',(31.5,-68.5,6.3));
#727 = LINE('',#728,#729);
#728 = CARTESIAN_POINT('',(31.5,-68.5,6.3));
#729 = VECTOR('',#730,1.);
#730 = DIRECTION('',(1.,0.,0.));
#731 = ORIENTED_EDGE('',*,*,#732,.F.);
#732 = EDGE_CURVE('',#464,#725,#733,.T.);
#733 = LINE('',#734,#735);
#734 = CARTESIAN_POINT('',(25.,-62.,6.3));
#735 = VECTOR('',#736,1.);
#736 = DIRECTION('',(0.707106781187,-0.707106781187,0.));
#737 = ORIENTED_EDGE('',*,*,#461,.F.);
#738 = ORIENTED_EDGE('',*,*,#739,.F.);
#739 = EDGE_CURVE('',#740,#462,#742,.T.);
#740 = VERTEX_POINT('',#741);
#741 = CARTESIAN_POINT('',(25.,-62.,6.3));
#742 = LINE('',#743,#744);
#743 = CARTESIAN_POINT('',(25.,-62.,6.3));
#744 = VECTOR('',#745,1.);
#745 = DIRECTION('',(0.707106781187,-0.707106781187,0.));
#746 = ORIENTED_EDGE('',*,*,#747,.F.);
#747 = EDGE_CURVE('',#748,#740,#750,.T.);
#748 = VERTEX_POINT('',#749);
#749 = CARTESIAN_POINT('',(25.,-61.9,6.3));
#750 = LINE('',#751,#752);
#751 = CARTESIAN_POINT('',(25.,-14.,6.3));
#752 = VECTOR('',#753,1.);
#753 = DIRECTION('',(0.,-1.,0.));
#754 = ORIENTED_EDGE('',*,*,#755,.T.);
#755 = EDGE_CURVE('',#748,#756,#758,.T.);
#756 = VERTEX_POINT('',#757);
#757 = CARTESIAN_POINT('',(26.597056274848,-61.9,6.3));
#758 = LINE('',#759,#760);
#759 = CARTESIAN_POINT('',(34.5,-61.9,6.3));
#760 = VECTOR('',#761,1.);
#761 = DIRECTION('',(1.,0.,0.));
#762 = ORIENTED_EDGE('',*,*,#763,.T.);
#763 = EDGE_CURVE('',#756,#764,#766,.T.);
#764 = VERTEX_POINT('',#765);
#765 = CARTESIAN_POINT('',(27.605798942524,-62.90874266767,6.3));
#766 = LINE('',#767,#768);
#767 = CARTESIAN_POINT('',(19.274264068712,-54.57720779386,6.3));
#768 = VECTOR('',#769,1.);
#769 = DIRECTION('',(0.707106781187,-0.707106781187,0.));
#770 = ORIENTED_EDGE('',*,*,#771,.F.);
#771 = EDGE_CURVE('',#644,#764,#772,.T.);
#772 = CIRCLE('',#773,2.1);
#773 = AXIS2_PLACEMENT_3D('',#774,#775,#776);
#774 = CARTESIAN_POINT('',(29.4,-64.,6.3));
#775 = DIRECTION('',(0.,0.,1.));
#776 = DIRECTION('',(1.,0.,0.));
#777 = FACE_BOUND('',#778,.T.);
#778 = EDGE_LOOP('',(#779));
#779 = ORIENTED_EDGE('',*,*,#222,.F.);
#780 = PLANE('',#781);
#781 = AXIS2_PLACEMENT_3D('',#782,#783,#784);
#782 = CARTESIAN_POINT('',(44.207605117058,-45.9589994972,6.3));
#783 = DIRECTION('',(-0.,-0.,-1.));
#784 = DIRECTION('',(-1.,0.,0.));
#785 = ADVANCED_FACE('',(#786),#832,.T.);
#786 = FACE_BOUND('',#787,.T.);
#787 = EDGE_LOOP('',(#788,#793,#794,#802,#810,#818,#826,#831));
#788 = ORIENTED_EDGE('',*,*,#789,.F.);
#789 = EDGE_CURVE('',#701,#240,#790,.T.);
#790 = B_SPLINE_CURVE_WITH_KNOTS('',1,(#791,#792),.UNSPECIFIED.,.F.,.F.,
  (2,2),(0.,1.),.PIECEWISE_BEZIER_KNOTS.);
#791 = CARTESIAN_POINT('',(49.,-11.,6.3));
#792 = CARTESIAN_POINT('',(49.,-11.,15.4));
#793 = ORIENTED_EDGE('',*,*,#700,.T.);
#794 = ORIENTED_EDGE('',*,*,#795,.F.);
#795 = EDGE_CURVE('',#796,#693,#798,.T.);
#796 = VERTEX_POINT('',#797);
#797 = CARTESIAN_POINT('',(43.7,-11.,11.8));
#798 = LINE('',#799,#800);
#799 = CARTESIAN_POINT('',(43.7,-11.,10.8));
#800 = VECTOR('',#801,1.);
#801 = DIRECTION('',(0.,0.,-1.));
#802 = ORIENTED_EDGE('',*,*,#803,.F.);
#803 = EDGE_CURVE('',#804,#796,#806,.T.);
#804 = VERTEX_POINT('',#805);
#805 = CARTESIAN_POINT('',(30.7,-11.,11.8));
#806 = LINE('',#807,#808);
#807 = CARTESIAN_POINT('',(39.85,-11.,11.8));
#808 = VECTOR('',#809,1.);
#809 = DIRECTION('',(1.,0.,0.));
#810 = ORIENTED_EDGE('',*,*,#811,.T.);
#811 = EDGE_CURVE('',#804,#812,#814,.T.);
#812 = VERTEX_POINT('',#813);
#813 = CARTESIAN_POINT('',(30.7,-11.,6.3));
#814 = LINE('',#815,#816);
#815 = CARTESIAN_POINT('',(30.7,-11.,10.8));
#816 = VECTOR('',#817,1.);
#817 = DIRECTION('',(0.,0.,-1.));
#818 = ORIENTED_EDGE('',*,*,#819,.T.);
#819 = EDGE_CURVE('',#812,#820,#822,.T.);
#820 = VERTEX_POINT('',#821);
#821 = CARTESIAN_POINT('',(28.,-11.,6.3));
#822 = LINE('',#823,#824);
#823 = CARTESIAN_POINT('',(49.,-11.,6.3));
#824 = VECTOR('',#825,1.);
#825 = DIRECTION('',(-1.,0.,0.));
#826 = ORIENTED_EDGE('',*,*,#827,.T.);
#827 = EDGE_CURVE('',#820,#242,#828,.T.);
#828 = B_SPLINE_CURVE_WITH_KNOTS('',1,(#829,#830),.UNSPECIFIED.,.F.,.F.,
  (2,2),(0.,1.),.PIECEWISE_BEZIER_KNOTS.);
#829 = CARTESIAN_POINT('',(28.,-11.,6.3));
#830 = CARTESIAN_POINT('',(28.,-11.,15.4));
#831 = ORIENTED_EDGE('',*,*,#239,.F.);
#832 = PLANE('',#833);
#833 = AXIS2_PLACEMENT_3D('',#834,#835,#836);
#834 = CARTESIAN_POINT('',(49.,-11.,15.4));
#835 = DIRECTION('',(0.,1.,0.));
#836 = DIRECTION('',(-1.,0.,0.));
#837 = ADVANCED_FACE('',(#838),#848,.T.);
#838 = FACE_BOUND('',#839,.T.);
#839 = EDGE_LOOP('',(#840,#841,#842,#843));
#840 = ORIENTED_EDGE('',*,*,#708,.T.);
#841 = ORIENTED_EDGE('',*,*,#789,.T.);
#842 = ORIENTED_EDGE('',*,*,#268,.F.);
#843 = ORIENTED_EDGE('',*,*,#844,.F.);
#844 = EDGE_CURVE('',#709,#269,#845,.T.);
#845 = B_SPLINE_CURVE_WITH_KNOTS('',1,(#846,#847),.UNSPECIFIED.,.F.,.F.,
  (2,2),(0.,1.),.PIECEWISE_BEZIER_KNOTS.);
#846 = CARTESIAN_POINT('',(49.,-65.5,6.3));
#847 = CARTESIAN_POINT('',(49.,-65.5,15.4));
#848 = PLANE('',#849);
#849 = AXIS2_PLACEMENT_3D('',#850,#851,#852);
#850 = CARTESIAN_POINT('',(49.,-65.5,15.4));
#851 = DIRECTION('',(1.,0.,0.));
#852 = DIRECTION('',(0.,1.,0.));
#853 = ADVANCED_FACE('',(#854,#871),#905,.T.);
#854 = FACE_BOUND('',#855,.T.);
#855 = EDGE_LOOP('',(#856,#864,#869,#870));
#856 = ORIENTED_EDGE('',*,*,#857,.T.);
#857 = EDGE_CURVE('',#820,#858,#860,.T.);
#858 = VERTEX_POINT('',#859);
#859 = CARTESIAN_POINT('',(25.,-14.,6.3));
#860 = LINE('',#861,#862);
#861 = CARTESIAN_POINT('',(28.,-11.,6.3));
#862 = VECTOR('',#863,1.);
#863 = DIRECTION('',(-0.707106781187,-0.707106781187,0.));
#864 = ORIENTED_EDGE('',*,*,#865,.T.);
#865 = EDGE_CURVE('',#858,#292,#866,.T.);
#866 = B_SPLINE_CURVE_WITH_KNOTS('',1,(#867,#868),.UNSPECIFIED.,.F.,.F.,
  (2,2),(0.,1.),.PIECEWISE_BEZIER_KNOTS.);
#867 = CARTESIAN_POINT('',(25.,-14.,6.3));
#868 = CARTESIAN_POINT('',(25.,-14.,15.4));
#869 = ORIENTED_EDGE('',*,*,#291,.F.);
#870 = ORIENTED_EDGE('',*,*,#827,.F.);
#871 = FACE_BOUND('',#872,.T.);
#872 = EDGE_LOOP('',(#873,#883,#891,#899));
#873 = ORIENTED_EDGE('',*,*,#874,.F.);
#874 = EDGE_CURVE('',#875,#877,#879,.T.);
#875 = VERTEX_POINT('',#876);
#876 = CARTESIAN_POINT('',(27.4,-11.6,12.7));
#877 = VERTEX_POINT('',#878);
#878 = CARTESIAN_POINT('',(27.6,-11.4,12.7));
#879 = LINE('',#880,#881);
#880 = CARTESIAN_POINT('',(18.575,-20.425,12.7));
#881 = VECTOR('',#882,1.);
#882 = DIRECTION('',(0.707106781187,0.707106781187,0.));
#883 = ORIENTED_EDGE('',*,*,#884,.T.);
#884 = EDGE_CURVE('',#875,#885,#887,.T.);
#885 = VERTEX_POINT('',#886);
#886 = CARTESIAN_POINT('',(27.4,-11.6,8.5));
#887 = LINE('',#888,#889);
#888 = CARTESIAN_POINT('',(27.4,-11.6,11.95));
#889 = VECTOR('',#890,1.);
#890 = DIRECTION('',(0.,0.,-1.));
#891 = ORIENTED_EDGE('',*,*,#892,.T.);
#892 = EDGE_CURVE('',#885,#893,#895,.T.);
#893 = VERTEX_POINT('',#894);
#894 = CARTESIAN_POINT('',(27.6,-11.4,8.5));
#895 = LINE('',#896,#897);
#896 = CARTESIAN_POINT('',(18.575,-20.425,8.5));
#897 = VECTOR('',#898,1.);
#898 = DIRECTION('',(0.707106781187,0.707106781187,0.));
#899 = ORIENTED_EDGE('',*,*,#900,.F.);
#900 = EDGE_CURVE('',#877,#893,#901,.T.);
#901 = LINE('',#902,#903);
#902 = CARTESIAN_POINT('',(27.6,-11.4,11.95));
#903 = VECTOR('',#904,1.);
#904 = DIRECTION('',(0.,0.,-1.));
#905 = PLANE('',#906);
#906 = AXIS2_PLACEMENT_3D('',#907,#908,#909);
#907 = CARTESIAN_POINT('',(28.,-11.,15.4));
#908 = DIRECTION('',(-0.707106781187,0.707106781187,0.));
#909 = DIRECTION('',(-0.707106781187,-0.707106781187,0.));
#910 = ADVANCED_FACE('',(#911),#921,.T.);
#911 = FACE_BOUND('',#912,.T.);
#912 = EDGE_LOOP('',(#913,#914,#915,#916));
#913 = ORIENTED_EDGE('',*,*,#716,.T.);
#914 = ORIENTED_EDGE('',*,*,#844,.T.);
#915 = ORIENTED_EDGE('',*,*,#314,.F.);
#916 = ORIENTED_EDGE('',*,*,#917,.F.);
#917 = EDGE_CURVE('',#717,#315,#918,.T.);
#918 = B_SPLINE_CURVE_WITH_KNOTS('',1,(#919,#920),.UNSPECIFIED.,.F.,.F.,
  (2,2),(0.,1.),.PIECEWISE_BEZIER_KNOTS.);
#919 = CARTESIAN_POINT('',(46.,-68.5,6.3));
#920 = CARTESIAN_POINT('',(46.,-68.5,15.4));
#921 = PLANE('',#922);
#922 = AXIS2_PLACEMENT_3D('',#923,#924,#925);
#923 = CARTESIAN_POINT('',(46.,-68.5,15.4));
#924 = DIRECTION('',(0.707106781187,-0.707106781187,0.));
#925 = DIRECTION('',(0.707106781187,0.707106781187,0.));
#926 = ADVANCED_FACE('',(#927),#967,.T.);
#927 = FACE_BOUND('',#928,.T.);
#928 = EDGE_LOOP('',(#929,#930,#938,#946,#954,#960,#961,#966));
#929 = ORIENTED_EDGE('',*,*,#865,.F.);
#930 = ORIENTED_EDGE('',*,*,#931,.T.);
#931 = EDGE_CURVE('',#858,#932,#934,.T.);
#932 = VERTEX_POINT('',#933);
#933 = CARTESIAN_POINT('',(25.,-53.4,6.3));
#934 = LINE('',#935,#936);
#935 = CARTESIAN_POINT('',(25.,-14.,6.3));
#936 = VECTOR('',#937,1.);
#937 = DIRECTION('',(0.,-1.,0.));
#938 = ORIENTED_EDGE('',*,*,#939,.F.);
#939 = EDGE_CURVE('',#940,#932,#942,.T.);
#940 = VERTEX_POINT('',#941);
#941 = CARTESIAN_POINT('',(25.,-53.4,9.2));
#942 = LINE('',#943,#944);
#943 = CARTESIAN_POINT('',(25.,-53.4,10.25));
#944 = VECTOR('',#945,1.);
#945 = DIRECTION('',(0.,0.,-1.));
#946 = ORIENTED_EDGE('',*,*,#947,.F.);
#947 = EDGE_CURVE('',#948,#940,#950,.T.);
#948 = VERTEX_POINT('',#949);
#949 = CARTESIAN_POINT('',(25.,-61.9,9.2));
#950 = LINE('',#951,#952);
#951 = CARTESIAN_POINT('',(25.,-37.95,9.2));
#952 = VECTOR('',#953,1.);
#953 = DIRECTION('',(0.,1.,0.));
#954 = ORIENTED_EDGE('',*,*,#955,.T.);
#955 = EDGE_CURVE('',#948,#748,#956,.T.);
#956 = LINE('',#957,#958);
#957 = CARTESIAN_POINT('',(25.,-61.9,10.25));
#958 = VECTOR('',#959,1.);
#959 = DIRECTION('',(0.,0.,-1.));
#960 = ORIENTED_EDGE('',*,*,#747,.T.);
#961 = ORIENTED_EDGE('',*,*,#962,.T.);
#962 = EDGE_CURVE('',#740,#338,#963,.T.);
#963 = B_SPLINE_CURVE_WITH_KNOTS('',1,(#964,#965),.UNSPECIFIED.,.F.,.F.,
  (2,2),(0.,1.),.PIECEWISE_BEZIER_KNOTS.);
#964 = CARTESIAN_POINT('',(25.,-62.,6.3));
#965 = CARTESIAN_POINT('',(25.,-62.,15.4));
#966 = ORIENTED_EDGE('',*,*,#337,.F.);
#967 = PLANE('',#968);
#968 = AXIS2_PLACEMENT_3D('',#969,#970,#971);
#969 = CARTESIAN_POINT('',(25.,-14.,15.4));
#970 = DIRECTION('',(-1.,0.,0.));
#971 = DIRECTION('',(0.,-1.,0.));
#972 = ADVANCED_FACE('',(#973),#983,.T.);
#973 = FACE_BOUND('',#974,.T.);
#974 = EDGE_LOOP('',(#975,#976,#977,#978));
#975 = ORIENTED_EDGE('',*,*,#724,.T.);
#976 = ORIENTED_EDGE('',*,*,#917,.T.);
#977 = ORIENTED_EDGE('',*,*,#360,.F.);
#978 = ORIENTED_EDGE('',*,*,#979,.F.);
#979 = EDGE_CURVE('',#725,#361,#980,.T.);
#980 = B_SPLINE_CURVE_WITH_KNOTS('',1,(#981,#982),.UNSPECIFIED.,.F.,.F.,
  (2,2),(0.,1.),.PIECEWISE_BEZIER_KNOTS.);
#981 = CARTESIAN_POINT('',(31.5,-68.5,6.3));
#982 = CARTESIAN_POINT('',(31.5,-68.5,15.4));
#983 = PLANE('',#984);
#984 = AXIS2_PLACEMENT_3D('',#985,#986,#987);
#985 = CARTESIAN_POINT('',(31.5,-68.5,15.4));
#986 = DIRECTION('',(0.,-1.,0.));
#987 = DIRECTION('',(1.,0.,0.));
#988 = ADVANCED_FACE('',(#989),#995,.T.);
#989 = FACE_BOUND('',#990,.T.);
#990 = EDGE_LOOP('',(#991,#992,#993,#994));
#991 = ORIENTED_EDGE('',*,*,#962,.F.);
#992 = ORIENTED_EDGE('',*,*,#739,.T.);
#993 = ORIENTED_EDGE('',*,*,#472,.F.);
#994 = ORIENTED_EDGE('',*,*,#384,.F.);
#995 = PLANE('',#996);
#996 = AXIS2_PLACEMENT_3D('',#997,#998,#999);
#997 = CARTESIAN_POINT('',(25.,-62.,15.4));
#998 = DIRECTION('',(-0.707106781187,-0.707106781187,0.));
#999 = DIRECTION('',(0.707106781187,-0.707106781187,0.));
#1000 = ADVANCED_FACE('',(#1001),#1007,.T.);
#1001 = FACE_BOUND('',#1002,.T.);
#1002 = EDGE_LOOP('',(#1003,#1004,#1005,#1006));
#1003 = ORIENTED_EDGE('',*,*,#481,.T.);
#1004 = ORIENTED_EDGE('',*,*,#732,.T.);
#1005 = ORIENTED_EDGE('',*,*,#979,.T.);
#1006 = ORIENTED_EDGE('',*,*,#445,.F.);
#1007 = PLANE('',#1008);
#1008 = AXIS2_PLACEMENT_3D('',#1009,#1010,#1011);
#1009 = CARTESIAN_POINT('',(25.,-62.,15.4));
#1010 = DIRECTION('',(-0.707106781187,-0.707106781187,0.));
#1011 = DIRECTION('',(0.707106781187,-0.707106781187,0.));
#1012 = ADVANCED_FACE('',(#1013,#1097,#1100,#1111),#1117,.F.);
#1013 = FACE_BOUND('',#1014,.F.);
#1014 = EDGE_LOOP('',(#1015,#1025,#1033,#1041,#1049,#1057,#1066,#1075,
    #1083,#1091));
#1015 = ORIENTED_EDGE('',*,*,#1016,.T.);
#1016 = EDGE_CURVE('',#1017,#1019,#1021,.T.);
#1017 = VERTEX_POINT('',#1018);
#1018 = CARTESIAN_POINT('',(47.8,-65.00294372515,15.4));
#1019 = VERTEX_POINT('',#1020);
#1020 = CARTESIAN_POINT('',(47.8,-12.2,15.4));
#1021 = LINE('',#1022,#1023);
#1022 = CARTESIAN_POINT('',(47.8,-65.00294372515,15.4));
#1023 = VECTOR('',#1024,1.);
#1024 = DIRECTION('',(0.,1.,0.));
#1025 = ORIENTED_EDGE('',*,*,#1026,.T.);
#1026 = EDGE_CURVE('',#1019,#1027,#1029,.T.);
#1027 = VERTEX_POINT('',#1028);
#1028 = CARTESIAN_POINT('',(28.497056274848,-12.2,15.4));
#1029 = LINE('',#1030,#1031);
#1030 = CARTESIAN_POINT('',(47.8,-12.2,15.4));
#1031 = VECTOR('',#1032,1.);
#1032 = DIRECTION('',(-1.,0.,0.));
#1033 = ORIENTED_EDGE('',*,*,#1034,.T.);
#1034 = EDGE_CURVE('',#1027,#1035,#1037,.T.);
#1035 = VERTEX_POINT('',#1036);
#1036 = CARTESIAN_POINT('',(26.2,-14.49705627484,15.4));
#1037 = LINE('',#1038,#1039);
#1038 = CARTESIAN_POINT('',(28.497056274848,-12.2,15.4));
#1039 = VECTOR('',#1040,1.);
#1040 = DIRECTION('',(-0.707106781187,-0.707106781187,0.));
#1041 = ORIENTED_EDGE('',*,*,#1042,.T.);
#1042 = EDGE_CURVE('',#1035,#1043,#1045,.T.);
#1043 = VERTEX_POINT('',#1044);
#1044 = CARTESIAN_POINT('',(26.2,-61.50294372515,15.4));
#1045 = LINE('',#1046,#1047);
#1046 = CARTESIAN_POINT('',(26.2,-14.49705627484,15.4));
#1047 = VECTOR('',#1048,1.);
#1048 = DIRECTION('',(0.,-1.,0.));
#1049 = ORIENTED_EDGE('',*,*,#1050,.T.);
#1050 = EDGE_CURVE('',#1043,#1051,#1053,.T.);
#1051 = VERTEX_POINT('',#1052);
#1052 = CARTESIAN_POINT('',(27.605798942524,-62.90874266767,15.4));
#1053 = LINE('',#1054,#1055);
#1054 = CARTESIAN_POINT('',(26.2,-61.50294372515,15.4));
#1055 = VECTOR('',#1056,1.);
#1056 = DIRECTION('',(0.707106781187,-0.707106781187,0.));
#1057 = ORIENTED_EDGE('',*,*,#1058,.T.);
#1058 = EDGE_CURVE('',#1051,#1059,#1061,.T.);
#1059 = VERTEX_POINT('',#1060);
#1060 = CARTESIAN_POINT('',(31.5,-64.,15.4));
#1061 = CIRCLE('',#1062,2.1);
#1062 = AXIS2_PLACEMENT_3D('',#1063,#1064,#1065);
#1063 = CARTESIAN_POINT('',(29.4,-64.,15.4));
#1064 = DIRECTION('',(0.,0.,-1.));
#1065 = DIRECTION('',(1.,0.,0.));
#1066 = ORIENTED_EDGE('',*,*,#1067,.T.);
#1067 = EDGE_CURVE('',#1059,#1068,#1070,.T.);
#1068 = VERTEX_POINT('',#1069);
#1069 = CARTESIAN_POINT('',(30.491257332324,-65.79420105747,15.4));
#1070 = CIRCLE('',#1071,2.1);
#1071 = AXIS2_PLACEMENT_3D('',#1072,#1073,#1074);
#1072 = CARTESIAN_POINT('',(29.4,-64.,15.4));
#1073 = DIRECTION('',(0.,0.,-1.));
#1074 = DIRECTION('',(1.,0.,0.));
#1075 = ORIENTED_EDGE('',*,*,#1076,.T.);
#1076 = EDGE_CURVE('',#1068,#1077,#1079,.T.);
#1077 = VERTEX_POINT('',#1078);
#1078 = CARTESIAN_POINT('',(31.997056274848,-67.3,15.4));
#1079 = LINE('',#1080,#1081);
#1080 = CARTESIAN_POINT('',(26.2,-61.50294372515,15.4));
#1081 = VECTOR('',#1082,1.);
#1082 = DIRECTION('',(0.707106781187,-0.707106781187,0.));
#1083 = ORIENTED_EDGE('',*,*,#1084,.T.);
#1084 = EDGE_CURVE('',#1077,#1085,#1087,.T.);
#1085 = VERTEX_POINT('',#1086);
#1086 = CARTESIAN_POINT('',(45.502943725152,-67.3,15.4));
#1087 = LINE('',#1088,#1089);
#1088 = CARTESIAN_POINT('',(31.997056274848,-67.3,15.4));
#1089 = VECTOR('',#1090,1.);
#1090 = DIRECTION('',(1.,0.,0.));
#1091 = ORIENTED_EDGE('',*,*,#1092,.T.);
#1092 = EDGE_CURVE('',#1085,#1017,#1093,.T.);
#1093 = LINE('',#1094,#1095);
#1094 = CARTESIAN_POINT('',(45.502943725152,-67.3,15.4));
#1095 = VECTOR('',#1096,1.);
#1096 = DIRECTION('',(0.707106781187,0.707106781187,0.));
#1097 = FACE_BOUND('',#1098,.F.);
#1098 = EDGE_LOOP('',(#1099));
#1099 = ORIENTED_EDGE('',*,*,#495,.T.);
#1100 = FACE_BOUND('',#1101,.F.);
#1101 = EDGE_LOOP('',(#1102));
#1102 = ORIENTED_EDGE('',*,*,#1103,.T.);
#1103 = EDGE_CURVE('',#1104,#1104,#1106,.T.);
#1104 = VERTEX_POINT('',#1105);
#1105 = CARTESIAN_POINT('',(47.6,-64.,15.4));
#1106 = CIRCLE('',#1107,2.1);
#1107 = AXIS2_PLACEMENT_3D('',#1108,#1109,#1110);
#1108 = CARTESIAN_POINT('',(45.5,-64.,15.4));
#1109 = DIRECTION('',(0.,0.,-1.));
#1110 = DIRECTION('',(1.,0.,0.));
#1111 = FACE_BOUND('',#1112,.F.);
#1112 = EDGE_LOOP('',(#1113,#1114,#1115,#1116));
#1113 = ORIENTED_EDGE('',*,*,#625,.T.);
#1114 = ORIENTED_EDGE('',*,*,#584,.T.);
#1115 = ORIENTED_EDGE('',*,*,#553,.F.);
#1116 = ORIENTED_EDGE('',*,*,#608,.F.);
#1117 = PLANE('',#1118);
#1118 = AXIS2_PLACEMENT_3D('',#1119,#1120,#1121);
#1119 = CARTESIAN_POINT('',(37.296206325974,-39.06767519813,15.4));
#1120 = DIRECTION('',(0.,0.,1.));
#1121 = DIRECTION('',(1.,0.,0.));
#1122 = ADVANCED_FACE('',(#1123,#1126),#1137,.T.);
#1123 = FACE_BOUND('',#1124,.T.);
#1124 = EDGE_LOOP('',(#1125));
#1125 = ORIENTED_EDGE('',*,*,#520,.T.);
#1126 = FACE_BOUND('',#1127,.T.);
#1127 = EDGE_LOOP('',(#1128));
#1128 = ORIENTED_EDGE('',*,*,#1129,.T.);
#1129 = EDGE_CURVE('',#1130,#1130,#1132,.T.);
#1130 = VERTEX_POINT('',#1131);
#1131 = CARTESIAN_POINT('',(46.65,-64.,14.9));
#1132 = CIRCLE('',#1133,1.15);
#1133 = AXIS2_PLACEMENT_3D('',#1134,#1135,#1136);
#1134 = CARTESIAN_POINT('',(45.5,-64.,14.9));
#1135 = DIRECTION('',(0.,0.,-1.));
#1136 = DIRECTION('',(1.,0.,0.));
#1137 = PLANE('',#1138);
#1138 = AXIS2_PLACEMENT_3D('',#1139,#1140,#1141);
#1139 = CARTESIAN_POINT('',(45.5,-64.,14.9));
#1140 = DIRECTION('',(0.,0.,1.));
#1141 = DIRECTION('',(1.,0.,0.));
#1142 = ADVANCED_FACE('',(#1143),#1161,.T.);
#1143 = FACE_BOUND('',#1144,.F.);
#1144 = EDGE_LOOP('',(#1145,#1151,#1152,#1153,#1159,#1160));
#1145 = ORIENTED_EDGE('',*,*,#1146,.F.);
#1146 = EDGE_CURVE('',#1068,#642,#1147,.T.);
#1147 = LINE('',#1148,#1149);
#1148 = CARTESIAN_POINT('',(30.491257332324,-65.79420105747,6.3));
#1149 = VECTOR('',#1150,1.);
#1150 = DIRECTION('',(-0.,-0.,-1.));
#1151 = ORIENTED_EDGE('',*,*,#1067,.F.);
#1152 = ORIENTED_EDGE('',*,*,#1058,.F.);
#1153 = ORIENTED_EDGE('',*,*,#1154,.T.);
#1154 = EDGE_CURVE('',#1051,#764,#1155,.T.);
#1155 = LINE('',#1156,#1157);
#1156 = CARTESIAN_POINT('',(27.605798942524,-62.90874266767,6.3));
#1157 = VECTOR('',#1158,1.);
#1158 = DIRECTION('',(-0.,-0.,-1.));
#1159 = ORIENTED_EDGE('',*,*,#771,.F.);
#1160 = ORIENTED_EDGE('',*,*,#641,.F.);
#1161 = CYLINDRICAL_SURFACE('',#1162,2.1);
#1162 = AXIS2_PLACEMENT_3D('',#1163,#1164,#1165);
#1163 = CARTESIAN_POINT('',(29.4,-64.,6.3));
#1164 = DIRECTION('',(-0.,-0.,-1.));
#1165 = DIRECTION('',(1.,0.,0.));
#1166 = ADVANCED_FACE('',(#1167),#1178,.T.);
#1167 = FACE_BOUND('',#1168,.T.);
#1168 = EDGE_LOOP('',(#1169,#1170,#1171,#1172));
#1169 = ORIENTED_EDGE('',*,*,#652,.F.);
#1170 = ORIENTED_EDGE('',*,*,#1146,.F.);
#1171 = ORIENTED_EDGE('',*,*,#1076,.T.);
#1172 = ORIENTED_EDGE('',*,*,#1173,.F.);
#1173 = EDGE_CURVE('',#653,#1077,#1174,.T.);
#1174 = LINE('',#1175,#1176);
#1175 = CARTESIAN_POINT('',(31.997056274848,-67.3,6.2));
#1176 = VECTOR('',#1177,1.);
#1177 = DIRECTION('',(0.,0.,1.));
#1178 = PLANE('',#1179);
#1179 = AXIS2_PLACEMENT_3D('',#1180,#1181,#1182);
#1180 = CARTESIAN_POINT('',(26.2,-61.50294372515,6.2));
#1181 = DIRECTION('',(0.707106781187,0.707106781187,0.));
#1182 = DIRECTION('',(0.707106781187,-0.707106781187,0.));
#1183 = ADVANCED_FACE('',(#1184),#1195,.T.);
#1184 = FACE_BOUND('',#1185,.T.);
#1185 = EDGE_LOOP('',(#1186,#1187,#1188,#1189));
#1186 = ORIENTED_EDGE('',*,*,#660,.F.);
#1187 = ORIENTED_EDGE('',*,*,#1173,.T.);
#1188 = ORIENTED_EDGE('',*,*,#1084,.T.);
#1189 = ORIENTED_EDGE('',*,*,#1190,.F.);
#1190 = EDGE_CURVE('',#661,#1085,#1191,.T.);
#1191 = LINE('',#1192,#1193);
#1192 = CARTESIAN_POINT('',(45.502943725152,-67.3,6.2));
#1193 = VECTOR('',#1194,1.);
#1194 = DIRECTION('',(0.,0.,1.));
#1195 = PLANE('',#1196);
#1196 = AXIS2_PLACEMENT_3D('',#1197,#1198,#1199);
#1197 = CARTESIAN_POINT('',(31.997056274848,-67.3,6.2));
#1198 = DIRECTION('',(0.,1.,0.));
#1199 = DIRECTION('',(1.,0.,0.));
#1200 = ADVANCED_FACE('',(#1201),#1228,.T.);
#1201 = FACE_BOUND('',#1202,.T.);
#1202 = EDGE_LOOP('',(#1203,#1204,#1212,#1220,#1226,#1227));
#1203 = ORIENTED_EDGE('',*,*,#763,.F.);
#1204 = ORIENTED_EDGE('',*,*,#1205,.T.);
#1205 = EDGE_CURVE('',#756,#1206,#1208,.T.);
#1206 = VERTEX_POINT('',#1207);
#1207 = CARTESIAN_POINT('',(26.597056274848,-61.9,9.2));
#1208 = LINE('',#1209,#1210);
#1209 = CARTESIAN_POINT('',(26.597056274848,-61.9,5.65));
#1210 = VECTOR('',#1211,1.);
#1211 = DIRECTION('',(0.,0.,1.));
#1212 = ORIENTED_EDGE('',*,*,#1213,.F.);
#1213 = EDGE_CURVE('',#1214,#1206,#1216,.T.);
#1214 = VERTEX_POINT('',#1215);
#1215 = CARTESIAN_POINT('',(26.2,-61.50294372515,9.2));
#1216 = LINE('',#1217,#1218);
#1217 = CARTESIAN_POINT('',(24.749264068712,-60.05220779386,9.2));
#1218 = VECTOR('',#1219,1.);
#1219 = DIRECTION('',(0.707106781187,-0.707106781187,0.));
#1220 = ORIENTED_EDGE('',*,*,#1221,.T.);
#1221 = EDGE_CURVE('',#1214,#1043,#1222,.T.);
#1222 = LINE('',#1223,#1224);
#1223 = CARTESIAN_POINT('',(26.2,-61.50294372515,6.2));
#1224 = VECTOR('',#1225,1.);
#1225 = DIRECTION('',(0.,0.,1.));
#1226 = ORIENTED_EDGE('',*,*,#1050,.T.);
#1227 = ORIENTED_EDGE('',*,*,#1154,.T.);
#1228 = PLANE('',#1229);
#1229 = AXIS2_PLACEMENT_3D('',#1230,#1231,#1232);
#1230 = CARTESIAN_POINT('',(26.2,-61.50294372515,6.2));
#1231 = DIRECTION('',(0.707106781187,0.707106781187,0.));
#1232 = DIRECTION('',(0.707106781187,-0.707106781187,0.));
#1233 = ADVANCED_FACE('',(#1234),#1245,.T.);
#1234 = FACE_BOUND('',#1235,.T.);
#1235 = EDGE_LOOP('',(#1236,#1237,#1238,#1239));
#1236 = ORIENTED_EDGE('',*,*,#668,.F.);
#1237 = ORIENTED_EDGE('',*,*,#1190,.T.);
#1238 = ORIENTED_EDGE('',*,*,#1092,.T.);
#1239 = ORIENTED_EDGE('',*,*,#1240,.F.);
#1240 = EDGE_CURVE('',#669,#1017,#1241,.T.);
#1241 = LINE('',#1242,#1243);
#1242 = CARTESIAN_POINT('',(47.8,-65.00294372515,6.2));
#1243 = VECTOR('',#1244,1.);
#1244 = DIRECTION('',(0.,0.,1.));
#1245 = PLANE('',#1246);
#1246 = AXIS2_PLACEMENT_3D('',#1247,#1248,#1249);
#1247 = CARTESIAN_POINT('',(45.502943725152,-67.3,6.2));
#1248 = DIRECTION('',(-0.707106781187,0.707106781187,0.));
#1249 = DIRECTION('',(0.707106781187,0.707106781187,0.));
#1250 = ADVANCED_FACE('',(#1251),#1262,.T.);
#1251 = FACE_BOUND('',#1252,.T.);
#1252 = EDGE_LOOP('',(#1253,#1259,#1260,#1261));
#1253 = ORIENTED_EDGE('',*,*,#1254,.T.);
#1254 = EDGE_CURVE('',#948,#1206,#1255,.T.);
#1255 = LINE('',#1256,#1257);
#1256 = CARTESIAN_POINT('',(20.,-61.9,9.2));
#1257 = VECTOR('',#1258,1.);
#1258 = DIRECTION('',(1.,0.,0.));
#1259 = ORIENTED_EDGE('',*,*,#1205,.F.);
#1260 = ORIENTED_EDGE('',*,*,#755,.F.);
#1261 = ORIENTED_EDGE('',*,*,#955,.F.);
#1262 = PLANE('',#1263);
#1263 = AXIS2_PLACEMENT_3D('',#1264,#1265,#1266);
#1264 = CARTESIAN_POINT('',(20.,-61.9,5.1));
#1265 = DIRECTION('',(0.,1.,0.));
#1266 = DIRECTION('',(0.,0.,1.));
#1267 = ADVANCED_FACE('',(#1268),#1279,.T.);
#1268 = FACE_BOUND('',#1269,.T.);
#1269 = EDGE_LOOP('',(#1270,#1271,#1272,#1273));
#1270 = ORIENTED_EDGE('',*,*,#676,.F.);
#1271 = ORIENTED_EDGE('',*,*,#1240,.T.);
#1272 = ORIENTED_EDGE('',*,*,#1016,.T.);
#1273 = ORIENTED_EDGE('',*,*,#1274,.F.);
#1274 = EDGE_CURVE('',#677,#1019,#1275,.T.);
#1275 = LINE('',#1276,#1277);
#1276 = CARTESIAN_POINT('',(47.8,-12.2,6.2));
#1277 = VECTOR('',#1278,1.);
#1278 = DIRECTION('',(0.,0.,1.));
#1279 = PLANE('',#1280);
#1280 = AXIS2_PLACEMENT_3D('',#1281,#1282,#1283);
#1281 = CARTESIAN_POINT('',(47.8,-65.00294372515,6.2));
#1282 = DIRECTION('',(-1.,0.,0.));
#1283 = DIRECTION('',(0.,1.,0.));
#1284 = ADVANCED_FACE('',(#1285),#1328,.T.);
#1285 = FACE_BOUND('',#1286,.T.);
#1286 = EDGE_LOOP('',(#1287,#1288,#1289,#1290,#1298,#1306,#1314,#1322));
#1287 = ORIENTED_EDGE('',*,*,#684,.F.);
#1288 = ORIENTED_EDGE('',*,*,#1274,.T.);
#1289 = ORIENTED_EDGE('',*,*,#1026,.T.);
#1290 = ORIENTED_EDGE('',*,*,#1291,.F.);
#1291 = EDGE_CURVE('',#1292,#1027,#1294,.T.);
#1292 = VERTEX_POINT('',#1293);
#1293 = CARTESIAN_POINT('',(28.497056274848,-12.2,12.7));
#1294 = LINE('',#1295,#1296);
#1295 = CARTESIAN_POINT('',(28.497056274848,-12.2,6.2));
#1296 = VECTOR('',#1297,1.);
#1297 = DIRECTION('',(0.,0.,1.));
#1298 = ORIENTED_EDGE('',*,*,#1299,.F.);
#1299 = EDGE_CURVE('',#1300,#1292,#1302,.T.);
#1300 = VERTEX_POINT('',#1301);
#1301 = CARTESIAN_POINT('',(47.,-12.2,12.7));
#1302 = LINE('',#1303,#1304);
#1303 = CARTESIAN_POINT('',(37.6,-12.2,12.7));
#1304 = VECTOR('',#1305,1.);
#1305 = DIRECTION('',(-1.,0.,0.));
#1306 = ORIENTED_EDGE('',*,*,#1307,.F.);
#1307 = EDGE_CURVE('',#1308,#1300,#1310,.T.);
#1308 = VERTEX_POINT('',#1309);
#1309 = CARTESIAN_POINT('',(47.,-12.2,8.5));
#1310 = LINE('',#1311,#1312);
#1311 = CARTESIAN_POINT('',(47.,-12.2,7.35));
#1312 = VECTOR('',#1313,1.);
#1313 = DIRECTION('',(0.,0.,1.));
#1314 = ORIENTED_EDGE('',*,*,#1315,.T.);
#1315 = EDGE_CURVE('',#1308,#1316,#1318,.T.);
#1316 = VERTEX_POINT('',#1317);
#1317 = CARTESIAN_POINT('',(43.7,-12.2,8.5));
#1318 = LINE('',#1319,#1320);
#1319 = CARTESIAN_POINT('',(37.6,-12.2,8.5));
#1320 = VECTOR('',#1321,1.);
#1321 = DIRECTION('',(-1.,0.,0.));
#1322 = ORIENTED_EDGE('',*,*,#1323,.F.);
#1323 = EDGE_CURVE('',#685,#1316,#1324,.T.);
#1324 = LINE('',#1325,#1326);
#1325 = CARTESIAN_POINT('',(43.7,-12.2,6.2));
#1326 = VECTOR('',#1327,1.);
#1327 = DIRECTION('',(0.,0.,1.));
#1328 = PLANE('',#1329);
#1329 = AXIS2_PLACEMENT_3D('',#1330,#1331,#1332);
#1330 = CARTESIAN_POINT('',(47.8,-12.2,6.2));
#1331 = DIRECTION('',(0.,-1.,0.));
#1332 = DIRECTION('',(-1.,0.,0.));
#1333 = ADVANCED_FACE('',(#1334),#1361,.F.);
#1334 = FACE_BOUND('',#1335,.F.);
#1335 = EDGE_LOOP('',(#1336,#1344,#1352,#1358,#1359,#1360));
#1336 = ORIENTED_EDGE('',*,*,#1337,.F.);
#1337 = EDGE_CURVE('',#1338,#796,#1340,.T.);
#1338 = VERTEX_POINT('',#1339);
#1339 = CARTESIAN_POINT('',(43.7,-11.4,11.8));
#1340 = LINE('',#1341,#1342);
#1341 = CARTESIAN_POINT('',(43.7,-20.,11.8));
#1342 = VECTOR('',#1343,1.);
#1343 = DIRECTION('',(0.,1.,0.));
#1344 = ORIENTED_EDGE('',*,*,#1345,.F.);
#1345 = EDGE_CURVE('',#1346,#1338,#1348,.T.);
#1346 = VERTEX_POINT('',#1347);
#1347 = CARTESIAN_POINT('',(43.7,-11.4,8.5));
#1348 = LINE('',#1349,#1350);
#1349 = CARTESIAN_POINT('',(43.7,-11.4,7.35));
#1350 = VECTOR('',#1351,1.);
#1351 = DIRECTION('',(0.,0.,1.));
#1352 = ORIENTED_EDGE('',*,*,#1353,.T.);
#1353 = EDGE_CURVE('',#1346,#1316,#1354,.T.);
#1354 = LINE('',#1355,#1356);
#1355 = CARTESIAN_POINT('',(43.7,-34.05,8.5));
#1356 = VECTOR('',#1357,1.);
#1357 = DIRECTION('',(0.,-1.,0.));
#1358 = ORIENTED_EDGE('',*,*,#1323,.F.);
#1359 = ORIENTED_EDGE('',*,*,#692,.F.);
#1360 = ORIENTED_EDGE('',*,*,#795,.F.);
#1361 = PLANE('',#1362);
#1362 = AXIS2_PLACEMENT_3D('',#1363,#1364,#1365);
#1363 = CARTESIAN_POINT('',(43.7,-20.,6.2));
#1364 = DIRECTION('',(1.,0.,0.));
#1365 = DIRECTION('',(0.,0.,1.));
#1366 = ADVANCED_FACE('',(#1367),#1410,.T.);
#1367 = FACE_BOUND('',#1368,.T.);
#1368 = EDGE_LOOP('',(#1369,#1377,#1378,#1379,#1380,#1388,#1396,#1404));
#1369 = ORIENTED_EDGE('',*,*,#1370,.F.);
#1370 = EDGE_CURVE('',#932,#1371,#1373,.T.);
#1371 = VERTEX_POINT('',#1372);
#1372 = CARTESIAN_POINT('',(26.2,-53.4,6.3));
#1373 = LINE('',#1374,#1375);
#1374 = CARTESIAN_POINT('',(34.5,-53.4,6.3));
#1375 = VECTOR('',#1376,1.);
#1376 = DIRECTION('',(1.,0.,0.));
#1377 = ORIENTED_EDGE('',*,*,#931,.F.);
#1378 = ORIENTED_EDGE('',*,*,#857,.F.);
#1379 = ORIENTED_EDGE('',*,*,#819,.F.);
#1380 = ORIENTED_EDGE('',*,*,#1381,.T.);
#1381 = EDGE_CURVE('',#812,#1382,#1384,.T.);
#1382 = VERTEX_POINT('',#1383);
#1383 = CARTESIAN_POINT('',(30.7,-12.2,6.3));
#1384 = LINE('',#1385,#1386);
#1385 = CARTESIAN_POINT('',(30.7,-15.5,6.3));
#1386 = VECTOR('',#1387,1.);
#1387 = DIRECTION('',(0.,-1.,0.));
#1388 = ORIENTED_EDGE('',*,*,#1389,.T.);
#1389 = EDGE_CURVE('',#1382,#1390,#1392,.T.);
#1390 = VERTEX_POINT('',#1391);
#1391 = CARTESIAN_POINT('',(28.497056274848,-12.2,6.3));
#1392 = LINE('',#1393,#1394);
#1393 = CARTESIAN_POINT('',(48.4,-12.2,6.3));
#1394 = VECTOR('',#1395,1.);
#1395 = DIRECTION('',(-1.,-0.,-0.));
#1396 = ORIENTED_EDGE('',*,*,#1397,.T.);
#1397 = EDGE_CURVE('',#1390,#1398,#1400,.T.);
#1398 = VERTEX_POINT('',#1399);
#1399 = CARTESIAN_POINT('',(26.2,-14.49705627484,6.3));
#1400 = LINE('',#1401,#1402);
#1401 = CARTESIAN_POINT('',(33.922792206136,-6.774264068712,6.3));
#1402 = VECTOR('',#1403,1.);
#1403 = DIRECTION('',(-0.707106781187,-0.707106781187,-0.));
#1404 = ORIENTED_EDGE('',*,*,#1405,.T.);
#1405 = EDGE_CURVE('',#1398,#1371,#1406,.T.);
#1406 = LINE('',#1407,#1408);
#1407 = CARTESIAN_POINT('',(26.2,-12.74852813742,6.3));
#1408 = VECTOR('',#1409,1.);
#1409 = DIRECTION('',(0.,-1.,0.));
#1410 = PLANE('',#1411);
#1411 = AXIS2_PLACEMENT_3D('',#1412,#1413,#1414);
#1412 = CARTESIAN_POINT('',(49.,-11.,6.3));
#1413 = DIRECTION('',(0.,0.,-1.));
#1414 = DIRECTION('',(-0.291161615783,-0.956673880429,-0.));
#1415 = ADVANCED_FACE('',(#1416),#1450,.T.);
#1416 = FACE_BOUND('',#1417,.T.);
#1417 = EDGE_LOOP('',(#1418,#1426,#1434,#1442,#1448,#1449));
#1418 = ORIENTED_EDGE('',*,*,#1419,.F.);
#1419 = EDGE_CURVE('',#1420,#804,#1422,.T.);
#1420 = VERTEX_POINT('',#1421);
#1421 = CARTESIAN_POINT('',(30.7,-11.4,11.8));
#1422 = LINE('',#1423,#1424);
#1423 = CARTESIAN_POINT('',(30.7,-20.,11.8));
#1424 = VECTOR('',#1425,1.);
#1425 = DIRECTION('',(0.,1.,0.));
#1426 = ORIENTED_EDGE('',*,*,#1427,.F.);
#1427 = EDGE_CURVE('',#1428,#1420,#1430,.T.);
#1428 = VERTEX_POINT('',#1429);
#1429 = CARTESIAN_POINT('',(30.7,-11.4,8.5));
#1430 = LINE('',#1431,#1432);
#1431 = CARTESIAN_POINT('',(30.7,-11.4,7.35));
#1432 = VECTOR('',#1433,1.);
#1433 = DIRECTION('',(0.,0.,1.));
#1434 = ORIENTED_EDGE('',*,*,#1435,.T.);
#1435 = EDGE_CURVE('',#1428,#1436,#1438,.T.);
#1436 = VERTEX_POINT('',#1437);
#1437 = CARTESIAN_POINT('',(30.7,-12.2,8.5));
#1438 = LINE('',#1439,#1440);
#1439 = CARTESIAN_POINT('',(30.7,-34.05,8.5));
#1440 = VECTOR('',#1441,1.);
#1441 = DIRECTION('',(0.,-1.,0.));
#1442 = ORIENTED_EDGE('',*,*,#1443,.F.);
#1443 = EDGE_CURVE('',#1382,#1436,#1444,.T.);
#1444 = LINE('',#1445,#1446);
#1445 = CARTESIAN_POINT('',(30.7,-12.2,6.2));
#1446 = VECTOR('',#1447,1.);
#1447 = DIRECTION('',(0.,0.,1.));
#1448 = ORIENTED_EDGE('',*,*,#1381,.F.);
#1449 = ORIENTED_EDGE('',*,*,#811,.F.);
#1450 = PLANE('',#1451);
#1451 = AXIS2_PLACEMENT_3D('',#1452,#1453,#1454);
#1452 = CARTESIAN_POINT('',(30.7,-20.,6.2));
#1453 = DIRECTION('',(1.,0.,0.));
#1454 = DIRECTION('',(0.,0.,1.));
#1455 = ADVANCED_FACE('',(#1456),#1467,.F.);
#1456 = FACE_BOUND('',#1457,.F.);
#1457 = EDGE_LOOP('',(#1458,#1459,#1465,#1466));
#1458 = ORIENTED_EDGE('',*,*,#1419,.F.);
#1459 = ORIENTED_EDGE('',*,*,#1460,.F.);
#1460 = EDGE_CURVE('',#1338,#1420,#1461,.T.);
#1461 = LINE('',#1462,#1463);
#1462 = CARTESIAN_POINT('',(29.05,-11.4,11.8));
#1463 = VECTOR('',#1464,1.);
#1464 = DIRECTION('',(-1.,0.,0.));
#1465 = ORIENTED_EDGE('',*,*,#1337,.T.);
#1466 = ORIENTED_EDGE('',*,*,#803,.F.);
#1467 = PLANE('',#1468);
#1468 = AXIS2_PLACEMENT_3D('',#1469,#1470,#1471);
#1469 = CARTESIAN_POINT('',(30.7,-20.,11.8));
#1470 = DIRECTION('',(0.,0.,1.));
#1471 = DIRECTION('',(1.,0.,0.));
#1472 = ADVANCED_FACE('',(#1473),#1505,.F.);
#1473 = FACE_BOUND('',#1474,.F.);
#1474 = EDGE_LOOP('',(#1475,#1483,#1489,#1490,#1498,#1504));
#1475 = ORIENTED_EDGE('',*,*,#1476,.F.);
#1476 = EDGE_CURVE('',#1477,#875,#1479,.T.);
#1477 = VERTEX_POINT('',#1478);
#1478 = CARTESIAN_POINT('',(27.4,-13.29705627484,12.7));
#1479 = LINE('',#1480,#1481);
#1480 = CARTESIAN_POINT('',(27.4,-48.1,12.7));
#1481 = VECTOR('',#1482,1.);
#1482 = DIRECTION('',(0.,1.,0.));
#1483 = ORIENTED_EDGE('',*,*,#1484,.F.);
#1484 = EDGE_CURVE('',#1292,#1477,#1485,.T.);
#1485 = LINE('',#1486,#1487);
#1486 = CARTESIAN_POINT('',(19.247792206136,-21.44926406871,12.7));
#1487 = VECTOR('',#1488,1.);
#1488 = DIRECTION('',(-0.707106781187,-0.707106781187,0.));
#1489 = ORIENTED_EDGE('',*,*,#1299,.F.);
#1490 = ORIENTED_EDGE('',*,*,#1491,.T.);
#1491 = EDGE_CURVE('',#1300,#1492,#1494,.T.);
#1492 = VERTEX_POINT('',#1493);
#1493 = CARTESIAN_POINT('',(47.,-11.4,12.7));
#1494 = LINE('',#1495,#1496);
#1495 = CARTESIAN_POINT('',(47.,-48.1,12.7));
#1496 = VECTOR('',#1497,1.);
#1497 = DIRECTION('',(0.,1.,0.));
#1498 = ORIENTED_EDGE('',*,*,#1499,.F.);
#1499 = EDGE_CURVE('',#877,#1492,#1500,.T.);
#1500 = LINE('',#1501,#1502);
#1501 = CARTESIAN_POINT('',(27.4,-11.4,12.7));
#1502 = VECTOR('',#1503,1.);
#1503 = DIRECTION('',(1.,0.,0.));
#1504 = ORIENTED_EDGE('',*,*,#874,.F.);
#1505 = PLANE('',#1506);
#1506 = AXIS2_PLACEMENT_3D('',#1507,#1508,#1509);
#1507 = CARTESIAN_POINT('',(27.4,-48.1,12.7));
#1508 = DIRECTION('',(0.,0.,1.));
#1509 = DIRECTION('',(1.,0.,0.));
#1510 = ADVANCED_FACE('',(#1511),#1538,.F.);
#1511 = FACE_BOUND('',#1512,.F.);
#1512 = EDGE_LOOP('',(#1513,#1519,#1520,#1521,#1529,#1535,#1536,#1537));
#1513 = ORIENTED_EDGE('',*,*,#1514,.F.);
#1514 = EDGE_CURVE('',#893,#1428,#1515,.T.);
#1515 = LINE('',#1516,#1517);
#1516 = CARTESIAN_POINT('',(27.4,-11.4,8.5));
#1517 = VECTOR('',#1518,1.);
#1518 = DIRECTION('',(1.,0.,0.));
#1519 = ORIENTED_EDGE('',*,*,#900,.F.);
#1520 = ORIENTED_EDGE('',*,*,#1499,.T.);
#1521 = ORIENTED_EDGE('',*,*,#1522,.F.);
#1522 = EDGE_CURVE('',#1523,#1492,#1525,.T.);
#1523 = VERTEX_POINT('',#1524);
#1524 = CARTESIAN_POINT('',(47.,-11.4,8.5));
#1525 = LINE('',#1526,#1527);
#1526 = CARTESIAN_POINT('',(47.,-11.4,8.5));
#1527 = VECTOR('',#1528,1.);
#1528 = DIRECTION('',(0.,0.,1.));
#1529 = ORIENTED_EDGE('',*,*,#1530,.F.);
#1530 = EDGE_CURVE('',#1346,#1523,#1531,.T.);
#1531 = LINE('',#1532,#1533);
#1532 = CARTESIAN_POINT('',(27.4,-11.4,8.5));
#1533 = VECTOR('',#1534,1.);
#1534 = DIRECTION('',(1.,0.,0.));
#1535 = ORIENTED_EDGE('',*,*,#1345,.T.);
#1536 = ORIENTED_EDGE('',*,*,#1460,.T.);
#1537 = ORIENTED_EDGE('',*,*,#1427,.F.);
#1538 = PLANE('',#1539);
#1539 = AXIS2_PLACEMENT_3D('',#1540,#1541,#1542);
#1540 = CARTESIAN_POINT('',(27.4,-11.4,8.5));
#1541 = DIRECTION('',(0.,1.,0.));
#1542 = DIRECTION('',(0.,0.,1.));
#1543 = ADVANCED_FACE('',(#1544),#1571,.T.);
#1544 = FACE_BOUND('',#1545,.T.);
#1545 = EDGE_LOOP('',(#1546,#1554,#1562,#1568,#1569,#1570));
#1546 = ORIENTED_EDGE('',*,*,#1547,.F.);
#1547 = EDGE_CURVE('',#1548,#885,#1550,.T.);
#1548 = VERTEX_POINT('',#1549);
#1549 = CARTESIAN_POINT('',(27.4,-13.29705627484,8.5));
#1550 = LINE('',#1551,#1552);
#1551 = CARTESIAN_POINT('',(27.4,-48.1,8.5));
#1552 = VECTOR('',#1553,1.);
#1553 = DIRECTION('',(0.,1.,0.));
#1554 = ORIENTED_EDGE('',*,*,#1555,.F.);
#1555 = EDGE_CURVE('',#1556,#1548,#1558,.T.);
#1556 = VERTEX_POINT('',#1557);
#1557 = CARTESIAN_POINT('',(28.497056274848,-12.2,8.5));
#1558 = LINE('',#1559,#1560);
#1559 = CARTESIAN_POINT('',(19.247792206136,-21.44926406871,8.5));
#1560 = VECTOR('',#1561,1.);
#1561 = DIRECTION('',(-0.707106781187,-0.707106781187,0.));
#1562 = ORIENTED_EDGE('',*,*,#1563,.F.);
#1563 = EDGE_CURVE('',#1436,#1556,#1564,.T.);
#1564 = LINE('',#1565,#1566);
#1565 = CARTESIAN_POINT('',(37.6,-12.2,8.5));
#1566 = VECTOR('',#1567,1.);
#1567 = DIRECTION('',(-1.,0.,0.));
#1568 = ORIENTED_EDGE('',*,*,#1435,.F.);
#1569 = ORIENTED_EDGE('',*,*,#1514,.F.);
#1570 = ORIENTED_EDGE('',*,*,#892,.F.);
#1571 = PLANE('',#1572);
#1572 = AXIS2_PLACEMENT_3D('',#1573,#1574,#1575);
#1573 = CARTESIAN_POINT('',(27.4,-48.1,8.5));
#1574 = DIRECTION('',(0.,0.,1.));
#1575 = DIRECTION('',(1.,0.,0.));
#1576 = ADVANCED_FACE('',(#1577),#1588,.T.);
#1577 = FACE_BOUND('',#1578,.T.);
#1578 = EDGE_LOOP('',(#1579,#1580,#1586,#1587));
#1579 = ORIENTED_EDGE('',*,*,#1476,.F.);
#1580 = ORIENTED_EDGE('',*,*,#1581,.F.);
#1581 = EDGE_CURVE('',#1548,#1477,#1582,.T.);
#1582 = LINE('',#1583,#1584);
#1583 = CARTESIAN_POINT('',(27.4,-13.29705627484,7.35));
#1584 = VECTOR('',#1585,1.);
#1585 = DIRECTION('',(0.,0.,1.));
#1586 = ORIENTED_EDGE('',*,*,#1547,.T.);
#1587 = ORIENTED_EDGE('',*,*,#884,.F.);
#1588 = PLANE('',#1589);
#1589 = AXIS2_PLACEMENT_3D('',#1590,#1591,#1592);
#1590 = CARTESIAN_POINT('',(27.4,-48.1,8.5));
#1591 = DIRECTION('',(1.,0.,0.));
#1592 = DIRECTION('',(0.,0.,1.));
#1593 = ADVANCED_FACE('',(#1594),#1613,.F.);
#1594 = FACE_BOUND('',#1595,.F.);
#1595 = EDGE_LOOP('',(#1596,#1604,#1605,#1606,#1607));
#1596 = ORIENTED_EDGE('',*,*,#1597,.F.);
#1597 = EDGE_CURVE('',#940,#1598,#1600,.T.);
#1598 = VERTEX_POINT('',#1599);
#1599 = CARTESIAN_POINT('',(26.2,-53.4,9.2));
#1600 = LINE('',#1601,#1602);
#1601 = CARTESIAN_POINT('',(20.,-53.4,9.2));
#1602 = VECTOR('',#1603,1.);
#1603 = DIRECTION('',(1.,0.,0.));
#1604 = ORIENTED_EDGE('',*,*,#947,.F.);
#1605 = ORIENTED_EDGE('',*,*,#1254,.T.);
#1606 = ORIENTED_EDGE('',*,*,#1213,.F.);
#1607 = ORIENTED_EDGE('',*,*,#1608,.F.);
#1608 = EDGE_CURVE('',#1598,#1214,#1609,.T.);
#1609 = LINE('',#1610,#1611);
#1610 = CARTESIAN_POINT('',(26.2,-38.19852813742,9.2));
#1611 = VECTOR('',#1612,1.);
#1612 = DIRECTION('',(0.,-1.,0.));
#1613 = PLANE('',#1614);
#1614 = AXIS2_PLACEMENT_3D('',#1615,#1616,#1617);
#1615 = CARTESIAN_POINT('',(20.,-61.9,9.2));
#1616 = DIRECTION('',(0.,0.,1.));
#1617 = DIRECTION('',(1.,0.,0.));
#1618 = ADVANCED_FACE('',(#1619),#1630,.F.);
#1619 = FACE_BOUND('',#1620,.F.);
#1620 = EDGE_LOOP('',(#1621,#1622,#1628,#1629));
#1621 = ORIENTED_EDGE('',*,*,#1597,.T.);
#1622 = ORIENTED_EDGE('',*,*,#1623,.F.);
#1623 = EDGE_CURVE('',#1371,#1598,#1624,.T.);
#1624 = LINE('',#1625,#1626);
#1625 = CARTESIAN_POINT('',(26.2,-53.4,5.65));
#1626 = VECTOR('',#1627,1.);
#1627 = DIRECTION('',(0.,0.,1.));
#1628 = ORIENTED_EDGE('',*,*,#1370,.F.);
#1629 = ORIENTED_EDGE('',*,*,#939,.F.);
#1630 = PLANE('',#1631);
#1631 = AXIS2_PLACEMENT_3D('',#1632,#1633,#1634);
#1632 = CARTESIAN_POINT('',(20.,-53.4,5.1));
#1633 = DIRECTION('',(0.,1.,0.));
#1634 = DIRECTION('',(0.,0.,1.));
#1635 = ADVANCED_FACE('',(#1636),#1656,.T.);
#1636 = FACE_BOUND('',#1637,.T.);
#1637 = EDGE_LOOP('',(#1638,#1639,#1645,#1646,#1647,#1648,#1649,#1650));
#1638 = ORIENTED_EDGE('',*,*,#1397,.F.);
#1639 = ORIENTED_EDGE('',*,*,#1640,.T.);
#1640 = EDGE_CURVE('',#1390,#1556,#1641,.T.);
#1641 = LINE('',#1642,#1643);
#1642 = CARTESIAN_POINT('',(28.497056274848,-12.2,6.2));
#1643 = VECTOR('',#1644,1.);
#1644 = DIRECTION('',(0.,0.,1.));
#1645 = ORIENTED_EDGE('',*,*,#1555,.T.);
#1646 = ORIENTED_EDGE('',*,*,#1581,.T.);
#1647 = ORIENTED_EDGE('',*,*,#1484,.F.);
#1648 = ORIENTED_EDGE('',*,*,#1291,.T.);
#1649 = ORIENTED_EDGE('',*,*,#1034,.T.);
#1650 = ORIENTED_EDGE('',*,*,#1651,.F.);
#1651 = EDGE_CURVE('',#1398,#1035,#1652,.T.);
#1652 = LINE('',#1653,#1654);
#1653 = CARTESIAN_POINT('',(26.2,-14.49705627484,6.2));
#1654 = VECTOR('',#1655,1.);
#1655 = DIRECTION('',(0.,0.,1.));
#1656 = PLANE('',#1657);
#1657 = AXIS2_PLACEMENT_3D('',#1658,#1659,#1660);
#1658 = CARTESIAN_POINT('',(28.497056274848,-12.2,6.2));
#1659 = DIRECTION('',(0.707106781187,-0.707106781187,0.));
#1660 = DIRECTION('',(-0.707106781187,-0.707106781187,0.));
#1661 = ADVANCED_FACE('',(#1662),#1670,.T.);
#1662 = FACE_BOUND('',#1663,.T.);
#1663 = EDGE_LOOP('',(#1664,#1665,#1666,#1667,#1668,#1669));
#1664 = ORIENTED_EDGE('',*,*,#1405,.F.);
#1665 = ORIENTED_EDGE('',*,*,#1651,.T.);
#1666 = ORIENTED_EDGE('',*,*,#1042,.T.);
#1667 = ORIENTED_EDGE('',*,*,#1221,.F.);
#1668 = ORIENTED_EDGE('',*,*,#1608,.F.);
#1669 = ORIENTED_EDGE('',*,*,#1623,.F.);
#1670 = PLANE('',#1671);
#1671 = AXIS2_PLACEMENT_3D('',#1672,#1673,#1674);
#1672 = CARTESIAN_POINT('',(26.2,-14.49705627484,6.2));
#1673 = DIRECTION('',(1.,0.,0.));
#1674 = DIRECTION('',(0.,-1.,0.));
#1675 = ADVANCED_FACE('',(#1676),#1695,.T.);
#1676 = FACE_BOUND('',#1677,.F.);
#1677 = EDGE_LOOP('',(#1678,#1687,#1693,#1694));
#1678 = ORIENTED_EDGE('',*,*,#1679,.F.);
#1679 = EDGE_CURVE('',#1680,#1680,#1682,.T.);
#1680 = VERTEX_POINT('',#1681);
#1681 = CARTESIAN_POINT('',(47.6,-64.,6.3));
#1682 = CIRCLE('',#1683,2.1);
#1683 = AXIS2_PLACEMENT_3D('',#1684,#1685,#1686);
#1684 = CARTESIAN_POINT('',(45.5,-64.,6.3));
#1685 = DIRECTION('',(0.,0.,1.));
#1686 = DIRECTION('',(1.,0.,0.));
#1687 = ORIENTED_EDGE('',*,*,#1688,.T.);
#1688 = EDGE_CURVE('',#1680,#1104,#1689,.T.);
#1689 = LINE('',#1690,#1691);
#1690 = CARTESIAN_POINT('',(47.6,-64.,6.3));
#1691 = VECTOR('',#1692,1.);
#1692 = DIRECTION('',(0.,0.,1.));
#1693 = ORIENTED_EDGE('',*,*,#1103,.F.);
#1694 = ORIENTED_EDGE('',*,*,#1688,.F.);
#1695 = CYLINDRICAL_SURFACE('',#1696,2.1);
#1696 = AXIS2_PLACEMENT_3D('',#1697,#1698,#1699);
#1697 = CARTESIAN_POINT('',(45.5,-64.,6.3));
#1698 = DIRECTION('',(-0.,-0.,-1.));
#1699 = DIRECTION('',(1.,0.,0.));
#1700 = ADVANCED_FACE('',(#1701),#1720,.F.);
#1701 = FACE_BOUND('',#1702,.T.);
#1702 = EDGE_LOOP('',(#1703,#1711,#1718,#1719));
#1703 = ORIENTED_EDGE('',*,*,#1704,.F.);
#1704 = EDGE_CURVE('',#1705,#1130,#1707,.T.);
#1705 = VERTEX_POINT('',#1706);
#1706 = CARTESIAN_POINT('',(46.65,-64.,6.3));
#1707 = LINE('',#1708,#1709);
#1708 = CARTESIAN_POINT('',(46.65,-64.,6.2));
#1709 = VECTOR('',#1710,1.);
#1710 = DIRECTION('',(0.,0.,1.));
#1711 = ORIENTED_EDGE('',*,*,#1712,.T.);
#1712 = EDGE_CURVE('',#1705,#1705,#1713,.T.);
#1713 = CIRCLE('',#1714,1.15);
#1714 = AXIS2_PLACEMENT_3D('',#1715,#1716,#1717);
#1715 = CARTESIAN_POINT('',(45.5,-64.,6.3));
#1716 = DIRECTION('',(0.,0.,-1.));
#1717 = DIRECTION('',(1.,0.,0.));
#1718 = ORIENTED_EDGE('',*,*,#1704,.T.);
#1719 = ORIENTED_EDGE('',*,*,#1129,.F.);
#1720 = CYLINDRICAL_SURFACE('',#1721,1.15);
#1721 = AXIS2_PLACEMENT_3D('',#1722,#1723,#1724);
#1722 = CARTESIAN_POINT('',(45.5,-64.,6.2));
#1723 = DIRECTION('',(-0.,-0.,-1.));
#1724 = DIRECTION('',(1.,0.,0.));
#1725 = ADVANCED_FACE('',(#1726),#1737,.T.);
#1726 = FACE_BOUND('',#1727,.T.);
#1727 = EDGE_LOOP('',(#1728,#1729,#1735,#1736));
#1728 = ORIENTED_EDGE('',*,*,#1315,.F.);
#1729 = ORIENTED_EDGE('',*,*,#1730,.T.);
#1730 = EDGE_CURVE('',#1308,#1523,#1731,.T.);
#1731 = LINE('',#1732,#1733);
#1732 = CARTESIAN_POINT('',(47.,-48.1,8.5));
#1733 = VECTOR('',#1734,1.);
#1734 = DIRECTION('',(0.,1.,0.));
#1735 = ORIENTED_EDGE('',*,*,#1530,.F.);
#1736 = ORIENTED_EDGE('',*,*,#1353,.T.);
#1737 = PLANE('',#1738);
#1738 = AXIS2_PLACEMENT_3D('',#1739,#1740,#1741);
#1739 = CARTESIAN_POINT('',(27.4,-48.1,8.5));
#1740 = DIRECTION('',(0.,0.,1.));
#1741 = DIRECTION('',(1.,0.,0.));
#1742 = ADVANCED_FACE('',(#1743),#1749,.F.);
#1743 = FACE_BOUND('',#1744,.F.);
#1744 = EDGE_LOOP('',(#1745,#1746,#1747,#1748));
#1745 = ORIENTED_EDGE('',*,*,#1491,.F.);
#1746 = ORIENTED_EDGE('',*,*,#1307,.F.);
#1747 = ORIENTED_EDGE('',*,*,#1730,.T.);
#1748 = ORIENTED_EDGE('',*,*,#1522,.T.);
#1749 = PLANE('',#1750);
#1750 = AXIS2_PLACEMENT_3D('',#1751,#1752,#1753);
#1751 = CARTESIAN_POINT('',(47.,-48.1,8.5));
#1752 = DIRECTION('',(1.,0.,0.));
#1753 = DIRECTION('',(0.,0.,1.));
#1754 = ADVANCED_FACE('',(#1755),#1761,.T.);
#1755 = FACE_BOUND('',#1756,.T.);
#1756 = EDGE_LOOP('',(#1757,#1758,#1759,#1760));
#1757 = ORIENTED_EDGE('',*,*,#1563,.T.);
#1758 = ORIENTED_EDGE('',*,*,#1640,.F.);
#1759 = ORIENTED_EDGE('',*,*,#1389,.F.);
#1760 = ORIENTED_EDGE('',*,*,#1443,.T.);
#1761 = PLANE('',#1762);
#1762 = AXIS2_PLACEMENT_3D('',#1763,#1764,#1765);
#1763 = CARTESIAN_POINT('',(47.8,-12.2,6.2));
#1764 = DIRECTION('',(0.,-1.,0.));
#1765 = DIRECTION('',(-1.,0.,0.));
#1766 = ADVANCED_FACE('',(#1767,#1770),#1773,.F.);
#1767 = FACE_BOUND('',#1768,.F.);
#1768 = EDGE_LOOP('',(#1769));
#1769 = ORIENTED_EDGE('',*,*,#1679,.T.);
#1770 = FACE_BOUND('',#1771,.F.);
#1771 = EDGE_LOOP('',(#1772));
#1772 = ORIENTED_EDGE('',*,*,#1712,.T.);
#1773 = PLANE('',#1774);
#1774 = AXIS2_PLACEMENT_3D('',#1775,#1776,#1777);
#1775 = CARTESIAN_POINT('',(45.5,-64.,6.3));
#1776 = DIRECTION('',(0.,0.,1.));
#1777 = DIRECTION('',(1.,0.,0.));
#1778 = ( GEOMETRIC_REPRESENTATION_CONTEXT(3) 
GLOBAL_UNCERTAINTY_ASSIGNED_CONTEXT((#1782)) 
GLOBAL_UNIT_ASSIGNED_CONTEXT((#1779,#1780,#1781)) REPRESENTATION_CONTEXT
('Context #1','3D Context with UNIT and UNCERTAINTY') );
#1779 = ( LENGTH_UNIT() NAMED_UNIT(*) SI_UNIT(.MILLI.,.METRE.) );
#1780 = ( NAMED_UNIT(*) PLANE_ANGLE_UNIT() SI_UNIT($,.RADIAN.) );
#1781 = ( NAMED_UNIT(*) SI_UNIT($,.STERADIAN.) SOLID_ANGLE_UNIT() );
#1782 = UNCERTAINTY_MEASURE_WITH_UNIT(LENGTH_MEASURE(2.E-05),#1779,
  'distance_accuracy_value','confusion accuracy');
#1783 = PRODUCT_RELATED_PRODUCT_CATEGORY('part',$,(#7));
ENDSEC;
END-ISO-10303-21;
