ISO-10303-21;
HEADER;
FILE_DESCRIPTION(('FreeCAD Model'),'2;1');
FILE_NAME('Open CASCADE Shape Model','2026-09-21T18:58:36',('FreeCAD'),(
    'FreeCAD'),'Open CASCADE STEP processor 7.8','FreeCAD','Unknown');
FILE_SCHEMA(('AUTOMOTIVE_DESIGN { 1 0 10303 214 1 1 1 1 }'));
ENDSEC;
DATA;
#1 = APPLICATION_PROTOCOL_DEFINITION('international standard',
  'automotive_design',2000,#2);
#2 = APPLICATION_CONTEXT(
  'core data for automotive mechanical design processes');
#3 = SHAPE_DEFINITION_REPRESENTATION(#4,#10);
#4 = PRODUCT_DEFINITION_SHAPE('','',#5);
#5 = PRODUCT_DEFINITION('design','',#6,#9);
#6 = PRODUCT_DEFINITION_FORMATION('','',#7);
#7 = PRODUCT('Open CASCADE STEP translator 7.8 30',
  'Open CASCADE STEP translator 7.8 30','',(#8));
#8 = PRODUCT_CONTEXT('',#2,'mechanical');
#9 = PRODUCT_DEFINITION_CONTEXT('part definition',#2,'design');
#10 = ADVANCED_BREP_SHAPE_REPRESENTATION('',(#11,#15),#1610);
#11 = AXIS2_PLACEMENT_3D('',#12,#13,#14);
#12 = CARTESIAN_POINT('',(0.,0.,0.));
#13 = DIRECTION('',(0.,0.,1.));
#14 = DIRECTION('',(1.,0.,-0.));
#15 = MANIFOLD_SOLID_BREP('',#16);
#16 = CLOSED_SHELL('',(#17,#50,#70,#210,#235,#310,#341,#406,#437,#500,
    #531,#556,#581,#599,#624,#649,#680,#704,#728,#745,#844,#893,#933,
    #957,#990,#1037,#1070,#1103,#1120,#1144,#1176,#1193,#1303,#1323,
    #1347,#1364,#1381,#1400,#1417,#1434,#1467,#1486,#1507,#1519,#1536,
    #1548,#1573,#1598));
#17 = ADVANCED_FACE('',(#18),#45,.F.);
#18 = FACE_BOUND('',#19,.T.);
#19 = EDGE_LOOP('',(#20,#29,#37,#44));
#20 = ORIENTED_EDGE('',*,*,#21,.F.);
#21 = EDGE_CURVE('',#22,#22,#24,.T.);
#22 = VERTEX_POINT('',#23);
#23 = CARTESIAN_POINT('',(31.25,-64.,14.9));
#24 = CIRCLE('',#25,1.85);
#25 = AXIS2_PLACEMENT_3D('',#26,#27,#28);
#26 = CARTESIAN_POINT('',(29.4,-64.,14.9));
#27 = DIRECTION('',(0.,0.,1.));
#28 = DIRECTION('',(1.,0.,0.));
#29 = ORIENTED_EDGE('',*,*,#30,.T.);
#30 = EDGE_CURVE('',#22,#31,#33,.T.);
#31 = VERTEX_POINT('',#32);
#32 = CARTESIAN_POINT('',(31.25,-64.,16.6));
#33 = LINE('',#34,#35);
#34 = CARTESIAN_POINT('',(31.25,-64.,14.9));
#35 = VECTOR('',#36,1.);
#36 = DIRECTION('',(0.,0.,1.));
#37 = ORIENTED_EDGE('',*,*,#38,.F.);
#38 = EDGE_CURVE('',#31,#31,#39,.T.);
#39 = CIRCLE('',#40,1.85);
#40 = AXIS2_PLACEMENT_3D('',#41,#42,#43);
#41 = CARTESIAN_POINT('',(29.4,-64.,16.6));
#42 = DIRECTION('',(0.,0.,-1.));
#43 = DIRECTION('',(1.,0.,0.));
#44 = ORIENTED_EDGE('',*,*,#30,.F.);
#45 = CYLINDRICAL_SURFACE('',#46,1.85);
#46 = AXIS2_PLACEMENT_3D('',#47,#48,#49);
#47 = CARTESIAN_POINT('',(29.4,-64.,14.9));
#48 = DIRECTION('',(-0.,-0.,-1.));
#49 = DIRECTION('',(1.,0.,0.));
#50 = ADVANCED_FACE('',(#51,#54),#65,.T.);
#51 = FACE_BOUND('',#52,.T.);
#52 = EDGE_LOOP('',(#53));
#53 = ORIENTED_EDGE('',*,*,#21,.T.);
#54 = FACE_BOUND('',#55,.T.);
#55 = EDGE_LOOP('',(#56));
#56 = ORIENTED_EDGE('',*,*,#57,.T.);
#57 = EDGE_CURVE('',#58,#58,#60,.T.);
#58 = VERTEX_POINT('',#59);
#59 = CARTESIAN_POINT('',(30.55,-64.,14.9));
#60 = CIRCLE('',#61,1.15);
#61 = AXIS2_PLACEMENT_3D('',#62,#63,#64);
#62 = CARTESIAN_POINT('',(29.4,-64.,14.9));
#63 = DIRECTION('',(0.,0.,-1.));
#64 = DIRECTION('',(1.,0.,0.));
#65 = PLANE('',#66);
#66 = AXIS2_PLACEMENT_3D('',#67,#68,#69);
#67 = CARTESIAN_POINT('',(29.4,-64.,14.9));
#68 = DIRECTION('',(0.,0.,1.));
#69 = DIRECTION('',(1.,0.,0.));
#70 = ADVANCED_FACE('',(#71,#146,#149,#160,#171),#205,.T.);
#71 = FACE_BOUND('',#72,.T.);
#72 = EDGE_LOOP('',(#73,#83,#91,#99,#107,#116,#124,#132,#140));
#73 = ORIENTED_EDGE('',*,*,#74,.T.);
#74 = EDGE_CURVE('',#75,#77,#79,.T.);
#75 = VERTEX_POINT('',#76);
#76 = CARTESIAN_POINT('',(49.,-11.,16.6));
#77 = VERTEX_POINT('',#78);
#78 = CARTESIAN_POINT('',(28.,-11.,16.6));
#79 = LINE('',#80,#81);
#80 = CARTESIAN_POINT('',(49.,-11.,16.6));
#81 = VECTOR('',#82,1.);
#82 = DIRECTION('',(-1.,0.,0.));
#83 = ORIENTED_EDGE('',*,*,#84,.T.);
#84 = EDGE_CURVE('',#77,#85,#87,.T.);
#85 = VERTEX_POINT('',#86);
#86 = CARTESIAN_POINT('',(25.,-14.,16.6));
#87 = LINE('',#88,#89);
#88 = CARTESIAN_POINT('',(28.,-11.,16.6));
#89 = VECTOR('',#90,1.);
#90 = DIRECTION('',(-0.707106781187,-0.707106781187,0.));
#91 = ORIENTED_EDGE('',*,*,#92,.T.);
#92 = EDGE_CURVE('',#85,#93,#95,.T.);
#93 = VERTEX_POINT('',#94);
#94 = CARTESIAN_POINT('',(25.,-62.,16.6));
#95 = LINE('',#96,#97);
#96 = CARTESIAN_POINT('',(25.,-14.,16.6));
#97 = VECTOR('',#98,1.);
#98 = DIRECTION('',(0.,-1.,0.));
#99 = ORIENTED_EDGE('',*,*,#100,.T.);
#100 = EDGE_CURVE('',#93,#101,#103,.T.);
#101 = VERTEX_POINT('',#102);
#102 = CARTESIAN_POINT('',(27.325357215773,-64.32535721577,16.6));
#103 = LINE('',#104,#105);
#104 = CARTESIAN_POINT('',(25.,-62.,16.6));
#105 = VECTOR('',#106,1.);
#106 = DIRECTION('',(0.707106781187,-0.707106781187,0.));
#107 = ORIENTED_EDGE('',*,*,#108,.T.);
#108 = EDGE_CURVE('',#101,#109,#111,.T.);
#109 = VERTEX_POINT('',#110);
#110 = CARTESIAN_POINT('',(29.074642784227,-66.07464278422,16.6));
#111 = CIRCLE('',#112,2.1);
#112 = AXIS2_PLACEMENT_3D('',#113,#114,#115);
#113 = CARTESIAN_POINT('',(29.4,-64.,16.6));
#114 = DIRECTION('',(0.,0.,1.));
#115 = DIRECTION('',(1.,0.,0.));
#116 = ORIENTED_EDGE('',*,*,#117,.T.);
#117 = EDGE_CURVE('',#109,#118,#120,.T.);
#118 = VERTEX_POINT('',#119);
#119 = CARTESIAN_POINT('',(31.5,-68.5,16.6));
#120 = LINE('',#121,#122);
#121 = CARTESIAN_POINT('',(25.,-62.,16.6));
#122 = VECTOR('',#123,1.);
#123 = DIRECTION('',(0.707106781187,-0.707106781187,0.));
#124 = ORIENTED_EDGE('',*,*,#125,.T.);
#125 = EDGE_CURVE('',#118,#126,#128,.T.);
#126 = VERTEX_POINT('',#127);
#127 = CARTESIAN_POINT('',(46.,-68.5,16.6));
#128 = LINE('',#129,#130);
#129 = CARTESIAN_POINT('',(31.5,-68.5,16.6));
#130 = VECTOR('',#131,1.);
#131 = DIRECTION('',(1.,0.,0.));
#132 = ORIENTED_EDGE('',*,*,#133,.T.);
#133 = EDGE_CURVE('',#126,#134,#136,.T.);
#134 = VERTEX_POINT('',#135);
#135 = CARTESIAN_POINT('',(49.,-65.5,16.6));
#136 = LINE('',#137,#138);
#137 = CARTESIAN_POINT('',(46.,-68.5,16.6));
#138 = VECTOR('',#139,1.);
#139 = DIRECTION('',(0.707106781187,0.707106781187,0.));
#140 = ORIENTED_EDGE('',*,*,#141,.T.);
#141 = EDGE_CURVE('',#134,#75,#142,.T.);
#142 = LINE('',#143,#144);
#143 = CARTESIAN_POINT('',(49.,-65.5,16.6));
#144 = VECTOR('',#145,1.);
#145 = DIRECTION('',(0.,1.,0.));
#146 = FACE_BOUND('',#147,.T.);
#147 = EDGE_LOOP('',(#148));
#148 = ORIENTED_EDGE('',*,*,#38,.T.);
#149 = FACE_BOUND('',#150,.T.);
#150 = EDGE_LOOP('',(#151));
#151 = ORIENTED_EDGE('',*,*,#152,.T.);
#152 = EDGE_CURVE('',#153,#153,#155,.T.);
#153 = VERTEX_POINT('',#154);
#154 = CARTESIAN_POINT('',(38.4,-59.5,16.6));
#155 = CIRCLE('',#156,1.4);
#156 = AXIS2_PLACEMENT_3D('',#157,#158,#159);
#157 = CARTESIAN_POINT('',(37.,-59.5,16.6));
#158 = DIRECTION('',(0.,0.,-1.));
#159 = DIRECTION('',(1.,0.,0.));
#160 = FACE_BOUND('',#161,.T.);
#161 = EDGE_LOOP('',(#162));
#162 = ORIENTED_EDGE('',*,*,#163,.T.);
#163 = EDGE_CURVE('',#164,#164,#166,.T.);
#164 = VERTEX_POINT('',#165);
#165 = CARTESIAN_POINT('',(47.35,-64.,16.6));
#166 = CIRCLE('',#167,1.85);
#167 = AXIS2_PLACEMENT_3D('',#168,#169,#170);
#168 = CARTESIAN_POINT('',(45.5,-64.,16.6));
#169 = DIRECTION('',(0.,0.,-1.));
#170 = DIRECTION('',(1.,0.,0.));
#171 = FACE_BOUND('',#172,.T.);
#172 = EDGE_LOOP('',(#173,#183,#191,#199));
#173 = ORIENTED_EDGE('',*,*,#174,.T.);
#174 = EDGE_CURVE('',#175,#177,#179,.T.);
#175 = VERTEX_POINT('',#176);
#176 = CARTESIAN_POINT('',(29.95,-18.25,16.6));
#177 = VERTEX_POINT('',#178);
#178 = CARTESIAN_POINT('',(44.45,-18.25,16.6));
#179 = LINE('',#180,#181);
#180 = CARTESIAN_POINT('',(39.475,-18.25,16.6));
#181 = VECTOR('',#182,1.);
#182 = DIRECTION('',(1.,0.,0.));
#183 = ORIENTED_EDGE('',*,*,#184,.T.);
#184 = EDGE_CURVE('',#177,#185,#187,.T.);
#185 = VERTEX_POINT('',#186);
#186 = CARTESIAN_POINT('',(44.45,-49.35,16.6));
#187 = LINE('',#188,#189);
#188 = CARTESIAN_POINT('',(44.45,-30.175,16.6));
#189 = VECTOR('',#190,1.);
#190 = DIRECTION('',(0.,-1.,0.));
#191 = ORIENTED_EDGE('',*,*,#192,.F.);
#192 = EDGE_CURVE('',#193,#185,#195,.T.);
#193 = VERTEX_POINT('',#194);
#194 = CARTESIAN_POINT('',(29.95,-49.35,16.6));
#195 = LINE('',#196,#197);
#196 = CARTESIAN_POINT('',(39.475,-49.35,16.6));
#197 = VECTOR('',#198,1.);
#198 = DIRECTION('',(1.,0.,0.));
#199 = ORIENTED_EDGE('',*,*,#200,.F.);
#200 = EDGE_CURVE('',#175,#193,#201,.T.);
#201 = LINE('',#202,#203);
#202 = CARTESIAN_POINT('',(29.95,-30.175,16.6));
#203 = VECTOR('',#204,1.);
#204 = DIRECTION('',(0.,-1.,0.));
#205 = PLANE('',#206);
#206 = AXIS2_PLACEMENT_3D('',#207,#208,#209);
#207 = CARTESIAN_POINT('',(37.337943534421,-39.01902818063,16.6));
#208 = DIRECTION('',(0.,0.,1.));
#209 = DIRECTION('',(1.,0.,0.));
#210 = ADVANCED_FACE('',(#211),#230,.F.);
#211 = FACE_BOUND('',#212,.T.);
#212 = EDGE_LOOP('',(#213,#221,#228,#229));
#213 = ORIENTED_EDGE('',*,*,#214,.F.);
#214 = EDGE_CURVE('',#215,#58,#217,.T.);
#215 = VERTEX_POINT('',#216);
#216 = CARTESIAN_POINT('',(30.55,-64.,6.3));
#217 = LINE('',#218,#219);
#218 = CARTESIAN_POINT('',(30.55,-64.,6.2));
#219 = VECTOR('',#220,1.);
#220 = DIRECTION('',(0.,0.,1.));
#221 = ORIENTED_EDGE('',*,*,#222,.T.);
#222 = EDGE_CURVE('',#215,#215,#223,.T.);
#223 = CIRCLE('',#224,1.15);
#224 = AXIS2_PLACEMENT_3D('',#225,#226,#227);
#225 = CARTESIAN_POINT('',(29.4,-64.,6.3));
#226 = DIRECTION('',(0.,0.,-1.));
#227 = DIRECTION('',(1.,0.,0.));
#228 = ORIENTED_EDGE('',*,*,#214,.T.);
#229 = ORIENTED_EDGE('',*,*,#57,.F.);
#230 = CYLINDRICAL_SURFACE('',#231,1.15);
#231 = AXIS2_PLACEMENT_3D('',#232,#233,#234);
#232 = CARTESIAN_POINT('',(29.4,-64.,6.2));
#233 = DIRECTION('',(-0.,-0.,-1.));
#234 = DIRECTION('',(1.,0.,0.));
#235 = ADVANCED_FACE('',(#236),#305,.T.);
#236 = FACE_BOUND('',#237,.T.);
#237 = EDGE_LOOP('',(#238,#247,#255,#263,#271,#279,#287,#294,#299,#300)
  );
#238 = ORIENTED_EDGE('',*,*,#239,.F.);
#239 = EDGE_CURVE('',#240,#242,#244,.T.);
#240 = VERTEX_POINT('',#241);
#241 = CARTESIAN_POINT('',(49.,-11.,6.3));
#242 = VERTEX_POINT('',#243);
#243 = CARTESIAN_POINT('',(49.,-11.,15.4));
#244 = B_SPLINE_CURVE_WITH_KNOTS('',1,(#245,#246),.UNSPECIFIED.,.F.,.F.,
  (2,2),(0.,1.),.PIECEWISE_BEZIER_KNOTS.);
#245 = CARTESIAN_POINT('',(49.,-11.,6.3));
#246 = CARTESIAN_POINT('',(49.,-11.,15.4));
#247 = ORIENTED_EDGE('',*,*,#248,.T.);
#248 = EDGE_CURVE('',#240,#249,#251,.T.);
#249 = VERTEX_POINT('',#250);
#250 = CARTESIAN_POINT('',(43.7,-11.,6.3));
#251 = LINE('',#252,#253);
#252 = CARTESIAN_POINT('',(49.,-11.,6.3));
#253 = VECTOR('',#254,1.);
#254 = DIRECTION('',(-1.,0.,0.));
#255 = ORIENTED_EDGE('',*,*,#256,.F.);
#256 = EDGE_CURVE('',#257,#249,#259,.T.);
#257 = VERTEX_POINT('',#258);
#258 = CARTESIAN_POINT('',(43.7,-11.,11.8));
#259 = LINE('',#260,#261);
#260 = CARTESIAN_POINT('',(43.7,-11.,8.825));
#261 = VECTOR('',#262,1.);
#262 = DIRECTION('',(0.,0.,-1.));
#263 = ORIENTED_EDGE('',*,*,#264,.F.);
#264 = EDGE_CURVE('',#265,#257,#267,.T.);
#265 = VERTEX_POINT('',#266);
#266 = CARTESIAN_POINT('',(30.7,-11.,11.8));
#267 = LINE('',#268,#269);
#268 = CARTESIAN_POINT('',(34.6,-11.,11.8));
#269 = VECTOR('',#270,1.);
#270 = DIRECTION('',(1.,0.,0.));
#271 = ORIENTED_EDGE('',*,*,#272,.T.);
#272 = EDGE_CURVE('',#265,#273,#275,.T.);
#273 = VERTEX_POINT('',#274);
#274 = CARTESIAN_POINT('',(30.7,-11.,6.3));
#275 = LINE('',#276,#277);
#276 = CARTESIAN_POINT('',(30.7,-11.,8.825));
#277 = VECTOR('',#278,1.);
#278 = DIRECTION('',(0.,0.,-1.));
#279 = ORIENTED_EDGE('',*,*,#280,.T.);
#280 = EDGE_CURVE('',#273,#281,#283,.T.);
#281 = VERTEX_POINT('',#282);
#282 = CARTESIAN_POINT('',(28.,-11.,6.3));
#283 = LINE('',#284,#285);
#284 = CARTESIAN_POINT('',(49.,-11.,6.3));
#285 = VECTOR('',#286,1.);
#286 = DIRECTION('',(-1.,0.,0.));
#287 = ORIENTED_EDGE('',*,*,#288,.T.);
#288 = EDGE_CURVE('',#281,#289,#291,.T.);
#289 = VERTEX_POINT('',#290);
#290 = CARTESIAN_POINT('',(28.,-11.,15.4));
#291 = B_SPLINE_CURVE_WITH_KNOTS('',1,(#292,#293),.UNSPECIFIED.,.F.,.F.,
  (2,2),(0.,1.),.PIECEWISE_BEZIER_KNOTS.);
#292 = CARTESIAN_POINT('',(28.,-11.,6.3));
#293 = CARTESIAN_POINT('',(28.,-11.,15.4));
#294 = ORIENTED_EDGE('',*,*,#295,.T.);
#295 = EDGE_CURVE('',#289,#77,#296,.T.);
#296 = B_SPLINE_CURVE_WITH_KNOTS('',1,(#297,#298),.UNSPECIFIED.,.F.,.F.,
  (2,2),(0.,1.),.PIECEWISE_BEZIER_KNOTS.);
#297 = CARTESIAN_POINT('',(28.,-11.,15.4));
#298 = CARTESIAN_POINT('',(28.,-11.,16.6));
#299 = ORIENTED_EDGE('',*,*,#74,.F.);
#300 = ORIENTED_EDGE('',*,*,#301,.F.);
#301 = EDGE_CURVE('',#242,#75,#302,.T.);
#302 = B_SPLINE_CURVE_WITH_KNOTS('',1,(#303,#304),.UNSPECIFIED.,.F.,.F.,
  (2,2),(0.,1.),.PIECEWISE_BEZIER_KNOTS.);
#303 = CARTESIAN_POINT('',(49.,-11.,15.4));
#304 = CARTESIAN_POINT('',(49.,-11.,16.6));
#305 = PLANE('',#306);
#306 = AXIS2_PLACEMENT_3D('',#307,#308,#309);
#307 = CARTESIAN_POINT('',(38.5,-11.,11.45));
#308 = DIRECTION('',(0.,1.,0.));
#309 = DIRECTION('',(0.,0.,1.));
#310 = ADVANCED_FACE('',(#311),#336,.T.);
#311 = FACE_BOUND('',#312,.T.);
#312 = EDGE_LOOP('',(#313,#321,#322,#323,#324,#331));
#313 = ORIENTED_EDGE('',*,*,#314,.T.);
#314 = EDGE_CURVE('',#315,#240,#317,.T.);
#315 = VERTEX_POINT('',#316);
#316 = CARTESIAN_POINT('',(49.,-65.5,6.3));
#317 = LINE('',#318,#319);
#318 = CARTESIAN_POINT('',(49.,-65.5,6.3));
#319 = VECTOR('',#320,1.);
#320 = DIRECTION('',(0.,1.,0.));
#321 = ORIENTED_EDGE('',*,*,#239,.T.);
#322 = ORIENTED_EDGE('',*,*,#301,.T.);
#323 = ORIENTED_EDGE('',*,*,#141,.F.);
#324 = ORIENTED_EDGE('',*,*,#325,.F.);
#325 = EDGE_CURVE('',#326,#134,#328,.T.);
#326 = VERTEX_POINT('',#327);
#327 = CARTESIAN_POINT('',(49.,-65.5,15.4));
#328 = B_SPLINE_CURVE_WITH_KNOTS('',1,(#329,#330),.UNSPECIFIED.,.F.,.F.,
  (2,2),(0.,1.),.PIECEWISE_BEZIER_KNOTS.);
#329 = CARTESIAN_POINT('',(49.,-65.5,15.4));
#330 = CARTESIAN_POINT('',(49.,-65.5,16.6));
#331 = ORIENTED_EDGE('',*,*,#332,.F.);
#332 = EDGE_CURVE('',#315,#326,#333,.T.);
#333 = B_SPLINE_CURVE_WITH_KNOTS('',1,(#334,#335),.UNSPECIFIED.,.F.,.F.,
  (2,2),(0.,1.),.PIECEWISE_BEZIER_KNOTS.);
#334 = CARTESIAN_POINT('',(49.,-65.5,6.3));
#335 = CARTESIAN_POINT('',(49.,-65.5,15.4));
#336 = PLANE('',#337);
#337 = AXIS2_PLACEMENT_3D('',#338,#339,#340);
#338 = CARTESIAN_POINT('',(49.,-38.25,11.45));
#339 = DIRECTION('',(1.,0.,0.));
#340 = DIRECTION('',(0.,0.,1.));
#341 = ADVANCED_FACE('',(#342,#367),#401,.T.);
#342 = FACE_BOUND('',#343,.T.);
#343 = EDGE_LOOP('',(#344,#352,#359,#364,#365,#366));
#344 = ORIENTED_EDGE('',*,*,#345,.T.);
#345 = EDGE_CURVE('',#281,#346,#348,.T.);
#346 = VERTEX_POINT('',#347);
#347 = CARTESIAN_POINT('',(25.,-14.,6.3));
#348 = LINE('',#349,#350);
#349 = CARTESIAN_POINT('',(28.,-11.,6.3));
#350 = VECTOR('',#351,1.);
#351 = DIRECTION('',(-0.707106781187,-0.707106781187,0.));
#352 = ORIENTED_EDGE('',*,*,#353,.T.);
#353 = EDGE_CURVE('',#346,#354,#356,.T.);
#354 = VERTEX_POINT('',#355);
#355 = CARTESIAN_POINT('',(25.,-14.,15.4));
#356 = B_SPLINE_CURVE_WITH_KNOTS('',1,(#357,#358),.UNSPECIFIED.,.F.,.F.,
  (2,2),(0.,1.),.PIECEWISE_BEZIER_KNOTS.);
#357 = CARTESIAN_POINT('',(25.,-14.,6.3));
#358 = CARTESIAN_POINT('',(25.,-14.,15.4));
#359 = ORIENTED_EDGE('',*,*,#360,.T.);
#360 = EDGE_CURVE('',#354,#85,#361,.T.);
#361 = B_SPLINE_CURVE_WITH_KNOTS('',1,(#362,#363),.UNSPECIFIED.,.F.,.F.,
  (2,2),(0.,1.),.PIECEWISE_BEZIER_KNOTS.);
#362 = CARTESIAN_POINT('',(25.,-14.,15.4));
#363 = CARTESIAN_POINT('',(25.,-14.,16.6));
#364 = ORIENTED_EDGE('',*,*,#84,.F.);
#365 = ORIENTED_EDGE('',*,*,#295,.F.);
#366 = ORIENTED_EDGE('',*,*,#288,.F.);
#367 = FACE_BOUND('',#368,.T.);
#368 = EDGE_LOOP('',(#369,#379,#387,#395));
#369 = ORIENTED_EDGE('',*,*,#370,.F.);
#370 = EDGE_CURVE('',#371,#373,#375,.T.);
#371 = VERTEX_POINT('',#372);
#372 = CARTESIAN_POINT('',(27.4,-11.6,12.7));
#373 = VERTEX_POINT('',#374);
#374 = CARTESIAN_POINT('',(27.6,-11.4,12.7));
#375 = LINE('',#376,#377);
#376 = CARTESIAN_POINT('',(17.825,-21.175,12.7));
#377 = VECTOR('',#378,1.);
#378 = DIRECTION('',(0.707106781187,0.707106781187,0.));
#379 = ORIENTED_EDGE('',*,*,#380,.T.);
#380 = EDGE_CURVE('',#371,#381,#383,.T.);
#381 = VERTEX_POINT('',#382);
#382 = CARTESIAN_POINT('',(27.4,-11.6,8.5));
#383 = LINE('',#384,#385);
#384 = CARTESIAN_POINT('',(27.4,-11.6,9.975));
#385 = VECTOR('',#386,1.);
#386 = DIRECTION('',(0.,0.,-1.));
#387 = ORIENTED_EDGE('',*,*,#388,.T.);
#388 = EDGE_CURVE('',#381,#389,#391,.T.);
#389 = VERTEX_POINT('',#390);
#390 = CARTESIAN_POINT('',(27.6,-11.4,8.5));
#391 = LINE('',#392,#393);
#392 = CARTESIAN_POINT('',(17.825,-21.175,8.5));
#393 = VECTOR('',#394,1.);
#394 = DIRECTION('',(0.707106781187,0.707106781187,0.));
#395 = ORIENTED_EDGE('',*,*,#396,.F.);
#396 = EDGE_CURVE('',#373,#389,#397,.T.);
#397 = LINE('',#398,#399);
#398 = CARTESIAN_POINT('',(27.6,-11.4,9.975));
#399 = VECTOR('',#400,1.);
#400 = DIRECTION('',(0.,0.,-1.));
#401 = PLANE('',#402);
#402 = AXIS2_PLACEMENT_3D('',#403,#404,#405);
#403 = CARTESIAN_POINT('',(26.5,-12.5,11.45));
#404 = DIRECTION('',(-0.707106781187,0.707106781187,0.));
#405 = DIRECTION('',(-0.707106781187,-0.707106781187,0.));
#406 = ADVANCED_FACE('',(#407),#432,.T.);
#407 = FACE_BOUND('',#408,.T.);
#408 = EDGE_LOOP('',(#409,#417,#418,#419,#420,#427));
#409 = ORIENTED_EDGE('',*,*,#410,.T.);
#410 = EDGE_CURVE('',#411,#315,#413,.T.);
#411 = VERTEX_POINT('',#412);
#412 = CARTESIAN_POINT('',(46.,-68.5,6.3));
#413 = LINE('',#414,#415);
#414 = CARTESIAN_POINT('',(46.,-68.5,6.3));
#415 = VECTOR('',#416,1.);
#416 = DIRECTION('',(0.707106781187,0.707106781187,0.));
#417 = ORIENTED_EDGE('',*,*,#332,.T.);
#418 = ORIENTED_EDGE('',*,*,#325,.T.);
#419 = ORIENTED_EDGE('',*,*,#133,.F.);
#420 = ORIENTED_EDGE('',*,*,#421,.F.);
#421 = EDGE_CURVE('',#422,#126,#424,.T.);
#422 = VERTEX_POINT('',#423);
#423 = CARTESIAN_POINT('',(46.,-68.5,15.4));
#424 = B_SPLINE_CURVE_WITH_KNOTS('',1,(#425,#426),.UNSPECIFIED.,.F.,.F.,
  (2,2),(0.,1.),.PIECEWISE_BEZIER_KNOTS.);
#425 = CARTESIAN_POINT('',(46.,-68.5,15.4));
#426 = CARTESIAN_POINT('',(46.,-68.5,16.6));
#427 = ORIENTED_EDGE('',*,*,#428,.F.);
#428 = EDGE_CURVE('',#411,#422,#429,.T.);
#429 = B_SPLINE_CURVE_WITH_KNOTS('',1,(#430,#431),.UNSPECIFIED.,.F.,.F.,
  (2,2),(0.,1.),.PIECEWISE_BEZIER_KNOTS.);
#430 = CARTESIAN_POINT('',(46.,-68.5,6.3));
#431 = CARTESIAN_POINT('',(46.,-68.5,15.4));
#432 = PLANE('',#433);
#433 = AXIS2_PLACEMENT_3D('',#434,#435,#436);
#434 = CARTESIAN_POINT('',(47.5,-67.,11.45));
#435 = DIRECTION('',(0.707106781187,-0.707106781187,0.));
#436 = DIRECTION('',(0.707106781187,0.707106781187,0.));
#437 = ADVANCED_FACE('',(#438),#495,.T.);
#438 = FACE_BOUND('',#439,.T.);
#439 = EDGE_LOOP('',(#440,#441,#449,#457,#465,#473,#481,#488,#493,#494)
  );
#440 = ORIENTED_EDGE('',*,*,#353,.F.);
#441 = ORIENTED_EDGE('',*,*,#442,.T.);
#442 = EDGE_CURVE('',#346,#443,#445,.T.);
#443 = VERTEX_POINT('',#444);
#444 = CARTESIAN_POINT('',(25.,-53.4,6.3));
#445 = LINE('',#446,#447);
#446 = CARTESIAN_POINT('',(25.,-14.,6.3));
#447 = VECTOR('',#448,1.);
#448 = DIRECTION('',(0.,-1.,0.));
#449 = ORIENTED_EDGE('',*,*,#450,.F.);
#450 = EDGE_CURVE('',#451,#443,#453,.T.);
#451 = VERTEX_POINT('',#452);
#452 = CARTESIAN_POINT('',(25.,-53.4,9.2));
#453 = LINE('',#454,#455);
#454 = CARTESIAN_POINT('',(25.,-53.4,8.275));
#455 = VECTOR('',#456,1.);
#456 = DIRECTION('',(0.,0.,-1.));
#457 = ORIENTED_EDGE('',*,*,#458,.F.);
#458 = EDGE_CURVE('',#459,#451,#461,.T.);
#459 = VERTEX_POINT('',#460);
#460 = CARTESIAN_POINT('',(25.,-61.9,9.2));
#461 = LINE('',#462,#463);
#462 = CARTESIAN_POINT('',(25.,-49.95,9.2));
#463 = VECTOR('',#464,1.);
#464 = DIRECTION('',(0.,1.,0.));
#465 = ORIENTED_EDGE('',*,*,#466,.T.);
#466 = EDGE_CURVE('',#459,#467,#469,.T.);
#467 = VERTEX_POINT('',#468);
#468 = CARTESIAN_POINT('',(25.,-61.9,6.3));
#469 = LINE('',#470,#471);
#470 = CARTESIAN_POINT('',(25.,-61.9,8.275));
#471 = VECTOR('',#472,1.);
#472 = DIRECTION('',(0.,0.,-1.));
#473 = ORIENTED_EDGE('',*,*,#474,.T.);
#474 = EDGE_CURVE('',#467,#475,#477,.T.);
#475 = VERTEX_POINT('',#476);
#476 = CARTESIAN_POINT('',(25.,-62.,6.3));
#477 = LINE('',#478,#479);
#478 = CARTESIAN_POINT('',(25.,-14.,6.3));
#479 = VECTOR('',#480,1.);
#480 = DIRECTION('',(0.,-1.,0.));
#481 = ORIENTED_EDGE('',*,*,#482,.T.);
#482 = EDGE_CURVE('',#475,#483,#485,.T.);
#483 = VERTEX_POINT('',#484);
#484 = CARTESIAN_POINT('',(25.,-62.,15.4));
#485 = B_SPLINE_CURVE_WITH_KNOTS('',1,(#486,#487),.UNSPECIFIED.,.F.,.F.,
  (2,2),(0.,1.),.PIECEWISE_BEZIER_KNOTS.);
#486 = CARTESIAN_POINT('',(25.,-62.,6.3));
#487 = CARTESIAN_POINT('',(25.,-62.,15.4));
#488 = ORIENTED_EDGE('',*,*,#489,.T.);
#489 = EDGE_CURVE('',#483,#93,#490,.T.);
#490 = B_SPLINE_CURVE_WITH_KNOTS('',1,(#491,#492),.UNSPECIFIED.,.F.,.F.,
  (2,2),(0.,1.),.PIECEWISE_BEZIER_KNOTS.);
#491 = CARTESIAN_POINT('',(25.,-62.,15.4));
#492 = CARTESIAN_POINT('',(25.,-62.,16.6));
#493 = ORIENTED_EDGE('',*,*,#92,.F.);
#494 = ORIENTED_EDGE('',*,*,#360,.F.);
#495 = PLANE('',#496);
#496 = AXIS2_PLACEMENT_3D('',#497,#498,#499);
#497 = CARTESIAN_POINT('',(25.,-38.,11.45));
#498 = DIRECTION('',(-1.,-0.,-0.));
#499 = DIRECTION('',(0.,0.,-1.));
#500 = ADVANCED_FACE('',(#501),#526,.T.);
#501 = FACE_BOUND('',#502,.T.);
#502 = EDGE_LOOP('',(#503,#511,#512,#513,#514,#521));
#503 = ORIENTED_EDGE('',*,*,#504,.T.);
#504 = EDGE_CURVE('',#505,#411,#507,.T.);
#505 = VERTEX_POINT('',#506);
#506 = CARTESIAN_POINT('',(31.5,-68.5,6.3));
#507 = LINE('',#508,#509);
#508 = CARTESIAN_POINT('',(31.5,-68.5,6.3));
#509 = VECTOR('',#510,1.);
#510 = DIRECTION('',(1.,0.,0.));
#511 = ORIENTED_EDGE('',*,*,#428,.T.);
#512 = ORIENTED_EDGE('',*,*,#421,.T.);
#513 = ORIENTED_EDGE('',*,*,#125,.F.);
#514 = ORIENTED_EDGE('',*,*,#515,.F.);
#515 = EDGE_CURVE('',#516,#118,#518,.T.);
#516 = VERTEX_POINT('',#517);
#517 = CARTESIAN_POINT('',(31.5,-68.5,15.4));
#518 = B_SPLINE_CURVE_WITH_KNOTS('',1,(#519,#520),.UNSPECIFIED.,.F.,.F.,
  (2,2),(0.,1.),.PIECEWISE_BEZIER_KNOTS.);
#519 = CARTESIAN_POINT('',(31.5,-68.5,15.4));
#520 = CARTESIAN_POINT('',(31.5,-68.5,16.6));
#521 = ORIENTED_EDGE('',*,*,#522,.F.);
#522 = EDGE_CURVE('',#505,#516,#523,.T.);
#523 = B_SPLINE_CURVE_WITH_KNOTS('',1,(#524,#525),.UNSPECIFIED.,.F.,.F.,
  (2,2),(0.,1.),.PIECEWISE_BEZIER_KNOTS.);
#524 = CARTESIAN_POINT('',(31.5,-68.5,6.3));
#525 = CARTESIAN_POINT('',(31.5,-68.5,15.4));
#526 = PLANE('',#527);
#527 = AXIS2_PLACEMENT_3D('',#528,#529,#530);
#528 = CARTESIAN_POINT('',(38.75,-68.5,11.45));
#529 = DIRECTION('',(-0.,-1.,-0.));
#530 = DIRECTION('',(0.,0.,-1.));
#531 = ADVANCED_FACE('',(#532),#551,.T.);
#532 = FACE_BOUND('',#533,.T.);
#533 = EDGE_LOOP('',(#534,#535,#543,#549,#550));
#534 = ORIENTED_EDGE('',*,*,#482,.F.);
#535 = ORIENTED_EDGE('',*,*,#536,.T.);
#536 = EDGE_CURVE('',#475,#537,#539,.T.);
#537 = VERTEX_POINT('',#538);
#538 = CARTESIAN_POINT('',(27.325357215773,-64.32535721577,6.3));
#539 = LINE('',#540,#541);
#540 = CARTESIAN_POINT('',(25.,-62.,6.3));
#541 = VECTOR('',#542,1.);
#542 = DIRECTION('',(0.707106781187,-0.707106781187,0.));
#543 = ORIENTED_EDGE('',*,*,#544,.F.);
#544 = EDGE_CURVE('',#101,#537,#545,.T.);
#545 = LINE('',#546,#547);
#546 = CARTESIAN_POINT('',(27.325357215773,-64.32535721577,6.3));
#547 = VECTOR('',#548,1.);
#548 = DIRECTION('',(-0.,-0.,-1.));
#549 = ORIENTED_EDGE('',*,*,#100,.F.);
#550 = ORIENTED_EDGE('',*,*,#489,.F.);
#551 = PLANE('',#552);
#552 = AXIS2_PLACEMENT_3D('',#553,#554,#555);
#553 = CARTESIAN_POINT('',(28.25,-65.25,11.45));
#554 = DIRECTION('',(-0.707106781187,-0.707106781187,-0.));
#555 = DIRECTION('',(-0.707106781187,0.707106781187,0.));
#556 = ADVANCED_FACE('',(#557),#576,.T.);
#557 = FACE_BOUND('',#558,.T.);
#558 = EDGE_LOOP('',(#559,#567,#573,#574,#575));
#559 = ORIENTED_EDGE('',*,*,#560,.T.);
#560 = EDGE_CURVE('',#109,#561,#563,.T.);
#561 = VERTEX_POINT('',#562);
#562 = CARTESIAN_POINT('',(29.074642784227,-66.07464278422,6.3));
#563 = LINE('',#564,#565);
#564 = CARTESIAN_POINT('',(29.074642784227,-66.07464278422,6.3));
#565 = VECTOR('',#566,1.);
#566 = DIRECTION('',(-0.,-0.,-1.));
#567 = ORIENTED_EDGE('',*,*,#568,.T.);
#568 = EDGE_CURVE('',#561,#505,#569,.T.);
#569 = LINE('',#570,#571);
#570 = CARTESIAN_POINT('',(25.,-62.,6.3));
#571 = VECTOR('',#572,1.);
#572 = DIRECTION('',(0.707106781187,-0.707106781187,0.));
#573 = ORIENTED_EDGE('',*,*,#522,.T.);
#574 = ORIENTED_EDGE('',*,*,#515,.T.);
#575 = ORIENTED_EDGE('',*,*,#117,.F.);
#576 = PLANE('',#577);
#577 = AXIS2_PLACEMENT_3D('',#578,#579,#580);
#578 = CARTESIAN_POINT('',(28.25,-65.25,11.45));
#579 = DIRECTION('',(-0.707106781187,-0.707106781187,-0.));
#580 = DIRECTION('',(-0.707106781187,0.707106781187,0.));
#581 = ADVANCED_FACE('',(#582),#594,.T.);
#582 = FACE_BOUND('',#583,.F.);
#583 = EDGE_LOOP('',(#584,#591,#592,#593));
#584 = ORIENTED_EDGE('',*,*,#585,.F.);
#585 = EDGE_CURVE('',#537,#561,#586,.T.);
#586 = CIRCLE('',#587,2.1);
#587 = AXIS2_PLACEMENT_3D('',#588,#589,#590);
#588 = CARTESIAN_POINT('',(29.4,-64.,6.3));
#589 = DIRECTION('',(0.,0.,1.));
#590 = DIRECTION('',(1.,0.,0.));
#591 = ORIENTED_EDGE('',*,*,#544,.F.);
#592 = ORIENTED_EDGE('',*,*,#108,.T.);
#593 = ORIENTED_EDGE('',*,*,#560,.T.);
#594 = CYLINDRICAL_SURFACE('',#595,2.1);
#595 = AXIS2_PLACEMENT_3D('',#596,#597,#598);
#596 = CARTESIAN_POINT('',(29.4,-64.,6.3));
#597 = DIRECTION('',(-0.,-0.,-1.));
#598 = DIRECTION('',(1.,0.,0.));
#599 = ADVANCED_FACE('',(#600),#619,.F.);
#600 = FACE_BOUND('',#601,.T.);
#601 = EDGE_LOOP('',(#602,#611,#617,#618));
#602 = ORIENTED_EDGE('',*,*,#603,.T.);
#603 = EDGE_CURVE('',#604,#604,#606,.T.);
#604 = VERTEX_POINT('',#605);
#605 = CARTESIAN_POINT('',(38.4,-59.5,15.4));
#606 = CIRCLE('',#607,1.4);
#607 = AXIS2_PLACEMENT_3D('',#608,#609,#610);
#608 = CARTESIAN_POINT('',(37.,-59.5,15.4));
#609 = DIRECTION('',(0.,0.,-1.));
#610 = DIRECTION('',(1.,0.,0.));
#611 = ORIENTED_EDGE('',*,*,#612,.T.);
#612 = EDGE_CURVE('',#604,#153,#613,.T.);
#613 = LINE('',#614,#615);
#614 = CARTESIAN_POINT('',(38.4,-59.5,7.8));
#615 = VECTOR('',#616,1.);
#616 = DIRECTION('',(0.,0.,1.));
#617 = ORIENTED_EDGE('',*,*,#152,.F.);
#618 = ORIENTED_EDGE('',*,*,#612,.F.);
#619 = CYLINDRICAL_SURFACE('',#620,1.4);
#620 = AXIS2_PLACEMENT_3D('',#621,#622,#623);
#621 = CARTESIAN_POINT('',(37.,-59.5,7.8));
#622 = DIRECTION('',(-0.,-0.,-1.));
#623 = DIRECTION('',(1.,0.,0.));
#624 = ADVANCED_FACE('',(#625),#644,.F.);
#625 = FACE_BOUND('',#626,.T.);
#626 = EDGE_LOOP('',(#627,#636,#642,#643));
#627 = ORIENTED_EDGE('',*,*,#628,.F.);
#628 = EDGE_CURVE('',#629,#629,#631,.T.);
#629 = VERTEX_POINT('',#630);
#630 = CARTESIAN_POINT('',(47.35,-64.,14.9));
#631 = CIRCLE('',#632,1.85);
#632 = AXIS2_PLACEMENT_3D('',#633,#634,#635);
#633 = CARTESIAN_POINT('',(45.5,-64.,14.9));
#634 = DIRECTION('',(0.,0.,1.));
#635 = DIRECTION('',(1.,0.,0.));
#636 = ORIENTED_EDGE('',*,*,#637,.T.);
#637 = EDGE_CURVE('',#629,#164,#638,.T.);
#638 = LINE('',#639,#640);
#639 = CARTESIAN_POINT('',(47.35,-64.,14.9));
#640 = VECTOR('',#641,1.);
#641 = DIRECTION('',(0.,0.,1.));
#642 = ORIENTED_EDGE('',*,*,#163,.F.);
#643 = ORIENTED_EDGE('',*,*,#637,.F.);
#644 = CYLINDRICAL_SURFACE('',#645,1.85);
#645 = AXIS2_PLACEMENT_3D('',#646,#647,#648);
#646 = CARTESIAN_POINT('',(45.5,-64.,14.9));
#647 = DIRECTION('',(-0.,-0.,-1.));
#648 = DIRECTION('',(1.,0.,0.));
#649 = ADVANCED_FACE('',(#650),#675,.F.);
#650 = FACE_BOUND('',#651,.F.);
#651 = EDGE_LOOP('',(#652,#660,#668,#674));
#652 = ORIENTED_EDGE('',*,*,#653,.F.);
#653 = EDGE_CURVE('',#654,#177,#656,.T.);
#654 = VERTEX_POINT('',#655);
#655 = CARTESIAN_POINT('',(44.45,-18.25,15.4));
#656 = LINE('',#657,#658);
#657 = CARTESIAN_POINT('',(44.45,-18.25,15.1));
#658 = VECTOR('',#659,1.);
#659 = DIRECTION('',(0.,0.,1.));
#660 = ORIENTED_EDGE('',*,*,#661,.T.);
#661 = EDGE_CURVE('',#654,#662,#664,.T.);
#662 = VERTEX_POINT('',#663);
#663 = CARTESIAN_POINT('',(29.95,-18.25,15.4));
#664 = LINE('',#665,#666);
#665 = CARTESIAN_POINT('',(33.623103162987,-18.25,15.4));
#666 = VECTOR('',#667,1.);
#667 = DIRECTION('',(-1.,0.,0.));
#668 = ORIENTED_EDGE('',*,*,#669,.T.);
#669 = EDGE_CURVE('',#662,#175,#670,.T.);
#670 = LINE('',#671,#672);
#671 = CARTESIAN_POINT('',(29.95,-18.25,15.1));
#672 = VECTOR('',#673,1.);
#673 = DIRECTION('',(0.,0.,1.));
#674 = ORIENTED_EDGE('',*,*,#174,.T.);
#675 = PLANE('',#676);
#676 = AXIS2_PLACEMENT_3D('',#677,#678,#679);
#677 = CARTESIAN_POINT('',(29.95,-18.25,15.1));
#678 = DIRECTION('',(0.,1.,0.));
#679 = DIRECTION('',(0.,0.,1.));
#680 = ADVANCED_FACE('',(#681),#699,.T.);
#681 = FACE_BOUND('',#682,.T.);
#682 = EDGE_LOOP('',(#683,#691,#697,#698));
#683 = ORIENTED_EDGE('',*,*,#684,.F.);
#684 = EDGE_CURVE('',#685,#193,#687,.T.);
#685 = VERTEX_POINT('',#686);
#686 = CARTESIAN_POINT('',(29.95,-49.35,15.4));
#687 = LINE('',#688,#689);
#688 = CARTESIAN_POINT('',(29.95,-49.35,15.1));
#689 = VECTOR('',#690,1.);
#690 = DIRECTION('',(0.,0.,1.));
#691 = ORIENTED_EDGE('',*,*,#692,.T.);
#692 = EDGE_CURVE('',#685,#662,#693,.T.);
#693 = LINE('',#694,#695);
#694 = CARTESIAN_POINT('',(29.95,-44.20883759906,15.4));
#695 = VECTOR('',#696,1.);
#696 = DIRECTION('',(0.,1.,0.));
#697 = ORIENTED_EDGE('',*,*,#669,.T.);
#698 = ORIENTED_EDGE('',*,*,#200,.T.);
#699 = PLANE('',#700);
#700 = AXIS2_PLACEMENT_3D('',#701,#702,#703);
#701 = CARTESIAN_POINT('',(29.95,-49.35,15.1));
#702 = DIRECTION('',(1.,0.,0.));
#703 = DIRECTION('',(0.,0.,1.));
#704 = ADVANCED_FACE('',(#705),#723,.F.);
#705 = FACE_BOUND('',#706,.F.);
#706 = EDGE_LOOP('',(#707,#715,#721,#722));
#707 = ORIENTED_EDGE('',*,*,#708,.F.);
#708 = EDGE_CURVE('',#709,#185,#711,.T.);
#709 = VERTEX_POINT('',#710);
#710 = CARTESIAN_POINT('',(44.45,-49.35,15.4));
#711 = LINE('',#712,#713);
#712 = CARTESIAN_POINT('',(44.45,-49.35,15.1));
#713 = VECTOR('',#714,1.);
#714 = DIRECTION('',(0.,0.,1.));
#715 = ORIENTED_EDGE('',*,*,#716,.T.);
#716 = EDGE_CURVE('',#709,#654,#717,.T.);
#717 = LINE('',#718,#719);
#718 = CARTESIAN_POINT('',(44.45,-44.20883759906,15.4));
#719 = VECTOR('',#720,1.);
#720 = DIRECTION('',(0.,1.,0.));
#721 = ORIENTED_EDGE('',*,*,#653,.T.);
#722 = ORIENTED_EDGE('',*,*,#184,.T.);
#723 = PLANE('',#724);
#724 = AXIS2_PLACEMENT_3D('',#725,#726,#727);
#725 = CARTESIAN_POINT('',(44.45,-49.35,15.1));
#726 = DIRECTION('',(1.,0.,0.));
#727 = DIRECTION('',(0.,0.,1.));
#728 = ADVANCED_FACE('',(#729),#740,.T.);
#729 = FACE_BOUND('',#730,.T.);
#730 = EDGE_LOOP('',(#731,#732,#738,#739));
#731 = ORIENTED_EDGE('',*,*,#708,.F.);
#732 = ORIENTED_EDGE('',*,*,#733,.T.);
#733 = EDGE_CURVE('',#709,#685,#734,.T.);
#734 = LINE('',#735,#736);
#735 = CARTESIAN_POINT('',(33.623103162987,-49.35,15.4));
#736 = VECTOR('',#737,1.);
#737 = DIRECTION('',(-1.,0.,0.));
#738 = ORIENTED_EDGE('',*,*,#684,.T.);
#739 = ORIENTED_EDGE('',*,*,#192,.T.);
#740 = PLANE('',#741);
#741 = AXIS2_PLACEMENT_3D('',#742,#743,#744);
#742 = CARTESIAN_POINT('',(29.95,-49.35,15.1));
#743 = DIRECTION('',(0.,1.,0.));
#744 = DIRECTION('',(0.,0.,1.));
#745 = ADVANCED_FACE('',(#746,#836),#839,.T.);
#746 = FACE_BOUND('',#747,.T.);
#747 = EDGE_LOOP('',(#748,#759,#767,#775,#783,#791,#799,#805,#806,#807,
    #808,#809,#810,#811,#812,#813,#821,#829));
#748 = ORIENTED_EDGE('',*,*,#749,.F.);
#749 = EDGE_CURVE('',#750,#752,#754,.T.);
#750 = VERTEX_POINT('',#751);
#751 = CARTESIAN_POINT('',(30.491257332324,-65.79420105747,6.3));
#752 = VERTEX_POINT('',#753);
#753 = CARTESIAN_POINT('',(31.5,-64.,6.3));
#754 = CIRCLE('',#755,2.1);
#755 = AXIS2_PLACEMENT_3D('',#756,#757,#758);
#756 = CARTESIAN_POINT('',(29.4,-64.,6.3));
#757 = DIRECTION('',(0.,0.,1.));
#758 = DIRECTION('',(1.,0.,0.));
#759 = ORIENTED_EDGE('',*,*,#760,.T.);
#760 = EDGE_CURVE('',#750,#761,#763,.T.);
#761 = VERTEX_POINT('',#762);
#762 = CARTESIAN_POINT('',(31.997056274848,-67.3,6.3));
#763 = LINE('',#764,#765);
#764 = CARTESIAN_POINT('',(19.274264068712,-54.57720779386,6.3));
#765 = VECTOR('',#766,1.);
#766 = DIRECTION('',(0.707106781187,-0.707106781187,0.));
#767 = ORIENTED_EDGE('',*,*,#768,.T.);
#768 = EDGE_CURVE('',#761,#769,#771,.T.);
#769 = VERTEX_POINT('',#770);
#770 = CARTESIAN_POINT('',(45.502943725152,-67.3,6.3));
#771 = LINE('',#772,#773);
#772 = CARTESIAN_POINT('',(40.498528137424,-67.3,6.3));
#773 = VECTOR('',#774,1.);
#774 = DIRECTION('',(1.,0.,0.));
#775 = ORIENTED_EDGE('',*,*,#776,.T.);
#776 = EDGE_CURVE('',#769,#777,#779,.T.);
#777 = VERTEX_POINT('',#778);
#778 = CARTESIAN_POINT('',(47.8,-65.00294372515,6.3));
#779 = LINE('',#780,#781);
#780 = CARTESIAN_POINT('',(60.452207793864,-52.35073593128,6.3));
#781 = VECTOR('',#782,1.);
#782 = DIRECTION('',(0.707106781187,0.707106781187,0.));
#783 = ORIENTED_EDGE('',*,*,#784,.T.);
#784 = EDGE_CURVE('',#777,#785,#787,.T.);
#785 = VERTEX_POINT('',#786);
#786 = CARTESIAN_POINT('',(47.8,-12.2,6.3));
#787 = LINE('',#788,#789);
#788 = CARTESIAN_POINT('',(47.8,-38.00147186257,6.3));
#789 = VECTOR('',#790,1.);
#790 = DIRECTION('',(0.,1.,0.));
#791 = ORIENTED_EDGE('',*,*,#792,.T.);
#792 = EDGE_CURVE('',#785,#793,#795,.T.);
#793 = VERTEX_POINT('',#794);
#794 = CARTESIAN_POINT('',(43.7,-12.2,6.3));
#795 = LINE('',#796,#797);
#796 = CARTESIAN_POINT('',(48.4,-12.2,6.3));
#797 = VECTOR('',#798,1.);
#798 = DIRECTION('',(-1.,-0.,-0.));
#799 = ORIENTED_EDGE('',*,*,#800,.F.);
#800 = EDGE_CURVE('',#249,#793,#801,.T.);
#801 = LINE('',#802,#803);
#802 = CARTESIAN_POINT('',(43.7,-15.5,6.3));
#803 = VECTOR('',#804,1.);
#804 = DIRECTION('',(0.,-1.,0.));
#805 = ORIENTED_EDGE('',*,*,#248,.F.);
#806 = ORIENTED_EDGE('',*,*,#314,.F.);
#807 = ORIENTED_EDGE('',*,*,#410,.F.);
#808 = ORIENTED_EDGE('',*,*,#504,.F.);
#809 = ORIENTED_EDGE('',*,*,#568,.F.);
#810 = ORIENTED_EDGE('',*,*,#585,.F.);
#811 = ORIENTED_EDGE('',*,*,#536,.F.);
#812 = ORIENTED_EDGE('',*,*,#474,.F.);
#813 = ORIENTED_EDGE('',*,*,#814,.T.);
#814 = EDGE_CURVE('',#467,#815,#817,.T.);
#815 = VERTEX_POINT('',#816);
#816 = CARTESIAN_POINT('',(26.597056274848,-61.9,6.3));
#817 = LINE('',#818,#819);
#818 = CARTESIAN_POINT('',(34.5,-61.9,6.3));
#819 = VECTOR('',#820,1.);
#820 = DIRECTION('',(1.,0.,0.));
#821 = ORIENTED_EDGE('',*,*,#822,.T.);
#822 = EDGE_CURVE('',#815,#823,#825,.T.);
#823 = VERTEX_POINT('',#824);
#824 = CARTESIAN_POINT('',(27.605798942524,-62.90874266767,6.3));
#825 = LINE('',#826,#827);
#826 = CARTESIAN_POINT('',(19.274264068712,-54.57720779386,6.3));
#827 = VECTOR('',#828,1.);
#828 = DIRECTION('',(0.707106781187,-0.707106781187,0.));
#829 = ORIENTED_EDGE('',*,*,#830,.F.);
#830 = EDGE_CURVE('',#752,#823,#831,.T.);
#831 = CIRCLE('',#832,2.1);
#832 = AXIS2_PLACEMENT_3D('',#833,#834,#835);
#833 = CARTESIAN_POINT('',(29.4,-64.,6.3));
#834 = DIRECTION('',(0.,0.,1.));
#835 = DIRECTION('',(1.,0.,0.));
#836 = FACE_BOUND('',#837,.T.);
#837 = EDGE_LOOP('',(#838));
#838 = ORIENTED_EDGE('',*,*,#222,.F.);
#839 = PLANE('',#840);
#840 = AXIS2_PLACEMENT_3D('',#841,#842,#843);
#841 = CARTESIAN_POINT('',(44.207605117058,-45.9589994972,6.3));
#842 = DIRECTION('',(-0.,-0.,-1.));
#843 = DIRECTION('',(-1.,0.,0.));
#844 = ADVANCED_FACE('',(#845),#888,.T.);
#845 = FACE_BOUND('',#846,.T.);
#846 = EDGE_LOOP('',(#847,#855,#856,#857,#858,#866,#874,#882));
#847 = ORIENTED_EDGE('',*,*,#848,.F.);
#848 = EDGE_CURVE('',#443,#849,#851,.T.);
#849 = VERTEX_POINT('',#850);
#850 = CARTESIAN_POINT('',(26.2,-53.4,6.3));
#851 = LINE('',#852,#853);
#852 = CARTESIAN_POINT('',(34.5,-53.4,6.3));
#853 = VECTOR('',#854,1.);
#854 = DIRECTION('',(1.,0.,0.));
#855 = ORIENTED_EDGE('',*,*,#442,.F.);
#856 = ORIENTED_EDGE('',*,*,#345,.F.);
#857 = ORIENTED_EDGE('',*,*,#280,.F.);
#858 = ORIENTED_EDGE('',*,*,#859,.T.);
#859 = EDGE_CURVE('',#273,#860,#862,.T.);
#860 = VERTEX_POINT('',#861);
#861 = CARTESIAN_POINT('',(30.7,-12.2,6.3));
#862 = LINE('',#863,#864);
#863 = CARTESIAN_POINT('',(30.7,-15.5,6.3));
#864 = VECTOR('',#865,1.);
#865 = DIRECTION('',(0.,-1.,0.));
#866 = ORIENTED_EDGE('',*,*,#867,.T.);
#867 = EDGE_CURVE('',#860,#868,#870,.T.);
#868 = VERTEX_POINT('',#869);
#869 = CARTESIAN_POINT('',(28.497056274848,-12.2,6.3));
#870 = LINE('',#871,#872);
#871 = CARTESIAN_POINT('',(48.4,-12.2,6.3));
#872 = VECTOR('',#873,1.);
#873 = DIRECTION('',(-1.,-0.,-0.));
#874 = ORIENTED_EDGE('',*,*,#875,.T.);
#875 = EDGE_CURVE('',#868,#876,#878,.T.);
#876 = VERTEX_POINT('',#877);
#877 = CARTESIAN_POINT('',(26.2,-14.49705627484,6.3));
#878 = LINE('',#879,#880);
#879 = CARTESIAN_POINT('',(33.922792206136,-6.774264068712,6.3));
#880 = VECTOR('',#881,1.);
#881 = DIRECTION('',(-0.707106781187,-0.707106781187,-0.));
#882 = ORIENTED_EDGE('',*,*,#883,.T.);
#883 = EDGE_CURVE('',#876,#849,#884,.T.);
#884 = LINE('',#885,#886);
#885 = CARTESIAN_POINT('',(26.2,-12.74852813742,6.3));
#886 = VECTOR('',#887,1.);
#887 = DIRECTION('',(0.,-1.,0.));
#888 = PLANE('',#889);
#889 = AXIS2_PLACEMENT_3D('',#890,#891,#892);
#890 = CARTESIAN_POINT('',(49.,-11.,6.3));
#891 = DIRECTION('',(0.,0.,-1.));
#892 = DIRECTION('',(-0.291161615783,-0.956673880429,-0.));
#893 = ADVANCED_FACE('',(#894),#928,.T.);
#894 = FACE_BOUND('',#895,.T.);
#895 = EDGE_LOOP('',(#896,#904,#912,#920,#926,#927));
#896 = ORIENTED_EDGE('',*,*,#897,.F.);
#897 = EDGE_CURVE('',#898,#265,#900,.T.);
#898 = VERTEX_POINT('',#899);
#899 = CARTESIAN_POINT('',(30.7,-11.4,11.8));
#900 = LINE('',#901,#902);
#901 = CARTESIAN_POINT('',(30.7,-20.,11.8));
#902 = VECTOR('',#903,1.);
#903 = DIRECTION('',(0.,1.,0.));
#904 = ORIENTED_EDGE('',*,*,#905,.F.);
#905 = EDGE_CURVE('',#906,#898,#908,.T.);
#906 = VERTEX_POINT('',#907);
#907 = CARTESIAN_POINT('',(30.7,-11.4,8.5));
#908 = LINE('',#909,#910);
#909 = CARTESIAN_POINT('',(30.7,-11.4,7.35));
#910 = VECTOR('',#911,1.);
#911 = DIRECTION('',(0.,0.,1.));
#912 = ORIENTED_EDGE('',*,*,#913,.T.);
#913 = EDGE_CURVE('',#906,#914,#916,.T.);
#914 = VERTEX_POINT('',#915);
#915 = CARTESIAN_POINT('',(30.7,-12.2,8.5));
#916 = LINE('',#917,#918);
#917 = CARTESIAN_POINT('',(30.7,-34.05,8.5));
#918 = VECTOR('',#919,1.);
#919 = DIRECTION('',(0.,-1.,0.));
#920 = ORIENTED_EDGE('',*,*,#921,.F.);
#921 = EDGE_CURVE('',#860,#914,#922,.T.);
#922 = LINE('',#923,#924);
#923 = CARTESIAN_POINT('',(30.7,-12.2,6.2));
#924 = VECTOR('',#925,1.);
#925 = DIRECTION('',(0.,0.,1.));
#926 = ORIENTED_EDGE('',*,*,#859,.F.);
#927 = ORIENTED_EDGE('',*,*,#272,.F.);
#928 = PLANE('',#929);
#929 = AXIS2_PLACEMENT_3D('',#930,#931,#932);
#930 = CARTESIAN_POINT('',(30.7,-20.,6.2));
#931 = DIRECTION('',(1.,0.,0.));
#932 = DIRECTION('',(0.,0.,1.));
#933 = ADVANCED_FACE('',(#934),#952,.F.);
#934 = FACE_BOUND('',#935,.F.);
#935 = EDGE_LOOP('',(#936,#937,#945,#951));
#936 = ORIENTED_EDGE('',*,*,#897,.F.);
#937 = ORIENTED_EDGE('',*,*,#938,.F.);
#938 = EDGE_CURVE('',#939,#898,#941,.T.);
#939 = VERTEX_POINT('',#940);
#940 = CARTESIAN_POINT('',(43.7,-11.4,11.8));
#941 = LINE('',#942,#943);
#942 = CARTESIAN_POINT('',(29.05,-11.4,11.8));
#943 = VECTOR('',#944,1.);
#944 = DIRECTION('',(-1.,0.,0.));
#945 = ORIENTED_EDGE('',*,*,#946,.T.);
#946 = EDGE_CURVE('',#939,#257,#947,.T.);
#947 = LINE('',#948,#949);
#948 = CARTESIAN_POINT('',(43.7,-20.,11.8));
#949 = VECTOR('',#950,1.);
#950 = DIRECTION('',(0.,1.,0.));
#951 = ORIENTED_EDGE('',*,*,#264,.F.);
#952 = PLANE('',#953);
#953 = AXIS2_PLACEMENT_3D('',#954,#955,#956);
#954 = CARTESIAN_POINT('',(30.7,-20.,11.8));
#955 = DIRECTION('',(0.,0.,1.));
#956 = DIRECTION('',(1.,0.,0.));
#957 = ADVANCED_FACE('',(#958),#985,.F.);
#958 = FACE_BOUND('',#959,.F.);
#959 = EDGE_LOOP('',(#960,#961,#969,#977,#983,#984));
#960 = ORIENTED_EDGE('',*,*,#946,.F.);
#961 = ORIENTED_EDGE('',*,*,#962,.F.);
#962 = EDGE_CURVE('',#963,#939,#965,.T.);
#963 = VERTEX_POINT('',#964);
#964 = CARTESIAN_POINT('',(43.7,-11.4,8.5));
#965 = LINE('',#966,#967);
#966 = CARTESIAN_POINT('',(43.7,-11.4,7.35));
#967 = VECTOR('',#968,1.);
#968 = DIRECTION('',(0.,0.,1.));
#969 = ORIENTED_EDGE('',*,*,#970,.T.);
#970 = EDGE_CURVE('',#963,#971,#973,.T.);
#971 = VERTEX_POINT('',#972);
#972 = CARTESIAN_POINT('',(43.7,-12.2,8.5));
#973 = LINE('',#974,#975);
#974 = CARTESIAN_POINT('',(43.7,-34.05,8.5));
#975 = VECTOR('',#976,1.);
#976 = DIRECTION('',(0.,-1.,0.));
#977 = ORIENTED_EDGE('',*,*,#978,.F.);
#978 = EDGE_CURVE('',#793,#971,#979,.T.);
#979 = LINE('',#980,#981);
#980 = CARTESIAN_POINT('',(43.7,-12.2,6.2));
#981 = VECTOR('',#982,1.);
#982 = DIRECTION('',(0.,0.,1.));
#983 = ORIENTED_EDGE('',*,*,#800,.F.);
#984 = ORIENTED_EDGE('',*,*,#256,.F.);
#985 = PLANE('',#986);
#986 = AXIS2_PLACEMENT_3D('',#987,#988,#989);
#987 = CARTESIAN_POINT('',(43.7,-20.,6.2));
#988 = DIRECTION('',(1.,0.,0.));
#989 = DIRECTION('',(0.,0.,1.));
#990 = ADVANCED_FACE('',(#991),#1032,.F.);
#991 = FACE_BOUND('',#992,.F.);
#992 = EDGE_LOOP('',(#993,#1001,#1009,#1017,#1025,#1031));
#993 = ORIENTED_EDGE('',*,*,#994,.F.);
#994 = EDGE_CURVE('',#995,#371,#997,.T.);
#995 = VERTEX_POINT('',#996);
#996 = CARTESIAN_POINT('',(27.4,-13.29705627484,12.7));
#997 = LINE('',#998,#999);
#998 = CARTESIAN_POINT('',(27.4,-48.1,12.7));
#999 = VECTOR('',#1000,1.);
#1000 = DIRECTION('',(0.,1.,0.));
#1001 = ORIENTED_EDGE('',*,*,#1002,.F.);
#1002 = EDGE_CURVE('',#1003,#995,#1005,.T.);
#1003 = VERTEX_POINT('',#1004);
#1004 = CARTESIAN_POINT('',(28.497056274848,-12.2,12.7));
#1005 = LINE('',#1006,#1007);
#1006 = CARTESIAN_POINT('',(19.247792206136,-21.44926406871,12.7));
#1007 = VECTOR('',#1008,1.);
#1008 = DIRECTION('',(-0.707106781187,-0.707106781187,0.));
#1009 = ORIENTED_EDGE('',*,*,#1010,.F.);
#1010 = EDGE_CURVE('',#1011,#1003,#1013,.T.);
#1011 = VERTEX_POINT('',#1012);
#1012 = CARTESIAN_POINT('',(47.,-12.2,12.7));
#1013 = LINE('',#1014,#1015);
#1014 = CARTESIAN_POINT('',(37.6,-12.2,12.7));
#1015 = VECTOR('',#1016,1.);
#1016 = DIRECTION('',(-1.,0.,0.));
#1017 = ORIENTED_EDGE('',*,*,#1018,.T.);
#1018 = EDGE_CURVE('',#1011,#1019,#1021,.T.);
#1019 = VERTEX_POINT('',#1020);
#1020 = CARTESIAN_POINT('',(47.,-11.4,12.7));
#1021 = LINE('',#1022,#1023);
#1022 = CARTESIAN_POINT('',(47.,-48.1,12.7));
#1023 = VECTOR('',#1024,1.);
#1024 = DIRECTION('',(0.,1.,0.));
#1025 = ORIENTED_EDGE('',*,*,#1026,.F.);
#1026 = EDGE_CURVE('',#373,#1019,#1027,.T.);
#1027 = LINE('',#1028,#1029);
#1028 = CARTESIAN_POINT('',(27.4,-11.4,12.7));
#1029 = VECTOR('',#1030,1.);
#1030 = DIRECTION('',(1.,0.,0.));
#1031 = ORIENTED_EDGE('',*,*,#370,.F.);
#1032 = PLANE('',#1033);
#1033 = AXIS2_PLACEMENT_3D('',#1034,#1035,#1036);
#1034 = CARTESIAN_POINT('',(27.4,-48.1,12.7));
#1035 = DIRECTION('',(0.,0.,1.));
#1036 = DIRECTION('',(1.,0.,0.));
#1037 = ADVANCED_FACE('',(#1038),#1065,.F.);
#1038 = FACE_BOUND('',#1039,.F.);
#1039 = EDGE_LOOP('',(#1040,#1046,#1047,#1048,#1056,#1062,#1063,#1064));
#1040 = ORIENTED_EDGE('',*,*,#1041,.F.);
#1041 = EDGE_CURVE('',#389,#906,#1042,.T.);
#1042 = LINE('',#1043,#1044);
#1043 = CARTESIAN_POINT('',(27.4,-11.4,8.5));
#1044 = VECTOR('',#1045,1.);
#1045 = DIRECTION('',(1.,0.,0.));
#1046 = ORIENTED_EDGE('',*,*,#396,.F.);
#1047 = ORIENTED_EDGE('',*,*,#1026,.T.);
#1048 = ORIENTED_EDGE('',*,*,#1049,.F.);
#1049 = EDGE_CURVE('',#1050,#1019,#1052,.T.);
#1050 = VERTEX_POINT('',#1051);
#1051 = CARTESIAN_POINT('',(47.,-11.4,8.5));
#1052 = LINE('',#1053,#1054);
#1053 = CARTESIAN_POINT('',(47.,-11.4,8.5));
#1054 = VECTOR('',#1055,1.);
#1055 = DIRECTION('',(0.,0.,1.));
#1056 = ORIENTED_EDGE('',*,*,#1057,.F.);
#1057 = EDGE_CURVE('',#963,#1050,#1058,.T.);
#1058 = LINE('',#1059,#1060);
#1059 = CARTESIAN_POINT('',(27.4,-11.4,8.5));
#1060 = VECTOR('',#1061,1.);
#1061 = DIRECTION('',(1.,0.,0.));
#1062 = ORIENTED_EDGE('',*,*,#962,.T.);
#1063 = ORIENTED_EDGE('',*,*,#938,.T.);
#1064 = ORIENTED_EDGE('',*,*,#905,.F.);
#1065 = PLANE('',#1066);
#1066 = AXIS2_PLACEMENT_3D('',#1067,#1068,#1069);
#1067 = CARTESIAN_POINT('',(27.4,-11.4,8.5));
#1068 = DIRECTION('',(0.,1.,0.));
#1069 = DIRECTION('',(0.,0.,1.));
#1070 = ADVANCED_FACE('',(#1071),#1098,.T.);
#1071 = FACE_BOUND('',#1072,.T.);
#1072 = EDGE_LOOP('',(#1073,#1081,#1089,#1095,#1096,#1097));
#1073 = ORIENTED_EDGE('',*,*,#1074,.F.);
#1074 = EDGE_CURVE('',#1075,#381,#1077,.T.);
#1075 = VERTEX_POINT('',#1076);
#1076 = CARTESIAN_POINT('',(27.4,-13.29705627484,8.5));
#1077 = LINE('',#1078,#1079);
#1078 = CARTESIAN_POINT('',(27.4,-48.1,8.5));
#1079 = VECTOR('',#1080,1.);
#1080 = DIRECTION('',(0.,1.,0.));
#1081 = ORIENTED_EDGE('',*,*,#1082,.F.);
#1082 = EDGE_CURVE('',#1083,#1075,#1085,.T.);
#1083 = VERTEX_POINT('',#1084);
#1084 = CARTESIAN_POINT('',(28.497056274848,-12.2,8.5));
#1085 = LINE('',#1086,#1087);
#1086 = CARTESIAN_POINT('',(19.247792206136,-21.44926406871,8.5));
#1087 = VECTOR('',#1088,1.);
#1088 = DIRECTION('',(-0.707106781187,-0.707106781187,0.));
#1089 = ORIENTED_EDGE('',*,*,#1090,.F.);
#1090 = EDGE_CURVE('',#914,#1083,#1091,.T.);
#1091 = LINE('',#1092,#1093);
#1092 = CARTESIAN_POINT('',(37.6,-12.2,8.5));
#1093 = VECTOR('',#1094,1.);
#1094 = DIRECTION('',(-1.,0.,0.));
#1095 = ORIENTED_EDGE('',*,*,#913,.F.);
#1096 = ORIENTED_EDGE('',*,*,#1041,.F.);
#1097 = ORIENTED_EDGE('',*,*,#388,.F.);
#1098 = PLANE('',#1099);
#1099 = AXIS2_PLACEMENT_3D('',#1100,#1101,#1102);
#1100 = CARTESIAN_POINT('',(27.4,-48.1,8.5));
#1101 = DIRECTION('',(0.,0.,1.));
#1102 = DIRECTION('',(1.,0.,0.));
#1103 = ADVANCED_FACE('',(#1104),#1115,.T.);
#1104 = FACE_BOUND('',#1105,.T.);
#1105 = EDGE_LOOP('',(#1106,#1107,#1113,#1114));
#1106 = ORIENTED_EDGE('',*,*,#994,.F.);
#1107 = ORIENTED_EDGE('',*,*,#1108,.F.);
#1108 = EDGE_CURVE('',#1075,#995,#1109,.T.);
#1109 = LINE('',#1110,#1111);
#1110 = CARTESIAN_POINT('',(27.4,-13.29705627484,7.35));
#1111 = VECTOR('',#1112,1.);
#1112 = DIRECTION('',(0.,0.,1.));
#1113 = ORIENTED_EDGE('',*,*,#1074,.T.);
#1114 = ORIENTED_EDGE('',*,*,#380,.F.);
#1115 = PLANE('',#1116);
#1116 = AXIS2_PLACEMENT_3D('',#1117,#1118,#1119);
#1117 = CARTESIAN_POINT('',(27.4,-48.1,8.5));
#1118 = DIRECTION('',(1.,0.,0.));
#1119 = DIRECTION('',(0.,0.,1.));
#1120 = ADVANCED_FACE('',(#1121),#1139,.T.);
#1121 = FACE_BOUND('',#1122,.T.);
#1122 = EDGE_LOOP('',(#1123,#1131,#1137,#1138));
#1123 = ORIENTED_EDGE('',*,*,#1124,.T.);
#1124 = EDGE_CURVE('',#459,#1125,#1127,.T.);
#1125 = VERTEX_POINT('',#1126);
#1126 = CARTESIAN_POINT('',(26.597056274848,-61.9,9.2));
#1127 = LINE('',#1128,#1129);
#1128 = CARTESIAN_POINT('',(20.,-61.9,9.2));
#1129 = VECTOR('',#1130,1.);
#1130 = DIRECTION('',(1.,0.,0.));
#1131 = ORIENTED_EDGE('',*,*,#1132,.F.);
#1132 = EDGE_CURVE('',#815,#1125,#1133,.T.);
#1133 = LINE('',#1134,#1135);
#1134 = CARTESIAN_POINT('',(26.597056274848,-61.9,5.65));
#1135 = VECTOR('',#1136,1.);
#1136 = DIRECTION('',(0.,0.,1.));
#1137 = ORIENTED_EDGE('',*,*,#814,.F.);
#1138 = ORIENTED_EDGE('',*,*,#466,.F.);
#1139 = PLANE('',#1140);
#1140 = AXIS2_PLACEMENT_3D('',#1141,#1142,#1143);
#1141 = CARTESIAN_POINT('',(20.,-61.9,5.1));
#1142 = DIRECTION('',(0.,1.,0.));
#1143 = DIRECTION('',(0.,0.,1.));
#1144 = ADVANCED_FACE('',(#1145),#1171,.F.);
#1145 = FACE_BOUND('',#1146,.F.);
#1146 = EDGE_LOOP('',(#1147,#1155,#1156,#1157,#1165));
#1147 = ORIENTED_EDGE('',*,*,#1148,.F.);
#1148 = EDGE_CURVE('',#451,#1149,#1151,.T.);
#1149 = VERTEX_POINT('',#1150);
#1150 = CARTESIAN_POINT('',(26.2,-53.4,9.2));
#1151 = LINE('',#1152,#1153);
#1152 = CARTESIAN_POINT('',(20.,-53.4,9.2));
#1153 = VECTOR('',#1154,1.);
#1154 = DIRECTION('',(1.,0.,0.));
#1155 = ORIENTED_EDGE('',*,*,#458,.F.);
#1156 = ORIENTED_EDGE('',*,*,#1124,.T.);
#1157 = ORIENTED_EDGE('',*,*,#1158,.F.);
#1158 = EDGE_CURVE('',#1159,#1125,#1161,.T.);
#1159 = VERTEX_POINT('',#1160);
#1160 = CARTESIAN_POINT('',(26.2,-61.50294372515,9.2));
#1161 = LINE('',#1162,#1163);
#1162 = CARTESIAN_POINT('',(24.749264068712,-60.05220779386,9.2));
#1163 = VECTOR('',#1164,1.);
#1164 = DIRECTION('',(0.707106781187,-0.707106781187,0.));
#1165 = ORIENTED_EDGE('',*,*,#1166,.F.);
#1166 = EDGE_CURVE('',#1149,#1159,#1167,.T.);
#1167 = LINE('',#1168,#1169);
#1168 = CARTESIAN_POINT('',(26.2,-38.19852813742,9.2));
#1169 = VECTOR('',#1170,1.);
#1170 = DIRECTION('',(0.,-1.,0.));
#1171 = PLANE('',#1172);
#1172 = AXIS2_PLACEMENT_3D('',#1173,#1174,#1175);
#1173 = CARTESIAN_POINT('',(20.,-61.9,9.2));
#1174 = DIRECTION('',(0.,0.,1.));
#1175 = DIRECTION('',(1.,0.,0.));
#1176 = ADVANCED_FACE('',(#1177),#1188,.F.);
#1177 = FACE_BOUND('',#1178,.F.);
#1178 = EDGE_LOOP('',(#1179,#1180,#1186,#1187));
#1179 = ORIENTED_EDGE('',*,*,#1148,.T.);
#1180 = ORIENTED_EDGE('',*,*,#1181,.F.);
#1181 = EDGE_CURVE('',#849,#1149,#1182,.T.);
#1182 = LINE('',#1183,#1184);
#1183 = CARTESIAN_POINT('',(26.2,-53.4,5.65));
#1184 = VECTOR('',#1185,1.);
#1185 = DIRECTION('',(0.,0.,1.));
#1186 = ORIENTED_EDGE('',*,*,#848,.F.);
#1187 = ORIENTED_EDGE('',*,*,#450,.F.);
#1188 = PLANE('',#1189);
#1189 = AXIS2_PLACEMENT_3D('',#1190,#1191,#1192);
#1190 = CARTESIAN_POINT('',(20.,-53.4,5.1));
#1191 = DIRECTION('',(0.,1.,0.));
#1192 = DIRECTION('',(0.,0.,1.));
#1193 = ADVANCED_FACE('',(#1194,#1278,#1281,#1292),#1298,.F.);
#1194 = FACE_BOUND('',#1195,.F.);
#1195 = EDGE_LOOP('',(#1196,#1206,#1214,#1222,#1230,#1238,#1247,#1256,
    #1264,#1272));
#1196 = ORIENTED_EDGE('',*,*,#1197,.T.);
#1197 = EDGE_CURVE('',#1198,#1200,#1202,.T.);
#1198 = VERTEX_POINT('',#1199);
#1199 = CARTESIAN_POINT('',(47.8,-65.00294372515,15.4));
#1200 = VERTEX_POINT('',#1201);
#1201 = CARTESIAN_POINT('',(47.8,-12.2,15.4));
#1202 = LINE('',#1203,#1204);
#1203 = CARTESIAN_POINT('',(47.8,-65.00294372515,15.4));
#1204 = VECTOR('',#1205,1.);
#1205 = DIRECTION('',(0.,1.,0.));
#1206 = ORIENTED_EDGE('',*,*,#1207,.T.);
#1207 = EDGE_CURVE('',#1200,#1208,#1210,.T.);
#1208 = VERTEX_POINT('',#1209);
#1209 = CARTESIAN_POINT('',(28.497056274848,-12.2,15.4));
#1210 = LINE('',#1211,#1212);
#1211 = CARTESIAN_POINT('',(47.8,-12.2,15.4));
#1212 = VECTOR('',#1213,1.);
#1213 = DIRECTION('',(-1.,0.,0.));
#1214 = ORIENTED_EDGE('',*,*,#1215,.T.);
#1215 = EDGE_CURVE('',#1208,#1216,#1218,.T.);
#1216 = VERTEX_POINT('',#1217);
#1217 = CARTESIAN_POINT('',(26.2,-14.49705627484,15.4));
#1218 = LINE('',#1219,#1220);
#1219 = CARTESIAN_POINT('',(28.497056274848,-12.2,15.4));
#1220 = VECTOR('',#1221,1.);
#1221 = DIRECTION('',(-0.707106781187,-0.707106781187,0.));
#1222 = ORIENTED_EDGE('',*,*,#1223,.T.);
#1223 = EDGE_CURVE('',#1216,#1224,#1226,.T.);
#1224 = VERTEX_POINT('',#1225);
#1225 = CARTESIAN_POINT('',(26.2,-61.50294372515,15.4));
#1226 = LINE('',#1227,#1228);
#1227 = CARTESIAN_POINT('',(26.2,-14.49705627484,15.4));
#1228 = VECTOR('',#1229,1.);
#1229 = DIRECTION('',(0.,-1.,0.));
#1230 = ORIENTED_EDGE('',*,*,#1231,.T.);
#1231 = EDGE_CURVE('',#1224,#1232,#1234,.T.);
#1232 = VERTEX_POINT('',#1233);
#1233 = CARTESIAN_POINT('',(27.605798942524,-62.90874266767,15.4));
#1234 = LINE('',#1235,#1236);
#1235 = CARTESIAN_POINT('',(26.2,-61.50294372515,15.4));
#1236 = VECTOR('',#1237,1.);
#1237 = DIRECTION('',(0.707106781187,-0.707106781187,0.));
#1238 = ORIENTED_EDGE('',*,*,#1239,.T.);
#1239 = EDGE_CURVE('',#1232,#1240,#1242,.T.);
#1240 = VERTEX_POINT('',#1241);
#1241 = CARTESIAN_POINT('',(31.5,-64.,15.4));
#1242 = CIRCLE('',#1243,2.1);
#1243 = AXIS2_PLACEMENT_3D('',#1244,#1245,#1246);
#1244 = CARTESIAN_POINT('',(29.4,-64.,15.4));
#1245 = DIRECTION('',(0.,0.,-1.));
#1246 = DIRECTION('',(1.,0.,0.));
#1247 = ORIENTED_EDGE('',*,*,#1248,.T.);
#1248 = EDGE_CURVE('',#1240,#1249,#1251,.T.);
#1249 = VERTEX_POINT('',#1250);
#1250 = CARTESIAN_POINT('',(30.491257332324,-65.79420105747,15.4));
#1251 = CIRCLE('',#1252,2.1);
#1252 = AXIS2_PLACEMENT_3D('',#1253,#1254,#1255);
#1253 = CARTESIAN_POINT('',(29.4,-64.,15.4));
#1254 = DIRECTION('',(0.,0.,-1.));
#1255 = DIRECTION('',(1.,0.,0.));
#1256 = ORIENTED_EDGE('',*,*,#1257,.T.);
#1257 = EDGE_CURVE('',#1249,#1258,#1260,.T.);
#1258 = VERTEX_POINT('',#1259);
#1259 = CARTESIAN_POINT('',(31.997056274848,-67.3,15.4));
#1260 = LINE('',#1261,#1262);
#1261 = CARTESIAN_POINT('',(26.2,-61.50294372515,15.4));
#1262 = VECTOR('',#1263,1.);
#1263 = DIRECTION('',(0.707106781187,-0.707106781187,0.));
#1264 = ORIENTED_EDGE('',*,*,#1265,.T.);
#1265 = EDGE_CURVE('',#1258,#1266,#1268,.T.);
#1266 = VERTEX_POINT('',#1267);
#1267 = CARTESIAN_POINT('',(45.502943725152,-67.3,15.4));
#1268 = LINE('',#1269,#1270);
#1269 = CARTESIAN_POINT('',(31.997056274848,-67.3,15.4));
#1270 = VECTOR('',#1271,1.);
#1271 = DIRECTION('',(1.,0.,0.));
#1272 = ORIENTED_EDGE('',*,*,#1273,.T.);
#1273 = EDGE_CURVE('',#1266,#1198,#1274,.T.);
#1274 = LINE('',#1275,#1276);
#1275 = CARTESIAN_POINT('',(45.502943725152,-67.3,15.4));
#1276 = VECTOR('',#1277,1.);
#1277 = DIRECTION('',(0.707106781187,0.707106781187,0.));
#1278 = FACE_BOUND('',#1279,.F.);
#1279 = EDGE_LOOP('',(#1280));
#1280 = ORIENTED_EDGE('',*,*,#603,.T.);
#1281 = FACE_BOUND('',#1282,.F.);
#1282 = EDGE_LOOP('',(#1283));
#1283 = ORIENTED_EDGE('',*,*,#1284,.T.);
#1284 = EDGE_CURVE('',#1285,#1285,#1287,.T.);
#1285 = VERTEX_POINT('',#1286);
#1286 = CARTESIAN_POINT('',(47.6,-64.,15.4));
#1287 = CIRCLE('',#1288,2.1);
#1288 = AXIS2_PLACEMENT_3D('',#1289,#1290,#1291);
#1289 = CARTESIAN_POINT('',(45.5,-64.,15.4));
#1290 = DIRECTION('',(0.,0.,-1.));
#1291 = DIRECTION('',(1.,0.,0.));
#1292 = FACE_BOUND('',#1293,.F.);
#1293 = EDGE_LOOP('',(#1294,#1295,#1296,#1297));
#1294 = ORIENTED_EDGE('',*,*,#733,.T.);
#1295 = ORIENTED_EDGE('',*,*,#692,.T.);
#1296 = ORIENTED_EDGE('',*,*,#661,.F.);
#1297 = ORIENTED_EDGE('',*,*,#716,.F.);
#1298 = PLANE('',#1299);
#1299 = AXIS2_PLACEMENT_3D('',#1300,#1301,#1302);
#1300 = CARTESIAN_POINT('',(37.296206325974,-39.06767519813,15.4));
#1301 = DIRECTION('',(0.,0.,1.));
#1302 = DIRECTION('',(1.,0.,0.));
#1303 = ADVANCED_FACE('',(#1304,#1307),#1318,.T.);
#1304 = FACE_BOUND('',#1305,.T.);
#1305 = EDGE_LOOP('',(#1306));
#1306 = ORIENTED_EDGE('',*,*,#628,.T.);
#1307 = FACE_BOUND('',#1308,.T.);
#1308 = EDGE_LOOP('',(#1309));
#1309 = ORIENTED_EDGE('',*,*,#1310,.T.);
#1310 = EDGE_CURVE('',#1311,#1311,#1313,.T.);
#1311 = VERTEX_POINT('',#1312);
#1312 = CARTESIAN_POINT('',(46.65,-64.,14.9));
#1313 = CIRCLE('',#1314,1.15);
#1314 = AXIS2_PLACEMENT_3D('',#1315,#1316,#1317);
#1315 = CARTESIAN_POINT('',(45.5,-64.,14.9));
#1316 = DIRECTION('',(0.,0.,-1.));
#1317 = DIRECTION('',(1.,0.,0.));
#1318 = PLANE('',#1319);
#1319 = AXIS2_PLACEMENT_3D('',#1320,#1321,#1322);
#1320 = CARTESIAN_POINT('',(45.5,-64.,14.9));
#1321 = DIRECTION('',(0.,0.,1.));
#1322 = DIRECTION('',(1.,0.,0.));
#1323 = ADVANCED_FACE('',(#1324),#1342,.T.);
#1324 = FACE_BOUND('',#1325,.F.);
#1325 = EDGE_LOOP('',(#1326,#1332,#1333,#1334,#1340,#1341));
#1326 = ORIENTED_EDGE('',*,*,#1327,.F.);
#1327 = EDGE_CURVE('',#1249,#750,#1328,.T.);
#1328 = LINE('',#1329,#1330);
#1329 = CARTESIAN_POINT('',(30.491257332324,-65.79420105747,6.3));
#1330 = VECTOR('',#1331,1.);
#1331 = DIRECTION('',(-0.,-0.,-1.));
#1332 = ORIENTED_EDGE('',*,*,#1248,.F.);
#1333 = ORIENTED_EDGE('',*,*,#1239,.F.);
#1334 = ORIENTED_EDGE('',*,*,#1335,.T.);
#1335 = EDGE_CURVE('',#1232,#823,#1336,.T.);
#1336 = LINE('',#1337,#1338);
#1337 = CARTESIAN_POINT('',(27.605798942524,-62.90874266767,6.3));
#1338 = VECTOR('',#1339,1.);
#1339 = DIRECTION('',(-0.,-0.,-1.));
#1340 = ORIENTED_EDGE('',*,*,#830,.F.);
#1341 = ORIENTED_EDGE('',*,*,#749,.F.);
#1342 = CYLINDRICAL_SURFACE('',#1343,2.1);
#1343 = AXIS2_PLACEMENT_3D('',#1344,#1345,#1346);
#1344 = CARTESIAN_POINT('',(29.4,-64.,6.3));
#1345 = DIRECTION('',(-0.,-0.,-1.));
#1346 = DIRECTION('',(1.,0.,0.));
#1347 = ADVANCED_FACE('',(#1348),#1359,.T.);
#1348 = FACE_BOUND('',#1349,.T.);
#1349 = EDGE_LOOP('',(#1350,#1351,#1352,#1353));
#1350 = ORIENTED_EDGE('',*,*,#760,.F.);
#1351 = ORIENTED_EDGE('',*,*,#1327,.F.);
#1352 = ORIENTED_EDGE('',*,*,#1257,.T.);
#1353 = ORIENTED_EDGE('',*,*,#1354,.F.);
#1354 = EDGE_CURVE('',#761,#1258,#1355,.T.);
#1355 = LINE('',#1356,#1357);
#1356 = CARTESIAN_POINT('',(31.997056274848,-67.3,6.2));
#1357 = VECTOR('',#1358,1.);
#1358 = DIRECTION('',(0.,0.,1.));
#1359 = PLANE('',#1360);
#1360 = AXIS2_PLACEMENT_3D('',#1361,#1362,#1363);
#1361 = CARTESIAN_POINT('',(26.2,-61.50294372515,6.2));
#1362 = DIRECTION('',(0.707106781187,0.707106781187,0.));
#1363 = DIRECTION('',(0.707106781187,-0.707106781187,0.));
#1364 = ADVANCED_FACE('',(#1365),#1376,.T.);
#1365 = FACE_BOUND('',#1366,.T.);
#1366 = EDGE_LOOP('',(#1367,#1368,#1369,#1370));
#1367 = ORIENTED_EDGE('',*,*,#768,.F.);
#1368 = ORIENTED_EDGE('',*,*,#1354,.T.);
#1369 = ORIENTED_EDGE('',*,*,#1265,.T.);
#1370 = ORIENTED_EDGE('',*,*,#1371,.F.);
#1371 = EDGE_CURVE('',#769,#1266,#1372,.T.);
#1372 = LINE('',#1373,#1374);
#1373 = CARTESIAN_POINT('',(45.502943725152,-67.3,6.2));
#1374 = VECTOR('',#1375,1.);
#1375 = DIRECTION('',(0.,0.,1.));
#1376 = PLANE('',#1377);
#1377 = AXIS2_PLACEMENT_3D('',#1378,#1379,#1380);
#1378 = CARTESIAN_POINT('',(31.997056274848,-67.3,6.2));
#1379 = DIRECTION('',(0.,1.,0.));
#1380 = DIRECTION('',(1.,0.,0.));
#1381 = ADVANCED_FACE('',(#1382),#1395,.T.);
#1382 = FACE_BOUND('',#1383,.T.);
#1383 = EDGE_LOOP('',(#1384,#1385,#1386,#1387,#1393,#1394));
#1384 = ORIENTED_EDGE('',*,*,#822,.F.);
#1385 = ORIENTED_EDGE('',*,*,#1132,.T.);
#1386 = ORIENTED_EDGE('',*,*,#1158,.F.);
#1387 = ORIENTED_EDGE('',*,*,#1388,.T.);
#1388 = EDGE_CURVE('',#1159,#1224,#1389,.T.);
#1389 = LINE('',#1390,#1391);
#1390 = CARTESIAN_POINT('',(26.2,-61.50294372515,6.2));
#1391 = VECTOR('',#1392,1.);
#1392 = DIRECTION('',(0.,0.,1.));
#1393 = ORIENTED_EDGE('',*,*,#1231,.T.);
#1394 = ORIENTED_EDGE('',*,*,#1335,.T.);
#1395 = PLANE('',#1396);
#1396 = AXIS2_PLACEMENT_3D('',#1397,#1398,#1399);
#1397 = CARTESIAN_POINT('',(26.2,-61.50294372515,6.2));
#1398 = DIRECTION('',(0.707106781187,0.707106781187,0.));
#1399 = DIRECTION('',(0.707106781187,-0.707106781187,0.));
#1400 = ADVANCED_FACE('',(#1401),#1412,.T.);
#1401 = FACE_BOUND('',#1402,.T.);
#1402 = EDGE_LOOP('',(#1403,#1404,#1405,#1406));
#1403 = ORIENTED_EDGE('',*,*,#776,.F.);
#1404 = ORIENTED_EDGE('',*,*,#1371,.T.);
#1405 = ORIENTED_EDGE('',*,*,#1273,.T.);
#1406 = ORIENTED_EDGE('',*,*,#1407,.F.);
#1407 = EDGE_CURVE('',#777,#1198,#1408,.T.);
#1408 = LINE('',#1409,#1410);
#1409 = CARTESIAN_POINT('',(47.8,-65.00294372515,6.2));
#1410 = VECTOR('',#1411,1.);
#1411 = DIRECTION('',(0.,0.,1.));
#1412 = PLANE('',#1413);
#1413 = AXIS2_PLACEMENT_3D('',#1414,#1415,#1416);
#1414 = CARTESIAN_POINT('',(45.502943725152,-67.3,6.2));
#1415 = DIRECTION('',(-0.707106781187,0.707106781187,0.));
#1416 = DIRECTION('',(0.707106781187,0.707106781187,0.));
#1417 = ADVANCED_FACE('',(#1418),#1429,.T.);
#1418 = FACE_BOUND('',#1419,.T.);
#1419 = EDGE_LOOP('',(#1420,#1421,#1422,#1423));
#1420 = ORIENTED_EDGE('',*,*,#784,.F.);
#1421 = ORIENTED_EDGE('',*,*,#1407,.T.);
#1422 = ORIENTED_EDGE('',*,*,#1197,.T.);
#1423 = ORIENTED_EDGE('',*,*,#1424,.F.);
#1424 = EDGE_CURVE('',#785,#1200,#1425,.T.);
#1425 = LINE('',#1426,#1427);
#1426 = CARTESIAN_POINT('',(47.8,-12.2,6.2));
#1427 = VECTOR('',#1428,1.);
#1428 = DIRECTION('',(0.,0.,1.));
#1429 = PLANE('',#1430);
#1430 = AXIS2_PLACEMENT_3D('',#1431,#1432,#1433);
#1431 = CARTESIAN_POINT('',(47.8,-65.00294372515,6.2));
#1432 = DIRECTION('',(-1.,0.,0.));
#1433 = DIRECTION('',(0.,1.,0.));
#1434 = ADVANCED_FACE('',(#1435),#1462,.T.);
#1435 = FACE_BOUND('',#1436,.T.);
#1436 = EDGE_LOOP('',(#1437,#1438,#1439,#1440,#1446,#1447,#1455,#1461));
#1437 = ORIENTED_EDGE('',*,*,#792,.F.);
#1438 = ORIENTED_EDGE('',*,*,#1424,.T.);
#1439 = ORIENTED_EDGE('',*,*,#1207,.T.);
#1440 = ORIENTED_EDGE('',*,*,#1441,.F.);
#1441 = EDGE_CURVE('',#1003,#1208,#1442,.T.);
#1442 = LINE('',#1443,#1444);
#1443 = CARTESIAN_POINT('',(28.497056274848,-12.2,6.2));
#1444 = VECTOR('',#1445,1.);
#1445 = DIRECTION('',(0.,0.,1.));
#1446 = ORIENTED_EDGE('',*,*,#1010,.F.);
#1447 = ORIENTED_EDGE('',*,*,#1448,.F.);
#1448 = EDGE_CURVE('',#1449,#1011,#1451,.T.);
#1449 = VERTEX_POINT('',#1450);
#1450 = CARTESIAN_POINT('',(47.,-12.2,8.5));
#1451 = LINE('',#1452,#1453);
#1452 = CARTESIAN_POINT('',(47.,-12.2,7.35));
#1453 = VECTOR('',#1454,1.);
#1454 = DIRECTION('',(0.,0.,1.));
#1455 = ORIENTED_EDGE('',*,*,#1456,.T.);
#1456 = EDGE_CURVE('',#1449,#971,#1457,.T.);
#1457 = LINE('',#1458,#1459);
#1458 = CARTESIAN_POINT('',(37.6,-12.2,8.5));
#1459 = VECTOR('',#1460,1.);
#1460 = DIRECTION('',(-1.,0.,0.));
#1461 = ORIENTED_EDGE('',*,*,#978,.F.);
#1462 = PLANE('',#1463);
#1463 = AXIS2_PLACEMENT_3D('',#1464,#1465,#1466);
#1464 = CARTESIAN_POINT('',(47.8,-12.2,6.2));
#1465 = DIRECTION('',(0.,-1.,0.));
#1466 = DIRECTION('',(-1.,0.,0.));
#1467 = ADVANCED_FACE('',(#1468),#1481,.T.);
#1468 = FACE_BOUND('',#1469,.T.);
#1469 = EDGE_LOOP('',(#1470,#1471,#1477,#1478,#1479,#1480));
#1470 = ORIENTED_EDGE('',*,*,#883,.F.);
#1471 = ORIENTED_EDGE('',*,*,#1472,.T.);
#1472 = EDGE_CURVE('',#876,#1216,#1473,.T.);
#1473 = LINE('',#1474,#1475);
#1474 = CARTESIAN_POINT('',(26.2,-14.49705627484,6.2));
#1475 = VECTOR('',#1476,1.);
#1476 = DIRECTION('',(0.,0.,1.));
#1477 = ORIENTED_EDGE('',*,*,#1223,.T.);
#1478 = ORIENTED_EDGE('',*,*,#1388,.F.);
#1479 = ORIENTED_EDGE('',*,*,#1166,.F.);
#1480 = ORIENTED_EDGE('',*,*,#1181,.F.);
#1481 = PLANE('',#1482);
#1482 = AXIS2_PLACEMENT_3D('',#1483,#1484,#1485);
#1483 = CARTESIAN_POINT('',(26.2,-14.49705627484,6.2));
#1484 = DIRECTION('',(1.,0.,0.));
#1485 = DIRECTION('',(0.,-1.,0.));
#1486 = ADVANCED_FACE('',(#1487),#1502,.T.);
#1487 = FACE_BOUND('',#1488,.T.);
#1488 = EDGE_LOOP('',(#1489,#1490,#1496,#1497,#1498,#1499,#1500,#1501));
#1489 = ORIENTED_EDGE('',*,*,#875,.F.);
#1490 = ORIENTED_EDGE('',*,*,#1491,.T.);
#1491 = EDGE_CURVE('',#868,#1083,#1492,.T.);
#1492 = LINE('',#1493,#1494);
#1493 = CARTESIAN_POINT('',(28.497056274848,-12.2,6.2));
#1494 = VECTOR('',#1495,1.);
#1495 = DIRECTION('',(0.,0.,1.));
#1496 = ORIENTED_EDGE('',*,*,#1082,.T.);
#1497 = ORIENTED_EDGE('',*,*,#1108,.T.);
#1498 = ORIENTED_EDGE('',*,*,#1002,.F.);
#1499 = ORIENTED_EDGE('',*,*,#1441,.T.);
#1500 = ORIENTED_EDGE('',*,*,#1215,.T.);
#1501 = ORIENTED_EDGE('',*,*,#1472,.F.);
#1502 = PLANE('',#1503);
#1503 = AXIS2_PLACEMENT_3D('',#1504,#1505,#1506);
#1504 = CARTESIAN_POINT('',(28.497056274848,-12.2,6.2));
#1505 = DIRECTION('',(0.707106781187,-0.707106781187,0.));
#1506 = DIRECTION('',(-0.707106781187,-0.707106781187,0.));
#1507 = ADVANCED_FACE('',(#1508),#1514,.T.);
#1508 = FACE_BOUND('',#1509,.T.);
#1509 = EDGE_LOOP('',(#1510,#1511,#1512,#1513));
#1510 = ORIENTED_EDGE('',*,*,#1090,.T.);
#1511 = ORIENTED_EDGE('',*,*,#1491,.F.);
#1512 = ORIENTED_EDGE('',*,*,#867,.F.);
#1513 = ORIENTED_EDGE('',*,*,#921,.T.);
#1514 = PLANE('',#1515);
#1515 = AXIS2_PLACEMENT_3D('',#1516,#1517,#1518);
#1516 = CARTESIAN_POINT('',(47.8,-12.2,6.2));
#1517 = DIRECTION('',(0.,-1.,0.));
#1518 = DIRECTION('',(-1.,0.,0.));
#1519 = ADVANCED_FACE('',(#1520),#1531,.T.);
#1520 = FACE_BOUND('',#1521,.T.);
#1521 = EDGE_LOOP('',(#1522,#1523,#1529,#1530));
#1522 = ORIENTED_EDGE('',*,*,#1456,.F.);
#1523 = ORIENTED_EDGE('',*,*,#1524,.T.);
#1524 = EDGE_CURVE('',#1449,#1050,#1525,.T.);
#1525 = LINE('',#1526,#1527);
#1526 = CARTESIAN_POINT('',(47.,-48.1,8.5));
#1527 = VECTOR('',#1528,1.);
#1528 = DIRECTION('',(0.,1.,0.));
#1529 = ORIENTED_EDGE('',*,*,#1057,.F.);
#1530 = ORIENTED_EDGE('',*,*,#970,.T.);
#1531 = PLANE('',#1532);
#1532 = AXIS2_PLACEMENT_3D('',#1533,#1534,#1535);
#1533 = CARTESIAN_POINT('',(27.4,-48.1,8.5));
#1534 = DIRECTION('',(0.,0.,1.));
#1535 = DIRECTION('',(1.,0.,0.));
#1536 = ADVANCED_FACE('',(#1537),#1543,.F.);
#1537 = FACE_BOUND('',#1538,.F.);
#1538 = EDGE_LOOP('',(#1539,#1540,#1541,#1542));
#1539 = ORIENTED_EDGE('',*,*,#1018,.F.);
#1540 = ORIENTED_EDGE('',*,*,#1448,.F.);
#1541 = ORIENTED_EDGE('',*,*,#1524,.T.);
#1542 = ORIENTED_EDGE('',*,*,#1049,.T.);
#1543 = PLANE('',#1544);
#1544 = AXIS2_PLACEMENT_3D('',#1545,#1546,#1547);
#1545 = CARTESIAN_POINT('',(47.,-48.1,8.5));
#1546 = DIRECTION('',(1.,0.,0.));
#1547 = DIRECTION('',(0.,0.,1.));
#1548 = ADVANCED_FACE('',(#1549),#1568,.T.);
#1549 = FACE_BOUND('',#1550,.F.);
#1550 = EDGE_LOOP('',(#1551,#1560,#1566,#1567));
#1551 = ORIENTED_EDGE('',*,*,#1552,.F.);
#1552 = EDGE_CURVE('',#1553,#1553,#1555,.T.);
#1553 = VERTEX_POINT('',#1554);
#1554 = CARTESIAN_POINT('',(47.6,-64.,6.3));
#1555 = CIRCLE('',#1556,2.1);
#1556 = AXIS2_PLACEMENT_3D('',#1557,#1558,#1559);
#1557 = CARTESIAN_POINT('',(45.5,-64.,6.3));
#1558 = DIRECTION('',(0.,0.,1.));
#1559 = DIRECTION('',(1.,0.,0.));
#1560 = ORIENTED_EDGE('',*,*,#1561,.T.);
#1561 = EDGE_CURVE('',#1553,#1285,#1562,.T.);
#1562 = LINE('',#1563,#1564);
#1563 = CARTESIAN_POINT('',(47.6,-64.,6.3));
#1564 = VECTOR('',#1565,1.);
#1565 = DIRECTION('',(0.,0.,1.));
#1566 = ORIENTED_EDGE('',*,*,#1284,.F.);
#1567 = ORIENTED_EDGE('',*,*,#1561,.F.);
#1568 = CYLINDRICAL_SURFACE('',#1569,2.1);
#1569 = AXIS2_PLACEMENT_3D('',#1570,#1571,#1572);
#1570 = CARTESIAN_POINT('',(45.5,-64.,6.3));
#1571 = DIRECTION('',(-0.,-0.,-1.));
#1572 = DIRECTION('',(1.,0.,0.));
#1573 = ADVANCED_FACE('',(#1574),#1593,.F.);
#1574 = FACE_BOUND('',#1575,.T.);
#1575 = EDGE_LOOP('',(#1576,#1584,#1591,#1592));
#1576 = ORIENTED_EDGE('',*,*,#1577,.F.);
#1577 = EDGE_CURVE('',#1578,#1311,#1580,.T.);
#1578 = VERTEX_POINT('',#1579);
#1579 = CARTESIAN_POINT('',(46.65,-64.,6.3));
#1580 = LINE('',#1581,#1582);
#1581 = CARTESIAN_POINT('',(46.65,-64.,6.2));
#1582 = VECTOR('',#1583,1.);
#1583 = DIRECTION('',(0.,0.,1.));
#1584 = ORIENTED_EDGE('',*,*,#1585,.T.);
#1585 = EDGE_CURVE('',#1578,#1578,#1586,.T.);
#1586 = CIRCLE('',#1587,1.15);
#1587 = AXIS2_PLACEMENT_3D('',#1588,#1589,#1590);
#1588 = CARTESIAN_POINT('',(45.5,-64.,6.3));
#1589 = DIRECTION('',(0.,0.,-1.));
#1590 = DIRECTION('',(1.,0.,0.));
#1591 = ORIENTED_EDGE('',*,*,#1577,.T.);
#1592 = ORIENTED_EDGE('',*,*,#1310,.F.);
#1593 = CYLINDRICAL_SURFACE('',#1594,1.15);
#1594 = AXIS2_PLACEMENT_3D('',#1595,#1596,#1597);
#1595 = CARTESIAN_POINT('',(45.5,-64.,6.2));
#1596 = DIRECTION('',(-0.,-0.,-1.));
#1597 = DIRECTION('',(1.,0.,0.));
#1598 = ADVANCED_FACE('',(#1599,#1602),#1605,.F.);
#1599 = FACE_BOUND('',#1600,.F.);
#1600 = EDGE_LOOP('',(#1601));
#1601 = ORIENTED_EDGE('',*,*,#1552,.T.);
#1602 = FACE_BOUND('',#1603,.F.);
#1603 = EDGE_LOOP('',(#1604));
#1604 = ORIENTED_EDGE('',*,*,#1585,.T.);
#1605 = PLANE('',#1606);
#1606 = AXIS2_PLACEMENT_3D('',#1607,#1608,#1609);
#1607 = CARTESIAN_POINT('',(45.5,-64.,6.3));
#1608 = DIRECTION('',(0.,0.,1.));
#1609 = DIRECTION('',(1.,0.,0.));
#1610 = ( GEOMETRIC_REPRESENTATION_CONTEXT(3) 
GLOBAL_UNCERTAINTY_ASSIGNED_CONTEXT((#1614)) 
GLOBAL_UNIT_ASSIGNED_CONTEXT((#1611,#1612,#1613)) REPRESENTATION_CONTEXT
('Context #1','3D Context with UNIT and UNCERTAINTY') );
#1611 = ( LENGTH_UNIT() NAMED_UNIT(*) SI_UNIT(.MILLI.,.METRE.) );
#1612 = ( NAMED_UNIT(*) PLANE_ANGLE_UNIT() SI_UNIT($,.RADIAN.) );
#1613 = ( NAMED_UNIT(*) SI_UNIT($,.STERADIAN.) SOLID_ANGLE_UNIT() );
#1614 = UNCERTAINTY_MEASURE_WITH_UNIT(LENGTH_MEASURE(2.E-05),#1611,
  'distance_accuracy_value','confusion accuracy');
#1615 = PRODUCT_RELATED_PRODUCT_CATEGORY('part',$,(#7));
ENDSEC;
END-ISO-10303-21;
