ISO-10303-21;
HEADER;
FILE_DESCRIPTION(('FreeCAD Model'),'2;1');
FILE_NAME('Open CASCADE Shape Model','2026-09-21T18:58:38',('FreeCAD'),(
    'FreeCAD'),'Open CASCADE STEP processor 7.8','FreeCAD','Unknown');
FILE_SCHEMA(('AUTOMOTIVE_DESIGN { 1 0 10303 214 1 1 1 1 }'));
ENDSEC;
DATA;
#1 = APPLICATION_PROTOCOL_DEFINITION('international standard',
  'automotive_design',2000,#2);
#2 = APPLICATION_CONTEXT(
  'core data for automotive mechanical design processes');
#3 = SHAPE_DEFINITION_REPRESENTATION(#4,#10);
#4 = PRODUCT_DEFINITION_SHAPE('','',#5);
#5 = PRODUCT_DEFINITION('design','',#6,#9);
#6 = PRODUCT_DEFINITION_FORMATION('','',#7);
#7 = PRODUCT('Open CASCADE STEP translator 7.8 32',
  'Open CASCADE STEP translator 7.8 32','',(#8));
#8 = PRODUCT_CONTEXT('',#2,'mechanical');
#9 = PRODUCT_DEFINITION_CONTEXT('part definition',#2,'design');
#10 = ADVANCED_BREP_SHAPE_REPRESENTATION('',(#11,#15),#1871);
#11 = AXIS2_PLACEMENT_3D('',#12,#13,#14);
#12 = CARTESIAN_POINT('',(0.,0.,0.));
#13 = DIRECTION('',(0.,0.,1.));
#14 = DIRECTION('',(1.,0.,-0.));
#15 = MANIFOLD_SOLID_BREP('',#16);
#16 = CLOSED_SHELL('',(#17,#50,#70,#228,#253,#311,#348,#371,#394,#418,
    #441,#464,#507,#550,#584,#609,#634,#665,#689,#713,#730,#878,#898,
    #946,#1003,#1019,#1065,#1081,#1093,#1105,#1215,#1235,#1259,#1276,
    #1293,#1326,#1343,#1360,#1377,#1426,#1459,#1508,#1548,#1565,#1603,
    #1636,#1669,#1686,#1711,#1728,#1754,#1768,#1793,#1818,#1835,#1847,
    #1859));
#17 = ADVANCED_FACE('',(#18),#45,.F.);
#18 = FACE_BOUND('',#19,.T.);
#19 = EDGE_LOOP('',(#20,#29,#37,#44));
#20 = ORIENTED_EDGE('',*,*,#21,.F.);
#21 = EDGE_CURVE('',#22,#22,#24,.T.);
#22 = VERTEX_POINT('',#23);
#23 = CARTESIAN_POINT('',(31.25,-64.,14.9));
#24 = CIRCLE('',#25,1.85);
#25 = AXIS2_PLACEMENT_3D('',#26,#27,#28);
#26 = CARTESIAN_POINT('',(29.4,-64.,14.9));
#27 = DIRECTION('',(0.,0.,1.));
#28 = DIRECTION('',(1.,0.,0.));
#29 = ORIENTED_EDGE('',*,*,#30,.T.);
#30 = EDGE_CURVE('',#22,#31,#33,.T.);
#31 = VERTEX_POINT('',#32);
#32 = CARTESIAN_POINT('',(31.25,-64.,16.6));
#33 = LINE('',#34,#35);
#34 = CARTESIAN_POINT('',(31.25,-64.,14.9));
#35 = VECTOR('',#36,1.);
#36 = DIRECTION('',(0.,0.,1.));
#37 = ORIENTED_EDGE('',*,*,#38,.F.);
#38 = EDGE_CURVE('',#31,#31,#39,.T.);
#39 = CIRCLE('',#40,1.85);
#40 = AXIS2_PLACEMENT_3D('',#41,#42,#43);
#41 = CARTESIAN_POINT('',(29.4,-64.,16.6));
#42 = DIRECTION('',(0.,0.,-1.));
#43 = DIRECTION('',(1.,0.,0.));
#44 = ORIENTED_EDGE('',*,*,#30,.F.);
#45 = CYLINDRICAL_SURFACE('',#46,1.85);
#46 = AXIS2_PLACEMENT_3D('',#47,#48,#49);
#47 = CARTESIAN_POINT('',(29.4,-64.,14.9));
#48 = DIRECTION('',(-0.,-0.,-1.));
#49 = DIRECTION('',(1.,0.,0.));
#50 = ADVANCED_FACE('',(#51,#54),#65,.T.);
#51 = FACE_BOUND('',#52,.T.);
#52 = EDGE_LOOP('',(#53));
#53 = ORIENTED_EDGE('',*,*,#21,.T.);
#54 = FACE_BOUND('',#55,.T.);
#55 = EDGE_LOOP('',(#56));
#56 = ORIENTED_EDGE('',*,*,#57,.T.);
#57 = EDGE_CURVE('',#58,#58,#60,.T.);
#58 = VERTEX_POINT('',#59);
#59 = CARTESIAN_POINT('',(30.55,-64.,14.9));
#60 = CIRCLE('',#61,1.15);
#61 = AXIS2_PLACEMENT_3D('',#62,#63,#64);
#62 = CARTESIAN_POINT('',(29.4,-64.,14.9));
#63 = DIRECTION('',(0.,0.,-1.));
#64 = DIRECTION('',(1.,0.,0.));
#65 = PLANE('',#66);
#66 = AXIS2_PLACEMENT_3D('',#67,#68,#69);
#67 = CARTESIAN_POINT('',(29.4,-64.,14.9));
#68 = DIRECTION('',(0.,0.,1.));
#69 = DIRECTION('',(1.,0.,0.));
#70 = ADVANCED_FACE('',(#71,#164,#167,#178,#189),#223,.T.);
#71 = FACE_BOUND('',#72,.T.);
#72 = EDGE_LOOP('',(#73,#83,#91,#99,#107,#115,#124,#132,#140,#148,#157)
  );
#73 = ORIENTED_EDGE('',*,*,#74,.T.);
#74 = EDGE_CURVE('',#75,#77,#79,.T.);
#75 = VERTEX_POINT('',#76);
#76 = CARTESIAN_POINT('',(47.,-62.53030615433,16.6));
#77 = VERTEX_POINT('',#78);
#78 = CARTESIAN_POINT('',(47.,-13.,16.6));
#79 = LINE('',#80,#81);
#80 = CARTESIAN_POINT('',(47.,-64.67157287525,16.6));
#81 = VECTOR('',#82,1.);
#82 = DIRECTION('',(0.,1.,0.));
#83 = ORIENTED_EDGE('',*,*,#84,.T.);
#84 = EDGE_CURVE('',#77,#85,#87,.T.);
#85 = VERTEX_POINT('',#86);
#86 = CARTESIAN_POINT('',(28.828427124746,-13.,16.6));
#87 = LINE('',#88,#89);
#88 = CARTESIAN_POINT('',(47.,-13.,16.6));
#89 = VECTOR('',#90,1.);
#90 = DIRECTION('',(-1.,0.,0.));
#91 = ORIENTED_EDGE('',*,*,#92,.T.);
#92 = EDGE_CURVE('',#85,#93,#95,.T.);
#93 = VERTEX_POINT('',#94);
#94 = CARTESIAN_POINT('',(27.,-14.82842712474,16.6));
#95 = LINE('',#96,#97);
#96 = CARTESIAN_POINT('',(28.828427124746,-13.,16.6));
#97 = VECTOR('',#98,1.);
#98 = DIRECTION('',(-0.707106781187,-0.707106781187,0.));
#99 = ORIENTED_EDGE('',*,*,#100,.T.);
#100 = EDGE_CURVE('',#93,#101,#103,.T.);
#101 = VERTEX_POINT('',#102);
#102 = CARTESIAN_POINT('',(27.,-61.17157287525,16.6));
#103 = LINE('',#104,#105);
#104 = CARTESIAN_POINT('',(27.,-14.82842712474,16.6));
#105 = VECTOR('',#106,1.);
#106 = DIRECTION('',(0.,-1.,0.));
#107 = ORIENTED_EDGE('',*,*,#108,.T.);
#108 = EDGE_CURVE('',#101,#109,#111,.T.);
#109 = VERTEX_POINT('',#110);
#110 = CARTESIAN_POINT('',(28.144821664445,-62.31639453969,16.6));
#111 = LINE('',#112,#113);
#112 = CARTESIAN_POINT('',(27.,-61.17157287525,16.6));
#113 = VECTOR('',#114,1.);
#114 = DIRECTION('',(0.707106781187,-0.707106781187,0.));
#115 = ORIENTED_EDGE('',*,*,#116,.T.);
#116 = EDGE_CURVE('',#109,#117,#119,.T.);
#117 = VERTEX_POINT('',#118);
#118 = CARTESIAN_POINT('',(31.083605460301,-65.25517833555,16.6));
#119 = CIRCLE('',#120,2.1);
#120 = AXIS2_PLACEMENT_3D('',#121,#122,#123);
#121 = CARTESIAN_POINT('',(29.4,-64.,16.6));
#122 = DIRECTION('',(0.,0.,1.));
#123 = DIRECTION('',(1.,0.,0.));
#124 = ORIENTED_EDGE('',*,*,#125,.T.);
#125 = EDGE_CURVE('',#117,#126,#128,.T.);
#126 = VERTEX_POINT('',#127);
#127 = CARTESIAN_POINT('',(32.328427124746,-66.5,16.6));
#128 = LINE('',#129,#130);
#129 = CARTESIAN_POINT('',(27.,-61.17157287525,16.6));
#130 = VECTOR('',#131,1.);
#131 = DIRECTION('',(0.707106781187,-0.707106781187,0.));
#132 = ORIENTED_EDGE('',*,*,#133,.T.);
#133 = EDGE_CURVE('',#126,#134,#136,.T.);
#134 = VERTEX_POINT('',#135);
#135 = CARTESIAN_POINT('',(45.171572875254,-66.5,16.6));
#136 = LINE('',#137,#138);
#137 = CARTESIAN_POINT('',(32.328427124746,-66.5,16.6));
#138 = VECTOR('',#139,1.);
#139 = DIRECTION('',(1.,0.,0.));
#140 = ORIENTED_EDGE('',*,*,#141,.T.);
#141 = EDGE_CURVE('',#134,#142,#144,.T.);
#142 = VERTEX_POINT('',#143);
#143 = CARTESIAN_POINT('',(45.572836383643,-66.09873649161,16.6));
#144 = LINE('',#145,#146);
#145 = CARTESIAN_POINT('',(45.171572875254,-66.5,16.6));
#146 = VECTOR('',#147,1.);
#147 = DIRECTION('',(0.707106781187,0.707106781187,0.));
#148 = ORIENTED_EDGE('',*,*,#149,.T.);
#149 = EDGE_CURVE('',#142,#150,#152,.T.);
#150 = VERTEX_POINT('',#151);
#151 = CARTESIAN_POINT('',(47.6,-64.,16.6));
#152 = CIRCLE('',#153,2.1);
#153 = AXIS2_PLACEMENT_3D('',#154,#155,#156);
#154 = CARTESIAN_POINT('',(45.5,-64.,16.6));
#155 = DIRECTION('',(0.,0.,1.));
#156 = DIRECTION('',(1.,0.,0.));
#157 = ORIENTED_EDGE('',*,*,#158,.T.);
#158 = EDGE_CURVE('',#150,#75,#159,.T.);
#159 = CIRCLE('',#160,2.1);
#160 = AXIS2_PLACEMENT_3D('',#161,#162,#163);
#161 = CARTESIAN_POINT('',(45.5,-64.,16.6));
#162 = DIRECTION('',(0.,0.,1.));
#163 = DIRECTION('',(1.,0.,0.));
#164 = FACE_BOUND('',#165,.T.);
#165 = EDGE_LOOP('',(#166));
#166 = ORIENTED_EDGE('',*,*,#38,.T.);
#167 = FACE_BOUND('',#168,.T.);
#168 = EDGE_LOOP('',(#169));
#169 = ORIENTED_EDGE('',*,*,#170,.T.);
#170 = EDGE_CURVE('',#171,#171,#173,.T.);
#171 = VERTEX_POINT('',#172);
#172 = CARTESIAN_POINT('',(38.4,-59.5,16.6));
#173 = CIRCLE('',#174,1.4);
#174 = AXIS2_PLACEMENT_3D('',#175,#176,#177);
#175 = CARTESIAN_POINT('',(37.,-59.5,16.6));
#176 = DIRECTION('',(0.,0.,-1.));
#177 = DIRECTION('',(1.,0.,0.));
#178 = FACE_BOUND('',#179,.T.);
#179 = EDGE_LOOP('',(#180));
#180 = ORIENTED_EDGE('',*,*,#181,.T.);
#181 = EDGE_CURVE('',#182,#182,#184,.T.);
#182 = VERTEX_POINT('',#183);
#183 = CARTESIAN_POINT('',(47.35,-64.,16.6));
#184 = CIRCLE('',#185,1.85);
#185 = AXIS2_PLACEMENT_3D('',#186,#187,#188);
#186 = CARTESIAN_POINT('',(45.5,-64.,16.6));
#187 = DIRECTION('',(0.,0.,-1.));
#188 = DIRECTION('',(1.,0.,0.));
#189 = FACE_BOUND('',#190,.T.);
#190 = EDGE_LOOP('',(#191,#201,#209,#217));
#191 = ORIENTED_EDGE('',*,*,#192,.T.);
#192 = EDGE_CURVE('',#193,#195,#197,.T.);
#193 = VERTEX_POINT('',#194);
#194 = CARTESIAN_POINT('',(29.95,-18.25,16.6));
#195 = VERTEX_POINT('',#196);
#196 = CARTESIAN_POINT('',(44.45,-18.25,16.6));
#197 = LINE('',#198,#199);
#198 = CARTESIAN_POINT('',(38.475,-18.25,16.6));
#199 = VECTOR('',#200,1.);
#200 = DIRECTION('',(1.,0.,0.));
#201 = ORIENTED_EDGE('',*,*,#202,.T.);
#202 = EDGE_CURVE('',#195,#203,#205,.T.);
#203 = VERTEX_POINT('',#204);
#204 = CARTESIAN_POINT('',(44.45,-49.35,16.6));
#205 = LINE('',#206,#207);
#206 = CARTESIAN_POINT('',(44.45,-31.175,16.6));
#207 = VECTOR('',#208,1.);
#208 = DIRECTION('',(0.,-1.,0.));
#209 = ORIENTED_EDGE('',*,*,#210,.F.);
#210 = EDGE_CURVE('',#211,#203,#213,.T.);
#211 = VERTEX_POINT('',#212);
#212 = CARTESIAN_POINT('',(29.95,-49.35,16.6));
#213 = LINE('',#214,#215);
#214 = CARTESIAN_POINT('',(38.475,-49.35,16.6));
#215 = VECTOR('',#216,1.);
#216 = DIRECTION('',(1.,0.,0.));
#217 = ORIENTED_EDGE('',*,*,#218,.F.);
#218 = EDGE_CURVE('',#193,#211,#219,.T.);
#219 = LINE('',#220,#221);
#220 = CARTESIAN_POINT('',(29.95,-31.175,16.6));
#221 = VECTOR('',#222,1.);
#222 = DIRECTION('',(0.,-1.,0.));
#223 = PLANE('',#224);
#224 = AXIS2_PLACEMENT_3D('',#225,#226,#227);
#225 = CARTESIAN_POINT('',(37.130045276529,-39.73676302691,16.6));
#226 = DIRECTION('',(0.,0.,1.));
#227 = DIRECTION('',(1.,0.,0.));
#228 = ADVANCED_FACE('',(#229),#248,.F.);
#229 = FACE_BOUND('',#230,.T.);
#230 = EDGE_LOOP('',(#231,#239,#246,#247));
#231 = ORIENTED_EDGE('',*,*,#232,.F.);
#232 = EDGE_CURVE('',#233,#58,#235,.T.);
#233 = VERTEX_POINT('',#234);
#234 = CARTESIAN_POINT('',(30.55,-64.,6.3));
#235 = LINE('',#236,#237);
#236 = CARTESIAN_POINT('',(30.55,-64.,6.2));
#237 = VECTOR('',#238,1.);
#238 = DIRECTION('',(0.,0.,1.));
#239 = ORIENTED_EDGE('',*,*,#240,.T.);
#240 = EDGE_CURVE('',#233,#233,#241,.T.);
#241 = CIRCLE('',#242,1.15);
#242 = AXIS2_PLACEMENT_3D('',#243,#244,#245);
#243 = CARTESIAN_POINT('',(29.4,-64.,6.3));
#244 = DIRECTION('',(0.,0.,-1.));
#245 = DIRECTION('',(1.,0.,0.));
#246 = ORIENTED_EDGE('',*,*,#232,.T.);
#247 = ORIENTED_EDGE('',*,*,#57,.F.);
#248 = CYLINDRICAL_SURFACE('',#249,1.15);
#249 = AXIS2_PLACEMENT_3D('',#250,#251,#252);
#250 = CARTESIAN_POINT('',(29.4,-64.,6.2));
#251 = DIRECTION('',(-0.,-0.,-1.));
#252 = DIRECTION('',(1.,0.,0.));
#253 = ADVANCED_FACE('',(#254),#306,.T.);
#254 = FACE_BOUND('',#255,.T.);
#255 = EDGE_LOOP('',(#256,#265,#273,#278,#279,#296));
#256 = ORIENTED_EDGE('',*,*,#257,.F.);
#257 = EDGE_CURVE('',#258,#260,#262,.T.);
#258 = VERTEX_POINT('',#259);
#259 = CARTESIAN_POINT('',(49.,-65.5,15.4));
#260 = VERTEX_POINT('',#261);
#261 = CARTESIAN_POINT('',(47.421905860757,-64.84633200482,
    16.346856483546));
#262 = B_SPLINE_CURVE_WITH_KNOTS('',1,(#263,#264),.UNSPECIFIED.,.F.,.F.,
  (2,2),(0.,1.),.PIECEWISE_BEZIER_KNOTS.);
#263 = CARTESIAN_POINT('',(49.,-65.5,15.4));
#264 = CARTESIAN_POINT('',(47.,-64.67157287525,16.6));
#265 = ORIENTED_EDGE('',*,*,#266,.T.);
#266 = EDGE_CURVE('',#258,#267,#269,.T.);
#267 = VERTEX_POINT('',#268);
#268 = CARTESIAN_POINT('',(49.,-11.,15.4));
#269 = LINE('',#270,#271);
#270 = CARTESIAN_POINT('',(49.,-65.5,15.4));
#271 = VECTOR('',#272,1.);
#272 = DIRECTION('',(0.,1.,0.));
#273 = ORIENTED_EDGE('',*,*,#274,.T.);
#274 = EDGE_CURVE('',#267,#77,#275,.T.);
#275 = B_SPLINE_CURVE_WITH_KNOTS('',1,(#276,#277),.UNSPECIFIED.,.F.,.F.,
  (2,2),(0.,1.),.PIECEWISE_BEZIER_KNOTS.);
#276 = CARTESIAN_POINT('',(49.,-11.,15.4));
#277 = CARTESIAN_POINT('',(47.,-13.,16.6));
#278 = ORIENTED_EDGE('',*,*,#74,.F.);
#279 = ORIENTED_EDGE('',*,*,#280,.T.);
#280 = EDGE_CURVE('',#75,#281,#283,.T.);
#281 = VERTEX_POINT('',#282);
#282 = CARTESIAN_POINT('',(47.6,-64.,16.24));
#283 = B_SPLINE_CURVE_WITH_KNOTS('',6,(#284,#285,#286,#287,#288,#289,
    #290,#291,#292,#293,#294,#295),.UNSPECIFIED.,.F.,.F.,(7,5,7),(0.,
    0.633031186005,1.),.UNSPECIFIED.);
#284 = CARTESIAN_POINT('',(47.,-62.53030615433,16.6));
#285 = CARTESIAN_POINT('',(47.123907225858,-62.65676843716,
    16.525655664485));
#286 = CARTESIAN_POINT('',(47.235157216821,-62.79590734058,
    16.458905669907));
#287 = CARTESIAN_POINT('',(47.331357216608,-62.94537849616,
    16.401185670035));
#288 = CARTESIAN_POINT('',(47.411250614848,-63.10244977601,
    16.353249631091));
#289 = CARTESIAN_POINT('',(47.474281784612,-63.26432762754,
    16.315430929233));
#290 = CARTESIAN_POINT('',(47.547534113403,-63.52318724125,
    16.271479531958));
#291 = CARTESIAN_POINT('',(47.568832212048,-63.61890505825,
    16.258700672771));
#292 = CARTESIAN_POINT('',(47.584590748038,-63.7148587095,
    16.249245551177));
#293 = CARTESIAN_POINT('',(47.594925577819,-63.8106085091,
    16.243044653309));
#294 = CARTESIAN_POINT('',(47.6,-63.9057666181,16.24));
#295 = CARTESIAN_POINT('',(47.6,-64.,16.24));
#296 = ORIENTED_EDGE('',*,*,#297,.T.);
#297 = EDGE_CURVE('',#281,#260,#298,.T.);
#298 = B_SPLINE_CURVE_WITH_KNOTS('',6,(#299,#300,#301,#302,#303,#304,
    #305),.UNSPECIFIED.,.F.,.F.,(7,7),(0.,1.),.PIECEWISE_BEZIER_KNOTS.);
#299 = CARTESIAN_POINT('',(47.6,-64.,16.24));
#300 = CARTESIAN_POINT('',(47.6,-64.15070094355,16.24));
#301 = CARTESIAN_POINT('',(47.587022258141,-64.29900397239,
    16.247786645116));
#302 = CARTESIAN_POINT('',(47.561842148818,-64.44361081294,
    16.262894710709));
#303 = CARTESIAN_POINT('',(47.525353968216,-64.58350751812,
    16.284787619071));
#304 = CARTESIAN_POINT('',(47.478447163019,-64.7179343316,
    16.312931702188));
#305 = CARTESIAN_POINT('',(47.421905860757,-64.84633200482,
    16.346856483546));
#306 = B_SPLINE_SURFACE_WITH_KNOTS('',1,1,(
    (#307,#308)
    ,(#309,#310
    )),.UNSPECIFIED.,.F.,.F.,.F.,(2,2),(2,2),(0.,54.5),(0.,1.),
  .PIECEWISE_BEZIER_KNOTS.);
#307 = CARTESIAN_POINT('',(49.,-65.5,15.4));
#308 = CARTESIAN_POINT('',(47.,-64.67157287525,16.6));
#309 = CARTESIAN_POINT('',(49.,-11.,15.4));
#310 = CARTESIAN_POINT('',(47.,-13.,16.6));
#311 = ADVANCED_FACE('',(#312),#343,.T.);
#312 = FACE_BOUND('',#313,.F.);
#313 = EDGE_LOOP('',(#314,#315,#316,#341,#342));
#314 = ORIENTED_EDGE('',*,*,#280,.T.);
#315 = ORIENTED_EDGE('',*,*,#297,.T.);
#316 = ORIENTED_EDGE('',*,*,#317,.T.);
#317 = EDGE_CURVE('',#260,#142,#318,.T.);
#318 = B_SPLINE_CURVE_WITH_KNOTS('',6,(#319,#320,#321,#322,#323,#324,
    #325,#326,#327,#328,#329,#330,#331,#332,#333,#334,#335,#336,#337,
    #338,#339,#340),.UNSPECIFIED.,.F.,.F.,(7,5,5,5,7),(0.,0.144832518224
    ,0.425123629364,0.77991098892,1.),.UNSPECIFIED.);
#319 = CARTESIAN_POINT('',(47.421905860757,-64.84633200482,
    16.346856483546));
#320 = CARTESIAN_POINT('',(47.400471323238,-64.89500694922,
    16.335299357688));
#321 = CARTESIAN_POINT('',(47.377311986491,-64.94358790571,
    16.324513877863));
#322 = CARTESIAN_POINT('',(47.352398115362,-64.99197025517,
    16.314557045759));
#323 = CARTESIAN_POINT('',(47.325710601753,-65.0400406283,
    16.305485066781));
#324 = CARTESIAN_POINT('',(47.297243853195,-65.08767887392,
    16.297351289433));
#325 = CARTESIAN_POINT('',(47.208495234311,-65.22587512356,
    16.276372436419));
#326 = CARTESIAN_POINT('',(47.1433484448,-65.31491944216,16.266233573497
    ));
#327 = CARTESIAN_POINT('',(47.071660331671,-65.40095911995,
    16.26014472028));
#328 = CARTESIAN_POINT('',(46.993737738274,-65.4830426878,
    16.258379368328));
#329 = CARTESIAN_POINT('',(46.910138797979,-65.56027986191,
    16.261078437137));
#330 = CARTESIAN_POINT('',(46.709652871476,-65.72264679464,
    16.27725095653));
#331 = CARTESIAN_POINT('',(46.589775724419,-65.80445754897,
    16.29340115919));
#332 = CARTESIAN_POINT('',(46.463635319439,-65.87585731499,
    16.316625645399));
#333 = CARTESIAN_POINT('',(46.333162287657,-65.93599389538,
    16.346466874444));
#334 = CARTESIAN_POINT('',(46.200274234512,-65.98465434848,
    16.382201618736));
#335 = CARTESIAN_POINT('',(45.983876021719,-66.04530359166,
    16.44828031028));
#336 = CARTESIAN_POINT('',(45.900754941246,-66.06420636146,
    16.475525832055));
#337 = CARTESIAN_POINT('',(45.817756638011,-66.07885470078,
    16.504524265843));
#338 = CARTESIAN_POINT('',(45.735237264444,-66.089374662,16.53507102947)
  );
#339 = CARTESIAN_POINT('',(45.653508958287,-66.09593676014,
    16.566961350712));
#340 = CARTESIAN_POINT('',(45.572836383643,-66.09873649161,16.6));
#341 = ORIENTED_EDGE('',*,*,#149,.T.);
#342 = ORIENTED_EDGE('',*,*,#158,.T.);
#343 = CYLINDRICAL_SURFACE('',#344,2.1);
#344 = AXIS2_PLACEMENT_3D('',#345,#346,#347);
#345 = CARTESIAN_POINT('',(45.5,-64.,6.3));
#346 = DIRECTION('',(-0.,-0.,-1.));
#347 = DIRECTION('',(1.,0.,0.));
#348 = ADVANCED_FACE('',(#349),#366,.T.);
#349 = FACE_BOUND('',#350,.T.);
#350 = EDGE_LOOP('',(#351,#359,#364,#365));
#351 = ORIENTED_EDGE('',*,*,#352,.T.);
#352 = EDGE_CURVE('',#267,#353,#355,.T.);
#353 = VERTEX_POINT('',#354);
#354 = CARTESIAN_POINT('',(28.,-11.,15.4));
#355 = LINE('',#356,#357);
#356 = CARTESIAN_POINT('',(49.,-11.,15.4));
#357 = VECTOR('',#358,1.);
#358 = DIRECTION('',(-1.,0.,0.));
#359 = ORIENTED_EDGE('',*,*,#360,.T.);
#360 = EDGE_CURVE('',#353,#85,#361,.T.);
#361 = B_SPLINE_CURVE_WITH_KNOTS('',1,(#362,#363),.UNSPECIFIED.,.F.,.F.,
  (2,2),(0.,1.),.PIECEWISE_BEZIER_KNOTS.);
#362 = CARTESIAN_POINT('',(28.,-11.,15.4));
#363 = CARTESIAN_POINT('',(28.828427124746,-13.,16.6));
#364 = ORIENTED_EDGE('',*,*,#84,.F.);
#365 = ORIENTED_EDGE('',*,*,#274,.F.);
#366 = B_SPLINE_SURFACE_WITH_KNOTS('',1,1,(
    (#367,#368)
    ,(#369,#370
  )),.UNSPECIFIED.,.F.,.F.,.F.,(2,2),(2,2),(0.,21.),(0.,1.),
  .PIECEWISE_BEZIER_KNOTS.);
#367 = CARTESIAN_POINT('',(49.,-11.,15.4));
#368 = CARTESIAN_POINT('',(47.,-13.,16.6));
#369 = CARTESIAN_POINT('',(28.,-11.,15.4));
#370 = CARTESIAN_POINT('',(28.828427124746,-13.,16.6));
#371 = ADVANCED_FACE('',(#372),#389,.T.);
#372 = FACE_BOUND('',#373,.T.);
#373 = EDGE_LOOP('',(#374,#382,#387,#388));
#374 = ORIENTED_EDGE('',*,*,#375,.T.);
#375 = EDGE_CURVE('',#353,#376,#378,.T.);
#376 = VERTEX_POINT('',#377);
#377 = CARTESIAN_POINT('',(25.,-14.,15.4));
#378 = LINE('',#379,#380);
#379 = CARTESIAN_POINT('',(28.,-11.,15.4));
#380 = VECTOR('',#381,1.);
#381 = DIRECTION('',(-0.707106781187,-0.707106781187,0.));
#382 = ORIENTED_EDGE('',*,*,#383,.T.);
#383 = EDGE_CURVE('',#376,#93,#384,.T.);
#384 = B_SPLINE_CURVE_WITH_KNOTS('',1,(#385,#386),.UNSPECIFIED.,.F.,.F.,
  (2,2),(0.,1.),.PIECEWISE_BEZIER_KNOTS.);
#385 = CARTESIAN_POINT('',(25.,-14.,15.4));
#386 = CARTESIAN_POINT('',(27.,-14.82842712474,16.6));
#387 = ORIENTED_EDGE('',*,*,#92,.F.);
#388 = ORIENTED_EDGE('',*,*,#360,.F.);
#389 = B_SPLINE_SURFACE_WITH_KNOTS('',1,1,(
    (#390,#391)
    ,(#392,#393
    )),.UNSPECIFIED.,.F.,.F.,.F.,(2,2),(2,2),(0.,4.242640687119),(0.,1.)
  ,.PIECEWISE_BEZIER_KNOTS.);
#390 = CARTESIAN_POINT('',(28.,-11.,15.4));
#391 = CARTESIAN_POINT('',(28.828427124746,-13.,16.6));
#392 = CARTESIAN_POINT('',(25.,-14.,15.4));
#393 = CARTESIAN_POINT('',(27.,-14.82842712474,16.6));
#394 = ADVANCED_FACE('',(#395),#413,.T.);
#395 = FACE_BOUND('',#396,.T.);
#396 = EDGE_LOOP('',(#397,#404,#410,#411,#412));
#397 = ORIENTED_EDGE('',*,*,#398,.F.);
#398 = EDGE_CURVE('',#399,#134,#401,.T.);
#399 = VERTEX_POINT('',#400);
#400 = CARTESIAN_POINT('',(46.,-68.5,15.4));
#401 = B_SPLINE_CURVE_WITH_KNOTS('',1,(#402,#403),.UNSPECIFIED.,.F.,.F.,
  (2,2),(0.,1.),.PIECEWISE_BEZIER_KNOTS.);
#402 = CARTESIAN_POINT('',(46.,-68.5,15.4));
#403 = CARTESIAN_POINT('',(45.171572875254,-66.5,16.6));
#404 = ORIENTED_EDGE('',*,*,#405,.T.);
#405 = EDGE_CURVE('',#399,#258,#406,.T.);
#406 = LINE('',#407,#408);
#407 = CARTESIAN_POINT('',(46.,-68.5,15.4));
#408 = VECTOR('',#409,1.);
#409 = DIRECTION('',(0.707106781187,0.707106781187,0.));
#410 = ORIENTED_EDGE('',*,*,#257,.T.);
#411 = ORIENTED_EDGE('',*,*,#317,.T.);
#412 = ORIENTED_EDGE('',*,*,#141,.F.);
#413 = B_SPLINE_SURFACE_WITH_KNOTS('',1,1,(
    (#414,#415)
    ,(#416,#417
    )),.UNSPECIFIED.,.F.,.F.,.F.,(2,2),(2,2),(0.,4.242640687119),(0.,1.)
  ,.PIECEWISE_BEZIER_KNOTS.);
#414 = CARTESIAN_POINT('',(46.,-68.5,15.4));
#415 = CARTESIAN_POINT('',(45.171572875254,-66.5,16.6));
#416 = CARTESIAN_POINT('',(49.,-65.5,15.4));
#417 = CARTESIAN_POINT('',(47.,-64.67157287525,16.6));
#418 = ADVANCED_FACE('',(#419),#436,.T.);
#419 = FACE_BOUND('',#420,.T.);
#420 = EDGE_LOOP('',(#421,#429,#434,#435));
#421 = ORIENTED_EDGE('',*,*,#422,.T.);
#422 = EDGE_CURVE('',#376,#423,#425,.T.);
#423 = VERTEX_POINT('',#424);
#424 = CARTESIAN_POINT('',(25.,-62.,15.4));
#425 = LINE('',#426,#427);
#426 = CARTESIAN_POINT('',(25.,-14.,15.4));
#427 = VECTOR('',#428,1.);
#428 = DIRECTION('',(0.,-1.,0.));
#429 = ORIENTED_EDGE('',*,*,#430,.T.);
#430 = EDGE_CURVE('',#423,#101,#431,.T.);
#431 = B_SPLINE_CURVE_WITH_KNOTS('',1,(#432,#433),.UNSPECIFIED.,.F.,.F.,
  (2,2),(0.,1.),.PIECEWISE_BEZIER_KNOTS.);
#432 = CARTESIAN_POINT('',(25.,-62.,15.4));
#433 = CARTESIAN_POINT('',(27.,-61.17157287525,16.6));
#434 = ORIENTED_EDGE('',*,*,#100,.F.);
#435 = ORIENTED_EDGE('',*,*,#383,.F.);
#436 = B_SPLINE_SURFACE_WITH_KNOTS('',1,1,(
    (#437,#438)
    ,(#439,#440
  )),.UNSPECIFIED.,.F.,.F.,.F.,(2,2),(2,2),(0.,48.),(0.,1.),
  .PIECEWISE_BEZIER_KNOTS.);
#437 = CARTESIAN_POINT('',(25.,-14.,15.4));
#438 = CARTESIAN_POINT('',(27.,-14.82842712474,16.6));
#439 = CARTESIAN_POINT('',(25.,-62.,15.4));
#440 = CARTESIAN_POINT('',(27.,-61.17157287525,16.6));
#441 = ADVANCED_FACE('',(#442),#459,.T.);
#442 = FACE_BOUND('',#443,.T.);
#443 = EDGE_LOOP('',(#444,#452,#453,#454));
#444 = ORIENTED_EDGE('',*,*,#445,.T.);
#445 = EDGE_CURVE('',#446,#399,#448,.T.);
#446 = VERTEX_POINT('',#447);
#447 = CARTESIAN_POINT('',(31.5,-68.5,15.4));
#448 = LINE('',#449,#450);
#449 = CARTESIAN_POINT('',(31.5,-68.5,15.4));
#450 = VECTOR('',#451,1.);
#451 = DIRECTION('',(1.,0.,0.));
#452 = ORIENTED_EDGE('',*,*,#398,.T.);
#453 = ORIENTED_EDGE('',*,*,#133,.F.);
#454 = ORIENTED_EDGE('',*,*,#455,.F.);
#455 = EDGE_CURVE('',#446,#126,#456,.T.);
#456 = B_SPLINE_CURVE_WITH_KNOTS('',1,(#457,#458),.UNSPECIFIED.,.F.,.F.,
  (2,2),(0.,1.),.PIECEWISE_BEZIER_KNOTS.);
#457 = CARTESIAN_POINT('',(31.5,-68.5,15.4));
#458 = CARTESIAN_POINT('',(32.328427124746,-66.5,16.6));
#459 = B_SPLINE_SURFACE_WITH_KNOTS('',1,1,(
    (#460,#461)
    ,(#462,#463
    )),.UNSPECIFIED.,.F.,.F.,.F.,(2,2),(2,2),(0.,14.5),(0.,1.),
  .PIECEWISE_BEZIER_KNOTS.);
#460 = CARTESIAN_POINT('',(31.5,-68.5,15.4));
#461 = CARTESIAN_POINT('',(32.328427124746,-66.5,16.6));
#462 = CARTESIAN_POINT('',(46.,-68.5,15.4));
#463 = CARTESIAN_POINT('',(45.171572875254,-66.5,16.6));
#464 = ADVANCED_FACE('',(#465),#502,.T.);
#465 = FACE_BOUND('',#466,.T.);
#466 = EDGE_LOOP('',(#467,#468,#476,#501));
#467 = ORIENTED_EDGE('',*,*,#430,.F.);
#468 = ORIENTED_EDGE('',*,*,#469,.T.);
#469 = EDGE_CURVE('',#423,#470,#472,.T.);
#470 = VERTEX_POINT('',#471);
#471 = CARTESIAN_POINT('',(27.325357215773,-64.32535721577,15.4));
#472 = LINE('',#473,#474);
#473 = CARTESIAN_POINT('',(25.,-62.,15.4));
#474 = VECTOR('',#475,1.);
#475 = DIRECTION('',(0.707106781187,-0.707106781187,0.));
#476 = ORIENTED_EDGE('',*,*,#477,.T.);
#477 = EDGE_CURVE('',#470,#109,#478,.T.);
#478 = B_SPLINE_CURVE_WITH_KNOTS('',6,(#479,#480,#481,#482,#483,#484,
    #485,#486,#487,#488,#489,#490,#491,#492,#493,#494,#495,#496,#497,
    #498,#499,#500),.UNSPECIFIED.,.F.,.F.,(7,5,5,5,7),(0.,0.376302697066
    ,0.702009740644,0.824935625356,1.),.UNSPECIFIED.);
#479 = CARTESIAN_POINT('',(27.325357215773,-64.32535721577,15.4));
#480 = CARTESIAN_POINT('',(27.303032958633,-64.18300641873,
    15.450922948172));
#481 = CARTESIAN_POINT('',(27.292591173427,-64.03984746118,
    15.507230075697));
#482 = CARTESIAN_POINT('',(27.293879930744,-63.89699505927,
    15.568383990379));
#483 = CARTESIAN_POINT('',(27.306645042576,-63.7554356199,
    15.633858352376));
#484 = CARTESIAN_POINT('',(27.330599295781,-63.61602890308,
    15.703166542184));
#485 = CARTESIAN_POINT('',(27.395747288164,-63.36137305714,
    15.838847819825));
#486 = CARTESIAN_POINT('',(27.434183327879,-63.24542276526,
    15.904348393019));
#487 = CARTESIAN_POINT('',(27.480682116131,-63.13214493636,
    15.972135870698));
#488 = CARTESIAN_POINT('',(27.535118279409,-63.02204332536,
    16.041943336268));
#489 = CARTESIAN_POINT('',(27.597363640587,-62.91564419797,
    16.113493133155));
#490 = CARTESIAN_POINT('',(27.693705957143,-62.77495159923,
    16.214058530746));
#491 = CARTESIAN_POINT('',(27.721198803064,-62.73701028,16.241819895885)
  );
#492 = CARTESIAN_POINT('',(27.749779627361,-62.69970894266,
    16.269771329835));
#493 = CARTESIAN_POINT('',(27.779439879376,-62.66308085836,
    16.297895089109));
#494 = CARTESIAN_POINT('',(27.810169431321,-62.62716118531,
    16.326171960483));
#495 = CARTESIAN_POINT('',(27.887226108086,-62.54189375832,
    16.395040245191));
#496 = CARTESIAN_POINT('',(27.934639521884,-62.49331344622,
    16.435766933911));
#497 = CARTESIAN_POINT('',(27.984162654338,-62.44635163729,
    16.476702027712));
#498 = CARTESIAN_POINT('',(28.035748380476,-62.40112655176,
    16.517775376565));
#499 = CARTESIAN_POINT('',(28.089331173808,-62.35776436375,
    16.55890564879));
#500 = CARTESIAN_POINT('',(28.144821664445,-62.31639453969,16.6));
#501 = ORIENTED_EDGE('',*,*,#108,.F.);
#502 = B_SPLINE_SURFACE_WITH_KNOTS('',1,1,(
    (#503,#504)
    ,(#505,#506
    )),.UNSPECIFIED.,.F.,.F.,.F.,(2,2),(2,2),(0.,9.192388155425),(0.,1.)
  ,.PIECEWISE_BEZIER_KNOTS.);
#503 = CARTESIAN_POINT('',(25.,-62.,15.4));
#504 = CARTESIAN_POINT('',(27.,-61.17157287525,16.6));
#505 = CARTESIAN_POINT('',(31.5,-68.5,15.4));
#506 = CARTESIAN_POINT('',(32.328427124746,-66.5,16.6));
#507 = ADVANCED_FACE('',(#508),#545,.T.);
#508 = FACE_BOUND('',#509,.T.);
#509 = EDGE_LOOP('',(#510,#537,#543,#544));
#510 = ORIENTED_EDGE('',*,*,#511,.F.);
#511 = EDGE_CURVE('',#512,#117,#514,.T.);
#512 = VERTEX_POINT('',#513);
#513 = CARTESIAN_POINT('',(29.074642784227,-66.07464278422,15.4));
#514 = B_SPLINE_CURVE_WITH_KNOTS('',6,(#515,#516,#517,#518,#519,#520,
    #521,#522,#523,#524,#525,#526,#527,#528,#529,#530,#531,#532,#533,
    #534,#535,#536),.UNSPECIFIED.,.F.,.F.,(7,5,5,5,7),(0.,0.373084660639
    ,0.698188891483,0.822115911806,1.),.UNSPECIFIED.);
#515 = CARTESIAN_POINT('',(29.074642784227,-66.07464278422,15.4));
#516 = CARTESIAN_POINT('',(29.215754842518,-66.09677277534,
    15.450479815921));
#517 = CARTESIAN_POINT('',(29.357697021752,-66.1072318424,
    15.506263376062));
#518 = CARTESIAN_POINT('',(29.499375589819,-66.10615544931,
    15.566829176709));
#519 = CARTESIAN_POINT('',(29.6398194147,-66.09378326232,15.631663519669
    ));
#520 = CARTESIAN_POINT('',(29.778178956473,-66.07039100769,
    15.700288994936));
#521 = CARTESIAN_POINT('',(30.031813831217,-66.0064015692,
    15.835045578388));
#522 = CARTESIAN_POINT('',(30.147743717838,-65.96841031876,
    15.900348786257));
#523 = CARTESIAN_POINT('',(30.26102383461,-65.92237164136,
    15.967942026097));
#524 = CARTESIAN_POINT('',(30.37114630205,-65.86841507881,16.03755486295
    ));
#525 = CARTESIAN_POINT('',(30.477581925452,-65.80667569806,
    16.108905474468));
#526 = CARTESIAN_POINT('',(30.618731364953,-65.71082179938,
    16.209457475022));
#527 = CARTESIAN_POINT('',(30.657068191573,-65.68325596396,
    16.237417606559));
#528 = CARTESIAN_POINT('',(30.694753996177,-65.65458661646,
    16.265569713369));
#529 = CARTESIAN_POINT('',(30.731754549752,-65.6248233254,
    16.293895213738));
#530 = CARTESIAN_POINT('',(30.768033759494,-65.59397738399,
    16.322374003477));
#531 = CARTESIAN_POINT('',(30.854538729722,-65.51625039039,
    16.392051724666));
#532 = CARTESIAN_POINT('',(30.903958435588,-65.46823624402,
    16.433389407245));
#533 = CARTESIAN_POINT('',(30.951701900288,-65.41805839174,
    16.474933903602));
#534 = CARTESIAN_POINT('',(30.997645504545,-65.36576988869,
    16.516610257126));
#535 = CARTESIAN_POINT('',(31.0416579745,-65.31144365988,16.558331833575
    ));
#536 = CARTESIAN_POINT('',(31.083605460301,-65.25517833555,16.6));
#537 = ORIENTED_EDGE('',*,*,#538,.T.);
#538 = EDGE_CURVE('',#512,#446,#539,.T.);
#539 = LINE('',#540,#541);
#540 = CARTESIAN_POINT('',(25.,-62.,15.4));
#541 = VECTOR('',#542,1.);
#542 = DIRECTION('',(0.707106781187,-0.707106781187,0.));
#543 = ORIENTED_EDGE('',*,*,#455,.T.);
#544 = ORIENTED_EDGE('',*,*,#125,.F.);
#545 = B_SPLINE_SURFACE_WITH_KNOTS('',1,1,(
    (#546,#547)
    ,(#548,#549
    )),.UNSPECIFIED.,.F.,.F.,.F.,(2,2),(2,2),(0.,9.192388155425),(0.,1.)
  ,.PIECEWISE_BEZIER_KNOTS.);
#546 = CARTESIAN_POINT('',(25.,-62.,15.4));
#547 = CARTESIAN_POINT('',(27.,-61.17157287525,16.6));
#548 = CARTESIAN_POINT('',(31.5,-68.5,15.4));
#549 = CARTESIAN_POINT('',(32.328427124746,-66.5,16.6));
#550 = ADVANCED_FACE('',(#551),#579,.T.);
#551 = FACE_BOUND('',#552,.F.);
#552 = EDGE_LOOP('',(#553,#564,#570,#571,#572,#573));
#553 = ORIENTED_EDGE('',*,*,#554,.F.);
#554 = EDGE_CURVE('',#555,#557,#559,.T.);
#555 = VERTEX_POINT('',#556);
#556 = CARTESIAN_POINT('',(27.325357215773,-64.32535721577,6.3));
#557 = VERTEX_POINT('',#558);
#558 = CARTESIAN_POINT('',(29.074642784227,-66.07464278422,6.3));
#559 = CIRCLE('',#560,2.1);
#560 = AXIS2_PLACEMENT_3D('',#561,#562,#563);
#561 = CARTESIAN_POINT('',(29.4,-64.,6.3));
#562 = DIRECTION('',(0.,0.,1.));
#563 = DIRECTION('',(1.,0.,0.));
#564 = ORIENTED_EDGE('',*,*,#565,.F.);
#565 = EDGE_CURVE('',#470,#555,#566,.T.);
#566 = LINE('',#567,#568);
#567 = CARTESIAN_POINT('',(27.325357215773,-64.32535721577,6.3));
#568 = VECTOR('',#569,1.);
#569 = DIRECTION('',(-0.,-0.,-1.));
#570 = ORIENTED_EDGE('',*,*,#477,.T.);
#571 = ORIENTED_EDGE('',*,*,#116,.T.);
#572 = ORIENTED_EDGE('',*,*,#511,.F.);
#573 = ORIENTED_EDGE('',*,*,#574,.T.);
#574 = EDGE_CURVE('',#512,#557,#575,.T.);
#575 = LINE('',#576,#577);
#576 = CARTESIAN_POINT('',(29.074642784227,-66.07464278422,6.3));
#577 = VECTOR('',#578,1.);
#578 = DIRECTION('',(-0.,-0.,-1.));
#579 = CYLINDRICAL_SURFACE('',#580,2.1);
#580 = AXIS2_PLACEMENT_3D('',#581,#582,#583);
#581 = CARTESIAN_POINT('',(29.4,-64.,6.3));
#582 = DIRECTION('',(-0.,-0.,-1.));
#583 = DIRECTION('',(1.,0.,0.));
#584 = ADVANCED_FACE('',(#585),#604,.F.);
#585 = FACE_BOUND('',#586,.T.);
#586 = EDGE_LOOP('',(#587,#596,#602,#603));
#587 = ORIENTED_EDGE('',*,*,#588,.T.);
#588 = EDGE_CURVE('',#589,#589,#591,.T.);
#589 = VERTEX_POINT('',#590);
#590 = CARTESIAN_POINT('',(38.4,-59.5,15.4));
#591 = CIRCLE('',#592,1.4);
#592 = AXIS2_PLACEMENT_3D('',#593,#594,#595);
#593 = CARTESIAN_POINT('',(37.,-59.5,15.4));
#594 = DIRECTION('',(0.,0.,-1.));
#595 = DIRECTION('',(1.,0.,0.));
#596 = ORIENTED_EDGE('',*,*,#597,.T.);
#597 = EDGE_CURVE('',#589,#171,#598,.T.);
#598 = LINE('',#599,#600);
#599 = CARTESIAN_POINT('',(38.4,-59.5,7.8));
#600 = VECTOR('',#601,1.);
#601 = DIRECTION('',(0.,0.,1.));
#602 = ORIENTED_EDGE('',*,*,#170,.F.);
#603 = ORIENTED_EDGE('',*,*,#597,.F.);
#604 = CYLINDRICAL_SURFACE('',#605,1.4);
#605 = AXIS2_PLACEMENT_3D('',#606,#607,#608);
#606 = CARTESIAN_POINT('',(37.,-59.5,7.8));
#607 = DIRECTION('',(-0.,-0.,-1.));
#608 = DIRECTION('',(1.,0.,0.));
#609 = ADVANCED_FACE('',(#610),#629,.F.);
#610 = FACE_BOUND('',#611,.T.);
#611 = EDGE_LOOP('',(#612,#621,#627,#628));
#612 = ORIENTED_EDGE('',*,*,#613,.F.);
#613 = EDGE_CURVE('',#614,#614,#616,.T.);
#614 = VERTEX_POINT('',#615);
#615 = CARTESIAN_POINT('',(47.35,-64.,14.9));
#616 = CIRCLE('',#617,1.85);
#617 = AXIS2_PLACEMENT_3D('',#618,#619,#620);
#618 = CARTESIAN_POINT('',(45.5,-64.,14.9));
#619 = DIRECTION('',(0.,0.,1.));
#620 = DIRECTION('',(1.,0.,0.));
#621 = ORIENTED_EDGE('',*,*,#622,.T.);
#622 = EDGE_CURVE('',#614,#182,#623,.T.);
#623 = LINE('',#624,#625);
#624 = CARTESIAN_POINT('',(47.35,-64.,14.9));
#625 = VECTOR('',#626,1.);
#626 = DIRECTION('',(0.,0.,1.));
#627 = ORIENTED_EDGE('',*,*,#181,.F.);
#628 = ORIENTED_EDGE('',*,*,#622,.F.);
#629 = CYLINDRICAL_SURFACE('',#630,1.85);
#630 = AXIS2_PLACEMENT_3D('',#631,#632,#633);
#631 = CARTESIAN_POINT('',(45.5,-64.,14.9));
#632 = DIRECTION('',(-0.,-0.,-1.));
#633 = DIRECTION('',(1.,0.,0.));
#634 = ADVANCED_FACE('',(#635),#660,.F.);
#635 = FACE_BOUND('',#636,.F.);
#636 = EDGE_LOOP('',(#637,#645,#653,#659));
#637 = ORIENTED_EDGE('',*,*,#638,.F.);
#638 = EDGE_CURVE('',#639,#195,#641,.T.);
#639 = VERTEX_POINT('',#640);
#640 = CARTESIAN_POINT('',(44.45,-18.25,15.4));
#641 = LINE('',#642,#643);
#642 = CARTESIAN_POINT('',(44.45,-18.25,15.1));
#643 = VECTOR('',#644,1.);
#644 = DIRECTION('',(0.,0.,1.));
#645 = ORIENTED_EDGE('',*,*,#646,.T.);
#646 = EDGE_CURVE('',#639,#647,#649,.T.);
#647 = VERTEX_POINT('',#648);
#648 = CARTESIAN_POINT('',(29.95,-18.25,15.4));
#649 = LINE('',#650,#651);
#650 = CARTESIAN_POINT('',(33.623103162987,-18.25,15.4));
#651 = VECTOR('',#652,1.);
#652 = DIRECTION('',(-1.,0.,0.));
#653 = ORIENTED_EDGE('',*,*,#654,.T.);
#654 = EDGE_CURVE('',#647,#193,#655,.T.);
#655 = LINE('',#656,#657);
#656 = CARTESIAN_POINT('',(29.95,-18.25,15.1));
#657 = VECTOR('',#658,1.);
#658 = DIRECTION('',(0.,0.,1.));
#659 = ORIENTED_EDGE('',*,*,#192,.T.);
#660 = PLANE('',#661);
#661 = AXIS2_PLACEMENT_3D('',#662,#663,#664);
#662 = CARTESIAN_POINT('',(29.95,-18.25,15.1));
#663 = DIRECTION('',(0.,1.,0.));
#664 = DIRECTION('',(0.,0.,1.));
#665 = ADVANCED_FACE('',(#666),#684,.T.);
#666 = FACE_BOUND('',#667,.T.);
#667 = EDGE_LOOP('',(#668,#676,#682,#683));
#668 = ORIENTED_EDGE('',*,*,#669,.F.);
#669 = EDGE_CURVE('',#670,#211,#672,.T.);
#670 = VERTEX_POINT('',#671);
#671 = CARTESIAN_POINT('',(29.95,-49.35,15.4));
#672 = LINE('',#673,#674);
#673 = CARTESIAN_POINT('',(29.95,-49.35,15.1));
#674 = VECTOR('',#675,1.);
#675 = DIRECTION('',(0.,0.,1.));
#676 = ORIENTED_EDGE('',*,*,#677,.T.);
#677 = EDGE_CURVE('',#670,#647,#678,.T.);
#678 = LINE('',#679,#680);
#679 = CARTESIAN_POINT('',(29.95,-44.20883759906,15.4));
#680 = VECTOR('',#681,1.);
#681 = DIRECTION('',(0.,1.,0.));
#682 = ORIENTED_EDGE('',*,*,#654,.T.);
#683 = ORIENTED_EDGE('',*,*,#218,.T.);
#684 = PLANE('',#685);
#685 = AXIS2_PLACEMENT_3D('',#686,#687,#688);
#686 = CARTESIAN_POINT('',(29.95,-49.35,15.1));
#687 = DIRECTION('',(1.,0.,0.));
#688 = DIRECTION('',(0.,0.,1.));
#689 = ADVANCED_FACE('',(#690),#708,.F.);
#690 = FACE_BOUND('',#691,.F.);
#691 = EDGE_LOOP('',(#692,#700,#706,#707));
#692 = ORIENTED_EDGE('',*,*,#693,.F.);
#693 = EDGE_CURVE('',#694,#203,#696,.T.);
#694 = VERTEX_POINT('',#695);
#695 = CARTESIAN_POINT('',(44.45,-49.35,15.4));
#696 = LINE('',#697,#698);
#697 = CARTESIAN_POINT('',(44.45,-49.35,15.1));
#698 = VECTOR('',#699,1.);
#699 = DIRECTION('',(0.,0.,1.));
#700 = ORIENTED_EDGE('',*,*,#701,.T.);
#701 = EDGE_CURVE('',#694,#639,#702,.T.);
#702 = LINE('',#703,#704);
#703 = CARTESIAN_POINT('',(44.45,-44.20883759906,15.4));
#704 = VECTOR('',#705,1.);
#705 = DIRECTION('',(0.,1.,0.));
#706 = ORIENTED_EDGE('',*,*,#638,.T.);
#707 = ORIENTED_EDGE('',*,*,#202,.T.);
#708 = PLANE('',#709);
#709 = AXIS2_PLACEMENT_3D('',#710,#711,#712);
#710 = CARTESIAN_POINT('',(44.45,-49.35,15.1));
#711 = DIRECTION('',(1.,0.,0.));
#712 = DIRECTION('',(0.,0.,1.));
#713 = ADVANCED_FACE('',(#714),#725,.T.);
#714 = FACE_BOUND('',#715,.T.);
#715 = EDGE_LOOP('',(#716,#717,#723,#724));
#716 = ORIENTED_EDGE('',*,*,#693,.F.);
#717 = ORIENTED_EDGE('',*,*,#718,.T.);
#718 = EDGE_CURVE('',#694,#670,#719,.T.);
#719 = LINE('',#720,#721);
#720 = CARTESIAN_POINT('',(33.623103162987,-49.35,15.4));
#721 = VECTOR('',#722,1.);
#722 = DIRECTION('',(-1.,0.,0.));
#723 = ORIENTED_EDGE('',*,*,#669,.T.);
#724 = ORIENTED_EDGE('',*,*,#210,.T.);
#725 = PLANE('',#726);
#726 = AXIS2_PLACEMENT_3D('',#727,#728,#729);
#727 = CARTESIAN_POINT('',(29.95,-49.35,15.1));
#728 = DIRECTION('',(0.,1.,0.));
#729 = DIRECTION('',(0.,0.,1.));
#730 = ADVANCED_FACE('',(#731,#870),#873,.T.);
#731 = FACE_BOUND('',#732,.T.);
#732 = EDGE_LOOP('',(#733,#744,#752,#760,#768,#776,#784,#792,#800,#808,
    #816,#824,#830,#831,#839,#847,#855,#863));
#733 = ORIENTED_EDGE('',*,*,#734,.F.);
#734 = EDGE_CURVE('',#735,#737,#739,.T.);
#735 = VERTEX_POINT('',#736);
#736 = CARTESIAN_POINT('',(30.491257332324,-65.79420105747,6.3));
#737 = VERTEX_POINT('',#738);
#738 = CARTESIAN_POINT('',(31.5,-64.,6.3));
#739 = CIRCLE('',#740,2.1);
#740 = AXIS2_PLACEMENT_3D('',#741,#742,#743);
#741 = CARTESIAN_POINT('',(29.4,-64.,6.3));
#742 = DIRECTION('',(0.,0.,1.));
#743 = DIRECTION('',(1.,0.,0.));
#744 = ORIENTED_EDGE('',*,*,#745,.T.);
#745 = EDGE_CURVE('',#735,#746,#748,.T.);
#746 = VERTEX_POINT('',#747);
#747 = CARTESIAN_POINT('',(31.997056274848,-67.3,6.3));
#748 = LINE('',#749,#750);
#749 = CARTESIAN_POINT('',(19.274264068712,-54.57720779386,6.3));
#750 = VECTOR('',#751,1.);
#751 = DIRECTION('',(0.707106781187,-0.707106781187,0.));
#752 = ORIENTED_EDGE('',*,*,#753,.T.);
#753 = EDGE_CURVE('',#746,#754,#756,.T.);
#754 = VERTEX_POINT('',#755);
#755 = CARTESIAN_POINT('',(45.502943725152,-67.3,6.3));
#756 = LINE('',#757,#758);
#757 = CARTESIAN_POINT('',(40.498528137424,-67.3,6.3));
#758 = VECTOR('',#759,1.);
#759 = DIRECTION('',(1.,0.,0.));
#760 = ORIENTED_EDGE('',*,*,#761,.T.);
#761 = EDGE_CURVE('',#754,#762,#764,.T.);
#762 = VERTEX_POINT('',#763);
#763 = CARTESIAN_POINT('',(47.8,-65.00294372515,6.3));
#764 = LINE('',#765,#766);
#765 = CARTESIAN_POINT('',(60.452207793864,-52.35073593128,6.3));
#766 = VECTOR('',#767,1.);
#767 = DIRECTION('',(0.707106781187,0.707106781187,0.));
#768 = ORIENTED_EDGE('',*,*,#769,.T.);
#769 = EDGE_CURVE('',#762,#770,#772,.T.);
#770 = VERTEX_POINT('',#771);
#771 = CARTESIAN_POINT('',(47.8,-12.2,6.3));
#772 = LINE('',#773,#774);
#773 = CARTESIAN_POINT('',(47.8,-38.00147186257,6.3));
#774 = VECTOR('',#775,1.);
#775 = DIRECTION('',(0.,1.,0.));
#776 = ORIENTED_EDGE('',*,*,#777,.T.);
#777 = EDGE_CURVE('',#770,#778,#780,.T.);
#778 = VERTEX_POINT('',#779);
#779 = CARTESIAN_POINT('',(43.7,-12.2,6.3));
#780 = LINE('',#781,#782);
#781 = CARTESIAN_POINT('',(48.4,-12.2,6.3));
#782 = VECTOR('',#783,1.);
#783 = DIRECTION('',(-1.,-0.,-0.));
#784 = ORIENTED_EDGE('',*,*,#785,.F.);
#785 = EDGE_CURVE('',#786,#778,#788,.T.);
#786 = VERTEX_POINT('',#787);
#787 = CARTESIAN_POINT('',(43.7,-11.,6.3));
#788 = LINE('',#789,#790);
#789 = CARTESIAN_POINT('',(43.7,-15.5,6.3));
#790 = VECTOR('',#791,1.);
#791 = DIRECTION('',(0.,-1.,0.));
#792 = ORIENTED_EDGE('',*,*,#793,.F.);
#793 = EDGE_CURVE('',#794,#786,#796,.T.);
#794 = VERTEX_POINT('',#795);
#795 = CARTESIAN_POINT('',(49.,-11.,6.3));
#796 = LINE('',#797,#798);
#797 = CARTESIAN_POINT('',(49.,-11.,6.3));
#798 = VECTOR('',#799,1.);
#799 = DIRECTION('',(-1.,0.,0.));
#800 = ORIENTED_EDGE('',*,*,#801,.F.);
#801 = EDGE_CURVE('',#802,#794,#804,.T.);
#802 = VERTEX_POINT('',#803);
#803 = CARTESIAN_POINT('',(49.,-65.5,6.3));
#804 = LINE('',#805,#806);
#805 = CARTESIAN_POINT('',(49.,-65.5,6.3));
#806 = VECTOR('',#807,1.);
#807 = DIRECTION('',(0.,1.,0.));
#808 = ORIENTED_EDGE('',*,*,#809,.F.);
#809 = EDGE_CURVE('',#810,#802,#812,.T.);
#810 = VERTEX_POINT('',#811);
#811 = CARTESIAN_POINT('',(46.,-68.5,6.3));
#812 = LINE('',#813,#814);
#813 = CARTESIAN_POINT('',(46.,-68.5,6.3));
#814 = VECTOR('',#815,1.);
#815 = DIRECTION('',(0.707106781187,0.707106781187,0.));
#816 = ORIENTED_EDGE('',*,*,#817,.F.);
#817 = EDGE_CURVE('',#818,#810,#820,.T.);
#818 = VERTEX_POINT('',#819);
#819 = CARTESIAN_POINT('',(31.5,-68.5,6.3));
#820 = LINE('',#821,#822);
#821 = CARTESIAN_POINT('',(31.5,-68.5,6.3));
#822 = VECTOR('',#823,1.);
#823 = DIRECTION('',(1.,0.,0.));
#824 = ORIENTED_EDGE('',*,*,#825,.F.);
#825 = EDGE_CURVE('',#557,#818,#826,.T.);
#826 = LINE('',#827,#828);
#827 = CARTESIAN_POINT('',(25.,-62.,6.3));
#828 = VECTOR('',#829,1.);
#829 = DIRECTION('',(0.707106781187,-0.707106781187,0.));
#830 = ORIENTED_EDGE('',*,*,#554,.F.);
#831 = ORIENTED_EDGE('',*,*,#832,.F.);
#832 = EDGE_CURVE('',#833,#555,#835,.T.);
#833 = VERTEX_POINT('',#834);
#834 = CARTESIAN_POINT('',(25.,-62.,6.3));
#835 = LINE('',#836,#837);
#836 = CARTESIAN_POINT('',(25.,-62.,6.3));
#837 = VECTOR('',#838,1.);
#838 = DIRECTION('',(0.707106781187,-0.707106781187,0.));
#839 = ORIENTED_EDGE('',*,*,#840,.F.);
#840 = EDGE_CURVE('',#841,#833,#843,.T.);
#841 = VERTEX_POINT('',#842);
#842 = CARTESIAN_POINT('',(25.,-61.9,6.3));
#843 = LINE('',#844,#845);
#844 = CARTESIAN_POINT('',(25.,-14.,6.3));
#845 = VECTOR('',#846,1.);
#846 = DIRECTION('',(0.,-1.,0.));
#847 = ORIENTED_EDGE('',*,*,#848,.T.);
#848 = EDGE_CURVE('',#841,#849,#851,.T.);
#849 = VERTEX_POINT('',#850);
#850 = CARTESIAN_POINT('',(26.597056274848,-61.9,6.3));
#851 = LINE('',#852,#853);
#852 = CARTESIAN_POINT('',(34.5,-61.9,6.3));
#853 = VECTOR('',#854,1.);
#854 = DIRECTION('',(1.,0.,0.));
#855 = ORIENTED_EDGE('',*,*,#856,.T.);
#856 = EDGE_CURVE('',#849,#857,#859,.T.);
#857 = VERTEX_POINT('',#858);
#858 = CARTESIAN_POINT('',(27.605798942524,-62.90874266767,6.3));
#859 = LINE('',#860,#861);
#860 = CARTESIAN_POINT('',(19.274264068712,-54.57720779386,6.3));
#861 = VECTOR('',#862,1.);
#862 = DIRECTION('',(0.707106781187,-0.707106781187,0.));
#863 = ORIENTED_EDGE('',*,*,#864,.F.);
#864 = EDGE_CURVE('',#737,#857,#865,.T.);
#865 = CIRCLE('',#866,2.1);
#866 = AXIS2_PLACEMENT_3D('',#867,#868,#869);
#867 = CARTESIAN_POINT('',(29.4,-64.,6.3));
#868 = DIRECTION('',(0.,0.,1.));
#869 = DIRECTION('',(1.,0.,0.));
#870 = FACE_BOUND('',#871,.T.);
#871 = EDGE_LOOP('',(#872));
#872 = ORIENTED_EDGE('',*,*,#240,.F.);
#873 = PLANE('',#874);
#874 = AXIS2_PLACEMENT_3D('',#875,#876,#877);
#875 = CARTESIAN_POINT('',(44.207605117058,-45.9589994972,6.3));
#876 = DIRECTION('',(-0.,-0.,-1.));
#877 = DIRECTION('',(-1.,0.,0.));
#878 = ADVANCED_FACE('',(#879),#893,.T.);
#879 = FACE_BOUND('',#880,.T.);
#880 = EDGE_LOOP('',(#881,#882,#887,#888));
#881 = ORIENTED_EDGE('',*,*,#801,.T.);
#882 = ORIENTED_EDGE('',*,*,#883,.T.);
#883 = EDGE_CURVE('',#794,#267,#884,.T.);
#884 = B_SPLINE_CURVE_WITH_KNOTS('',1,(#885,#886),.UNSPECIFIED.,.F.,.F.,
  (2,2),(0.,1.),.PIECEWISE_BEZIER_KNOTS.);
#885 = CARTESIAN_POINT('',(49.,-11.,6.3));
#886 = CARTESIAN_POINT('',(49.,-11.,15.4));
#887 = ORIENTED_EDGE('',*,*,#266,.F.);
#888 = ORIENTED_EDGE('',*,*,#889,.F.);
#889 = EDGE_CURVE('',#802,#258,#890,.T.);
#890 = B_SPLINE_CURVE_WITH_KNOTS('',1,(#891,#892),.UNSPECIFIED.,.F.,.F.,
  (2,2),(0.,1.),.PIECEWISE_BEZIER_KNOTS.);
#891 = CARTESIAN_POINT('',(49.,-65.5,6.3));
#892 = CARTESIAN_POINT('',(49.,-65.5,15.4));
#893 = PLANE('',#894);
#894 = AXIS2_PLACEMENT_3D('',#895,#896,#897);
#895 = CARTESIAN_POINT('',(49.,-65.5,15.4));
#896 = DIRECTION('',(1.,0.,0.));
#897 = DIRECTION('',(0.,1.,0.));
#898 = ADVANCED_FACE('',(#899),#941,.T.);
#899 = FACE_BOUND('',#900,.T.);
#900 = EDGE_LOOP('',(#901,#902,#903,#911,#919,#927,#935,#940));
#901 = ORIENTED_EDGE('',*,*,#883,.F.);
#902 = ORIENTED_EDGE('',*,*,#793,.T.);
#903 = ORIENTED_EDGE('',*,*,#904,.F.);
#904 = EDGE_CURVE('',#905,#786,#907,.T.);
#905 = VERTEX_POINT('',#906);
#906 = CARTESIAN_POINT('',(43.7,-11.,11.8));
#907 = LINE('',#908,#909);
#908 = CARTESIAN_POINT('',(43.7,-11.,10.8));
#909 = VECTOR('',#910,1.);
#910 = DIRECTION('',(0.,0.,-1.));
#911 = ORIENTED_EDGE('',*,*,#912,.F.);
#912 = EDGE_CURVE('',#913,#905,#915,.T.);
#913 = VERTEX_POINT('',#914);
#914 = CARTESIAN_POINT('',(30.7,-11.,11.8));
#915 = LINE('',#916,#917);
#916 = CARTESIAN_POINT('',(39.85,-11.,11.8));
#917 = VECTOR('',#918,1.);
#918 = DIRECTION('',(1.,0.,0.));
#919 = ORIENTED_EDGE('',*,*,#920,.T.);
#920 = EDGE_CURVE('',#913,#921,#923,.T.);
#921 = VERTEX_POINT('',#922);
#922 = CARTESIAN_POINT('',(30.7,-11.,6.3));
#923 = LINE('',#924,#925);
#924 = CARTESIAN_POINT('',(30.7,-11.,10.8));
#925 = VECTOR('',#926,1.);
#926 = DIRECTION('',(0.,0.,-1.));
#927 = ORIENTED_EDGE('',*,*,#928,.T.);
#928 = EDGE_CURVE('',#921,#929,#931,.T.);
#929 = VERTEX_POINT('',#930);
#930 = CARTESIAN_POINT('',(28.,-11.,6.3));
#931 = LINE('',#932,#933);
#932 = CARTESIAN_POINT('',(49.,-11.,6.3));
#933 = VECTOR('',#934,1.);
#934 = DIRECTION('',(-1.,0.,0.));
#935 = ORIENTED_EDGE('',*,*,#936,.T.);
#936 = EDGE_CURVE('',#929,#353,#937,.T.);
#937 = B_SPLINE_CURVE_WITH_KNOTS('',1,(#938,#939),.UNSPECIFIED.,.F.,.F.,
  (2,2),(0.,1.),.PIECEWISE_BEZIER_KNOTS.);
#938 = CARTESIAN_POINT('',(28.,-11.,6.3));
#939 = CARTESIAN_POINT('',(28.,-11.,15.4));
#940 = ORIENTED_EDGE('',*,*,#352,.F.);
#941 = PLANE('',#942);
#942 = AXIS2_PLACEMENT_3D('',#943,#944,#945);
#943 = CARTESIAN_POINT('',(49.,-11.,15.4));
#944 = DIRECTION('',(0.,1.,0.));
#945 = DIRECTION('',(-1.,0.,0.));
#946 = ADVANCED_FACE('',(#947,#964),#998,.T.);
#947 = FACE_BOUND('',#948,.T.);
#948 = EDGE_LOOP('',(#949,#957,#962,#963));
#949 = ORIENTED_EDGE('',*,*,#950,.T.);
#950 = EDGE_CURVE('',#929,#951,#953,.T.);
#951 = VERTEX_POINT('',#952);
#952 = CARTESIAN_POINT('',(25.,-14.,6.3));
#953 = LINE('',#954,#955);
#954 = CARTESIAN_POINT('',(28.,-11.,6.3));
#955 = VECTOR('',#956,1.);
#956 = DIRECTION('',(-0.707106781187,-0.707106781187,0.));
#957 = ORIENTED_EDGE('',*,*,#958,.T.);
#958 = EDGE_CURVE('',#951,#376,#959,.T.);
#959 = B_SPLINE_CURVE_WITH_KNOTS('',1,(#960,#961),.UNSPECIFIED.,.F.,.F.,
  (2,2),(0.,1.),.PIECEWISE_BEZIER_KNOTS.);
#960 = CARTESIAN_POINT('',(25.,-14.,6.3));
#961 = CARTESIAN_POINT('',(25.,-14.,15.4));
#962 = ORIENTED_EDGE('',*,*,#375,.F.);
#963 = ORIENTED_EDGE('',*,*,#936,.F.);
#964 = FACE_BOUND('',#965,.T.);
#965 = EDGE_LOOP('',(#966,#976,#984,#992));
#966 = ORIENTED_EDGE('',*,*,#967,.F.);
#967 = EDGE_CURVE('',#968,#970,#972,.T.);
#968 = VERTEX_POINT('',#969);
#969 = CARTESIAN_POINT('',(27.4,-11.6,12.7));
#970 = VERTEX_POINT('',#971);
#971 = CARTESIAN_POINT('',(27.6,-11.4,12.7));
#972 = LINE('',#973,#974);
#973 = CARTESIAN_POINT('',(18.575,-20.425,12.7));
#974 = VECTOR('',#975,1.);
#975 = DIRECTION('',(0.707106781187,0.707106781187,0.));
#976 = ORIENTED_EDGE('',*,*,#977,.T.);
#977 = EDGE_CURVE('',#968,#978,#980,.T.);
#978 = VERTEX_POINT('',#979);
#979 = CARTESIAN_POINT('',(27.4,-11.6,8.5));
#980 = LINE('',#981,#982);
#981 = CARTESIAN_POINT('',(27.4,-11.6,11.95));
#982 = VECTOR('',#983,1.);
#983 = DIRECTION('',(0.,0.,-1.));
#984 = ORIENTED_EDGE('',*,*,#985,.T.);
#985 = EDGE_CURVE('',#978,#986,#988,.T.);
#986 = VERTEX_POINT('',#987);
#987 = CARTESIAN_POINT('',(27.6,-11.4,8.5));
#988 = LINE('',#989,#990);
#989 = CARTESIAN_POINT('',(18.575,-20.425,8.5));
#990 = VECTOR('',#991,1.);
#991 = DIRECTION('',(0.707106781187,0.707106781187,0.));
#992 = ORIENTED_EDGE('',*,*,#993,.F.);
#993 = EDGE_CURVE('',#970,#986,#994,.T.);
#994 = LINE('',#995,#996);
#995 = CARTESIAN_POINT('',(27.6,-11.4,11.95));
#996 = VECTOR('',#997,1.);
#997 = DIRECTION('',(0.,0.,-1.));
#998 = PLANE('',#999);
#999 = AXIS2_PLACEMENT_3D('',#1000,#1001,#1002);
#1000 = CARTESIAN_POINT('',(28.,-11.,15.4));
#1001 = DIRECTION('',(-0.707106781187,0.707106781187,0.));
#1002 = DIRECTION('',(-0.707106781187,-0.707106781187,0.));
#1003 = ADVANCED_FACE('',(#1004),#1014,.T.);
#1004 = FACE_BOUND('',#1005,.T.);
#1005 = EDGE_LOOP('',(#1006,#1007,#1008,#1009));
#1006 = ORIENTED_EDGE('',*,*,#809,.T.);
#1007 = ORIENTED_EDGE('',*,*,#889,.T.);
#1008 = ORIENTED_EDGE('',*,*,#405,.F.);
#1009 = ORIENTED_EDGE('',*,*,#1010,.F.);
#1010 = EDGE_CURVE('',#810,#399,#1011,.T.);
#1011 = B_SPLINE_CURVE_WITH_KNOTS('',1,(#1012,#1013),.UNSPECIFIED.,.F.,
  .F.,(2,2),(0.,1.),.PIECEWISE_BEZIER_KNOTS.);
#1012 = CARTESIAN_POINT('',(46.,-68.5,6.3));
#1013 = CARTESIAN_POINT('',(46.,-68.5,15.4));
#1014 = PLANE('',#1015);
#1015 = AXIS2_PLACEMENT_3D('',#1016,#1017,#1018);
#1016 = CARTESIAN_POINT('',(46.,-68.5,15.4));
#1017 = DIRECTION('',(0.707106781187,-0.707106781187,0.));
#1018 = DIRECTION('',(0.707106781187,0.707106781187,0.));
#1019 = ADVANCED_FACE('',(#1020),#1060,.T.);
#1020 = FACE_BOUND('',#1021,.T.);
#1021 = EDGE_LOOP('',(#1022,#1023,#1031,#1039,#1047,#1053,#1054,#1059));
#1022 = ORIENTED_EDGE('',*,*,#958,.F.);
#1023 = ORIENTED_EDGE('',*,*,#1024,.T.);
#1024 = EDGE_CURVE('',#951,#1025,#1027,.T.);
#1025 = VERTEX_POINT('',#1026);
#1026 = CARTESIAN_POINT('',(25.,-53.4,6.3));
#1027 = LINE('',#1028,#1029);
#1028 = CARTESIAN_POINT('',(25.,-14.,6.3));
#1029 = VECTOR('',#1030,1.);
#1030 = DIRECTION('',(0.,-1.,0.));
#1031 = ORIENTED_EDGE('',*,*,#1032,.F.);
#1032 = EDGE_CURVE('',#1033,#1025,#1035,.T.);
#1033 = VERTEX_POINT('',#1034);
#1034 = CARTESIAN_POINT('',(25.,-53.4,9.2));
#1035 = LINE('',#1036,#1037);
#1036 = CARTESIAN_POINT('',(25.,-53.4,10.25));
#1037 = VECTOR('',#1038,1.);
#1038 = DIRECTION('',(0.,0.,-1.));
#1039 = ORIENTED_EDGE('',*,*,#1040,.F.);
#1040 = EDGE_CURVE('',#1041,#1033,#1043,.T.);
#1041 = VERTEX_POINT('',#1042);
#1042 = CARTESIAN_POINT('',(25.,-61.9,9.2));
#1043 = LINE('',#1044,#1045);
#1044 = CARTESIAN_POINT('',(25.,-37.95,9.2));
#1045 = VECTOR('',#1046,1.);
#1046 = DIRECTION('',(0.,1.,0.));
#1047 = ORIENTED_EDGE('',*,*,#1048,.T.);
#1048 = EDGE_CURVE('',#1041,#841,#1049,.T.);
#1049 = LINE('',#1050,#1051);
#1050 = CARTESIAN_POINT('',(25.,-61.9,10.25));
#1051 = VECTOR('',#1052,1.);
#1052 = DIRECTION('',(0.,0.,-1.));
#1053 = ORIENTED_EDGE('',*,*,#840,.T.);
#1054 = ORIENTED_EDGE('',*,*,#1055,.T.);
#1055 = EDGE_CURVE('',#833,#423,#1056,.T.);
#1056 = B_SPLINE_CURVE_WITH_KNOTS('',1,(#1057,#1058),.UNSPECIFIED.,.F.,
  .F.,(2,2),(0.,1.),.PIECEWISE_BEZIER_KNOTS.);
#1057 = CARTESIAN_POINT('',(25.,-62.,6.3));
#1058 = CARTESIAN_POINT('',(25.,-62.,15.4));
#1059 = ORIENTED_EDGE('',*,*,#422,.F.);
#1060 = PLANE('',#1061);
#1061 = AXIS2_PLACEMENT_3D('',#1062,#1063,#1064);
#1062 = CARTESIAN_POINT('',(25.,-14.,15.4));
#1063 = DIRECTION('',(-1.,0.,0.));
#1064 = DIRECTION('',(0.,-1.,0.));
#1065 = ADVANCED_FACE('',(#1066),#1076,.T.);
#1066 = FACE_BOUND('',#1067,.T.);
#1067 = EDGE_LOOP('',(#1068,#1069,#1070,#1071));
#1068 = ORIENTED_EDGE('',*,*,#817,.T.);
#1069 = ORIENTED_EDGE('',*,*,#1010,.T.);
#1070 = ORIENTED_EDGE('',*,*,#445,.F.);
#1071 = ORIENTED_EDGE('',*,*,#1072,.F.);
#1072 = EDGE_CURVE('',#818,#446,#1073,.T.);
#1073 = B_SPLINE_CURVE_WITH_KNOTS('',1,(#1074,#1075),.UNSPECIFIED.,.F.,
  .F.,(2,2),(0.,1.),.PIECEWISE_BEZIER_KNOTS.);
#1074 = CARTESIAN_POINT('',(31.5,-68.5,6.3));
#1075 = CARTESIAN_POINT('',(31.5,-68.5,15.4));
#1076 = PLANE('',#1077);
#1077 = AXIS2_PLACEMENT_3D('',#1078,#1079,#1080);
#1078 = CARTESIAN_POINT('',(31.5,-68.5,15.4));
#1079 = DIRECTION('',(0.,-1.,0.));
#1080 = DIRECTION('',(1.,0.,0.));
#1081 = ADVANCED_FACE('',(#1082),#1088,.T.);
#1082 = FACE_BOUND('',#1083,.T.);
#1083 = EDGE_LOOP('',(#1084,#1085,#1086,#1087));
#1084 = ORIENTED_EDGE('',*,*,#1055,.F.);
#1085 = ORIENTED_EDGE('',*,*,#832,.T.);
#1086 = ORIENTED_EDGE('',*,*,#565,.F.);
#1087 = ORIENTED_EDGE('',*,*,#469,.F.);
#1088 = PLANE('',#1089);
#1089 = AXIS2_PLACEMENT_3D('',#1090,#1091,#1092);
#1090 = CARTESIAN_POINT('',(25.,-62.,15.4));
#1091 = DIRECTION('',(-0.707106781187,-0.707106781187,0.));
#1092 = DIRECTION('',(0.707106781187,-0.707106781187,0.));
#1093 = ADVANCED_FACE('',(#1094),#1100,.T.);
#1094 = FACE_BOUND('',#1095,.T.);
#1095 = EDGE_LOOP('',(#1096,#1097,#1098,#1099));
#1096 = ORIENTED_EDGE('',*,*,#574,.T.);
#1097 = ORIENTED_EDGE('',*,*,#825,.T.);
#1098 = ORIENTED_EDGE('',*,*,#1072,.T.);
#1099 = ORIENTED_EDGE('',*,*,#538,.F.);
#1100 = PLANE('',#1101);
#1101 = AXIS2_PLACEMENT_3D('',#1102,#1103,#1104);
#1102 = CARTESIAN_POINT('',(25.,-62.,15.4));
#1103 = DIRECTION('',(-0.707106781187,-0.707106781187,0.));
#1104 = DIRECTION('',(0.707106781187,-0.707106781187,0.));
#1105 = ADVANCED_FACE('',(#1106,#1190,#1193,#1204),#1210,.F.);
#1106 = FACE_BOUND('',#1107,.F.);
#1107 = EDGE_LOOP('',(#1108,#1118,#1126,#1134,#1142,#1150,#1159,#1168,
    #1176,#1184));
#1108 = ORIENTED_EDGE('',*,*,#1109,.T.);
#1109 = EDGE_CURVE('',#1110,#1112,#1114,.T.);
#1110 = VERTEX_POINT('',#1111);
#1111 = CARTESIAN_POINT('',(47.8,-65.00294372515,15.4));
#1112 = VERTEX_POINT('',#1113);
#1113 = CARTESIAN_POINT('',(47.8,-12.2,15.4));
#1114 = LINE('',#1115,#1116);
#1115 = CARTESIAN_POINT('',(47.8,-65.00294372515,15.4));
#1116 = VECTOR('',#1117,1.);
#1117 = DIRECTION('',(0.,1.,0.));
#1118 = ORIENTED_EDGE('',*,*,#1119,.T.);
#1119 = EDGE_CURVE('',#1112,#1120,#1122,.T.);
#1120 = VERTEX_POINT('',#1121);
#1121 = CARTESIAN_POINT('',(28.497056274848,-12.2,15.4));
#1122 = LINE('',#1123,#1124);
#1123 = CARTESIAN_POINT('',(47.8,-12.2,15.4));
#1124 = VECTOR('',#1125,1.);
#1125 = DIRECTION('',(-1.,0.,0.));
#1126 = ORIENTED_EDGE('',*,*,#1127,.T.);
#1127 = EDGE_CURVE('',#1120,#1128,#1130,.T.);
#1128 = VERTEX_POINT('',#1129);
#1129 = CARTESIAN_POINT('',(26.2,-14.49705627484,15.4));
#1130 = LINE('',#1131,#1132);
#1131 = CARTESIAN_POINT('',(28.497056274848,-12.2,15.4));
#1132 = VECTOR('',#1133,1.);
#1133 = DIRECTION('',(-0.707106781187,-0.707106781187,0.));
#1134 = ORIENTED_EDGE('',*,*,#1135,.T.);
#1135 = EDGE_CURVE('',#1128,#1136,#1138,.T.);
#1136 = VERTEX_POINT('',#1137);
#1137 = CARTESIAN_POINT('',(26.2,-61.50294372515,15.4));
#1138 = LINE('',#1139,#1140);
#1139 = CARTESIAN_POINT('',(26.2,-14.49705627484,15.4));
#1140 = VECTOR('',#1141,1.);
#1141 = DIRECTION('',(0.,-1.,0.));
#1142 = ORIENTED_EDGE('',*,*,#1143,.T.);
#1143 = EDGE_CURVE('',#1136,#1144,#1146,.T.);
#1144 = VERTEX_POINT('',#1145);
#1145 = CARTESIAN_POINT('',(27.605798942524,-62.90874266767,15.4));
#1146 = LINE('',#1147,#1148);
#1147 = CARTESIAN_POINT('',(26.2,-61.50294372515,15.4));
#1148 = VECTOR('',#1149,1.);
#1149 = DIRECTION('',(0.707106781187,-0.707106781187,0.));
#1150 = ORIENTED_EDGE('',*,*,#1151,.T.);
#1151 = EDGE_CURVE('',#1144,#1152,#1154,.T.);
#1152 = VERTEX_POINT('',#1153);
#1153 = CARTESIAN_POINT('',(31.5,-64.,15.4));
#1154 = CIRCLE('',#1155,2.1);
#1155 = AXIS2_PLACEMENT_3D('',#1156,#1157,#1158);
#1156 = CARTESIAN_POINT('',(29.4,-64.,15.4));
#1157 = DIRECTION('',(0.,0.,-1.));
#1158 = DIRECTION('',(1.,0.,0.));
#1159 = ORIENTED_EDGE('',*,*,#1160,.T.);
#1160 = EDGE_CURVE('',#1152,#1161,#1163,.T.);
#1161 = VERTEX_POINT('',#1162);
#1162 = CARTESIAN_POINT('',(30.491257332324,-65.79420105747,15.4));
#1163 = CIRCLE('',#1164,2.1);
#1164 = AXIS2_PLACEMENT_3D('',#1165,#1166,#1167);
#1165 = CARTESIAN_POINT('',(29.4,-64.,15.4));
#1166 = DIRECTION('',(0.,0.,-1.));
#1167 = DIRECTION('',(1.,0.,0.));
#1168 = ORIENTED_EDGE('',*,*,#1169,.T.);
#1169 = EDGE_CURVE('',#1161,#1170,#1172,.T.);
#1170 = VERTEX_POINT('',#1171);
#1171 = CARTESIAN_POINT('',(31.997056274848,-67.3,15.4));
#1172 = LINE('',#1173,#1174);
#1173 = CARTESIAN_POINT('',(26.2,-61.50294372515,15.4));
#1174 = VECTOR('',#1175,1.);
#1175 = DIRECTION('',(0.707106781187,-0.707106781187,0.));
#1176 = ORIENTED_EDGE('',*,*,#1177,.T.);
#1177 = EDGE_CURVE('',#1170,#1178,#1180,.T.);
#1178 = VERTEX_POINT('',#1179);
#1179 = CARTESIAN_POINT('',(45.502943725152,-67.3,15.4));
#1180 = LINE('',#1181,#1182);
#1181 = CARTESIAN_POINT('',(31.997056274848,-67.3,15.4));
#1182 = VECTOR('',#1183,1.);
#1183 = DIRECTION('',(1.,0.,0.));
#1184 = ORIENTED_EDGE('',*,*,#1185,.T.);
#1185 = EDGE_CURVE('',#1178,#1110,#1186,.T.);
#1186 = LINE('',#1187,#1188);
#1187 = CARTESIAN_POINT('',(45.502943725152,-67.3,15.4));
#1188 = VECTOR('',#1189,1.);
#1189 = DIRECTION('',(0.707106781187,0.707106781187,0.));
#1190 = FACE_BOUND('',#1191,.F.);
#1191 = EDGE_LOOP('',(#1192));
#1192 = ORIENTED_EDGE('',*,*,#588,.T.);
#1193 = FACE_BOUND('',#1194,.F.);
#1194 = EDGE_LOOP('',(#1195));
#1195 = ORIENTED_EDGE('',*,*,#1196,.T.);
#1196 = EDGE_CURVE('',#1197,#1197,#1199,.T.);
#1197 = VERTEX_POINT('',#1198);
#1198 = CARTESIAN_POINT('',(47.6,-64.,15.4));
#1199 = CIRCLE('',#1200,2.1);
#1200 = AXIS2_PLACEMENT_3D('',#1201,#1202,#1203);
#1201 = CARTESIAN_POINT('',(45.5,-64.,15.4));
#1202 = DIRECTION('',(0.,0.,-1.));
#1203 = DIRECTION('',(1.,0.,0.));
#1204 = FACE_BOUND('',#1205,.F.);
#1205 = EDGE_LOOP('',(#1206,#1207,#1208,#1209));
#1206 = ORIENTED_EDGE('',*,*,#718,.T.);
#1207 = ORIENTED_EDGE('',*,*,#677,.T.);
#1208 = ORIENTED_EDGE('',*,*,#646,.F.);
#1209 = ORIENTED_EDGE('',*,*,#701,.F.);
#1210 = PLANE('',#1211);
#1211 = AXIS2_PLACEMENT_3D('',#1212,#1213,#1214);
#1212 = CARTESIAN_POINT('',(37.296206325974,-39.06767519813,15.4));
#1213 = DIRECTION('',(0.,0.,1.));
#1214 = DIRECTION('',(1.,0.,0.));
#1215 = ADVANCED_FACE('',(#1216,#1219),#1230,.T.);
#1216 = FACE_BOUND('',#1217,.T.);
#1217 = EDGE_LOOP('',(#1218));
#1218 = ORIENTED_EDGE('',*,*,#613,.T.);
#1219 = FACE_BOUND('',#1220,.T.);
#1220 = EDGE_LOOP('',(#1221));
#1221 = ORIENTED_EDGE('',*,*,#1222,.T.);
#1222 = EDGE_CURVE('',#1223,#1223,#1225,.T.);
#1223 = VERTEX_POINT('',#1224);
#1224 = CARTESIAN_POINT('',(46.65,-64.,14.9));
#1225 = CIRCLE('',#1226,1.15);
#1226 = AXIS2_PLACEMENT_3D('',#1227,#1228,#1229);
#1227 = CARTESIAN_POINT('',(45.5,-64.,14.9));
#1228 = DIRECTION('',(0.,0.,-1.));
#1229 = DIRECTION('',(1.,0.,0.));
#1230 = PLANE('',#1231);
#1231 = AXIS2_PLACEMENT_3D('',#1232,#1233,#1234);
#1232 = CARTESIAN_POINT('',(45.5,-64.,14.9));
#1233 = DIRECTION('',(0.,0.,1.));
#1234 = DIRECTION('',(1.,0.,0.));
#1235 = ADVANCED_FACE('',(#1236),#1254,.T.);
#1236 = FACE_BOUND('',#1237,.F.);
#1237 = EDGE_LOOP('',(#1238,#1244,#1245,#1246,#1252,#1253));
#1238 = ORIENTED_EDGE('',*,*,#1239,.F.);
#1239 = EDGE_CURVE('',#1161,#735,#1240,.T.);
#1240 = LINE('',#1241,#1242);
#1241 = CARTESIAN_POINT('',(30.491257332324,-65.79420105747,6.3));
#1242 = VECTOR('',#1243,1.);
#1243 = DIRECTION('',(-0.,-0.,-1.));
#1244 = ORIENTED_EDGE('',*,*,#1160,.F.);
#1245 = ORIENTED_EDGE('',*,*,#1151,.F.);
#1246 = ORIENTED_EDGE('',*,*,#1247,.T.);
#1247 = EDGE_CURVE('',#1144,#857,#1248,.T.);
#1248 = LINE('',#1249,#1250);
#1249 = CARTESIAN_POINT('',(27.605798942524,-62.90874266767,6.3));
#1250 = VECTOR('',#1251,1.);
#1251 = DIRECTION('',(-0.,-0.,-1.));
#1252 = ORIENTED_EDGE('',*,*,#864,.F.);
#1253 = ORIENTED_EDGE('',*,*,#734,.F.);
#1254 = CYLINDRICAL_SURFACE('',#1255,2.1);
#1255 = AXIS2_PLACEMENT_3D('',#1256,#1257,#1258);
#1256 = CARTESIAN_POINT('',(29.4,-64.,6.3));
#1257 = DIRECTION('',(-0.,-0.,-1.));
#1258 = DIRECTION('',(1.,0.,0.));
#1259 = ADVANCED_FACE('',(#1260),#1271,.T.);
#1260 = FACE_BOUND('',#1261,.T.);
#1261 = EDGE_LOOP('',(#1262,#1263,#1264,#1265));
#1262 = ORIENTED_EDGE('',*,*,#745,.F.);
#1263 = ORIENTED_EDGE('',*,*,#1239,.F.);
#1264 = ORIENTED_EDGE('',*,*,#1169,.T.);
#1265 = ORIENTED_EDGE('',*,*,#1266,.F.);
#1266 = EDGE_CURVE('',#746,#1170,#1267,.T.);
#1267 = LINE('',#1268,#1269);
#1268 = CARTESIAN_POINT('',(31.997056274848,-67.3,6.2));
#1269 = VECTOR('',#1270,1.);
#1270 = DIRECTION('',(0.,0.,1.));
#1271 = PLANE('',#1272);
#1272 = AXIS2_PLACEMENT_3D('',#1273,#1274,#1275);
#1273 = CARTESIAN_POINT('',(26.2,-61.50294372515,6.2));
#1274 = DIRECTION('',(0.707106781187,0.707106781187,0.));
#1275 = DIRECTION('',(0.707106781187,-0.707106781187,0.));
#1276 = ADVANCED_FACE('',(#1277),#1288,.T.);
#1277 = FACE_BOUND('',#1278,.T.);
#1278 = EDGE_LOOP('',(#1279,#1280,#1281,#1282));
#1279 = ORIENTED_EDGE('',*,*,#753,.F.);
#1280 = ORIENTED_EDGE('',*,*,#1266,.T.);
#1281 = ORIENTED_EDGE('',*,*,#1177,.T.);
#1282 = ORIENTED_EDGE('',*,*,#1283,.F.);
#1283 = EDGE_CURVE('',#754,#1178,#1284,.T.);
#1284 = LINE('',#1285,#1286);
#1285 = CARTESIAN_POINT('',(45.502943725152,-67.3,6.2));
#1286 = VECTOR('',#1287,1.);
#1287 = DIRECTION('',(0.,0.,1.));
#1288 = PLANE('',#1289);
#1289 = AXIS2_PLACEMENT_3D('',#1290,#1291,#1292);
#1290 = CARTESIAN_POINT('',(31.997056274848,-67.3,6.2));
#1291 = DIRECTION('',(0.,1.,0.));
#1292 = DIRECTION('',(1.,0.,0.));
#1293 = ADVANCED_FACE('',(#1294),#1321,.T.);
#1294 = FACE_BOUND('',#1295,.T.);
#1295 = EDGE_LOOP('',(#1296,#1297,#1305,#1313,#1319,#1320));
#1296 = ORIENTED_EDGE('',*,*,#856,.F.);
#1297 = ORIENTED_EDGE('',*,*,#1298,.T.);
#1298 = EDGE_CURVE('',#849,#1299,#1301,.T.);
#1299 = VERTEX_POINT('',#1300);
#1300 = CARTESIAN_POINT('',(26.597056274848,-61.9,9.2));
#1301 = LINE('',#1302,#1303);
#1302 = CARTESIAN_POINT('',(26.597056274848,-61.9,5.65));
#1303 = VECTOR('',#1304,1.);
#1304 = DIRECTION('',(0.,0.,1.));
#1305 = ORIENTED_EDGE('',*,*,#1306,.F.);
#1306 = EDGE_CURVE('',#1307,#1299,#1309,.T.);
#1307 = VERTEX_POINT('',#1308);
#1308 = CARTESIAN_POINT('',(26.2,-61.50294372515,9.2));
#1309 = LINE('',#1310,#1311);
#1310 = CARTESIAN_POINT('',(24.749264068712,-60.05220779386,9.2));
#1311 = VECTOR('',#1312,1.);
#1312 = DIRECTION('',(0.707106781187,-0.707106781187,0.));
#1313 = ORIENTED_EDGE('',*,*,#1314,.T.);
#1314 = EDGE_CURVE('',#1307,#1136,#1315,.T.);
#1315 = LINE('',#1316,#1317);
#1316 = CARTESIAN_POINT('',(26.2,-61.50294372515,6.2));
#1317 = VECTOR('',#1318,1.);
#1318 = DIRECTION('',(0.,0.,1.));
#1319 = ORIENTED_EDGE('',*,*,#1143,.T.);
#1320 = ORIENTED_EDGE('',*,*,#1247,.T.);
#1321 = PLANE('',#1322);
#1322 = AXIS2_PLACEMENT_3D('',#1323,#1324,#1325);
#1323 = CARTESIAN_POINT('',(26.2,-61.50294372515,6.2));
#1324 = DIRECTION('',(0.707106781187,0.707106781187,0.));
#1325 = DIRECTION('',(0.707106781187,-0.707106781187,0.));
#1326 = ADVANCED_FACE('',(#1327),#1338,.T.);
#1327 = FACE_BOUND('',#1328,.T.);
#1328 = EDGE_LOOP('',(#1329,#1330,#1331,#1332));
#1329 = ORIENTED_EDGE('',*,*,#761,.F.);
#1330 = ORIENTED_EDGE('',*,*,#1283,.T.);
#1331 = ORIENTED_EDGE('',*,*,#1185,.T.);
#1332 = ORIENTED_EDGE('',*,*,#1333,.F.);
#1333 = EDGE_CURVE('',#762,#1110,#1334,.T.);
#1334 = LINE('',#1335,#1336);
#1335 = CARTESIAN_POINT('',(47.8,-65.00294372515,6.2));
#1336 = VECTOR('',#1337,1.);
#1337 = DIRECTION('',(0.,0.,1.));
#1338 = PLANE('',#1339);
#1339 = AXIS2_PLACEMENT_3D('',#1340,#1341,#1342);
#1340 = CARTESIAN_POINT('',(45.502943725152,-67.3,6.2));
#1341 = DIRECTION('',(-0.707106781187,0.707106781187,0.));
#1342 = DIRECTION('',(0.707106781187,0.707106781187,0.));
#1343 = ADVANCED_FACE('',(#1344),#1355,.T.);
#1344 = FACE_BOUND('',#1345,.T.);
#1345 = EDGE_LOOP('',(#1346,#1352,#1353,#1354));
#1346 = ORIENTED_EDGE('',*,*,#1347,.T.);
#1347 = EDGE_CURVE('',#1041,#1299,#1348,.T.);
#1348 = LINE('',#1349,#1350);
#1349 = CARTESIAN_POINT('',(20.,-61.9,9.2));
#1350 = VECTOR('',#1351,1.);
#1351 = DIRECTION('',(1.,0.,0.));
#1352 = ORIENTED_EDGE('',*,*,#1298,.F.);
#1353 = ORIENTED_EDGE('',*,*,#848,.F.);
#1354 = ORIENTED_EDGE('',*,*,#1048,.F.);
#1355 = PLANE('',#1356);
#1356 = AXIS2_PLACEMENT_3D('',#1357,#1358,#1359);
#1357 = CARTESIAN_POINT('',(20.,-61.9,5.1));
#1358 = DIRECTION('',(0.,1.,0.));
#1359 = DIRECTION('',(0.,0.,1.));
#1360 = ADVANCED_FACE('',(#1361),#1372,.T.);
#1361 = FACE_BOUND('',#1362,.T.);
#1362 = EDGE_LOOP('',(#1363,#1364,#1365,#1366));
#1363 = ORIENTED_EDGE('',*,*,#769,.F.);
#1364 = ORIENTED_EDGE('',*,*,#1333,.T.);
#1365 = ORIENTED_EDGE('',*,*,#1109,.T.);
#1366 = ORIENTED_EDGE('',*,*,#1367,.F.);
#1367 = EDGE_CURVE('',#770,#1112,#1368,.T.);
#1368 = LINE('',#1369,#1370);
#1369 = CARTESIAN_POINT('',(47.8,-12.2,6.2));
#1370 = VECTOR('',#1371,1.);
#1371 = DIRECTION('',(0.,0.,1.));
#1372 = PLANE('',#1373);
#1373 = AXIS2_PLACEMENT_3D('',#1374,#1375,#1376);
#1374 = CARTESIAN_POINT('',(47.8,-65.00294372515,6.2));
#1375 = DIRECTION('',(-1.,0.,0.));
#1376 = DIRECTION('',(0.,1.,0.));
#1377 = ADVANCED_FACE('',(#1378),#1421,.T.);
#1378 = FACE_BOUND('',#1379,.T.);
#1379 = EDGE_LOOP('',(#1380,#1381,#1382,#1383,#1391,#1399,#1407,#1415));
#1380 = ORIENTED_EDGE('',*,*,#777,.F.);
#1381 = ORIENTED_EDGE('',*,*,#1367,.T.);
#1382 = ORIENTED_EDGE('',*,*,#1119,.T.);
#1383 = ORIENTED_EDGE('',*,*,#1384,.F.);
#1384 = EDGE_CURVE('',#1385,#1120,#1387,.T.);
#1385 = VERTEX_POINT('',#1386);
#1386 = CARTESIAN_POINT('',(28.497056274848,-12.2,12.7));
#1387 = LINE('',#1388,#1389);
#1388 = CARTESIAN_POINT('',(28.497056274848,-12.2,6.2));
#1389 = VECTOR('',#1390,1.);
#1390 = DIRECTION('',(0.,0.,1.));
#1391 = ORIENTED_EDGE('',*,*,#1392,.F.);
#1392 = EDGE_CURVE('',#1393,#1385,#1395,.T.);
#1393 = VERTEX_POINT('',#1394);
#1394 = CARTESIAN_POINT('',(47.,-12.2,12.7));
#1395 = LINE('',#1396,#1397);
#1396 = CARTESIAN_POINT('',(37.6,-12.2,12.7));
#1397 = VECTOR('',#1398,1.);
#1398 = DIRECTION('',(-1.,0.,0.));
#1399 = ORIENTED_EDGE('',*,*,#1400,.F.);
#1400 = EDGE_CURVE('',#1401,#1393,#1403,.T.);
#1401 = VERTEX_POINT('',#1402);
#1402 = CARTESIAN_POINT('',(47.,-12.2,8.5));
#1403 = LINE('',#1404,#1405);
#1404 = CARTESIAN_POINT('',(47.,-12.2,7.35));
#1405 = VECTOR('',#1406,1.);
#1406 = DIRECTION('',(0.,0.,1.));
#1407 = ORIENTED_EDGE('',*,*,#1408,.T.);
#1408 = EDGE_CURVE('',#1401,#1409,#1411,.T.);
#1409 = VERTEX_POINT('',#1410);
#1410 = CARTESIAN_POINT('',(43.7,-12.2,8.5));
#1411 = LINE('',#1412,#1413);
#1412 = CARTESIAN_POINT('',(37.6,-12.2,8.5));
#1413 = VECTOR('',#1414,1.);
#1414 = DIRECTION('',(-1.,0.,0.));
#1415 = ORIENTED_EDGE('',*,*,#1416,.F.);
#1416 = EDGE_CURVE('',#778,#1409,#1417,.T.);
#1417 = LINE('',#1418,#1419);
#1418 = CARTESIAN_POINT('',(43.7,-12.2,6.2));
#1419 = VECTOR('',#1420,1.);
#1420 = DIRECTION('',(0.,0.,1.));
#1421 = PLANE('',#1422);
#1422 = AXIS2_PLACEMENT_3D('',#1423,#1424,#1425);
#1423 = CARTESIAN_POINT('',(47.8,-12.2,6.2));
#1424 = DIRECTION('',(0.,-1.,0.));
#1425 = DIRECTION('',(-1.,0.,0.));
#1426 = ADVANCED_FACE('',(#1427),#1454,.F.);
#1427 = FACE_BOUND('',#1428,.F.);
#1428 = EDGE_LOOP('',(#1429,#1437,#1445,#1451,#1452,#1453));
#1429 = ORIENTED_EDGE('',*,*,#1430,.F.);
#1430 = EDGE_CURVE('',#1431,#905,#1433,.T.);
#1431 = VERTEX_POINT('',#1432);
#1432 = CARTESIAN_POINT('',(43.7,-11.4,11.8));
#1433 = LINE('',#1434,#1435);
#1434 = CARTESIAN_POINT('',(43.7,-20.,11.8));
#1435 = VECTOR('',#1436,1.);
#1436 = DIRECTION('',(0.,1.,0.));
#1437 = ORIENTED_EDGE('',*,*,#1438,.F.);
#1438 = EDGE_CURVE('',#1439,#1431,#1441,.T.);
#1439 = VERTEX_POINT('',#1440);
#1440 = CARTESIAN_POINT('',(43.7,-11.4,8.5));
#1441 = LINE('',#1442,#1443);
#1442 = CARTESIAN_POINT('',(43.7,-11.4,7.35));
#1443 = VECTOR('',#1444,1.);
#1444 = DIRECTION('',(0.,0.,1.));
#1445 = ORIENTED_EDGE('',*,*,#1446,.T.);
#1446 = EDGE_CURVE('',#1439,#1409,#1447,.T.);
#1447 = LINE('',#1448,#1449);
#1448 = CARTESIAN_POINT('',(43.7,-34.05,8.5));
#1449 = VECTOR('',#1450,1.);
#1450 = DIRECTION('',(0.,-1.,0.));
#1451 = ORIENTED_EDGE('',*,*,#1416,.F.);
#1452 = ORIENTED_EDGE('',*,*,#785,.F.);
#1453 = ORIENTED_EDGE('',*,*,#904,.F.);
#1454 = PLANE('',#1455);
#1455 = AXIS2_PLACEMENT_3D('',#1456,#1457,#1458);
#1456 = CARTESIAN_POINT('',(43.7,-20.,6.2));
#1457 = DIRECTION('',(1.,0.,0.));
#1458 = DIRECTION('',(0.,0.,1.));
#1459 = ADVANCED_FACE('',(#1460),#1503,.T.);
#1460 = FACE_BOUND('',#1461,.T.);
#1461 = EDGE_LOOP('',(#1462,#1470,#1471,#1472,#1473,#1481,#1489,#1497));
#1462 = ORIENTED_EDGE('',*,*,#1463,.F.);
#1463 = EDGE_CURVE('',#1025,#1464,#1466,.T.);
#1464 = VERTEX_POINT('',#1465);
#1465 = CARTESIAN_POINT('',(26.2,-53.4,6.3));
#1466 = LINE('',#1467,#1468);
#1467 = CARTESIAN_POINT('',(34.5,-53.4,6.3));
#1468 = VECTOR('',#1469,1.);
#1469 = DIRECTION('',(1.,0.,0.));
#1470 = ORIENTED_EDGE('',*,*,#1024,.F.);
#1471 = ORIENTED_EDGE('',*,*,#950,.F.);
#1472 = ORIENTED_EDGE('',*,*,#928,.F.);
#1473 = ORIENTED_EDGE('',*,*,#1474,.T.);
#1474 = EDGE_CURVE('',#921,#1475,#1477,.T.);
#1475 = VERTEX_POINT('',#1476);
#1476 = CARTESIAN_POINT('',(30.7,-12.2,6.3));
#1477 = LINE('',#1478,#1479);
#1478 = CARTESIAN_POINT('',(30.7,-15.5,6.3));
#1479 = VECTOR('',#1480,1.);
#1480 = DIRECTION('',(0.,-1.,0.));
#1481 = ORIENTED_EDGE('',*,*,#1482,.T.);
#1482 = EDGE_CURVE('',#1475,#1483,#1485,.T.);
#1483 = VERTEX_POINT('',#1484);
#1484 = CARTESIAN_POINT('',(28.497056274848,-12.2,6.3));
#1485 = LINE('',#1486,#1487);
#1486 = CARTESIAN_POINT('',(48.4,-12.2,6.3));
#1487 = VECTOR('',#1488,1.);
#1488 = DIRECTION('',(-1.,-0.,-0.));
#1489 = ORIENTED_EDGE('',*,*,#1490,.T.);
#1490 = EDGE_CURVE('',#1483,#1491,#1493,.T.);
#1491 = VERTEX_POINT('',#1492);
#1492 = CARTESIAN_POINT('',(26.2,-14.49705627484,6.3));
#1493 = LINE('',#1494,#1495);
#1494 = CARTESIAN_POINT('',(33.922792206136,-6.774264068712,6.3));
#1495 = VECTOR('',#1496,1.);
#1496 = DIRECTION('',(-0.707106781187,-0.707106781187,-0.));
#1497 = ORIENTED_EDGE('',*,*,#1498,.T.);
#1498 = EDGE_CURVE('',#1491,#1464,#1499,.T.);
#1499 = LINE('',#1500,#1501);
#1500 = CARTESIAN_POINT('',(26.2,-12.74852813742,6.3));
#1501 = VECTOR('',#1502,1.);
#1502 = DIRECTION('',(0.,-1.,0.));
#1503 = PLANE('',#1504);
#1504 = AXIS2_PLACEMENT_3D('',#1505,#1506,#1507);
#1505 = CARTESIAN_POINT('',(49.,-11.,6.3));
#1506 = DIRECTION('',(0.,0.,-1.));
#1507 = DIRECTION('',(-0.291161615783,-0.956673880429,-0.));
#1508 = ADVANCED_FACE('',(#1509),#1543,.T.);
#1509 = FACE_BOUND('',#1510,.T.);
#1510 = EDGE_LOOP('',(#1511,#1519,#1527,#1535,#1541,#1542));
#1511 = ORIENTED_EDGE('',*,*,#1512,.F.);
#1512 = EDGE_CURVE('',#1513,#913,#1515,.T.);
#1513 = VERTEX_POINT('',#1514);
#1514 = CARTESIAN_POINT('',(30.7,-11.4,11.8));
#1515 = LINE('',#1516,#1517);
#1516 = CARTESIAN_POINT('',(30.7,-20.,11.8));
#1517 = VECTOR('',#1518,1.);
#1518 = DIRECTION('',(0.,1.,0.));
#1519 = ORIENTED_EDGE('',*,*,#1520,.F.);
#1520 = EDGE_CURVE('',#1521,#1513,#1523,.T.);
#1521 = VERTEX_POINT('',#1522);
#1522 = CARTESIAN_POINT('',(30.7,-11.4,8.5));
#1523 = LINE('',#1524,#1525);
#1524 = CARTESIAN_POINT('',(30.7,-11.4,7.35));
#1525 = VECTOR('',#1526,1.);
#1526 = DIRECTION('',(0.,0.,1.));
#1527 = ORIENTED_EDGE('',*,*,#1528,.T.);
#1528 = EDGE_CURVE('',#1521,#1529,#1531,.T.);
#1529 = VERTEX_POINT('',#1530);
#1530 = CARTESIAN_POINT('',(30.7,-12.2,8.5));
#1531 = LINE('',#1532,#1533);
#1532 = CARTESIAN_POINT('',(30.7,-34.05,8.5));
#1533 = VECTOR('',#1534,1.);
#1534 = DIRECTION('',(0.,-1.,0.));
#1535 = ORIENTED_EDGE('',*,*,#1536,.F.);
#1536 = EDGE_CURVE('',#1475,#1529,#1537,.T.);
#1537 = LINE('',#1538,#1539);
#1538 = CARTESIAN_POINT('',(30.7,-12.2,6.2));
#1539 = VECTOR('',#1540,1.);
#1540 = DIRECTION('',(0.,0.,1.));
#1541 = ORIENTED_EDGE('',*,*,#1474,.F.);
#1542 = ORIENTED_EDGE('',*,*,#920,.F.);
#1543 = PLANE('',#1544);
#1544 = AXIS2_PLACEMENT_3D('',#1545,#1546,#1547);
#1545 = CARTESIAN_POINT('',(30.7,-20.,6.2));
#1546 = DIRECTION('',(1.,0.,0.));
#1547 = DIRECTION('',(0.,0.,1.));
#1548 = ADVANCED_FACE('',(#1549),#1560,.F.);
#1549 = FACE_BOUND('',#1550,.F.);
#1550 = EDGE_LOOP('',(#1551,#1552,#1558,#1559));
#1551 = ORIENTED_EDGE('',*,*,#1512,.F.);
#1552 = ORIENTED_EDGE('',*,*,#1553,.F.);
#1553 = EDGE_CURVE('',#1431,#1513,#1554,.T.);
#1554 = LINE('',#1555,#1556);
#1555 = CARTESIAN_POINT('',(29.05,-11.4,11.8));
#1556 = VECTOR('',#1557,1.);
#1557 = DIRECTION('',(-1.,0.,0.));
#1558 = ORIENTED_EDGE('',*,*,#1430,.T.);
#1559 = ORIENTED_EDGE('',*,*,#912,.F.);
#1560 = PLANE('',#1561);
#1561 = AXIS2_PLACEMENT_3D('',#1562,#1563,#1564);
#1562 = CARTESIAN_POINT('',(30.7,-20.,11.8));
#1563 = DIRECTION('',(0.,0.,1.));
#1564 = DIRECTION('',(1.,0.,0.));
#1565 = ADVANCED_FACE('',(#1566),#1598,.F.);
#1566 = FACE_BOUND('',#1567,.F.);
#1567 = EDGE_LOOP('',(#1568,#1576,#1582,#1583,#1591,#1597));
#1568 = ORIENTED_EDGE('',*,*,#1569,.F.);
#1569 = EDGE_CURVE('',#1570,#968,#1572,.T.);
#1570 = VERTEX_POINT('',#1571);
#1571 = CARTESIAN_POINT('',(27.4,-13.29705627484,12.7));
#1572 = LINE('',#1573,#1574);
#1573 = CARTESIAN_POINT('',(27.4,-48.1,12.7));
#1574 = VECTOR('',#1575,1.);
#1575 = DIRECTION('',(0.,1.,0.));
#1576 = ORIENTED_EDGE('',*,*,#1577,.F.);
#1577 = EDGE_CURVE('',#1385,#1570,#1578,.T.);
#1578 = LINE('',#1579,#1580);
#1579 = CARTESIAN_POINT('',(19.247792206136,-21.44926406871,12.7));
#1580 = VECTOR('',#1581,1.);
#1581 = DIRECTION('',(-0.707106781187,-0.707106781187,0.));
#1582 = ORIENTED_EDGE('',*,*,#1392,.F.);
#1583 = ORIENTED_EDGE('',*,*,#1584,.T.);
#1584 = EDGE_CURVE('',#1393,#1585,#1587,.T.);
#1585 = VERTEX_POINT('',#1586);
#1586 = CARTESIAN_POINT('',(47.,-11.4,12.7));
#1587 = LINE('',#1588,#1589);
#1588 = CARTESIAN_POINT('',(47.,-48.1,12.7));
#1589 = VECTOR('',#1590,1.);
#1590 = DIRECTION('',(0.,1.,0.));
#1591 = ORIENTED_EDGE('',*,*,#1592,.F.);
#1592 = EDGE_CURVE('',#970,#1585,#1593,.T.);
#1593 = LINE('',#1594,#1595);
#1594 = CARTESIAN_POINT('',(27.4,-11.4,12.7));
#1595 = VECTOR('',#1596,1.);
#1596 = DIRECTION('',(1.,0.,0.));
#1597 = ORIENTED_EDGE('',*,*,#967,.F.);
#1598 = PLANE('',#1599);
#1599 = AXIS2_PLACEMENT_3D('',#1600,#1601,#1602);
#1600 = CARTESIAN_POINT('',(27.4,-48.1,12.7));
#1601 = DIRECTION('',(0.,0.,1.));
#1602 = DIRECTION('',(1.,0.,0.));
#1603 = ADVANCED_FACE('',(#1604),#1631,.F.);
#1604 = FACE_BOUND('',#1605,.F.);
#1605 = EDGE_LOOP('',(#1606,#1612,#1613,#1614,#1622,#1628,#1629,#1630));
#1606 = ORIENTED_EDGE('',*,*,#1607,.F.);
#1607 = EDGE_CURVE('',#986,#1521,#1608,.T.);
#1608 = LINE('',#1609,#1610);
#1609 = CARTESIAN_POINT('',(27.4,-11.4,8.5));
#1610 = VECTOR('',#1611,1.);
#1611 = DIRECTION('',(1.,0.,0.));
#1612 = ORIENTED_EDGE('',*,*,#993,.F.);
#1613 = ORIENTED_EDGE('',*,*,#1592,.T.);
#1614 = ORIENTED_EDGE('',*,*,#1615,.F.);
#1615 = EDGE_CURVE('',#1616,#1585,#1618,.T.);
#1616 = VERTEX_POINT('',#1617);
#1617 = CARTESIAN_POINT('',(47.,-11.4,8.5));
#1618 = LINE('',#1619,#1620);
#1619 = CARTESIAN_POINT('',(47.,-11.4,8.5));
#1620 = VECTOR('',#1621,1.);
#1621 = DIRECTION('',(0.,0.,1.));
#1622 = ORIENTED_EDGE('',*,*,#1623,.F.);
#1623 = EDGE_CURVE('',#1439,#1616,#1624,.T.);
#1624 = LINE('',#1625,#1626);
#1625 = CARTESIAN_POINT('',(27.4,-11.4,8.5));
#1626 = VECTOR('',#1627,1.);
#1627 = DIRECTION('',(1.,0.,0.));
#1628 = ORIENTED_EDGE('',*,*,#1438,.T.);
#1629 = ORIENTED_EDGE('',*,*,#1553,.T.);
#1630 = ORIENTED_EDGE('',*,*,#1520,.F.);
#1631 = PLANE('',#1632);
#1632 = AXIS2_PLACEMENT_3D('',#1633,#1634,#1635);
#1633 = CARTESIAN_POINT('',(27.4,-11.4,8.5));
#1634 = DIRECTION('',(0.,1.,0.));
#1635 = DIRECTION('',(0.,0.,1.));
#1636 = ADVANCED_FACE('',(#1637),#1664,.T.);
#1637 = FACE_BOUND('',#1638,.T.);
#1638 = EDGE_LOOP('',(#1639,#1647,#1655,#1661,#1662,#1663));
#1639 = ORIENTED_EDGE('',*,*,#1640,.F.);
#1640 = EDGE_CURVE('',#1641,#978,#1643,.T.);
#1641 = VERTEX_POINT('',#1642);
#1642 = CARTESIAN_POINT('',(27.4,-13.29705627484,8.5));
#1643 = LINE('',#1644,#1645);
#1644 = CARTESIAN_POINT('',(27.4,-48.1,8.5));
#1645 = VECTOR('',#1646,1.);
#1646 = DIRECTION('',(0.,1.,0.));
#1647 = ORIENTED_EDGE('',*,*,#1648,.F.);
#1648 = EDGE_CURVE('',#1649,#1641,#1651,.T.);
#1649 = VERTEX_POINT('',#1650);
#1650 = CARTESIAN_POINT('',(28.497056274848,-12.2,8.5));
#1651 = LINE('',#1652,#1653);
#1652 = CARTESIAN_POINT('',(19.247792206136,-21.44926406871,8.5));
#1653 = VECTOR('',#1654,1.);
#1654 = DIRECTION('',(-0.707106781187,-0.707106781187,0.));
#1655 = ORIENTED_EDGE('',*,*,#1656,.F.);
#1656 = EDGE_CURVE('',#1529,#1649,#1657,.T.);
#1657 = LINE('',#1658,#1659);
#1658 = CARTESIAN_POINT('',(37.6,-12.2,8.5));
#1659 = VECTOR('',#1660,1.);
#1660 = DIRECTION('',(-1.,0.,0.));
#1661 = ORIENTED_EDGE('',*,*,#1528,.F.);
#1662 = ORIENTED_EDGE('',*,*,#1607,.F.);
#1663 = ORIENTED_EDGE('',*,*,#985,.F.);
#1664 = PLANE('',#1665);
#1665 = AXIS2_PLACEMENT_3D('',#1666,#1667,#1668);
#1666 = CARTESIAN_POINT('',(27.4,-48.1,8.5));
#1667 = DIRECTION('',(0.,0.,1.));
#1668 = DIRECTION('',(1.,0.,0.));
#1669 = ADVANCED_FACE('',(#1670),#1681,.T.);
#1670 = FACE_BOUND('',#1671,.T.);
#1671 = EDGE_LOOP('',(#1672,#1673,#1679,#1680));
#1672 = ORIENTED_EDGE('',*,*,#1569,.F.);
#1673 = ORIENTED_EDGE('',*,*,#1674,.F.);
#1674 = EDGE_CURVE('',#1641,#1570,#1675,.T.);
#1675 = LINE('',#1676,#1677);
#1676 = CARTESIAN_POINT('',(27.4,-13.29705627484,7.35));
#1677 = VECTOR('',#1678,1.);
#1678 = DIRECTION('',(0.,0.,1.));
#1679 = ORIENTED_EDGE('',*,*,#1640,.T.);
#1680 = ORIENTED_EDGE('',*,*,#977,.F.);
#1681 = PLANE('',#1682);
#1682 = AXIS2_PLACEMENT_3D('',#1683,#1684,#1685);
#1683 = CARTESIAN_POINT('',(27.4,-48.1,8.5));
#1684 = DIRECTION('',(1.,0.,0.));
#1685 = DIRECTION('',(0.,0.,1.));
#1686 = ADVANCED_FACE('',(#1687),#1706,.F.);
#1687 = FACE_BOUND('',#1688,.F.);
#1688 = EDGE_LOOP('',(#1689,#1697,#1698,#1699,#1700));
#1689 = ORIENTED_EDGE('',*,*,#1690,.F.);
#1690 = EDGE_CURVE('',#1033,#1691,#1693,.T.);
#1691 = VERTEX_POINT('',#1692);
#1692 = CARTESIAN_POINT('',(26.2,-53.4,9.2));
#1693 = LINE('',#1694,#1695);
#1694 = CARTESIAN_POINT('',(20.,-53.4,9.2));
#1695 = VECTOR('',#1696,1.);
#1696 = DIRECTION('',(1.,0.,0.));
#1697 = ORIENTED_EDGE('',*,*,#1040,.F.);
#1698 = ORIENTED_EDGE('',*,*,#1347,.T.);
#1699 = ORIENTED_EDGE('',*,*,#1306,.F.);
#1700 = ORIENTED_EDGE('',*,*,#1701,.F.);
#1701 = EDGE_CURVE('',#1691,#1307,#1702,.T.);
#1702 = LINE('',#1703,#1704);
#1703 = CARTESIAN_POINT('',(26.2,-38.19852813742,9.2));
#1704 = VECTOR('',#1705,1.);
#1705 = DIRECTION('',(0.,-1.,0.));
#1706 = PLANE('',#1707);
#1707 = AXIS2_PLACEMENT_3D('',#1708,#1709,#1710);
#1708 = CARTESIAN_POINT('',(20.,-61.9,9.2));
#1709 = DIRECTION('',(0.,0.,1.));
#1710 = DIRECTION('',(1.,0.,0.));
#1711 = ADVANCED_FACE('',(#1712),#1723,.F.);
#1712 = FACE_BOUND('',#1713,.F.);
#1713 = EDGE_LOOP('',(#1714,#1715,#1721,#1722));
#1714 = ORIENTED_EDGE('',*,*,#1690,.T.);
#1715 = ORIENTED_EDGE('',*,*,#1716,.F.);
#1716 = EDGE_CURVE('',#1464,#1691,#1717,.T.);
#1717 = LINE('',#1718,#1719);
#1718 = CARTESIAN_POINT('',(26.2,-53.4,5.65));
#1719 = VECTOR('',#1720,1.);
#1720 = DIRECTION('',(0.,0.,1.));
#1721 = ORIENTED_EDGE('',*,*,#1463,.F.);
#1722 = ORIENTED_EDGE('',*,*,#1032,.F.);
#1723 = PLANE('',#1724);
#1724 = AXIS2_PLACEMENT_3D('',#1725,#1726,#1727);
#1725 = CARTESIAN_POINT('',(20.,-53.4,5.1));
#1726 = DIRECTION('',(0.,1.,0.));
#1727 = DIRECTION('',(0.,0.,1.));
#1728 = ADVANCED_FACE('',(#1729),#1749,.T.);
#1729 = FACE_BOUND('',#1730,.T.);
#1730 = EDGE_LOOP('',(#1731,#1732,#1738,#1739,#1740,#1741,#1742,#1743));
#1731 = ORIENTED_EDGE('',*,*,#1490,.F.);
#1732 = ORIENTED_EDGE('',*,*,#1733,.T.);
#1733 = EDGE_CURVE('',#1483,#1649,#1734,.T.);
#1734 = LINE('',#1735,#1736);
#1735 = CARTESIAN_POINT('',(28.497056274848,-12.2,6.2));
#1736 = VECTOR('',#1737,1.);
#1737 = DIRECTION('',(0.,0.,1.));
#1738 = ORIENTED_EDGE('',*,*,#1648,.T.);
#1739 = ORIENTED_EDGE('',*,*,#1674,.T.);
#1740 = ORIENTED_EDGE('',*,*,#1577,.F.);
#1741 = ORIENTED_EDGE('',*,*,#1384,.T.);
#1742 = ORIENTED_EDGE('',*,*,#1127,.T.);
#1743 = ORIENTED_EDGE('',*,*,#1744,.F.);
#1744 = EDGE_CURVE('',#1491,#1128,#1745,.T.);
#1745 = LINE('',#1746,#1747);
#1746 = CARTESIAN_POINT('',(26.2,-14.49705627484,6.2));
#1747 = VECTOR('',#1748,1.);
#1748 = DIRECTION('',(0.,0.,1.));
#1749 = PLANE('',#1750);
#1750 = AXIS2_PLACEMENT_3D('',#1751,#1752,#1753);
#1751 = CARTESIAN_POINT('',(28.497056274848,-12.2,6.2));
#1752 = DIRECTION('',(0.707106781187,-0.707106781187,0.));
#1753 = DIRECTION('',(-0.707106781187,-0.707106781187,0.));
#1754 = ADVANCED_FACE('',(#1755),#1763,.T.);
#1755 = FACE_BOUND('',#1756,.T.);
#1756 = EDGE_LOOP('',(#1757,#1758,#1759,#1760,#1761,#1762));
#1757 = ORIENTED_EDGE('',*,*,#1498,.F.);
#1758 = ORIENTED_EDGE('',*,*,#1744,.T.);
#1759 = ORIENTED_EDGE('',*,*,#1135,.T.);
#1760 = ORIENTED_EDGE('',*,*,#1314,.F.);
#1761 = ORIENTED_EDGE('',*,*,#1701,.F.);
#1762 = ORIENTED_EDGE('',*,*,#1716,.F.);
#1763 = PLANE('',#1764);
#1764 = AXIS2_PLACEMENT_3D('',#1765,#1766,#1767);
#1765 = CARTESIAN_POINT('',(26.2,-14.49705627484,6.2));
#1766 = DIRECTION('',(1.,0.,0.));
#1767 = DIRECTION('',(0.,-1.,0.));
#1768 = ADVANCED_FACE('',(#1769),#1788,.T.);
#1769 = FACE_BOUND('',#1770,.F.);
#1770 = EDGE_LOOP('',(#1771,#1780,#1786,#1787));
#1771 = ORIENTED_EDGE('',*,*,#1772,.F.);
#1772 = EDGE_CURVE('',#1773,#1773,#1775,.T.);
#1773 = VERTEX_POINT('',#1774);
#1774 = CARTESIAN_POINT('',(47.6,-64.,6.3));
#1775 = CIRCLE('',#1776,2.1);
#1776 = AXIS2_PLACEMENT_3D('',#1777,#1778,#1779);
#1777 = CARTESIAN_POINT('',(45.5,-64.,6.3));
#1778 = DIRECTION('',(0.,0.,1.));
#1779 = DIRECTION('',(1.,0.,0.));
#1780 = ORIENTED_EDGE('',*,*,#1781,.T.);
#1781 = EDGE_CURVE('',#1773,#1197,#1782,.T.);
#1782 = LINE('',#1783,#1784);
#1783 = CARTESIAN_POINT('',(47.6,-64.,6.3));
#1784 = VECTOR('',#1785,1.);
#1785 = DIRECTION('',(0.,0.,1.));
#1786 = ORIENTED_EDGE('',*,*,#1196,.F.);
#1787 = ORIENTED_EDGE('',*,*,#1781,.F.);
#1788 = CYLINDRICAL_SURFACE('',#1789,2.1);
#1789 = AXIS2_PLACEMENT_3D('',#1790,#1791,#1792);
#1790 = CARTESIAN_POINT('',(45.5,-64.,6.3));
#1791 = DIRECTION('',(-0.,-0.,-1.));
#1792 = DIRECTION('',(1.,0.,0.));
#1793 = ADVANCED_FACE('',(#1794),#1813,.F.);
#1794 = FACE_BOUND('',#1795,.T.);
#1795 = EDGE_LOOP('',(#1796,#1804,#1811,#1812));
#1796 = ORIENTED_EDGE('',*,*,#1797,.F.);
#1797 = EDGE_CURVE('',#1798,#1223,#1800,.T.);
#1798 = VERTEX_POINT('',#1799);
#1799 = CARTESIAN_POINT('',(46.65,-64.,6.3));
#1800 = LINE('',#1801,#1802);
#1801 = CARTESIAN_POINT('',(46.65,-64.,6.2));
#1802 = VECTOR('',#1803,1.);
#1803 = DIRECTION('',(0.,0.,1.));
#1804 = ORIENTED_EDGE('',*,*,#1805,.T.);
#1805 = EDGE_CURVE('',#1798,#1798,#1806,.T.);
#1806 = CIRCLE('',#1807,1.15);
#1807 = AXIS2_PLACEMENT_3D('',#1808,#1809,#1810);
#1808 = CARTESIAN_POINT('',(45.5,-64.,6.3));
#1809 = DIRECTION('',(0.,0.,-1.));
#1810 = DIRECTION('',(1.,0.,0.));
#1811 = ORIENTED_EDGE('',*,*,#1797,.T.);
#1812 = ORIENTED_EDGE('',*,*,#1222,.F.);
#1813 = CYLINDRICAL_SURFACE('',#1814,1.15);
#1814 = AXIS2_PLACEMENT_3D('',#1815,#1816,#1817);
#1815 = CARTESIAN_POINT('',(45.5,-64.,6.2));
#1816 = DIRECTION('',(-0.,-0.,-1.));
#1817 = DIRECTION('',(1.,0.,0.));
#1818 = ADVANCED_FACE('',(#1819),#1830,.T.);
#1819 = FACE_BOUND('',#1820,.T.);
#1820 = EDGE_LOOP('',(#1821,#1822,#1828,#1829));
#1821 = ORIENTED_EDGE('',*,*,#1408,.F.);
#1822 = ORIENTED_EDGE('',*,*,#1823,.T.);
#1823 = EDGE_CURVE('',#1401,#1616,#1824,.T.);
#1824 = LINE('',#1825,#1826);
#1825 = CARTESIAN_POINT('',(47.,-48.1,8.5));
#1826 = VECTOR('',#1827,1.);
#1827 = DIRECTION('',(0.,1.,0.));
#1828 = ORIENTED_EDGE('',*,*,#1623,.F.);
#1829 = ORIENTED_EDGE('',*,*,#1446,.T.);
#1830 = PLANE('',#1831);
#1831 = AXIS2_PLACEMENT_3D('',#1832,#1833,#1834);
#1832 = CARTESIAN_POINT('',(27.4,-48.1,8.5));
#1833 = DIRECTION('',(0.,0.,1.));
#1834 = DIRECTION('',(1.,0.,0.));
#1835 = ADVANCED_FACE('',(#1836),#1842,.F.);
#1836 = FACE_BOUND('',#1837,.F.);
#1837 = EDGE_LOOP('',(#1838,#1839,#1840,#1841));
#1838 = ORIENTED_EDGE('',*,*,#1584,.F.);
#1839 = ORIENTED_EDGE('',*,*,#1400,.F.);
#1840 = ORIENTED_EDGE('',*,*,#1823,.T.);
#1841 = ORIENTED_EDGE('',*,*,#1615,.T.);
#1842 = PLANE('',#1843);
#1843 = AXIS2_PLACEMENT_3D('',#1844,#1845,#1846);
#1844 = CARTESIAN_POINT('',(47.,-48.1,8.5));
#1845 = DIRECTION('',(1.,0.,0.));
#1846 = DIRECTION('',(0.,0.,1.));
#1847 = ADVANCED_FACE('',(#1848),#1854,.T.);
#1848 = FACE_BOUND('',#1849,.T.);
#1849 = EDGE_LOOP('',(#1850,#1851,#1852,#1853));
#1850 = ORIENTED_EDGE('',*,*,#1656,.T.);
#1851 = ORIENTED_EDGE('',*,*,#1733,.F.);
#1852 = ORIENTED_EDGE('',*,*,#1482,.F.);
#1853 = ORIENTED_EDGE('',*,*,#1536,.T.);
#1854 = PLANE('',#1855);
#1855 = AXIS2_PLACEMENT_3D('',#1856,#1857,#1858);
#1856 = CARTESIAN_POINT('',(47.8,-12.2,6.2));
#1857 = DIRECTION('',(0.,-1.,0.));
#1858 = DIRECTION('',(-1.,0.,0.));
#1859 = ADVANCED_FACE('',(#1860,#1863),#1866,.F.);
#1860 = FACE_BOUND('',#1861,.F.);
#1861 = EDGE_LOOP('',(#1862));
#1862 = ORIENTED_EDGE('',*,*,#1772,.T.);
#1863 = FACE_BOUND('',#1864,.F.);
#1864 = EDGE_LOOP('',(#1865));
#1865 = ORIENTED_EDGE('',*,*,#1805,.T.);
#1866 = PLANE('',#1867);
#1867 = AXIS2_PLACEMENT_3D('',#1868,#1869,#1870);
#1868 = CARTESIAN_POINT('',(45.5,-64.,6.3));
#1869 = DIRECTION('',(0.,0.,1.));
#1870 = DIRECTION('',(1.,0.,0.));
#1871 = ( GEOMETRIC_REPRESENTATION_CONTEXT(3) 
GLOBAL_UNCERTAINTY_ASSIGNED_CONTEXT((#1875)) 
GLOBAL_UNIT_ASSIGNED_CONTEXT((#1872,#1873,#1874)) REPRESENTATION_CONTEXT
('Context #1','3D Context with UNIT and UNCERTAINTY') );
#1872 = ( LENGTH_UNIT() NAMED_UNIT(*) SI_UNIT(.MILLI.,.METRE.) );
#1873 = ( NAMED_UNIT(*) PLANE_ANGLE_UNIT() SI_UNIT($,.RADIAN.) );
#1874 = ( NAMED_UNIT(*) SI_UNIT($,.STERADIAN.) SOLID_ANGLE_UNIT() );
#1875 = UNCERTAINTY_MEASURE_WITH_UNIT(LENGTH_MEASURE(2.E-05),#1872,
  'distance_accuracy_value','confusion accuracy');
#1876 = PRODUCT_RELATED_PRODUCT_CATEGORY('part',$,(#7));
ENDSEC;
END-ISO-10303-21;
