<svg xmlns="http://www.w3.org/2000/svg" viewBox="0 0 1200 640" role="img" aria-labelledby="title desc">
<title id="title">Filo36 — distribución de 36 teclas</title>
<desc id="desc">Dos mitades, cinco columnas de tres teclas y tres pulgares por mano. Posiciones y rotaciones procedentes de Piantor. Diagrama de layout, no carcasa final.</desc>
<rect width="1200" height="640" fill="#152c29"/>
<path d="M1100 0H1200V100Z" fill="#264b43"/>
<g font-family="Arial, Helvetica, sans-serif">
<text x="64" y="96" fill="#efe8d6" font-size="60" font-weight="700" letter-spacing="-2">FILO<tspan fill="#84cbb1">36</tspan></text>
<text x="64" y="137" fill="#b8c8be" font-size="20">Perfil bajo. Ángulos definidos.</text>
<text x="1136" y="89" text-anchor="end" fill="#84cbb1" font-size="14" letter-spacing="2">EN DESARROLLO</text>
</g>
<g transform="translate(186.000000 319.800000) rotate(-0.000000)" data-side="left" data-key="K01">
<rect x="-27.2" y="-25.6" width="54.4" height="51.2" rx="4" fill="#efe8d6"/>
<path d="M-20 17H20" stroke="#152c29" stroke-opacity=".12" stroke-width="2"/>
</g>
<g transform="translate(243.600000 281.400000) rotate(-0.000000)" data-side="left" data-key="K02">
<rect x="-27.2" y="-25.6" width="54.4" height="51.2" rx="4" fill="#efe8d6"/>
<path d="M-20 17H20" stroke="#152c29" stroke-opacity=".12" stroke-width="2"/>
</g>
<g transform="translate(301.200000 265.400000) rotate(-0.000000)" data-side="left" data-key="K03">
<rect x="-27.2" y="-25.6" width="54.4" height="51.2" rx="4" fill="#efe8d6"/>
<path d="M-20 17H20" stroke="#152c29" stroke-opacity=".12" stroke-width="2"/>
</g>
<g transform="translate(358.800000 281.400000) rotate(-0.000000)" data-side="left" data-key="K04">
<rect x="-27.2" y="-25.6" width="54.4" height="51.2" rx="4" fill="#efe8d6"/>
<path d="M-20 17H20" stroke="#152c29" stroke-opacity=".12" stroke-width="2"/>
</g>
<g transform="translate(416.400000 287.800000) rotate(-0.000000)" data-side="left" data-key="K05">
<rect x="-27.2" y="-25.6" width="54.4" height="51.2" rx="4" fill="#efe8d6"/>
<path d="M-20 17H20" stroke="#152c29" stroke-opacity=".12" stroke-width="2"/>
</g>
<g transform="translate(186.000000 374.200000) rotate(-0.000000)" data-side="left" data-key="K11">
<rect x="-27.2" y="-25.6" width="54.4" height="51.2" rx="4" fill="#efe8d6"/>
<path d="M-20 17H20" stroke="#152c29" stroke-opacity=".12" stroke-width="2"/>
</g>
<g transform="translate(243.600000 335.800000) rotate(-0.000000)" data-side="left" data-key="K12">
<rect x="-27.2" y="-25.6" width="54.4" height="51.2" rx="4" fill="#efe8d6"/>
<path d="M-20 17H20" stroke="#152c29" stroke-opacity=".12" stroke-width="2"/>
</g>
<g transform="translate(301.200000 319.800000) rotate(-0.000000)" data-side="left" data-key="K13">
<rect x="-27.2" y="-25.6" width="54.4" height="51.2" rx="4" fill="#efe8d6"/>
<path d="M-20 17H20" stroke="#152c29" stroke-opacity=".12" stroke-width="2"/>
</g>
<g transform="translate(358.800000 335.800000) rotate(-0.000000)" data-side="left" data-key="K14">
<rect x="-27.2" y="-25.6" width="54.4" height="51.2" rx="4" fill="#efe8d6"/>
<path d="M-20 17H20" stroke="#152c29" stroke-opacity=".12" stroke-width="2"/>
<circle r="2" cy="12" fill="#152c29" opacity=".5"/>
</g>
<g transform="translate(416.400000 342.200000) rotate(-0.000000)" data-side="left" data-key="K15">
<rect x="-27.2" y="-25.6" width="54.4" height="51.2" rx="4" fill="#efe8d6"/>
<path d="M-20 17H20" stroke="#152c29" stroke-opacity=".12" stroke-width="2"/>
</g>
<g transform="translate(186.000000 428.600000) rotate(-0.000000)" data-side="left" data-key="K21">
<rect x="-27.2" y="-25.6" width="54.4" height="51.2" rx="4" fill="#efe8d6"/>
<path d="M-20 17H20" stroke="#152c29" stroke-opacity=".12" stroke-width="2"/>
</g>
<g transform="translate(243.600000 390.200000) rotate(-0.000000)" data-side="left" data-key="K22">
<rect x="-27.2" y="-25.6" width="54.4" height="51.2" rx="4" fill="#efe8d6"/>
<path d="M-20 17H20" stroke="#152c29" stroke-opacity=".12" stroke-width="2"/>
</g>
<g transform="translate(301.200000 374.200000) rotate(-0.000000)" data-side="left" data-key="K23">
<rect x="-27.2" y="-25.6" width="54.4" height="51.2" rx="4" fill="#efe8d6"/>
<path d="M-20 17H20" stroke="#152c29" stroke-opacity=".12" stroke-width="2"/>
</g>
<g transform="translate(358.800000 390.200000) rotate(-0.000000)" data-side="left" data-key="K24">
<rect x="-27.2" y="-25.6" width="54.4" height="51.2" rx="4" fill="#efe8d6"/>
<path d="M-20 17H20" stroke="#152c29" stroke-opacity=".12" stroke-width="2"/>
</g>
<g transform="translate(416.400000 396.600000) rotate(-0.000000)" data-side="left" data-key="K25">
<rect x="-27.2" y="-25.6" width="54.4" height="51.2" rx="4" fill="#efe8d6"/>
<path d="M-20 17H20" stroke="#152c29" stroke-opacity=".12" stroke-width="2"/>
</g>
<g transform="translate(342.800000 457.400000) rotate(-5.000000)" data-side="left" data-key="K30">
<rect x="-27.2" y="-25.6" width="54.4" height="51.2" rx="4" fill="#84cbb1"/>
<path d="M-20 17H20" stroke="#152c29" stroke-opacity=".12" stroke-width="2"/>
</g>
<g transform="translate(413.200000 460.600000) rotate(10.000000)" data-side="left" data-key="K31">
<rect x="-27.2" y="-25.6" width="54.4" height="51.2" rx="4" fill="#84cbb1"/>
<path d="M-20 17H20" stroke="#152c29" stroke-opacity=".12" stroke-width="2"/>
</g>
<g transform="translate(480.400000 483.000000) rotate(25.000000)" data-side="left" data-key="K32">
<rect x="-27.2" y="-25.6" width="54.4" height="51.2" rx="4" fill="#84cbb1"/>
<path d="M-20 17H20" stroke="#152c29" stroke-opacity=".12" stroke-width="2"/>
</g>
<g transform="translate(1018.000000 319.800000) rotate(-0.000000)" data-side="right" data-key="K01">
<rect x="-27.2" y="-25.6" width="54.4" height="51.2" rx="4" fill="#efe8d6"/>
<path d="M-20 17H20" stroke="#152c29" stroke-opacity=".12" stroke-width="2"/>
</g>
<g transform="translate(960.400000 281.400000) rotate(-0.000000)" data-side="right" data-key="K02">
<rect x="-27.2" y="-25.6" width="54.4" height="51.2" rx="4" fill="#efe8d6"/>
<path d="M-20 17H20" stroke="#152c29" stroke-opacity=".12" stroke-width="2"/>
</g>
<g transform="translate(902.800000 265.400000) rotate(-0.000000)" data-side="right" data-key="K03">
<rect x="-27.2" y="-25.6" width="54.4" height="51.2" rx="4" fill="#efe8d6"/>
<path d="M-20 17H20" stroke="#152c29" stroke-opacity=".12" stroke-width="2"/>
</g>
<g transform="translate(845.200000 281.400000) rotate(-0.000000)" data-side="right" data-key="K04">
<rect x="-27.2" y="-25.6" width="54.4" height="51.2" rx="4" fill="#efe8d6"/>
<path d="M-20 17H20" stroke="#152c29" stroke-opacity=".12" stroke-width="2"/>
</g>
<g transform="translate(787.600000 287.800000) rotate(-0.000000)" data-side="right" data-key="K05">
<rect x="-27.2" y="-25.6" width="54.4" height="51.2" rx="4" fill="#efe8d6"/>
<path d="M-20 17H20" stroke="#152c29" stroke-opacity=".12" stroke-width="2"/>
</g>
<g transform="translate(1018.000000 374.200000) rotate(-0.000000)" data-side="right" data-key="K11">
<rect x="-27.2" y="-25.6" width="54.4" height="51.2" rx="4" fill="#efe8d6"/>
<path d="M-20 17H20" stroke="#152c29" stroke-opacity=".12" stroke-width="2"/>
</g>
<g transform="translate(960.400000 335.800000) rotate(-0.000000)" data-side="right" data-key="K12">
<rect x="-27.2" y="-25.6" width="54.4" height="51.2" rx="4" fill="#efe8d6"/>
<path d="M-20 17H20" stroke="#152c29" stroke-opacity=".12" stroke-width="2"/>
</g>
<g transform="translate(902.800000 319.800000) rotate(-0.000000)" data-side="right" data-key="K13">
<rect x="-27.2" y="-25.6" width="54.4" height="51.2" rx="4" fill="#efe8d6"/>
<path d="M-20 17H20" stroke="#152c29" stroke-opacity=".12" stroke-width="2"/>
</g>
<g transform="translate(845.200000 335.800000) rotate(-0.000000)" data-side="right" data-key="K14">
<rect x="-27.2" y="-25.6" width="54.4" height="51.2" rx="4" fill="#efe8d6"/>
<path d="M-20 17H20" stroke="#152c29" stroke-opacity=".12" stroke-width="2"/>
<circle r="2" cy="12" fill="#152c29" opacity=".5"/>
</g>
<g transform="translate(787.600000 342.200000) rotate(-0.000000)" data-side="right" data-key="K15">
<rect x="-27.2" y="-25.6" width="54.4" height="51.2" rx="4" fill="#efe8d6"/>
<path d="M-20 17H20" stroke="#152c29" stroke-opacity=".12" stroke-width="2"/>
</g>
<g transform="translate(1018.000000 428.600000) rotate(-0.000000)" data-side="right" data-key="K21">
<rect x="-27.2" y="-25.6" width="54.4" height="51.2" rx="4" fill="#efe8d6"/>
<path d="M-20 17H20" stroke="#152c29" stroke-opacity=".12" stroke-width="2"/>
</g>
<g transform="translate(960.400000 390.200000) rotate(-0.000000)" data-side="right" data-key="K22">
<rect x="-27.2" y="-25.6" width="54.4" height="51.2" rx="4" fill="#efe8d6"/>
<path d="M-20 17H20" stroke="#152c29" stroke-opacity=".12" stroke-width="2"/>
</g>
<g transform="translate(902.800000 374.200000) rotate(-0.000000)" data-side="right" data-key="K23">
<rect x="-27.2" y="-25.6" width="54.4" height="51.2" rx="4" fill="#efe8d6"/>
<path d="M-20 17H20" stroke="#152c29" stroke-opacity=".12" stroke-width="2"/>
</g>
<g transform="translate(845.200000 390.200000) rotate(-0.000000)" data-side="right" data-key="K24">
<rect x="-27.2" y="-25.6" width="54.4" height="51.2" rx="4" fill="#efe8d6"/>
<path d="M-20 17H20" stroke="#152c29" stroke-opacity=".12" stroke-width="2"/>
</g>
<g transform="translate(787.600000 396.600000) rotate(-0.000000)" data-side="right" data-key="K25">
<rect x="-27.2" y="-25.6" width="54.4" height="51.2" rx="4" fill="#efe8d6"/>
<path d="M-20 17H20" stroke="#152c29" stroke-opacity=".12" stroke-width="2"/>
</g>
<g transform="translate(861.200000 457.400000) rotate(5.000000)" data-side="right" data-key="K30">
<rect x="-27.2" y="-25.6" width="54.4" height="51.2" rx="4" fill="#84cbb1"/>
<path d="M-20 17H20" stroke="#152c29" stroke-opacity=".12" stroke-width="2"/>
</g>
<g transform="translate(790.800000 460.600000) rotate(-10.000000)" data-side="right" data-key="K31">
<rect x="-27.2" y="-25.6" width="54.4" height="51.2" rx="4" fill="#84cbb1"/>
<path d="M-20 17H20" stroke="#152c29" stroke-opacity=".12" stroke-width="2"/>
</g>
<g transform="translate(723.600000 483.000000) rotate(-25.000000)" data-side="right" data-key="K32">
<rect x="-27.2" y="-25.6" width="54.4" height="51.2" rx="4" fill="#84cbb1"/>
<path d="M-20 17H20" stroke="#152c29" stroke-opacity=".12" stroke-width="2"/>
</g>
<path d="M64 584H1136" stroke="#38534a"/>
<g font-family="Arial, Helvetica, sans-serif" font-size="15" fill="#b8c8be">
<text x="64" y="613">3 × 5 + 3 por mano</text>
<text x="1136" y="613" text-anchor="end">Layout derivado de Piantor · No representa la carcasa final</text>
</g></svg>
